<?xml version="1.0" standalone="no"?>
<!DOCTYPE svg PUBLIC "-//W3C//DTD SVG 20010904//EN"
 "http://www.w3.org/TR/2001/REC-SVG-20010904/DTD/svg10.dtd">
<svg version="1.0" xmlns="http://www.w3.org/2000/svg"
 width="2000.000000pt" height="2000.000000pt" viewBox="0 0 2000.000000 2000.000000"
 preserveAspectRatio="xMidYMid meet">
<metadata>
Created by potrace 1.16, written by Peter Selinger 2001-2019
</metadata>
<g transform="translate(0.000000,2000.000000) scale(0.100000,-0.100000)"
fill="#000000" stroke="none">
<path d="M1 19678 c1 -303 2 -318 14 -249 56 310 249 504 555 556 69 12 50 13
-247 14 l-323 1 1 -322z"/>
<path d="M19430 19985 c252 -43 434 -187 515 -408 14 -40 32 -107 40 -148 12
-69 13 -54 14 249 l1 322 -322 -1 c-298 -1 -317 -2 -248 -14z"/>
<path d="M1010 16820 l0 -2170 2170 0 2170 0 0 2170 0 2170 -2170 0 -2170 0 0
-2170z m3720 0 l0 -1550 -1550 0 -1550 0 0 1550 0 1550 1550 0 1550 0 0 -1550z"/>
<path d="M2250 16820 l0 -930 930 0 930 0 0 930 0 930 -930 0 -930 0 0 -930z"/>
<path d="M7210 18060 l0 -930 -310 0 -310 0 0 -310 0 -310 -310 0 -310 0 0
-310 0 -310 620 0 620 0 0 -620 0 -620 -310 0 -310 0 0 310 0 310 -310 0 -310
0 0 -310 0 -310 310 0 310 0 0 -310 0 -310 -310 0 -310 0 0 -620 0 -620 -620
0 -620 0 0 -310 0 -310 310 0 310 0 0 -310 0 -310 -620 0 -620 0 0 310 0 310
-620 0 -620 0 0 310 0 310 -310 0 -310 0 0 310 0 310 310 0 310 0 0 310 0 310
-310 0 -310 0 0 -310 0 -310 -310 0 -310 0 0 -310 0 -310 -310 0 -310 0 0
-930 0 -930 310 0 310 0 0 -310 0 -310 -310 0 -310 0 0 -620 0 -620 310 0 310
0 0 310 0 310 310 0 310 0 0 310 0 310 310 0 310 0 0 -620 0 -620 -310 0 -310
0 0 -310 0 -310 -310 0 -310 0 0 -310 0 -310 -310 0 -310 0 0 -310 0 -310 310
0 310 0 0 -310 0 -310 310 0 310 0 0 310 0 310 310 0 310 0 0 930 0 930 310 0
310 0 0 -310 0 -310 310 0 310 0 0 -310 0 -310 -310 0 -310 0 0 -310 0 -310
310 0 310 0 0 -310 0 -310 310 0 310 0 0 -310 0 -310 620 0 620 0 0 -310 0
-310 310 0 310 0 0 -310 0 -310 -310 0 -310 0 0 -620 0 -620 310 0 310 0 0
-310 0 -310 -310 0 -310 0 0 -310 0 -310 310 0 310 0 0 -620 0 -620 1860 0
1860 0 0 310 0 310 310 0 310 0 0 -310 0 -310 2790 0 2790 0 0 310 0 310 310
0 310 0 0 -310 0 -310 620 0 620 0 0 310 0 310 310 0 310 0 0 310 0 310 -1240
0 -1240 0 0 -310 0 -310 -620 0 -620 0 0 310 0 310 -310 0 -310 0 0 310 0 310
-310 0 -310 0 0 310 0 310 620 0 620 0 0 -310 0 -310 310 0 310 0 0 310 0 310
310 0 310 0 0 310 0 310 310 0 310 0 0 310 0 310 -310 0 -310 0 0 1550 0 1550
-310 0 -310 0 0 310 0 310 -310 0 -310 0 0 620 0 620 1240 0 1240 0 0 310 0
310 620 0 620 0 0 1550 0 1550 -310 0 -310 0 0 310 0 310 -310 0 -310 0 0
-310 0 -310 -620 0 -620 0 0 310 0 310 -310 0 -310 0 0 -620 0 -620 -620 0
-620 0 0 620 0 620 -620 0 -620 0 0 310 0 310 310 0 310 0 0 310 0 310 -310 0
-310 0 0 310 0 310 310 0 310 0 0 1550 0 1550 -310 0 -310 0 0 -930 0 -930
-310 0 -310 0 0 310 0 310 -310 0 -310 0 0 620 0 620 -310 0 -310 0 0 -620 0
-620 -620 0 -620 0 0 310 0 310 310 0 310 0 0 310 0 310 -930 0 -930 0 0 -310
0 -310 -310 0 -310 0 0 310 0 310 -620 0 -620 0 0 -930z m2480 -620 l0 -310
310 0 310 0 0 -310 0 -310 310 0 310 0 0 -310 0 -310 -310 0 -310 0 0 -310 0
-310 310 0 310 0 0 -310 0 -310 -310 0 -310 0 0 -620 0 -620 -310 0 -310 0 0
-620 0 -620 -310 0 -310 0 0 -620 0 -620 310 0 310 0 0 -310 0 -310 310 0 310
0 0 1240 0 1240 310 0 310 0 0 620 0 620 1240 0 1240 0 0 -930 0 -930 1240 0
1240 0 0 310 0 310 310 0 310 0 0 -310 0 -310 -310 0 -310 0 0 -310 0 -310
620 0 620 0 0 310 0 310 620 0 620 0 0 -620 0 -620 -620 0 -620 0 0 -310 0
-310 -620 0 -620 0 0 310 0 310 -310 0 -310 0 0 310 0 310 -310 0 -310 0 0
-620 0 -620 -310 0 -310 0 0 -620 0 -620 -310 0 -310 0 0 620 0 620 310 0 310
0 0 620 0 620 -310 0 -310 0 0 310 0 310 -310 0 -310 0 0 -620 0 -620 -310 0
-310 0 0 -310 0 -310 310 0 310 0 0 -310 0 -310 -310 0 -310 0 0 -310 0 -310
310 0 310 0 0 -310 0 -310 -310 0 -310 0 0 -310 0 -310 310 0 310 0 0 -310 0
-310 310 0 310 0 0 310 0 310 310 0 310 0 0 310 0 310 310 0 310 0 0 -310 0
-310 310 0 310 0 0 -310 0 -310 -310 0 -310 0 0 -310 0 -310 -310 0 -310 0 0
310 0 310 -310 0 -310 0 0 -310 0 -310 -310 0 -310 0 0 -310 0 -310 310 0 310
0 0 -930 0 -930 -620 0 -620 0 0 930 0 930 -310 0 -310 0 0 -1240 0 -1240 310
0 310 0 0 -620 0 -620 310 0 310 0 0 310 0 310 620 0 620 0 0 -310 0 -310 310
0 310 0 0 -310 0 -310 -310 0 -310 0 0 310 0 310 -620 0 -620 0 0 -310 0 -310
-620 0 -620 0 0 310 0 310 -620 0 -620 0 0 -310 0 -310 -930 0 -930 0 0 310 0
310 -310 0 -310 0 0 -310 0 -310 -310 0 -310 0 0 310 0 310 310 0 310 0 0 310
0 310 620 0 620 0 0 310 0 310 -620 0 -620 0 0 310 0 310 620 0 620 0 0 310 0
310 -930 0 -930 0 0 -310 0 -310 -310 0 -310 0 0 310 0 310 310 0 310 0 0 310
0 310 620 0 620 0 0 620 0 620 -620 0 -620 0 0 -310 0 -310 -620 0 -620 0 0
310 0 310 310 0 310 0 0 310 0 310 620 0 620 0 0 310 0 310 -310 0 -310 0 0
310 0 310 -310 0 -310 0 0 -310 0 -310 -310 0 -310 0 0 -310 0 -310 -310 0
-310 0 0 -310 0 -310 -310 0 -310 0 0 310 0 310 -310 0 -310 0 0 310 0 310
310 0 310 0 0 310 0 310 -310 0 -310 0 0 310 0 310 -310 0 -310 0 0 310 0 310
310 0 310 0 0 310 0 310 -310 0 -310 0 0 310 0 310 -620 0 -620 0 0 310 0 310
-310 0 -310 0 0 620 0 620 310 0 310 0 0 -310 0 -310 310 0 310 0 0 -310 0
-310 620 0 620 0 0 -620 0 -620 310 0 310 0 0 310 0 310 310 0 310 0 0 310 0
310 310 0 310 0 0 620 0 620 310 0 310 0 0 620 0 620 310 0 310 0 0 310 0 310
310 0 310 0 0 310 0 310 310 0 310 0 0 -310 0 -310 310 0 310 0 0 310 0 310
310 0 310 0 0 310 0 310 -930 0 -930 0 0 310 0 310 310 0 310 0 0 310 0 310
310 0 310 0 0 310 0 310 310 0 310 0 0 -310z m3100 -620 l0 -310 310 0 310 0
0 -310 0 -310 -310 0 -310 0 0 310 0 310 -310 0 -310 0 0 -930 0 -930 -310 0
-310 0 0 1240 0 1240 620 0 620 0 0 -310z m620 -1860 l0 -310 -310 0 -310 0 0
310 0 310 310 0 310 0 0 -310z m4960 -1860 l0 -310 -310 0 -310 0 0 310 0 310
310 0 310 0 0 -310z m-16120 -5580 l0 -310 -310 0 -310 0 0 310 0 310 310 0
310 0 0 -310z m13640 -2480 l0 -930 -930 0 -930 0 0 930 0 930 930 0 930 0 0
-930z"/>
<path d="M9070 16820 l0 -310 310 0 310 0 0 -310 0 -310 310 0 310 0 0 310 0
310 -310 0 -310 0 0 310 0 310 -310 0 -310 0 0 -310z"/>
<path d="M9690 14960 l0 -310 310 0 310 0 0 310 0 310 -310 0 -310 0 0 -310z"/>
<path d="M7210 13410 l0 -620 -310 0 -310 0 0 -310 0 -310 310 0 310 0 0 -310
0 -310 -620 0 -620 0 0 -620 0 -620 -620 0 -620 0 0 -310 0 -310 -310 0 -310
0 0 -310 0 -310 310 0 310 0 0 -310 0 -310 310 0 310 0 0 -310 0 -310 -310 0
-310 0 0 -310 0 -310 310 0 310 0 0 310 0 310 310 0 310 0 0 310 0 310 310 0
310 0 0 310 0 310 310 0 310 0 0 -310 0 -310 310 0 310 0 0 -310 0 -310 930 0
930 0 0 -310 0 -310 310 0 310 0 0 -310 0 -310 -310 0 -310 0 0 -310 0 -310
930 0 930 0 0 620 0 620 310 0 310 0 0 310 0 310 -310 0 -310 0 0 -310 0 -310
-620 0 -620 0 0 310 0 310 -310 0 -310 0 0 310 0 310 -310 0 -310 0 0 310 0
310 -310 0 -310 0 0 310 0 310 310 0 310 0 0 310 0 310 -930 0 -930 0 0 310 0
310 310 0 310 0 0 310 0 310 310 0 310 0 0 310 0 310 310 0 310 0 0 620 0 620
310 0 310 0 0 310 0 310 -310 0 -310 0 0 -310 0 -310 -310 0 -310 0 0 310 0
310 -620 0 -620 0 0 -620z m1240 -930 l0 -310 -310 0 -310 0 0 310 0 310 310
0 310 0 0 -310z m-3100 -3100 l0 -310 -310 0 -310 0 0 310 0 310 310 0 310 0
0 -310z m1240 0 l0 -310 -310 0 -310 0 0 310 0 310 310 0 310 0 0 -310z"/>
<path d="M12170 12480 l0 -310 310 0 310 0 0 310 0 310 -310 0 -310 0 0 -310z"/>
<path d="M10930 11550 l0 -620 310 0 310 0 0 620 0 620 -310 0 -310 0 0 -620z"/>
<path d="M10310 10000 l0 -310 -310 0 -310 0 0 -310 0 -310 310 0 310 0 0 310
0 310 310 0 310 0 0 310 0 310 -310 0 -310 0 0 -310z"/>
<path d="M11550 10000 l0 -310 310 0 310 0 0 310 0 310 -310 0 -310 0 0 -310z"/>
<path d="M10930 8760 l0 -310 310 0 310 0 0 310 0 310 -310 0 -310 0 0 -310z"/>
<path d="M9070 5040 l0 -310 620 0 620 0 0 -310 0 -310 -620 0 -620 0 0 -310
0 -310 620 0 620 0 0 -310 0 -310 310 0 310 0 0 310 0 310 -310 0 -310 0 0
310 0 310 310 0 310 0 0 310 0 310 -310 0 -310 0 0 310 0 310 -620 0 -620 0 0
-310z"/>
<path d="M9070 2560 l0 -310 310 0 310 0 0 310 0 310 -310 0 -310 0 0 -310z"/>
<path d="M14650 5040 l0 -310 310 0 310 0 0 310 0 310 -310 0 -310 0 0 -310z"/>
<path d="M14650 16820 l0 -2170 2170 0 2170 0 0 2170 0 2170 -2170 0 -2170 0
0 -2170z m3720 0 l0 -1550 -1550 0 -1550 0 0 1550 0 1550 1550 0 1550 0 0
-1550z"/>
<path d="M15890 16820 l0 -930 930 0 930 0 0 930 0 930 -930 0 -930 0 0 -930z"/>
<path d="M5970 18060 l0 -310 310 0 310 0 0 310 0 310 -310 0 -310 0 0 -310z"/>
<path d="M3490 13410 l0 -620 310 0 310 0 0 310 0 310 620 0 620 0 0 310 0
310 -930 0 -930 0 0 -620z"/>
<path d="M18370 9380 l0 -310 310 0 310 0 0 310 0 310 -310 0 -310 0 0 -310z"/>
<path d="M16510 8760 l0 -310 620 0 620 0 0 -310 0 -310 620 0 620 0 0 310 0
310 -620 0 -620 0 0 310 0 310 -620 0 -620 0 0 -310z"/>
<path d="M17130 6280 l0 -930 310 0 310 0 0 -620 0 -620 310 0 310 0 0 -620 0
-620 310 0 310 0 0 620 0 620 -310 0 -310 0 0 620 0 620 310 0 310 0 0 620 0
620 -310 0 -310 0 0 310 0 310 -620 0 -620 0 0 -930z m1240 0 l0 -310 -310 0
-310 0 0 310 0 310 310 0 310 0 0 -310z"/>
<path d="M2870 6280 l0 -310 310 0 310 0 0 310 0 310 -310 0 -310 0 0 -310z"/>
<path d="M1010 3180 l0 -2170 2170 0 2170 0 0 2170 0 2170 -2170 0 -2170 0 0
-2170z m3720 0 l0 -1550 -1550 0 -1550 0 0 1550 0 1550 1550 0 1550 0 0 -1550z"/>
<path d="M2250 3180 l0 -930 930 0 930 0 0 930 0 930 -930 0 -930 0 0 -930z"/>
<path d="M17130 3180 l0 -310 310 0 310 0 0 310 0 310 -310 0 -310 0 0 -310z"/>
<path d="M1 318 l-1 -318 323 1 c306 1 318 1 245 15 -150 27 -266 82 -360 172
-98 93 -155 202 -189 362 l-18 85 0 -317z"/>
<path d="M19990 607 c0 -13 -9 -59 -20 -102 -69 -271 -253 -438 -541 -490 -69
-12 -54 -13 249 -14 l322 -1 0 315 c0 173 -2 315 -5 315 -3 0 -5 -11 -5 -23z"/>
</g>
</svg>
