<?xml version="1.0" encoding="UTF-8" standalone="no"?>
<!-- Created with Inkscape (http://www.inkscape.org/) -->

<svg
   xmlns:dc="http://purl.org/dc/elements/1.1/"
   xmlns:cc="http://creativecommons.org/ns#"
   xmlns:rdf="http://www.w3.org/1999/02/22-rdf-syntax-ns#"
   xmlns:svg="http://www.w3.org/2000/svg"
   xmlns="http://www.w3.org/2000/svg"
   xmlns:sodipodi="http://sodipodi.sourceforge.net/DTD/sodipodi-0.dtd"
   xmlns:inkscape="http://www.inkscape.org/namespaces/inkscape"
   width="8.3078928in"
   height="4.6740298in"
   id="svg2802"
   sodipodi:version="0.32"
   inkscape:version="0.91 r13725"
   version="1.0"
   sodipodi:docname="determinant-wide.svg"
   inkscape:output_extension="org.inkscape.output.svg.inkscape">
  <defs
     id="defs2804">
    <marker
       refY="0"
       id="Arrow1Mend"
       refX="0"
       style="overflow:visible"
       orient="auto"
       inkscape:stockid="Arrow1Mend">
      <path
         d="M 0,0 5,-5 -12.5,0 5,5 0,0 Z"
         style="fill-rule:evenodd;stroke:#000000;stroke-width:1pt;marker-start:none"
         transform="matrix(-0.4,0,0,-0.4,-4,0)"
         id="path9975"
         inkscape:connector-curvature="0" />
    </marker>
    <marker
       refY="0"
       id="Arrow1Mstart"
       refX="0"
       style="overflow:visible"
       orient="auto"
       inkscape:stockid="Arrow1Mstart">
      <path
         d="M 0,0 5,-5 -12.5,0 5,5 0,0 Z"
         style="fill-rule:evenodd;stroke:#000000;stroke-width:1pt;marker-start:none"
         transform="matrix(0.4,0,0,0.4,4,0)"
         id="path9978"
         inkscape:connector-curvature="0" />
    </marker>
    <inkscape:perspective
       sodipodi:type="inkscape:persp3d"
       inkscape:vp_x="0 : 526.18109 : 1"
       inkscape:vp_y="0 : 1000 : 0"
       inkscape:vp_z="744.09448 : 526.18109 : 1"
       inkscape:persp3d-origin="372.04724 : 350.78739 : 1"
       id="perspective2810" />
  </defs>
  <sodipodi:namedview
     id="base"
     pagecolor="#ffffff"
     bordercolor="#666666"
     borderopacity="1.0"
     gridtolerance="10000"
     guidetolerance="10"
     objecttolerance="10"
     inkscape:pageopacity="0.0"
     inkscape:pageshadow="2"
     inkscape:zoom="0.49497475"
     inkscape:cx="527.55227"
     inkscape:cy="105.94694"
     inkscape:document-units="px"
     inkscape:current-layer="layer1"
     showgrid="false"
     inkscape:window-width="1219"
     inkscape:window-height="683"
     inkscape:window-x="50"
     inkscape:window-y="27"
     fit-margin-top="0"
     fit-margin-left="0"
     fit-margin-right="0"
     fit-margin-bottom="0"
     units="in"
     inkscape:window-maximized="0" />
  <metadata
     id="metadata2807">
    <rdf:RDF>
      <cc:Work
         rdf:about="">
        <dc:format>image/svg+xml</dc:format>
        <dc:type
           rdf:resource="http://purl.org/dc/dcmitype/StillImage" />
        <dc:title></dc:title>
      </cc:Work>
    </rdf:RDF>
  </metadata>
  <g
     inkscape:label="Layer 1"
     inkscape:groupmode="layer"
     id="layer1"
     transform="translate(252.37099,-135.31656)">
    <g
       id="g3798"
       transform="translate(-198.85714,-131.93338)">
      <g
         transform="translate(-44.940931,-14.611873)"
         id="g10669">
        <g
           id="g10055"
           transform="translate(13.331807,84.993111)">
          <g
             transform="translate(125.53024,29.716665)"
             id="g5852">
            <path
               d="m 105.95212,458.48441 c 101.34551,0 101.34551,0 101.34551,0"
               id="path5854"
               style="fill:none;fill-opacity:0.75;fill-rule:evenodd;stroke:#000000;stroke-width:1px;stroke-linecap:butt;stroke-linejoin:miter;stroke-opacity:1"
               inkscape:connector-curvature="0" />
            <path
               d="m 105.95212,416.90174 c 101.34551,0 101.34551,0 101.34551,0"
               id="path5856"
               style="fill:none;fill-opacity:0.75;fill-rule:evenodd;stroke:#000000;stroke-width:1px;stroke-linecap:butt;stroke-linejoin:miter;stroke-opacity:1"
               inkscape:connector-curvature="0" />
          </g>
          <path
             id="path10010"
             d="m 260.27369,429.89058 0,40.30787"
             style="fill:none;fill-opacity:0.75;fill-rule:evenodd;stroke:#000000;stroke-width:2.06220484;stroke-linecap:butt;stroke-linejoin:miter;stroke-miterlimit:4;stroke-dasharray:none;stroke-opacity:1;marker-start:url(#Arrow1Mstart)"
             inkscape:connector-curvature="0" />
          <path
             id="path10020"
             d="m 297.12661,467.50014 0,40.30787"
             style="opacity:1;fill:none;fill-opacity:0.75;fill-rule:evenodd;stroke:#000000;stroke-width:2.06220484;stroke-linecap:butt;stroke-linejoin:miter;stroke-miterlimit:4;stroke-dasharray:none;stroke-opacity:1;marker-start:none;marker-end:url(#Arrow1Mend)"
             inkscape:connector-curvature="0" />
        </g>
        <g
           id="g4421"
           transform="matrix(0.6947467,0,0,0.6947467,147.81316,313.67101)">
          <g
             id="g4423"
             xml:space="preserve"
             transform="matrix(1.0629921,0,0,-1.0629921,-186.02362,789.27165)"
             style="font-style:normal;font-variant:normal;font-weight:normal;font-stretch:normal;letter-spacing:normal;word-spacing:normal;text-anchor:start;fill:none;fill-opacity:1;stroke:#000000;stroke-linecap:butt;stroke-linejoin:miter;stroke-miterlimit:10.43299961;stroke-dasharray:none;stroke-dashoffset:0;stroke-opacity:1"><path
               id="path4425"
               d="m 463.92,441.71 0,0.14 0,0.14 0,0.14 -0.01,0.07 0,0.07 -0.01,0.07 -0.01,0.07 -0.01,0.06 -0.01,0.07 -0.01,0.07 -0.02,0.06 -0.02,0.07 -0.02,0.06 -0.03,0.06 -0.03,0.06 -0.03,0.05 -0.03,0.05 -0.04,0.05 -0.04,0.05 -0.05,0.04 -0.02,0.02 -0.03,0.02 -0.03,0.02 -0.02,0.02 -0.03,0.01 -0.03,0.02 -0.03,0.01 -0.04,0.01 -0.03,0.02 -0.04,0.01 -0.03,0.01 -0.04,0.01 -0.04,0 -0.04,0.01 -0.04,0 -0.04,0.01 -0.05,0 -0.04,0 c -1,0 -1,-0.95 -1,-1.65 l 0,-46.52 c 0,-0.7 0,-1.64 1,-1.64 0.99,0 0.99,0.94 0.99,1.64 l 0,46.52 z"
               style="fill:#000000;stroke-width:0"
               inkscape:connector-curvature="0" /><path
               id="path4427"
               d="m 483.64,437.88 0,0.05 0,0.06 0,0.05 0,0.05 0,0.05 0,0.05 0,0.04 0,0.05 0,0.04 0,0.04 0,0.04 0,0.04 0,0.04 -0.01,0.04 0,0.03 0,0.04 -0.01,0.03 0,0.03 -0.01,0.06 -0.01,0.05 -0.02,0.05 -0.01,0.05 -0.02,0.04 -0.02,0.04 -0.03,0.04 -0.03,0.03 -0.03,0.02 -0.03,0.03 -0.04,0.02 -0.05,0.02 -0.02,0.01 -0.03,0.01 -0.02,0 -0.03,0.01 -0.03,0.01 -0.03,0 -0.03,0.01 -0.03,0 -0.03,0.01 -0.04,0 -0.04,0 -0.03,0 -0.04,0.01 -0.04,0 -0.04,0 -0.05,0 -0.04,0 -0.05,0 -0.05,0.01 -0.05,0 -0.05,0 -0.05,0 c -3.09,-3.19 -7.47,-3.19 -9.07,-3.19 l 0,-1.55 c 1,0 3.94,0 6.53,1.3 l 0,-25.81 c 0,-1.79 -0.15,-2.39 -4.63,-2.39 l -1.6,0 0,-1.54 c 1.75,0.15 6.08,0.15 8.07,0.15 1.99,0 6.33,0 8.07,-0.15 l 0,1.54 -1.59,0 c -4.49,0 -4.64,0.55 -4.64,2.39 l 0,27.95 z"
               style="fill:#000000;stroke-width:0"
               inkscape:connector-curvature="0" /><path
               id="path4429"
               d="m 507.6,417.55 0.02,0.06 0.02,0.05 0.02,0.05 0.02,0.05 0.02,0.05 0.01,0.05 0.02,0.04 0.01,0.04 0.02,0.04 0.01,0.04 0.01,0.04 0.01,0.03 0.01,0.03 0,0.03 0.01,0.03 0.01,0.03 0,0.03 0.01,0.02 0,0.02 0,0.02 0.01,0.02 0,0.02 0,0.02 0,0.02 0.01,0.01 0,0.01 0,0.01 0,0.01 0,0.01 0,0.01 0,0.01 0,0 c 0,0.05 0,0.3 -0.25,0.9 l -8.72,22.92 c -0.25,0.59 -0.4,1.09 -1.09,1.09 -0.55,0 -1,-0.45 -1,-1 0,-0.05 0,-0.29 0.25,-0.89 l 8.76,-23.02 -8.76,-23.01 c -0.25,-0.6 -0.25,-0.85 -0.25,-0.9 0,-0.54 0.45,-0.99 1,-0.99 0.64,0 0.84,0.45 1.04,0.99 l 8.77,23.01 z"
               style="fill:#000000;stroke-width:0"
               inkscape:connector-curvature="0" /></g>        </g>
      </g>
    </g>
    <g
       id="g3785"
       transform="translate(-20.714287,-150)">
      <g
         transform="translate(-31.609124,99.885287)"
         id="g10030">
        <g
           id="g5846"
           transform="translate(125.53024,122.13685)">
          <path
             id="path5848"
             d="m 105.95212,458.48441 c 101.34551,0 101.34551,0 101.34551,0"
             style="fill:none;fill-opacity:0.75;fill-rule:evenodd;stroke:#000000;stroke-width:1px;stroke-linecap:butt;stroke-linejoin:miter;stroke-opacity:1"
             inkscape:connector-curvature="0" />
          <path
             id="path5850"
             d="m 105.95212,416.90174 c 101.34551,0 101.34551,0 101.34551,0"
             style="fill:none;fill-opacity:0.75;fill-rule:evenodd;stroke:#000000;stroke-width:1px;stroke-linecap:butt;stroke-linejoin:miter;stroke-opacity:1"
             inkscape:connector-curvature="0" />
        </g>
        <path
           d="m 266.51543,563.39391 0,40.30787"
           id="path8822"
           style="fill:none;fill-opacity:0.75;fill-rule:evenodd;stroke:#000000;stroke-width:2.06220484;stroke-linecap:butt;stroke-linejoin:miter;stroke-miterlimit:4;stroke-dasharray:none;stroke-opacity:1;marker-start:url(#Arrow1Mstart)"
           inkscape:connector-curvature="0" />
        <path
           d="m 305.67165,561.84726 0,40.30787"
           id="path9993"
           style="opacity:1;fill:none;fill-opacity:0.75;fill-rule:evenodd;stroke:#000000;stroke-width:2.06220484;stroke-linecap:butt;stroke-linejoin:miter;stroke-miterlimit:4;stroke-dasharray:none;stroke-opacity:1;marker-start:none;marker-end:url(#Arrow1Mend)"
           inkscape:connector-curvature="0" />
      </g>
      <g
         transform="matrix(0.7102769,0,0,0.7102769,98.135459,415.66177)"
         id="g4065">
        <g
           transform="matrix(1.0629921,0,0,-1.0629921,-186.02362,789.27165)"
           xml:space="preserve"
           id="g4067"
           style="font-style:normal;font-variant:normal;font-weight:normal;font-stretch:normal;letter-spacing:normal;word-spacing:normal;text-anchor:start;fill:none;fill-opacity:1;stroke:#000000;stroke-linecap:butt;stroke-linejoin:miter;stroke-miterlimit:10.43299961;stroke-dasharray:none;stroke-dashoffset:0;stroke-opacity:1"><path
             d="m 463.92,441.71 0,0.14 0,0.14 0,0.14 -0.01,0.07 0,0.07 -0.01,0.07 -0.01,0.07 -0.01,0.06 -0.01,0.07 -0.01,0.07 -0.02,0.06 -0.02,0.07 -0.02,0.06 -0.03,0.06 -0.03,0.06 -0.03,0.05 -0.03,0.05 -0.04,0.05 -0.04,0.05 -0.05,0.04 -0.02,0.02 -0.03,0.02 -0.03,0.02 -0.02,0.02 -0.03,0.01 -0.03,0.02 -0.03,0.01 -0.04,0.01 -0.03,0.02 -0.04,0.01 -0.03,0.01 -0.04,0.01 -0.04,0 -0.04,0.01 -0.04,0 -0.04,0.01 -0.05,0 -0.04,0 c -1,0 -1,-0.95 -1,-1.65 l 0,-46.52 c 0,-0.7 0,-1.64 1,-1.64 0.99,0 0.99,0.94 0.99,1.64 l 0,46.52 z"
             id="path4069"
             style="fill:#000000;stroke-width:0"
             inkscape:connector-curvature="0" /><path
             d="m 491.91,421.94 0,0.75 -0.01,0.74 -0.02,0.75 -0.03,0.74 -0.05,0.75 -0.06,0.74 -0.07,0.74 -0.1,0.73 -0.11,0.73 -0.14,0.73 -0.16,0.72 -0.19,0.72 -0.22,0.71 -0.24,0.71 -0.28,0.7 -0.15,0.35 -0.16,0.35 c -2.29,4.78 -6.37,5.58 -8.47,5.58 -2.99,0 -6.62,-1.3 -8.66,-5.93 -1.6,-3.44 -1.85,-7.32 -1.85,-11.31 0,-3.74 0.2,-8.22 2.24,-12.01 2.15,-4.03 5.78,-5.03 8.22,-5.03 l 0,1.1 c -1.94,0 -4.88,1.25 -5.78,6.03 -0.54,2.99 -0.54,7.57 -0.54,10.51 0,3.19 0,6.47 0.4,9.16 0.94,5.93 4.68,6.38 5.92,6.38 1.65,0 4.94,-0.9 5.88,-5.83 0.5,-2.79 0.5,-6.57 0.5,-9.71 0,-3.74 0,-7.13 -0.55,-10.31 -0.75,-4.73 -3.59,-6.23 -5.83,-6.23 l 0,0 0,-1.1 c 2.69,0 6.48,1.05 8.67,5.78 1.59,3.44 1.84,7.32 1.84,11.26 z"
             id="path4071"
             style="fill:#000000;stroke-width:0"
             inkscape:connector-curvature="0" /><path
             d="m 507.6,417.55 0.02,0.06 0.02,0.05 0.02,0.05 0.02,0.05 0.02,0.05 0.01,0.05 0.02,0.04 0.01,0.04 0.02,0.04 0.01,0.04 0.01,0.04 0.01,0.03 0.01,0.03 0,0.03 0.01,0.03 0.01,0.03 0,0.03 0.01,0.02 0,0.02 0,0.02 0.01,0.02 0,0.02 0,0.02 0,0.02 0.01,0.01 0,0.01 0,0.01 0,0.01 0,0.01 0,0.01 0,0.01 0,0 c 0,0.05 0,0.3 -0.25,0.9 l -8.72,22.92 c -0.25,0.59 -0.4,1.09 -1.09,1.09 -0.55,0 -1,-0.45 -1,-1 0,-0.05 0,-0.29 0.25,-0.89 l 8.76,-23.02 -8.76,-23.01 c -0.25,-0.6 -0.25,-0.85 -0.25,-0.9 0,-0.54 0.45,-0.99 1,-0.99 0.64,0 0.84,0.45 1.04,0.99 l 8.77,23.01 z"
             id="path4073"
             style="fill:#000000;stroke-width:0"
             inkscape:connector-curvature="0" /></g>      </g>
    </g>
    <g
       id="g3812"
       transform="translate(144.42198,-3.216455)">
      <g
         transform="translate(-31.609124,34.341638)"
         id="g10062">
        <g
           id="g5858"
           transform="translate(125.53024,-62.703527)">
          <path
             id="path5860"
             d="m 105.95212,458.48441 c 101.34551,0 101.34551,0 101.34551,0"
             style="fill:none;fill-opacity:0.75;fill-rule:evenodd;stroke:#000000;stroke-width:1px;stroke-linecap:butt;stroke-linejoin:miter;stroke-opacity:1"
             inkscape:connector-curvature="0" />
          <path
             id="path5862"
             d="m 105.95212,416.90174 c 101.34551,0 101.34551,0 101.34551,0"
             style="fill:none;fill-opacity:0.75;fill-rule:evenodd;stroke:#000000;stroke-width:1px;stroke-linecap:butt;stroke-linejoin:miter;stroke-opacity:1"
             inkscape:connector-curvature="0" />
        </g>
        <path
           d="m 257.97039,378.36947 0,40.30787"
           id="path10012"
           style="fill:none;fill-opacity:0.75;fill-rule:evenodd;stroke:#000000;stroke-width:2.06220484;stroke-linecap:butt;stroke-linejoin:miter;stroke-miterlimit:4;stroke-dasharray:none;stroke-opacity:1;marker-start:url(#Arrow1Mstart)"
           inkscape:connector-curvature="0" />
        <path
           d="m 306.33983,337.6666 0,40.30787"
           id="path10024"
           style="opacity:1;fill:none;fill-opacity:0.75;fill-rule:evenodd;stroke:#000000;stroke-width:2.06220484;stroke-linecap:butt;stroke-linejoin:miter;stroke-miterlimit:4;stroke-dasharray:none;stroke-opacity:1;marker-start:none;marker-end:url(#Arrow1Mend)"
           inkscape:connector-curvature="0" />
      </g>
      <g
         transform="matrix(0.6947467,0,0,0.6947467,102.87223,167.16402)"
         id="g4802">
        <g
           transform="matrix(1.0629921,0,0,-1.0629921,-186.02362,789.27165)"
           xml:space="preserve"
           id="g4804"
           style="font-style:normal;font-variant:normal;font-weight:normal;font-stretch:normal;letter-spacing:normal;word-spacing:normal;text-anchor:start;fill:none;fill-opacity:1;stroke:#000000;stroke-linecap:butt;stroke-linejoin:miter;stroke-miterlimit:10.43299961;stroke-dasharray:none;stroke-dashoffset:0;stroke-opacity:1"><path
             d="m 463.92,441.71 0,0.14 0,0.14 0,0.14 -0.01,0.07 0,0.07 -0.01,0.07 -0.01,0.07 -0.01,0.06 -0.01,0.07 -0.01,0.07 -0.02,0.06 -0.02,0.07 -0.02,0.06 -0.03,0.06 -0.03,0.06 -0.03,0.05 -0.03,0.05 -0.04,0.05 -0.04,0.05 -0.05,0.04 -0.02,0.02 -0.03,0.02 -0.03,0.02 -0.02,0.02 -0.03,0.01 -0.03,0.02 -0.03,0.01 -0.04,0.01 -0.03,0.02 -0.04,0.01 -0.03,0.01 -0.04,0.01 -0.04,0 -0.04,0.01 -0.04,0 -0.04,0.01 -0.05,0 -0.04,0 c -1,0 -1,-0.95 -1,-1.65 l 0,-46.52 c 0,-0.7 0,-1.64 1,-1.64 0.99,0 0.99,0.94 0.99,1.64 l 0,46.52 z"
             id="path4806"
             style="fill:#000000;stroke-width:0"
             inkscape:connector-curvature="0" /><path
             d="m 491.37,414.67 -1.25,0 c -0.25,-1.5 -0.6,-3.69 -1.1,-4.44 -0.34,-0.39 -3.63,-0.39 -4.73,-0.39 l -8.96,0 5.28,5.12 c 7.77,6.88 10.76,9.57 10.76,14.55 0,5.68 -4.49,9.67 -10.57,9.67 -5.62,0 -9.31,-4.59 -9.31,-9.02 0,-2.79 2.49,-2.79 2.64,-2.79 0.85,0 2.59,0.6 2.59,2.64 0,1.29 -0.9,2.59 -2.64,2.59 -0.4,0 -0.5,0 -0.65,-0.05 1.15,3.24 3.84,5.08 6.73,5.08 4.53,0 6.67,-4.03 6.67,-8.12 0,-3.98 -2.49,-7.92 -5.23,-11.01 l -9.56,-10.66 c -0.55,-0.54 -0.55,-0.64 -0.55,-1.84 l 18.48,0 1.4,8.67 z"
             id="path4808"
             style="fill:#000000;stroke-width:0"
             inkscape:connector-curvature="0" /><path
             d="m 507.6,417.55 0.02,0.06 0.02,0.05 0.02,0.05 0.02,0.05 0.02,0.05 0.01,0.05 0.02,0.04 0.01,0.04 0.02,0.04 0.01,0.04 0.01,0.04 0.01,0.03 0.01,0.03 0,0.03 0.01,0.03 0.01,0.03 0,0.03 0.01,0.02 0,0.02 0,0.02 0.01,0.02 0,0.02 0,0.02 0,0.02 0.01,0.01 0,0.01 0,0.01 0,0.01 0,0.01 0,0.01 0,0.01 0,0 c 0,0.05 0,0.3 -0.25,0.9 l -8.72,22.92 c -0.25,0.59 -0.4,1.09 -1.09,1.09 -0.55,0 -1,-0.45 -1,-1 0,-0.05 0,-0.29 0.25,-0.89 l 8.76,-23.02 -8.76,-23.01 c -0.25,-0.6 -0.25,-0.85 -0.25,-0.9 0,-0.54 0.45,-0.99 1,-0.99 0.64,0 0.84,0.45 1.04,0.99 l 8.77,23.01 z"
             id="path4810"
             style="fill:#000000;stroke-width:0"
             inkscape:connector-curvature="0" /></g>      </g>
    </g>
    <g
       id="g3850"
       transform="translate(-20.71429,119.4286)">
      <g
         transform="translate(93.921119,-379.43026)"
         id="g10103">
        <path
           d="m 105.95212,458.48441 c 101.34551,0 101.34551,0 101.34551,0"
           id="path10105"
           style="fill:none;fill-opacity:0.75;fill-rule:evenodd;stroke:#000000;stroke-width:1px;stroke-linecap:butt;stroke-linejoin:miter;stroke-opacity:1"
           inkscape:connector-curvature="0" />
        <path
           d="m 105.95212,416.90174 c 101.34551,0 101.34551,0 101.34551,0"
           id="path10107"
           style="fill:none;fill-opacity:0.75;fill-rule:evenodd;stroke:#000000;stroke-width:1px;stroke-linecap:butt;stroke-linejoin:miter;stroke-opacity:1"
           inkscape:connector-curvature="0" />
      </g>
      <path
         id="path10109"
         d="m 234.90631,19.826797 0,40.30787"
         style="fill:none;fill-opacity:0.75;fill-rule:evenodd;stroke:#000000;stroke-width:2.06220484;stroke-linecap:butt;stroke-linejoin:miter;stroke-miterlimit:4;stroke-dasharray:none;stroke-opacity:1;marker-start:url(#Arrow1Mstart)"
         inkscape:connector-curvature="0" />
      <path
         id="path10111"
         d="m 274.06253,18.280147 0,40.30787"
         style="fill:none;fill-opacity:0.75;fill-rule:evenodd;stroke:#000000;stroke-width:2.06220484;stroke-linecap:butt;stroke-linejoin:miter;stroke-miterlimit:4;stroke-dasharray:none;stroke-opacity:1;marker-start:none;marker-end:url(#Arrow1Mend)"
         inkscape:connector-curvature="0" />
      <g
         transform="matrix(0.713825,0,0,0.713825,97.053269,-189.26857)"
         id="g5474">
        <g
           transform="matrix(1.0629921,0,0,-1.0629921,-186.02362,789.27165)"
           xml:space="preserve"
           id="g5476"
           style="font-style:normal;font-variant:normal;font-weight:normal;font-stretch:normal;letter-spacing:normal;word-spacing:normal;text-anchor:start;fill:none;fill-opacity:1;stroke:#000000;stroke-linecap:butt;stroke-linejoin:miter;stroke-miterlimit:10.43299961;stroke-dasharray:none;stroke-dashoffset:0;stroke-opacity:1"><path
             d="m 463.92,441.71 0,0.14 0,0.14 0,0.14 -0.01,0.07 0,0.07 -0.01,0.07 -0.01,0.07 -0.01,0.06 -0.01,0.07 -0.01,0.07 -0.02,0.06 -0.02,0.07 -0.02,0.06 -0.03,0.06 -0.03,0.06 -0.03,0.05 -0.03,0.05 -0.04,0.05 -0.04,0.05 -0.05,0.04 -0.02,0.02 -0.03,0.02 -0.03,0.02 -0.02,0.02 -0.03,0.01 -0.03,0.02 -0.03,0.01 -0.04,0.01 -0.03,0.02 -0.04,0.01 -0.03,0.01 -0.04,0.01 -0.04,0 -0.04,0.01 -0.04,0 -0.04,0.01 -0.05,0 -0.04,0 c -1,0 -1,-0.95 -1,-1.65 l 0,-46.52 c 0,-0.7 0,-1.64 1,-1.64 0.99,0 0.99,0.94 0.99,1.64 l 0,46.52 z"
             id="path5478"
             style="fill:#000000;stroke-width:0"
             inkscape:connector-curvature="0" /><path
             d="m 491.37,416.01 -0.01,0.55 -0.04,0.55 -0.06,0.54 -0.08,0.53 -0.1,0.53 -0.13,0.51 -0.14,0.5 -0.17,0.5 -0.18,0.48 -0.2,0.47 -0.23,0.46 -0.24,0.44 -0.26,0.43 -0.28,0.41 -0.29,0.4 -0.31,0.38 -0.32,0.36 -0.34,0.35 -0.36,0.33 -0.37,0.3 -0.38,0.29 -0.4,0.27 -0.41,0.24 -0.42,0.22 -0.43,0.2 -0.45,0.17 -0.45,0.15 -0.47,0.13 -0.47,0.09 -0.49,0.07 -0.49,0.05 -0.5,0.01 c -2.39,0 -4.53,-0.8 -6.33,-2.54 l 0,9.71 c 1,-0.29 2.64,-0.64 4.24,-0.64 6.13,0 9.61,4.53 9.61,5.18 0,0.3 -0.15,0.55 -0.49,0.55 -0.05,0 -0.15,0 -0.4,-0.15 -1,-0.45 -3.44,-1.45 -6.78,-1.45 -1.99,0 -4.28,0.35 -6.62,1.4 -0.4,0.14 -0.5,0.14 -0.6,0.14 -0.5,0 -0.5,-0.39 -0.5,-1.19 l 0,-14.75 c 0,-0.89 0,-1.29 0.7,-1.29 0.35,0 0.45,0.15 0.65,0.45 0.55,0.8 2.39,3.48 6.42,3.48 2.59,0 3.84,-2.28 4.24,-3.18 0.79,-1.85 0.89,-3.79 0.89,-6.28 0,-1.74 0,-4.73 -1.19,-6.82 -1.2,-1.95 -3.04,-3.24 -5.33,-3.24 -3.64,0 -6.48,2.64 -7.32,5.58 0.14,-0.05 0.29,-0.1 0.84,-0.1 1.64,0 2.49,1.24 2.49,2.44 0,1.19 -0.85,2.44 -2.49,2.44 -0.7,0 -2.44,-0.35 -2.44,-2.64 0,-4.29 3.44,-9.12 9.02,-9.12 5.78,0 10.86,4.79 10.86,11.11 z"
             id="path5480"
             style="fill:#000000;stroke-width:0"
             inkscape:connector-curvature="0" /><path
             d="m 507.6,417.55 0.02,0.06 0.02,0.05 0.02,0.05 0.02,0.05 0.02,0.05 0.01,0.05 0.02,0.04 0.01,0.04 0.02,0.04 0.01,0.04 0.01,0.04 0.01,0.03 0.01,0.03 0,0.03 0.01,0.03 0.01,0.03 0,0.03 0.01,0.02 0,0.02 0,0.02 0.01,0.02 0,0.02 0,0.02 0,0.02 0.01,0.01 0,0.01 0,0.01 0,0.01 0,0.01 0,0.01 0,0.01 0,0 c 0,0.05 0,0.3 -0.25,0.9 l -8.72,22.92 c -0.25,0.59 -0.4,1.09 -1.09,1.09 -0.55,0 -1,-0.45 -1,-1 0,-0.05 0,-0.29 0.25,-0.89 l 8.76,-23.02 -8.76,-23.01 c -0.25,-0.6 -0.25,-0.85 -0.25,-0.9 0,-0.54 0.45,-0.99 1,-0.99 0.64,0 0.84,0.45 1.04,0.99 l 8.77,23.01 z"
             id="path5482"
             style="fill:#000000;stroke-width:0"
             inkscape:connector-curvature="0" /></g>      </g>
    </g>
    <g
       id="g3825"
       transform="translate(-198.85714,-8.5961342)">
      <g
         transform="translate(93.921119,-152.97111)"
         id="g5864">
        <path
           d="m 105.95212,458.48441 c 101.34551,0 101.34551,0 101.34551,0"
           id="path5866"
           style="fill:none;fill-opacity:0.75;fill-rule:evenodd;stroke:#000000;stroke-width:1px;stroke-linecap:butt;stroke-linejoin:miter;stroke-opacity:1"
           inkscape:connector-curvature="0" />
        <path
           d="m 105.95212,416.90174 c 101.34551,0 101.34551,0 101.34551,0"
           id="path5868"
           style="fill:none;fill-opacity:0.75;fill-rule:evenodd;stroke:#000000;stroke-width:1px;stroke-linecap:butt;stroke-linejoin:miter;stroke-opacity:1"
           inkscape:connector-curvature="0" />
      </g>
      <path
         id="path10016"
         d="m 228.66457,289.54148 0,40.30787"
         style="fill:none;fill-opacity:0.75;fill-rule:evenodd;stroke:#000000;stroke-width:2.06220484;stroke-linecap:butt;stroke-linejoin:miter;stroke-miterlimit:4;stroke-dasharray:none;stroke-opacity:1;marker-start:url(#Arrow1Mstart)"
         inkscape:connector-curvature="0" />
      <path
         id="path10018"
         d="m 227.82079,242.62699 0,40.30787"
         style="fill:none;fill-opacity:0.75;fill-rule:evenodd;stroke:#000000;stroke-width:2.06220484;stroke-linecap:butt;stroke-linejoin:miter;stroke-miterlimit:4;stroke-dasharray:none;stroke-opacity:1;marker-start:url(#Arrow1Mstart)"
         inkscape:connector-curvature="0" />
      <g
         transform="matrix(0.7168796,0,0,0.7168796,96.121599,38.823616)"
         id="g10384">
        <g
           transform="matrix(1.0629921,0,0,-1.0629921,-186.02362,789.27165)"
           xml:space="preserve"
           id="g10386"
           style="font-style:normal;font-variant:normal;font-weight:normal;font-stretch:normal;letter-spacing:normal;word-spacing:normal;text-anchor:start;fill:none;fill-opacity:1;stroke:#000000;stroke-linecap:butt;stroke-linejoin:miter;stroke-miterlimit:10.43299961;stroke-dasharray:none;stroke-dashoffset:0;stroke-opacity:1"><path
             d="m 463.92,441.71 0,0.14 0,0.14 0,0.14 -0.01,0.07 0,0.07 -0.01,0.07 -0.01,0.07 -0.01,0.06 -0.01,0.07 -0.01,0.07 -0.02,0.06 -0.02,0.07 -0.02,0.06 -0.03,0.06 -0.03,0.06 -0.03,0.05 -0.03,0.05 -0.04,0.05 -0.04,0.05 -0.05,0.04 -0.02,0.02 -0.03,0.02 -0.03,0.02 -0.02,0.02 -0.03,0.01 -0.03,0.02 -0.03,0.01 -0.04,0.01 -0.03,0.02 -0.04,0.01 -0.03,0.01 -0.04,0.01 -0.04,0 -0.04,0.01 -0.04,0 -0.04,0.01 -0.05,0 -0.04,0 c -1,0 -1,-0.95 -1,-1.65 l 0,-46.52 c 0,-0.7 0,-1.64 1,-1.64 0.99,0 0.99,0.94 0.99,1.64 l 0,46.52 z"
             id="path10388"
             style="fill:#000000;stroke-width:0"
             inkscape:connector-curvature="0" /><path
             d="m 483.45,423.54 0.37,0.13 0.38,0.14 0.36,0.16 0.36,0.17 0.35,0.18 0.34,0.19 0.33,0.2 0.32,0.21 0.31,0.22 0.3,0.23 0.3,0.24 0.28,0.25 0.27,0.26 0.26,0.27 0.25,0.27 0.23,0.29 0.23,0.29 0.21,0.3 0.2,0.3 0.19,0.31 0.17,0.32 0.16,0.33 0.15,0.33 0.13,0.33 0.12,0.34 0.1,0.35 0.09,0.35 0.08,0.35 0.05,0.36 0.04,0.36 0.03,0.36 0.01,0.37 c 0,4.09 -4.38,6.88 -9.17,6.88 -5.03,0 -8.81,-2.99 -8.81,-6.78 0,-1.64 1.09,-2.59 2.54,-2.59 1.54,0 2.54,1.1 2.54,2.54 0,2.49 -2.34,2.49 -3.09,2.49 1.54,2.44 4.83,3.09 6.62,3.09 2.05,0 4.79,-1.09 4.79,-5.58 0,-0.6 -0.1,-3.49 -1.4,-5.68 -1.49,-2.39 -3.19,-2.54 -4.43,-2.59 -0.4,-0.05 -1.6,-0.15 -1.94,-0.15 -0.4,-0.05 -0.75,-0.1 -0.75,-0.59 0,-0.55 0.35,-0.55 1.2,-0.55 l 2.19,0 c 4.08,0 5.92,-3.39 5.92,-8.27 0,-6.78 -3.43,-8.22 -5.63,-8.22 -2.14,0 -5.87,0.84 -7.62,3.79 1.75,-0.25 3.29,0.84 3.29,2.73 0,1.8 -1.34,2.79 -2.79,2.79 -1.19,0 -2.79,-0.69 -2.79,-2.88 0,-4.54 4.64,-7.83 10.07,-7.83 6.07,0 10.61,4.54 10.61,9.62 0,4.08 -3.15,7.97 -8.32,9.02 z"
             id="path10390"
             style="fill:#000000;stroke-width:0"
             inkscape:connector-curvature="0" /><path
             d="m 507.6,417.55 0.02,0.06 0.02,0.05 0.02,0.05 0.02,0.05 0.02,0.05 0.01,0.05 0.02,0.04 0.01,0.04 0.02,0.04 0.01,0.04 0.01,0.04 0.01,0.03 0.01,0.03 0,0.03 0.01,0.03 0.01,0.03 0,0.03 0.01,0.02 0,0.02 0,0.02 0.01,0.02 0,0.02 0,0.02 0,0.02 0.01,0.01 0,0.01 0,0.01 0,0.01 0,0.01 0,0.01 0,0.01 0,0 c 0,0.05 0,0.3 -0.25,0.9 l -8.72,22.92 c -0.25,0.59 -0.4,1.09 -1.09,1.09 -0.55,0 -1,-0.45 -1,-1 0,-0.05 0,-0.29 0.25,-0.89 l 8.76,-23.02 -8.76,-23.01 c -0.25,-0.6 -0.25,-0.85 -0.25,-0.9 0,-0.54 0.45,-0.99 1,-0.99 0.64,0 0.84,0.45 1.04,0.99 l 8.77,23.01 z"
             id="path10392"
             style="fill:#000000;stroke-width:0"
             inkscape:connector-curvature="0" /></g>      </g>
    </g>
    <g
       id="g3837"
       transform="translate(144.42198,108.92843)">
      <g
         transform="translate(-31.609124,-21.974792)"
         id="g10076">
        <g
           id="g5870"
           transform="translate(125.53024,-247.54395)">
          <path
             id="path5872"
             d="m 105.95212,458.48441 c 101.34551,0 101.34551,0 101.34551,0"
             style="fill:none;fill-opacity:0.75;fill-rule:evenodd;stroke:#000000;stroke-width:1px;stroke-linecap:butt;stroke-linejoin:miter;stroke-opacity:1"
             inkscape:connector-curvature="0" />
          <path
             id="path5874"
             d="m 105.95212,416.90174 c 101.34551,0 101.34551,0 101.34551,0"
             style="fill:none;fill-opacity:0.75;fill-rule:evenodd;stroke:#000000;stroke-width:1px;stroke-linecap:butt;stroke-linejoin:miter;stroke-opacity:1"
             inkscape:connector-curvature="0" />
        </g>
        <path
           d="m 305.18818,146.49212 0,40.30787"
           id="path10026"
           style="opacity:1;fill:none;fill-opacity:0.75;fill-rule:evenodd;stroke:#000000;stroke-width:2.06220484;stroke-linecap:butt;stroke-linejoin:miter;stroke-miterlimit:4;stroke-dasharray:none;stroke-opacity:1;marker-start:none;marker-end:url(#Arrow1Mend)"
           inkscape:connector-curvature="0" />
        <path
           d="m 304.03653,194.86157 0,40.30787"
           id="path10028"
           style="opacity:1;fill:none;fill-opacity:0.75;fill-rule:evenodd;stroke:#000000;stroke-width:2.06220484;stroke-linecap:butt;stroke-linejoin:miter;stroke-miterlimit:4;stroke-dasharray:none;stroke-opacity:1;marker-start:none;marker-end:url(#Arrow1Mend)"
           inkscape:connector-curvature="0" />
      </g>
      <g
         transform="matrix(0.740473,0,0,0.740473,88.925509,-88.30648)"
         id="g10568">
        <g
           transform="matrix(1.0629921,0,0,-1.0629921,-186.02362,789.27165)"
           xml:space="preserve"
           id="g10570"
           style="font-style:normal;font-variant:normal;font-weight:normal;font-stretch:normal;letter-spacing:normal;word-spacing:normal;text-anchor:start;fill:none;fill-opacity:1;stroke:#000000;stroke-linecap:butt;stroke-linejoin:miter;stroke-miterlimit:10.43299961;stroke-dasharray:none;stroke-dashoffset:0;stroke-opacity:1"><path
             d="m 463.92,441.71 0,0.14 0,0.14 0,0.14 -0.01,0.07 0,0.07 -0.01,0.07 -0.01,0.07 -0.01,0.06 -0.01,0.07 -0.01,0.07 -0.02,0.06 -0.02,0.07 -0.02,0.06 -0.03,0.06 -0.03,0.06 -0.03,0.05 -0.03,0.05 -0.04,0.05 -0.04,0.05 -0.05,0.04 -0.02,0.02 -0.03,0.02 -0.03,0.02 -0.02,0.02 -0.03,0.01 -0.03,0.02 -0.03,0.01 -0.04,0.01 -0.03,0.02 -0.04,0.01 -0.03,0.01 -0.04,0.01 -0.04,0 -0.04,0.01 -0.04,0 -0.04,0.01 -0.05,0 -0.04,0 c -1,0 -1,-0.95 -1,-1.65 l 0,-46.52 c 0,-0.7 0,-1.64 1,-1.64 0.99,0 0.99,0.94 0.99,1.64 l 0,46.52 z"
             id="path10572"
             style="fill:#000000;stroke-width:0"
             inkscape:connector-curvature="0" /><path
             d="m 470.39,414.22 13.25,0 0,-4.33 c 0,-1.8 -0.09,-2.35 -3.78,-2.35 l -1.05,0 0,-1.54 c 2.05,0.15 4.64,0.15 6.73,0.15 2.09,0 4.73,0 6.77,-0.15 l 0,1.54 -1.04,0 c -3.69,0 -3.79,0.55 -3.79,2.35 l 0,4.33 4.98,0 0,1.54 -4.98,0 0,22.67 c 0,1 0,1.29 -0.8,1.29 -0.45,0 -0.59,0 -0.99,-0.6 l -15.3,-23.36 1.4,0 12.16,18.58 0,-18.58 -12.16,0 -1.4,0 0,-1.54 z"
             id="path10574"
             style="fill:#000000;stroke-width:0"
             inkscape:connector-curvature="0" /><path
             d="m 507.6,417.55 0.02,0.06 0.02,0.05 0.02,0.05 0.02,0.05 0.02,0.05 0.01,0.05 0.02,0.04 0.01,0.04 0.02,0.04 0.01,0.04 0.01,0.04 0.01,0.03 0.01,0.03 0,0.03 0.01,0.03 0.01,0.03 0,0.03 0.01,0.02 0,0.02 0,0.02 0.01,0.02 0,0.02 0,0.02 0,0.02 0.01,0.01 0,0.01 0,0.01 0,0.01 0,0.01 0,0.01 0,0.01 0,0 c 0,0.05 0,0.3 -0.25,0.9 l -8.72,22.92 c -0.25,0.59 -0.4,1.09 -1.09,1.09 -0.55,0 -1,-0.45 -1,-1 0,-0.05 0,-0.29 0.25,-0.89 l 8.76,-23.02 -8.76,-23.01 c -0.25,-0.6 -0.25,-0.85 -0.25,-0.9 0,-0.54 0.45,-0.99 1,-0.99 0.64,0 0.84,0.45 1.04,0.99 l 8.77,23.01 z"
             id="path10576"
             style="fill:#000000;stroke-width:0"
             inkscape:connector-curvature="0" /></g>      </g>
    </g>
    <g
       id="g3862"
       transform="matrix(1.445571,0,0,1.445571,-340.567,-292.33225)">
      <g
         transform="translate(-44.940931,-2.6118729)"
         id="g5842">
        <path
           style="fill:none;fill-opacity:0.75;fill-rule:evenodd;stroke:#000000;stroke-width:1px;stroke-linecap:butt;stroke-linejoin:miter;stroke-opacity:1"
           d="m 105.95212,458.48441 c 101.34551,0 101.34551,0 101.34551,0"
           id="path5838"
           inkscape:connector-curvature="0" />
        <path
           style="fill:none;fill-opacity:0.75;fill-rule:evenodd;stroke:#000000;stroke-width:1px;stroke-linecap:butt;stroke-linejoin:miter;stroke-opacity:1"
           d="m 105.95212,416.90174 c 101.34551,0 101.34551,0 101.34551,0"
           id="path5840"
           inkscape:connector-curvature="0" />
      </g>
      <circle
         style="opacity:1;fill:#7f7f7f;fill-opacity:1;stroke:#000000;stroke-width:0;stroke-linecap:butt;stroke-linejoin:miter;stroke-miterlimit:10.43299961;stroke-dasharray:none;stroke-dashoffset:0;stroke-opacity:1"
         transform="translate(-7.270453,-11.794327)"
         id="path8800"
         cx="142.2292"
         cy="467.12183"
         r="13.244016" />
      <text
         style="font-style:normal;font-variant:normal;font-weight:normal;font-stretch:normal;font-size:22px;line-height:125%;font-family:'Nimbus Sans L';text-align:start;writing-mode:lr-tb;text-anchor:start;fill:#ffffff;fill-opacity:1;stroke:none;stroke-width:1px;stroke-linecap:butt;stroke-linejoin:miter;stroke-opacity:1"
         y="462.01944"
         x="129.31703"
         sodipodi:linespacing="125%"
         id="text8802"
         xml:space="preserve"><tspan
           sodipodi:role="line"
           id="tspan10006"
           y="462.01944"
           x="129.31703">2</tspan></text>
      <circle
         style="opacity:1;fill:#7f7f7f;fill-opacity:1;stroke:#000000;stroke-width:0;stroke-linecap:butt;stroke-linejoin:miter;stroke-miterlimit:10.43299961;stroke-dasharray:none;stroke-dashoffset:0;stroke-opacity:1"
         transform="translate(-54.488247,-51.557161)"
         id="path8808"
         cx="142.2292"
         cy="467.12183"
         r="13.244016" />
      <text
         style="font-style:normal;font-variant:normal;font-weight:normal;font-stretch:normal;font-size:22px;line-height:125%;font-family:'Nimbus Sans L';text-align:start;writing-mode:lr-tb;text-anchor:start;fill:#ffffff;fill-opacity:1;stroke:none;stroke-width:1px;stroke-linecap:butt;stroke-linejoin:miter;stroke-opacity:1"
         y="422.25662"
         x="82.099243"
         sodipodi:linespacing="125%"
         id="text8810"
         xml:space="preserve"><tspan
           sodipodi:role="line"
           id="tspan10008"
           y="422.25662"
           x="82.099243">3</tspan></text>
      <circle
         style="opacity:1;fill:#7f7f7f;fill-opacity:1;stroke:#000000;stroke-width:0;stroke-linecap:butt;stroke-linejoin:miter;stroke-miterlimit:10.43299961;stroke-dasharray:none;stroke-dashoffset:0;stroke-opacity:1"
         transform="translate(-7.270453,-51.557161)"
         id="path8816"
         cx="142.2292"
         cy="467.12183"
         r="13.244016" />
      <text
         style="font-style:normal;font-variant:normal;font-weight:normal;font-stretch:normal;font-size:22px;line-height:125%;font-family:'Nimbus Sans L';text-align:start;writing-mode:lr-tb;text-anchor:start;fill:#ffffff;fill-opacity:1;stroke:none;stroke-width:1px;stroke-linecap:butt;stroke-linejoin:miter;stroke-opacity:1"
         y="422.25662"
         x="129.31703"
         sodipodi:linespacing="125%"
         id="text8818"
         xml:space="preserve"><tspan
           sodipodi:role="line"
           id="tspan8820"
           y="422.25662"
           x="129.31703">4</tspan></text>
      <g
         style="opacity:1;fill:#7f7f7f;fill-opacity:1"
         transform="translate(-48.488247,-3.7943272)"
         id="g8789">
        <circle
           style="opacity:1;fill:#7f7f7f;fill-opacity:1;stroke:#000000;stroke-width:0;stroke-linecap:butt;stroke-linejoin:miter;stroke-miterlimit:10.43299961;stroke-dasharray:none;stroke-dashoffset:0;stroke-opacity:1"
           transform="translate(-6,-8)"
           id="path5876"
           cx="142.2292"
           cy="467.12183"
           r="13.244016" />
        <text
           style="font-style:normal;font-variant:normal;font-weight:normal;font-stretch:normal;font-size:22px;line-height:125%;font-family:'Nimbus Sans L';text-align:start;writing-mode:lr-tb;text-anchor:start;fill:#7f7f7f;fill-opacity:1;stroke:none;stroke-width:1px;stroke-linecap:butt;stroke-linejoin:miter;stroke-opacity:1"
           y="465.81378"
           x="130.58749"
           sodipodi:linespacing="125%"
           id="text6847"
           xml:space="preserve"><tspan
             sodipodi:role="line"
             id="tspan6849"
             y="465.81378"
             x="130.58749">1</tspan></text>
      </g>
      <text
         style="font-style:normal;font-variant:normal;font-weight:normal;font-stretch:normal;font-size:22px;line-height:125%;font-family:'Nimbus Sans L';-inkscape-font-specification:'Nimbus Sans L';text-align:start;writing-mode:lr-tb;text-anchor:start;fill:#ffffff;fill-opacity:1;stroke:none;stroke-width:1px;stroke-linecap:butt;stroke-linejoin:miter;stroke-opacity:1"
         y="461.62918"
         x="82.225861"
         sodipodi:linespacing="125%"
         id="text3779"
         xml:space="preserve"><tspan
           y="461.62918"
           x="82.225861"
           id="tspan3783"
           sodipodi:role="line">1</tspan></text>
    </g>
  </g>
</svg>
