<?xml version="1.0" encoding="utf-8" standalone="no"?>
<!DOCTYPE svg PUBLIC "-//W3C//DTD SVG 1.1//EN"
  "http://www.w3.org/Graphics/SVG/1.1/DTD/svg11.dtd">
<!-- Created with matplotlib (https://matplotlib.org/) -->
<svg height="432pt" version="1.1" viewBox="0 0 576 432" width="576pt" xmlns="http://www.w3.org/2000/svg" xmlns:xlink="http://www.w3.org/1999/xlink">
 <metadata>
  <rdf:RDF xmlns:cc="http://creativecommons.org/ns#" xmlns:dc="http://purl.org/dc/elements/1.1/" xmlns:rdf="http://www.w3.org/1999/02/22-rdf-syntax-ns#">
   <cc:Work>
    <dc:type rdf:resource="http://purl.org/dc/dcmitype/StillImage"/>
    <dc:date>2021-09-21T15:49:25.002556</dc:date>
    <dc:format>image/svg+xml</dc:format>
    <dc:creator>
     <cc:Agent>
      <dc:title>Matplotlib v3.3.2, https://matplotlib.org/</dc:title>
     </cc:Agent>
    </dc:creator>
   </cc:Work>
  </rdf:RDF>
 </metadata>
 <defs>
  <style type="text/css">*{stroke-linecap:butt;stroke-linejoin:round;}</style>
 </defs>
 <g id="figure_1">
  <g id="patch_1">
   <path d="M 0 432 
L 576 432 
L 576 0 
L 0 0 
z
" style="fill:none;"/>
  </g>
  <g id="axes_1">
   <g id="patch_2">
    <path d="M 324.30625 195.6 
L 565.2 195.6 
L 565.2 14.8 
L 324.30625 14.8 
z
" style="fill:#ffffff;"/>
   </g>
   <g id="matplotlib.axis_1">
    <g id="xtick_1">
     <g id="line2d_1">
      <defs>
       <path d="M 0 0 
L 0 3.5 
" id="m0c53a980c2" style="stroke:#000000;stroke-width:0.8;"/>
      </defs>
      <g>
       <use style="stroke:#000000;stroke-width:0.8;" x="334.442953" xlink:href="#m0c53a980c2" y="195.6"/>
      </g>
     </g>
     <g id="text_1">
      <!-- 0.00 -->
      <g transform="translate(323.310141 210.198437)scale(0.1 -0.1)">
       <defs>
        <path d="M 31.78125 66.40625 
Q 24.171875 66.40625 20.328125 58.90625 
Q 16.5 51.421875 16.5 36.375 
Q 16.5 21.390625 20.328125 13.890625 
Q 24.171875 6.390625 31.78125 6.390625 
Q 39.453125 6.390625 43.28125 13.890625 
Q 47.125 21.390625 47.125 36.375 
Q 47.125 51.421875 43.28125 58.90625 
Q 39.453125 66.40625 31.78125 66.40625 
z
M 31.78125 74.21875 
Q 44.046875 74.21875 50.515625 64.515625 
Q 56.984375 54.828125 56.984375 36.375 
Q 56.984375 17.96875 50.515625 8.265625 
Q 44.046875 -1.421875 31.78125 -1.421875 
Q 19.53125 -1.421875 13.0625 8.265625 
Q 6.59375 17.96875 6.59375 36.375 
Q 6.59375 54.828125 13.0625 64.515625 
Q 19.53125 74.21875 31.78125 74.21875 
z
" id="DejaVuSans-48"/>
        <path d="M 10.6875 12.40625 
L 21 12.40625 
L 21 0 
L 10.6875 0 
z
" id="DejaVuSans-46"/>
       </defs>
       <use xlink:href="#DejaVuSans-48"/>
       <use x="63.623047" xlink:href="#DejaVuSans-46"/>
       <use x="95.410156" xlink:href="#DejaVuSans-48"/>
       <use x="159.033203" xlink:href="#DejaVuSans-48"/>
      </g>
     </g>
    </g>
    <g id="xtick_2">
     <g id="line2d_2">
      <g>
       <use style="stroke:#000000;stroke-width:0.8;" x="380.651395" xlink:href="#m0c53a980c2" y="195.6"/>
      </g>
     </g>
     <g id="text_2">
      <!-- 0.05 -->
      <g transform="translate(369.518583 210.198437)scale(0.1 -0.1)">
       <defs>
        <path d="M 10.796875 72.90625 
L 49.515625 72.90625 
L 49.515625 64.59375 
L 19.828125 64.59375 
L 19.828125 46.734375 
Q 21.96875 47.46875 24.109375 47.828125 
Q 26.265625 48.1875 28.421875 48.1875 
Q 40.625 48.1875 47.75 41.5 
Q 54.890625 34.8125 54.890625 23.390625 
Q 54.890625 11.625 47.5625 5.09375 
Q 40.234375 -1.421875 26.90625 -1.421875 
Q 22.3125 -1.421875 17.546875 -0.640625 
Q 12.796875 0.140625 7.71875 1.703125 
L 7.71875 11.625 
Q 12.109375 9.234375 16.796875 8.0625 
Q 21.484375 6.890625 26.703125 6.890625 
Q 35.15625 6.890625 40.078125 11.328125 
Q 45.015625 15.765625 45.015625 23.390625 
Q 45.015625 31 40.078125 35.4375 
Q 35.15625 39.890625 26.703125 39.890625 
Q 22.75 39.890625 18.8125 39.015625 
Q 14.890625 38.140625 10.796875 36.28125 
z
" id="DejaVuSans-53"/>
       </defs>
       <use xlink:href="#DejaVuSans-48"/>
       <use x="63.623047" xlink:href="#DejaVuSans-46"/>
       <use x="95.410156" xlink:href="#DejaVuSans-48"/>
       <use x="159.033203" xlink:href="#DejaVuSans-53"/>
      </g>
     </g>
    </g>
    <g id="xtick_3">
     <g id="line2d_3">
      <g>
       <use style="stroke:#000000;stroke-width:0.8;" x="426.859838" xlink:href="#m0c53a980c2" y="195.6"/>
      </g>
     </g>
     <g id="text_3">
      <!-- 0.10 -->
      <g transform="translate(415.727025 210.198437)scale(0.1 -0.1)">
       <defs>
        <path d="M 12.40625 8.296875 
L 28.515625 8.296875 
L 28.515625 63.921875 
L 10.984375 60.40625 
L 10.984375 69.390625 
L 28.421875 72.90625 
L 38.28125 72.90625 
L 38.28125 8.296875 
L 54.390625 8.296875 
L 54.390625 0 
L 12.40625 0 
z
" id="DejaVuSans-49"/>
       </defs>
       <use xlink:href="#DejaVuSans-48"/>
       <use x="63.623047" xlink:href="#DejaVuSans-46"/>
       <use x="95.410156" xlink:href="#DejaVuSans-49"/>
       <use x="159.033203" xlink:href="#DejaVuSans-48"/>
      </g>
     </g>
    </g>
    <g id="xtick_4">
     <g id="line2d_4">
      <g>
       <use style="stroke:#000000;stroke-width:0.8;" x="473.06828" xlink:href="#m0c53a980c2" y="195.6"/>
      </g>
     </g>
     <g id="text_4">
      <!-- 0.15 -->
      <g transform="translate(461.935467 210.198437)scale(0.1 -0.1)">
       <use xlink:href="#DejaVuSans-48"/>
       <use x="63.623047" xlink:href="#DejaVuSans-46"/>
       <use x="95.410156" xlink:href="#DejaVuSans-49"/>
       <use x="159.033203" xlink:href="#DejaVuSans-53"/>
      </g>
     </g>
    </g>
    <g id="xtick_5">
     <g id="line2d_5">
      <g>
       <use style="stroke:#000000;stroke-width:0.8;" x="519.276722" xlink:href="#m0c53a980c2" y="195.6"/>
      </g>
     </g>
     <g id="text_5">
      <!-- 0.20 -->
      <g transform="translate(508.14391 210.198437)scale(0.1 -0.1)">
       <defs>
        <path d="M 19.1875 8.296875 
L 53.609375 8.296875 
L 53.609375 0 
L 7.328125 0 
L 7.328125 8.296875 
Q 12.9375 14.109375 22.625 23.890625 
Q 32.328125 33.6875 34.8125 36.53125 
Q 39.546875 41.84375 41.421875 45.53125 
Q 43.3125 49.21875 43.3125 52.78125 
Q 43.3125 58.59375 39.234375 62.25 
Q 35.15625 65.921875 28.609375 65.921875 
Q 23.96875 65.921875 18.8125 64.3125 
Q 13.671875 62.703125 7.8125 59.421875 
L 7.8125 69.390625 
Q 13.765625 71.78125 18.9375 73 
Q 24.125 74.21875 28.421875 74.21875 
Q 39.75 74.21875 46.484375 68.546875 
Q 53.21875 62.890625 53.21875 53.421875 
Q 53.21875 48.921875 51.53125 44.890625 
Q 49.859375 40.875 45.40625 35.40625 
Q 44.1875 33.984375 37.640625 27.21875 
Q 31.109375 20.453125 19.1875 8.296875 
z
" id="DejaVuSans-50"/>
       </defs>
       <use xlink:href="#DejaVuSans-48"/>
       <use x="63.623047" xlink:href="#DejaVuSans-46"/>
       <use x="95.410156" xlink:href="#DejaVuSans-50"/>
       <use x="159.033203" xlink:href="#DejaVuSans-48"/>
      </g>
     </g>
    </g>
   </g>
   <g id="matplotlib.axis_2">
    <g id="ytick_1">
     <g id="line2d_6">
      <defs>
       <path d="M 0 0 
L -3.5 0 
" id="m170961cf45" style="stroke:#000000;stroke-width:0.8;"/>
      </defs>
      <g>
       <use style="stroke:#000000;stroke-width:0.8;" x="324.30625" xlink:href="#m170961cf45" y="194.402761"/>
      </g>
     </g>
     <g id="text_6">
      <!-- 536 -->
      <g transform="translate(298.21875 198.201979)scale(0.1 -0.1)">
       <defs>
        <path d="M 40.578125 39.3125 
Q 47.65625 37.796875 51.625 33 
Q 55.609375 28.21875 55.609375 21.1875 
Q 55.609375 10.40625 48.1875 4.484375 
Q 40.765625 -1.421875 27.09375 -1.421875 
Q 22.515625 -1.421875 17.65625 -0.515625 
Q 12.796875 0.390625 7.625 2.203125 
L 7.625 11.71875 
Q 11.71875 9.328125 16.59375 8.109375 
Q 21.484375 6.890625 26.8125 6.890625 
Q 36.078125 6.890625 40.9375 10.546875 
Q 45.796875 14.203125 45.796875 21.1875 
Q 45.796875 27.640625 41.28125 31.265625 
Q 36.765625 34.90625 28.71875 34.90625 
L 20.21875 34.90625 
L 20.21875 43.015625 
L 29.109375 43.015625 
Q 36.375 43.015625 40.234375 45.921875 
Q 44.09375 48.828125 44.09375 54.296875 
Q 44.09375 59.90625 40.109375 62.90625 
Q 36.140625 65.921875 28.71875 65.921875 
Q 24.65625 65.921875 20.015625 65.03125 
Q 15.375 64.15625 9.8125 62.3125 
L 9.8125 71.09375 
Q 15.4375 72.65625 20.34375 73.4375 
Q 25.25 74.21875 29.59375 74.21875 
Q 40.828125 74.21875 47.359375 69.109375 
Q 53.90625 64.015625 53.90625 55.328125 
Q 53.90625 49.265625 50.4375 45.09375 
Q 46.96875 40.921875 40.578125 39.3125 
z
" id="DejaVuSans-51"/>
        <path d="M 33.015625 40.375 
Q 26.375 40.375 22.484375 35.828125 
Q 18.609375 31.296875 18.609375 23.390625 
Q 18.609375 15.53125 22.484375 10.953125 
Q 26.375 6.390625 33.015625 6.390625 
Q 39.65625 6.390625 43.53125 10.953125 
Q 47.40625 15.53125 47.40625 23.390625 
Q 47.40625 31.296875 43.53125 35.828125 
Q 39.65625 40.375 33.015625 40.375 
z
M 52.59375 71.296875 
L 52.59375 62.3125 
Q 48.875 64.0625 45.09375 64.984375 
Q 41.3125 65.921875 37.59375 65.921875 
Q 27.828125 65.921875 22.671875 59.328125 
Q 17.53125 52.734375 16.796875 39.40625 
Q 19.671875 43.65625 24.015625 45.921875 
Q 28.375 48.1875 33.59375 48.1875 
Q 44.578125 48.1875 50.953125 41.515625 
Q 57.328125 34.859375 57.328125 23.390625 
Q 57.328125 12.15625 50.6875 5.359375 
Q 44.046875 -1.421875 33.015625 -1.421875 
Q 20.359375 -1.421875 13.671875 8.265625 
Q 6.984375 17.96875 6.984375 36.375 
Q 6.984375 53.65625 15.1875 63.9375 
Q 23.390625 74.21875 37.203125 74.21875 
Q 40.921875 74.21875 44.703125 73.484375 
Q 48.484375 72.75 52.59375 71.296875 
z
" id="DejaVuSans-54"/>
       </defs>
       <use xlink:href="#DejaVuSans-53"/>
       <use x="63.623047" xlink:href="#DejaVuSans-51"/>
       <use x="127.246094" xlink:href="#DejaVuSans-54"/>
      </g>
     </g>
    </g>
    <g id="ytick_2">
     <g id="line2d_7">
      <g>
       <use style="stroke:#000000;stroke-width:0.8;" x="324.30625" xlink:href="#m170961cf45" y="170.88865"/>
      </g>
     </g>
     <g id="text_7">
      <!-- 537 -->
      <g transform="translate(298.21875 174.687868)scale(0.1 -0.1)">
       <defs>
        <path d="M 8.203125 72.90625 
L 55.078125 72.90625 
L 55.078125 68.703125 
L 28.609375 0 
L 18.3125 0 
L 43.21875 64.59375 
L 8.203125 64.59375 
z
" id="DejaVuSans-55"/>
       </defs>
       <use xlink:href="#DejaVuSans-53"/>
       <use x="63.623047" xlink:href="#DejaVuSans-51"/>
       <use x="127.246094" xlink:href="#DejaVuSans-55"/>
      </g>
     </g>
    </g>
    <g id="ytick_3">
     <g id="line2d_8">
      <g>
       <use style="stroke:#000000;stroke-width:0.8;" x="324.30625" xlink:href="#m170961cf45" y="147.374539"/>
      </g>
     </g>
     <g id="text_8">
      <!-- 538 -->
      <g transform="translate(298.21875 151.173757)scale(0.1 -0.1)">
       <defs>
        <path d="M 31.78125 34.625 
Q 24.75 34.625 20.71875 30.859375 
Q 16.703125 27.09375 16.703125 20.515625 
Q 16.703125 13.921875 20.71875 10.15625 
Q 24.75 6.390625 31.78125 6.390625 
Q 38.8125 6.390625 42.859375 10.171875 
Q 46.921875 13.96875 46.921875 20.515625 
Q 46.921875 27.09375 42.890625 30.859375 
Q 38.875 34.625 31.78125 34.625 
z
M 21.921875 38.8125 
Q 15.578125 40.375 12.03125 44.71875 
Q 8.5 49.078125 8.5 55.328125 
Q 8.5 64.0625 14.71875 69.140625 
Q 20.953125 74.21875 31.78125 74.21875 
Q 42.671875 74.21875 48.875 69.140625 
Q 55.078125 64.0625 55.078125 55.328125 
Q 55.078125 49.078125 51.53125 44.71875 
Q 48 40.375 41.703125 38.8125 
Q 48.828125 37.15625 52.796875 32.3125 
Q 56.78125 27.484375 56.78125 20.515625 
Q 56.78125 9.90625 50.3125 4.234375 
Q 43.84375 -1.421875 31.78125 -1.421875 
Q 19.734375 -1.421875 13.25 4.234375 
Q 6.78125 9.90625 6.78125 20.515625 
Q 6.78125 27.484375 10.78125 32.3125 
Q 14.796875 37.15625 21.921875 38.8125 
z
M 18.3125 54.390625 
Q 18.3125 48.734375 21.84375 45.5625 
Q 25.390625 42.390625 31.78125 42.390625 
Q 38.140625 42.390625 41.71875 45.5625 
Q 45.3125 48.734375 45.3125 54.390625 
Q 45.3125 60.0625 41.71875 63.234375 
Q 38.140625 66.40625 31.78125 66.40625 
Q 25.390625 66.40625 21.84375 63.234375 
Q 18.3125 60.0625 18.3125 54.390625 
z
" id="DejaVuSans-56"/>
       </defs>
       <use xlink:href="#DejaVuSans-53"/>
       <use x="63.623047" xlink:href="#DejaVuSans-51"/>
       <use x="127.246094" xlink:href="#DejaVuSans-56"/>
      </g>
     </g>
    </g>
    <g id="ytick_4">
     <g id="line2d_9">
      <g>
       <use style="stroke:#000000;stroke-width:0.8;" x="324.30625" xlink:href="#m170961cf45" y="123.860428"/>
      </g>
     </g>
     <g id="text_9">
      <!-- 539 -->
      <g transform="translate(298.21875 127.659646)scale(0.1 -0.1)">
       <defs>
        <path d="M 10.984375 1.515625 
L 10.984375 10.5 
Q 14.703125 8.734375 18.5 7.8125 
Q 22.3125 6.890625 25.984375 6.890625 
Q 35.75 6.890625 40.890625 13.453125 
Q 46.046875 20.015625 46.78125 33.40625 
Q 43.953125 29.203125 39.59375 26.953125 
Q 35.25 24.703125 29.984375 24.703125 
Q 19.046875 24.703125 12.671875 31.3125 
Q 6.296875 37.9375 6.296875 49.421875 
Q 6.296875 60.640625 12.9375 67.421875 
Q 19.578125 74.21875 30.609375 74.21875 
Q 43.265625 74.21875 49.921875 64.515625 
Q 56.59375 54.828125 56.59375 36.375 
Q 56.59375 19.140625 48.40625 8.859375 
Q 40.234375 -1.421875 26.421875 -1.421875 
Q 22.703125 -1.421875 18.890625 -0.6875 
Q 15.09375 0.046875 10.984375 1.515625 
z
M 30.609375 32.421875 
Q 37.25 32.421875 41.125 36.953125 
Q 45.015625 41.5 45.015625 49.421875 
Q 45.015625 57.28125 41.125 61.84375 
Q 37.25 66.40625 30.609375 66.40625 
Q 23.96875 66.40625 20.09375 61.84375 
Q 16.21875 57.28125 16.21875 49.421875 
Q 16.21875 41.5 20.09375 36.953125 
Q 23.96875 32.421875 30.609375 32.421875 
z
" id="DejaVuSans-57"/>
       </defs>
       <use xlink:href="#DejaVuSans-53"/>
       <use x="63.623047" xlink:href="#DejaVuSans-51"/>
       <use x="127.246094" xlink:href="#DejaVuSans-57"/>
      </g>
     </g>
    </g>
    <g id="ytick_5">
     <g id="line2d_10">
      <g>
       <use style="stroke:#000000;stroke-width:0.8;" x="324.30625" xlink:href="#m170961cf45" y="100.346316"/>
      </g>
     </g>
     <g id="text_10">
      <!-- 540 -->
      <g transform="translate(298.21875 104.145535)scale(0.1 -0.1)">
       <defs>
        <path d="M 37.796875 64.3125 
L 12.890625 25.390625 
L 37.796875 25.390625 
z
M 35.203125 72.90625 
L 47.609375 72.90625 
L 47.609375 25.390625 
L 58.015625 25.390625 
L 58.015625 17.1875 
L 47.609375 17.1875 
L 47.609375 0 
L 37.796875 0 
L 37.796875 17.1875 
L 4.890625 17.1875 
L 4.890625 26.703125 
z
" id="DejaVuSans-52"/>
       </defs>
       <use xlink:href="#DejaVuSans-53"/>
       <use x="63.623047" xlink:href="#DejaVuSans-52"/>
       <use x="127.246094" xlink:href="#DejaVuSans-48"/>
      </g>
     </g>
    </g>
    <g id="ytick_6">
     <g id="line2d_11">
      <g>
       <use style="stroke:#000000;stroke-width:0.8;" x="324.30625" xlink:href="#m170961cf45" y="76.832205"/>
      </g>
     </g>
     <g id="text_11">
      <!-- 541 -->
      <g transform="translate(298.21875 80.631424)scale(0.1 -0.1)">
       <use xlink:href="#DejaVuSans-53"/>
       <use x="63.623047" xlink:href="#DejaVuSans-52"/>
       <use x="127.246094" xlink:href="#DejaVuSans-49"/>
      </g>
     </g>
    </g>
    <g id="ytick_7">
     <g id="line2d_12">
      <g>
       <use style="stroke:#000000;stroke-width:0.8;" x="324.30625" xlink:href="#m170961cf45" y="53.318094"/>
      </g>
     </g>
     <g id="text_12">
      <!-- 542 -->
      <g transform="translate(298.21875 57.117313)scale(0.1 -0.1)">
       <use xlink:href="#DejaVuSans-53"/>
       <use x="63.623047" xlink:href="#DejaVuSans-52"/>
       <use x="127.246094" xlink:href="#DejaVuSans-50"/>
      </g>
     </g>
    </g>
    <g id="ytick_8">
     <g id="line2d_13">
      <g>
       <use style="stroke:#000000;stroke-width:0.8;" x="324.30625" xlink:href="#m170961cf45" y="29.803983"/>
      </g>
     </g>
     <g id="text_13">
      <!-- 543 -->
      <g transform="translate(298.21875 33.603202)scale(0.1 -0.1)">
       <use xlink:href="#DejaVuSans-53"/>
       <use x="63.623047" xlink:href="#DejaVuSans-52"/>
       <use x="127.246094" xlink:href="#DejaVuSans-51"/>
      </g>
     </g>
    </g>
   </g>
   <g id="line2d_14">
    <path clip-path="url(#p563fceaff5)" d="M 335.305952 187.381818 
L 335.707406 177.505892 
L 336.188589 170.92194 
L 336.719891 166.454259 
L 337.359323 162.927143 
L 338.039395 160.34059 
L 338.809754 158.22432 
L 339.742966 156.343192 
L 340.669143 154.932345 
L 341.876209 153.521498 
L 343.18436 152.345793 
L 344.881493 151.170087 
L 346.627087 150.229523 
L 348.848418 149.288958 
L 351.722643 148.348394 
L 355.507088 147.407829 
L 359.162256 146.702406 
L 363.751656 145.996983 
L 369.548112 145.291559 
L 376.87333 144.586136 
L 389.5443 143.645572 
L 405.59157 142.705007 
L 430.122215 141.29416 
L 435.102412 140.823878 
L 436.43398 140.588737 
L 436.89121 140.353596 
L 436.450577 140.118455 
L 435.135611 139.883314 
L 430.188643 139.413032 
L 418.805835 138.707608 
L 386.293649 136.826479 
L 374.560692 135.885915 
L 365.924069 134.945351 
L 359.623016 134.004786 
L 354.991347 133.064222 
L 351.539311 132.123657 
L 348.926192 131.183093 
L 346.918085 130.242528 
L 345.353763 129.301964 
L 343.854477 128.126258 
L 342.725129 126.950553 
L 341.720373 125.539706 
L 340.99321 124.128859 
L 340.399951 122.482872 
L 339.970979 120.601743 
L 339.729689 118.485473 
L 339.704643 116.134062 
L 339.912036 113.782651 
L 340.305359 111.666381 
L 340.927412 109.550111 
L 341.722094 107.668982 
L 342.662311 106.022994 
L 343.708486 104.612147 
L 345.049209 103.201301 
L 346.463652 102.025595 
L 348.236857 100.849889 
L 350.488527 99.674184 
L 352.748449 98.733619 
L 355.549474 97.793055 
L 359.066022 96.852491 
L 363.544478 95.911926 
L 369.338046 94.971362 
L 376.958978 94.030797 
L 384.311188 93.325374 
L 393.53476 92.619951 
L 405.182696 91.914527 
L 419.92565 91.209104 
L 438.471755 90.503681 
L 469.836221 89.563116 
L 546.522784 87.446846 
L 553.531901 86.976564 
L 554.250284 86.741423 
L 553.028437 86.506282 
L 549.930069 86.271141 
L 538.806642 85.800858 
L 513.830732 85.095435 
L 451.102474 83.449447 
L 424.001965 82.508883 
L 403.904538 81.568318 
L 389.207698 80.627754 
L 378.395388 79.687189 
L 370.327036 78.746625 
L 364.20331 77.806061 
L 359.474728 76.865496 
L 355.762926 75.924932 
L 352.804559 74.984367 
L 349.888072 73.808662 
L 347.609683 72.632956 
L 345.798775 71.457251 
L 344.079081 70.046404 
L 342.72375 68.635557 
L 341.477551 66.98957 
L 340.372615 65.108441 
L 339.418406 62.992171 
L 338.609603 60.64076 
L 337.879762 57.819066 
L 337.214477 54.29195 
L 336.649384 50.05941 
L 336.137448 44.416023 
L 335.711502 37.126648 
L 335.34745 26.78044 
L 335.255966 23.018182 
L 335.255966 23.018182 
" style="fill:none;stroke:#1f77b4;stroke-linecap:square;stroke-width:1.5;"/>
   </g>
   <g id="patch_3">
    <path d="M 324.30625 195.6 
L 324.30625 14.8 
" style="fill:none;stroke:#000000;stroke-linecap:square;stroke-linejoin:miter;stroke-width:0.8;"/>
   </g>
   <g id="patch_4">
    <path d="M 565.2 195.6 
L 565.2 14.8 
" style="fill:none;stroke:#000000;stroke-linecap:square;stroke-linejoin:miter;stroke-width:0.8;"/>
   </g>
   <g id="patch_5">
    <path d="M 324.30625 195.6 
L 565.2 195.6 
" style="fill:none;stroke:#000000;stroke-linecap:square;stroke-linejoin:miter;stroke-width:0.8;"/>
   </g>
   <g id="patch_6">
    <path d="M 324.30625 14.8 
L 565.2 14.8 
" style="fill:none;stroke:#000000;stroke-linecap:square;stroke-linejoin:miter;stroke-width:0.8;"/>
   </g>
  </g>
  <g id="axes_2">
   <g id="patch_7">
    <path d="M 36.925 404.2 
L 277.81875 404.2 
L 277.81875 223.4 
L 36.925 223.4 
z
" style="fill:#ffffff;"/>
   </g>
   <g id="matplotlib.axis_3">
    <g id="xtick_6">
     <g id="line2d_15">
      <g>
       <use style="stroke:#000000;stroke-width:0.8;" x="66.668343" xlink:href="#m0c53a980c2" y="404.2"/>
      </g>
     </g>
     <g id="text_14">
      <!-- 520 -->
      <g transform="translate(57.124593 418.798437)scale(0.1 -0.1)">
       <use xlink:href="#DejaVuSans-53"/>
       <use x="63.623047" xlink:href="#DejaVuSans-50"/>
       <use x="127.246094" xlink:href="#DejaVuSans-48"/>
      </g>
     </g>
    </g>
    <g id="xtick_7">
     <g id="line2d_16">
      <g>
       <use style="stroke:#000000;stroke-width:0.8;" x="106.521722" xlink:href="#m0c53a980c2" y="404.2"/>
      </g>
     </g>
     <g id="text_15">
      <!-- 522 -->
      <g transform="translate(96.977972 418.798437)scale(0.1 -0.1)">
       <use xlink:href="#DejaVuSans-53"/>
       <use x="63.623047" xlink:href="#DejaVuSans-50"/>
       <use x="127.246094" xlink:href="#DejaVuSans-50"/>
      </g>
     </g>
    </g>
    <g id="xtick_8">
     <g id="line2d_17">
      <g>
       <use style="stroke:#000000;stroke-width:0.8;" x="146.375101" xlink:href="#m0c53a980c2" y="404.2"/>
      </g>
     </g>
     <g id="text_16">
      <!-- 524 -->
      <g transform="translate(136.831351 418.798437)scale(0.1 -0.1)">
       <use xlink:href="#DejaVuSans-53"/>
       <use x="63.623047" xlink:href="#DejaVuSans-50"/>
       <use x="127.246094" xlink:href="#DejaVuSans-52"/>
      </g>
     </g>
    </g>
    <g id="xtick_9">
     <g id="line2d_18">
      <g>
       <use style="stroke:#000000;stroke-width:0.8;" x="186.228481" xlink:href="#m0c53a980c2" y="404.2"/>
      </g>
     </g>
     <g id="text_17">
      <!-- 526 -->
      <g transform="translate(176.684731 418.798437)scale(0.1 -0.1)">
       <use xlink:href="#DejaVuSans-53"/>
       <use x="63.623047" xlink:href="#DejaVuSans-50"/>
       <use x="127.246094" xlink:href="#DejaVuSans-54"/>
      </g>
     </g>
    </g>
    <g id="xtick_10">
     <g id="line2d_19">
      <g>
       <use style="stroke:#000000;stroke-width:0.8;" x="226.08186" xlink:href="#m0c53a980c2" y="404.2"/>
      </g>
     </g>
     <g id="text_18">
      <!-- 528 -->
      <g transform="translate(216.53811 418.798437)scale(0.1 -0.1)">
       <use xlink:href="#DejaVuSans-53"/>
       <use x="63.623047" xlink:href="#DejaVuSans-50"/>
       <use x="127.246094" xlink:href="#DejaVuSans-56"/>
      </g>
     </g>
    </g>
    <g id="xtick_11">
     <g id="line2d_20">
      <g>
       <use style="stroke:#000000;stroke-width:0.8;" x="265.935239" xlink:href="#m0c53a980c2" y="404.2"/>
      </g>
     </g>
     <g id="text_19">
      <!-- 530 -->
      <g transform="translate(256.391489 418.798437)scale(0.1 -0.1)">
       <use xlink:href="#DejaVuSans-53"/>
       <use x="63.623047" xlink:href="#DejaVuSans-51"/>
       <use x="127.246094" xlink:href="#DejaVuSans-48"/>
      </g>
     </g>
    </g>
   </g>
   <g id="matplotlib.axis_4">
    <g id="ytick_9">
     <g id="line2d_21">
      <g>
       <use style="stroke:#000000;stroke-width:0.8;" x="36.925" xlink:href="#m170961cf45" y="368.288224"/>
      </g>
     </g>
     <g id="text_20">
      <!-- 539 -->
      <g transform="translate(10.8375 372.087442)scale(0.1 -0.1)">
       <use xlink:href="#DejaVuSans-53"/>
       <use x="63.623047" xlink:href="#DejaVuSans-51"/>
       <use x="127.246094" xlink:href="#DejaVuSans-57"/>
      </g>
     </g>
    </g>
    <g id="ytick_10">
     <g id="line2d_22">
      <g>
       <use style="stroke:#000000;stroke-width:0.8;" x="36.925" xlink:href="#m170961cf45" y="328.154905"/>
      </g>
     </g>
     <g id="text_21">
      <!-- 540 -->
      <g transform="translate(10.8375 331.954123)scale(0.1 -0.1)">
       <use xlink:href="#DejaVuSans-53"/>
       <use x="63.623047" xlink:href="#DejaVuSans-52"/>
       <use x="127.246094" xlink:href="#DejaVuSans-48"/>
      </g>
     </g>
    </g>
    <g id="ytick_11">
     <g id="line2d_23">
      <g>
       <use style="stroke:#000000;stroke-width:0.8;" x="36.925" xlink:href="#m170961cf45" y="288.021586"/>
      </g>
     </g>
     <g id="text_22">
      <!-- 541 -->
      <g transform="translate(10.8375 291.820804)scale(0.1 -0.1)">
       <use xlink:href="#DejaVuSans-53"/>
       <use x="63.623047" xlink:href="#DejaVuSans-52"/>
       <use x="127.246094" xlink:href="#DejaVuSans-49"/>
      </g>
     </g>
    </g>
    <g id="ytick_12">
     <g id="line2d_24">
      <g>
       <use style="stroke:#000000;stroke-width:0.8;" x="36.925" xlink:href="#m170961cf45" y="247.888267"/>
      </g>
     </g>
     <g id="text_23">
      <!-- 542 -->
      <g transform="translate(10.8375 251.687485)scale(0.1 -0.1)">
       <use xlink:href="#DejaVuSans-53"/>
       <use x="63.623047" xlink:href="#DejaVuSans-52"/>
       <use x="127.246094" xlink:href="#DejaVuSans-50"/>
      </g>
     </g>
    </g>
   </g>
   <g id="line2d_25">
    <path clip-path="url(#p56b8d481e6)" d="M 47.874716 395.981818 
L 56.243926 395.670399 
L 61.225598 395.287915 
L 64.613135 394.826549 
L 67.004338 394.304287 
L 68.997007 393.643744 
L 70.591142 392.865734 
L 71.786743 392.049582 
L 72.783078 391.140103 
L 73.779412 389.926387 
L 74.57648 388.6434 
L 75.373547 386.967581 
L 76.170615 384.740513 
L 76.967683 381.733034 
L 77.76475 377.626186 
L 78.561818 372.027798 
L 79.358885 364.634838 
L 81.152287 346.001499 
L 81.550821 344.070734 
L 81.750088 343.759396 
L 81.949355 343.913186 
L 82.148622 344.524015 
L 82.547156 346.971811 
L 83.144956 352.784572 
L 84.739092 369.749095 
L 85.536159 375.926823 
L 86.333227 380.485363 
L 87.130294 383.818118 
L 87.927362 386.274196 
L 88.724429 388.111324 
L 89.720764 389.805261 
L 90.717098 391.04081 
L 91.9127 392.120558 
L 93.108301 392.905885 
L 94.503169 393.575804 
L 96.296572 394.183955 
L 98.488507 394.687087 
L 101.477511 395.126415 
L 105.462849 395.473568 
L 111.440856 395.747426 
L 120.607133 395.919566 
L 133.958015 395.93697 
L 146.113295 395.747715 
L 153.486171 395.429576 
L 158.069309 395.031957 
L 161.257579 394.554278 
L 163.648782 393.985845 
L 165.442184 393.351625 
L 166.837053 392.658079 
L 168.032654 391.849866 
L 169.028988 390.955259 
L 170.025323 389.769516 
L 170.82239 388.524316 
L 171.619458 386.907892 
L 172.416526 384.772915 
L 173.213593 381.905326 
L 174.010661 378.001679 
L 174.807728 372.666886 
L 175.604796 365.513264 
L 176.60113 354.176674 
L 177.597465 343.571047 
L 177.995999 341.262419 
L 178.195266 340.777451 
L 178.394532 340.779506 
L 178.593799 341.268368 
L 178.992333 343.582595 
L 179.590134 349.478783 
L 181.383536 369.299476 
L 182.180603 375.481343 
L 182.977671 380.02394 
L 183.774739 383.343549 
L 184.571806 385.791982 
L 185.368874 387.625074 
L 186.365208 389.315849 
L 187.361543 390.547772 
L 188.557144 391.620471 
L 189.752746 392.394677 
L 191.147614 393.045784 
L 192.941016 393.619849 
L 195.132952 394.064882 
L 197.723421 394.361295 
L 200.911692 394.500487 
L 204.299229 394.434115 
L 207.487499 394.157436 
L 210.077969 393.719882 
L 212.070638 393.181982 
L 213.86404 392.461952 
L 215.258908 391.664471 
L 216.45451 390.732516 
L 217.450844 389.703007 
L 218.447178 388.345293 
L 219.244246 386.929008 
L 220.041314 385.104351 
L 220.838381 382.714781 
L 221.635449 379.532351 
L 222.432516 375.227557 
L 223.229584 369.343083 
L 224.026652 361.321726 
L 224.823719 350.751437 
L 226.617121 324.558366 
L 227.015655 322.025931 
L 227.214922 321.697984 
L 227.414189 322.029366 
L 227.613456 323.0028 
L 228.011989 326.651173 
L 228.60979 335.033649 
L 230.203925 358.974777 
L 231.000993 367.626204 
L 231.79806 374.005656 
L 232.595128 378.671891 
L 233.392196 382.114236 
L 234.189263 384.692487 
L 234.986331 386.65702 
L 235.982665 388.506279 
L 236.979 389.88508 
L 238.174601 391.116611 
L 239.370203 392.031908 
L 240.765071 392.829072 
L 242.558473 393.569371 
L 244.750409 394.19779 
L 247.540145 394.733332 
L 251.126949 395.174428 
L 256.108622 395.543566 
L 263.481497 395.843348 
L 266.869034 395.930114 
L 266.869034 395.930114 
" style="fill:none;stroke:#1f77b4;stroke-linecap:square;stroke-width:1.5;"/>
   </g>
   <g id="line2d_26">
    <path clip-path="url(#p56b8d481e6)" d="M 47.874716 304.574888 
L 56.841726 304.268484 
L 62.022665 303.882537 
L 65.410203 303.42015 
L 67.801405 302.885792 
L 69.594808 302.278962 
L 70.989676 301.604095 
L 72.185277 300.804698 
L 73.181612 299.905722 
L 74.177946 298.694609 
L 74.975014 297.402538 
L 75.772081 295.700218 
L 76.569149 293.419048 
L 77.366216 290.318356 
L 78.163284 286.077847 
L 78.960352 280.357544 
L 79.956686 271.089473 
L 80.953021 261.784805 
L 81.351554 259.404761 
L 81.550821 258.733467 
L 81.750088 258.458518 
L 81.949355 258.594267 
L 82.148622 259.133572 
L 82.547156 261.294832 
L 83.144956 266.42724 
L 84.739092 281.406175 
L 85.536159 286.860782 
L 86.333227 290.885675 
L 87.130294 293.828222 
L 87.927362 295.996676 
L 88.724429 297.618606 
L 89.720764 299.11404 
L 90.717098 300.204719 
L 91.9127 301.15776 
L 93.307568 301.947544 
L 94.901703 302.579231 
L 96.894372 303.11785 
L 99.484842 303.572323 
L 103.071646 303.951506 
L 108.252585 304.246859 
L 116.023994 304.445903 
L 128.179275 304.51948 
L 141.928691 304.3915 
L 150.895701 304.106375 
L 156.475174 303.717661 
L 160.061978 303.264476 
L 162.652448 302.736479 
L 164.645117 302.124163 
L 166.239252 301.419114 
L 167.63412 300.55241 
L 168.829721 299.523377 
L 169.826056 298.363336 
L 170.82239 296.796361 
L 171.619458 295.120193 
L 172.416526 292.906277 
L 173.213593 289.932622 
L 174.010661 285.884539 
L 174.807728 280.352303 
L 175.604796 272.933865 
L 176.60113 261.177562 
L 177.597465 250.179343 
L 177.995999 247.785337 
L 178.195266 247.282485 
L 178.394532 247.284703 
L 178.593799 247.791767 
L 178.992333 250.191926 
L 179.590134 256.306875 
L 181.383536 276.862959 
L 182.180603 283.274368 
L 182.977671 287.985803 
L 183.774739 291.428972 
L 184.571806 293.968727 
L 185.368874 295.870383 
L 186.365208 297.624677 
L 187.361543 298.903199 
L 188.357877 299.856178 
L 189.553479 300.703883 
L 190.948347 301.415011 
L 192.542482 301.983917 
L 194.535151 302.457063 
L 197.125621 302.820621 
L 200.114624 303.011155 
L 203.502161 303.009174 
L 206.690432 302.802242 
L 209.480168 302.408578 
L 211.672104 301.886985 
L 213.465506 301.240566 
L 214.860374 300.527873 
L 216.055976 299.700003 
L 217.251577 298.579243 
L 218.247912 297.32129 
L 219.244246 295.633907 
L 220.041314 293.843665 
L 220.838381 291.498965 
L 221.635449 288.376096 
L 222.432516 284.151674 
L 223.229584 278.376876 
L 224.026652 270.50485 
L 224.823719 260.131198 
L 226.617121 234.42523 
L 227.015655 231.939966 
L 227.214922 231.618182 
L 227.414189 231.943481 
L 227.613456 232.898909 
L 228.011989 236.479673 
L 228.60979 244.706693 
L 230.203925 268.203741 
L 231.000993 276.694739 
L 231.79806 282.955934 
L 232.595128 287.535712 
L 233.392196 290.914313 
L 234.189263 293.444852 
L 234.986331 295.37306 
L 235.982665 297.188155 
L 236.979 298.541513 
L 238.174601 299.750347 
L 239.370203 300.648799 
L 240.765071 301.431312 
L 242.558473 302.158024 
L 244.750409 302.774919 
L 247.540145 303.300628 
L 251.126949 303.733569 
L 256.108622 304.095724 
L 263.481497 304.389399 
L 266.869034 304.47417 
L 266.869034 304.47417 
" style="fill:none;stroke:#ff7f0e;stroke-linecap:square;stroke-width:1.5;"/>
   </g>
   <g id="patch_8">
    <path d="M 36.925 404.2 
L 36.925 223.4 
" style="fill:none;stroke:#000000;stroke-linecap:square;stroke-linejoin:miter;stroke-width:0.8;"/>
   </g>
   <g id="patch_9">
    <path d="M 277.81875 404.2 
L 277.81875 223.4 
" style="fill:none;stroke:#000000;stroke-linecap:square;stroke-linejoin:miter;stroke-width:0.8;"/>
   </g>
   <g id="patch_10">
    <path d="M 36.925 404.2 
L 277.81875 404.2 
" style="fill:none;stroke:#000000;stroke-linecap:square;stroke-linejoin:miter;stroke-width:0.8;"/>
   </g>
   <g id="patch_11">
    <path d="M 36.925 223.4 
L 277.81875 223.4 
" style="fill:none;stroke:#000000;stroke-linecap:square;stroke-linejoin:miter;stroke-width:0.8;"/>
   </g>
  </g>
  <g id="axes_3">
   <g id="patch_12">
    <path d="M 36.925 195.6 
L 277.81875 195.6 
L 277.81875 14.8 
L 36.925 14.8 
z
" style="fill:#ffffff;"/>
   </g>
   <g id="matplotlib.axis_5">
    <g id="xtick_12">
     <g id="line2d_27">
      <g>
       <use style="stroke:#000000;stroke-width:0.8;" x="58.824432" xlink:href="#m0c53a980c2" y="195.6"/>
      </g>
     </g>
     <g id="text_24">
      <!-- 520 -->
      <g transform="translate(49.280682 210.198437)scale(0.1 -0.1)">
       <use xlink:href="#DejaVuSans-53"/>
       <use x="63.623047" xlink:href="#DejaVuSans-50"/>
       <use x="127.246094" xlink:href="#DejaVuSans-48"/>
      </g>
     </g>
    </g>
    <g id="xtick_13">
     <g id="line2d_28">
      <g>
       <use style="stroke:#000000;stroke-width:0.8;" x="102.623295" xlink:href="#m0c53a980c2" y="195.6"/>
      </g>
     </g>
     <g id="text_25">
      <!-- 522 -->
      <g transform="translate(93.079545 210.198437)scale(0.1 -0.1)">
       <use xlink:href="#DejaVuSans-53"/>
       <use x="63.623047" xlink:href="#DejaVuSans-50"/>
       <use x="127.246094" xlink:href="#DejaVuSans-50"/>
      </g>
     </g>
    </g>
    <g id="xtick_14">
     <g id="line2d_29">
      <g>
       <use style="stroke:#000000;stroke-width:0.8;" x="146.422159" xlink:href="#m0c53a980c2" y="195.6"/>
      </g>
     </g>
     <g id="text_26">
      <!-- 524 -->
      <g transform="translate(136.878409 210.198437)scale(0.1 -0.1)">
       <use xlink:href="#DejaVuSans-53"/>
       <use x="63.623047" xlink:href="#DejaVuSans-50"/>
       <use x="127.246094" xlink:href="#DejaVuSans-52"/>
      </g>
     </g>
    </g>
    <g id="xtick_15">
     <g id="line2d_30">
      <g>
       <use style="stroke:#000000;stroke-width:0.8;" x="190.221023" xlink:href="#m0c53a980c2" y="195.6"/>
      </g>
     </g>
     <g id="text_27">
      <!-- 526 -->
      <g transform="translate(180.677273 210.198437)scale(0.1 -0.1)">
       <use xlink:href="#DejaVuSans-53"/>
       <use x="63.623047" xlink:href="#DejaVuSans-50"/>
       <use x="127.246094" xlink:href="#DejaVuSans-54"/>
      </g>
     </g>
    </g>
    <g id="xtick_16">
     <g id="line2d_31">
      <g>
       <use style="stroke:#000000;stroke-width:0.8;" x="234.019886" xlink:href="#m0c53a980c2" y="195.6"/>
      </g>
     </g>
     <g id="text_28">
      <!-- 528 -->
      <g transform="translate(224.476136 210.198437)scale(0.1 -0.1)">
       <use xlink:href="#DejaVuSans-53"/>
       <use x="63.623047" xlink:href="#DejaVuSans-50"/>
       <use x="127.246094" xlink:href="#DejaVuSans-56"/>
      </g>
     </g>
    </g>
    <g id="xtick_17">
     <g id="line2d_32">
      <g>
       <use style="stroke:#000000;stroke-width:0.8;" x="277.81875" xlink:href="#m0c53a980c2" y="195.6"/>
      </g>
     </g>
     <g id="text_29">
      <!-- 530 -->
      <g transform="translate(268.275 210.198437)scale(0.1 -0.1)">
       <use xlink:href="#DejaVuSans-53"/>
       <use x="63.623047" xlink:href="#DejaVuSans-51"/>
       <use x="127.246094" xlink:href="#DejaVuSans-48"/>
      </g>
     </g>
    </g>
   </g>
   <g id="matplotlib.axis_6">
    <g id="ytick_13">
     <g id="line2d_33">
      <g>
       <use style="stroke:#000000;stroke-width:0.8;" x="36.925" xlink:href="#m170961cf45" y="195.6"/>
      </g>
     </g>
     <g id="text_30">
      <!-- 536 -->
      <g transform="translate(10.8375 199.399219)scale(0.1 -0.1)">
       <use xlink:href="#DejaVuSans-53"/>
       <use x="63.623047" xlink:href="#DejaVuSans-51"/>
       <use x="127.246094" xlink:href="#DejaVuSans-54"/>
      </g>
     </g>
    </g>
    <g id="ytick_14">
     <g id="line2d_34">
      <g>
       <use style="stroke:#000000;stroke-width:0.8;" x="36.925" xlink:href="#m170961cf45" y="173"/>
      </g>
     </g>
     <g id="text_31">
      <!-- 537 -->
      <g transform="translate(10.8375 176.799219)scale(0.1 -0.1)">
       <use xlink:href="#DejaVuSans-53"/>
       <use x="63.623047" xlink:href="#DejaVuSans-51"/>
       <use x="127.246094" xlink:href="#DejaVuSans-55"/>
      </g>
     </g>
    </g>
    <g id="ytick_15">
     <g id="line2d_35">
      <g>
       <use style="stroke:#000000;stroke-width:0.8;" x="36.925" xlink:href="#m170961cf45" y="150.4"/>
      </g>
     </g>
     <g id="text_32">
      <!-- 538 -->
      <g transform="translate(10.8375 154.199219)scale(0.1 -0.1)">
       <use xlink:href="#DejaVuSans-53"/>
       <use x="63.623047" xlink:href="#DejaVuSans-51"/>
       <use x="127.246094" xlink:href="#DejaVuSans-56"/>
      </g>
     </g>
    </g>
    <g id="ytick_16">
     <g id="line2d_36">
      <g>
       <use style="stroke:#000000;stroke-width:0.8;" x="36.925" xlink:href="#m170961cf45" y="127.8"/>
      </g>
     </g>
     <g id="text_33">
      <!-- 539 -->
      <g transform="translate(10.8375 131.599219)scale(0.1 -0.1)">
       <use xlink:href="#DejaVuSans-53"/>
       <use x="63.623047" xlink:href="#DejaVuSans-51"/>
       <use x="127.246094" xlink:href="#DejaVuSans-57"/>
      </g>
     </g>
    </g>
    <g id="ytick_17">
     <g id="line2d_37">
      <g>
       <use style="stroke:#000000;stroke-width:0.8;" x="36.925" xlink:href="#m170961cf45" y="105.2"/>
      </g>
     </g>
     <g id="text_34">
      <!-- 540 -->
      <g transform="translate(10.8375 108.999219)scale(0.1 -0.1)">
       <use xlink:href="#DejaVuSans-53"/>
       <use x="63.623047" xlink:href="#DejaVuSans-52"/>
       <use x="127.246094" xlink:href="#DejaVuSans-48"/>
      </g>
     </g>
    </g>
    <g id="ytick_18">
     <g id="line2d_38">
      <g>
       <use style="stroke:#000000;stroke-width:0.8;" x="36.925" xlink:href="#m170961cf45" y="82.6"/>
      </g>
     </g>
     <g id="text_35">
      <!-- 541 -->
      <g transform="translate(10.8375 86.399219)scale(0.1 -0.1)">
       <use xlink:href="#DejaVuSans-53"/>
       <use x="63.623047" xlink:href="#DejaVuSans-52"/>
       <use x="127.246094" xlink:href="#DejaVuSans-49"/>
      </g>
     </g>
    </g>
    <g id="ytick_19">
     <g id="line2d_39">
      <g>
       <use style="stroke:#000000;stroke-width:0.8;" x="36.925" xlink:href="#m170961cf45" y="60"/>
      </g>
     </g>
     <g id="text_36">
      <!-- 542 -->
      <g transform="translate(10.8375 63.799219)scale(0.1 -0.1)">
       <use xlink:href="#DejaVuSans-53"/>
       <use x="63.623047" xlink:href="#DejaVuSans-52"/>
       <use x="127.246094" xlink:href="#DejaVuSans-50"/>
      </g>
     </g>
    </g>
    <g id="ytick_20">
     <g id="line2d_40">
      <g>
       <use style="stroke:#000000;stroke-width:0.8;" x="36.925" xlink:href="#m170961cf45" y="37.4"/>
      </g>
     </g>
     <g id="text_37">
      <!-- 543 -->
      <g transform="translate(10.8375 41.199219)scale(0.1 -0.1)">
       <use xlink:href="#DejaVuSans-53"/>
       <use x="63.623047" xlink:href="#DejaVuSans-52"/>
       <use x="127.246094" xlink:href="#DejaVuSans-51"/>
      </g>
     </g>
    </g>
    <g id="ytick_21">
     <g id="line2d_41">
      <g>
       <use style="stroke:#000000;stroke-width:0.8;" x="36.925" xlink:href="#m170961cf45" y="14.8"/>
      </g>
     </g>
     <g id="text_38">
      <!-- 544 -->
      <g transform="translate(10.8375 18.599219)scale(0.1 -0.1)">
       <use xlink:href="#DejaVuSans-53"/>
       <use x="63.623047" xlink:href="#DejaVuSans-52"/>
       <use x="127.246094" xlink:href="#DejaVuSans-52"/>
      </g>
     </g>
    </g>
   </g>
   <g id="line2d_42">
    <defs>
     <path d="M 0 0.936479 
C 0.248357 0.936479 0.486576 0.837806 0.662191 0.662191 
C 0.837806 0.486576 0.936479 0.248357 0.936479 0 
C 0.936479 -0.248357 0.837806 -0.486576 0.662191 -0.662191 
C 0.486576 -0.837806 0.248357 -0.936479 0 -0.936479 
C -0.248357 -0.936479 -0.486576 -0.837806 -0.662191 -0.662191 
C -0.837806 -0.486576 -0.936479 -0.248357 -0.936479 0 
C -0.936479 0.248357 -0.837806 0.486576 -0.662191 0.662191 
C -0.486576 0.837806 -0.248357 0.936479 0 0.936479 
z
" id="m431e466740" style="stroke:#000000;"/>
    </defs>
    <g clip-path="url(#p05fb735c72)">
     <use style="stroke:#000000;" x="403.214501" xlink:href="#m431e466740" y="143.651997"/>
    </g>
   </g>
   <g id="line2d_43">
    <defs>
     <path d="M 0 4.586279 
C 1.216295 4.586279 2.382938 4.103039 3.242989 3.242989 
C 4.103039 2.382938 4.586279 1.216295 4.586279 0 
C 4.586279 -1.216295 4.103039 -2.382938 3.242989 -3.242989 
C 2.382938 -4.103039 1.216295 -4.586279 0 -4.586279 
C -1.216295 -4.586279 -2.382938 -4.103039 -3.242989 -3.242989 
C -4.103039 -2.382938 -4.586279 -1.216295 -4.586279 0 
C -4.586279 1.216295 -4.103039 2.382938 -3.242989 3.242989 
C -2.382938 4.103039 -1.216295 4.586279 0 4.586279 
z
" id="m8ed246bbb7" style="stroke:#000000;"/>
    </defs>
    <g clip-path="url(#p05fb735c72)">
     <use style="stroke:#000000;" x="235.265122" xlink:href="#m8ed246bbb7" y="143.651997"/>
    </g>
   </g>
   <g id="line2d_44">
    <defs>
     <path d="M 0 3.409592 
C 0.904234 3.409592 1.771556 3.050336 2.410946 2.410946 
C 3.050336 1.771556 3.409592 0.904234 3.409592 0 
C 3.409592 -0.904234 3.050336 -1.771556 2.410946 -2.410946 
C 1.771556 -3.050336 0.904234 -3.409592 0 -3.409592 
C -0.904234 -3.409592 -1.771556 -3.050336 -2.410946 -2.410946 
C -3.050336 -1.771556 -3.409592 -0.904234 -3.409592 0 
C -3.409592 0.904234 -3.050336 1.771556 -2.410946 2.410946 
C -1.771556 3.050336 -0.904234 3.409592 0 3.409592 
z
" id="m1bddc8e946" style="stroke:#000000;"/>
    </defs>
    <g clip-path="url(#p05fb735c72)">
     <use style="stroke:#000000;" x="181.500188" xlink:href="#m1bddc8e946" y="143.651997"/>
    </g>
   </g>
   <g id="line2d_45">
    <defs>
     <path d="M 0 4.04048 
C 1.071548 4.04048 2.099352 3.61475 2.857051 2.857051 
C 3.61475 2.099352 4.04048 1.071548 4.04048 0 
C 4.04048 -1.071548 3.61475 -2.099352 2.857051 -2.857051 
C 2.099352 -3.61475 1.071548 -4.04048 0 -4.04048 
C -1.071548 -4.04048 -2.099352 -3.61475 -2.857051 -2.857051 
C -3.61475 -2.099352 -4.04048 -1.071548 -4.04048 0 
C -4.04048 1.071548 -3.61475 2.099352 -2.857051 2.857051 
C -2.099352 3.61475 -1.071548 4.04048 0 4.04048 
z
" id="mc9dccbe5b3" style="stroke:#000000;"/>
    </defs>
    <g clip-path="url(#p05fb735c72)">
     <use style="stroke:#000000;" x="449.331453" xlink:href="#mc9dccbe5b3" y="92.152997"/>
    </g>
   </g>
   <g id="line2d_46">
    <defs>
     <path d="M 0 9.729885 
C 2.580396 9.729885 5.055452 8.704683 6.880068 6.880068 
C 8.704683 5.055452 9.729885 2.580396 9.729885 0 
C 9.729885 -2.580396 8.704683 -5.055452 6.880068 -6.880068 
C 5.055452 -8.704683 2.580396 -9.729885 0 -9.729885 
C -2.580396 -9.729885 -5.055452 -8.704683 -6.880068 -6.880068 
C -8.704683 -5.055452 -9.729885 -2.580396 -9.729885 0 
C -9.729885 2.580396 -8.704683 5.055452 -6.880068 6.880068 
C -5.055452 8.704683 -2.580396 9.729885 0 9.729885 
z
" id="m3d6d746683" style="stroke:#000000;"/>
    </defs>
    <g clip-path="url(#p05fb735c72)">
     <use style="stroke:#000000;" x="229.808298" xlink:href="#m3d6d746683" y="92.152997"/>
    </g>
   </g>
   <g id="line2d_47">
    <defs>
     <path d="M 0 7.643327 
C 2.027034 7.643327 3.971319 6.837978 5.404648 5.404648 
C 6.837978 3.971319 7.643327 2.027034 7.643327 0 
C 7.643327 -2.027034 6.837978 -3.971319 5.404648 -5.404648 
C 3.971319 -6.837978 2.027034 -7.643327 0 -7.643327 
C -2.027034 -7.643327 -3.971319 -6.837978 -5.404648 -5.404648 
C -6.837978 -3.971319 -7.643327 -2.027034 -7.643327 0 
C -7.643327 2.027034 -6.837978 3.971319 -5.404648 5.404648 
C -3.971319 6.837978 -2.027034 7.643327 0 7.643327 
z
" id="m965d383d7a" style="stroke:#000000;"/>
    </defs>
    <g clip-path="url(#p05fb735c72)">
     <use style="stroke:#000000;" x="172.859687" xlink:href="#m965d383d7a" y="92.152997"/>
    </g>
   </g>
   <g id="patch_13">
    <path d="M 36.925 195.6 
L 36.925 14.8 
" style="fill:none;stroke:#000000;stroke-linecap:square;stroke-linejoin:miter;stroke-width:0.8;"/>
   </g>
   <g id="patch_14">
    <path d="M 277.81875 195.6 
L 277.81875 14.8 
" style="fill:none;stroke:#000000;stroke-linecap:square;stroke-linejoin:miter;stroke-width:0.8;"/>
   </g>
   <g id="patch_15">
    <path d="M 36.925 195.6 
L 277.81875 195.6 
" style="fill:none;stroke:#000000;stroke-linecap:square;stroke-linejoin:miter;stroke-width:0.8;"/>
   </g>
   <g id="patch_16">
    <path d="M 36.925 14.8 
L 277.81875 14.8 
" style="fill:none;stroke:#000000;stroke-linecap:square;stroke-linejoin:miter;stroke-width:0.8;"/>
   </g>
  </g>
 </g>
 <defs>
  <clipPath id="p563fceaff5">
   <rect height="180.8" width="240.89375" x="324.30625" y="14.8"/>
  </clipPath>
  <clipPath id="p56b8d481e6">
   <rect height="180.8" width="240.89375" x="36.925" y="223.4"/>
  </clipPath>
  <clipPath id="p05fb735c72">
   <rect height="180.8" width="240.89375" x="36.925" y="14.8"/>
  </clipPath>
 </defs>
</svg>
