<?xml version="1.0" encoding="utf-8" standalone="no"?>
<!DOCTYPE svg PUBLIC "-//W3C//DTD SVG 1.1//EN"
  "http://www.w3.org/Graphics/SVG/1.1/DTD/svg11.dtd">
<!-- Created with matplotlib (https://matplotlib.org/) -->
<svg height="288pt" version="1.1" viewBox="0 0 432 288" width="432pt" xmlns="http://www.w3.org/2000/svg" xmlns:xlink="http://www.w3.org/1999/xlink">
 <metadata>
  <rdf:RDF xmlns:cc="http://creativecommons.org/ns#" xmlns:dc="http://purl.org/dc/elements/1.1/" xmlns:rdf="http://www.w3.org/1999/02/22-rdf-syntax-ns#">
   <cc:Work>
    <dc:type rdf:resource="http://purl.org/dc/dcmitype/StillImage"/>
    <dc:date>2021-07-14T11:50:16.046730</dc:date>
    <dc:format>image/svg+xml</dc:format>
    <dc:creator>
     <cc:Agent>
      <dc:title>Matplotlib v3.3.2, https://matplotlib.org/</dc:title>
     </cc:Agent>
    </dc:creator>
   </cc:Work>
  </rdf:RDF>
 </metadata>
 <defs>
  <style type="text/css">*{stroke-linecap:butt;stroke-linejoin:round;}</style>
 </defs>
 <g id="figure_1">
  <g id="patch_1">
   <path d="M 0 288 
L 432 288 
L 432 0 
L 0 0 
z
" style="fill:#ffffff;"/>
  </g>
  <g id="axes_1">
   <g id="patch_2">
    <path d="M 54 256.32 
L 388.8 256.32 
L 388.8 145.44 
L 54 145.44 
z
" style="fill:#ffffff;"/>
   </g>
   <g id="patch_3">
    <path clip-path="url(#pb5c5e69525)" d="M 54.632886 256.32 
L 56.306886 256.32 
L 56.306886 252.43446 
L 54.632886 252.43446 
z
" style="fill:#0000ff;"/>
   </g>
   <g id="patch_4">
    <path clip-path="url(#pb5c5e69525)" d="M 54.952993 256.32 
L 56.626993 256.32 
L 56.626993 256.32 
L 54.952993 256.32 
z
" style="fill:#0000ff;"/>
   </g>
   <g id="patch_5">
    <path clip-path="url(#pb5c5e69525)" d="M 55.01148 256.32 
L 56.68548 256.32 
L 56.68548 240.028054 
L 55.01148 240.028054 
z
" style="fill:#0000ff;"/>
   </g>
   <g id="patch_6">
    <path clip-path="url(#pb5c5e69525)" d="M 55.338616 256.32 
L 57.012616 256.32 
L 57.012616 243.569928 
L 55.338616 243.569928 
z
" style="fill:#0000ff;"/>
   </g>
   <g id="patch_7">
    <path clip-path="url(#pb5c5e69525)" d="M 55.60943 256.32 
L 57.28343 256.32 
L 57.28343 212.598054 
L 55.60943 212.598054 
z
" style="fill:#0000ff;"/>
   </g>
   <g id="patch_8">
    <path clip-path="url(#pb5c5e69525)" d="M 56.147831 256.32 
L 57.821831 256.32 
L 57.821831 236.874842 
L 56.147831 236.874842 
z
" style="fill:#0000ff;"/>
   </g>
   <g id="patch_9">
    <path clip-path="url(#pb5c5e69525)" d="M 56.211896 256.32 
L 57.885896 256.32 
L 57.885896 256.32 
L 56.211896 256.32 
z
" style="fill:#0000ff;"/>
   </g>
   <g id="patch_10">
    <path clip-path="url(#pb5c5e69525)" d="M 56.499904 256.32 
L 58.173904 256.32 
L 58.173904 228.957075 
L 56.499904 228.957075 
z
" style="fill:#0000ff;"/>
   </g>
   <g id="patch_11">
    <path clip-path="url(#pb5c5e69525)" d="M 56.692062 256.32 
L 58.366062 256.32 
L 58.366062 221.704316 
L 56.692062 221.704316 
z
" style="fill:#0000ff;"/>
   </g>
   <g id="patch_12">
    <path clip-path="url(#pb5c5e69525)" d="M 56.823758 256.32 
L 58.497758 256.32 
L 58.497758 254.810321 
L 56.823758 254.810321 
z
" style="fill:#0000ff;"/>
   </g>
   <g id="patch_13">
    <path clip-path="url(#pb5c5e69525)" d="M 57.432235 256.32 
L 59.106235 256.32 
L 59.106235 179.353749 
L 57.432235 179.353749 
z
" style="fill:#0000ff;"/>
   </g>
   <g id="patch_14">
    <path clip-path="url(#pb5c5e69525)" d="M 57.615034 256.32 
L 59.289034 256.32 
L 59.289034 158.404741 
L 57.615034 158.404741 
z
" style="fill:#0000ff;"/>
   </g>
   <g id="patch_15">
    <path clip-path="url(#pb5c5e69525)" d="M 57.848963 256.32 
L 59.522963 256.32 
L 59.522963 256.258221 
L 57.848963 256.258221 
z
" style="fill:#0000ff;"/>
   </g>
   <g id="patch_16">
    <path clip-path="url(#pb5c5e69525)" d="M 57.931346 256.32 
L 59.605346 256.32 
L 59.605346 247.291476 
L 57.931346 247.291476 
z
" style="fill:#0000ff;"/>
   </g>
   <g id="patch_17">
    <path clip-path="url(#pb5c5e69525)" d="M 58.026581 256.32 
L 59.700581 256.32 
L 59.700581 256.303478 
L 58.026581 256.303478 
z
" style="fill:#0000ff;"/>
   </g>
   <g id="patch_18">
    <path clip-path="url(#pb5c5e69525)" d="M 58.450273 256.32 
L 60.124273 256.32 
L 60.124273 256.32 
L 58.450273 256.32 
z
" style="fill:#0000ff;"/>
   </g>
   <g id="patch_19">
    <path clip-path="url(#pb5c5e69525)" d="M 58.527894 256.32 
L 60.201894 256.32 
L 60.201894 255.95224 
L 58.527894 255.95224 
z
" style="fill:#0000ff;"/>
   </g>
   <g id="patch_20">
    <path clip-path="url(#pb5c5e69525)" d="M 58.751586 256.32 
L 60.425586 256.32 
L 60.425586 247.007006 
L 58.751586 247.007006 
z
" style="fill:#0000ff;"/>
   </g>
   <g id="patch_21">
    <path clip-path="url(#pb5c5e69525)" d="M 58.788493 256.32 
L 60.462493 256.32 
L 60.462493 256.32 
L 58.788493 256.32 
z
" style="fill:#0000ff;"/>
   </g>
   <g id="patch_22">
    <path clip-path="url(#pb5c5e69525)" d="M 58.910695 256.32 
L 60.584695 256.32 
L 60.584695 255.069592 
L 58.910695 255.069592 
z
" style="fill:#0000ff;"/>
   </g>
   <g id="patch_23">
    <path clip-path="url(#pb5c5e69525)" d="M 58.982856 256.32 
L 60.656856 256.32 
L 60.656856 241.804876 
L 58.982856 241.804876 
z
" style="fill:#0000ff;"/>
   </g>
   <g id="patch_24">
    <path clip-path="url(#pb5c5e69525)" d="M 59.00326 256.32 
L 60.67726 256.32 
L 60.67726 249.085624 
L 59.00326 249.085624 
z
" style="fill:#0000ff;"/>
   </g>
   <g id="patch_25">
    <path clip-path="url(#pb5c5e69525)" d="M 59.762164 256.32 
L 61.436164 256.32 
L 61.436164 182.041127 
L 59.762164 182.041127 
z
" style="fill:#0000ff;"/>
   </g>
   <g id="patch_26">
    <path clip-path="url(#pb5c5e69525)" d="M 60.026358 256.32 
L 61.700358 256.32 
L 61.700358 249.749909 
L 60.026358 249.749909 
z
" style="fill:#0000ff;"/>
   </g>
   <g id="patch_27">
    <path clip-path="url(#pb5c5e69525)" d="M 60.133177 256.32 
L 61.807177 256.32 
L 61.807177 254.934348 
L 60.133177 254.934348 
z
" style="fill:#0000ff;"/>
   </g>
   <g id="patch_28">
    <path clip-path="url(#pb5c5e69525)" d="M 60.240462 256.32 
L 61.914462 256.32 
L 61.914462 250.909069 
L 60.240462 250.909069 
z
" style="fill:#0000ff;"/>
   </g>
   <g id="patch_29">
    <path clip-path="url(#pb5c5e69525)" d="M 60.743325 256.32 
L 62.417325 256.32 
L 62.417325 256.259541 
L 60.743325 256.259541 
z
" style="fill:#0000ff;"/>
   </g>
   <g id="patch_30">
    <path clip-path="url(#pb5c5e69525)" d="M 60.89495 256.32 
L 62.56895 256.32 
L 62.56895 255.830268 
L 60.89495 255.830268 
z
" style="fill:#0000ff;"/>
   </g>
   <g id="patch_31">
    <path clip-path="url(#pb5c5e69525)" d="M 61.687733 256.32 
L 63.361733 256.32 
L 63.361733 242.966784 
L 61.687733 242.966784 
z
" style="fill:#0000ff;"/>
   </g>
   <g id="patch_32">
    <path clip-path="url(#pb5c5e69525)" d="M 61.879243 256.32 
L 63.553243 256.32 
L 63.553243 246.154593 
L 61.879243 246.154593 
z
" style="fill:#0000ff;"/>
   </g>
   <g id="patch_33">
    <path clip-path="url(#pb5c5e69525)" d="M 62.459847 256.32 
L 64.133847 256.32 
L 64.133847 244.407722 
L 62.459847 244.407722 
z
" style="fill:#0000ff;"/>
   </g>
   <g id="patch_34">
    <path clip-path="url(#pb5c5e69525)" d="M 64.060483 256.32 
L 65.734483 256.32 
L 65.734483 253.670234 
L 64.060483 253.670234 
z
" style="fill:#0000ff;"/>
   </g>
   <g id="patch_35">
    <path clip-path="url(#pb5c5e69525)" d="M 64.726006 256.32 
L 66.400006 256.32 
L 66.400006 253.740717 
L 64.726006 253.740717 
z
" style="fill:#0000ff;"/>
   </g>
   <g id="patch_36">
    <path clip-path="url(#pb5c5e69525)" d="M 64.919938 256.32 
L 66.593938 256.32 
L 66.593938 256.32 
L 64.919938 256.32 
z
" style="fill:#0000ff;"/>
   </g>
   <g id="patch_37">
    <path clip-path="url(#pb5c5e69525)" d="M 65.141541 256.32 
L 66.815541 256.32 
L 66.815541 256.255555 
L 65.141541 256.255555 
z
" style="fill:#0000ff;"/>
   </g>
   <g id="patch_38">
    <path clip-path="url(#pb5c5e69525)" d="M 65.31086 256.32 
L 66.98486 256.32 
L 66.98486 254.177799 
L 65.31086 254.177799 
z
" style="fill:#0000ff;"/>
   </g>
   <g id="patch_39">
    <path clip-path="url(#pb5c5e69525)" d="M 65.655438 256.32 
L 67.329438 256.32 
L 67.329438 255.139088 
L 65.655438 255.139088 
z
" style="fill:#0000ff;"/>
   </g>
   <g id="patch_40">
    <path clip-path="url(#pb5c5e69525)" d="M 65.872885 256.32 
L 67.546885 256.32 
L 67.546885 253.53865 
L 65.872885 253.53865 
z
" style="fill:#0000ff;"/>
   </g>
   <g id="patch_41">
    <path clip-path="url(#pb5c5e69525)" d="M 68.492253 256.32 
L 70.166253 256.32 
L 70.166253 255.966863 
L 68.492253 255.966863 
z
" style="fill:#0000ff;"/>
   </g>
   <g id="patch_42">
    <path clip-path="url(#pb5c5e69525)" d="M 68.698217 256.32 
L 70.372217 256.32 
L 70.372217 255.745872 
L 68.698217 255.745872 
z
" style="fill:#0000ff;"/>
   </g>
   <g id="patch_43">
    <path clip-path="url(#pb5c5e69525)" d="M 76.483258 256.32 
L 78.157258 256.32 
L 78.157258 254.997039 
L 76.483258 254.997039 
z
" style="fill:#0000ff;"/>
   </g>
   <g id="patch_44">
    <path clip-path="url(#pb5c5e69525)" d="M 76.5561 256.32 
L 78.2301 256.32 
L 78.2301 250.467162 
L 76.5561 250.467162 
z
" style="fill:#0000ff;"/>
   </g>
   <g id="patch_45">
    <path clip-path="url(#pb5c5e69525)" d="M 76.689795 256.32 
L 78.363795 256.32 
L 78.363795 256.316485 
L 76.689795 256.316485 
z
" style="fill:#0000ff;"/>
   </g>
   <g id="patch_46">
    <path clip-path="url(#pb5c5e69525)" d="M 77.250105 256.32 
L 78.924105 256.32 
L 78.924105 256.32 
L 77.250105 256.32 
z
" style="fill:#0000ff;"/>
   </g>
   <g id="patch_47">
    <path clip-path="url(#pb5c5e69525)" d="M 77.50248 256.32 
L 79.17648 256.32 
L 79.17648 256.32 
L 77.50248 256.32 
z
" style="fill:#0000ff;"/>
   </g>
   <g id="patch_48">
    <path clip-path="url(#pb5c5e69525)" d="M 77.61283 256.32 
L 79.28683 256.32 
L 79.28683 252.723873 
L 77.61283 252.723873 
z
" style="fill:#0000ff;"/>
   </g>
   <g id="patch_49">
    <path clip-path="url(#pb5c5e69525)" d="M 77.64862 256.32 
L 79.32262 256.32 
L 79.32262 249.323313 
L 77.64862 249.323313 
z
" style="fill:#0000ff;"/>
   </g>
   <g id="patch_50">
    <path clip-path="url(#pb5c5e69525)" d="M 78.024861 256.32 
L 79.698861 256.32 
L 79.698861 256.02161 
L 78.024861 256.02161 
z
" style="fill:#0000ff;"/>
   </g>
   <g id="patch_51">
    <path clip-path="url(#pb5c5e69525)" d="M 79.208863 256.32 
L 80.882863 256.32 
L 80.882863 252.760501 
L 79.208863 252.760501 
z
" style="fill:#0000ff;"/>
   </g>
   <g id="patch_52">
    <path clip-path="url(#pb5c5e69525)" d="M 80.094342 256.32 
L 81.768342 256.32 
L 81.768342 232.635341 
L 80.094342 232.635341 
z
" style="fill:#0000ff;"/>
   </g>
   <g id="patch_53">
    <path clip-path="url(#pb5c5e69525)" d="M 142.874767 256.32 
L 144.548767 256.32 
L 144.548767 254.314182 
L 142.874767 254.314182 
z
" style="fill:#ff0000;"/>
   </g>
   <g id="patch_54">
    <path clip-path="url(#pb5c5e69525)" d="M 143.228321 256.32 
L 144.902321 256.32 
L 144.902321 251.516558 
L 143.228321 251.516558 
z
" style="fill:#ff0000;"/>
   </g>
   <g id="patch_55">
    <path clip-path="url(#pb5c5e69525)" d="M 144.499995 256.32 
L 146.173995 256.32 
L 146.173995 253.716318 
L 144.499995 253.716318 
z
" style="fill:#ff0000;"/>
   </g>
   <g id="patch_56">
    <path clip-path="url(#pb5c5e69525)" d="M 144.670706 256.32 
L 146.344706 256.32 
L 146.344706 253.650962 
L 144.670706 253.650962 
z
" style="fill:#ff0000;"/>
   </g>
   <g id="patch_57">
    <path clip-path="url(#pb5c5e69525)" d="M 146.238916 256.32 
L 147.912916 256.32 
L 147.912916 244.044337 
L 146.238916 244.044337 
z
" style="fill:#ff0000;"/>
   </g>
   <g id="patch_58">
    <path clip-path="url(#pb5c5e69525)" d="M 146.334861 256.32 
L 148.008861 256.32 
L 148.008861 246.189151 
L 146.334861 246.189151 
z
" style="fill:#ff0000;"/>
   </g>
   <g id="patch_59">
    <path clip-path="url(#pb5c5e69525)" d="M 146.783275 256.32 
L 148.457275 256.32 
L 148.457275 246.101954 
L 146.783275 246.101954 
z
" style="fill:#ff0000;"/>
   </g>
   <g id="patch_60">
    <path clip-path="url(#pb5c5e69525)" d="M 148.21449 256.32 
L 149.88849 256.32 
L 149.88849 256.203355 
L 148.21449 256.203355 
z
" style="fill:#ff0000;"/>
   </g>
   <g id="patch_61">
    <path clip-path="url(#pb5c5e69525)" d="M 150.657245 256.32 
L 152.331245 256.32 
L 152.331245 256.319889 
L 150.657245 256.319889 
z
" style="fill:#ff0000;"/>
   </g>
   <g id="patch_62">
    <path clip-path="url(#pb5c5e69525)" d="M 151.000746 256.32 
L 152.674746 256.32 
L 152.674746 256.319929 
L 151.000746 256.319929 
z
" style="fill:#ff0000;"/>
   </g>
   <g id="matplotlib.axis_1">
    <g id="xtick_1">
     <g id="line2d_1">
      <defs>
       <path d="M 0 0 
L 0 3.5 
" id="m805a4cc99f" style="stroke:#000000;stroke-width:0.8;"/>
      </defs>
      <g>
       <use style="stroke:#000000;stroke-width:0.8;" x="54" xlink:href="#m805a4cc99f" y="256.32"/>
      </g>
     </g>
     <g id="text_1">
      <!-- 0 -->
      <g transform="translate(50.81875 270.918437)scale(0.1 -0.1)">
       <defs>
        <path d="M 31.78125 66.40625 
Q 24.171875 66.40625 20.328125 58.90625 
Q 16.5 51.421875 16.5 36.375 
Q 16.5 21.390625 20.328125 13.890625 
Q 24.171875 6.390625 31.78125 6.390625 
Q 39.453125 6.390625 43.28125 13.890625 
Q 47.125 21.390625 47.125 36.375 
Q 47.125 51.421875 43.28125 58.90625 
Q 39.453125 66.40625 31.78125 66.40625 
z
M 31.78125 74.21875 
Q 44.046875 74.21875 50.515625 64.515625 
Q 56.984375 54.828125 56.984375 36.375 
Q 56.984375 17.96875 50.515625 8.265625 
Q 44.046875 -1.421875 31.78125 -1.421875 
Q 19.53125 -1.421875 13.0625 8.265625 
Q 6.59375 17.96875 6.59375 36.375 
Q 6.59375 54.828125 13.0625 64.515625 
Q 19.53125 74.21875 31.78125 74.21875 
z
" id="DejaVuSans-48"/>
       </defs>
       <use xlink:href="#DejaVuSans-48"/>
      </g>
     </g>
    </g>
    <g id="xtick_2">
     <g id="line2d_2">
      <g>
       <use style="stroke:#000000;stroke-width:0.8;" x="95.85" xlink:href="#m805a4cc99f" y="256.32"/>
      </g>
     </g>
     <g id="text_2">
      <!-- 250 -->
      <g transform="translate(86.30625 270.918437)scale(0.1 -0.1)">
       <defs>
        <path d="M 19.1875 8.296875 
L 53.609375 8.296875 
L 53.609375 0 
L 7.328125 0 
L 7.328125 8.296875 
Q 12.9375 14.109375 22.625 23.890625 
Q 32.328125 33.6875 34.8125 36.53125 
Q 39.546875 41.84375 41.421875 45.53125 
Q 43.3125 49.21875 43.3125 52.78125 
Q 43.3125 58.59375 39.234375 62.25 
Q 35.15625 65.921875 28.609375 65.921875 
Q 23.96875 65.921875 18.8125 64.3125 
Q 13.671875 62.703125 7.8125 59.421875 
L 7.8125 69.390625 
Q 13.765625 71.78125 18.9375 73 
Q 24.125 74.21875 28.421875 74.21875 
Q 39.75 74.21875 46.484375 68.546875 
Q 53.21875 62.890625 53.21875 53.421875 
Q 53.21875 48.921875 51.53125 44.890625 
Q 49.859375 40.875 45.40625 35.40625 
Q 44.1875 33.984375 37.640625 27.21875 
Q 31.109375 20.453125 19.1875 8.296875 
z
" id="DejaVuSans-50"/>
        <path d="M 10.796875 72.90625 
L 49.515625 72.90625 
L 49.515625 64.59375 
L 19.828125 64.59375 
L 19.828125 46.734375 
Q 21.96875 47.46875 24.109375 47.828125 
Q 26.265625 48.1875 28.421875 48.1875 
Q 40.625 48.1875 47.75 41.5 
Q 54.890625 34.8125 54.890625 23.390625 
Q 54.890625 11.625 47.5625 5.09375 
Q 40.234375 -1.421875 26.90625 -1.421875 
Q 22.3125 -1.421875 17.546875 -0.640625 
Q 12.796875 0.140625 7.71875 1.703125 
L 7.71875 11.625 
Q 12.109375 9.234375 16.796875 8.0625 
Q 21.484375 6.890625 26.703125 6.890625 
Q 35.15625 6.890625 40.078125 11.328125 
Q 45.015625 15.765625 45.015625 23.390625 
Q 45.015625 31 40.078125 35.4375 
Q 35.15625 39.890625 26.703125 39.890625 
Q 22.75 39.890625 18.8125 39.015625 
Q 14.890625 38.140625 10.796875 36.28125 
z
" id="DejaVuSans-53"/>
       </defs>
       <use xlink:href="#DejaVuSans-50"/>
       <use x="63.623047" xlink:href="#DejaVuSans-53"/>
       <use x="127.246094" xlink:href="#DejaVuSans-48"/>
      </g>
     </g>
    </g>
    <g id="xtick_3">
     <g id="line2d_3">
      <g>
       <use style="stroke:#000000;stroke-width:0.8;" x="137.7" xlink:href="#m805a4cc99f" y="256.32"/>
      </g>
     </g>
     <g id="text_3">
      <!-- 500 -->
      <g transform="translate(128.15625 270.918437)scale(0.1 -0.1)">
       <use xlink:href="#DejaVuSans-53"/>
       <use x="63.623047" xlink:href="#DejaVuSans-48"/>
       <use x="127.246094" xlink:href="#DejaVuSans-48"/>
      </g>
     </g>
    </g>
    <g id="xtick_4">
     <g id="line2d_4">
      <g>
       <use style="stroke:#000000;stroke-width:0.8;" x="179.55" xlink:href="#m805a4cc99f" y="256.32"/>
      </g>
     </g>
     <g id="text_4">
      <!-- 750 -->
      <g transform="translate(170.00625 270.918437)scale(0.1 -0.1)">
       <defs>
        <path d="M 8.203125 72.90625 
L 55.078125 72.90625 
L 55.078125 68.703125 
L 28.609375 0 
L 18.3125 0 
L 43.21875 64.59375 
L 8.203125 64.59375 
z
" id="DejaVuSans-55"/>
       </defs>
       <use xlink:href="#DejaVuSans-55"/>
       <use x="63.623047" xlink:href="#DejaVuSans-53"/>
       <use x="127.246094" xlink:href="#DejaVuSans-48"/>
      </g>
     </g>
    </g>
    <g id="xtick_5">
     <g id="line2d_5">
      <g>
       <use style="stroke:#000000;stroke-width:0.8;" x="221.4" xlink:href="#m805a4cc99f" y="256.32"/>
      </g>
     </g>
     <g id="text_5">
      <!-- 1000 -->
      <g transform="translate(208.675 270.918437)scale(0.1 -0.1)">
       <defs>
        <path d="M 12.40625 8.296875 
L 28.515625 8.296875 
L 28.515625 63.921875 
L 10.984375 60.40625 
L 10.984375 69.390625 
L 28.421875 72.90625 
L 38.28125 72.90625 
L 38.28125 8.296875 
L 54.390625 8.296875 
L 54.390625 0 
L 12.40625 0 
z
" id="DejaVuSans-49"/>
       </defs>
       <use xlink:href="#DejaVuSans-49"/>
       <use x="63.623047" xlink:href="#DejaVuSans-48"/>
       <use x="127.246094" xlink:href="#DejaVuSans-48"/>
       <use x="190.869141" xlink:href="#DejaVuSans-48"/>
      </g>
     </g>
    </g>
    <g id="xtick_6">
     <g id="line2d_6">
      <g>
       <use style="stroke:#000000;stroke-width:0.8;" x="263.25" xlink:href="#m805a4cc99f" y="256.32"/>
      </g>
     </g>
     <g id="text_6">
      <!-- 1250 -->
      <g transform="translate(250.525 270.918437)scale(0.1 -0.1)">
       <use xlink:href="#DejaVuSans-49"/>
       <use x="63.623047" xlink:href="#DejaVuSans-50"/>
       <use x="127.246094" xlink:href="#DejaVuSans-53"/>
       <use x="190.869141" xlink:href="#DejaVuSans-48"/>
      </g>
     </g>
    </g>
    <g id="xtick_7">
     <g id="line2d_7">
      <g>
       <use style="stroke:#000000;stroke-width:0.8;" x="305.1" xlink:href="#m805a4cc99f" y="256.32"/>
      </g>
     </g>
     <g id="text_7">
      <!-- 1500 -->
      <g transform="translate(292.375 270.918437)scale(0.1 -0.1)">
       <use xlink:href="#DejaVuSans-49"/>
       <use x="63.623047" xlink:href="#DejaVuSans-53"/>
       <use x="127.246094" xlink:href="#DejaVuSans-48"/>
       <use x="190.869141" xlink:href="#DejaVuSans-48"/>
      </g>
     </g>
    </g>
    <g id="xtick_8">
     <g id="line2d_8">
      <g>
       <use style="stroke:#000000;stroke-width:0.8;" x="346.95" xlink:href="#m805a4cc99f" y="256.32"/>
      </g>
     </g>
     <g id="text_8">
      <!-- 1750 -->
      <g transform="translate(334.225 270.918437)scale(0.1 -0.1)">
       <use xlink:href="#DejaVuSans-49"/>
       <use x="63.623047" xlink:href="#DejaVuSans-55"/>
       <use x="127.246094" xlink:href="#DejaVuSans-53"/>
       <use x="190.869141" xlink:href="#DejaVuSans-48"/>
      </g>
     </g>
    </g>
    <g id="xtick_9">
     <g id="line2d_9">
      <g>
       <use style="stroke:#000000;stroke-width:0.8;" x="388.8" xlink:href="#m805a4cc99f" y="256.32"/>
      </g>
     </g>
     <g id="text_9">
      <!-- 2000 -->
      <g transform="translate(376.075 270.918437)scale(0.1 -0.1)">
       <use xlink:href="#DejaVuSans-50"/>
       <use x="63.623047" xlink:href="#DejaVuSans-48"/>
       <use x="127.246094" xlink:href="#DejaVuSans-48"/>
       <use x="190.869141" xlink:href="#DejaVuSans-48"/>
      </g>
     </g>
    </g>
    <g id="text_10">
     <!-- Photon energy [eV] -->
     <g transform="translate(172.96875 284.596563)scale(0.1 -0.1)">
      <defs>
       <path d="M 19.671875 64.796875 
L 19.671875 37.40625 
L 32.078125 37.40625 
Q 38.96875 37.40625 42.71875 40.96875 
Q 46.484375 44.53125 46.484375 51.125 
Q 46.484375 57.671875 42.71875 61.234375 
Q 38.96875 64.796875 32.078125 64.796875 
z
M 9.8125 72.90625 
L 32.078125 72.90625 
Q 44.34375 72.90625 50.609375 67.359375 
Q 56.890625 61.8125 56.890625 51.125 
Q 56.890625 40.328125 50.609375 34.8125 
Q 44.34375 29.296875 32.078125 29.296875 
L 19.671875 29.296875 
L 19.671875 0 
L 9.8125 0 
z
" id="DejaVuSans-80"/>
       <path d="M 54.890625 33.015625 
L 54.890625 0 
L 45.90625 0 
L 45.90625 32.71875 
Q 45.90625 40.484375 42.875 44.328125 
Q 39.84375 48.1875 33.796875 48.1875 
Q 26.515625 48.1875 22.3125 43.546875 
Q 18.109375 38.921875 18.109375 30.90625 
L 18.109375 0 
L 9.078125 0 
L 9.078125 75.984375 
L 18.109375 75.984375 
L 18.109375 46.1875 
Q 21.34375 51.125 25.703125 53.5625 
Q 30.078125 56 35.796875 56 
Q 45.21875 56 50.046875 50.171875 
Q 54.890625 44.34375 54.890625 33.015625 
z
" id="DejaVuSans-104"/>
       <path d="M 30.609375 48.390625 
Q 23.390625 48.390625 19.1875 42.75 
Q 14.984375 37.109375 14.984375 27.296875 
Q 14.984375 17.484375 19.15625 11.84375 
Q 23.34375 6.203125 30.609375 6.203125 
Q 37.796875 6.203125 41.984375 11.859375 
Q 46.1875 17.53125 46.1875 27.296875 
Q 46.1875 37.015625 41.984375 42.703125 
Q 37.796875 48.390625 30.609375 48.390625 
z
M 30.609375 56 
Q 42.328125 56 49.015625 48.375 
Q 55.71875 40.765625 55.71875 27.296875 
Q 55.71875 13.875 49.015625 6.21875 
Q 42.328125 -1.421875 30.609375 -1.421875 
Q 18.84375 -1.421875 12.171875 6.21875 
Q 5.515625 13.875 5.515625 27.296875 
Q 5.515625 40.765625 12.171875 48.375 
Q 18.84375 56 30.609375 56 
z
" id="DejaVuSans-111"/>
       <path d="M 18.3125 70.21875 
L 18.3125 54.6875 
L 36.8125 54.6875 
L 36.8125 47.703125 
L 18.3125 47.703125 
L 18.3125 18.015625 
Q 18.3125 11.328125 20.140625 9.421875 
Q 21.96875 7.515625 27.59375 7.515625 
L 36.8125 7.515625 
L 36.8125 0 
L 27.59375 0 
Q 17.1875 0 13.234375 3.875 
Q 9.28125 7.765625 9.28125 18.015625 
L 9.28125 47.703125 
L 2.6875 47.703125 
L 2.6875 54.6875 
L 9.28125 54.6875 
L 9.28125 70.21875 
z
" id="DejaVuSans-116"/>
       <path d="M 54.890625 33.015625 
L 54.890625 0 
L 45.90625 0 
L 45.90625 32.71875 
Q 45.90625 40.484375 42.875 44.328125 
Q 39.84375 48.1875 33.796875 48.1875 
Q 26.515625 48.1875 22.3125 43.546875 
Q 18.109375 38.921875 18.109375 30.90625 
L 18.109375 0 
L 9.078125 0 
L 9.078125 54.6875 
L 18.109375 54.6875 
L 18.109375 46.1875 
Q 21.34375 51.125 25.703125 53.5625 
Q 30.078125 56 35.796875 56 
Q 45.21875 56 50.046875 50.171875 
Q 54.890625 44.34375 54.890625 33.015625 
z
" id="DejaVuSans-110"/>
       <path id="DejaVuSans-32"/>
       <path d="M 56.203125 29.59375 
L 56.203125 25.203125 
L 14.890625 25.203125 
Q 15.484375 15.921875 20.484375 11.0625 
Q 25.484375 6.203125 34.421875 6.203125 
Q 39.59375 6.203125 44.453125 7.46875 
Q 49.3125 8.734375 54.109375 11.28125 
L 54.109375 2.78125 
Q 49.265625 0.734375 44.1875 -0.34375 
Q 39.109375 -1.421875 33.890625 -1.421875 
Q 20.796875 -1.421875 13.15625 6.1875 
Q 5.515625 13.8125 5.515625 26.8125 
Q 5.515625 40.234375 12.765625 48.109375 
Q 20.015625 56 32.328125 56 
Q 43.359375 56 49.78125 48.890625 
Q 56.203125 41.796875 56.203125 29.59375 
z
M 47.21875 32.234375 
Q 47.125 39.59375 43.09375 43.984375 
Q 39.0625 48.390625 32.421875 48.390625 
Q 24.90625 48.390625 20.390625 44.140625 
Q 15.875 39.890625 15.1875 32.171875 
z
" id="DejaVuSans-101"/>
       <path d="M 41.109375 46.296875 
Q 39.59375 47.171875 37.8125 47.578125 
Q 36.03125 48 33.890625 48 
Q 26.265625 48 22.1875 43.046875 
Q 18.109375 38.09375 18.109375 28.8125 
L 18.109375 0 
L 9.078125 0 
L 9.078125 54.6875 
L 18.109375 54.6875 
L 18.109375 46.1875 
Q 20.953125 51.171875 25.484375 53.578125 
Q 30.03125 56 36.53125 56 
Q 37.453125 56 38.578125 55.875 
Q 39.703125 55.765625 41.0625 55.515625 
z
" id="DejaVuSans-114"/>
       <path d="M 45.40625 27.984375 
Q 45.40625 37.75 41.375 43.109375 
Q 37.359375 48.484375 30.078125 48.484375 
Q 22.859375 48.484375 18.828125 43.109375 
Q 14.796875 37.75 14.796875 27.984375 
Q 14.796875 18.265625 18.828125 12.890625 
Q 22.859375 7.515625 30.078125 7.515625 
Q 37.359375 7.515625 41.375 12.890625 
Q 45.40625 18.265625 45.40625 27.984375 
z
M 54.390625 6.78125 
Q 54.390625 -7.171875 48.1875 -13.984375 
Q 42 -20.796875 29.203125 -20.796875 
Q 24.46875 -20.796875 20.265625 -20.09375 
Q 16.0625 -19.390625 12.109375 -17.921875 
L 12.109375 -9.1875 
Q 16.0625 -11.328125 19.921875 -12.34375 
Q 23.78125 -13.375 27.78125 -13.375 
Q 36.625 -13.375 41.015625 -8.765625 
Q 45.40625 -4.15625 45.40625 5.171875 
L 45.40625 9.625 
Q 42.625 4.78125 38.28125 2.390625 
Q 33.9375 0 27.875 0 
Q 17.828125 0 11.671875 7.65625 
Q 5.515625 15.328125 5.515625 27.984375 
Q 5.515625 40.671875 11.671875 48.328125 
Q 17.828125 56 27.875 56 
Q 33.9375 56 38.28125 53.609375 
Q 42.625 51.21875 45.40625 46.390625 
L 45.40625 54.6875 
L 54.390625 54.6875 
z
" id="DejaVuSans-103"/>
       <path d="M 32.171875 -5.078125 
Q 28.375 -14.84375 24.75 -17.8125 
Q 21.140625 -20.796875 15.09375 -20.796875 
L 7.90625 -20.796875 
L 7.90625 -13.28125 
L 13.1875 -13.28125 
Q 16.890625 -13.28125 18.9375 -11.515625 
Q 21 -9.765625 23.484375 -3.21875 
L 25.09375 0.875 
L 2.984375 54.6875 
L 12.5 54.6875 
L 29.59375 11.921875 
L 46.6875 54.6875 
L 56.203125 54.6875 
z
" id="DejaVuSans-121"/>
       <path d="M 8.59375 75.984375 
L 29.296875 75.984375 
L 29.296875 69 
L 17.578125 69 
L 17.578125 -6.203125 
L 29.296875 -6.203125 
L 29.296875 -13.1875 
L 8.59375 -13.1875 
z
" id="DejaVuSans-91"/>
       <path d="M 28.609375 0 
L 0.78125 72.90625 
L 11.078125 72.90625 
L 34.1875 11.53125 
L 57.328125 72.90625 
L 67.578125 72.90625 
L 39.796875 0 
z
" id="DejaVuSans-86"/>
       <path d="M 30.421875 75.984375 
L 30.421875 -13.1875 
L 9.71875 -13.1875 
L 9.71875 -6.203125 
L 21.390625 -6.203125 
L 21.390625 69 
L 9.71875 69 
L 9.71875 75.984375 
z
" id="DejaVuSans-93"/>
      </defs>
      <use xlink:href="#DejaVuSans-80"/>
      <use x="60.302734" xlink:href="#DejaVuSans-104"/>
      <use x="123.681641" xlink:href="#DejaVuSans-111"/>
      <use x="184.863281" xlink:href="#DejaVuSans-116"/>
      <use x="224.072266" xlink:href="#DejaVuSans-111"/>
      <use x="285.253906" xlink:href="#DejaVuSans-110"/>
      <use x="348.632812" xlink:href="#DejaVuSans-32"/>
      <use x="380.419922" xlink:href="#DejaVuSans-101"/>
      <use x="441.943359" xlink:href="#DejaVuSans-110"/>
      <use x="505.322266" xlink:href="#DejaVuSans-101"/>
      <use x="566.845703" xlink:href="#DejaVuSans-114"/>
      <use x="606.208984" xlink:href="#DejaVuSans-103"/>
      <use x="669.685547" xlink:href="#DejaVuSans-121"/>
      <use x="728.865234" xlink:href="#DejaVuSans-32"/>
      <use x="760.652344" xlink:href="#DejaVuSans-91"/>
      <use x="799.666016" xlink:href="#DejaVuSans-101"/>
      <use x="861.189453" xlink:href="#DejaVuSans-86"/>
      <use x="929.597656" xlink:href="#DejaVuSans-93"/>
     </g>
    </g>
   </g>
   <g id="matplotlib.axis_2">
    <g id="ytick_1">
     <g id="line2d_10">
      <defs>
       <path d="M 0 0 
L -3.5 0 
" id="ma00f43cbb3" style="stroke:#000000;stroke-width:0.8;"/>
      </defs>
      <g>
       <use style="stroke:#000000;stroke-width:0.8;" x="54" xlink:href="#ma00f43cbb3" y="234.144"/>
      </g>
     </g>
    </g>
    <g id="ytick_2">
     <g id="line2d_11">
      <g>
       <use style="stroke:#000000;stroke-width:0.8;" x="54" xlink:href="#ma00f43cbb3" y="211.968"/>
      </g>
     </g>
    </g>
    <g id="ytick_3">
     <g id="line2d_12">
      <g>
       <use style="stroke:#000000;stroke-width:0.8;" x="54" xlink:href="#ma00f43cbb3" y="189.792"/>
      </g>
     </g>
    </g>
    <g id="ytick_4">
     <g id="line2d_13">
      <g>
       <use style="stroke:#000000;stroke-width:0.8;" x="54" xlink:href="#ma00f43cbb3" y="167.616"/>
      </g>
     </g>
    </g>
    <g id="ytick_5">
     <g id="line2d_14">
      <g>
       <use style="stroke:#000000;stroke-width:0.8;" x="54" xlink:href="#ma00f43cbb3" y="145.44"/>
      </g>
     </g>
    </g>
   </g>
   <g id="patch_63">
    <path d="M 54 256.32 
L 54 145.44 
" style="fill:none;stroke:#000000;stroke-linecap:square;stroke-linejoin:miter;stroke-width:0.8;"/>
   </g>
   <g id="patch_64">
    <path d="M 388.8 256.32 
L 388.8 145.44 
" style="fill:none;stroke:#000000;stroke-linecap:square;stroke-linejoin:miter;stroke-width:0.8;"/>
   </g>
   <g id="patch_65">
    <path d="M 54 256.32 
L 388.8 256.32 
" style="fill:none;stroke:#000000;stroke-linecap:square;stroke-linejoin:miter;stroke-width:0.8;"/>
   </g>
   <g id="patch_66">
    <path d="M 54 145.44 
L 388.8 145.44 
" style="fill:none;stroke:#000000;stroke-linecap:square;stroke-linejoin:miter;stroke-width:0.8;"/>
   </g>
   <g id="legend_1">
    <g id="patch_67">
     <path d="M 262.76875 175.325 
L 383.2 175.325 
Q 384.8 175.325 384.8 173.725 
L 384.8 151.04 
Q 384.8 149.44 383.2 149.44 
L 262.76875 149.44 
Q 261.16875 149.44 261.16875 151.04 
L 261.16875 173.725 
Q 261.16875 175.325 262.76875 175.325 
z
" style="fill:#ffffff;opacity:0.8;stroke:#cccccc;stroke-linejoin:miter;"/>
    </g>
    <g id="patch_68">
     <path d="M 264.36875 158.71875 
L 280.36875 158.71875 
L 280.36875 153.11875 
L 264.36875 153.11875 
z
" style="fill:#0000ff;"/>
    </g>
    <g id="text_11">
     <!-- ADC(2)         [50 states] -->
     <g transform="translate(286.76875 158.71875)scale(0.08 -0.08)">
      <defs>
       <path d="M 34.1875 63.1875 
L 20.796875 26.90625 
L 47.609375 26.90625 
z
M 28.609375 72.90625 
L 39.796875 72.90625 
L 67.578125 0 
L 57.328125 0 
L 50.6875 18.703125 
L 17.828125 18.703125 
L 11.1875 0 
L 0.78125 0 
z
" id="DejaVuSans-65"/>
       <path d="M 19.671875 64.796875 
L 19.671875 8.109375 
L 31.59375 8.109375 
Q 46.6875 8.109375 53.6875 14.9375 
Q 60.6875 21.78125 60.6875 36.53125 
Q 60.6875 51.171875 53.6875 57.984375 
Q 46.6875 64.796875 31.59375 64.796875 
z
M 9.8125 72.90625 
L 30.078125 72.90625 
Q 51.265625 72.90625 61.171875 64.09375 
Q 71.09375 55.28125 71.09375 36.53125 
Q 71.09375 17.671875 61.125 8.828125 
Q 51.171875 0 30.078125 0 
L 9.8125 0 
z
" id="DejaVuSans-68"/>
       <path d="M 64.40625 67.28125 
L 64.40625 56.890625 
Q 59.421875 61.53125 53.78125 63.8125 
Q 48.140625 66.109375 41.796875 66.109375 
Q 29.296875 66.109375 22.65625 58.46875 
Q 16.015625 50.828125 16.015625 36.375 
Q 16.015625 21.96875 22.65625 14.328125 
Q 29.296875 6.6875 41.796875 6.6875 
Q 48.140625 6.6875 53.78125 8.984375 
Q 59.421875 11.28125 64.40625 15.921875 
L 64.40625 5.609375 
Q 59.234375 2.09375 53.4375 0.328125 
Q 47.65625 -1.421875 41.21875 -1.421875 
Q 24.65625 -1.421875 15.125 8.703125 
Q 5.609375 18.84375 5.609375 36.375 
Q 5.609375 53.953125 15.125 64.078125 
Q 24.65625 74.21875 41.21875 74.21875 
Q 47.75 74.21875 53.53125 72.484375 
Q 59.328125 70.75 64.40625 67.28125 
z
" id="DejaVuSans-67"/>
       <path d="M 31 75.875 
Q 24.46875 64.65625 21.28125 53.65625 
Q 18.109375 42.671875 18.109375 31.390625 
Q 18.109375 20.125 21.3125 9.0625 
Q 24.515625 -2 31 -13.1875 
L 23.1875 -13.1875 
Q 15.875 -1.703125 12.234375 9.375 
Q 8.59375 20.453125 8.59375 31.390625 
Q 8.59375 42.28125 12.203125 53.3125 
Q 15.828125 64.359375 23.1875 75.875 
z
" id="DejaVuSans-40"/>
       <path d="M 8.015625 75.875 
L 15.828125 75.875 
Q 23.140625 64.359375 26.78125 53.3125 
Q 30.421875 42.28125 30.421875 31.390625 
Q 30.421875 20.453125 26.78125 9.375 
Q 23.140625 -1.703125 15.828125 -13.1875 
L 8.015625 -13.1875 
Q 14.5 -2 17.703125 9.0625 
Q 20.90625 20.125 20.90625 31.390625 
Q 20.90625 42.671875 17.703125 53.65625 
Q 14.5 64.65625 8.015625 75.875 
z
" id="DejaVuSans-41"/>
       <path d="M 44.28125 53.078125 
L 44.28125 44.578125 
Q 40.484375 46.53125 36.375 47.5 
Q 32.28125 48.484375 27.875 48.484375 
Q 21.1875 48.484375 17.84375 46.4375 
Q 14.5 44.390625 14.5 40.28125 
Q 14.5 37.15625 16.890625 35.375 
Q 19.28125 33.59375 26.515625 31.984375 
L 29.59375 31.296875 
Q 39.15625 29.25 43.1875 25.515625 
Q 47.21875 21.78125 47.21875 15.09375 
Q 47.21875 7.46875 41.1875 3.015625 
Q 35.15625 -1.421875 24.609375 -1.421875 
Q 20.21875 -1.421875 15.453125 -0.5625 
Q 10.6875 0.296875 5.421875 2 
L 5.421875 11.28125 
Q 10.40625 8.6875 15.234375 7.390625 
Q 20.0625 6.109375 24.8125 6.109375 
Q 31.15625 6.109375 34.5625 8.28125 
Q 37.984375 10.453125 37.984375 14.40625 
Q 37.984375 18.0625 35.515625 20.015625 
Q 33.0625 21.96875 24.703125 23.78125 
L 21.578125 24.515625 
Q 13.234375 26.265625 9.515625 29.90625 
Q 5.8125 33.546875 5.8125 39.890625 
Q 5.8125 47.609375 11.28125 51.796875 
Q 16.75 56 26.8125 56 
Q 31.78125 56 36.171875 55.265625 
Q 40.578125 54.546875 44.28125 53.078125 
z
" id="DejaVuSans-115"/>
       <path d="M 34.28125 27.484375 
Q 23.390625 27.484375 19.1875 25 
Q 14.984375 22.515625 14.984375 16.5 
Q 14.984375 11.71875 18.140625 8.90625 
Q 21.296875 6.109375 26.703125 6.109375 
Q 34.1875 6.109375 38.703125 11.40625 
Q 43.21875 16.703125 43.21875 25.484375 
L 43.21875 27.484375 
z
M 52.203125 31.203125 
L 52.203125 0 
L 43.21875 0 
L 43.21875 8.296875 
Q 40.140625 3.328125 35.546875 0.953125 
Q 30.953125 -1.421875 24.3125 -1.421875 
Q 15.921875 -1.421875 10.953125 3.296875 
Q 6 8.015625 6 15.921875 
Q 6 25.140625 12.171875 29.828125 
Q 18.359375 34.515625 30.609375 34.515625 
L 43.21875 34.515625 
L 43.21875 35.40625 
Q 43.21875 41.609375 39.140625 45 
Q 35.0625 48.390625 27.6875 48.390625 
Q 23 48.390625 18.546875 47.265625 
Q 14.109375 46.140625 10.015625 43.890625 
L 10.015625 52.203125 
Q 14.9375 54.109375 19.578125 55.046875 
Q 24.21875 56 28.609375 56 
Q 40.484375 56 46.34375 49.84375 
Q 52.203125 43.703125 52.203125 31.203125 
z
" id="DejaVuSans-97"/>
      </defs>
      <use xlink:href="#DejaVuSans-65"/>
      <use x="68.408203" xlink:href="#DejaVuSans-68"/>
      <use x="145.410156" xlink:href="#DejaVuSans-67"/>
      <use x="215.234375" xlink:href="#DejaVuSans-40"/>
      <use x="254.248047" xlink:href="#DejaVuSans-50"/>
      <use x="317.871094" xlink:href="#DejaVuSans-41"/>
      <use x="356.884766" xlink:href="#DejaVuSans-32"/>
      <use x="388.671875" xlink:href="#DejaVuSans-32"/>
      <use x="420.458984" xlink:href="#DejaVuSans-32"/>
      <use x="452.246094" xlink:href="#DejaVuSans-32"/>
      <use x="484.033203" xlink:href="#DejaVuSans-32"/>
      <use x="515.820312" xlink:href="#DejaVuSans-32"/>
      <use x="547.607422" xlink:href="#DejaVuSans-32"/>
      <use x="579.394531" xlink:href="#DejaVuSans-32"/>
      <use x="611.181641" xlink:href="#DejaVuSans-32"/>
      <use x="642.96875" xlink:href="#DejaVuSans-91"/>
      <use x="681.982422" xlink:href="#DejaVuSans-53"/>
      <use x="745.605469" xlink:href="#DejaVuSans-48"/>
      <use x="809.228516" xlink:href="#DejaVuSans-32"/>
      <use x="841.015625" xlink:href="#DejaVuSans-115"/>
      <use x="893.115234" xlink:href="#DejaVuSans-116"/>
      <use x="932.324219" xlink:href="#DejaVuSans-97"/>
      <use x="993.603516" xlink:href="#DejaVuSans-116"/>
      <use x="1032.8125" xlink:href="#DejaVuSans-101"/>
      <use x="1094.335938" xlink:href="#DejaVuSans-115"/>
      <use x="1146.435547" xlink:href="#DejaVuSans-93"/>
     </g>
    </g>
    <g id="patch_69">
     <path d="M 264.36875 170.46125 
L 280.36875 170.46125 
L 280.36875 164.86125 
L 264.36875 164.86125 
z
" style="fill:#ff0000;"/>
    </g>
    <g id="text_12">
     <!-- CVS-ADC(2) [10 states] -->
     <g transform="translate(286.76875 170.46125)scale(0.08 -0.08)">
      <defs>
       <path d="M 53.515625 70.515625 
L 53.515625 60.890625 
Q 47.90625 63.578125 42.921875 64.890625 
Q 37.9375 66.21875 33.296875 66.21875 
Q 25.25 66.21875 20.875 63.09375 
Q 16.5 59.96875 16.5 54.203125 
Q 16.5 49.359375 19.40625 46.890625 
Q 22.3125 44.4375 30.421875 42.921875 
L 36.375 41.703125 
Q 47.40625 39.59375 52.65625 34.296875 
Q 57.90625 29 57.90625 20.125 
Q 57.90625 9.515625 50.796875 4.046875 
Q 43.703125 -1.421875 29.984375 -1.421875 
Q 24.8125 -1.421875 18.96875 -0.25 
Q 13.140625 0.921875 6.890625 3.21875 
L 6.890625 13.375 
Q 12.890625 10.015625 18.65625 8.296875 
Q 24.421875 6.59375 29.984375 6.59375 
Q 38.421875 6.59375 43.015625 9.90625 
Q 47.609375 13.234375 47.609375 19.390625 
Q 47.609375 24.75 44.3125 27.78125 
Q 41.015625 30.8125 33.5 32.328125 
L 27.484375 33.5 
Q 16.453125 35.6875 11.515625 40.375 
Q 6.59375 45.0625 6.59375 53.421875 
Q 6.59375 63.09375 13.40625 68.65625 
Q 20.21875 74.21875 32.171875 74.21875 
Q 37.3125 74.21875 42.625 73.28125 
Q 47.953125 72.359375 53.515625 70.515625 
z
" id="DejaVuSans-83"/>
       <path d="M 4.890625 31.390625 
L 31.203125 31.390625 
L 31.203125 23.390625 
L 4.890625 23.390625 
z
" id="DejaVuSans-45"/>
      </defs>
      <use xlink:href="#DejaVuSans-67"/>
      <use x="69.824219" xlink:href="#DejaVuSans-86"/>
      <use x="138.232422" xlink:href="#DejaVuSans-83"/>
      <use x="201.708984" xlink:href="#DejaVuSans-45"/>
      <use x="235.542969" xlink:href="#DejaVuSans-65"/>
      <use x="303.951172" xlink:href="#DejaVuSans-68"/>
      <use x="380.953125" xlink:href="#DejaVuSans-67"/>
      <use x="450.777344" xlink:href="#DejaVuSans-40"/>
      <use x="489.791016" xlink:href="#DejaVuSans-50"/>
      <use x="553.414062" xlink:href="#DejaVuSans-41"/>
      <use x="592.427734" xlink:href="#DejaVuSans-32"/>
      <use x="624.214844" xlink:href="#DejaVuSans-91"/>
      <use x="663.228516" xlink:href="#DejaVuSans-49"/>
      <use x="726.851562" xlink:href="#DejaVuSans-48"/>
      <use x="790.474609" xlink:href="#DejaVuSans-32"/>
      <use x="822.261719" xlink:href="#DejaVuSans-115"/>
      <use x="874.361328" xlink:href="#DejaVuSans-116"/>
      <use x="913.570312" xlink:href="#DejaVuSans-97"/>
      <use x="974.849609" xlink:href="#DejaVuSans-116"/>
      <use x="1014.058594" xlink:href="#DejaVuSans-101"/>
      <use x="1075.582031" xlink:href="#DejaVuSans-115"/>
      <use x="1127.681641" xlink:href="#DejaVuSans-93"/>
     </g>
    </g>
   </g>
  </g>
  <g id="axes_2">
   <g id="patch_70">
    <path d="M 54 145.44 
L 388.8 145.44 
L 388.8 34.56 
L 54 34.56 
z
" style="fill:#ffffff;"/>
   </g>
   <g id="patch_71">
    <path clip-path="url(#p33fdd9e62e)" d="M 54.632886 145.44 
L 56.306886 145.44 
L 56.306886 141.55446 
L 54.632886 141.55446 
z
" style="fill:#0000ff;"/>
   </g>
   <g id="patch_72">
    <path clip-path="url(#p33fdd9e62e)" d="M 54.952993 145.44 
L 56.626993 145.44 
L 56.626993 145.44 
L 54.952993 145.44 
z
" style="fill:#0000ff;"/>
   </g>
   <g id="patch_73">
    <path clip-path="url(#p33fdd9e62e)" d="M 55.01148 145.44 
L 56.68548 145.44 
L 56.68548 129.148054 
L 55.01148 129.148054 
z
" style="fill:#0000ff;"/>
   </g>
   <g id="patch_74">
    <path clip-path="url(#p33fdd9e62e)" d="M 55.338616 145.44 
L 57.012616 145.44 
L 57.012616 132.689928 
L 55.338616 132.689928 
z
" style="fill:#0000ff;"/>
   </g>
   <g id="patch_75">
    <path clip-path="url(#p33fdd9e62e)" d="M 55.60943 145.44 
L 57.28343 145.44 
L 57.28343 101.718054 
L 55.60943 101.718054 
z
" style="fill:#0000ff;"/>
   </g>
   <g id="patch_76">
    <path clip-path="url(#p33fdd9e62e)" d="M 56.147831 145.44 
L 57.821831 145.44 
L 57.821831 125.994842 
L 56.147831 125.994842 
z
" style="fill:#0000ff;"/>
   </g>
   <g id="patch_77">
    <path clip-path="url(#p33fdd9e62e)" d="M 56.211896 145.44 
L 57.885896 145.44 
L 57.885896 145.44 
L 56.211896 145.44 
z
" style="fill:#0000ff;"/>
   </g>
   <g id="patch_78">
    <path clip-path="url(#p33fdd9e62e)" d="M 56.499904 145.44 
L 58.173904 145.44 
L 58.173904 118.077075 
L 56.499904 118.077075 
z
" style="fill:#0000ff;"/>
   </g>
   <g id="patch_79">
    <path clip-path="url(#p33fdd9e62e)" d="M 56.692062 145.44 
L 58.366062 145.44 
L 58.366062 110.824316 
L 56.692062 110.824316 
z
" style="fill:#0000ff;"/>
   </g>
   <g id="patch_80">
    <path clip-path="url(#p33fdd9e62e)" d="M 56.823758 145.44 
L 58.497758 145.44 
L 58.497758 143.930321 
L 56.823758 143.930321 
z
" style="fill:#0000ff;"/>
   </g>
   <g id="patch_81">
    <path clip-path="url(#p33fdd9e62e)" d="M 57.432235 145.44 
L 59.106235 145.44 
L 59.106235 68.473749 
L 57.432235 68.473749 
z
" style="fill:#0000ff;"/>
   </g>
   <g id="patch_82">
    <path clip-path="url(#p33fdd9e62e)" d="M 57.615034 145.44 
L 59.289034 145.44 
L 59.289034 47.524741 
L 57.615034 47.524741 
z
" style="fill:#0000ff;"/>
   </g>
   <g id="patch_83">
    <path clip-path="url(#p33fdd9e62e)" d="M 57.848963 145.44 
L 59.522963 145.44 
L 59.522963 145.378221 
L 57.848963 145.378221 
z
" style="fill:#0000ff;"/>
   </g>
   <g id="patch_84">
    <path clip-path="url(#p33fdd9e62e)" d="M 57.931346 145.44 
L 59.605346 145.44 
L 59.605346 136.411476 
L 57.931346 136.411476 
z
" style="fill:#0000ff;"/>
   </g>
   <g id="patch_85">
    <path clip-path="url(#p33fdd9e62e)" d="M 58.026581 145.44 
L 59.700581 145.44 
L 59.700581 145.423478 
L 58.026581 145.423478 
z
" style="fill:#0000ff;"/>
   </g>
   <g id="patch_86">
    <path clip-path="url(#p33fdd9e62e)" d="M 58.450273 145.44 
L 60.124273 145.44 
L 60.124273 145.44 
L 58.450273 145.44 
z
" style="fill:#0000ff;"/>
   </g>
   <g id="patch_87">
    <path clip-path="url(#p33fdd9e62e)" d="M 58.527894 145.44 
L 60.201894 145.44 
L 60.201894 145.07224 
L 58.527894 145.07224 
z
" style="fill:#0000ff;"/>
   </g>
   <g id="patch_88">
    <path clip-path="url(#p33fdd9e62e)" d="M 58.751586 145.44 
L 60.425586 145.44 
L 60.425586 136.127006 
L 58.751586 136.127006 
z
" style="fill:#0000ff;"/>
   </g>
   <g id="patch_89">
    <path clip-path="url(#p33fdd9e62e)" d="M 58.788493 145.44 
L 60.462493 145.44 
L 60.462493 145.44 
L 58.788493 145.44 
z
" style="fill:#0000ff;"/>
   </g>
   <g id="patch_90">
    <path clip-path="url(#p33fdd9e62e)" d="M 58.910695 145.44 
L 60.584695 145.44 
L 60.584695 144.189592 
L 58.910695 144.189592 
z
" style="fill:#0000ff;"/>
   </g>
   <g id="patch_91">
    <path clip-path="url(#p33fdd9e62e)" d="M 58.982856 145.44 
L 60.656856 145.44 
L 60.656856 130.924876 
L 58.982856 130.924876 
z
" style="fill:#0000ff;"/>
   </g>
   <g id="patch_92">
    <path clip-path="url(#p33fdd9e62e)" d="M 59.00326 145.44 
L 60.67726 145.44 
L 60.67726 138.205624 
L 59.00326 138.205624 
z
" style="fill:#0000ff;"/>
   </g>
   <g id="patch_93">
    <path clip-path="url(#p33fdd9e62e)" d="M 59.762164 145.44 
L 61.436164 145.44 
L 61.436164 71.161127 
L 59.762164 71.161127 
z
" style="fill:#0000ff;"/>
   </g>
   <g id="patch_94">
    <path clip-path="url(#p33fdd9e62e)" d="M 60.026358 145.44 
L 61.700358 145.44 
L 61.700358 138.869909 
L 60.026358 138.869909 
z
" style="fill:#0000ff;"/>
   </g>
   <g id="patch_95">
    <path clip-path="url(#p33fdd9e62e)" d="M 60.133177 145.44 
L 61.807177 145.44 
L 61.807177 144.054348 
L 60.133177 144.054348 
z
" style="fill:#0000ff;"/>
   </g>
   <g id="patch_96">
    <path clip-path="url(#p33fdd9e62e)" d="M 60.240462 145.44 
L 61.914462 145.44 
L 61.914462 140.029069 
L 60.240462 140.029069 
z
" style="fill:#0000ff;"/>
   </g>
   <g id="patch_97">
    <path clip-path="url(#p33fdd9e62e)" d="M 60.743325 145.44 
L 62.417325 145.44 
L 62.417325 145.379541 
L 60.743325 145.379541 
z
" style="fill:#0000ff;"/>
   </g>
   <g id="patch_98">
    <path clip-path="url(#p33fdd9e62e)" d="M 60.89495 145.44 
L 62.56895 145.44 
L 62.56895 144.950268 
L 60.89495 144.950268 
z
" style="fill:#0000ff;"/>
   </g>
   <g id="patch_99">
    <path clip-path="url(#p33fdd9e62e)" d="M 61.687733 145.44 
L 63.361733 145.44 
L 63.361733 132.086784 
L 61.687733 132.086784 
z
" style="fill:#0000ff;"/>
   </g>
   <g id="patch_100">
    <path clip-path="url(#p33fdd9e62e)" d="M 61.879243 145.44 
L 63.553243 145.44 
L 63.553243 135.274593 
L 61.879243 135.274593 
z
" style="fill:#0000ff;"/>
   </g>
   <g id="patch_101">
    <path clip-path="url(#p33fdd9e62e)" d="M 62.459847 145.44 
L 64.133847 145.44 
L 64.133847 133.527722 
L 62.459847 133.527722 
z
" style="fill:#0000ff;"/>
   </g>
   <g id="patch_102">
    <path clip-path="url(#p33fdd9e62e)" d="M 64.060483 145.44 
L 65.734483 145.44 
L 65.734483 142.790234 
L 64.060483 142.790234 
z
" style="fill:#0000ff;"/>
   </g>
   <g id="patch_103">
    <path clip-path="url(#p33fdd9e62e)" d="M 64.726006 145.44 
L 66.400006 145.44 
L 66.400006 142.860717 
L 64.726006 142.860717 
z
" style="fill:#0000ff;"/>
   </g>
   <g id="patch_104">
    <path clip-path="url(#p33fdd9e62e)" d="M 64.919938 145.44 
L 66.593938 145.44 
L 66.593938 145.44 
L 64.919938 145.44 
z
" style="fill:#0000ff;"/>
   </g>
   <g id="patch_105">
    <path clip-path="url(#p33fdd9e62e)" d="M 65.141541 145.44 
L 66.815541 145.44 
L 66.815541 145.375555 
L 65.141541 145.375555 
z
" style="fill:#0000ff;"/>
   </g>
   <g id="patch_106">
    <path clip-path="url(#p33fdd9e62e)" d="M 65.31086 145.44 
L 66.98486 145.44 
L 66.98486 143.297799 
L 65.31086 143.297799 
z
" style="fill:#0000ff;"/>
   </g>
   <g id="patch_107">
    <path clip-path="url(#p33fdd9e62e)" d="M 65.655438 145.44 
L 67.329438 145.44 
L 67.329438 144.259088 
L 65.655438 144.259088 
z
" style="fill:#0000ff;"/>
   </g>
   <g id="patch_108">
    <path clip-path="url(#p33fdd9e62e)" d="M 65.872885 145.44 
L 67.546885 145.44 
L 67.546885 142.65865 
L 65.872885 142.65865 
z
" style="fill:#0000ff;"/>
   </g>
   <g id="patch_109">
    <path clip-path="url(#p33fdd9e62e)" d="M 68.492253 145.44 
L 70.166253 145.44 
L 70.166253 145.086863 
L 68.492253 145.086863 
z
" style="fill:#0000ff;"/>
   </g>
   <g id="patch_110">
    <path clip-path="url(#p33fdd9e62e)" d="M 68.698217 145.44 
L 70.372217 145.44 
L 70.372217 144.865872 
L 68.698217 144.865872 
z
" style="fill:#0000ff;"/>
   </g>
   <g id="patch_111">
    <path clip-path="url(#p33fdd9e62e)" d="M 76.483258 145.44 
L 78.157258 145.44 
L 78.157258 144.117039 
L 76.483258 144.117039 
z
" style="fill:#0000ff;"/>
   </g>
   <g id="patch_112">
    <path clip-path="url(#p33fdd9e62e)" d="M 76.5561 145.44 
L 78.2301 145.44 
L 78.2301 139.587162 
L 76.5561 139.587162 
z
" style="fill:#0000ff;"/>
   </g>
   <g id="patch_113">
    <path clip-path="url(#p33fdd9e62e)" d="M 76.689795 145.44 
L 78.363795 145.44 
L 78.363795 145.436485 
L 76.689795 145.436485 
z
" style="fill:#0000ff;"/>
   </g>
   <g id="patch_114">
    <path clip-path="url(#p33fdd9e62e)" d="M 77.250105 145.44 
L 78.924105 145.44 
L 78.924105 145.44 
L 77.250105 145.44 
z
" style="fill:#0000ff;"/>
   </g>
   <g id="patch_115">
    <path clip-path="url(#p33fdd9e62e)" d="M 77.50248 145.44 
L 79.17648 145.44 
L 79.17648 145.44 
L 77.50248 145.44 
z
" style="fill:#0000ff;"/>
   </g>
   <g id="patch_116">
    <path clip-path="url(#p33fdd9e62e)" d="M 77.61283 145.44 
L 79.28683 145.44 
L 79.28683 141.843873 
L 77.61283 141.843873 
z
" style="fill:#0000ff;"/>
   </g>
   <g id="patch_117">
    <path clip-path="url(#p33fdd9e62e)" d="M 77.64862 145.44 
L 79.32262 145.44 
L 79.32262 138.443313 
L 77.64862 138.443313 
z
" style="fill:#0000ff;"/>
   </g>
   <g id="patch_118">
    <path clip-path="url(#p33fdd9e62e)" d="M 78.024861 145.44 
L 79.698861 145.44 
L 79.698861 145.14161 
L 78.024861 145.14161 
z
" style="fill:#0000ff;"/>
   </g>
   <g id="patch_119">
    <path clip-path="url(#p33fdd9e62e)" d="M 79.208863 145.44 
L 80.882863 145.44 
L 80.882863 141.880501 
L 79.208863 141.880501 
z
" style="fill:#0000ff;"/>
   </g>
   <g id="patch_120">
    <path clip-path="url(#p33fdd9e62e)" d="M 80.094342 145.44 
L 81.768342 145.44 
L 81.768342 121.755341 
L 80.094342 121.755341 
z
" style="fill:#0000ff;"/>
   </g>
   <g id="patch_121">
    <path clip-path="url(#p33fdd9e62e)" d="M 80.668029 145.44 
L 82.342029 145.44 
L 82.342029 128.21042 
L 80.668029 128.21042 
z
" style="fill:#0000ff;"/>
   </g>
   <g id="patch_122">
    <path clip-path="url(#p33fdd9e62e)" d="M 81.175508 145.44 
L 82.849508 145.44 
L 82.849508 129.846243 
L 81.175508 129.846243 
z
" style="fill:#0000ff;"/>
   </g>
   <g id="patch_123">
    <path clip-path="url(#p33fdd9e62e)" d="M 145.325196 145.44 
L 146.999196 145.44 
L 146.999196 139.257148 
L 145.325196 139.257148 
z
" style="fill:#0000ff;"/>
   </g>
   <g id="patch_124">
    <path clip-path="url(#p33fdd9e62e)" d="M 145.41243 145.44 
L 147.08643 145.44 
L 147.08643 132.921375 
L 145.41243 132.921375 
z
" style="fill:#0000ff;"/>
   </g>
   <g id="patch_125">
    <path clip-path="url(#p33fdd9e62e)" d="M 147.298983 145.44 
L 148.972983 145.44 
L 148.972983 140.278715 
L 147.298983 140.278715 
z
" style="fill:#0000ff;"/>
   </g>
   <g id="patch_126">
    <path clip-path="url(#p33fdd9e62e)" d="M 147.303827 145.44 
L 148.977827 145.44 
L 148.977827 144.388706 
L 147.303827 144.388706 
z
" style="fill:#0000ff;"/>
   </g>
   <g id="patch_127">
    <path clip-path="url(#p33fdd9e62e)" d="M 147.797062 145.44 
L 149.471062 145.44 
L 149.471062 130.849537 
L 147.797062 130.849537 
z
" style="fill:#0000ff;"/>
   </g>
   <g id="patch_128">
    <path clip-path="url(#p33fdd9e62e)" d="M 148.269899 145.44 
L 149.943899 145.44 
L 149.943899 139.29927 
L 148.269899 139.29927 
z
" style="fill:#0000ff;"/>
   </g>
   <g id="patch_129">
    <path clip-path="url(#p33fdd9e62e)" d="M 148.962202 145.44 
L 150.636202 145.44 
L 150.636202 138.16571 
L 148.962202 138.16571 
z
" style="fill:#0000ff;"/>
   </g>
   <g id="patch_130">
    <path clip-path="url(#p33fdd9e62e)" d="M 150.152015 145.44 
L 151.826015 145.44 
L 151.826015 145.199687 
L 150.152015 145.199687 
z
" style="fill:#0000ff;"/>
   </g>
   <g id="patch_131">
    <path clip-path="url(#p33fdd9e62e)" d="M 155.70656 145.44 
L 157.38056 145.44 
L 157.38056 143.724353 
L 155.70656 143.724353 
z
" style="fill:#0000ff;"/>
   </g>
   <g id="patch_132">
    <path clip-path="url(#p33fdd9e62e)" d="M 155.923762 145.44 
L 157.597762 145.44 
L 157.597762 143.646649 
L 155.923762 143.646649 
z
" style="fill:#0000ff;"/>
   </g>
   <g id="patch_133">
    <path clip-path="url(#p33fdd9e62e)" d="M 164.614099 145.44 
L 166.288099 145.44 
L 166.288099 109.952371 
L 164.614099 109.952371 
z
" style="fill:#0000ff;"/>
   </g>
   <g id="patch_134">
    <path clip-path="url(#p33fdd9e62e)" d="M 165.236795 145.44 
L 166.910795 145.44 
L 166.910795 111.801855 
L 165.236795 111.801855 
z
" style="fill:#0000ff;"/>
   </g>
   <g id="patch_135">
    <path clip-path="url(#p33fdd9e62e)" d="M 165.826887 145.44 
L 167.500887 145.44 
L 167.500887 112.553794 
L 165.826887 112.553794 
z
" style="fill:#0000ff;"/>
   </g>
   <g id="patch_136">
    <path clip-path="url(#p33fdd9e62e)" d="M 285.196726 145.44 
L 286.870726 145.44 
L 286.870726 144.965734 
L 285.196726 144.965734 
z
" style="fill:#0000ff;"/>
   </g>
   <g id="patch_137">
    <path clip-path="url(#p33fdd9e62e)" d="M 285.753512 145.44 
L 287.427512 145.44 
L 287.427512 145.084275 
L 285.753512 145.084275 
z
" style="fill:#0000ff;"/>
   </g>
   <g id="patch_138">
    <path clip-path="url(#p33fdd9e62e)" d="M 286.854156 145.44 
L 288.528156 145.44 
L 288.528156 142.833579 
L 286.854156 142.833579 
z
" style="fill:#0000ff;"/>
   </g>
   <g id="patch_139">
    <path clip-path="url(#p33fdd9e62e)" d="M 289.484616 145.44 
L 291.158616 145.44 
L 291.158616 145.42651 
L 289.484616 145.42651 
z
" style="fill:#0000ff;"/>
   </g>
   <g id="patch_140">
    <path clip-path="url(#p33fdd9e62e)" d="M 369.853828 145.44 
L 371.527828 145.44 
L 371.527828 145.439715 
L 369.853828 145.439715 
z
" style="fill:#0000ff;"/>
   </g>
   <g id="patch_141">
    <path clip-path="url(#p33fdd9e62e)" d="M 145.323586 145.44 
L 146.997586 145.44 
L 146.997586 139.120615 
L 145.323586 139.120615 
z
" style="fill:#ff0000;"/>
   </g>
   <g id="patch_142">
    <path clip-path="url(#p33fdd9e62e)" d="M 145.41082 145.44 
L 147.08482 145.44 
L 147.08482 132.779963 
L 145.41082 132.779963 
z
" style="fill:#ff0000;"/>
   </g>
   <g id="patch_143">
    <path clip-path="url(#p33fdd9e62e)" d="M 147.298377 145.44 
L 148.972377 145.44 
L 148.972377 140.217887 
L 147.298377 140.217887 
z
" style="fill:#ff0000;"/>
   </g>
   <g id="patch_144">
    <path clip-path="url(#p33fdd9e62e)" d="M 147.303682 145.44 
L 148.977682 145.44 
L 148.977682 144.391587 
L 147.303682 144.391587 
z
" style="fill:#ff0000;"/>
   </g>
   <g id="patch_145">
    <path clip-path="url(#p33fdd9e62e)" d="M 147.795678 145.44 
L 149.469678 145.44 
L 149.469678 130.588578 
L 147.795678 130.588578 
z
" style="fill:#ff0000;"/>
   </g>
   <g id="patch_146">
    <path clip-path="url(#p33fdd9e62e)" d="M 148.26875 145.44 
L 149.94275 145.44 
L 149.94275 139.220919 
L 148.26875 139.220919 
z
" style="fill:#ff0000;"/>
   </g>
   <g id="patch_147">
    <path clip-path="url(#p33fdd9e62e)" d="M 148.961301 145.44 
L 150.635301 145.44 
L 150.635301 138.06762 
L 148.961301 138.06762 
z
" style="fill:#ff0000;"/>
   </g>
   <g id="patch_148">
    <path clip-path="url(#p33fdd9e62e)" d="M 150.149274 145.44 
L 151.823274 145.44 
L 151.823274 145.176829 
L 150.149274 145.176829 
z
" style="fill:#ff0000;"/>
   </g>
   <g id="patch_149">
    <path clip-path="url(#p33fdd9e62e)" d="M 155.706303 145.44 
L 157.380303 145.44 
L 157.380303 143.715287 
L 155.706303 143.715287 
z
" style="fill:#ff0000;"/>
   </g>
   <g id="patch_150">
    <path clip-path="url(#p33fdd9e62e)" d="M 155.923476 145.44 
L 157.597476 145.44 
L 157.597476 143.641487 
L 155.923476 143.641487 
z
" style="fill:#ff0000;"/>
   </g>
   <g id="matplotlib.axis_3">
    <g id="xtick_10">
     <g id="line2d_15">
      <g>
       <use style="stroke:#000000;stroke-width:0.8;" x="54" xlink:href="#m805a4cc99f" y="145.44"/>
      </g>
     </g>
    </g>
    <g id="xtick_11">
     <g id="line2d_16">
      <g>
       <use style="stroke:#000000;stroke-width:0.8;" x="95.85" xlink:href="#m805a4cc99f" y="145.44"/>
      </g>
     </g>
    </g>
    <g id="xtick_12">
     <g id="line2d_17">
      <g>
       <use style="stroke:#000000;stroke-width:0.8;" x="137.7" xlink:href="#m805a4cc99f" y="145.44"/>
      </g>
     </g>
    </g>
    <g id="xtick_13">
     <g id="line2d_18">
      <g>
       <use style="stroke:#000000;stroke-width:0.8;" x="179.55" xlink:href="#m805a4cc99f" y="145.44"/>
      </g>
     </g>
    </g>
    <g id="xtick_14">
     <g id="line2d_19">
      <g>
       <use style="stroke:#000000;stroke-width:0.8;" x="221.4" xlink:href="#m805a4cc99f" y="145.44"/>
      </g>
     </g>
    </g>
    <g id="xtick_15">
     <g id="line2d_20">
      <g>
       <use style="stroke:#000000;stroke-width:0.8;" x="263.25" xlink:href="#m805a4cc99f" y="145.44"/>
      </g>
     </g>
    </g>
    <g id="xtick_16">
     <g id="line2d_21">
      <g>
       <use style="stroke:#000000;stroke-width:0.8;" x="305.1" xlink:href="#m805a4cc99f" y="145.44"/>
      </g>
     </g>
    </g>
    <g id="xtick_17">
     <g id="line2d_22">
      <g>
       <use style="stroke:#000000;stroke-width:0.8;" x="346.95" xlink:href="#m805a4cc99f" y="145.44"/>
      </g>
     </g>
    </g>
    <g id="xtick_18">
     <g id="line2d_23">
      <g>
       <use style="stroke:#000000;stroke-width:0.8;" x="388.8" xlink:href="#m805a4cc99f" y="145.44"/>
      </g>
     </g>
    </g>
   </g>
   <g id="matplotlib.axis_4">
    <g id="ytick_6">
     <g id="line2d_24">
      <g>
       <use style="stroke:#000000;stroke-width:0.8;" x="54" xlink:href="#ma00f43cbb3" y="123.264"/>
      </g>
     </g>
    </g>
    <g id="ytick_7">
     <g id="line2d_25">
      <g>
       <use style="stroke:#000000;stroke-width:0.8;" x="54" xlink:href="#ma00f43cbb3" y="101.088"/>
      </g>
     </g>
    </g>
    <g id="ytick_8">
     <g id="line2d_26">
      <g>
       <use style="stroke:#000000;stroke-width:0.8;" x="54" xlink:href="#ma00f43cbb3" y="78.912"/>
      </g>
     </g>
    </g>
    <g id="ytick_9">
     <g id="line2d_27">
      <g>
       <use style="stroke:#000000;stroke-width:0.8;" x="54" xlink:href="#ma00f43cbb3" y="56.736"/>
      </g>
     </g>
    </g>
    <g id="ytick_10">
     <g id="line2d_28">
      <g>
       <use style="stroke:#000000;stroke-width:0.8;" x="54" xlink:href="#ma00f43cbb3" y="34.56"/>
      </g>
     </g>
    </g>
   </g>
   <g id="patch_151">
    <path d="M 54 145.44 
L 54 34.56 
" style="fill:none;stroke:#000000;stroke-linecap:square;stroke-linejoin:miter;stroke-width:0.8;"/>
   </g>
   <g id="patch_152">
    <path d="M 388.8 145.44 
L 388.8 34.56 
" style="fill:none;stroke:#000000;stroke-linecap:square;stroke-linejoin:miter;stroke-width:0.8;"/>
   </g>
   <g id="patch_153">
    <path d="M 54 145.44 
L 388.8 145.44 
" style="fill:none;stroke:#000000;stroke-linecap:square;stroke-linejoin:miter;stroke-width:0.8;"/>
   </g>
   <g id="patch_154">
    <path d="M 54 34.56 
L 388.8 34.56 
" style="fill:none;stroke:#000000;stroke-linecap:square;stroke-linejoin:miter;stroke-width:0.8;"/>
   </g>
   <g id="legend_2">
    <g id="patch_155">
     <path d="M 262.76875 64.445 
L 383.2 64.445 
Q 384.8 64.445 384.8 62.845 
L 384.8 40.16 
Q 384.8 38.56 383.2 38.56 
L 262.76875 38.56 
Q 261.16875 38.56 261.16875 40.16 
L 261.16875 62.845 
Q 261.16875 64.445 262.76875 64.445 
z
" style="fill:#ffffff;opacity:0.8;stroke:#cccccc;stroke-linejoin:miter;"/>
    </g>
    <g id="patch_156">
     <path d="M 264.36875 47.83875 
L 280.36875 47.83875 
L 280.36875 42.23875 
L 264.36875 42.23875 
z
" style="fill:#0000ff;"/>
    </g>
    <g id="text_13">
     <!-- ADC(1)         [70 states] -->
     <g transform="translate(286.76875 47.83875)scale(0.08 -0.08)">
      <use xlink:href="#DejaVuSans-65"/>
      <use x="68.408203" xlink:href="#DejaVuSans-68"/>
      <use x="145.410156" xlink:href="#DejaVuSans-67"/>
      <use x="215.234375" xlink:href="#DejaVuSans-40"/>
      <use x="254.248047" xlink:href="#DejaVuSans-49"/>
      <use x="317.871094" xlink:href="#DejaVuSans-41"/>
      <use x="356.884766" xlink:href="#DejaVuSans-32"/>
      <use x="388.671875" xlink:href="#DejaVuSans-32"/>
      <use x="420.458984" xlink:href="#DejaVuSans-32"/>
      <use x="452.246094" xlink:href="#DejaVuSans-32"/>
      <use x="484.033203" xlink:href="#DejaVuSans-32"/>
      <use x="515.820312" xlink:href="#DejaVuSans-32"/>
      <use x="547.607422" xlink:href="#DejaVuSans-32"/>
      <use x="579.394531" xlink:href="#DejaVuSans-32"/>
      <use x="611.181641" xlink:href="#DejaVuSans-32"/>
      <use x="642.96875" xlink:href="#DejaVuSans-91"/>
      <use x="681.982422" xlink:href="#DejaVuSans-55"/>
      <use x="745.605469" xlink:href="#DejaVuSans-48"/>
      <use x="809.228516" xlink:href="#DejaVuSans-32"/>
      <use x="841.015625" xlink:href="#DejaVuSans-115"/>
      <use x="893.115234" xlink:href="#DejaVuSans-116"/>
      <use x="932.324219" xlink:href="#DejaVuSans-97"/>
      <use x="993.603516" xlink:href="#DejaVuSans-116"/>
      <use x="1032.8125" xlink:href="#DejaVuSans-101"/>
      <use x="1094.335938" xlink:href="#DejaVuSans-115"/>
      <use x="1146.435547" xlink:href="#DejaVuSans-93"/>
     </g>
    </g>
    <g id="patch_157">
     <path d="M 264.36875 59.58125 
L 280.36875 59.58125 
L 280.36875 53.98125 
L 264.36875 53.98125 
z
" style="fill:#ff0000;"/>
    </g>
    <g id="text_14">
     <!-- CVS-ADC(1) [10 states] -->
     <g transform="translate(286.76875 59.58125)scale(0.08 -0.08)">
      <use xlink:href="#DejaVuSans-67"/>
      <use x="69.824219" xlink:href="#DejaVuSans-86"/>
      <use x="138.232422" xlink:href="#DejaVuSans-83"/>
      <use x="201.708984" xlink:href="#DejaVuSans-45"/>
      <use x="235.542969" xlink:href="#DejaVuSans-65"/>
      <use x="303.951172" xlink:href="#DejaVuSans-68"/>
      <use x="380.953125" xlink:href="#DejaVuSans-67"/>
      <use x="450.777344" xlink:href="#DejaVuSans-40"/>
      <use x="489.791016" xlink:href="#DejaVuSans-49"/>
      <use x="553.414062" xlink:href="#DejaVuSans-41"/>
      <use x="592.427734" xlink:href="#DejaVuSans-32"/>
      <use x="624.214844" xlink:href="#DejaVuSans-91"/>
      <use x="663.228516" xlink:href="#DejaVuSans-49"/>
      <use x="726.851562" xlink:href="#DejaVuSans-48"/>
      <use x="790.474609" xlink:href="#DejaVuSans-32"/>
      <use x="822.261719" xlink:href="#DejaVuSans-115"/>
      <use x="874.361328" xlink:href="#DejaVuSans-116"/>
      <use x="913.570312" xlink:href="#DejaVuSans-97"/>
      <use x="974.849609" xlink:href="#DejaVuSans-116"/>
      <use x="1014.058594" xlink:href="#DejaVuSans-101"/>
      <use x="1075.582031" xlink:href="#DejaVuSans-115"/>
      <use x="1127.681641" xlink:href="#DejaVuSans-93"/>
     </g>
    </g>
   </g>
  </g>
 </g>
 <defs>
  <clipPath id="pb5c5e69525">
   <rect height="110.88" width="334.8" x="54" y="145.44"/>
  </clipPath>
  <clipPath id="p33fdd9e62e">
   <rect height="110.88" width="334.8" x="54" y="34.56"/>
  </clipPath>
 </defs>
</svg>
