<?xml version="1.0" encoding="utf-8" standalone="no"?>
<!DOCTYPE svg PUBLIC "-//W3C//DTD SVG 1.1//EN"
  "http://www.w3.org/Graphics/SVG/1.1/DTD/svg11.dtd">
<!-- Created with matplotlib (https://matplotlib.org/) -->
<svg height="432pt" version="1.1" viewBox="0 0 720 432" width="720pt" xmlns="http://www.w3.org/2000/svg" xmlns:xlink="http://www.w3.org/1999/xlink">
 <metadata>
  <rdf:RDF xmlns:cc="http://creativecommons.org/ns#" xmlns:dc="http://purl.org/dc/elements/1.1/" xmlns:rdf="http://www.w3.org/1999/02/22-rdf-syntax-ns#">
   <cc:Work>
    <dc:type rdf:resource="http://purl.org/dc/dcmitype/StillImage"/>
    <dc:date>2021-09-21T16:42:27.011017</dc:date>
    <dc:format>image/svg+xml</dc:format>
    <dc:creator>
     <cc:Agent>
      <dc:title>Matplotlib v3.3.2, https://matplotlib.org/</dc:title>
     </cc:Agent>
    </dc:creator>
   </cc:Work>
  </rdf:RDF>
 </metadata>
 <defs>
  <style type="text/css">*{stroke-linecap:butt;stroke-linejoin:round;}</style>
 </defs>
 <g id="figure_1">
  <g id="patch_1">
   <path d="M 0 432 
L 720 432 
L 720 0 
L 0 0 
z
" style="fill:none;"/>
  </g>
  <g id="axes_1">
   <g id="patch_2">
    <path d="M 53.6 179.6 
L 347.4125 179.6 
L 347.4125 28.8 
L 53.6 28.8 
z
" style="fill:#ffffff;"/>
   </g>
   <g id="matplotlib.axis_1">
    <g id="xtick_1">
     <g id="line2d_1">
      <defs>
       <path d="M 0 0 
L 0 3.5 
" id="m944e019911" style="stroke:#000000;stroke-width:0.8;"/>
      </defs>
      <g>
       <use style="stroke:#000000;stroke-width:0.8;" x="53.6" xlink:href="#m944e019911" y="179.6"/>
      </g>
     </g>
     <g id="text_1">
      <!-- 0.0 -->
      <g transform="translate(45.648437 194.198437)scale(0.1 -0.1)">
       <defs>
        <path d="M 31.78125 66.40625 
Q 24.171875 66.40625 20.328125 58.90625 
Q 16.5 51.421875 16.5 36.375 
Q 16.5 21.390625 20.328125 13.890625 
Q 24.171875 6.390625 31.78125 6.390625 
Q 39.453125 6.390625 43.28125 13.890625 
Q 47.125 21.390625 47.125 36.375 
Q 47.125 51.421875 43.28125 58.90625 
Q 39.453125 66.40625 31.78125 66.40625 
z
M 31.78125 74.21875 
Q 44.046875 74.21875 50.515625 64.515625 
Q 56.984375 54.828125 56.984375 36.375 
Q 56.984375 17.96875 50.515625 8.265625 
Q 44.046875 -1.421875 31.78125 -1.421875 
Q 19.53125 -1.421875 13.0625 8.265625 
Q 6.59375 17.96875 6.59375 36.375 
Q 6.59375 54.828125 13.0625 64.515625 
Q 19.53125 74.21875 31.78125 74.21875 
z
" id="DejaVuSans-48"/>
        <path d="M 10.6875 12.40625 
L 21 12.40625 
L 21 0 
L 10.6875 0 
z
" id="DejaVuSans-46"/>
       </defs>
       <use xlink:href="#DejaVuSans-48"/>
       <use x="63.623047" xlink:href="#DejaVuSans-46"/>
       <use x="95.410156" xlink:href="#DejaVuSans-48"/>
      </g>
     </g>
    </g>
    <g id="xtick_2">
     <g id="line2d_2">
      <g>
       <use style="stroke:#000000;stroke-width:0.8;" x="92.775" xlink:href="#m944e019911" y="179.6"/>
      </g>
     </g>
     <g id="text_2">
      <!-- 0.1 -->
      <g transform="translate(84.823438 194.198437)scale(0.1 -0.1)">
       <defs>
        <path d="M 12.40625 8.296875 
L 28.515625 8.296875 
L 28.515625 63.921875 
L 10.984375 60.40625 
L 10.984375 69.390625 
L 28.421875 72.90625 
L 38.28125 72.90625 
L 38.28125 8.296875 
L 54.390625 8.296875 
L 54.390625 0 
L 12.40625 0 
z
" id="DejaVuSans-49"/>
       </defs>
       <use xlink:href="#DejaVuSans-48"/>
       <use x="63.623047" xlink:href="#DejaVuSans-46"/>
       <use x="95.410156" xlink:href="#DejaVuSans-49"/>
      </g>
     </g>
    </g>
    <g id="xtick_3">
     <g id="line2d_3">
      <g>
       <use style="stroke:#000000;stroke-width:0.8;" x="131.95" xlink:href="#m944e019911" y="179.6"/>
      </g>
     </g>
     <g id="text_3">
      <!-- 0.2 -->
      <g transform="translate(123.998437 194.198437)scale(0.1 -0.1)">
       <defs>
        <path d="M 19.1875 8.296875 
L 53.609375 8.296875 
L 53.609375 0 
L 7.328125 0 
L 7.328125 8.296875 
Q 12.9375 14.109375 22.625 23.890625 
Q 32.328125 33.6875 34.8125 36.53125 
Q 39.546875 41.84375 41.421875 45.53125 
Q 43.3125 49.21875 43.3125 52.78125 
Q 43.3125 58.59375 39.234375 62.25 
Q 35.15625 65.921875 28.609375 65.921875 
Q 23.96875 65.921875 18.8125 64.3125 
Q 13.671875 62.703125 7.8125 59.421875 
L 7.8125 69.390625 
Q 13.765625 71.78125 18.9375 73 
Q 24.125 74.21875 28.421875 74.21875 
Q 39.75 74.21875 46.484375 68.546875 
Q 53.21875 62.890625 53.21875 53.421875 
Q 53.21875 48.921875 51.53125 44.890625 
Q 49.859375 40.875 45.40625 35.40625 
Q 44.1875 33.984375 37.640625 27.21875 
Q 31.109375 20.453125 19.1875 8.296875 
z
" id="DejaVuSans-50"/>
       </defs>
       <use xlink:href="#DejaVuSans-48"/>
       <use x="63.623047" xlink:href="#DejaVuSans-46"/>
       <use x="95.410156" xlink:href="#DejaVuSans-50"/>
      </g>
     </g>
    </g>
    <g id="xtick_4">
     <g id="line2d_4">
      <g>
       <use style="stroke:#000000;stroke-width:0.8;" x="171.125" xlink:href="#m944e019911" y="179.6"/>
      </g>
     </g>
     <g id="text_4">
      <!-- 0.3 -->
      <g transform="translate(163.173438 194.198437)scale(0.1 -0.1)">
       <defs>
        <path d="M 40.578125 39.3125 
Q 47.65625 37.796875 51.625 33 
Q 55.609375 28.21875 55.609375 21.1875 
Q 55.609375 10.40625 48.1875 4.484375 
Q 40.765625 -1.421875 27.09375 -1.421875 
Q 22.515625 -1.421875 17.65625 -0.515625 
Q 12.796875 0.390625 7.625 2.203125 
L 7.625 11.71875 
Q 11.71875 9.328125 16.59375 8.109375 
Q 21.484375 6.890625 26.8125 6.890625 
Q 36.078125 6.890625 40.9375 10.546875 
Q 45.796875 14.203125 45.796875 21.1875 
Q 45.796875 27.640625 41.28125 31.265625 
Q 36.765625 34.90625 28.71875 34.90625 
L 20.21875 34.90625 
L 20.21875 43.015625 
L 29.109375 43.015625 
Q 36.375 43.015625 40.234375 45.921875 
Q 44.09375 48.828125 44.09375 54.296875 
Q 44.09375 59.90625 40.109375 62.90625 
Q 36.140625 65.921875 28.71875 65.921875 
Q 24.65625 65.921875 20.015625 65.03125 
Q 15.375 64.15625 9.8125 62.3125 
L 9.8125 71.09375 
Q 15.4375 72.65625 20.34375 73.4375 
Q 25.25 74.21875 29.59375 74.21875 
Q 40.828125 74.21875 47.359375 69.109375 
Q 53.90625 64.015625 53.90625 55.328125 
Q 53.90625 49.265625 50.4375 45.09375 
Q 46.96875 40.921875 40.578125 39.3125 
z
" id="DejaVuSans-51"/>
       </defs>
       <use xlink:href="#DejaVuSans-48"/>
       <use x="63.623047" xlink:href="#DejaVuSans-46"/>
       <use x="95.410156" xlink:href="#DejaVuSans-51"/>
      </g>
     </g>
    </g>
    <g id="xtick_5">
     <g id="line2d_5">
      <g>
       <use style="stroke:#000000;stroke-width:0.8;" x="210.3" xlink:href="#m944e019911" y="179.6"/>
      </g>
     </g>
     <g id="text_5">
      <!-- 0.4 -->
      <g transform="translate(202.348438 194.198437)scale(0.1 -0.1)">
       <defs>
        <path d="M 37.796875 64.3125 
L 12.890625 25.390625 
L 37.796875 25.390625 
z
M 35.203125 72.90625 
L 47.609375 72.90625 
L 47.609375 25.390625 
L 58.015625 25.390625 
L 58.015625 17.1875 
L 47.609375 17.1875 
L 47.609375 0 
L 37.796875 0 
L 37.796875 17.1875 
L 4.890625 17.1875 
L 4.890625 26.703125 
z
" id="DejaVuSans-52"/>
       </defs>
       <use xlink:href="#DejaVuSans-48"/>
       <use x="63.623047" xlink:href="#DejaVuSans-46"/>
       <use x="95.410156" xlink:href="#DejaVuSans-52"/>
      </g>
     </g>
    </g>
    <g id="xtick_6">
     <g id="line2d_6">
      <g>
       <use style="stroke:#000000;stroke-width:0.8;" x="249.475" xlink:href="#m944e019911" y="179.6"/>
      </g>
     </g>
     <g id="text_6">
      <!-- 0.5 -->
      <g transform="translate(241.523438 194.198437)scale(0.1 -0.1)">
       <defs>
        <path d="M 10.796875 72.90625 
L 49.515625 72.90625 
L 49.515625 64.59375 
L 19.828125 64.59375 
L 19.828125 46.734375 
Q 21.96875 47.46875 24.109375 47.828125 
Q 26.265625 48.1875 28.421875 48.1875 
Q 40.625 48.1875 47.75 41.5 
Q 54.890625 34.8125 54.890625 23.390625 
Q 54.890625 11.625 47.5625 5.09375 
Q 40.234375 -1.421875 26.90625 -1.421875 
Q 22.3125 -1.421875 17.546875 -0.640625 
Q 12.796875 0.140625 7.71875 1.703125 
L 7.71875 11.625 
Q 12.109375 9.234375 16.796875 8.0625 
Q 21.484375 6.890625 26.703125 6.890625 
Q 35.15625 6.890625 40.078125 11.328125 
Q 45.015625 15.765625 45.015625 23.390625 
Q 45.015625 31 40.078125 35.4375 
Q 35.15625 39.890625 26.703125 39.890625 
Q 22.75 39.890625 18.8125 39.015625 
Q 14.890625 38.140625 10.796875 36.28125 
z
" id="DejaVuSans-53"/>
       </defs>
       <use xlink:href="#DejaVuSans-48"/>
       <use x="63.623047" xlink:href="#DejaVuSans-46"/>
       <use x="95.410156" xlink:href="#DejaVuSans-53"/>
      </g>
     </g>
    </g>
    <g id="xtick_7">
     <g id="line2d_7">
      <g>
       <use style="stroke:#000000;stroke-width:0.8;" x="288.65" xlink:href="#m944e019911" y="179.6"/>
      </g>
     </g>
     <g id="text_7">
      <!-- 0.6 -->
      <g transform="translate(280.698438 194.198437)scale(0.1 -0.1)">
       <defs>
        <path d="M 33.015625 40.375 
Q 26.375 40.375 22.484375 35.828125 
Q 18.609375 31.296875 18.609375 23.390625 
Q 18.609375 15.53125 22.484375 10.953125 
Q 26.375 6.390625 33.015625 6.390625 
Q 39.65625 6.390625 43.53125 10.953125 
Q 47.40625 15.53125 47.40625 23.390625 
Q 47.40625 31.296875 43.53125 35.828125 
Q 39.65625 40.375 33.015625 40.375 
z
M 52.59375 71.296875 
L 52.59375 62.3125 
Q 48.875 64.0625 45.09375 64.984375 
Q 41.3125 65.921875 37.59375 65.921875 
Q 27.828125 65.921875 22.671875 59.328125 
Q 17.53125 52.734375 16.796875 39.40625 
Q 19.671875 43.65625 24.015625 45.921875 
Q 28.375 48.1875 33.59375 48.1875 
Q 44.578125 48.1875 50.953125 41.515625 
Q 57.328125 34.859375 57.328125 23.390625 
Q 57.328125 12.15625 50.6875 5.359375 
Q 44.046875 -1.421875 33.015625 -1.421875 
Q 20.359375 -1.421875 13.671875 8.265625 
Q 6.984375 17.96875 6.984375 36.375 
Q 6.984375 53.65625 15.1875 63.9375 
Q 23.390625 74.21875 37.203125 74.21875 
Q 40.921875 74.21875 44.703125 73.484375 
Q 48.484375 72.75 52.59375 71.296875 
z
" id="DejaVuSans-54"/>
       </defs>
       <use xlink:href="#DejaVuSans-48"/>
       <use x="63.623047" xlink:href="#DejaVuSans-46"/>
       <use x="95.410156" xlink:href="#DejaVuSans-54"/>
      </g>
     </g>
    </g>
    <g id="xtick_8">
     <g id="line2d_8">
      <g>
       <use style="stroke:#000000;stroke-width:0.8;" x="327.825" xlink:href="#m944e019911" y="179.6"/>
      </g>
     </g>
     <g id="text_8">
      <!-- 0.7 -->
      <g transform="translate(319.873438 194.198437)scale(0.1 -0.1)">
       <defs>
        <path d="M 8.203125 72.90625 
L 55.078125 72.90625 
L 55.078125 68.703125 
L 28.609375 0 
L 18.3125 0 
L 43.21875 64.59375 
L 8.203125 64.59375 
z
" id="DejaVuSans-55"/>
       </defs>
       <use xlink:href="#DejaVuSans-48"/>
       <use x="63.623047" xlink:href="#DejaVuSans-46"/>
       <use x="95.410156" xlink:href="#DejaVuSans-55"/>
      </g>
     </g>
    </g>
    <g id="text_9">
     <!-- Radius [a.u.] -->
     <g transform="translate(168.842187 207.876562)scale(0.1 -0.1)">
      <defs>
       <path d="M 44.390625 34.1875 
Q 47.5625 33.109375 50.5625 29.59375 
Q 53.5625 26.078125 56.59375 19.921875 
L 66.609375 0 
L 56 0 
L 46.6875 18.703125 
Q 43.0625 26.03125 39.671875 28.421875 
Q 36.28125 30.8125 30.421875 30.8125 
L 19.671875 30.8125 
L 19.671875 0 
L 9.8125 0 
L 9.8125 72.90625 
L 32.078125 72.90625 
Q 44.578125 72.90625 50.734375 67.671875 
Q 56.890625 62.453125 56.890625 51.90625 
Q 56.890625 45.015625 53.6875 40.46875 
Q 50.484375 35.9375 44.390625 34.1875 
z
M 19.671875 64.796875 
L 19.671875 38.921875 
L 32.078125 38.921875 
Q 39.203125 38.921875 42.84375 42.21875 
Q 46.484375 45.515625 46.484375 51.90625 
Q 46.484375 58.296875 42.84375 61.546875 
Q 39.203125 64.796875 32.078125 64.796875 
z
" id="DejaVuSans-82"/>
       <path d="M 34.28125 27.484375 
Q 23.390625 27.484375 19.1875 25 
Q 14.984375 22.515625 14.984375 16.5 
Q 14.984375 11.71875 18.140625 8.90625 
Q 21.296875 6.109375 26.703125 6.109375 
Q 34.1875 6.109375 38.703125 11.40625 
Q 43.21875 16.703125 43.21875 25.484375 
L 43.21875 27.484375 
z
M 52.203125 31.203125 
L 52.203125 0 
L 43.21875 0 
L 43.21875 8.296875 
Q 40.140625 3.328125 35.546875 0.953125 
Q 30.953125 -1.421875 24.3125 -1.421875 
Q 15.921875 -1.421875 10.953125 3.296875 
Q 6 8.015625 6 15.921875 
Q 6 25.140625 12.171875 29.828125 
Q 18.359375 34.515625 30.609375 34.515625 
L 43.21875 34.515625 
L 43.21875 35.40625 
Q 43.21875 41.609375 39.140625 45 
Q 35.0625 48.390625 27.6875 48.390625 
Q 23 48.390625 18.546875 47.265625 
Q 14.109375 46.140625 10.015625 43.890625 
L 10.015625 52.203125 
Q 14.9375 54.109375 19.578125 55.046875 
Q 24.21875 56 28.609375 56 
Q 40.484375 56 46.34375 49.84375 
Q 52.203125 43.703125 52.203125 31.203125 
z
" id="DejaVuSans-97"/>
       <path d="M 45.40625 46.390625 
L 45.40625 75.984375 
L 54.390625 75.984375 
L 54.390625 0 
L 45.40625 0 
L 45.40625 8.203125 
Q 42.578125 3.328125 38.25 0.953125 
Q 33.9375 -1.421875 27.875 -1.421875 
Q 17.96875 -1.421875 11.734375 6.484375 
Q 5.515625 14.40625 5.515625 27.296875 
Q 5.515625 40.1875 11.734375 48.09375 
Q 17.96875 56 27.875 56 
Q 33.9375 56 38.25 53.625 
Q 42.578125 51.265625 45.40625 46.390625 
z
M 14.796875 27.296875 
Q 14.796875 17.390625 18.875 11.75 
Q 22.953125 6.109375 30.078125 6.109375 
Q 37.203125 6.109375 41.296875 11.75 
Q 45.40625 17.390625 45.40625 27.296875 
Q 45.40625 37.203125 41.296875 42.84375 
Q 37.203125 48.484375 30.078125 48.484375 
Q 22.953125 48.484375 18.875 42.84375 
Q 14.796875 37.203125 14.796875 27.296875 
z
" id="DejaVuSans-100"/>
       <path d="M 9.421875 54.6875 
L 18.40625 54.6875 
L 18.40625 0 
L 9.421875 0 
z
M 9.421875 75.984375 
L 18.40625 75.984375 
L 18.40625 64.59375 
L 9.421875 64.59375 
z
" id="DejaVuSans-105"/>
       <path d="M 8.5 21.578125 
L 8.5 54.6875 
L 17.484375 54.6875 
L 17.484375 21.921875 
Q 17.484375 14.15625 20.5 10.265625 
Q 23.53125 6.390625 29.59375 6.390625 
Q 36.859375 6.390625 41.078125 11.03125 
Q 45.3125 15.671875 45.3125 23.6875 
L 45.3125 54.6875 
L 54.296875 54.6875 
L 54.296875 0 
L 45.3125 0 
L 45.3125 8.40625 
Q 42.046875 3.421875 37.71875 1 
Q 33.40625 -1.421875 27.6875 -1.421875 
Q 18.265625 -1.421875 13.375 4.4375 
Q 8.5 10.296875 8.5 21.578125 
z
M 31.109375 56 
z
" id="DejaVuSans-117"/>
       <path d="M 44.28125 53.078125 
L 44.28125 44.578125 
Q 40.484375 46.53125 36.375 47.5 
Q 32.28125 48.484375 27.875 48.484375 
Q 21.1875 48.484375 17.84375 46.4375 
Q 14.5 44.390625 14.5 40.28125 
Q 14.5 37.15625 16.890625 35.375 
Q 19.28125 33.59375 26.515625 31.984375 
L 29.59375 31.296875 
Q 39.15625 29.25 43.1875 25.515625 
Q 47.21875 21.78125 47.21875 15.09375 
Q 47.21875 7.46875 41.1875 3.015625 
Q 35.15625 -1.421875 24.609375 -1.421875 
Q 20.21875 -1.421875 15.453125 -0.5625 
Q 10.6875 0.296875 5.421875 2 
L 5.421875 11.28125 
Q 10.40625 8.6875 15.234375 7.390625 
Q 20.0625 6.109375 24.8125 6.109375 
Q 31.15625 6.109375 34.5625 8.28125 
Q 37.984375 10.453125 37.984375 14.40625 
Q 37.984375 18.0625 35.515625 20.015625 
Q 33.0625 21.96875 24.703125 23.78125 
L 21.578125 24.515625 
Q 13.234375 26.265625 9.515625 29.90625 
Q 5.8125 33.546875 5.8125 39.890625 
Q 5.8125 47.609375 11.28125 51.796875 
Q 16.75 56 26.8125 56 
Q 31.78125 56 36.171875 55.265625 
Q 40.578125 54.546875 44.28125 53.078125 
z
" id="DejaVuSans-115"/>
       <path id="DejaVuSans-32"/>
       <path d="M 8.59375 75.984375 
L 29.296875 75.984375 
L 29.296875 69 
L 17.578125 69 
L 17.578125 -6.203125 
L 29.296875 -6.203125 
L 29.296875 -13.1875 
L 8.59375 -13.1875 
z
" id="DejaVuSans-91"/>
       <path d="M 30.421875 75.984375 
L 30.421875 -13.1875 
L 9.71875 -13.1875 
L 9.71875 -6.203125 
L 21.390625 -6.203125 
L 21.390625 69 
L 9.71875 69 
L 9.71875 75.984375 
z
" id="DejaVuSans-93"/>
      </defs>
      <use xlink:href="#DejaVuSans-82"/>
      <use x="67.232422" xlink:href="#DejaVuSans-97"/>
      <use x="128.511719" xlink:href="#DejaVuSans-100"/>
      <use x="191.988281" xlink:href="#DejaVuSans-105"/>
      <use x="219.771484" xlink:href="#DejaVuSans-117"/>
      <use x="283.150391" xlink:href="#DejaVuSans-115"/>
      <use x="335.25" xlink:href="#DejaVuSans-32"/>
      <use x="367.037109" xlink:href="#DejaVuSans-91"/>
      <use x="406.050781" xlink:href="#DejaVuSans-97"/>
      <use x="467.330078" xlink:href="#DejaVuSans-46"/>
      <use x="499.117188" xlink:href="#DejaVuSans-117"/>
      <use x="562.496094" xlink:href="#DejaVuSans-46"/>
      <use x="594.283203" xlink:href="#DejaVuSans-93"/>
     </g>
    </g>
   </g>
   <g id="matplotlib.axis_2">
    <g id="ytick_1">
     <g id="line2d_9">
      <defs>
       <path d="M 0 0 
L -3.5 0 
" id="m5ea8df4581" style="stroke:#000000;stroke-width:0.8;"/>
      </defs>
      <g>
       <use style="stroke:#000000;stroke-width:0.8;" x="53.6" xlink:href="#m5ea8df4581" y="172.745455"/>
      </g>
     </g>
     <g id="text_10">
      <!-- 0.0 -->
      <g transform="translate(30.696875 176.544673)scale(0.1 -0.1)">
       <use xlink:href="#DejaVuSans-48"/>
       <use x="63.623047" xlink:href="#DejaVuSans-46"/>
       <use x="95.410156" xlink:href="#DejaVuSans-48"/>
      </g>
     </g>
    </g>
    <g id="ytick_2">
     <g id="line2d_10">
      <g>
       <use style="stroke:#000000;stroke-width:0.8;" x="53.6" xlink:href="#m5ea8df4581" y="135.34988"/>
      </g>
     </g>
     <g id="text_11">
      <!-- 0.1 -->
      <g transform="translate(30.696875 139.149099)scale(0.1 -0.1)">
       <use xlink:href="#DejaVuSans-48"/>
       <use x="63.623047" xlink:href="#DejaVuSans-46"/>
       <use x="95.410156" xlink:href="#DejaVuSans-49"/>
      </g>
     </g>
    </g>
    <g id="ytick_3">
     <g id="line2d_11">
      <g>
       <use style="stroke:#000000;stroke-width:0.8;" x="53.6" xlink:href="#m5ea8df4581" y="97.954306"/>
      </g>
     </g>
     <g id="text_12">
      <!-- 0.2 -->
      <g transform="translate(30.696875 101.753525)scale(0.1 -0.1)">
       <use xlink:href="#DejaVuSans-48"/>
       <use x="63.623047" xlink:href="#DejaVuSans-46"/>
       <use x="95.410156" xlink:href="#DejaVuSans-50"/>
      </g>
     </g>
    </g>
    <g id="ytick_4">
     <g id="line2d_12">
      <g>
       <use style="stroke:#000000;stroke-width:0.8;" x="53.6" xlink:href="#m5ea8df4581" y="60.558732"/>
      </g>
     </g>
     <g id="text_13">
      <!-- 0.3 -->
      <g transform="translate(30.696875 64.357951)scale(0.1 -0.1)">
       <use xlink:href="#DejaVuSans-48"/>
       <use x="63.623047" xlink:href="#DejaVuSans-46"/>
       <use x="95.410156" xlink:href="#DejaVuSans-51"/>
      </g>
     </g>
    </g>
    <g id="text_14">
     <!-- Density [$r^2 \rho$] -->
     <g transform="translate(24.596875 136.55)rotate(-90)scale(0.1 -0.1)">
      <defs>
       <path d="M 19.671875 64.796875 
L 19.671875 8.109375 
L 31.59375 8.109375 
Q 46.6875 8.109375 53.6875 14.9375 
Q 60.6875 21.78125 60.6875 36.53125 
Q 60.6875 51.171875 53.6875 57.984375 
Q 46.6875 64.796875 31.59375 64.796875 
z
M 9.8125 72.90625 
L 30.078125 72.90625 
Q 51.265625 72.90625 61.171875 64.09375 
Q 71.09375 55.28125 71.09375 36.53125 
Q 71.09375 17.671875 61.125 8.828125 
Q 51.171875 0 30.078125 0 
L 9.8125 0 
z
" id="DejaVuSans-68"/>
       <path d="M 56.203125 29.59375 
L 56.203125 25.203125 
L 14.890625 25.203125 
Q 15.484375 15.921875 20.484375 11.0625 
Q 25.484375 6.203125 34.421875 6.203125 
Q 39.59375 6.203125 44.453125 7.46875 
Q 49.3125 8.734375 54.109375 11.28125 
L 54.109375 2.78125 
Q 49.265625 0.734375 44.1875 -0.34375 
Q 39.109375 -1.421875 33.890625 -1.421875 
Q 20.796875 -1.421875 13.15625 6.1875 
Q 5.515625 13.8125 5.515625 26.8125 
Q 5.515625 40.234375 12.765625 48.109375 
Q 20.015625 56 32.328125 56 
Q 43.359375 56 49.78125 48.890625 
Q 56.203125 41.796875 56.203125 29.59375 
z
M 47.21875 32.234375 
Q 47.125 39.59375 43.09375 43.984375 
Q 39.0625 48.390625 32.421875 48.390625 
Q 24.90625 48.390625 20.390625 44.140625 
Q 15.875 39.890625 15.1875 32.171875 
z
" id="DejaVuSans-101"/>
       <path d="M 54.890625 33.015625 
L 54.890625 0 
L 45.90625 0 
L 45.90625 32.71875 
Q 45.90625 40.484375 42.875 44.328125 
Q 39.84375 48.1875 33.796875 48.1875 
Q 26.515625 48.1875 22.3125 43.546875 
Q 18.109375 38.921875 18.109375 30.90625 
L 18.109375 0 
L 9.078125 0 
L 9.078125 54.6875 
L 18.109375 54.6875 
L 18.109375 46.1875 
Q 21.34375 51.125 25.703125 53.5625 
Q 30.078125 56 35.796875 56 
Q 45.21875 56 50.046875 50.171875 
Q 54.890625 44.34375 54.890625 33.015625 
z
" id="DejaVuSans-110"/>
       <path d="M 18.3125 70.21875 
L 18.3125 54.6875 
L 36.8125 54.6875 
L 36.8125 47.703125 
L 18.3125 47.703125 
L 18.3125 18.015625 
Q 18.3125 11.328125 20.140625 9.421875 
Q 21.96875 7.515625 27.59375 7.515625 
L 36.8125 7.515625 
L 36.8125 0 
L 27.59375 0 
Q 17.1875 0 13.234375 3.875 
Q 9.28125 7.765625 9.28125 18.015625 
L 9.28125 47.703125 
L 2.6875 47.703125 
L 2.6875 54.6875 
L 9.28125 54.6875 
L 9.28125 70.21875 
z
" id="DejaVuSans-116"/>
       <path d="M 32.171875 -5.078125 
Q 28.375 -14.84375 24.75 -17.8125 
Q 21.140625 -20.796875 15.09375 -20.796875 
L 7.90625 -20.796875 
L 7.90625 -13.28125 
L 13.1875 -13.28125 
Q 16.890625 -13.28125 18.9375 -11.515625 
Q 21 -9.765625 23.484375 -3.21875 
L 25.09375 0.875 
L 2.984375 54.6875 
L 12.5 54.6875 
L 29.59375 11.921875 
L 46.6875 54.6875 
L 56.203125 54.6875 
z
" id="DejaVuSans-121"/>
       <path d="M 44.578125 46.390625 
Q 43.21875 47.125 41.453125 47.515625 
Q 39.703125 47.90625 37.703125 47.90625 
Q 30.515625 47.90625 25.140625 42.453125 
Q 19.78125 37.015625 18.015625 27.875 
L 12.5 0 
L 3.515625 0 
L 14.203125 54.6875 
L 23.1875 54.6875 
L 21.484375 46.1875 
Q 25.046875 50.921875 30 53.453125 
Q 34.96875 56 40.578125 56 
Q 42.046875 56 43.453125 55.828125 
Q 44.875 55.671875 46.296875 55.28125 
z
" id="DejaVuSans-Oblique-114"/>
       <path d="M 18.796875 44.921875 
Q 22.703125 49.90625 30.953125 54.296875 
Q 34.1875 56 43.0625 56 
Q 53.03125 56 57.71875 48.09375 
Q 62.40625 40.1875 59.90625 27.296875 
Q 57.375 14.40625 49.609375 6.484375 
Q 41.84375 -1.421875 31.890625 -1.421875 
Q 25.875 -1.421875 22.015625 0.984375 
Q 18.171875 3.328125 16.3125 8.203125 
L 10.640625 -20.796875 
L 1.609375 -20.796875 
L 10.890625 26.8125 
Q 13.09375 38.09375 18.796875 44.921875 
z
M 50.59375 27.296875 
Q 52.484375 37.203125 49.515625 42.875 
Q 46.53125 48.484375 39.40625 48.484375 
Q 32.28125 48.484375 27.09375 42.875 
Q 21.921875 37.203125 20.015625 27.296875 
Q 18.0625 17.390625 21.046875 11.71875 
Q 24.03125 6.109375 31.15625 6.109375 
Q 38.28125 6.109375 43.453125 11.71875 
Q 48.640625 17.390625 50.59375 27.296875 
z
" id="DejaVuSans-Oblique-961"/>
      </defs>
      <use transform="translate(0 0.765625)" xlink:href="#DejaVuSans-68"/>
      <use transform="translate(77.001953 0.765625)" xlink:href="#DejaVuSans-101"/>
      <use transform="translate(138.525391 0.765625)" xlink:href="#DejaVuSans-110"/>
      <use transform="translate(201.904297 0.765625)" xlink:href="#DejaVuSans-115"/>
      <use transform="translate(254.003906 0.765625)" xlink:href="#DejaVuSans-105"/>
      <use transform="translate(281.787109 0.765625)" xlink:href="#DejaVuSans-116"/>
      <use transform="translate(320.996094 0.765625)" xlink:href="#DejaVuSans-121"/>
      <use transform="translate(380.175781 0.765625)" xlink:href="#DejaVuSans-32"/>
      <use transform="translate(411.962891 0.765625)" xlink:href="#DejaVuSans-91"/>
      <use transform="translate(450.976562 0.765625)" xlink:href="#DejaVuSans-Oblique-114"/>
      <use transform="translate(496.73974 39.046875)scale(0.7)" xlink:href="#DejaVuSans-50"/>
      <use transform="translate(544.010247 0.765625)" xlink:href="#DejaVuSans-Oblique-961"/>
      <use transform="translate(607.48681 0.765625)" xlink:href="#DejaVuSans-93"/>
     </g>
    </g>
   </g>
   <g id="line2d_13">
    <path clip-path="url(#p831d5e52f4)" d="M 53.6 172.745455 
L 54.3835 172.538279 
L 55.167 171.927272 
L 55.9505 170.941295 
L 56.734 169.620592 
L 57.90925 167.105377 
L 59.0845 164.057952 
L 60.6515 159.3134 
L 62.61025 152.487869 
L 64.96075 143.380953 
L 74.7545 104.335593 
L 77.49675 94.523785 
L 80.239 85.563445 
L 82.5895 78.681533 
L 84.54825 73.564301 
L 86.507 69.030511 
L 88.46575 65.081363 
L 90.4245 61.702692 
L 91.9915 59.393867 
L 93.5585 57.418195 
L 95.1255 55.758392 
L 96.6925 54.396921 
L 98.2595 53.31672 
L 99.8265 52.501654 
L 101.3935 51.936724 
L 102.9605 51.608097 
L 104.5275 51.503017 
L 106.0945 51.609626 
L 107.6615 51.916755 
L 109.2285 52.413714 
L 111.18725 53.286007 
L 113.146 54.418517 
L 115.10475 55.79103 
L 117.45525 57.725971 
L 119.80575 59.940958 
L 122.548 62.830422 
L 125.682 66.464728 
L 129.5995 71.384069 
L 134.69225 78.175424 
L 151.92925 101.463712 
L 157.41375 108.351609 
L 162.5065 114.394699 
L 167.2075 119.650323 
L 171.9085 124.587237 
L 176.6095 129.202259 
L 181.3105 133.495652 
L 186.0115 137.470264 
L 190.7125 141.1313 
L 195.02175 144.218228 
L 199.72275 147.301576 
L 204.42375 150.100301 
L 209.12475 152.628822 
L 213.82575 154.903366 
L 218.52675 156.941493 
L 223.6195 158.903982 
L 228.71225 160.634264 
L 234.19675 162.264756 
L 240.073 163.774733 
L 246.341 165.15046 
L 253.00075 166.38497 
L 260.444 167.532256 
L 268.67075 168.565659 
L 277.681 169.470191 
L 287.8665 170.267719 
L 299.619 170.960476 
L 313.33025 171.539993 
L 329.78375 172.004605 
L 347.80425 172.318928 
L 347.80425 172.318928 
" style="fill:none;stroke:#1f77b4;stroke-linecap:square;stroke-width:1.5;"/>
   </g>
   <g id="line2d_14">
    <path clip-path="url(#p831d5e52f4)" d="M 53.6 172.745455 
L 54.3835 172.521256 
L 55.167 171.860065 
L 55.9505 170.793176 
L 56.734 169.364236 
L 57.90925 166.643371 
L 59.0845 163.347699 
L 60.6515 158.218832 
L 62.61025 150.845613 
L 64.96075 141.019207 
L 74.36275 100.691736 
L 77.105 90.147083 
L 79.4555 81.848287 
L 81.806 74.351102 
L 83.76475 68.778004 
L 85.7235 63.848906 
L 87.68225 59.570915 
L 89.24925 56.610258 
L 90.81625 54.046938 
L 92.38325 51.864488 
L 93.95025 50.04401 
L 95.51725 48.565529 
L 97.08425 47.409039 
L 98.65125 46.555211 
L 100.21825 45.985818 
L 101.78525 45.683901 
L 103.35225 45.633773 
L 104.91925 45.820887 
L 106.48625 46.231638 
L 108.05325 46.853141 
L 110.012 47.907539 
L 111.97075 49.248279 
L 113.9295 50.851989 
L 116.28 53.090546 
L 118.6305 55.633146 
L 121.37275 58.928874 
L 124.50675 63.050191 
L 128.42425 68.596648 
L 133.90875 76.798616 
L 146.44475 95.689888 
L 151.92925 103.478885 
L 156.63025 109.790164 
L 161.33125 115.730812 
L 165.6405 120.839203 
L 169.94975 125.622645 
L 174.259 130.083566 
L 178.56825 134.227222 
L 182.8775 138.060743 
L 187.18675 141.592737 
L 191.496 144.833181 
L 195.80525 147.79343 
L 200.1145 150.486198 
L 204.42375 152.925479 
L 208.733 155.12637 
L 213.434 157.2742 
L 218.135 159.178695 
L 223.22775 160.99238 
L 228.3205 162.572985 
L 233.805 164.044436 
L 239.68125 165.389351 
L 245.94925 166.597596 
L 253.00075 167.722548 
L 260.83575 168.734113 
L 269.45425 169.615596 
L 279.248 170.388975 
L 290.60875 171.056931 
L 303.92825 171.612409 
L 320.38175 172.064037 
L 341.1445 172.39636 
L 347.80425 172.465429 
L 347.80425 172.465429 
" style="fill:none;stroke:#ff7f0e;stroke-linecap:square;stroke-width:1.5;"/>
   </g>
   <g id="line2d_15">
    <path clip-path="url(#p831d5e52f4)" d="M 53.6 172.745455 
L 53.99175 172.670837 
L 54.3835 172.448225 
L 55.167 171.57552 
L 55.9505 170.178198 
L 56.734 168.323883 
L 57.90925 164.830557 
L 59.0845 160.63556 
L 60.6515 154.146427 
L 62.61025 144.918471 
L 65.74425 128.808032 
L 70.837 102.739108 
L 73.971 87.931075 
L 76.3215 77.777989 
L 78.672 68.635805 
L 80.63075 61.886283 
L 82.5895 55.972408 
L 84.1565 51.84872 
L 85.7235 48.254821 
L 87.2905 45.171706 
L 88.8575 42.574595 
L 90.4245 40.435773 
L 91.9915 38.726837 
L 93.5585 37.42023 
L 94.73375 36.688696 
L 95.909 36.15879 
L 97.08425 35.821065 
L 98.2595 35.666699 
L 99.43475 35.687412 
L 101.00175 35.973871 
L 102.56875 36.539973 
L 104.13575 37.368642 
L 105.70275 38.443073 
L 107.6615 40.106097 
L 109.62025 42.093615 
L 111.97075 44.859294 
L 114.32125 47.9842 
L 117.0635 52.004876 
L 120.58925 57.627131 
L 125.29025 65.628353 
L 140.96025 92.70238 
L 146.053 100.848689 
L 150.754 107.925846 
L 155.06325 114.015366 
L 159.3725 119.714595 
L 163.68175 125.02087 
L 167.59925 129.505014 
L 171.51675 133.669189 
L 175.43425 137.519026 
L 179.35175 141.062282 
L 183.26925 144.308865 
L 187.18675 147.270761 
L 191.10425 149.96184 
L 195.02175 152.397537 
L 199.331 154.801685 
L 203.64025 156.940037 
L 207.9495 158.836072 
L 212.6505 160.655375 
L 217.3515 162.242954 
L 222.44425 163.732934 
L 227.92875 165.105587 
L 233.805 166.348535 
L 240.46475 167.518801 
L 247.51625 168.53087 
L 255.35125 169.434509 
L 264.3615 170.246481 
L 274.547 170.93871 
L 286.69125 171.530807 
L 301.186 172.001089 
L 319.2065 172.349135 
L 343.495 172.579461 
L 347.80425 172.603198 
L 347.80425 172.603198 
" style="fill:none;stroke:#2ca02c;stroke-linecap:square;stroke-width:1.5;"/>
   </g>
   <g id="patch_3">
    <path d="M 53.6 179.6 
L 53.6 28.8 
" style="fill:none;stroke:#000000;stroke-linecap:square;stroke-linejoin:miter;stroke-width:0.8;"/>
   </g>
   <g id="patch_4">
    <path d="M 347.4125 179.6 
L 347.4125 28.8 
" style="fill:none;stroke:#000000;stroke-linecap:square;stroke-linejoin:miter;stroke-width:0.8;"/>
   </g>
   <g id="patch_5">
    <path d="M 53.6 179.6 
L 347.4125 179.6 
" style="fill:none;stroke:#000000;stroke-linecap:square;stroke-linejoin:miter;stroke-width:0.8;"/>
   </g>
   <g id="patch_6">
    <path d="M 53.6 28.8 
L 347.4125 28.8 
" style="fill:none;stroke:#000000;stroke-linecap:square;stroke-linejoin:miter;stroke-width:0.8;"/>
   </g>
   <g id="text_15">
    <!-- MO$_{\alpha 1}$ ($1a_1$) -->
    <g transform="translate(167.98625 22.8)scale(0.12 -0.12)">
     <defs>
      <path d="M 9.8125 72.90625 
L 24.515625 72.90625 
L 43.109375 23.296875 
L 61.8125 72.90625 
L 76.515625 72.90625 
L 76.515625 0 
L 66.890625 0 
L 66.890625 64.015625 
L 48.09375 14.015625 
L 38.1875 14.015625 
L 19.390625 64.015625 
L 19.390625 0 
L 9.8125 0 
z
" id="DejaVuSans-77"/>
      <path d="M 39.40625 66.21875 
Q 28.65625 66.21875 22.328125 58.203125 
Q 16.015625 50.203125 16.015625 36.375 
Q 16.015625 22.609375 22.328125 14.59375 
Q 28.65625 6.59375 39.40625 6.59375 
Q 50.140625 6.59375 56.421875 14.59375 
Q 62.703125 22.609375 62.703125 36.375 
Q 62.703125 50.203125 56.421875 58.203125 
Q 50.140625 66.21875 39.40625 66.21875 
z
M 39.40625 74.21875 
Q 54.734375 74.21875 63.90625 63.9375 
Q 73.09375 53.65625 73.09375 36.375 
Q 73.09375 19.140625 63.90625 8.859375 
Q 54.734375 -1.421875 39.40625 -1.421875 
Q 24.03125 -1.421875 14.8125 8.828125 
Q 5.609375 19.09375 5.609375 36.375 
Q 5.609375 53.65625 14.8125 63.9375 
Q 24.03125 74.21875 39.40625 74.21875 
z
" id="DejaVuSans-79"/>
      <path d="M 40.921875 25.4375 
L 40.96875 36.71875 
Q 41.015625 48.25 32.328125 48.296875 
Q 25.828125 48.34375 21.78125 42.921875 
Q 16.703125 36.234375 14.984375 27.296875 
Q 12.890625 16.546875 15.53125 11.421875 
Q 18.265625 6.203125 24.171875 6.203125 
Q 30.71875 6.203125 36.234375 16.609375 
z
M 33.84375 55.90625 
Q 49.078125 56.15625 48.875 40.375 
Q 48.875 40.375 56.5 54.6875 
L 64.5 54.6875 
L 48.734375 25.046875 
L 48.578125 14.359375 
Q 48.578125 11.96875 49.90625 9.96875 
Q 51.421875 7.625 52.984375 7.625 
L 57.328125 7.625 
L 55.859375 0 
L 50.4375 0 
Q 45.84375 0 42.53125 4.109375 
Q 40.96875 6.15625 40.921875 10.453125 
Q 37.75 5.21875 32.28125 0.78125 
Q 29.6875 -1.265625 22.703125 -1.21875 
Q 11.28125 -1.125 7.125 6.203125 
Q 2.875 13.8125 5.515625 27.296875 
Q 8.34375 41.796875 15.765625 48.390625 
Q 24.125 55.765625 33.84375 55.90625 
z
" id="DejaVuSans-Oblique-945"/>
      <path d="M 31 75.875 
Q 24.46875 64.65625 21.28125 53.65625 
Q 18.109375 42.671875 18.109375 31.390625 
Q 18.109375 20.125 21.3125 9.0625 
Q 24.515625 -2 31 -13.1875 
L 23.1875 -13.1875 
Q 15.875 -1.703125 12.234375 9.375 
Q 8.59375 20.453125 8.59375 31.390625 
Q 8.59375 42.28125 12.203125 53.3125 
Q 15.828125 64.359375 23.1875 75.875 
z
" id="DejaVuSans-40"/>
      <path d="M 53.71875 31.203125 
L 47.609375 0 
L 38.625 0 
L 40.28125 8.296875 
Q 36.328125 3.421875 31.265625 1 
Q 26.21875 -1.421875 20.015625 -1.421875 
Q 13.03125 -1.421875 8.5625 2.84375 
Q 4.109375 7.125 4.109375 13.8125 
Q 4.109375 23.390625 11.75 28.953125 
Q 19.390625 34.515625 32.8125 34.515625 
L 45.3125 34.515625 
L 45.796875 36.921875 
Q 45.90625 37.3125 45.953125 37.765625 
Q 46 38.234375 46 39.203125 
Q 46 43.5625 42.453125 45.96875 
Q 38.921875 48.390625 32.515625 48.390625 
Q 28.125 48.390625 23.5 47.265625 
Q 18.890625 46.140625 14.015625 43.890625 
L 15.578125 52.203125 
Q 20.65625 54.109375 25.515625 55.046875 
Q 30.375 56 34.90625 56 
Q 44.578125 56 49.625 51.796875 
Q 54.6875 47.609375 54.6875 39.59375 
Q 54.6875 37.984375 54.4375 35.8125 
Q 54.203125 33.640625 53.71875 31.203125 
z
M 44 27.484375 
L 35.015625 27.484375 
Q 23.96875 27.484375 18.671875 24.53125 
Q 13.375 21.578125 13.375 15.375 
Q 13.375 11.078125 16.078125 8.640625 
Q 18.796875 6.203125 23.578125 6.203125 
Q 30.90625 6.203125 36.375 11.453125 
Q 41.84375 16.703125 43.609375 25.484375 
z
" id="DejaVuSans-Oblique-97"/>
      <path d="M 8.015625 75.875 
L 15.828125 75.875 
Q 23.140625 64.359375 26.78125 53.3125 
Q 30.421875 42.28125 30.421875 31.390625 
Q 30.421875 20.453125 26.78125 9.375 
Q 23.140625 -1.703125 15.828125 -13.1875 
L 8.015625 -13.1875 
Q 14.5 -2 17.703125 9.0625 
Q 20.90625 20.125 20.90625 31.390625 
Q 20.90625 42.671875 17.703125 53.65625 
Q 14.5 64.65625 8.015625 75.875 
z
" id="DejaVuSans-41"/>
     </defs>
     <use transform="translate(0 0.125)" xlink:href="#DejaVuSans-77"/>
     <use transform="translate(86.279297 0.125)" xlink:href="#DejaVuSans-79"/>
     <use transform="translate(165.947266 -16.28125)scale(0.7)" xlink:href="#DejaVuSans-Oblique-945"/>
     <use transform="translate(212.089844 -16.28125)scale(0.7)" xlink:href="#DejaVuSans-49"/>
     <use transform="translate(259.360352 0.125)" xlink:href="#DejaVuSans-32"/>
     <use transform="translate(291.147461 0.125)" xlink:href="#DejaVuSans-40"/>
     <use transform="translate(330.161133 0.125)" xlink:href="#DejaVuSans-49"/>
     <use transform="translate(393.78418 0.125)" xlink:href="#DejaVuSans-Oblique-97"/>
     <use transform="translate(455.063477 -16.28125)scale(0.7)" xlink:href="#DejaVuSans-49"/>
     <use transform="translate(502.333984 0.125)" xlink:href="#DejaVuSans-41"/>
    </g>
   </g>
   <g id="legend_1">
    <g id="patch_7">
     <path d="M 210.123437 80.834375 
L 340.4125 80.834375 
Q 342.4125 80.834375 342.4125 78.834375 
L 342.4125 35.8 
Q 342.4125 33.8 340.4125 33.8 
L 210.123437 33.8 
Q 208.123437 33.8 208.123437 35.8 
L 208.123437 78.834375 
Q 208.123437 80.834375 210.123437 80.834375 
z
" style="fill:#ffffff;opacity:0.8;stroke:#cccccc;stroke-linejoin:miter;"/>
    </g>
    <g id="line2d_16">
     <path d="M 212.123437 41.898438 
L 232.123437 41.898438 
" style="fill:none;stroke:#1f77b4;stroke-linecap:square;stroke-width:1.5;"/>
    </g>
    <g id="line2d_17"/>
    <g id="text_16">
     <!-- Ground-state -->
     <g transform="translate(240.123437 45.398438)scale(0.1 -0.1)">
      <defs>
       <path d="M 59.515625 10.40625 
L 59.515625 29.984375 
L 43.40625 29.984375 
L 43.40625 38.09375 
L 69.28125 38.09375 
L 69.28125 6.78125 
Q 63.578125 2.734375 56.6875 0.65625 
Q 49.8125 -1.421875 42 -1.421875 
Q 24.90625 -1.421875 15.25 8.5625 
Q 5.609375 18.5625 5.609375 36.375 
Q 5.609375 54.25 15.25 64.234375 
Q 24.90625 74.21875 42 74.21875 
Q 49.125 74.21875 55.546875 72.453125 
Q 61.96875 70.703125 67.390625 67.28125 
L 67.390625 56.78125 
Q 61.921875 61.421875 55.765625 63.765625 
Q 49.609375 66.109375 42.828125 66.109375 
Q 29.4375 66.109375 22.71875 58.640625 
Q 16.015625 51.171875 16.015625 36.375 
Q 16.015625 21.625 22.71875 14.15625 
Q 29.4375 6.6875 42.828125 6.6875 
Q 48.046875 6.6875 52.140625 7.59375 
Q 56.25 8.5 59.515625 10.40625 
z
" id="DejaVuSans-71"/>
       <path d="M 41.109375 46.296875 
Q 39.59375 47.171875 37.8125 47.578125 
Q 36.03125 48 33.890625 48 
Q 26.265625 48 22.1875 43.046875 
Q 18.109375 38.09375 18.109375 28.8125 
L 18.109375 0 
L 9.078125 0 
L 9.078125 54.6875 
L 18.109375 54.6875 
L 18.109375 46.1875 
Q 20.953125 51.171875 25.484375 53.578125 
Q 30.03125 56 36.53125 56 
Q 37.453125 56 38.578125 55.875 
Q 39.703125 55.765625 41.0625 55.515625 
z
" id="DejaVuSans-114"/>
       <path d="M 30.609375 48.390625 
Q 23.390625 48.390625 19.1875 42.75 
Q 14.984375 37.109375 14.984375 27.296875 
Q 14.984375 17.484375 19.15625 11.84375 
Q 23.34375 6.203125 30.609375 6.203125 
Q 37.796875 6.203125 41.984375 11.859375 
Q 46.1875 17.53125 46.1875 27.296875 
Q 46.1875 37.015625 41.984375 42.703125 
Q 37.796875 48.390625 30.609375 48.390625 
z
M 30.609375 56 
Q 42.328125 56 49.015625 48.375 
Q 55.71875 40.765625 55.71875 27.296875 
Q 55.71875 13.875 49.015625 6.21875 
Q 42.328125 -1.421875 30.609375 -1.421875 
Q 18.84375 -1.421875 12.171875 6.21875 
Q 5.515625 13.875 5.515625 27.296875 
Q 5.515625 40.765625 12.171875 48.375 
Q 18.84375 56 30.609375 56 
z
" id="DejaVuSans-111"/>
       <path d="M 4.890625 31.390625 
L 31.203125 31.390625 
L 31.203125 23.390625 
L 4.890625 23.390625 
z
" id="DejaVuSans-45"/>
      </defs>
      <use xlink:href="#DejaVuSans-71"/>
      <use x="77.490234" xlink:href="#DejaVuSans-114"/>
      <use x="116.353516" xlink:href="#DejaVuSans-111"/>
      <use x="177.535156" xlink:href="#DejaVuSans-117"/>
      <use x="240.914062" xlink:href="#DejaVuSans-110"/>
      <use x="304.292969" xlink:href="#DejaVuSans-100"/>
      <use x="367.769531" xlink:href="#DejaVuSans-45"/>
      <use x="403.853516" xlink:href="#DejaVuSans-115"/>
      <use x="455.953125" xlink:href="#DejaVuSans-116"/>
      <use x="495.162109" xlink:href="#DejaVuSans-97"/>
      <use x="556.441406" xlink:href="#DejaVuSans-116"/>
      <use x="595.650391" xlink:href="#DejaVuSans-101"/>
     </g>
    </g>
    <g id="line2d_18">
     <path d="M 212.123437 56.576563 
L 232.123437 56.576563 
" style="fill:none;stroke:#ff7f0e;stroke-linecap:square;stroke-width:1.5;"/>
    </g>
    <g id="line2d_19"/>
    <g id="text_17">
     <!-- Core-hole -->
     <g transform="translate(240.123437 60.076563)scale(0.1 -0.1)">
      <defs>
       <path d="M 64.40625 67.28125 
L 64.40625 56.890625 
Q 59.421875 61.53125 53.78125 63.8125 
Q 48.140625 66.109375 41.796875 66.109375 
Q 29.296875 66.109375 22.65625 58.46875 
Q 16.015625 50.828125 16.015625 36.375 
Q 16.015625 21.96875 22.65625 14.328125 
Q 29.296875 6.6875 41.796875 6.6875 
Q 48.140625 6.6875 53.78125 8.984375 
Q 59.421875 11.28125 64.40625 15.921875 
L 64.40625 5.609375 
Q 59.234375 2.09375 53.4375 0.328125 
Q 47.65625 -1.421875 41.21875 -1.421875 
Q 24.65625 -1.421875 15.125 8.703125 
Q 5.609375 18.84375 5.609375 36.375 
Q 5.609375 53.953125 15.125 64.078125 
Q 24.65625 74.21875 41.21875 74.21875 
Q 47.75 74.21875 53.53125 72.484375 
Q 59.328125 70.75 64.40625 67.28125 
z
" id="DejaVuSans-67"/>
       <path d="M 54.890625 33.015625 
L 54.890625 0 
L 45.90625 0 
L 45.90625 32.71875 
Q 45.90625 40.484375 42.875 44.328125 
Q 39.84375 48.1875 33.796875 48.1875 
Q 26.515625 48.1875 22.3125 43.546875 
Q 18.109375 38.921875 18.109375 30.90625 
L 18.109375 0 
L 9.078125 0 
L 9.078125 75.984375 
L 18.109375 75.984375 
L 18.109375 46.1875 
Q 21.34375 51.125 25.703125 53.5625 
Q 30.078125 56 35.796875 56 
Q 45.21875 56 50.046875 50.171875 
Q 54.890625 44.34375 54.890625 33.015625 
z
" id="DejaVuSans-104"/>
       <path d="M 9.421875 75.984375 
L 18.40625 75.984375 
L 18.40625 0 
L 9.421875 0 
z
" id="DejaVuSans-108"/>
      </defs>
      <use xlink:href="#DejaVuSans-67"/>
      <use x="69.824219" xlink:href="#DejaVuSans-111"/>
      <use x="131.005859" xlink:href="#DejaVuSans-114"/>
      <use x="169.869141" xlink:href="#DejaVuSans-101"/>
      <use x="231.392578" xlink:href="#DejaVuSans-45"/>
      <use x="267.476562" xlink:href="#DejaVuSans-104"/>
      <use x="330.855469" xlink:href="#DejaVuSans-111"/>
      <use x="392.037109" xlink:href="#DejaVuSans-108"/>
      <use x="419.820312" xlink:href="#DejaVuSans-101"/>
     </g>
    </g>
    <g id="line2d_20">
     <path d="M 212.123437 71.254687 
L 232.123437 71.254687 
" style="fill:none;stroke:#2ca02c;stroke-linecap:square;stroke-width:1.5;"/>
    </g>
    <g id="line2d_21"/>
    <g id="text_18">
     <!-- Ground-state [Z+1] -->
     <g transform="translate(240.123437 74.754687)scale(0.1 -0.1)">
      <defs>
       <path d="M 5.609375 72.90625 
L 62.890625 72.90625 
L 62.890625 65.375 
L 16.796875 8.296875 
L 64.015625 8.296875 
L 64.015625 0 
L 4.5 0 
L 4.5 7.515625 
L 50.59375 64.59375 
L 5.609375 64.59375 
z
" id="DejaVuSans-90"/>
       <path d="M 46 62.703125 
L 46 35.5 
L 73.1875 35.5 
L 73.1875 27.203125 
L 46 27.203125 
L 46 0 
L 37.796875 0 
L 37.796875 27.203125 
L 10.59375 27.203125 
L 10.59375 35.5 
L 37.796875 35.5 
L 37.796875 62.703125 
z
" id="DejaVuSans-43"/>
      </defs>
      <use xlink:href="#DejaVuSans-71"/>
      <use x="77.490234" xlink:href="#DejaVuSans-114"/>
      <use x="116.353516" xlink:href="#DejaVuSans-111"/>
      <use x="177.535156" xlink:href="#DejaVuSans-117"/>
      <use x="240.914062" xlink:href="#DejaVuSans-110"/>
      <use x="304.292969" xlink:href="#DejaVuSans-100"/>
      <use x="367.769531" xlink:href="#DejaVuSans-45"/>
      <use x="403.853516" xlink:href="#DejaVuSans-115"/>
      <use x="455.953125" xlink:href="#DejaVuSans-116"/>
      <use x="495.162109" xlink:href="#DejaVuSans-97"/>
      <use x="556.441406" xlink:href="#DejaVuSans-116"/>
      <use x="595.650391" xlink:href="#DejaVuSans-101"/>
      <use x="657.173828" xlink:href="#DejaVuSans-32"/>
      <use x="688.960938" xlink:href="#DejaVuSans-91"/>
      <use x="727.974609" xlink:href="#DejaVuSans-90"/>
      <use x="796.480469" xlink:href="#DejaVuSans-43"/>
      <use x="880.269531" xlink:href="#DejaVuSans-49"/>
      <use x="943.892578" xlink:href="#DejaVuSans-93"/>
     </g>
    </g>
   </g>
  </g>
  <g id="axes_2">
   <g id="patch_8">
    <path d="M 407.3875 179.6 
L 701.2 179.6 
L 701.2 28.8 
L 407.3875 28.8 
z
" style="fill:#ffffff;"/>
   </g>
   <g id="matplotlib.axis_3">
    <g id="xtick_9">
     <g id="line2d_22">
      <g>
       <use style="stroke:#000000;stroke-width:0.8;" x="407.3875" xlink:href="#m944e019911" y="179.6"/>
      </g>
     </g>
     <g id="text_19">
      <!-- 0.0 -->
      <g transform="translate(399.435938 194.198437)scale(0.1 -0.1)">
       <use xlink:href="#DejaVuSans-48"/>
       <use x="63.623047" xlink:href="#DejaVuSans-46"/>
       <use x="95.410156" xlink:href="#DejaVuSans-48"/>
      </g>
     </g>
    </g>
    <g id="xtick_10">
     <g id="line2d_23">
      <g>
       <use style="stroke:#000000;stroke-width:0.8;" x="466.15" xlink:href="#m944e019911" y="179.6"/>
      </g>
     </g>
     <g id="text_20">
      <!-- 0.5 -->
      <g transform="translate(458.198438 194.198437)scale(0.1 -0.1)">
       <use xlink:href="#DejaVuSans-48"/>
       <use x="63.623047" xlink:href="#DejaVuSans-46"/>
       <use x="95.410156" xlink:href="#DejaVuSans-53"/>
      </g>
     </g>
    </g>
    <g id="xtick_11">
     <g id="line2d_24">
      <g>
       <use style="stroke:#000000;stroke-width:0.8;" x="524.9125" xlink:href="#m944e019911" y="179.6"/>
      </g>
     </g>
     <g id="text_21">
      <!-- 1.0 -->
      <g transform="translate(516.960938 194.198437)scale(0.1 -0.1)">
       <use xlink:href="#DejaVuSans-49"/>
       <use x="63.623047" xlink:href="#DejaVuSans-46"/>
       <use x="95.410156" xlink:href="#DejaVuSans-48"/>
      </g>
     </g>
    </g>
    <g id="xtick_12">
     <g id="line2d_25">
      <g>
       <use style="stroke:#000000;stroke-width:0.8;" x="583.675" xlink:href="#m944e019911" y="179.6"/>
      </g>
     </g>
     <g id="text_22">
      <!-- 1.5 -->
      <g transform="translate(575.723438 194.198437)scale(0.1 -0.1)">
       <use xlink:href="#DejaVuSans-49"/>
       <use x="63.623047" xlink:href="#DejaVuSans-46"/>
       <use x="95.410156" xlink:href="#DejaVuSans-53"/>
      </g>
     </g>
    </g>
    <g id="xtick_13">
     <g id="line2d_26">
      <g>
       <use style="stroke:#000000;stroke-width:0.8;" x="642.4375" xlink:href="#m944e019911" y="179.6"/>
      </g>
     </g>
     <g id="text_23">
      <!-- 2.0 -->
      <g transform="translate(634.485937 194.198437)scale(0.1 -0.1)">
       <use xlink:href="#DejaVuSans-50"/>
       <use x="63.623047" xlink:href="#DejaVuSans-46"/>
       <use x="95.410156" xlink:href="#DejaVuSans-48"/>
      </g>
     </g>
    </g>
    <g id="xtick_14">
     <g id="line2d_27">
      <g>
       <use style="stroke:#000000;stroke-width:0.8;" x="701.2" xlink:href="#m944e019911" y="179.6"/>
      </g>
     </g>
     <g id="text_24">
      <!-- 2.5 -->
      <g transform="translate(693.248438 194.198437)scale(0.1 -0.1)">
       <use xlink:href="#DejaVuSans-50"/>
       <use x="63.623047" xlink:href="#DejaVuSans-46"/>
       <use x="95.410156" xlink:href="#DejaVuSans-53"/>
      </g>
     </g>
    </g>
    <g id="text_25">
     <!-- Radius [a.u.] -->
     <g transform="translate(522.629688 207.876562)scale(0.1 -0.1)">
      <use xlink:href="#DejaVuSans-82"/>
      <use x="67.232422" xlink:href="#DejaVuSans-97"/>
      <use x="128.511719" xlink:href="#DejaVuSans-100"/>
      <use x="191.988281" xlink:href="#DejaVuSans-105"/>
      <use x="219.771484" xlink:href="#DejaVuSans-117"/>
      <use x="283.150391" xlink:href="#DejaVuSans-115"/>
      <use x="335.25" xlink:href="#DejaVuSans-32"/>
      <use x="367.037109" xlink:href="#DejaVuSans-91"/>
      <use x="406.050781" xlink:href="#DejaVuSans-97"/>
      <use x="467.330078" xlink:href="#DejaVuSans-46"/>
      <use x="499.117188" xlink:href="#DejaVuSans-117"/>
      <use x="562.496094" xlink:href="#DejaVuSans-46"/>
      <use x="594.283203" xlink:href="#DejaVuSans-93"/>
     </g>
    </g>
   </g>
   <g id="matplotlib.axis_4">
    <g id="ytick_5">
     <g id="line2d_28">
      <g>
       <use style="stroke:#000000;stroke-width:0.8;" x="407.3875" xlink:href="#m5ea8df4581" y="172.745455"/>
      </g>
     </g>
     <g id="text_26">
      <!-- 0.00 -->
      <g transform="translate(378.121875 176.544673)scale(0.1 -0.1)">
       <use xlink:href="#DejaVuSans-48"/>
       <use x="63.623047" xlink:href="#DejaVuSans-46"/>
       <use x="95.410156" xlink:href="#DejaVuSans-48"/>
       <use x="159.033203" xlink:href="#DejaVuSans-48"/>
      </g>
     </g>
    </g>
    <g id="ytick_6">
     <g id="line2d_29">
      <g>
       <use style="stroke:#000000;stroke-width:0.8;" x="407.3875" xlink:href="#m5ea8df4581" y="137.716018"/>
      </g>
     </g>
     <g id="text_27">
      <!-- 0.02 -->
      <g transform="translate(378.121875 141.515236)scale(0.1 -0.1)">
       <use xlink:href="#DejaVuSans-48"/>
       <use x="63.623047" xlink:href="#DejaVuSans-46"/>
       <use x="95.410156" xlink:href="#DejaVuSans-48"/>
       <use x="159.033203" xlink:href="#DejaVuSans-50"/>
      </g>
     </g>
    </g>
    <g id="ytick_7">
     <g id="line2d_30">
      <g>
       <use style="stroke:#000000;stroke-width:0.8;" x="407.3875" xlink:href="#m5ea8df4581" y="102.686581"/>
      </g>
     </g>
     <g id="text_28">
      <!-- 0.04 -->
      <g transform="translate(378.121875 106.485799)scale(0.1 -0.1)">
       <use xlink:href="#DejaVuSans-48"/>
       <use x="63.623047" xlink:href="#DejaVuSans-46"/>
       <use x="95.410156" xlink:href="#DejaVuSans-48"/>
       <use x="159.033203" xlink:href="#DejaVuSans-52"/>
      </g>
     </g>
    </g>
    <g id="ytick_8">
     <g id="line2d_31">
      <g>
       <use style="stroke:#000000;stroke-width:0.8;" x="407.3875" xlink:href="#m5ea8df4581" y="67.657144"/>
      </g>
     </g>
     <g id="text_29">
      <!-- 0.06 -->
      <g transform="translate(378.121875 71.456362)scale(0.1 -0.1)">
       <use xlink:href="#DejaVuSans-48"/>
       <use x="63.623047" xlink:href="#DejaVuSans-46"/>
       <use x="95.410156" xlink:href="#DejaVuSans-48"/>
       <use x="159.033203" xlink:href="#DejaVuSans-54"/>
      </g>
     </g>
    </g>
    <g id="ytick_9">
     <g id="line2d_32">
      <g>
       <use style="stroke:#000000;stroke-width:0.8;" x="407.3875" xlink:href="#m5ea8df4581" y="32.627707"/>
      </g>
     </g>
     <g id="text_30">
      <!-- 0.08 -->
      <g transform="translate(378.121875 36.426925)scale(0.1 -0.1)">
       <defs>
        <path d="M 31.78125 34.625 
Q 24.75 34.625 20.71875 30.859375 
Q 16.703125 27.09375 16.703125 20.515625 
Q 16.703125 13.921875 20.71875 10.15625 
Q 24.75 6.390625 31.78125 6.390625 
Q 38.8125 6.390625 42.859375 10.171875 
Q 46.921875 13.96875 46.921875 20.515625 
Q 46.921875 27.09375 42.890625 30.859375 
Q 38.875 34.625 31.78125 34.625 
z
M 21.921875 38.8125 
Q 15.578125 40.375 12.03125 44.71875 
Q 8.5 49.078125 8.5 55.328125 
Q 8.5 64.0625 14.71875 69.140625 
Q 20.953125 74.21875 31.78125 74.21875 
Q 42.671875 74.21875 48.875 69.140625 
Q 55.078125 64.0625 55.078125 55.328125 
Q 55.078125 49.078125 51.53125 44.71875 
Q 48 40.375 41.703125 38.8125 
Q 48.828125 37.15625 52.796875 32.3125 
Q 56.78125 27.484375 56.78125 20.515625 
Q 56.78125 9.90625 50.3125 4.234375 
Q 43.84375 -1.421875 31.78125 -1.421875 
Q 19.734375 -1.421875 13.25 4.234375 
Q 6.78125 9.90625 6.78125 20.515625 
Q 6.78125 27.484375 10.78125 32.3125 
Q 14.796875 37.15625 21.921875 38.8125 
z
M 18.3125 54.390625 
Q 18.3125 48.734375 21.84375 45.5625 
Q 25.390625 42.390625 31.78125 42.390625 
Q 38.140625 42.390625 41.71875 45.5625 
Q 45.3125 48.734375 45.3125 54.390625 
Q 45.3125 60.0625 41.71875 63.234375 
Q 38.140625 66.40625 31.78125 66.40625 
Q 25.390625 66.40625 21.84375 63.234375 
Q 18.3125 60.0625 18.3125 54.390625 
z
" id="DejaVuSans-56"/>
       </defs>
       <use xlink:href="#DejaVuSans-48"/>
       <use x="63.623047" xlink:href="#DejaVuSans-46"/>
       <use x="95.410156" xlink:href="#DejaVuSans-48"/>
       <use x="159.033203" xlink:href="#DejaVuSans-56"/>
      </g>
     </g>
    </g>
    <g id="text_31">
     <!-- Density [$r^2 \rho$] -->
     <g transform="translate(372.021875 136.55)rotate(-90)scale(0.1 -0.1)">
      <use transform="translate(0 0.765625)" xlink:href="#DejaVuSans-68"/>
      <use transform="translate(77.001953 0.765625)" xlink:href="#DejaVuSans-101"/>
      <use transform="translate(138.525391 0.765625)" xlink:href="#DejaVuSans-110"/>
      <use transform="translate(201.904297 0.765625)" xlink:href="#DejaVuSans-115"/>
      <use transform="translate(254.003906 0.765625)" xlink:href="#DejaVuSans-105"/>
      <use transform="translate(281.787109 0.765625)" xlink:href="#DejaVuSans-116"/>
      <use transform="translate(320.996094 0.765625)" xlink:href="#DejaVuSans-121"/>
      <use transform="translate(380.175781 0.765625)" xlink:href="#DejaVuSans-32"/>
      <use transform="translate(411.962891 0.765625)" xlink:href="#DejaVuSans-91"/>
      <use transform="translate(450.976562 0.765625)" xlink:href="#DejaVuSans-Oblique-114"/>
      <use transform="translate(496.73974 39.046875)scale(0.7)" xlink:href="#DejaVuSans-50"/>
      <use transform="translate(544.010247 0.765625)" xlink:href="#DejaVuSans-Oblique-961"/>
      <use transform="translate(607.48681 0.765625)" xlink:href="#DejaVuSans-93"/>
     </g>
    </g>
   </g>
   <g id="line2d_33">
    <path clip-path="url(#pd6ed802c6d)" d="M 407.3875 172.745455 
L 407.740075 172.656284 
L 408.210175 172.27914 
L 408.7978 171.477369 
L 409.620475 169.924484 
L 410.795725 167.155875 
L 413.616325 160.348842 
L 414.9091 157.815444 
L 415.966825 156.173714 
L 416.907025 155.08941 
L 417.7297 154.440957 
L 418.552375 154.065156 
L 419.37505 153.944076 
L 420.197725 154.054435 
L 421.137925 154.431984 
L 422.19565 155.133918 
L 423.3709 156.201133 
L 424.7812 157.795256 
L 426.6616 160.2794 
L 432.185275 167.814431 
L 433.830625 169.607353 
L 435.35845 170.946766 
L 436.651225 171.804532 
L 437.944 172.392134 
L 439.11925 172.682775 
L 440.2945 172.736401 
L 441.46975 172.550761 
L 442.645 172.125919 
L 443.82025 171.464108 
L 445.113025 170.467651 
L 446.523325 169.069823 
L 448.05115 167.206731 
L 449.6965 164.821786 
L 451.459375 161.870703 
L 453.4573 158.092738 
L 455.8078 153.160125 
L 458.745925 146.43923 
L 462.8593 136.413972 
L 472.613875 112.459433 
L 476.4922 103.606443 
L 479.900425 96.34793 
L 483.0736 90.095278 
L 486.011725 84.779773 
L 488.832325 80.131182 
L 491.5354 76.110059 
L 494.12095 72.670313 
L 496.588975 69.761754 
L 498.939475 67.332227 
L 501.17245 65.329381 
L 503.405425 63.619284 
L 505.6384 62.19539 
L 507.75385 61.102938 
L 509.8693 60.251582 
L 511.98475 59.631937 
L 514.1002 59.233758 
L 516.333175 59.041639 
L 518.56615 59.070642 
L 520.91665 59.324809 
L 523.384675 59.820856 
L 525.970225 60.571862 
L 528.6733 61.586892 
L 531.611425 62.928825 
L 534.7846 64.623602 
L 538.31035 66.763024 
L 542.3062 69.457691 
L 546.889675 72.825913 
L 552.530875 77.262324 
L 560.522575 83.861676 
L 579.091525 99.277873 
L 586.848175 105.375314 
L 593.899675 110.64146 
L 600.716125 115.455926 
L 607.41505 119.914336 
L 614.113975 124.103236 
L 620.8129 128.029982 
L 627.62935 131.768059 
L 634.563325 135.318313 
L 641.73235 138.73777 
L 649.136425 142.019011 
L 656.658025 145.109605 
L 664.414675 148.057824 
L 672.406375 150.857967 
L 680.633125 153.503875 
L 688.9774 155.955728 
L 697.556725 158.245149 
L 701.317525 159.177487 
L 701.317525 159.177487 
" style="fill:none;stroke:#1f77b4;stroke-linecap:square;stroke-width:1.5;"/>
   </g>
   <g id="line2d_34">
    <path clip-path="url(#pd6ed802c6d)" d="M 407.3875 172.745455 
L 407.740075 172.62334 
L 408.09265 172.270435 
L 408.56275 171.49931 
L 409.2679 169.866458 
L 410.2081 167.075984 
L 414.20395 154.357734 
L 415.3792 151.64071 
L 416.3194 150.004167 
L 417.142075 148.99591 
L 417.847225 148.447326 
L 418.552375 148.178445 
L 419.257525 148.170737 
L 419.962675 148.401733 
L 420.78535 148.940972 
L 421.72555 149.866796 
L 422.783275 151.238902 
L 424.07605 153.289811 
L 425.838925 156.534611 
L 431.010025 166.359481 
L 432.53785 168.683869 
L 433.830625 170.28447 
L 435.005875 171.410766 
L 436.0636 172.138521 
L 437.121325 172.585138 
L 438.061525 172.741521 
L 439.001725 172.669703 
L 439.941925 172.369906 
L 440.882125 171.843943 
L 441.93985 170.98598 
L 443.1151 169.709896 
L 444.29035 168.10556 
L 445.583125 165.979209 
L 447.11095 163.008893 
L 448.7563 159.304571 
L 450.6367 154.507664 
L 452.869675 148.165662 
L 455.690275 139.414309 
L 459.921175 125.443522 
L 466.6201 103.373305 
L 470.14585 92.563487 
L 473.2015 83.894393 
L 476.0221 76.553613 
L 478.60765 70.423465 
L 481.075675 65.12752 
L 483.426175 60.59845 
L 485.65915 56.764536 
L 487.7746 53.553134 
L 489.89005 50.747659 
L 491.887975 48.46544 
L 493.768375 46.637195 
L 495.648775 45.111641 
L 497.529175 43.880299 
L 499.29205 42.984574 
L 501.054925 42.330239 
L 502.8178 41.907872 
L 504.580675 41.707481 
L 506.461075 41.726616 
L 508.341475 41.973299 
L 510.3394 42.46971 
L 512.45485 43.240684 
L 514.687825 44.307252 
L 517.038325 45.685989 
L 519.623875 47.475569 
L 522.444475 49.716031 
L 525.500125 52.436002 
L 528.90835 55.770153 
L 532.9042 60.000301 
L 537.722725 65.438394 
L 544.42165 73.364226 
L 561.34525 93.519478 
L 567.6916 100.649711 
L 573.3328 106.659404 
L 578.621425 111.976073 
L 583.792525 116.859203 
L 588.8461 121.322876 
L 593.78215 125.388726 
L 598.7182 129.169664 
L 603.65425 132.675235 
L 608.707825 135.991937 
L 613.878925 139.11648 
L 619.16755 142.048741 
L 624.5737 144.791354 
L 630.2149 147.401142 
L 636.09115 149.870594 
L 642.20245 152.195554 
L 648.666325 154.413043 
L 655.482775 156.512414 
L 662.6518 158.486598 
L 670.290925 160.358487 
L 678.40015 162.116306 
L 687.097 163.771765 
L 696.381475 165.308909 
L 701.317525 166.039155 
L 701.317525 166.039155 
" style="fill:none;stroke:#ff7f0e;stroke-linecap:square;stroke-width:1.5;"/>
   </g>
   <g id="line2d_35">
    <path clip-path="url(#pd6ed802c6d)" d="M 407.3875 172.745455 
L 407.740075 172.596662 
L 408.09265 172.170536 
L 408.56275 171.254039 
L 409.2679 169.343975 
L 410.325625 165.70141 
L 413.0287 156.061052 
L 414.20395 152.73252 
L 415.14415 150.666053 
L 415.966825 149.351342 
L 416.671975 148.599704 
L 417.377125 148.182424 
L 417.96475 148.073808 
L 418.552375 148.165238 
L 419.257525 148.514574 
L 420.0802 149.214976 
L 421.0204 150.346603 
L 422.19565 152.165401 
L 423.60595 154.784672 
L 426.073975 159.939404 
L 428.659525 165.185754 
L 430.304875 168.022431 
L 431.59765 169.844769 
L 432.7729 171.141321 
L 433.830625 171.99146 
L 434.770825 172.483853 
L 435.711025 172.722089 
L 436.5337 172.719301 
L 437.356375 172.518391 
L 438.296575 172.046677 
L 439.236775 171.319035 
L 440.2945 170.199886 
L 441.46975 168.593697 
L 442.762525 166.404897 
L 444.172825 163.544215 
L 445.70065 159.936338 
L 447.463525 155.194689 
L 449.578975 148.825913 
L 452.164525 140.290824 
L 455.925325 127.021051 
L 463.7995 99.09538 
L 467.32525 87.520689 
L 470.3809 78.243428 
L 473.083975 70.708591 
L 475.669525 64.142556 
L 478.020025 58.746856 
L 480.253 54.144249 
L 482.36845 50.263714 
L 484.366375 47.031404 
L 486.3643 44.219458 
L 488.2447 41.95401 
L 490.007575 40.16099 
L 491.77045 38.681739 
L 493.4158 37.577186 
L 495.06115 36.731357 
L 496.7065 36.135556 
L 498.35185 35.780201 
L 499.9972 35.65497 
L 501.64255 35.748937 
L 503.405425 36.079909 
L 505.1683 36.634992 
L 507.0487 37.457526 
L 509.046625 38.572393 
L 511.2796 40.086202 
L 513.6301 41.953612 
L 516.21565 44.292781 
L 519.153775 47.260491 
L 522.562 51.040328 
L 526.55785 55.823591 
L 531.72895 62.38781 
L 542.7763 76.90026 
L 550.180375 86.395446 
L 555.9391 93.42527 
L 561.1102 99.398622 
L 566.04625 104.769785 
L 570.864775 109.689331 
L 575.6833 114.28828 
L 580.3843 118.472942 
L 585.202825 122.465044 
L 590.02135 126.172613 
L 594.9574 129.695026 
L 600.1285 133.108733 
L 605.417125 136.332172 
L 610.9408 139.436261 
L 616.699525 142.414521 
L 622.6933 145.262938 
L 629.03965 148.028139 
L 635.62105 150.651107 
L 642.555025 153.17186 
L 649.72405 155.540738 
L 657.24565 157.789435 
L 665.0023 159.875028 
L 672.994 161.794585 
L 681.338275 163.56839 
L 689.9176 165.164341 
L 698.8495 166.599042 
L 701.317525 166.957202 
L 701.317525 166.957202 
" style="fill:none;stroke:#2ca02c;stroke-linecap:square;stroke-width:1.5;"/>
   </g>
   <g id="patch_9">
    <path d="M 407.3875 179.6 
L 407.3875 28.8 
" style="fill:none;stroke:#000000;stroke-linecap:square;stroke-linejoin:miter;stroke-width:0.8;"/>
   </g>
   <g id="patch_10">
    <path d="M 701.2 179.6 
L 701.2 28.8 
" style="fill:none;stroke:#000000;stroke-linecap:square;stroke-linejoin:miter;stroke-width:0.8;"/>
   </g>
   <g id="patch_11">
    <path d="M 407.3875 179.6 
L 701.2 179.6 
" style="fill:none;stroke:#000000;stroke-linecap:square;stroke-linejoin:miter;stroke-width:0.8;"/>
   </g>
   <g id="patch_12">
    <path d="M 407.3875 28.8 
L 701.2 28.8 
" style="fill:none;stroke:#000000;stroke-linecap:square;stroke-linejoin:miter;stroke-width:0.8;"/>
   </g>
   <g id="text_32">
    <!-- MO$_{\alpha 2}$ ($2a_1$) -->
    <g transform="translate(521.77375 22.8)scale(0.12 -0.12)">
     <use transform="translate(0 0.125)" xlink:href="#DejaVuSans-77"/>
     <use transform="translate(86.279297 0.125)" xlink:href="#DejaVuSans-79"/>
     <use transform="translate(165.947266 -16.28125)scale(0.7)" xlink:href="#DejaVuSans-Oblique-945"/>
     <use transform="translate(212.089844 -16.28125)scale(0.7)" xlink:href="#DejaVuSans-50"/>
     <use transform="translate(259.360352 0.125)" xlink:href="#DejaVuSans-32"/>
     <use transform="translate(291.147461 0.125)" xlink:href="#DejaVuSans-40"/>
     <use transform="translate(330.161133 0.125)" xlink:href="#DejaVuSans-50"/>
     <use transform="translate(393.78418 0.125)" xlink:href="#DejaVuSans-Oblique-97"/>
     <use transform="translate(455.063477 -16.28125)scale(0.7)" xlink:href="#DejaVuSans-49"/>
     <use transform="translate(502.333984 0.125)" xlink:href="#DejaVuSans-41"/>
    </g>
   </g>
  </g>
  <g id="axes_3">
   <g id="patch_13">
    <path d="M 407.3875 390.2 
L 701.2 390.2 
L 701.2 239.4 
L 407.3875 239.4 
z
" style="fill:#ffffff;"/>
   </g>
   <g id="matplotlib.axis_5">
    <g id="xtick_15">
     <g id="line2d_36">
      <g>
       <use style="stroke:#000000;stroke-width:0.8;" x="407.3875" xlink:href="#m944e019911" y="390.2"/>
      </g>
     </g>
     <g id="text_33">
      <!-- 0.0 -->
      <g transform="translate(399.435938 404.798438)scale(0.1 -0.1)">
       <use xlink:href="#DejaVuSans-48"/>
       <use x="63.623047" xlink:href="#DejaVuSans-46"/>
       <use x="95.410156" xlink:href="#DejaVuSans-48"/>
      </g>
     </g>
    </g>
    <g id="xtick_16">
     <g id="line2d_37">
      <g>
       <use style="stroke:#000000;stroke-width:0.8;" x="466.15" xlink:href="#m944e019911" y="390.2"/>
      </g>
     </g>
     <g id="text_34">
      <!-- 0.5 -->
      <g transform="translate(458.198438 404.798438)scale(0.1 -0.1)">
       <use xlink:href="#DejaVuSans-48"/>
       <use x="63.623047" xlink:href="#DejaVuSans-46"/>
       <use x="95.410156" xlink:href="#DejaVuSans-53"/>
      </g>
     </g>
    </g>
    <g id="xtick_17">
     <g id="line2d_38">
      <g>
       <use style="stroke:#000000;stroke-width:0.8;" x="524.9125" xlink:href="#m944e019911" y="390.2"/>
      </g>
     </g>
     <g id="text_35">
      <!-- 1.0 -->
      <g transform="translate(516.960938 404.798438)scale(0.1 -0.1)">
       <use xlink:href="#DejaVuSans-49"/>
       <use x="63.623047" xlink:href="#DejaVuSans-46"/>
       <use x="95.410156" xlink:href="#DejaVuSans-48"/>
      </g>
     </g>
    </g>
    <g id="xtick_18">
     <g id="line2d_39">
      <g>
       <use style="stroke:#000000;stroke-width:0.8;" x="583.675" xlink:href="#m944e019911" y="390.2"/>
      </g>
     </g>
     <g id="text_36">
      <!-- 1.5 -->
      <g transform="translate(575.723438 404.798438)scale(0.1 -0.1)">
       <use xlink:href="#DejaVuSans-49"/>
       <use x="63.623047" xlink:href="#DejaVuSans-46"/>
       <use x="95.410156" xlink:href="#DejaVuSans-53"/>
      </g>
     </g>
    </g>
    <g id="xtick_19">
     <g id="line2d_40">
      <g>
       <use style="stroke:#000000;stroke-width:0.8;" x="642.4375" xlink:href="#m944e019911" y="390.2"/>
      </g>
     </g>
     <g id="text_37">
      <!-- 2.0 -->
      <g transform="translate(634.485937 404.798438)scale(0.1 -0.1)">
       <use xlink:href="#DejaVuSans-50"/>
       <use x="63.623047" xlink:href="#DejaVuSans-46"/>
       <use x="95.410156" xlink:href="#DejaVuSans-48"/>
      </g>
     </g>
    </g>
    <g id="xtick_20">
     <g id="line2d_41">
      <g>
       <use style="stroke:#000000;stroke-width:0.8;" x="701.2" xlink:href="#m944e019911" y="390.2"/>
      </g>
     </g>
     <g id="text_38">
      <!-- 2.5 -->
      <g transform="translate(693.248438 404.798438)scale(0.1 -0.1)">
       <use xlink:href="#DejaVuSans-50"/>
       <use x="63.623047" xlink:href="#DejaVuSans-46"/>
       <use x="95.410156" xlink:href="#DejaVuSans-53"/>
      </g>
     </g>
    </g>
    <g id="text_39">
     <!-- Radius [a.u.] -->
     <g transform="translate(522.629688 418.476562)scale(0.1 -0.1)">
      <use xlink:href="#DejaVuSans-82"/>
      <use x="67.232422" xlink:href="#DejaVuSans-97"/>
      <use x="128.511719" xlink:href="#DejaVuSans-100"/>
      <use x="191.988281" xlink:href="#DejaVuSans-105"/>
      <use x="219.771484" xlink:href="#DejaVuSans-117"/>
      <use x="283.150391" xlink:href="#DejaVuSans-115"/>
      <use x="335.25" xlink:href="#DejaVuSans-32"/>
      <use x="367.037109" xlink:href="#DejaVuSans-91"/>
      <use x="406.050781" xlink:href="#DejaVuSans-97"/>
      <use x="467.330078" xlink:href="#DejaVuSans-46"/>
      <use x="499.117188" xlink:href="#DejaVuSans-117"/>
      <use x="562.496094" xlink:href="#DejaVuSans-46"/>
      <use x="594.283203" xlink:href="#DejaVuSans-93"/>
     </g>
    </g>
   </g>
   <g id="matplotlib.axis_6">
    <g id="ytick_10">
     <g id="line2d_42">
      <g>
       <use style="stroke:#000000;stroke-width:0.8;" x="407.3875" xlink:href="#m5ea8df4581" y="383.345455"/>
      </g>
     </g>
     <g id="text_40">
      <!-- 0.00 -->
      <g transform="translate(378.121875 387.144673)scale(0.1 -0.1)">
       <use xlink:href="#DejaVuSans-48"/>
       <use x="63.623047" xlink:href="#DejaVuSans-46"/>
       <use x="95.410156" xlink:href="#DejaVuSans-48"/>
       <use x="159.033203" xlink:href="#DejaVuSans-48"/>
      </g>
     </g>
    </g>
    <g id="ytick_11">
     <g id="line2d_43">
      <g>
       <use style="stroke:#000000;stroke-width:0.8;" x="407.3875" xlink:href="#m5ea8df4581" y="348.316027"/>
      </g>
     </g>
     <g id="text_41">
      <!-- 0.02 -->
      <g transform="translate(378.121875 352.115245)scale(0.1 -0.1)">
       <use xlink:href="#DejaVuSans-48"/>
       <use x="63.623047" xlink:href="#DejaVuSans-46"/>
       <use x="95.410156" xlink:href="#DejaVuSans-48"/>
       <use x="159.033203" xlink:href="#DejaVuSans-50"/>
      </g>
     </g>
    </g>
    <g id="ytick_12">
     <g id="line2d_44">
      <g>
       <use style="stroke:#000000;stroke-width:0.8;" x="407.3875" xlink:href="#m5ea8df4581" y="313.286599"/>
      </g>
     </g>
     <g id="text_42">
      <!-- 0.04 -->
      <g transform="translate(378.121875 317.085817)scale(0.1 -0.1)">
       <use xlink:href="#DejaVuSans-48"/>
       <use x="63.623047" xlink:href="#DejaVuSans-46"/>
       <use x="95.410156" xlink:href="#DejaVuSans-48"/>
       <use x="159.033203" xlink:href="#DejaVuSans-52"/>
      </g>
     </g>
    </g>
    <g id="ytick_13">
     <g id="line2d_45">
      <g>
       <use style="stroke:#000000;stroke-width:0.8;" x="407.3875" xlink:href="#m5ea8df4581" y="278.257171"/>
      </g>
     </g>
     <g id="text_43">
      <!-- 0.06 -->
      <g transform="translate(378.121875 282.056389)scale(0.1 -0.1)">
       <use xlink:href="#DejaVuSans-48"/>
       <use x="63.623047" xlink:href="#DejaVuSans-46"/>
       <use x="95.410156" xlink:href="#DejaVuSans-48"/>
       <use x="159.033203" xlink:href="#DejaVuSans-54"/>
      </g>
     </g>
    </g>
    <g id="ytick_14">
     <g id="line2d_46">
      <g>
       <use style="stroke:#000000;stroke-width:0.8;" x="407.3875" xlink:href="#m5ea8df4581" y="243.227742"/>
      </g>
     </g>
     <g id="text_44">
      <!-- 0.08 -->
      <g transform="translate(378.121875 247.026961)scale(0.1 -0.1)">
       <use xlink:href="#DejaVuSans-48"/>
       <use x="63.623047" xlink:href="#DejaVuSans-46"/>
       <use x="95.410156" xlink:href="#DejaVuSans-48"/>
       <use x="159.033203" xlink:href="#DejaVuSans-56"/>
      </g>
     </g>
    </g>
    <g id="text_45">
     <!-- Density [$r^2 \rho$] -->
     <g transform="translate(372.021875 347.15)rotate(-90)scale(0.1 -0.1)">
      <use transform="translate(0 0.765625)" xlink:href="#DejaVuSans-68"/>
      <use transform="translate(77.001953 0.765625)" xlink:href="#DejaVuSans-101"/>
      <use transform="translate(138.525391 0.765625)" xlink:href="#DejaVuSans-110"/>
      <use transform="translate(201.904297 0.765625)" xlink:href="#DejaVuSans-115"/>
      <use transform="translate(254.003906 0.765625)" xlink:href="#DejaVuSans-105"/>
      <use transform="translate(281.787109 0.765625)" xlink:href="#DejaVuSans-116"/>
      <use transform="translate(320.996094 0.765625)" xlink:href="#DejaVuSans-121"/>
      <use transform="translate(380.175781 0.765625)" xlink:href="#DejaVuSans-32"/>
      <use transform="translate(411.962891 0.765625)" xlink:href="#DejaVuSans-91"/>
      <use transform="translate(450.976562 0.765625)" xlink:href="#DejaVuSans-Oblique-114"/>
      <use transform="translate(496.73974 39.046875)scale(0.7)" xlink:href="#DejaVuSans-50"/>
      <use transform="translate(544.010247 0.765625)" xlink:href="#DejaVuSans-Oblique-961"/>
      <use transform="translate(607.48681 0.765625)" xlink:href="#DejaVuSans-93"/>
     </g>
    </g>
   </g>
   <g id="line2d_47">
    <path clip-path="url(#p8f3411434a)" d="M 407.3875 383.345455 
L 407.740075 383.256283 
L 408.210175 382.879139 
L 408.7978 382.077367 
L 409.620475 380.524479 
L 410.795725 377.755865 
L 413.616325 370.94882 
L 414.9091 368.415417 
L 415.966825 366.773685 
L 416.907025 365.689378 
L 417.7297 365.040924 
L 418.552375 364.665123 
L 419.37505 364.544042 
L 420.197725 364.654401 
L 421.137925 365.031951 
L 422.19565 365.733887 
L 423.3709 366.801103 
L 424.7812 368.39523 
L 426.6616 370.879378 
L 432.185275 378.414423 
L 433.830625 380.207348 
L 435.35845 381.546763 
L 436.651225 382.404531 
L 437.944 382.992134 
L 439.11925 383.282775 
L 440.2945 383.336401 
L 441.46975 383.150761 
L 442.645 382.725917 
L 443.82025 382.064106 
L 445.113025 381.067647 
L 446.523325 379.669817 
L 448.05115 377.806721 
L 449.6965 375.421772 
L 451.459375 372.470684 
L 453.4573 368.692712 
L 455.8078 363.760091 
L 458.745925 357.039185 
L 462.8593 347.013911 
L 472.613875 323.059336 
L 476.4922 314.206334 
L 479.900425 306.947813 
L 483.0736 300.695155 
L 486.011725 295.379644 
L 488.832325 290.73105 
L 491.5354 286.709925 
L 494.12095 283.270178 
L 496.588975 280.361619 
L 498.939475 277.932093 
L 501.17245 275.929249 
L 503.405425 274.219153 
L 505.6384 272.795262 
L 507.75385 271.702813 
L 509.8693 270.85146 
L 511.98475 270.231819 
L 514.1002 269.833644 
L 516.333175 269.64153 
L 518.56615 269.670538 
L 520.91665 269.924711 
L 523.384675 270.420765 
L 525.970225 271.171778 
L 528.6733 272.186815 
L 531.611425 273.528758 
L 534.7846 275.223544 
L 538.31035 277.362977 
L 542.3062 280.057657 
L 546.889675 283.425892 
L 552.530875 287.862319 
L 560.522575 294.461693 
L 579.091525 309.87793 
L 586.848175 315.975382 
L 593.899675 321.241537 
L 600.716125 326.056009 
L 607.41505 330.514423 
L 614.113975 334.703325 
L 620.8129 338.630073 
L 627.62935 342.36815 
L 634.563325 345.918402 
L 641.73235 349.337857 
L 649.136425 352.619095 
L 656.658025 355.709684 
L 664.414675 358.657899 
L 672.406375 361.458037 
L 680.633125 364.103939 
L 688.9774 366.555786 
L 697.556725 368.845202 
L 701.317525 369.777538 
L 701.317525 369.777538 
" style="fill:none;stroke:#1f77b4;stroke-linecap:square;stroke-width:1.5;"/>
   </g>
   <g id="line2d_48">
    <path clip-path="url(#p8f3411434a)" d="M 407.3875 383.345455 
L 407.740075 383.228105 
L 408.210175 382.731798 
L 408.7978 381.676771 
L 409.620475 379.633642 
L 410.795725 375.991981 
L 413.616325 367.050271 
L 414.9091 363.732014 
L 415.966825 361.588349 
L 416.907025 360.178981 
L 417.7297 359.342554 
L 418.43485 358.912805 
L 419.14 358.732804 
L 419.84515 358.7835 
L 420.5503 359.044087 
L 421.372975 359.585484 
L 422.313175 360.478181 
L 423.488425 361.939178 
L 424.898725 364.088487 
L 426.779125 367.395951 
L 431.8327 376.492309 
L 433.47805 378.906634 
L 434.88835 380.605855 
L 436.181125 381.823886 
L 437.356375 382.62985 
L 438.4141 383.100536 
L 439.471825 383.325093 
L 440.52955 383.301415 
L 441.587275 383.029576 
L 442.645 382.511618 
L 443.702725 381.751437 
L 444.877975 380.629647 
L 446.17075 379.070689 
L 447.58105 377.001326 
L 449.108875 374.355574 
L 450.87175 370.830894 
L 452.869675 366.306367 
L 455.220175 360.398894 
L 458.1583 352.375257 
L 462.8593 338.788216 
L 469.323175 320.227568 
L 473.083975 310.121921 
L 476.374675 301.909481 
L 479.3128 295.149605 
L 482.1334 289.209902 
L 484.71895 284.261086 
L 487.186975 279.992611 
L 489.537475 276.347518 
L 491.887975 273.114822 
L 494.12095 270.424949 
L 496.2364 268.216098 
L 498.35185 266.332408 
L 500.349775 264.845681 
L 502.3477 263.635486 
L 504.345625 262.693245 
L 506.226025 262.042542 
L 508.22395 261.591932 
L 510.221875 261.378208 
L 512.2198 261.389355 
L 514.33525 261.632388 
L 516.4507 262.098352 
L 518.683675 262.815053 
L 521.034175 263.799378 
L 523.619725 265.129896 
L 526.440325 266.846294 
L 529.495975 268.979084 
L 532.9042 271.6439 
L 536.665 274.871957 
L 541.13095 279.008591 
L 546.77215 284.559144 
L 555.70405 293.709874 
L 567.45655 305.687608 
L 574.50805 312.546982 
L 580.736875 318.299394 
L 586.613125 323.42447 
L 592.254325 328.052169 
L 597.778 332.300841 
L 603.301675 336.272197 
L 608.82535 339.973754 
L 614.46655 343.487193 
L 620.225275 346.810526 
L 626.101525 349.944859 
L 632.212825 352.949207 
L 638.44165 355.764609 
L 645.02305 358.491933 
L 651.8395 361.072902 
L 659.008525 363.545104 
L 666.4126 365.862752 
L 674.16925 368.058688 
L 682.278475 370.124377 
L 690.740275 372.051788 
L 699.55465 373.833051 
L 701.317525 374.163261 
L 701.317525 374.163261 
" style="fill:none;stroke:#ff7f0e;stroke-linecap:square;stroke-width:1.5;"/>
   </g>
   <g id="line2d_49">
    <path clip-path="url(#p8f3411434a)" d="M 407.3875 383.345455 
L 407.740075 383.196662 
L 408.09265 382.770536 
L 408.56275 381.854039 
L 409.2679 379.943974 
L 410.325625 376.301409 
L 413.0287 366.661049 
L 414.20395 363.332517 
L 415.14415 361.266049 
L 415.966825 359.951338 
L 416.671975 359.1997 
L 417.377125 358.78242 
L 417.96475 358.673805 
L 418.552375 358.765235 
L 419.257525 359.11457 
L 420.0802 359.814973 
L 421.0204 360.946599 
L 422.19565 362.765398 
L 423.60595 365.384669 
L 426.073975 370.539402 
L 428.659525 375.785753 
L 430.304875 378.62243 
L 431.59765 380.444769 
L 432.7729 381.741321 
L 433.830625 382.59146 
L 434.770825 383.083853 
L 435.711025 383.322089 
L 436.5337 383.319301 
L 437.356375 383.118391 
L 438.296575 382.646677 
L 439.236775 381.919035 
L 440.2945 380.799886 
L 441.46975 379.193697 
L 442.762525 377.004896 
L 444.172825 374.144213 
L 445.70065 370.536336 
L 447.463525 365.794686 
L 449.578975 359.425909 
L 452.164525 350.890819 
L 455.925325 337.621045 
L 463.7995 309.695371 
L 467.32525 298.120679 
L 470.3809 288.843418 
L 473.083975 281.308581 
L 475.669525 274.742546 
L 478.020025 269.346846 
L 480.253 264.74424 
L 482.36845 260.863705 
L 484.366375 257.631396 
L 486.3643 254.819451 
L 488.2447 252.554004 
L 490.007575 250.760984 
L 491.77045 249.281734 
L 493.4158 248.177182 
L 495.06115 247.331354 
L 496.7065 246.735554 
L 498.35185 246.3802 
L 499.9972 246.25497 
L 501.64255 246.348938 
L 503.405425 246.679911 
L 505.1683 247.234995 
L 507.0487 248.05753 
L 509.046625 249.172399 
L 511.2796 250.686209 
L 513.6301 252.553621 
L 516.21565 254.892792 
L 519.153775 257.860503 
L 522.562 261.640343 
L 526.55785 266.423608 
L 531.72895 272.98783 
L 542.7763 287.500285 
L 550.180375 296.995473 
L 555.9391 304.025298 
L 561.1102 309.998651 
L 566.04625 315.369814 
L 570.864775 320.289361 
L 575.6833 324.88831 
L 580.3843 329.072971 
L 585.202825 333.065074 
L 590.02135 336.772642 
L 594.9574 340.295054 
L 600.1285 343.708761 
L 605.417125 346.932198 
L 610.9408 350.036287 
L 616.699525 353.014545 
L 622.6933 355.862961 
L 629.03965 358.62816 
L 635.62105 361.251126 
L 642.555025 363.771878 
L 649.72405 366.140755 
L 657.24565 368.389449 
L 665.0023 370.475041 
L 672.994 372.394596 
L 681.338275 374.1684 
L 689.9176 375.76435 
L 698.8495 377.199049 
L 701.317525 377.557208 
L 701.317525 377.557208 
" style="fill:none;stroke:#2ca02c;stroke-linecap:square;stroke-width:1.5;"/>
   </g>
   <g id="patch_14">
    <path d="M 407.3875 390.2 
L 407.3875 239.4 
" style="fill:none;stroke:#000000;stroke-linecap:square;stroke-linejoin:miter;stroke-width:0.8;"/>
   </g>
   <g id="patch_15">
    <path d="M 701.2 390.2 
L 701.2 239.4 
" style="fill:none;stroke:#000000;stroke-linecap:square;stroke-linejoin:miter;stroke-width:0.8;"/>
   </g>
   <g id="patch_16">
    <path d="M 407.3875 390.2 
L 701.2 390.2 
" style="fill:none;stroke:#000000;stroke-linecap:square;stroke-linejoin:miter;stroke-width:0.8;"/>
   </g>
   <g id="patch_17">
    <path d="M 407.3875 239.4 
L 701.2 239.4 
" style="fill:none;stroke:#000000;stroke-linecap:square;stroke-linejoin:miter;stroke-width:0.8;"/>
   </g>
   <g id="text_46">
    <!-- MO$_{\beta 2}$ ($2a_1$) -->
    <g transform="translate(521.89375 233.4)scale(0.12 -0.12)">
     <defs>
      <path d="M 13.625 3.375 
L 8.9375 -20.796875 
L -0.09375 -20.796875 
L 14.5 54.34375 
Q 18.84375 76.609375 39.65625 76.609375 
Q 60.75 76.609375 57.171875 57.8125 
Q 54.734375 44.4375 45.21875 39.546875 
Q 58.015625 35.15625 55.515625 22.125 
Q 51.125 -1.078125 27.484375 -1.03125 
Q 17.140625 -0.984375 13.625 3.375 
z
M 15.921875 15.09375 
Q 19.671875 6.59375 29.296875 6.640625 
Q 43.359375 6.640625 46.34375 21.96875 
Q 49.03125 35.75 26.171875 34.671875 
L 27.78125 42.96875 
Q 45.453125 42.671875 48.53125 58.59375 
Q 50.640625 69.34375 39.203125 69.28125 
Q 26.421875 69.28125 23.484375 54.046875 
z
" id="DejaVuSans-Oblique-946"/>
     </defs>
     <use transform="translate(0 0.125)" xlink:href="#DejaVuSans-77"/>
     <use transform="translate(86.279297 0.125)" xlink:href="#DejaVuSans-79"/>
     <use transform="translate(165.947266 -16.28125)scale(0.7)" xlink:href="#DejaVuSans-Oblique-946"/>
     <use transform="translate(210.620117 -16.28125)scale(0.7)" xlink:href="#DejaVuSans-50"/>
     <use transform="translate(257.890625 0.125)" xlink:href="#DejaVuSans-32"/>
     <use transform="translate(289.677734 0.125)" xlink:href="#DejaVuSans-40"/>
     <use transform="translate(328.691406 0.125)" xlink:href="#DejaVuSans-50"/>
     <use transform="translate(392.314453 0.125)" xlink:href="#DejaVuSans-Oblique-97"/>
     <use transform="translate(453.59375 -16.28125)scale(0.7)" xlink:href="#DejaVuSans-49"/>
     <use transform="translate(500.864258 0.125)" xlink:href="#DejaVuSans-41"/>
    </g>
   </g>
  </g>
 </g>
 <defs>
  <clipPath id="p831d5e52f4">
   <rect height="150.8" width="293.8125" x="53.6" y="28.8"/>
  </clipPath>
  <clipPath id="pd6ed802c6d">
   <rect height="150.8" width="293.8125" x="407.3875" y="28.8"/>
  </clipPath>
  <clipPath id="p8f3411434a">
   <rect height="150.8" width="293.8125" x="407.3875" y="239.4"/>
  </clipPath>
 </defs>
</svg>
