<?xml version="1.0" encoding="utf-8" standalone="no"?>
<!DOCTYPE svg PUBLIC "-//W3C//DTD SVG 1.1//EN"
  "http://www.w3.org/Graphics/SVG/1.1/DTD/svg11.dtd">
<svg xmlns:xlink="http://www.w3.org/1999/xlink" width="432pt" height="216pt" viewBox="0 0 432 216" xmlns="http://www.w3.org/2000/svg" version="1.1">
 <metadata>
  <rdf:RDF xmlns:dc="http://purl.org/dc/elements/1.1/" xmlns:cc="http://creativecommons.org/ns#" xmlns:rdf="http://www.w3.org/1999/02/22-rdf-syntax-ns#">
   <cc:Work>
    <dc:type rdf:resource="http://purl.org/dc/dcmitype/StillImage"/>
    <dc:date>2022-06-16T15:33:55.594902</dc:date>
    <dc:format>image/svg+xml</dc:format>
    <dc:creator>
     <cc:Agent>
      <dc:title>Matplotlib v3.5.1, https://matplotlib.org/</dc:title>
     </cc:Agent>
    </dc:creator>
   </cc:Work>
  </rdf:RDF>
 </metadata>
 <defs>
  <style type="text/css">*{stroke-linejoin: round; stroke-linecap: butt}</style>
 </defs>
 <g id="figure_1">
  <g id="patch_1">
   <path d="M 0 216 
L 432 216 
L 432 0 
L 0 0 
L 0 216 
z
" style="fill: none"/>
  </g>
  <g id="axes_1">
   <g id="patch_2">
    <path d="M 54 189 
L 388.8 189 
L 388.8 25.92 
L 54 25.92 
z
" style="fill: #ffffff"/>
   </g>
   <g id="matplotlib.axis_1">
    <g id="xtick_1">
     <g id="line2d_1">
      <defs>
       <path id="m2833e6ee4b" d="M 0 0 
L 0 3.5 
" style="stroke: #000000; stroke-width: 0.8"/>
      </defs>
      <g>
       <use xlink:href="#m2833e6ee4b" x="93.698243" y="189" style="stroke: #000000; stroke-width: 0.8"/>
      </g>
     </g>
     <g id="text_1">
      <!-- 530 -->
      <g transform="translate(84.154493 203.598437)scale(0.1 -0.1)">
       <defs>
        <path id="DejaVuSans-35" d="M 691 4666 
L 3169 4666 
L 3169 4134 
L 1269 4134 
L 1269 2991 
Q 1406 3038 1543 3061 
Q 1681 3084 1819 3084 
Q 2600 3084 3056 2656 
Q 3513 2228 3513 1497 
Q 3513 744 3044 326 
Q 2575 -91 1722 -91 
Q 1428 -91 1123 -41 
Q 819 9 494 109 
L 494 744 
Q 775 591 1075 516 
Q 1375 441 1709 441 
Q 2250 441 2565 725 
Q 2881 1009 2881 1497 
Q 2881 1984 2565 2268 
Q 2250 2553 1709 2553 
Q 1456 2553 1204 2497 
Q 953 2441 691 2322 
L 691 4666 
z
" transform="scale(0.015625)"/>
        <path id="DejaVuSans-33" d="M 2597 2516 
Q 3050 2419 3304 2112 
Q 3559 1806 3559 1356 
Q 3559 666 3084 287 
Q 2609 -91 1734 -91 
Q 1441 -91 1130 -33 
Q 819 25 488 141 
L 488 750 
Q 750 597 1062 519 
Q 1375 441 1716 441 
Q 2309 441 2620 675 
Q 2931 909 2931 1356 
Q 2931 1769 2642 2001 
Q 2353 2234 1838 2234 
L 1294 2234 
L 1294 2753 
L 1863 2753 
Q 2328 2753 2575 2939 
Q 2822 3125 2822 3475 
Q 2822 3834 2567 4026 
Q 2313 4219 1838 4219 
Q 1578 4219 1281 4162 
Q 984 4106 628 3988 
L 628 4550 
Q 988 4650 1302 4700 
Q 1616 4750 1894 4750 
Q 2613 4750 3031 4423 
Q 3450 4097 3450 3541 
Q 3450 3153 3228 2886 
Q 3006 2619 2597 2516 
z
" transform="scale(0.015625)"/>
        <path id="DejaVuSans-30" d="M 2034 4250 
Q 1547 4250 1301 3770 
Q 1056 3291 1056 2328 
Q 1056 1369 1301 889 
Q 1547 409 2034 409 
Q 2525 409 2770 889 
Q 3016 1369 3016 2328 
Q 3016 3291 2770 3770 
Q 2525 4250 2034 4250 
z
M 2034 4750 
Q 2819 4750 3233 4129 
Q 3647 3509 3647 2328 
Q 3647 1150 3233 529 
Q 2819 -91 2034 -91 
Q 1250 -91 836 529 
Q 422 1150 422 2328 
Q 422 3509 836 4129 
Q 1250 4750 2034 4750 
z
" transform="scale(0.015625)"/>
       </defs>
       <use xlink:href="#DejaVuSans-35"/>
       <use xlink:href="#DejaVuSans-33" x="63.623047"/>
       <use xlink:href="#DejaVuSans-30" x="127.246094"/>
      </g>
     </g>
    </g>
    <g id="xtick_2">
     <g id="line2d_2">
      <g>
       <use xlink:href="#m2833e6ee4b" x="135.413879" y="189" style="stroke: #000000; stroke-width: 0.8"/>
      </g>
     </g>
     <g id="text_2">
      <!-- 535 -->
      <g transform="translate(125.870129 203.598437)scale(0.1 -0.1)">
       <use xlink:href="#DejaVuSans-35"/>
       <use xlink:href="#DejaVuSans-33" x="63.623047"/>
       <use xlink:href="#DejaVuSans-35" x="127.246094"/>
      </g>
     </g>
    </g>
    <g id="xtick_3">
     <g id="line2d_3">
      <g>
       <use xlink:href="#m2833e6ee4b" x="177.129515" y="189" style="stroke: #000000; stroke-width: 0.8"/>
      </g>
     </g>
     <g id="text_3">
      <!-- 540 -->
      <g transform="translate(167.585765 203.598437)scale(0.1 -0.1)">
       <defs>
        <path id="DejaVuSans-34" d="M 2419 4116 
L 825 1625 
L 2419 1625 
L 2419 4116 
z
M 2253 4666 
L 3047 4666 
L 3047 1625 
L 3713 1625 
L 3713 1100 
L 3047 1100 
L 3047 0 
L 2419 0 
L 2419 1100 
L 313 1100 
L 313 1709 
L 2253 4666 
z
" transform="scale(0.015625)"/>
       </defs>
       <use xlink:href="#DejaVuSans-35"/>
       <use xlink:href="#DejaVuSans-34" x="63.623047"/>
       <use xlink:href="#DejaVuSans-30" x="127.246094"/>
      </g>
     </g>
    </g>
    <g id="xtick_4">
     <g id="line2d_4">
      <g>
       <use xlink:href="#m2833e6ee4b" x="218.845151" y="189" style="stroke: #000000; stroke-width: 0.8"/>
      </g>
     </g>
     <g id="text_4">
      <!-- 545 -->
      <g transform="translate(209.301401 203.598437)scale(0.1 -0.1)">
       <use xlink:href="#DejaVuSans-35"/>
       <use xlink:href="#DejaVuSans-34" x="63.623047"/>
       <use xlink:href="#DejaVuSans-35" x="127.246094"/>
      </g>
     </g>
    </g>
    <g id="xtick_5">
     <g id="line2d_5">
      <g>
       <use xlink:href="#m2833e6ee4b" x="260.560787" y="189" style="stroke: #000000; stroke-width: 0.8"/>
      </g>
     </g>
     <g id="text_5">
      <!-- 550 -->
      <g transform="translate(251.017037 203.598437)scale(0.1 -0.1)">
       <use xlink:href="#DejaVuSans-35"/>
       <use xlink:href="#DejaVuSans-35" x="63.623047"/>
       <use xlink:href="#DejaVuSans-30" x="127.246094"/>
      </g>
     </g>
    </g>
    <g id="xtick_6">
     <g id="line2d_6">
      <g>
       <use xlink:href="#m2833e6ee4b" x="302.276423" y="189" style="stroke: #000000; stroke-width: 0.8"/>
      </g>
     </g>
     <g id="text_6">
      <!-- 555 -->
      <g transform="translate(292.732673 203.598437)scale(0.1 -0.1)">
       <use xlink:href="#DejaVuSans-35"/>
       <use xlink:href="#DejaVuSans-35" x="63.623047"/>
       <use xlink:href="#DejaVuSans-35" x="127.246094"/>
      </g>
     </g>
    </g>
    <g id="xtick_7">
     <g id="line2d_7">
      <g>
       <use xlink:href="#m2833e6ee4b" x="343.99206" y="189" style="stroke: #000000; stroke-width: 0.8"/>
      </g>
     </g>
     <g id="text_7">
      <!-- 560 -->
      <g transform="translate(334.44831 203.598437)scale(0.1 -0.1)">
       <defs>
        <path id="DejaVuSans-36" d="M 2113 2584 
Q 1688 2584 1439 2293 
Q 1191 2003 1191 1497 
Q 1191 994 1439 701 
Q 1688 409 2113 409 
Q 2538 409 2786 701 
Q 3034 994 3034 1497 
Q 3034 2003 2786 2293 
Q 2538 2584 2113 2584 
z
M 3366 4563 
L 3366 3988 
Q 3128 4100 2886 4159 
Q 2644 4219 2406 4219 
Q 1781 4219 1451 3797 
Q 1122 3375 1075 2522 
Q 1259 2794 1537 2939 
Q 1816 3084 2150 3084 
Q 2853 3084 3261 2657 
Q 3669 2231 3669 1497 
Q 3669 778 3244 343 
Q 2819 -91 2113 -91 
Q 1303 -91 875 529 
Q 447 1150 447 2328 
Q 447 3434 972 4092 
Q 1497 4750 2381 4750 
Q 2619 4750 2861 4703 
Q 3103 4656 3366 4563 
z
" transform="scale(0.015625)"/>
       </defs>
       <use xlink:href="#DejaVuSans-35"/>
       <use xlink:href="#DejaVuSans-36" x="63.623047"/>
       <use xlink:href="#DejaVuSans-30" x="127.246094"/>
      </g>
     </g>
    </g>
    <g id="xtick_8">
     <g id="line2d_8">
      <g>
       <use xlink:href="#m2833e6ee4b" x="385.707696" y="189" style="stroke: #000000; stroke-width: 0.8"/>
      </g>
     </g>
     <g id="text_8">
      <!-- 565 -->
      <g transform="translate(376.163946 203.598437)scale(0.1 -0.1)">
       <use xlink:href="#DejaVuSans-35"/>
       <use xlink:href="#DejaVuSans-36" x="63.623047"/>
       <use xlink:href="#DejaVuSans-35" x="127.246094"/>
      </g>
     </g>
    </g>
    <g id="text_9">
     <!-- Energy (eV) -->
     <g transform="translate(191.90625 217.276563)scale(0.1 -0.1)">
      <defs>
       <path id="DejaVuSans-45" d="M 628 4666 
L 3578 4666 
L 3578 4134 
L 1259 4134 
L 1259 2753 
L 3481 2753 
L 3481 2222 
L 1259 2222 
L 1259 531 
L 3634 531 
L 3634 0 
L 628 0 
L 628 4666 
z
" transform="scale(0.015625)"/>
       <path id="DejaVuSans-6e" d="M 3513 2113 
L 3513 0 
L 2938 0 
L 2938 2094 
Q 2938 2591 2744 2837 
Q 2550 3084 2163 3084 
Q 1697 3084 1428 2787 
Q 1159 2491 1159 1978 
L 1159 0 
L 581 0 
L 581 3500 
L 1159 3500 
L 1159 2956 
Q 1366 3272 1645 3428 
Q 1925 3584 2291 3584 
Q 2894 3584 3203 3211 
Q 3513 2838 3513 2113 
z
" transform="scale(0.015625)"/>
       <path id="DejaVuSans-65" d="M 3597 1894 
L 3597 1613 
L 953 1613 
Q 991 1019 1311 708 
Q 1631 397 2203 397 
Q 2534 397 2845 478 
Q 3156 559 3463 722 
L 3463 178 
Q 3153 47 2828 -22 
Q 2503 -91 2169 -91 
Q 1331 -91 842 396 
Q 353 884 353 1716 
Q 353 2575 817 3079 
Q 1281 3584 2069 3584 
Q 2775 3584 3186 3129 
Q 3597 2675 3597 1894 
z
M 3022 2063 
Q 3016 2534 2758 2815 
Q 2500 3097 2075 3097 
Q 1594 3097 1305 2825 
Q 1016 2553 972 2059 
L 3022 2063 
z
" transform="scale(0.015625)"/>
       <path id="DejaVuSans-72" d="M 2631 2963 
Q 2534 3019 2420 3045 
Q 2306 3072 2169 3072 
Q 1681 3072 1420 2755 
Q 1159 2438 1159 1844 
L 1159 0 
L 581 0 
L 581 3500 
L 1159 3500 
L 1159 2956 
Q 1341 3275 1631 3429 
Q 1922 3584 2338 3584 
Q 2397 3584 2469 3576 
Q 2541 3569 2628 3553 
L 2631 2963 
z
" transform="scale(0.015625)"/>
       <path id="DejaVuSans-67" d="M 2906 1791 
Q 2906 2416 2648 2759 
Q 2391 3103 1925 3103 
Q 1463 3103 1205 2759 
Q 947 2416 947 1791 
Q 947 1169 1205 825 
Q 1463 481 1925 481 
Q 2391 481 2648 825 
Q 2906 1169 2906 1791 
z
M 3481 434 
Q 3481 -459 3084 -895 
Q 2688 -1331 1869 -1331 
Q 1566 -1331 1297 -1286 
Q 1028 -1241 775 -1147 
L 775 -588 
Q 1028 -725 1275 -790 
Q 1522 -856 1778 -856 
Q 2344 -856 2625 -561 
Q 2906 -266 2906 331 
L 2906 616 
Q 2728 306 2450 153 
Q 2172 0 1784 0 
Q 1141 0 747 490 
Q 353 981 353 1791 
Q 353 2603 747 3093 
Q 1141 3584 1784 3584 
Q 2172 3584 2450 3431 
Q 2728 3278 2906 2969 
L 2906 3500 
L 3481 3500 
L 3481 434 
z
" transform="scale(0.015625)"/>
       <path id="DejaVuSans-79" d="M 2059 -325 
Q 1816 -950 1584 -1140 
Q 1353 -1331 966 -1331 
L 506 -1331 
L 506 -850 
L 844 -850 
Q 1081 -850 1212 -737 
Q 1344 -625 1503 -206 
L 1606 56 
L 191 3500 
L 800 3500 
L 1894 763 
L 2988 3500 
L 3597 3500 
L 2059 -325 
z
" transform="scale(0.015625)"/>
       <path id="DejaVuSans-20" transform="scale(0.015625)"/>
       <path id="DejaVuSans-28" d="M 1984 4856 
Q 1566 4138 1362 3434 
Q 1159 2731 1159 2009 
Q 1159 1288 1364 580 
Q 1569 -128 1984 -844 
L 1484 -844 
Q 1016 -109 783 600 
Q 550 1309 550 2009 
Q 550 2706 781 3412 
Q 1013 4119 1484 4856 
L 1984 4856 
z
" transform="scale(0.015625)"/>
       <path id="DejaVuSans-56" d="M 1831 0 
L 50 4666 
L 709 4666 
L 2188 738 
L 3669 4666 
L 4325 4666 
L 2547 0 
L 1831 0 
z
" transform="scale(0.015625)"/>
       <path id="DejaVuSans-29" d="M 513 4856 
L 1013 4856 
Q 1481 4119 1714 3412 
Q 1947 2706 1947 2009 
Q 1947 1309 1714 600 
Q 1481 -109 1013 -844 
L 513 -844 
Q 928 -128 1133 580 
Q 1338 1288 1338 2009 
Q 1338 2731 1133 3434 
Q 928 4138 513 4856 
z
" transform="scale(0.015625)"/>
      </defs>
      <use xlink:href="#DejaVuSans-45"/>
      <use xlink:href="#DejaVuSans-6e" x="63.183594"/>
      <use xlink:href="#DejaVuSans-65" x="126.5625"/>
      <use xlink:href="#DejaVuSans-72" x="188.085938"/>
      <use xlink:href="#DejaVuSans-67" x="227.449219"/>
      <use xlink:href="#DejaVuSans-79" x="290.925781"/>
      <use xlink:href="#DejaVuSans-20" x="350.105469"/>
      <use xlink:href="#DejaVuSans-28" x="381.892578"/>
      <use xlink:href="#DejaVuSans-65" x="420.90625"/>
      <use xlink:href="#DejaVuSans-56" x="482.429688"/>
      <use xlink:href="#DejaVuSans-29" x="550.837891"/>
     </g>
    </g>
   </g>
   <g id="matplotlib.axis_2">
    <g id="ytick_1">
     <g id="line2d_9">
      <defs>
       <path id="mb7a8d5a5d6" d="M 0 0 
L -3.5 0 
" style="stroke: #000000; stroke-width: 0.8"/>
      </defs>
      <g>
       <use xlink:href="#mb7a8d5a5d6" x="54" y="181.587273" style="stroke: #000000; stroke-width: 0.8"/>
      </g>
     </g>
     <g id="text_10">
      <!-- 0.000 -->
      <g transform="translate(18.371875 185.386491)scale(0.1 -0.1)">
       <defs>
        <path id="DejaVuSans-2e" d="M 684 794 
L 1344 794 
L 1344 0 
L 684 0 
L 684 794 
z
" transform="scale(0.015625)"/>
       </defs>
       <use xlink:href="#DejaVuSans-30"/>
       <use xlink:href="#DejaVuSans-2e" x="63.623047"/>
       <use xlink:href="#DejaVuSans-30" x="95.410156"/>
       <use xlink:href="#DejaVuSans-30" x="159.033203"/>
       <use xlink:href="#DejaVuSans-30" x="222.65625"/>
      </g>
     </g>
    </g>
    <g id="ytick_2">
     <g id="line2d_10">
      <g>
       <use xlink:href="#mb7a8d5a5d6" x="54" y="146.787957" style="stroke: #000000; stroke-width: 0.8"/>
      </g>
     </g>
     <g id="text_11">
      <!-- 0.002 -->
      <g transform="translate(18.371875 150.587175)scale(0.1 -0.1)">
       <defs>
        <path id="DejaVuSans-32" d="M 1228 531 
L 3431 531 
L 3431 0 
L 469 0 
L 469 531 
Q 828 903 1448 1529 
Q 2069 2156 2228 2338 
Q 2531 2678 2651 2914 
Q 2772 3150 2772 3378 
Q 2772 3750 2511 3984 
Q 2250 4219 1831 4219 
Q 1534 4219 1204 4116 
Q 875 4013 500 3803 
L 500 4441 
Q 881 4594 1212 4672 
Q 1544 4750 1819 4750 
Q 2544 4750 2975 4387 
Q 3406 4025 3406 3419 
Q 3406 3131 3298 2873 
Q 3191 2616 2906 2266 
Q 2828 2175 2409 1742 
Q 1991 1309 1228 531 
z
" transform="scale(0.015625)"/>
       </defs>
       <use xlink:href="#DejaVuSans-30"/>
       <use xlink:href="#DejaVuSans-2e" x="63.623047"/>
       <use xlink:href="#DejaVuSans-30" x="95.410156"/>
       <use xlink:href="#DejaVuSans-30" x="159.033203"/>
       <use xlink:href="#DejaVuSans-32" x="222.65625"/>
      </g>
     </g>
    </g>
    <g id="ytick_3">
     <g id="line2d_11">
      <g>
       <use xlink:href="#mb7a8d5a5d6" x="54" y="111.98864" style="stroke: #000000; stroke-width: 0.8"/>
      </g>
     </g>
     <g id="text_12">
      <!-- 0.004 -->
      <g transform="translate(18.371875 115.787859)scale(0.1 -0.1)">
       <use xlink:href="#DejaVuSans-30"/>
       <use xlink:href="#DejaVuSans-2e" x="63.623047"/>
       <use xlink:href="#DejaVuSans-30" x="95.410156"/>
       <use xlink:href="#DejaVuSans-30" x="159.033203"/>
       <use xlink:href="#DejaVuSans-34" x="222.65625"/>
      </g>
     </g>
    </g>
    <g id="ytick_4">
     <g id="line2d_12">
      <g>
       <use xlink:href="#mb7a8d5a5d6" x="54" y="77.189324" style="stroke: #000000; stroke-width: 0.8"/>
      </g>
     </g>
     <g id="text_13">
      <!-- 0.006 -->
      <g transform="translate(18.371875 80.988543)scale(0.1 -0.1)">
       <use xlink:href="#DejaVuSans-30"/>
       <use xlink:href="#DejaVuSans-2e" x="63.623047"/>
       <use xlink:href="#DejaVuSans-30" x="95.410156"/>
       <use xlink:href="#DejaVuSans-30" x="159.033203"/>
       <use xlink:href="#DejaVuSans-36" x="222.65625"/>
      </g>
     </g>
    </g>
    <g id="ytick_5">
     <g id="line2d_13">
      <g>
       <use xlink:href="#mb7a8d5a5d6" x="54" y="42.390008" style="stroke: #000000; stroke-width: 0.8"/>
      </g>
     </g>
     <g id="text_14">
      <!-- 0.008 -->
      <g transform="translate(18.371875 46.189227)scale(0.1 -0.1)">
       <defs>
        <path id="DejaVuSans-38" d="M 2034 2216 
Q 1584 2216 1326 1975 
Q 1069 1734 1069 1313 
Q 1069 891 1326 650 
Q 1584 409 2034 409 
Q 2484 409 2743 651 
Q 3003 894 3003 1313 
Q 3003 1734 2745 1975 
Q 2488 2216 2034 2216 
z
M 1403 2484 
Q 997 2584 770 2862 
Q 544 3141 544 3541 
Q 544 4100 942 4425 
Q 1341 4750 2034 4750 
Q 2731 4750 3128 4425 
Q 3525 4100 3525 3541 
Q 3525 3141 3298 2862 
Q 3072 2584 2669 2484 
Q 3125 2378 3379 2068 
Q 3634 1759 3634 1313 
Q 3634 634 3220 271 
Q 2806 -91 2034 -91 
Q 1263 -91 848 271 
Q 434 634 434 1313 
Q 434 1759 690 2068 
Q 947 2378 1403 2484 
z
M 1172 3481 
Q 1172 3119 1398 2916 
Q 1625 2713 2034 2713 
Q 2441 2713 2670 2916 
Q 2900 3119 2900 3481 
Q 2900 3844 2670 4047 
Q 2441 4250 2034 4250 
Q 1625 4250 1398 4047 
Q 1172 3844 1172 3481 
z
" transform="scale(0.015625)"/>
       </defs>
       <use xlink:href="#DejaVuSans-30"/>
       <use xlink:href="#DejaVuSans-2e" x="63.623047"/>
       <use xlink:href="#DejaVuSans-30" x="95.410156"/>
       <use xlink:href="#DejaVuSans-30" x="159.033203"/>
       <use xlink:href="#DejaVuSans-38" x="222.65625"/>
      </g>
     </g>
    </g>
    <g id="text_15">
     <!-- Cross section (au) -->
     <g transform="translate(12.292187 152.483437)rotate(-90)scale(0.1 -0.1)">
      <defs>
       <path id="DejaVuSans-43" d="M 4122 4306 
L 4122 3641 
Q 3803 3938 3442 4084 
Q 3081 4231 2675 4231 
Q 1875 4231 1450 3742 
Q 1025 3253 1025 2328 
Q 1025 1406 1450 917 
Q 1875 428 2675 428 
Q 3081 428 3442 575 
Q 3803 722 4122 1019 
L 4122 359 
Q 3791 134 3420 21 
Q 3050 -91 2638 -91 
Q 1578 -91 968 557 
Q 359 1206 359 2328 
Q 359 3453 968 4101 
Q 1578 4750 2638 4750 
Q 3056 4750 3426 4639 
Q 3797 4528 4122 4306 
z
" transform="scale(0.015625)"/>
       <path id="DejaVuSans-6f" d="M 1959 3097 
Q 1497 3097 1228 2736 
Q 959 2375 959 1747 
Q 959 1119 1226 758 
Q 1494 397 1959 397 
Q 2419 397 2687 759 
Q 2956 1122 2956 1747 
Q 2956 2369 2687 2733 
Q 2419 3097 1959 3097 
z
M 1959 3584 
Q 2709 3584 3137 3096 
Q 3566 2609 3566 1747 
Q 3566 888 3137 398 
Q 2709 -91 1959 -91 
Q 1206 -91 779 398 
Q 353 888 353 1747 
Q 353 2609 779 3096 
Q 1206 3584 1959 3584 
z
" transform="scale(0.015625)"/>
       <path id="DejaVuSans-73" d="M 2834 3397 
L 2834 2853 
Q 2591 2978 2328 3040 
Q 2066 3103 1784 3103 
Q 1356 3103 1142 2972 
Q 928 2841 928 2578 
Q 928 2378 1081 2264 
Q 1234 2150 1697 2047 
L 1894 2003 
Q 2506 1872 2764 1633 
Q 3022 1394 3022 966 
Q 3022 478 2636 193 
Q 2250 -91 1575 -91 
Q 1294 -91 989 -36 
Q 684 19 347 128 
L 347 722 
Q 666 556 975 473 
Q 1284 391 1588 391 
Q 1994 391 2212 530 
Q 2431 669 2431 922 
Q 2431 1156 2273 1281 
Q 2116 1406 1581 1522 
L 1381 1569 
Q 847 1681 609 1914 
Q 372 2147 372 2553 
Q 372 3047 722 3315 
Q 1072 3584 1716 3584 
Q 2034 3584 2315 3537 
Q 2597 3491 2834 3397 
z
" transform="scale(0.015625)"/>
       <path id="DejaVuSans-63" d="M 3122 3366 
L 3122 2828 
Q 2878 2963 2633 3030 
Q 2388 3097 2138 3097 
Q 1578 3097 1268 2742 
Q 959 2388 959 1747 
Q 959 1106 1268 751 
Q 1578 397 2138 397 
Q 2388 397 2633 464 
Q 2878 531 3122 666 
L 3122 134 
Q 2881 22 2623 -34 
Q 2366 -91 2075 -91 
Q 1284 -91 818 406 
Q 353 903 353 1747 
Q 353 2603 823 3093 
Q 1294 3584 2113 3584 
Q 2378 3584 2631 3529 
Q 2884 3475 3122 3366 
z
" transform="scale(0.015625)"/>
       <path id="DejaVuSans-74" d="M 1172 4494 
L 1172 3500 
L 2356 3500 
L 2356 3053 
L 1172 3053 
L 1172 1153 
Q 1172 725 1289 603 
Q 1406 481 1766 481 
L 2356 481 
L 2356 0 
L 1766 0 
Q 1100 0 847 248 
Q 594 497 594 1153 
L 594 3053 
L 172 3053 
L 172 3500 
L 594 3500 
L 594 4494 
L 1172 4494 
z
" transform="scale(0.015625)"/>
       <path id="DejaVuSans-69" d="M 603 3500 
L 1178 3500 
L 1178 0 
L 603 0 
L 603 3500 
z
M 603 4863 
L 1178 4863 
L 1178 4134 
L 603 4134 
L 603 4863 
z
" transform="scale(0.015625)"/>
       <path id="DejaVuSans-61" d="M 2194 1759 
Q 1497 1759 1228 1600 
Q 959 1441 959 1056 
Q 959 750 1161 570 
Q 1363 391 1709 391 
Q 2188 391 2477 730 
Q 2766 1069 2766 1631 
L 2766 1759 
L 2194 1759 
z
M 3341 1997 
L 3341 0 
L 2766 0 
L 2766 531 
Q 2569 213 2275 61 
Q 1981 -91 1556 -91 
Q 1019 -91 701 211 
Q 384 513 384 1019 
Q 384 1609 779 1909 
Q 1175 2209 1959 2209 
L 2766 2209 
L 2766 2266 
Q 2766 2663 2505 2880 
Q 2244 3097 1772 3097 
Q 1472 3097 1187 3025 
Q 903 2953 641 2809 
L 641 3341 
Q 956 3463 1253 3523 
Q 1550 3584 1831 3584 
Q 2591 3584 2966 3190 
Q 3341 2797 3341 1997 
z
" transform="scale(0.015625)"/>
       <path id="DejaVuSans-75" d="M 544 1381 
L 544 3500 
L 1119 3500 
L 1119 1403 
Q 1119 906 1312 657 
Q 1506 409 1894 409 
Q 2359 409 2629 706 
Q 2900 1003 2900 1516 
L 2900 3500 
L 3475 3500 
L 3475 0 
L 2900 0 
L 2900 538 
Q 2691 219 2414 64 
Q 2138 -91 1772 -91 
Q 1169 -91 856 284 
Q 544 659 544 1381 
z
M 1991 3584 
L 1991 3584 
z
" transform="scale(0.015625)"/>
      </defs>
      <use xlink:href="#DejaVuSans-43"/>
      <use xlink:href="#DejaVuSans-72" x="69.824219"/>
      <use xlink:href="#DejaVuSans-6f" x="108.6875"/>
      <use xlink:href="#DejaVuSans-73" x="169.869141"/>
      <use xlink:href="#DejaVuSans-73" x="221.96875"/>
      <use xlink:href="#DejaVuSans-20" x="274.068359"/>
      <use xlink:href="#DejaVuSans-73" x="305.855469"/>
      <use xlink:href="#DejaVuSans-65" x="357.955078"/>
      <use xlink:href="#DejaVuSans-63" x="419.478516"/>
      <use xlink:href="#DejaVuSans-74" x="474.458984"/>
      <use xlink:href="#DejaVuSans-69" x="513.667969"/>
      <use xlink:href="#DejaVuSans-6f" x="541.451172"/>
      <use xlink:href="#DejaVuSans-6e" x="602.632812"/>
      <use xlink:href="#DejaVuSans-20" x="666.011719"/>
      <use xlink:href="#DejaVuSans-28" x="697.798828"/>
      <use xlink:href="#DejaVuSans-61" x="736.8125"/>
      <use xlink:href="#DejaVuSans-75" x="798.091797"/>
      <use xlink:href="#DejaVuSans-29" x="861.470703"/>
     </g>
    </g>
   </g>
   <g id="line2d_14">
    <defs>
     <path id="m0c920389d4" d="M -3 3 
L 3 -3 
M -3 -3 
L 3 3 
" style="stroke: #1f77b4"/>
    </defs>
    <g clip-path="url(#pef6a41da6c)">
     <use xlink:href="#m0c920389d4" x="157.105874" y="181.587273" style="fill: #1f77b4; stroke: #1f77b4"/>
     <use xlink:href="#m0c920389d4" x="162.936246" y="140.064794" style="fill: #1f77b4; stroke: #1f77b4"/>
     <use xlink:href="#m0c920389d4" x="176.13366" y="181.587273" style="fill: #1f77b4; stroke: #1f77b4"/>
     <use xlink:href="#m0c920389d4" x="181.945881" y="92.357981" style="fill: #1f77b4; stroke: #1f77b4"/>
     <use xlink:href="#m0c920389d4" x="334.389089" y="181.587273" style="fill: #1f77b4; stroke: #1f77b4"/>
    </g>
   </g>
   <g id="LineCollection_1">
    <path d="M 157.105874 181.587273 
L 157.105874 181.587273 
" clip-path="url(#pef6a41da6c)" style="fill: none; stroke-dasharray: 3.7,1.6; stroke-dashoffset: 0; stroke: #1f77b4"/>
    <path d="M 162.936246 181.587273 
L 162.936246 140.064794 
" clip-path="url(#pef6a41da6c)" style="fill: none; stroke-dasharray: 3.7,1.6; stroke-dashoffset: 0; stroke: #1f77b4"/>
    <path d="M 176.13366 181.587273 
L 176.13366 181.587273 
" clip-path="url(#pef6a41da6c)" style="fill: none; stroke-dasharray: 3.7,1.6; stroke-dashoffset: 0; stroke: #1f77b4"/>
    <path d="M 181.945881 181.587273 
L 181.945881 92.357981 
" clip-path="url(#pef6a41da6c)" style="fill: none; stroke-dasharray: 3.7,1.6; stroke-dashoffset: 0; stroke: #1f77b4"/>
    <path d="M 334.389089 181.587273 
L 334.389089 181.587273 
" clip-path="url(#pef6a41da6c)" style="fill: none; stroke-dasharray: 3.7,1.6; stroke-dashoffset: 0; stroke: #1f77b4"/>
   </g>
   <g id="line2d_15">
    <path d="M 139.377553 180.844001 
L 144.697113 180.45943 
L 148.144188 180.000043 
L 150.527351 179.471048 
L 152.314723 178.854871 
L 153.719087 178.136725 
L 154.825556 177.330028 
L 155.761799 176.385287 
L 156.612928 175.206806 
L 157.378945 173.753376 
L 158.102405 171.867539 
L 158.783309 169.413312 
L 159.421656 166.230923 
L 160.060003 161.822718 
L 160.698351 155.76355 
L 161.464367 146.107988 
L 162.485723 133.43424 
L 162.826175 131.657467 
L 162.953844 131.527122 
L 162.996401 131.551772 
L 163.12407 131.828183 
L 163.336853 132.931239 
L 163.677304 136.086043 
L 164.400765 145.55451 
L 165.337007 156.732333 
L 166.060467 162.705166 
L 166.741371 166.553379 
L 167.422275 169.188976 
L 168.103179 170.989007 
L 168.784082 172.205718 
L 169.464986 173.000951 
L 170.14589 173.476289 
L 170.826794 173.693207 
L 171.507697 173.685287 
L 172.231158 173.444116 
L 172.954618 172.955402 
L 173.678078 172.1881 
L 174.401538 171.083146 
L 175.124998 169.543539 
L 175.805902 167.561598 
L 176.486806 164.863748 
L 177.125153 161.419155 
L 177.7635 156.708664 
L 178.401848 150.179825 
L 178.997638 141.765508 
L 179.635986 129.398013 
L 180.359446 110.614581 
L 181.508471 80.188144 
L 181.806366 76.865614 
L 181.934036 76.484755 
L 181.976592 76.504029 
L 182.104262 76.999578 
L 182.317044 79.226657 
L 182.657496 85.872077 
L 183.3384 105.117617 
L 184.317199 131.106852 
L 185.040659 144.546539 
L 185.721563 153.381293 
L 186.445023 159.94615 
L 187.168483 164.568436 
L 187.9345 168.068494 
L 188.743073 170.734215 
L 189.594203 172.781819 
L 190.487889 174.370103 
L 191.466688 175.663513 
L 192.5306 176.710418 
L 193.764738 177.6093 
L 195.211658 178.376739 
L 196.956474 179.036607 
L 199.084298 179.595614 
L 201.85047 180.081447 
L 205.552884 180.49286 
L 210.787331 180.835108 
L 218.702837 181.110033 
L 231.810234 181.318525 
L 257.003671 181.463539 
L 319.476588 181.548608 
L 352.117411 181.561694 
L 352.117411 181.561694 
" clip-path="url(#pef6a41da6c)" style="fill: none; stroke: #1f77b4; stroke-width: 1.5; stroke-linecap: square"/>
   </g>
   <g id="line2d_16">
    <defs>
     <path id="m9eafcac2f5" d="M -3 3 
L 3 -3 
M -3 -3 
L 3 3 
" style="stroke: #ff7f0e"/>
    </defs>
    <g clip-path="url(#pef6a41da6c)">
     <use xlink:href="#m9eafcac2f5" x="94.531398" y="54.923661" style="fill: #ff7f0e; stroke: #ff7f0e"/>
     <use xlink:href="#m9eafcac2f5" x="205.472942" y="138.708345" style="fill: #ff7f0e; stroke: #ff7f0e"/>
     <use xlink:href="#m9eafcac2f5" x="217.904462" y="165.517319" style="fill: #ff7f0e; stroke: #ff7f0e"/>
     <use xlink:href="#m9eafcac2f5" x="234.946199" y="127.479995" style="fill: #ff7f0e; stroke: #ff7f0e"/>
     <use xlink:href="#m9eafcac2f5" x="347.663556" y="180.831857" style="fill: #ff7f0e; stroke: #ff7f0e"/>
    </g>
   </g>
   <g id="LineCollection_2">
    <path d="M 94.531398 181.587273 
L 94.531398 54.923661 
" clip-path="url(#pef6a41da6c)" style="fill: none; stroke-dasharray: 3.7,1.6; stroke-dashoffset: 0; stroke: #ff7f0e"/>
    <path d="M 205.472942 181.587273 
L 205.472942 138.708345 
" clip-path="url(#pef6a41da6c)" style="fill: none; stroke-dasharray: 3.7,1.6; stroke-dashoffset: 0; stroke: #ff7f0e"/>
    <path d="M 217.904462 181.587273 
L 217.904462 165.517319 
" clip-path="url(#pef6a41da6c)" style="fill: none; stroke-dasharray: 3.7,1.6; stroke-dashoffset: 0; stroke: #ff7f0e"/>
    <path d="M 234.946199 181.587273 
L 234.946199 127.479995 
" clip-path="url(#pef6a41da6c)" style="fill: none; stroke-dasharray: 3.7,1.6; stroke-dashoffset: 0; stroke: #ff7f0e"/>
    <path d="M 347.663556 181.587273 
L 347.663556 180.831857 
" clip-path="url(#pef6a41da6c)" style="fill: none; stroke-dasharray: 3.7,1.6; stroke-dashoffset: 0; stroke: #ff7f0e"/>
   </g>
   <g id="line2d_17">
    <path d="M 69.218182 180.374205 
L 73.228597 179.890706 
L 76.145263 179.327917 
L 78.393526 178.676248 
L 80.155679 177.945118 
L 81.614011 177.109749 
L 82.890053 176.119634 
L 83.983802 174.986749 
L 84.956024 173.660299 
L 85.867482 172.024826 
L 86.718177 170.007743 
L 87.508107 167.524664 
L 88.237273 164.482587 
L 88.96644 160.397076 
L 89.634842 155.319796 
L 90.303245 148.374224 
L 90.910884 139.711057 
L 91.518522 127.86213 
L 92.126161 111.705452 
L 92.855328 85.605624 
L 94.131369 37.778124 
L 94.435188 33.580106 
L 94.556716 33.332727 
L 94.678244 33.931776 
L 94.860535 36.365451 
L 95.164355 44.004709 
L 95.711229 64.833406 
L 96.865743 109.489003 
L 97.594909 128.993831 
L 98.263312 141.501508 
L 98.992479 151.047569 
L 99.721645 157.733436 
L 100.450811 162.530767 
L 101.240742 166.309692 
L 102.091436 169.275737 
L 102.94213 171.469986 
L 103.853588 173.236583 
L 104.82581 174.659962 
L 105.91956 175.868015 
L 107.134837 176.874096 
L 108.532406 177.733633 
L 110.173031 178.47117 
L 112.178238 179.113782 
L 114.669557 179.663964 
L 117.890042 180.132879 
L 122.204277 180.522675 
L 128.341428 180.837617 
L 137.577536 181.070546 
L 152.100102 181.196486 
L 169.600096 181.133715 
L 180.355302 180.899017 
L 186.370925 180.562654 
L 190.077521 180.149435 
L 192.629603 179.65506 
L 194.513283 179.071553 
L 195.971616 178.389179 
L 197.12613 177.608736 
L 198.098352 176.688586 
L 198.949046 175.579884 
L 199.738976 174.166339 
L 200.468143 172.368762 
L 201.136545 170.102058 
L 201.804948 166.959508 
L 202.412587 163.006944 
L 203.020225 157.621732 
L 203.688628 149.704182 
L 205.146961 131.416242 
L 205.390016 130.441806 
L 205.511544 130.375105 
L 205.633072 130.594295 
L 205.876127 131.849557 
L 206.24071 135.4163 
L 207.091405 147.044189 
L 207.942099 157.167092 
L 208.610501 162.758321 
L 209.278904 166.650086 
L 209.947307 169.322343 
L 210.615709 171.136629 
L 211.284112 172.330008 
L 211.89175 172.997516 
L 212.438625 173.308768 
L 212.9855 173.361459 
L 213.471611 173.184305 
L 213.957722 172.773065 
L 214.504597 171.980678 
L 215.051472 170.760117 
L 215.65911 168.788118 
L 216.388277 165.515763 
L 217.421263 160.751838 
L 217.725082 160.100012 
L 217.907374 160.00757 
L 218.089665 160.153403 
L 218.332721 160.699979 
L 218.758068 162.415665 
L 220.641748 171.219506 
L 221.31015 173.035418 
L 221.978553 174.269172 
L 222.646956 175.086114 
L 223.376122 175.637227 
L 224.105288 175.924213 
L 224.895219 175.997743 
L 225.685149 175.852419 
L 226.475079 175.487298 
L 227.26501 174.872997 
L 227.994176 174.03113 
L 228.723343 172.839572 
L 229.391745 171.32599 
L 230.060148 169.244234 
L 230.72855 166.347103 
L 231.336189 162.694792 
L 231.943828 157.666538 
L 232.551467 150.783664 
L 233.280633 139.649836 
L 234.556674 119.392163 
L 234.860494 117.689925 
L 234.982021 117.622691 
L 235.103549 117.916633 
L 235.346605 119.53772 
L 235.711188 124.103373 
L 236.561882 138.976821 
L 237.412576 152.003159 
L 238.141743 159.835453 
L 238.810145 164.84985 
L 239.539312 168.691528 
L 240.268478 171.398734 
L 241.058408 173.492161 
L 241.909103 175.106233 
L 242.820561 176.35309 
L 243.853546 177.372308 
L 245.00806 178.18973 
L 246.344865 178.864288 
L 247.98549 179.442145 
L 250.112225 179.944999 
L 252.968127 180.374299 
L 256.917779 180.72785 
L 262.872638 181.017773 
L 272.594857 181.243268 
L 290.580963 181.406723 
L 329.166021 181.498811 
L 342.412545 181.387331 
L 344.903864 181.171991 
L 346.666016 180.78933 
L 347.699002 180.647344 
L 348.61046 180.778864 
L 351.101778 181.265422 
L 353.593097 181.422641 
L 359.426429 181.507835 
L 372.976772 181.539994 
L 372.976772 181.539994 
" clip-path="url(#pef6a41da6c)" style="fill: none; stroke: #ff7f0e; stroke-width: 1.5; stroke-linecap: square"/>
   </g>
   <g id="line2d_18">
    <defs>
     <path id="m36bf40dcc2" d="M -3 3 
L 3 -3 
M -3 -3 
L 3 3 
" style="stroke: #2ca02c"/>
    </defs>
    <g clip-path="url(#pef6a41da6c)">
     <use xlink:href="#m36bf40dcc2" x="94.66001" y="55.892655" style="fill: #2ca02c; stroke: #2ca02c"/>
     <use xlink:href="#m36bf40dcc2" x="209.124315" y="164.992126" style="fill: #2ca02c; stroke: #2ca02c"/>
     <use xlink:href="#m36bf40dcc2" x="215.024922" y="161.095953" style="fill: #2ca02c; stroke: #2ca02c"/>
     <use xlink:href="#m36bf40dcc2" x="225.359405" y="105.845871" style="fill: #2ca02c; stroke: #2ca02c"/>
     <use xlink:href="#m36bf40dcc2" x="348.22529" y="181.38436" style="fill: #2ca02c; stroke: #2ca02c"/>
    </g>
   </g>
   <g id="LineCollection_3">
    <path d="M 94.66001 181.587273 
L 94.66001 55.892655 
" clip-path="url(#pef6a41da6c)" style="fill: none; stroke-dasharray: 3.7,1.6; stroke-dashoffset: 0; stroke: #2ca02c"/>
    <path d="M 209.124315 181.587273 
L 209.124315 164.992126 
" clip-path="url(#pef6a41da6c)" style="fill: none; stroke-dasharray: 3.7,1.6; stroke-dashoffset: 0; stroke: #2ca02c"/>
    <path d="M 215.024922 181.587273 
L 215.024922 161.095953 
" clip-path="url(#pef6a41da6c)" style="fill: none; stroke-dasharray: 3.7,1.6; stroke-dashoffset: 0; stroke: #2ca02c"/>
    <path d="M 225.359405 181.587273 
L 225.359405 105.845871 
" clip-path="url(#pef6a41da6c)" style="fill: none; stroke-dasharray: 3.7,1.6; stroke-dashoffset: 0; stroke: #2ca02c"/>
    <path d="M 348.22529 181.587273 
L 348.22529 181.38436 
" clip-path="url(#pef6a41da6c)" style="fill: none; stroke-dasharray: 3.7,1.6; stroke-dashoffset: 0; stroke: #2ca02c"/>
   </g>
   <g id="line2d_19">
    <path d="M 69.303482 180.387769 
L 73.381628 179.90026 
L 76.303284 179.338584 
L 78.555394 178.687334 
L 80.320562 177.955706 
L 81.78139 177.118663 
L 83.059614 176.125206 
L 84.155236 174.986884 
L 85.129121 173.652113 
L 86.042139 172.003794 
L 86.894288 169.967387 
L 87.68557 167.455898 
L 88.415984 164.373014 
L 89.146398 160.223952 
L 89.815945 155.056365 
L 90.485491 147.971926 
L 91.094169 139.119226 
L 91.702848 126.998926 
L 92.311526 110.488274 
L 93.04194 84.00021 
L 94.198429 40.288739 
L 94.502768 35.151721 
L 94.685372 34.467692 
L 94.807108 35.064189 
L 94.989711 37.487317 
L 95.29405 45.091693 
L 95.841861 65.811644 
L 96.99835 110.166998 
L 97.728764 129.512031 
L 98.39831 141.908092 
L 99.128724 151.364165 
L 99.859138 157.984535 
L 100.589553 162.733621 
L 101.380834 166.473811 
L 102.232984 169.409006 
L 103.085134 171.580184 
L 103.998152 173.328055 
L 104.972037 174.736254 
L 106.067658 175.931364 
L 107.285015 176.926629 
L 108.684975 177.77691 
L 110.328407 178.506504 
L 112.337046 179.142213 
L 114.832627 179.686529 
L 118.058623 180.150535 
L 122.441107 180.540601 
L 128.649627 180.853101 
L 138.084142 181.085666 
L 153.118499 181.214203 
L 172.170133 181.159824 
L 184.404569 180.928077 
L 191.1609 180.596535 
L 195.299913 180.18615 
L 198.038966 179.705812 
L 199.986736 179.151408 
L 201.447565 178.514763 
L 202.604054 177.773475 
L 203.577939 176.876246 
L 204.369221 175.852912 
L 205.099635 174.545685 
L 205.769181 172.890977 
L 206.438728 170.607378 
L 207.108274 167.496275 
L 208.082159 161.666819 
L 208.751705 158.214825 
L 209.116913 157.325071 
L 209.299516 157.229159 
L 209.48212 157.35883 
L 209.786459 157.9955 
L 210.395137 160.100726 
L 211.064683 162.196438 
L 211.490758 162.905861 
L 211.795098 163.040135 
L 212.038569 162.91263 
L 212.342908 162.453397 
L 212.708115 161.459061 
L 213.195058 159.40584 
L 213.98634 154.830852 
L 214.595018 151.756544 
L 214.899357 151.040606 
L 215.081961 150.98347 
L 215.264564 151.216385 
L 215.568904 152.190352 
L 216.055846 154.792155 
L 217.273203 161.55478 
L 217.821014 163.399649 
L 218.307956 164.33659 
L 218.673164 164.642168 
L 218.977503 164.653481 
L 219.281842 164.450319 
L 219.647049 163.923324 
L 220.073124 162.901812 
L 220.560067 161.142424 
L 221.107877 158.268376 
L 221.655688 154.19865 
L 222.264366 147.822877 
L 222.873045 138.873639 
L 223.542591 125.44791 
L 225.064287 92.825843 
L 225.307758 91.462333 
L 225.368626 91.433217 
L 225.490362 91.755541 
L 225.672965 93.163842 
L 225.977304 97.685304 
L 226.525115 110.175321 
L 227.742472 138.347911 
L 228.472886 149.848037 
L 229.142432 157.224384 
L 229.872846 162.870233 
L 230.60326 166.841497 
L 231.394542 169.906323 
L 232.185824 172.120923 
L 233.037974 173.873637 
L 233.950992 175.261758 
L 234.985745 176.423636 
L 236.142234 177.376703 
L 237.481326 178.180002 
L 239.06389 178.860296 
L 241.011661 179.445871 
L 243.507243 179.951475 
L 246.794106 180.378963 
L 251.420062 180.739952 
L 258.23726 181.030745 
L 269.254339 181.256135 
L 289.52333 181.418405 
L 334.322061 181.51438 
L 346.069554 181.406534 
L 349.29555 181.339618 
L 353.251959 181.496498 
L 364.329906 181.538874 
L 373.581818 181.546235 
L 373.581818 181.546235 
" clip-path="url(#pef6a41da6c)" style="fill: none; stroke: #2ca02c; stroke-width: 1.5; stroke-linecap: square"/>
   </g>
   <g id="patch_3">
    <path d="M 54 189 
L 54 25.92 
" style="fill: none; stroke: #000000; stroke-width: 0.8; stroke-linejoin: miter; stroke-linecap: square"/>
   </g>
   <g id="patch_4">
    <path d="M 388.8 189 
L 388.8 25.92 
" style="fill: none; stroke: #000000; stroke-width: 0.8; stroke-linejoin: miter; stroke-linecap: square"/>
   </g>
   <g id="patch_5">
    <path d="M 54 189 
L 388.8 189 
" style="fill: none; stroke: #000000; stroke-width: 0.8; stroke-linejoin: miter; stroke-linecap: square"/>
   </g>
   <g id="patch_6">
    <path d="M 54 25.92 
L 388.8 25.92 
" style="fill: none; stroke: #000000; stroke-width: 0.8; stroke-linejoin: miter; stroke-linecap: square"/>
   </g>
   <g id="legend_1">
    <g id="patch_7">
     <path d="M 321.110937 77.954375 
L 381.8 77.954375 
Q 383.8 77.954375 383.8 75.954375 
L 383.8 32.92 
Q 383.8 30.92 381.8 30.92 
L 321.110937 30.92 
Q 319.110937 30.92 319.110937 32.92 
L 319.110937 75.954375 
Q 319.110937 77.954375 321.110937 77.954375 
z
" style="fill: #ffffff; opacity: 0.8; stroke: #cccccc; stroke-linejoin: miter"/>
    </g>
    <g id="line2d_20">
     <path d="M 323.110937 39.018438 
L 333.110937 39.018438 
L 343.110937 39.018438 
" style="fill: none; stroke: #1f77b4; stroke-width: 1.5; stroke-linecap: square"/>
    </g>
    <g id="text_16">
     <!-- GS -->
     <g transform="translate(351.110937 42.518438)scale(0.1 -0.1)">
      <defs>
       <path id="DejaVuSans-47" d="M 3809 666 
L 3809 1919 
L 2778 1919 
L 2778 2438 
L 4434 2438 
L 4434 434 
Q 4069 175 3628 42 
Q 3188 -91 2688 -91 
Q 1594 -91 976 548 
Q 359 1188 359 2328 
Q 359 3472 976 4111 
Q 1594 4750 2688 4750 
Q 3144 4750 3555 4637 
Q 3966 4525 4313 4306 
L 4313 3634 
Q 3963 3931 3569 4081 
Q 3175 4231 2741 4231 
Q 1884 4231 1454 3753 
Q 1025 3275 1025 2328 
Q 1025 1384 1454 906 
Q 1884 428 2741 428 
Q 3075 428 3337 486 
Q 3600 544 3809 666 
z
" transform="scale(0.015625)"/>
       <path id="DejaVuSans-53" d="M 3425 4513 
L 3425 3897 
Q 3066 4069 2747 4153 
Q 2428 4238 2131 4238 
Q 1616 4238 1336 4038 
Q 1056 3838 1056 3469 
Q 1056 3159 1242 3001 
Q 1428 2844 1947 2747 
L 2328 2669 
Q 3034 2534 3370 2195 
Q 3706 1856 3706 1288 
Q 3706 609 3251 259 
Q 2797 -91 1919 -91 
Q 1588 -91 1214 -16 
Q 841 59 441 206 
L 441 856 
Q 825 641 1194 531 
Q 1563 422 1919 422 
Q 2459 422 2753 634 
Q 3047 847 3047 1241 
Q 3047 1584 2836 1778 
Q 2625 1972 2144 2069 
L 1759 2144 
Q 1053 2284 737 2584 
Q 422 2884 422 3419 
Q 422 4038 858 4394 
Q 1294 4750 2059 4750 
Q 2388 4750 2728 4690 
Q 3069 4631 3425 4513 
z
" transform="scale(0.015625)"/>
      </defs>
      <use xlink:href="#DejaVuSans-47"/>
      <use xlink:href="#DejaVuSans-53" x="77.490234"/>
     </g>
    </g>
    <g id="line2d_21">
     <path d="M 323.110937 53.696562 
L 333.110937 53.696562 
L 343.110937 53.696562 
" style="fill: none; stroke: #ff7f0e; stroke-width: 1.5; stroke-linecap: square"/>
    </g>
    <g id="text_17">
     <!-- LSOR -->
     <g transform="translate(351.110937 57.196562)scale(0.1 -0.1)">
      <defs>
       <path id="DejaVuSans-4c" d="M 628 4666 
L 1259 4666 
L 1259 531 
L 3531 531 
L 3531 0 
L 628 0 
L 628 4666 
z
" transform="scale(0.015625)"/>
       <path id="DejaVuSans-4f" d="M 2522 4238 
Q 1834 4238 1429 3725 
Q 1025 3213 1025 2328 
Q 1025 1447 1429 934 
Q 1834 422 2522 422 
Q 3209 422 3611 934 
Q 4013 1447 4013 2328 
Q 4013 3213 3611 3725 
Q 3209 4238 2522 4238 
z
M 2522 4750 
Q 3503 4750 4090 4092 
Q 4678 3434 4678 2328 
Q 4678 1225 4090 567 
Q 3503 -91 2522 -91 
Q 1538 -91 948 565 
Q 359 1222 359 2328 
Q 359 3434 948 4092 
Q 1538 4750 2522 4750 
z
" transform="scale(0.015625)"/>
       <path id="DejaVuSans-52" d="M 2841 2188 
Q 3044 2119 3236 1894 
Q 3428 1669 3622 1275 
L 4263 0 
L 3584 0 
L 2988 1197 
Q 2756 1666 2539 1819 
Q 2322 1972 1947 1972 
L 1259 1972 
L 1259 0 
L 628 0 
L 628 4666 
L 2053 4666 
Q 2853 4666 3247 4331 
Q 3641 3997 3641 3322 
Q 3641 2881 3436 2590 
Q 3231 2300 2841 2188 
z
M 1259 4147 
L 1259 2491 
L 2053 2491 
Q 2509 2491 2742 2702 
Q 2975 2913 2975 3322 
Q 2975 3731 2742 3939 
Q 2509 4147 2053 4147 
L 1259 4147 
z
" transform="scale(0.015625)"/>
      </defs>
      <use xlink:href="#DejaVuSans-4c"/>
      <use xlink:href="#DejaVuSans-53" x="55.712891"/>
      <use xlink:href="#DejaVuSans-4f" x="119.189453"/>
      <use xlink:href="#DejaVuSans-52" x="197.900391"/>
     </g>
    </g>
    <g id="line2d_22">
     <path d="M 323.110937 68.374687 
L 333.110937 68.374687 
L 343.110937 68.374687 
" style="fill: none; stroke: #2ca02c; stroke-width: 1.5; stroke-linecap: square"/>
    </g>
    <g id="text_18">
     <!-- HSOR -->
     <g transform="translate(351.110937 71.874687)scale(0.1 -0.1)">
      <defs>
       <path id="DejaVuSans-48" d="M 628 4666 
L 1259 4666 
L 1259 2753 
L 3553 2753 
L 3553 4666 
L 4184 4666 
L 4184 0 
L 3553 0 
L 3553 2222 
L 1259 2222 
L 1259 0 
L 628 0 
L 628 4666 
z
" transform="scale(0.015625)"/>
      </defs>
      <use xlink:href="#DejaVuSans-48"/>
      <use xlink:href="#DejaVuSans-53" x="75.195312"/>
      <use xlink:href="#DejaVuSans-4f" x="138.671875"/>
      <use xlink:href="#DejaVuSans-52" x="217.382812"/>
     </g>
    </g>
   </g>
  </g>
 </g>
 <defs>
  <clipPath id="pef6a41da6c">
   <rect x="54" y="25.92" width="334.8" height="163.08"/>
  </clipPath>
 </defs>
</svg>
