<?xml version="1.0" encoding="utf-8" standalone="no"?>
<!DOCTYPE svg PUBLIC "-//W3C//DTD SVG 1.1//EN"
  "http://www.w3.org/Graphics/SVG/1.1/DTD/svg11.dtd">
<!-- Created with matplotlib (https://matplotlib.org/) -->
<svg height="360pt" version="1.1" viewBox="0 0 576 360" width="576pt" xmlns="http://www.w3.org/2000/svg" xmlns:xlink="http://www.w3.org/1999/xlink">
 <metadata>
  <rdf:RDF xmlns:cc="http://creativecommons.org/ns#" xmlns:dc="http://purl.org/dc/elements/1.1/" xmlns:rdf="http://www.w3.org/1999/02/22-rdf-syntax-ns#">
   <cc:Work>
    <dc:type rdf:resource="http://purl.org/dc/dcmitype/StillImage"/>
    <dc:date>2021-09-21T16:17:20.726009</dc:date>
    <dc:format>image/svg+xml</dc:format>
    <dc:creator>
     <cc:Agent>
      <dc:title>Matplotlib v3.3.2, https://matplotlib.org/</dc:title>
     </cc:Agent>
    </dc:creator>
   </cc:Work>
  </rdf:RDF>
 </metadata>
 <defs>
  <style type="text/css">*{stroke-linecap:butt;stroke-linejoin:round;}</style>
 </defs>
 <g id="figure_1">
  <g id="patch_1">
   <path d="M 0 360 
L 576 360 
L 576 0 
L 0 0 
z
" style="fill:none;"/>
  </g>
  <g id="axes_1">
   <g id="patch_2">
    <path d="M 46.55 157.6 
L 555.6375 157.6 
L 555.6375 26.8 
L 46.55 26.8 
z
" style="fill:#ffffff;"/>
   </g>
   <g id="matplotlib.axis_1">
    <g id="xtick_1">
     <g id="line2d_1">
      <defs>
       <path d="M 0 0 
L 0 3.5 
" id="m77e4f0aba0" style="stroke:#000000;stroke-width:0.8;"/>
      </defs>
      <g>
       <use style="stroke:#000000;stroke-width:0.8;" x="46.55" xlink:href="#m77e4f0aba0" y="157.6"/>
      </g>
     </g>
     <g id="text_1">
      <!-- 272 -->
      <g transform="translate(37.00625 172.198438)scale(0.1 -0.1)">
       <defs>
        <path d="M 19.1875 8.296875 
L 53.609375 8.296875 
L 53.609375 0 
L 7.328125 0 
L 7.328125 8.296875 
Q 12.9375 14.109375 22.625 23.890625 
Q 32.328125 33.6875 34.8125 36.53125 
Q 39.546875 41.84375 41.421875 45.53125 
Q 43.3125 49.21875 43.3125 52.78125 
Q 43.3125 58.59375 39.234375 62.25 
Q 35.15625 65.921875 28.609375 65.921875 
Q 23.96875 65.921875 18.8125 64.3125 
Q 13.671875 62.703125 7.8125 59.421875 
L 7.8125 69.390625 
Q 13.765625 71.78125 18.9375 73 
Q 24.125 74.21875 28.421875 74.21875 
Q 39.75 74.21875 46.484375 68.546875 
Q 53.21875 62.890625 53.21875 53.421875 
Q 53.21875 48.921875 51.53125 44.890625 
Q 49.859375 40.875 45.40625 35.40625 
Q 44.1875 33.984375 37.640625 27.21875 
Q 31.109375 20.453125 19.1875 8.296875 
z
" id="DejaVuSans-50"/>
        <path d="M 8.203125 72.90625 
L 55.078125 72.90625 
L 55.078125 68.703125 
L 28.609375 0 
L 18.3125 0 
L 43.21875 64.59375 
L 8.203125 64.59375 
z
" id="DejaVuSans-55"/>
       </defs>
       <use xlink:href="#DejaVuSans-50"/>
       <use x="63.623047" xlink:href="#DejaVuSans-55"/>
       <use x="127.246094" xlink:href="#DejaVuSans-50"/>
      </g>
     </g>
    </g>
    <g id="xtick_2">
     <g id="line2d_2">
      <g>
       <use style="stroke:#000000;stroke-width:0.8;" x="131.397917" xlink:href="#m77e4f0aba0" y="157.6"/>
      </g>
     </g>
     <g id="text_2">
      <!-- 274 -->
      <g transform="translate(121.854167 172.198438)scale(0.1 -0.1)">
       <defs>
        <path d="M 37.796875 64.3125 
L 12.890625 25.390625 
L 37.796875 25.390625 
z
M 35.203125 72.90625 
L 47.609375 72.90625 
L 47.609375 25.390625 
L 58.015625 25.390625 
L 58.015625 17.1875 
L 47.609375 17.1875 
L 47.609375 0 
L 37.796875 0 
L 37.796875 17.1875 
L 4.890625 17.1875 
L 4.890625 26.703125 
z
" id="DejaVuSans-52"/>
       </defs>
       <use xlink:href="#DejaVuSans-50"/>
       <use x="63.623047" xlink:href="#DejaVuSans-55"/>
       <use x="127.246094" xlink:href="#DejaVuSans-52"/>
      </g>
     </g>
    </g>
    <g id="xtick_3">
     <g id="line2d_3">
      <g>
       <use style="stroke:#000000;stroke-width:0.8;" x="216.245833" xlink:href="#m77e4f0aba0" y="157.6"/>
      </g>
     </g>
     <g id="text_3">
      <!-- 276 -->
      <g transform="translate(206.702083 172.198438)scale(0.1 -0.1)">
       <defs>
        <path d="M 33.015625 40.375 
Q 26.375 40.375 22.484375 35.828125 
Q 18.609375 31.296875 18.609375 23.390625 
Q 18.609375 15.53125 22.484375 10.953125 
Q 26.375 6.390625 33.015625 6.390625 
Q 39.65625 6.390625 43.53125 10.953125 
Q 47.40625 15.53125 47.40625 23.390625 
Q 47.40625 31.296875 43.53125 35.828125 
Q 39.65625 40.375 33.015625 40.375 
z
M 52.59375 71.296875 
L 52.59375 62.3125 
Q 48.875 64.0625 45.09375 64.984375 
Q 41.3125 65.921875 37.59375 65.921875 
Q 27.828125 65.921875 22.671875 59.328125 
Q 17.53125 52.734375 16.796875 39.40625 
Q 19.671875 43.65625 24.015625 45.921875 
Q 28.375 48.1875 33.59375 48.1875 
Q 44.578125 48.1875 50.953125 41.515625 
Q 57.328125 34.859375 57.328125 23.390625 
Q 57.328125 12.15625 50.6875 5.359375 
Q 44.046875 -1.421875 33.015625 -1.421875 
Q 20.359375 -1.421875 13.671875 8.265625 
Q 6.984375 17.96875 6.984375 36.375 
Q 6.984375 53.65625 15.1875 63.9375 
Q 23.390625 74.21875 37.203125 74.21875 
Q 40.921875 74.21875 44.703125 73.484375 
Q 48.484375 72.75 52.59375 71.296875 
z
" id="DejaVuSans-54"/>
       </defs>
       <use xlink:href="#DejaVuSans-50"/>
       <use x="63.623047" xlink:href="#DejaVuSans-55"/>
       <use x="127.246094" xlink:href="#DejaVuSans-54"/>
      </g>
     </g>
    </g>
    <g id="xtick_4">
     <g id="line2d_4">
      <g>
       <use style="stroke:#000000;stroke-width:0.8;" x="301.09375" xlink:href="#m77e4f0aba0" y="157.6"/>
      </g>
     </g>
     <g id="text_4">
      <!-- 278 -->
      <g transform="translate(291.55 172.198438)scale(0.1 -0.1)">
       <defs>
        <path d="M 31.78125 34.625 
Q 24.75 34.625 20.71875 30.859375 
Q 16.703125 27.09375 16.703125 20.515625 
Q 16.703125 13.921875 20.71875 10.15625 
Q 24.75 6.390625 31.78125 6.390625 
Q 38.8125 6.390625 42.859375 10.171875 
Q 46.921875 13.96875 46.921875 20.515625 
Q 46.921875 27.09375 42.890625 30.859375 
Q 38.875 34.625 31.78125 34.625 
z
M 21.921875 38.8125 
Q 15.578125 40.375 12.03125 44.71875 
Q 8.5 49.078125 8.5 55.328125 
Q 8.5 64.0625 14.71875 69.140625 
Q 20.953125 74.21875 31.78125 74.21875 
Q 42.671875 74.21875 48.875 69.140625 
Q 55.078125 64.0625 55.078125 55.328125 
Q 55.078125 49.078125 51.53125 44.71875 
Q 48 40.375 41.703125 38.8125 
Q 48.828125 37.15625 52.796875 32.3125 
Q 56.78125 27.484375 56.78125 20.515625 
Q 56.78125 9.90625 50.3125 4.234375 
Q 43.84375 -1.421875 31.78125 -1.421875 
Q 19.734375 -1.421875 13.25 4.234375 
Q 6.78125 9.90625 6.78125 20.515625 
Q 6.78125 27.484375 10.78125 32.3125 
Q 14.796875 37.15625 21.921875 38.8125 
z
M 18.3125 54.390625 
Q 18.3125 48.734375 21.84375 45.5625 
Q 25.390625 42.390625 31.78125 42.390625 
Q 38.140625 42.390625 41.71875 45.5625 
Q 45.3125 48.734375 45.3125 54.390625 
Q 45.3125 60.0625 41.71875 63.234375 
Q 38.140625 66.40625 31.78125 66.40625 
Q 25.390625 66.40625 21.84375 63.234375 
Q 18.3125 60.0625 18.3125 54.390625 
z
" id="DejaVuSans-56"/>
       </defs>
       <use xlink:href="#DejaVuSans-50"/>
       <use x="63.623047" xlink:href="#DejaVuSans-55"/>
       <use x="127.246094" xlink:href="#DejaVuSans-56"/>
      </g>
     </g>
    </g>
    <g id="xtick_5">
     <g id="line2d_5">
      <g>
       <use style="stroke:#000000;stroke-width:0.8;" x="385.941667" xlink:href="#m77e4f0aba0" y="157.6"/>
      </g>
     </g>
     <g id="text_5">
      <!-- 280 -->
      <g transform="translate(376.397917 172.198438)scale(0.1 -0.1)">
       <defs>
        <path d="M 31.78125 66.40625 
Q 24.171875 66.40625 20.328125 58.90625 
Q 16.5 51.421875 16.5 36.375 
Q 16.5 21.390625 20.328125 13.890625 
Q 24.171875 6.390625 31.78125 6.390625 
Q 39.453125 6.390625 43.28125 13.890625 
Q 47.125 21.390625 47.125 36.375 
Q 47.125 51.421875 43.28125 58.90625 
Q 39.453125 66.40625 31.78125 66.40625 
z
M 31.78125 74.21875 
Q 44.046875 74.21875 50.515625 64.515625 
Q 56.984375 54.828125 56.984375 36.375 
Q 56.984375 17.96875 50.515625 8.265625 
Q 44.046875 -1.421875 31.78125 -1.421875 
Q 19.53125 -1.421875 13.0625 8.265625 
Q 6.59375 17.96875 6.59375 36.375 
Q 6.59375 54.828125 13.0625 64.515625 
Q 19.53125 74.21875 31.78125 74.21875 
z
" id="DejaVuSans-48"/>
       </defs>
       <use xlink:href="#DejaVuSans-50"/>
       <use x="63.623047" xlink:href="#DejaVuSans-56"/>
       <use x="127.246094" xlink:href="#DejaVuSans-48"/>
      </g>
     </g>
    </g>
    <g id="xtick_6">
     <g id="line2d_6">
      <g>
       <use style="stroke:#000000;stroke-width:0.8;" x="470.789583" xlink:href="#m77e4f0aba0" y="157.6"/>
      </g>
     </g>
     <g id="text_6">
      <!-- 282 -->
      <g transform="translate(461.245833 172.198438)scale(0.1 -0.1)">
       <use xlink:href="#DejaVuSans-50"/>
       <use x="63.623047" xlink:href="#DejaVuSans-56"/>
       <use x="127.246094" xlink:href="#DejaVuSans-50"/>
      </g>
     </g>
    </g>
    <g id="xtick_7">
     <g id="line2d_7">
      <g>
       <use style="stroke:#000000;stroke-width:0.8;" x="555.6375" xlink:href="#m77e4f0aba0" y="157.6"/>
      </g>
     </g>
     <g id="text_7">
      <!-- 284 -->
      <g transform="translate(546.09375 172.198438)scale(0.1 -0.1)">
       <use xlink:href="#DejaVuSans-50"/>
       <use x="63.623047" xlink:href="#DejaVuSans-56"/>
       <use x="127.246094" xlink:href="#DejaVuSans-52"/>
      </g>
     </g>
    </g>
   </g>
   <g id="matplotlib.axis_2">
    <g id="ytick_1">
     <g id="line2d_8">
      <defs>
       <path d="M 0 0 
L -3.5 0 
" id="mf31bd6d8b5" style="stroke:#000000;stroke-width:0.8;"/>
      </defs>
      <g>
       <use style="stroke:#000000;stroke-width:0.8;" x="46.55" xlink:href="#mf31bd6d8b5" y="154.991874"/>
      </g>
     </g>
     <g id="text_8">
      <!-- 0.00 -->
      <g transform="translate(17.284375 158.791093)scale(0.1 -0.1)">
       <defs>
        <path d="M 10.6875 12.40625 
L 21 12.40625 
L 21 0 
L 10.6875 0 
z
" id="DejaVuSans-46"/>
       </defs>
       <use xlink:href="#DejaVuSans-48"/>
       <use x="63.623047" xlink:href="#DejaVuSans-46"/>
       <use x="95.410156" xlink:href="#DejaVuSans-48"/>
       <use x="159.033203" xlink:href="#DejaVuSans-48"/>
      </g>
     </g>
    </g>
    <g id="ytick_2">
     <g id="line2d_9">
      <g>
       <use style="stroke:#000000;stroke-width:0.8;" x="46.55" xlink:href="#mf31bd6d8b5" y="121.053788"/>
      </g>
     </g>
     <g id="text_9">
      <!-- 0.05 -->
      <g transform="translate(17.284375 124.853007)scale(0.1 -0.1)">
       <defs>
        <path d="M 10.796875 72.90625 
L 49.515625 72.90625 
L 49.515625 64.59375 
L 19.828125 64.59375 
L 19.828125 46.734375 
Q 21.96875 47.46875 24.109375 47.828125 
Q 26.265625 48.1875 28.421875 48.1875 
Q 40.625 48.1875 47.75 41.5 
Q 54.890625 34.8125 54.890625 23.390625 
Q 54.890625 11.625 47.5625 5.09375 
Q 40.234375 -1.421875 26.90625 -1.421875 
Q 22.3125 -1.421875 17.546875 -0.640625 
Q 12.796875 0.140625 7.71875 1.703125 
L 7.71875 11.625 
Q 12.109375 9.234375 16.796875 8.0625 
Q 21.484375 6.890625 26.703125 6.890625 
Q 35.15625 6.890625 40.078125 11.328125 
Q 45.015625 15.765625 45.015625 23.390625 
Q 45.015625 31 40.078125 35.4375 
Q 35.15625 39.890625 26.703125 39.890625 
Q 22.75 39.890625 18.8125 39.015625 
Q 14.890625 38.140625 10.796875 36.28125 
z
" id="DejaVuSans-53"/>
       </defs>
       <use xlink:href="#DejaVuSans-48"/>
       <use x="63.623047" xlink:href="#DejaVuSans-46"/>
       <use x="95.410156" xlink:href="#DejaVuSans-48"/>
       <use x="159.033203" xlink:href="#DejaVuSans-53"/>
      </g>
     </g>
    </g>
    <g id="ytick_3">
     <g id="line2d_10">
      <g>
       <use style="stroke:#000000;stroke-width:0.8;" x="46.55" xlink:href="#mf31bd6d8b5" y="87.115702"/>
      </g>
     </g>
     <g id="text_10">
      <!-- 0.10 -->
      <g transform="translate(17.284375 90.91492)scale(0.1 -0.1)">
       <defs>
        <path d="M 12.40625 8.296875 
L 28.515625 8.296875 
L 28.515625 63.921875 
L 10.984375 60.40625 
L 10.984375 69.390625 
L 28.421875 72.90625 
L 38.28125 72.90625 
L 38.28125 8.296875 
L 54.390625 8.296875 
L 54.390625 0 
L 12.40625 0 
z
" id="DejaVuSans-49"/>
       </defs>
       <use xlink:href="#DejaVuSans-48"/>
       <use x="63.623047" xlink:href="#DejaVuSans-46"/>
       <use x="95.410156" xlink:href="#DejaVuSans-49"/>
       <use x="159.033203" xlink:href="#DejaVuSans-48"/>
      </g>
     </g>
    </g>
    <g id="ytick_4">
     <g id="line2d_11">
      <g>
       <use style="stroke:#000000;stroke-width:0.8;" x="46.55" xlink:href="#mf31bd6d8b5" y="53.177615"/>
      </g>
     </g>
     <g id="text_11">
      <!-- 0.15 -->
      <g transform="translate(17.284375 56.976834)scale(0.1 -0.1)">
       <use xlink:href="#DejaVuSans-48"/>
       <use x="63.623047" xlink:href="#DejaVuSans-46"/>
       <use x="95.410156" xlink:href="#DejaVuSans-49"/>
       <use x="159.033203" xlink:href="#DejaVuSans-53"/>
      </g>
     </g>
    </g>
   </g>
   <g id="line2d_12">
    <path clip-path="url(#pe43c36ff2c)" d="M 46.55 151.654545 
L 64.792302 150.966828 
L 78.792208 150.218994 
L 89.822437 149.413209 
L 98.731469 148.548913 
L 106.367781 147.584283 
L 112.731375 146.556381 
L 117.82225 145.529992 
L 122.488885 144.373529 
L 126.731281 143.089163 
L 130.549437 141.688742 
L 133.943354 140.204655 
L 136.913031 138.658182 
L 139.458469 137.094774 
L 142.003906 135.266854 
L 144.549344 133.127925 
L 146.670542 131.063241 
L 148.79174 128.701198 
L 150.912937 126.00357 
L 153.034135 122.932025 
L 155.155333 119.425828 
L 156.852292 116.233841 
L 158.54925 112.632664 
L 160.246208 108.562143 
L 161.943167 103.962128 
L 163.640125 98.77353 
L 166.185562 90.115891 
L 169.15524 80.027544 
L 170.852198 74.94769 
L 172.124917 71.731573 
L 173.397635 69.1878 
L 174.246115 67.936793 
L 175.094594 67.060924 
L 175.943073 66.542454 
L 176.791552 66.362339 
L 177.640031 66.501536 
L 178.48851 66.941001 
L 179.33699 67.661691 
L 180.185469 68.644562 
L 181.458187 70.568799 
L 182.730906 72.975822 
L 184.427865 76.8251 
L 186.124823 81.258794 
L 188.67026 88.590191 
L 193.336896 102.149677 
L 195.033854 106.475644 
L 196.730812 110.213111 
L 198.427771 113.387244 
L 200.124729 116.067425 
L 201.821687 118.323033 
L 203.518646 120.22345 
L 205.639844 122.20518 
L 207.761042 123.855525 
L 209.88224 125.20842 
L 212.003437 126.277481 
L 214.124635 127.076328 
L 216.245833 127.618579 
L 218.367031 127.915946 
L 220.488229 127.972514 
L 222.609427 127.790462 
L 224.730625 127.371969 
L 226.851823 126.719213 
L 228.973021 125.82991 
L 231.094219 124.683929 
L 233.215417 123.256675 
L 235.336615 121.523553 
L 237.457812 119.45997 
L 239.57901 117.026971 
L 241.275969 114.750512 
L 242.972927 112.119241 
L 244.669885 109.076456 
L 246.366844 105.565458 
L 248.063802 101.529545 
L 249.76076 96.928656 
L 251.881958 90.425352 
L 254.003156 83.164899 
L 256.548594 73.571523 
L 259.518271 61.357231 
L 262.912187 47.36516 
L 264.609146 41.365571 
L 265.881865 37.671481 
L 266.730344 35.697989 
L 267.578823 34.181602 
L 268.427302 33.178648 
L 268.851542 32.88731 
L 269.275781 32.745455 
L 269.700021 32.757758 
L 270.12426 32.919443 
L 270.97274 33.662399 
L 271.821219 34.917201 
L 272.669698 36.626727 
L 273.942417 39.918668 
L 275.215135 43.912427 
L 276.912094 49.995945 
L 282.851448 72.181867 
L 284.972646 79.047138 
L 287.093844 85.134941 
L 288.790802 89.381602 
L 290.48776 93.021303 
L 291.760479 95.328674 
L 293.033198 97.277711 
L 294.305917 98.87884 
L 295.578635 100.142487 
L 296.851354 101.079077 
L 298.124073 101.699037 
L 299.396792 102.012793 
L 300.66951 102.030769 
L 301.942229 101.76538 
L 303.214948 101.252134 
L 304.911906 100.269427 
L 307.033104 98.730368 
L 311.69974 95.230113 
L 313.396698 94.272323 
L 315.093656 93.556502 
L 316.790615 93.075222 
L 318.487573 92.821054 
L 320.184531 92.786568 
L 321.88149 92.964335 
L 323.578448 93.342627 
L 326.123885 94.172506 
L 331.21476 95.929151 
L 332.911719 96.291922 
L 335.032917 96.481213 
L 339.275312 96.736085 
L 340.972271 97.1232 
L 342.24499 97.63165 
L 343.517708 98.383111 
L 344.790427 99.410418 
L 346.487385 101.141188 
L 348.608583 103.700761 
L 354.123698 110.660196 
L 355.820656 112.402663 
L 357.517615 113.853621 
L 359.214573 115.018135 
L 360.911531 115.901272 
L 362.60849 116.508099 
L 364.305448 116.843682 
L 366.002406 116.912696 
L 367.699365 116.716386 
L 369.396323 116.25424 
L 371.093281 115.525727 
L 372.79024 114.530317 
L 374.487198 113.267481 
L 376.184156 111.735218 
L 377.881115 109.897682 
L 379.578073 107.685186 
L 381.275031 105.02657 
L 382.97199 101.850673 
L 384.668948 98.086337 
L 386.365906 93.663251 
L 388.487104 87.280234 
L 395.274937 65.850722 
L 396.971896 61.584297 
L 398.244615 58.957531 
L 399.517333 56.850799 
L 400.790052 55.281331 
L 401.638531 54.542008 
L 402.48701 54.054233 
L 403.33549 53.82311 
L 404.183969 53.853745 
L 405.032448 54.151244 
L 405.880927 54.720712 
L 406.729406 55.567254 
L 407.577885 56.695012 
L 408.850604 58.867647 
L 410.123323 61.495785 
L 412.244521 66.511096 
L 416.062677 75.703146 
L 417.335396 78.289583 
L 418.608115 80.414088 
L 419.880833 82.042457 
L 421.153552 83.202654 
L 422.002031 83.730344 
L 422.85051 84.071441 
L 423.69899 84.234537 
L 424.547469 84.228224 
L 425.395948 84.061097 
L 426.668667 83.527674 
L 427.941385 82.680752 
L 429.214104 81.550235 
L 430.911062 79.672748 
L 433.03226 76.888467 
L 436.426177 71.938938 
L 439.395854 67.72173 
L 441.517052 65.098223 
L 443.21401 63.340841 
L 444.486729 62.264255 
L 445.759448 61.424833 
L 447.032167 60.849759 
L 448.304885 60.566216 
L 449.577604 60.601391 
L 450.426083 60.813821 
L 451.698802 61.418522 
L 452.971521 62.363482 
L 454.24424 63.645313 
L 455.516958 65.260631 
L 456.789677 67.206049 
L 458.486635 70.307577 
L 460.183594 73.981903 
L 461.880552 78.194432 
L 464.42599 85.205882 
L 469.941104 100.771515 
L 472.062302 105.967718 
L 474.1835 110.469101 
L 476.304698 114.360424 
L 478.425896 117.730885 
L 480.547094 120.669684 
L 482.668292 123.263623 
L 484.78949 125.563655 
L 487.334927 127.968552 
L 489.880365 130.022976 
L 492.425802 131.766049 
L 494.97124 133.235615 
L 497.516677 134.466387 
L 500.486354 135.646158 
L 503.880271 136.722739 
L 507.274187 137.561664 
L 510.668104 138.183666 
L 514.48626 138.646468 
L 518.304417 138.865983 
L 521.698333 138.842486 
L 525.09225 138.598313 
L 528.486167 138.111302 
L 531.455844 137.460023 
L 534.425521 136.574861 
L 536.970958 135.603655 
L 539.516396 134.374716 
L 541.637594 133.103764 
L 543.758792 131.565672 
L 545.87999 129.722774 
L 548.849667 126.763947 
L 552.243583 123.419239 
L 553.940542 121.987389 
L 555.6375 120.842631 
L 556.06174 120.612147 
L 556.06174 120.612147 
" style="fill:none;stroke:#0000ff;stroke-linecap:square;stroke-width:1.5;"/>
   </g>
   <g id="patch_3">
    <path d="M 46.55 157.6 
L 46.55 26.8 
" style="fill:none;stroke:#000000;stroke-linecap:square;stroke-linejoin:miter;stroke-width:0.8;"/>
   </g>
   <g id="patch_4">
    <path d="M 555.6375 157.6 
L 555.6375 26.8 
" style="fill:none;stroke:#000000;stroke-linecap:square;stroke-linejoin:miter;stroke-width:0.8;"/>
   </g>
   <g id="patch_5">
    <path d="M 46.55 157.6 
L 555.6375 157.6 
" style="fill:none;stroke:#000000;stroke-linecap:square;stroke-linejoin:miter;stroke-width:0.8;"/>
   </g>
   <g id="patch_6">
    <path d="M 46.55 26.8 
L 555.6375 26.8 
" style="fill:none;stroke:#000000;stroke-linecap:square;stroke-linejoin:miter;stroke-width:0.8;"/>
   </g>
   <g id="text_12">
    <!-- CPP-DFT (B3LYP) -->
    <g transform="translate(251.654687 20.8)scale(0.12 -0.12)">
     <defs>
      <path d="M 64.40625 67.28125 
L 64.40625 56.890625 
Q 59.421875 61.53125 53.78125 63.8125 
Q 48.140625 66.109375 41.796875 66.109375 
Q 29.296875 66.109375 22.65625 58.46875 
Q 16.015625 50.828125 16.015625 36.375 
Q 16.015625 21.96875 22.65625 14.328125 
Q 29.296875 6.6875 41.796875 6.6875 
Q 48.140625 6.6875 53.78125 8.984375 
Q 59.421875 11.28125 64.40625 15.921875 
L 64.40625 5.609375 
Q 59.234375 2.09375 53.4375 0.328125 
Q 47.65625 -1.421875 41.21875 -1.421875 
Q 24.65625 -1.421875 15.125 8.703125 
Q 5.609375 18.84375 5.609375 36.375 
Q 5.609375 53.953125 15.125 64.078125 
Q 24.65625 74.21875 41.21875 74.21875 
Q 47.75 74.21875 53.53125 72.484375 
Q 59.328125 70.75 64.40625 67.28125 
z
" id="DejaVuSans-67"/>
      <path d="M 19.671875 64.796875 
L 19.671875 37.40625 
L 32.078125 37.40625 
Q 38.96875 37.40625 42.71875 40.96875 
Q 46.484375 44.53125 46.484375 51.125 
Q 46.484375 57.671875 42.71875 61.234375 
Q 38.96875 64.796875 32.078125 64.796875 
z
M 9.8125 72.90625 
L 32.078125 72.90625 
Q 44.34375 72.90625 50.609375 67.359375 
Q 56.890625 61.8125 56.890625 51.125 
Q 56.890625 40.328125 50.609375 34.8125 
Q 44.34375 29.296875 32.078125 29.296875 
L 19.671875 29.296875 
L 19.671875 0 
L 9.8125 0 
z
" id="DejaVuSans-80"/>
      <path d="M 4.890625 31.390625 
L 31.203125 31.390625 
L 31.203125 23.390625 
L 4.890625 23.390625 
z
" id="DejaVuSans-45"/>
      <path d="M 19.671875 64.796875 
L 19.671875 8.109375 
L 31.59375 8.109375 
Q 46.6875 8.109375 53.6875 14.9375 
Q 60.6875 21.78125 60.6875 36.53125 
Q 60.6875 51.171875 53.6875 57.984375 
Q 46.6875 64.796875 31.59375 64.796875 
z
M 9.8125 72.90625 
L 30.078125 72.90625 
Q 51.265625 72.90625 61.171875 64.09375 
Q 71.09375 55.28125 71.09375 36.53125 
Q 71.09375 17.671875 61.125 8.828125 
Q 51.171875 0 30.078125 0 
L 9.8125 0 
z
" id="DejaVuSans-68"/>
      <path d="M 9.8125 72.90625 
L 51.703125 72.90625 
L 51.703125 64.59375 
L 19.671875 64.59375 
L 19.671875 43.109375 
L 48.578125 43.109375 
L 48.578125 34.8125 
L 19.671875 34.8125 
L 19.671875 0 
L 9.8125 0 
z
" id="DejaVuSans-70"/>
      <path d="M -0.296875 72.90625 
L 61.375 72.90625 
L 61.375 64.59375 
L 35.5 64.59375 
L 35.5 0 
L 25.59375 0 
L 25.59375 64.59375 
L -0.296875 64.59375 
z
" id="DejaVuSans-84"/>
      <path id="DejaVuSans-32"/>
      <path d="M 31 75.875 
Q 24.46875 64.65625 21.28125 53.65625 
Q 18.109375 42.671875 18.109375 31.390625 
Q 18.109375 20.125 21.3125 9.0625 
Q 24.515625 -2 31 -13.1875 
L 23.1875 -13.1875 
Q 15.875 -1.703125 12.234375 9.375 
Q 8.59375 20.453125 8.59375 31.390625 
Q 8.59375 42.28125 12.203125 53.3125 
Q 15.828125 64.359375 23.1875 75.875 
z
" id="DejaVuSans-40"/>
      <path d="M 19.671875 34.8125 
L 19.671875 8.109375 
L 35.5 8.109375 
Q 43.453125 8.109375 47.28125 11.40625 
Q 51.125 14.703125 51.125 21.484375 
Q 51.125 28.328125 47.28125 31.5625 
Q 43.453125 34.8125 35.5 34.8125 
z
M 19.671875 64.796875 
L 19.671875 42.828125 
L 34.28125 42.828125 
Q 41.5 42.828125 45.03125 45.53125 
Q 48.578125 48.25 48.578125 53.8125 
Q 48.578125 59.328125 45.03125 62.0625 
Q 41.5 64.796875 34.28125 64.796875 
z
M 9.8125 72.90625 
L 35.015625 72.90625 
Q 46.296875 72.90625 52.390625 68.21875 
Q 58.5 63.53125 58.5 54.890625 
Q 58.5 48.1875 55.375 44.234375 
Q 52.25 40.28125 46.1875 39.3125 
Q 53.46875 37.75 57.5 32.78125 
Q 61.53125 27.828125 61.53125 20.40625 
Q 61.53125 10.640625 54.890625 5.3125 
Q 48.25 0 35.984375 0 
L 9.8125 0 
z
" id="DejaVuSans-66"/>
      <path d="M 40.578125 39.3125 
Q 47.65625 37.796875 51.625 33 
Q 55.609375 28.21875 55.609375 21.1875 
Q 55.609375 10.40625 48.1875 4.484375 
Q 40.765625 -1.421875 27.09375 -1.421875 
Q 22.515625 -1.421875 17.65625 -0.515625 
Q 12.796875 0.390625 7.625 2.203125 
L 7.625 11.71875 
Q 11.71875 9.328125 16.59375 8.109375 
Q 21.484375 6.890625 26.8125 6.890625 
Q 36.078125 6.890625 40.9375 10.546875 
Q 45.796875 14.203125 45.796875 21.1875 
Q 45.796875 27.640625 41.28125 31.265625 
Q 36.765625 34.90625 28.71875 34.90625 
L 20.21875 34.90625 
L 20.21875 43.015625 
L 29.109375 43.015625 
Q 36.375 43.015625 40.234375 45.921875 
Q 44.09375 48.828125 44.09375 54.296875 
Q 44.09375 59.90625 40.109375 62.90625 
Q 36.140625 65.921875 28.71875 65.921875 
Q 24.65625 65.921875 20.015625 65.03125 
Q 15.375 64.15625 9.8125 62.3125 
L 9.8125 71.09375 
Q 15.4375 72.65625 20.34375 73.4375 
Q 25.25 74.21875 29.59375 74.21875 
Q 40.828125 74.21875 47.359375 69.109375 
Q 53.90625 64.015625 53.90625 55.328125 
Q 53.90625 49.265625 50.4375 45.09375 
Q 46.96875 40.921875 40.578125 39.3125 
z
" id="DejaVuSans-51"/>
      <path d="M 9.8125 72.90625 
L 19.671875 72.90625 
L 19.671875 8.296875 
L 55.171875 8.296875 
L 55.171875 0 
L 9.8125 0 
z
" id="DejaVuSans-76"/>
      <path d="M -0.203125 72.90625 
L 10.40625 72.90625 
L 30.609375 42.921875 
L 50.6875 72.90625 
L 61.28125 72.90625 
L 35.5 34.71875 
L 35.5 0 
L 25.59375 0 
L 25.59375 34.71875 
z
" id="DejaVuSans-89"/>
      <path d="M 8.015625 75.875 
L 15.828125 75.875 
Q 23.140625 64.359375 26.78125 53.3125 
Q 30.421875 42.28125 30.421875 31.390625 
Q 30.421875 20.453125 26.78125 9.375 
Q 23.140625 -1.703125 15.828125 -13.1875 
L 8.015625 -13.1875 
Q 14.5 -2 17.703125 9.0625 
Q 20.90625 20.125 20.90625 31.390625 
Q 20.90625 42.671875 17.703125 53.65625 
Q 14.5 64.65625 8.015625 75.875 
z
" id="DejaVuSans-41"/>
     </defs>
     <use xlink:href="#DejaVuSans-67"/>
     <use x="69.824219" xlink:href="#DejaVuSans-80"/>
     <use x="130.126953" xlink:href="#DejaVuSans-80"/>
     <use x="188.179688" xlink:href="#DejaVuSans-45"/>
     <use x="224.263672" xlink:href="#DejaVuSans-68"/>
     <use x="301.265625" xlink:href="#DejaVuSans-70"/>
     <use x="357.035156" xlink:href="#DejaVuSans-84"/>
     <use x="418.119141" xlink:href="#DejaVuSans-32"/>
     <use x="449.90625" xlink:href="#DejaVuSans-40"/>
     <use x="488.919922" xlink:href="#DejaVuSans-66"/>
     <use x="557.523438" xlink:href="#DejaVuSans-51"/>
     <use x="621.146484" xlink:href="#DejaVuSans-76"/>
     <use x="663.609375" xlink:href="#DejaVuSans-89"/>
     <use x="724.693359" xlink:href="#DejaVuSans-80"/>
     <use x="784.996094" xlink:href="#DejaVuSans-41"/>
    </g>
   </g>
  </g>
  <g id="axes_2">
   <g id="patch_7">
    <path d="M 46.55 332.2 
L 555.6375 332.2 
L 555.6375 201.4 
L 46.55 201.4 
z
" style="fill:#ffffff;"/>
   </g>
   <g id="matplotlib.axis_3">
    <g id="xtick_8">
     <g id="line2d_13">
      <g>
       <use style="stroke:#000000;stroke-width:0.8;" x="46.55" xlink:href="#m77e4f0aba0" y="332.2"/>
      </g>
     </g>
     <g id="text_13">
      <!-- 284 -->
      <g transform="translate(37.00625 346.798437)scale(0.1 -0.1)">
       <use xlink:href="#DejaVuSans-50"/>
       <use x="63.623047" xlink:href="#DejaVuSans-56"/>
       <use x="127.246094" xlink:href="#DejaVuSans-52"/>
      </g>
     </g>
    </g>
    <g id="xtick_9">
     <g id="line2d_14">
      <g>
       <use style="stroke:#000000;stroke-width:0.8;" x="131.397917" xlink:href="#m77e4f0aba0" y="332.2"/>
      </g>
     </g>
     <g id="text_14">
      <!-- 286 -->
      <g transform="translate(121.854167 346.798437)scale(0.1 -0.1)">
       <use xlink:href="#DejaVuSans-50"/>
       <use x="63.623047" xlink:href="#DejaVuSans-56"/>
       <use x="127.246094" xlink:href="#DejaVuSans-54"/>
      </g>
     </g>
    </g>
    <g id="xtick_10">
     <g id="line2d_15">
      <g>
       <use style="stroke:#000000;stroke-width:0.8;" x="216.245833" xlink:href="#m77e4f0aba0" y="332.2"/>
      </g>
     </g>
     <g id="text_15">
      <!-- 288 -->
      <g transform="translate(206.702083 346.798437)scale(0.1 -0.1)">
       <use xlink:href="#DejaVuSans-50"/>
       <use x="63.623047" xlink:href="#DejaVuSans-56"/>
       <use x="127.246094" xlink:href="#DejaVuSans-56"/>
      </g>
     </g>
    </g>
    <g id="xtick_11">
     <g id="line2d_16">
      <g>
       <use style="stroke:#000000;stroke-width:0.8;" x="301.09375" xlink:href="#m77e4f0aba0" y="332.2"/>
      </g>
     </g>
     <g id="text_16">
      <!-- 290 -->
      <g transform="translate(291.55 346.798437)scale(0.1 -0.1)">
       <defs>
        <path d="M 10.984375 1.515625 
L 10.984375 10.5 
Q 14.703125 8.734375 18.5 7.8125 
Q 22.3125 6.890625 25.984375 6.890625 
Q 35.75 6.890625 40.890625 13.453125 
Q 46.046875 20.015625 46.78125 33.40625 
Q 43.953125 29.203125 39.59375 26.953125 
Q 35.25 24.703125 29.984375 24.703125 
Q 19.046875 24.703125 12.671875 31.3125 
Q 6.296875 37.9375 6.296875 49.421875 
Q 6.296875 60.640625 12.9375 67.421875 
Q 19.578125 74.21875 30.609375 74.21875 
Q 43.265625 74.21875 49.921875 64.515625 
Q 56.59375 54.828125 56.59375 36.375 
Q 56.59375 19.140625 48.40625 8.859375 
Q 40.234375 -1.421875 26.421875 -1.421875 
Q 22.703125 -1.421875 18.890625 -0.6875 
Q 15.09375 0.046875 10.984375 1.515625 
z
M 30.609375 32.421875 
Q 37.25 32.421875 41.125 36.953125 
Q 45.015625 41.5 45.015625 49.421875 
Q 45.015625 57.28125 41.125 61.84375 
Q 37.25 66.40625 30.609375 66.40625 
Q 23.96875 66.40625 20.09375 61.84375 
Q 16.21875 57.28125 16.21875 49.421875 
Q 16.21875 41.5 20.09375 36.953125 
Q 23.96875 32.421875 30.609375 32.421875 
z
" id="DejaVuSans-57"/>
       </defs>
       <use xlink:href="#DejaVuSans-50"/>
       <use x="63.623047" xlink:href="#DejaVuSans-57"/>
       <use x="127.246094" xlink:href="#DejaVuSans-48"/>
      </g>
     </g>
    </g>
    <g id="xtick_12">
     <g id="line2d_17">
      <g>
       <use style="stroke:#000000;stroke-width:0.8;" x="385.941667" xlink:href="#m77e4f0aba0" y="332.2"/>
      </g>
     </g>
     <g id="text_17">
      <!-- 292 -->
      <g transform="translate(376.397917 346.798437)scale(0.1 -0.1)">
       <use xlink:href="#DejaVuSans-50"/>
       <use x="63.623047" xlink:href="#DejaVuSans-57"/>
       <use x="127.246094" xlink:href="#DejaVuSans-50"/>
      </g>
     </g>
    </g>
    <g id="xtick_13">
     <g id="line2d_18">
      <g>
       <use style="stroke:#000000;stroke-width:0.8;" x="470.789583" xlink:href="#m77e4f0aba0" y="332.2"/>
      </g>
     </g>
     <g id="text_18">
      <!-- 294 -->
      <g transform="translate(461.245833 346.798437)scale(0.1 -0.1)">
       <use xlink:href="#DejaVuSans-50"/>
       <use x="63.623047" xlink:href="#DejaVuSans-57"/>
       <use x="127.246094" xlink:href="#DejaVuSans-52"/>
      </g>
     </g>
    </g>
    <g id="xtick_14">
     <g id="line2d_19">
      <g>
       <use style="stroke:#000000;stroke-width:0.8;" x="555.6375" xlink:href="#m77e4f0aba0" y="332.2"/>
      </g>
     </g>
     <g id="text_19">
      <!-- 296 -->
      <g transform="translate(546.09375 346.798437)scale(0.1 -0.1)">
       <use xlink:href="#DejaVuSans-50"/>
       <use x="63.623047" xlink:href="#DejaVuSans-57"/>
       <use x="127.246094" xlink:href="#DejaVuSans-54"/>
      </g>
     </g>
    </g>
   </g>
   <g id="matplotlib.axis_4">
    <g id="ytick_5">
     <g id="line2d_20">
      <g>
       <use style="stroke:#000000;stroke-width:0.8;" x="46.55" xlink:href="#mf31bd6d8b5" y="326.979957"/>
      </g>
     </g>
     <g id="text_20">
      <!-- 0.000 -->
      <g transform="translate(10.921875 330.779176)scale(0.1 -0.1)">
       <use xlink:href="#DejaVuSans-48"/>
       <use x="63.623047" xlink:href="#DejaVuSans-46"/>
       <use x="95.410156" xlink:href="#DejaVuSans-48"/>
       <use x="159.033203" xlink:href="#DejaVuSans-48"/>
       <use x="222.65625" xlink:href="#DejaVuSans-48"/>
      </g>
     </g>
    </g>
    <g id="ytick_6">
     <g id="line2d_21">
      <g>
       <use style="stroke:#000000;stroke-width:0.8;" x="46.55" xlink:href="#mf31bd6d8b5" y="304.040463"/>
      </g>
     </g>
     <g id="text_21">
      <!-- 0.025 -->
      <g transform="translate(10.921875 307.839681)scale(0.1 -0.1)">
       <use xlink:href="#DejaVuSans-48"/>
       <use x="63.623047" xlink:href="#DejaVuSans-46"/>
       <use x="95.410156" xlink:href="#DejaVuSans-48"/>
       <use x="159.033203" xlink:href="#DejaVuSans-50"/>
       <use x="222.65625" xlink:href="#DejaVuSans-53"/>
      </g>
     </g>
    </g>
    <g id="ytick_7">
     <g id="line2d_22">
      <g>
       <use style="stroke:#000000;stroke-width:0.8;" x="46.55" xlink:href="#mf31bd6d8b5" y="281.100968"/>
      </g>
     </g>
     <g id="text_22">
      <!-- 0.050 -->
      <g transform="translate(10.921875 284.900187)scale(0.1 -0.1)">
       <use xlink:href="#DejaVuSans-48"/>
       <use x="63.623047" xlink:href="#DejaVuSans-46"/>
       <use x="95.410156" xlink:href="#DejaVuSans-48"/>
       <use x="159.033203" xlink:href="#DejaVuSans-53"/>
       <use x="222.65625" xlink:href="#DejaVuSans-48"/>
      </g>
     </g>
    </g>
    <g id="ytick_8">
     <g id="line2d_23">
      <g>
       <use style="stroke:#000000;stroke-width:0.8;" x="46.55" xlink:href="#mf31bd6d8b5" y="258.161474"/>
      </g>
     </g>
     <g id="text_23">
      <!-- 0.075 -->
      <g transform="translate(10.921875 261.960692)scale(0.1 -0.1)">
       <use xlink:href="#DejaVuSans-48"/>
       <use x="63.623047" xlink:href="#DejaVuSans-46"/>
       <use x="95.410156" xlink:href="#DejaVuSans-48"/>
       <use x="159.033203" xlink:href="#DejaVuSans-55"/>
       <use x="222.65625" xlink:href="#DejaVuSans-53"/>
      </g>
     </g>
    </g>
    <g id="ytick_9">
     <g id="line2d_24">
      <g>
       <use style="stroke:#000000;stroke-width:0.8;" x="46.55" xlink:href="#mf31bd6d8b5" y="235.221979"/>
      </g>
     </g>
     <g id="text_24">
      <!-- 0.100 -->
      <g transform="translate(10.921875 239.021198)scale(0.1 -0.1)">
       <use xlink:href="#DejaVuSans-48"/>
       <use x="63.623047" xlink:href="#DejaVuSans-46"/>
       <use x="95.410156" xlink:href="#DejaVuSans-49"/>
       <use x="159.033203" xlink:href="#DejaVuSans-48"/>
       <use x="222.65625" xlink:href="#DejaVuSans-48"/>
      </g>
     </g>
    </g>
    <g id="ytick_10">
     <g id="line2d_25">
      <g>
       <use style="stroke:#000000;stroke-width:0.8;" x="46.55" xlink:href="#mf31bd6d8b5" y="212.282485"/>
      </g>
     </g>
     <g id="text_25">
      <!-- 0.125 -->
      <g transform="translate(10.921875 216.081703)scale(0.1 -0.1)">
       <use xlink:href="#DejaVuSans-48"/>
       <use x="63.623047" xlink:href="#DejaVuSans-46"/>
       <use x="95.410156" xlink:href="#DejaVuSans-49"/>
       <use x="159.033203" xlink:href="#DejaVuSans-50"/>
       <use x="222.65625" xlink:href="#DejaVuSans-53"/>
      </g>
     </g>
    </g>
   </g>
   <g id="line2d_26">
    <path clip-path="url(#pcfecf80893)" d="M 46.55 324.518486 
L 66.065021 323.880952 
L 80.913406 323.183497 
L 92.792115 322.410358 
L 102.549625 321.553224 
L 110.610177 320.619479 
L 117.39801 319.604307 
L 122.913125 318.564561 
L 127.57976 317.481687 
L 131.822156 316.284935 
L 135.640312 314.98448 
L 139.034229 313.602024 
L 142.003906 312.173172 
L 144.973583 310.490378 
L 147.519021 308.800338 
L 150.064458 306.83155 
L 152.185656 304.935698 
L 154.306854 302.764185 
L 156.428052 300.268381 
L 158.54925 297.391716 
L 160.670448 294.069831 
L 162.791646 290.232215 
L 164.488604 286.742131 
L 166.609802 281.798935 
L 168.731 276.168514 
L 170.852198 269.851361 
L 173.397635 261.495919 
L 178.48851 244.306975 
L 180.185469 239.511134 
L 181.458187 236.623295 
L 182.306667 235.125368 
L 183.155146 234.015776 
L 184.003625 233.324063 
L 184.852104 233.068314 
L 185.700583 233.253847 
L 186.549062 233.872816 
L 187.397542 234.904785 
L 188.246021 236.318182 
L 189.51874 239.062937 
L 190.791458 242.412262 
L 192.488417 247.520158 
L 199.70049 270.152067 
L 201.821687 275.712692 
L 203.942885 280.560571 
L 205.639844 283.939727 
L 207.336802 286.904491 
L 209.03376 289.488635 
L 210.730719 291.727425 
L 212.427677 293.654937 
L 214.124635 295.302583 
L 215.821594 296.69841 
L 217.942792 298.125986 
L 220.06399 299.238016 
L 222.185187 300.066325 
L 224.306385 300.63529 
L 226.427583 300.962506 
L 228.548781 301.059352 
L 230.669979 300.931372 
L 232.791177 300.578488 
L 234.912375 299.995009 
L 237.033573 299.16945 
L 239.154771 298.084139 
L 241.275969 296.714638 
L 243.397167 295.028964 
L 245.094125 293.425905 
L 246.791083 291.56976 
L 248.488042 289.431326 
L 250.185 286.97702 
L 251.881958 284.168894 
L 253.578917 280.965039 
L 255.275875 277.320681 
L 256.972833 273.190388 
L 258.669792 268.531996 
L 260.36675 263.313074 
L 262.487948 255.984759 
L 264.609146 247.81821 
L 267.578823 235.393238 
L 270.97274 221.374237 
L 272.669698 215.409189 
L 273.942417 211.804795 
L 274.790896 209.930251 
L 275.639375 208.538557 
L 276.487854 207.66869 
L 276.912094 207.437803 
L 277.336333 207.345455 
L 277.760573 207.392237 
L 278.184812 207.577695 
L 279.033292 208.357649 
L 279.881771 209.661514 
L 280.73025 211.451152 
L 282.002969 214.934985 
L 283.275687 219.197252 
L 284.972646 225.715411 
L 292.184719 254.788562 
L 294.305917 261.97645 
L 296.427115 268.25992 
L 298.124073 272.650728 
L 299.821031 276.511897 
L 301.51799 279.885202 
L 303.214948 282.814435 
L 304.911906 285.341875 
L 306.608865 287.506314 
L 308.305823 289.342092 
L 310.002781 290.878732 
L 311.69974 292.14092 
L 313.396698 293.148651 
L 315.093656 293.917463 
L 316.790615 294.458671 
L 318.487573 294.779599 
L 320.184531 294.883784 
L 321.88149 294.771175 
L 323.578448 294.43836 
L 325.275406 293.878872 
L 326.972365 293.083667 
L 328.669323 292.041922 
L 330.366281 290.742331 
L 332.06324 289.175181 
L 333.760198 287.335521 
L 335.881396 284.660786 
L 338.002594 281.61285 
L 341.39651 276.252058 
L 344.366187 271.684744 
L 346.063146 269.4596 
L 347.335865 268.09374 
L 348.608583 267.042033 
L 349.881302 266.329331 
L 351.154021 265.953174 
L 352.42674 265.883586 
L 353.699458 266.067365 
L 355.396417 266.58663 
L 360.911531 268.55765 
L 362.60849 268.852647 
L 364.729687 268.975159 
L 368.972083 269.095657 
L 370.244802 269.348219 
L 371.517521 269.800082 
L 372.79024 270.486947 
L 374.062958 271.423161 
L 375.335677 272.600042 
L 377.032635 274.490062 
L 379.153833 277.207183 
L 384.668948 284.44638 
L 386.790146 286.80026 
L 388.487104 288.411204 
L 390.184062 289.763561 
L 391.881021 290.854185 
L 393.577979 291.686298 
L 395.274937 292.265892 
L 396.971896 292.599262 
L 398.668854 292.691375 
L 400.365812 292.544856 
L 402.062771 292.159355 
L 403.759729 291.531186 
L 405.456687 290.653128 
L 407.153646 289.514337 
L 408.850604 288.100334 
L 410.547562 286.393045 
L 412.244521 284.370854 
L 413.941479 282.008626 
L 415.638437 279.277731 
L 417.335396 276.146231 
L 419.032354 272.579707 
L 420.729312 268.543566 
L 422.426271 264.007927 
L 424.547469 257.61292 
L 426.668667 250.443203 
L 429.638344 239.419907 
L 433.4565 225.244966 
L 435.153458 219.901556 
L 436.426177 216.660303 
L 437.274656 214.960622 
L 438.123135 213.678639 
L 438.971615 212.84425 
L 439.820094 212.474347 
L 440.244333 212.464962 
L 441.092812 212.792088 
L 441.941292 213.563108 
L 442.789771 214.746029 
L 443.63825 216.298015 
L 444.910969 219.205046 
L 446.607927 223.862379 
L 453.39576 243.650085 
L 455.092719 247.529908 
L 456.365437 249.988925 
L 457.638156 252.04182 
L 458.910875 253.682347 
L 460.183594 254.91197 
L 461.456312 255.738178 
L 462.304792 256.070941 
L 463.153271 256.235013 
L 464.00175 256.23656 
L 465.274469 255.950721 
L 466.547187 255.347297 
L 467.819906 254.46584 
L 469.516865 252.944204 
L 471.638062 250.6904 
L 475.031979 247.0355 
L 476.728937 245.502904 
L 478.425896 244.277585 
L 480.122854 243.346743 
L 482.244052 242.464906 
L 486.062208 240.958354 
L 489.031885 239.478806 
L 491.153083 238.480506 
L 492.425802 238.090452 
L 493.274281 237.984462 
L 494.12276 238.040158 
L 494.97124 238.287956 
L 495.819719 238.753758 
L 496.668198 239.457113 
L 497.516677 240.409798 
L 498.365156 241.614959 
L 499.637875 243.881392 
L 500.910594 246.648081 
L 502.607552 250.96395 
L 505.15299 258.262374 
L 509.819625 271.841601 
L 512.365062 278.453805 
L 514.48626 283.349175 
L 516.607458 287.681407 
L 518.728656 291.488439 
L 520.849854 294.824219 
L 522.971052 297.745324 
L 525.09225 300.304674 
L 527.213448 302.549591 
L 529.758885 304.886777 
L 532.304323 306.893306 
L 534.84976 308.622011 
L 537.819437 310.346367 
L 540.789115 311.810121 
L 544.183031 313.222264 
L 548.001187 314.541312 
L 551.819344 315.62945 
L 556.06174 316.618272 
L 556.06174 316.618272 
" style="fill:none;stroke:#0000ff;stroke-linecap:square;stroke-width:1.5;"/>
   </g>
   <g id="patch_8">
    <path d="M 46.55 332.2 
L 46.55 201.4 
" style="fill:none;stroke:#000000;stroke-linecap:square;stroke-linejoin:miter;stroke-width:0.8;"/>
   </g>
   <g id="patch_9">
    <path d="M 555.6375 332.2 
L 555.6375 201.4 
" style="fill:none;stroke:#000000;stroke-linecap:square;stroke-linejoin:miter;stroke-width:0.8;"/>
   </g>
   <g id="patch_10">
    <path d="M 46.55 332.2 
L 555.6375 332.2 
" style="fill:none;stroke:#000000;stroke-linecap:square;stroke-linejoin:miter;stroke-width:0.8;"/>
   </g>
   <g id="patch_11">
    <path d="M 46.55 201.4 
L 555.6375 201.4 
" style="fill:none;stroke:#000000;stroke-linecap:square;stroke-linejoin:miter;stroke-width:0.8;"/>
   </g>
   <g id="text_26">
    <!-- CVS-ADC(2)-x -->
    <g transform="translate(259.831562 195.4)scale(0.12 -0.12)">
     <defs>
      <path d="M 28.609375 0 
L 0.78125 72.90625 
L 11.078125 72.90625 
L 34.1875 11.53125 
L 57.328125 72.90625 
L 67.578125 72.90625 
L 39.796875 0 
z
" id="DejaVuSans-86"/>
      <path d="M 53.515625 70.515625 
L 53.515625 60.890625 
Q 47.90625 63.578125 42.921875 64.890625 
Q 37.9375 66.21875 33.296875 66.21875 
Q 25.25 66.21875 20.875 63.09375 
Q 16.5 59.96875 16.5 54.203125 
Q 16.5 49.359375 19.40625 46.890625 
Q 22.3125 44.4375 30.421875 42.921875 
L 36.375 41.703125 
Q 47.40625 39.59375 52.65625 34.296875 
Q 57.90625 29 57.90625 20.125 
Q 57.90625 9.515625 50.796875 4.046875 
Q 43.703125 -1.421875 29.984375 -1.421875 
Q 24.8125 -1.421875 18.96875 -0.25 
Q 13.140625 0.921875 6.890625 3.21875 
L 6.890625 13.375 
Q 12.890625 10.015625 18.65625 8.296875 
Q 24.421875 6.59375 29.984375 6.59375 
Q 38.421875 6.59375 43.015625 9.90625 
Q 47.609375 13.234375 47.609375 19.390625 
Q 47.609375 24.75 44.3125 27.78125 
Q 41.015625 30.8125 33.5 32.328125 
L 27.484375 33.5 
Q 16.453125 35.6875 11.515625 40.375 
Q 6.59375 45.0625 6.59375 53.421875 
Q 6.59375 63.09375 13.40625 68.65625 
Q 20.21875 74.21875 32.171875 74.21875 
Q 37.3125 74.21875 42.625 73.28125 
Q 47.953125 72.359375 53.515625 70.515625 
z
" id="DejaVuSans-83"/>
      <path d="M 34.1875 63.1875 
L 20.796875 26.90625 
L 47.609375 26.90625 
z
M 28.609375 72.90625 
L 39.796875 72.90625 
L 67.578125 0 
L 57.328125 0 
L 50.6875 18.703125 
L 17.828125 18.703125 
L 11.1875 0 
L 0.78125 0 
z
" id="DejaVuSans-65"/>
      <path d="M 54.890625 54.6875 
L 35.109375 28.078125 
L 55.90625 0 
L 45.3125 0 
L 29.390625 21.484375 
L 13.484375 0 
L 2.875 0 
L 24.125 28.609375 
L 4.6875 54.6875 
L 15.28125 54.6875 
L 29.78125 35.203125 
L 44.28125 54.6875 
z
" id="DejaVuSans-120"/>
     </defs>
     <use xlink:href="#DejaVuSans-67"/>
     <use x="69.824219" xlink:href="#DejaVuSans-86"/>
     <use x="138.232422" xlink:href="#DejaVuSans-83"/>
     <use x="201.708984" xlink:href="#DejaVuSans-45"/>
     <use x="235.542969" xlink:href="#DejaVuSans-65"/>
     <use x="303.951172" xlink:href="#DejaVuSans-68"/>
     <use x="380.953125" xlink:href="#DejaVuSans-67"/>
     <use x="450.777344" xlink:href="#DejaVuSans-40"/>
     <use x="489.791016" xlink:href="#DejaVuSans-50"/>
     <use x="553.414062" xlink:href="#DejaVuSans-41"/>
     <use x="592.427734" xlink:href="#DejaVuSans-45"/>
     <use x="628.511719" xlink:href="#DejaVuSans-120"/>
    </g>
   </g>
  </g>
 </g>
 <defs>
  <clipPath id="pe43c36ff2c">
   <rect height="130.8" width="509.0875" x="46.55" y="26.8"/>
  </clipPath>
  <clipPath id="pcfecf80893">
   <rect height="130.8" width="509.0875" x="46.55" y="201.4"/>
  </clipPath>
 </defs>
</svg>
