<?xml version="1.0" encoding="utf-8" standalone="no"?>
<!DOCTYPE svg PUBLIC "-//W3C//DTD SVG 1.1//EN"
  "http://www.w3.org/Graphics/SVG/1.1/DTD/svg11.dtd">
<svg xmlns:xlink="http://www.w3.org/1999/xlink" width="432pt" height="216pt" viewBox="0 0 432 216" xmlns="http://www.w3.org/2000/svg" version="1.1">
 <metadata>
  <rdf:RDF xmlns:dc="http://purl.org/dc/elements/1.1/" xmlns:cc="http://creativecommons.org/ns#" xmlns:rdf="http://www.w3.org/1999/02/22-rdf-syntax-ns#">
   <cc:Work>
    <dc:type rdf:resource="http://purl.org/dc/dcmitype/StillImage"/>
    <dc:date>2022-06-17T10:33:35.134091</dc:date>
    <dc:format>image/svg+xml</dc:format>
    <dc:creator>
     <cc:Agent>
      <dc:title>Matplotlib v3.5.1, https://matplotlib.org/</dc:title>
     </cc:Agent>
    </dc:creator>
   </cc:Work>
  </rdf:RDF>
 </metadata>
 <defs>
  <style type="text/css">*{stroke-linejoin: round; stroke-linecap: butt}</style>
 </defs>
 <g id="figure_1">
  <g id="patch_1">
   <path d="M 0 216 
L 432 216 
L 432 0 
L 0 0 
L 0 216 
z
" style="fill: none"/>
  </g>
  <g id="axes_1">
   <g id="patch_2">
    <path d="M 40.175 188.2 
L 421.2 188.2 
L 421.2 10.8 
L 40.175 10.8 
z
" style="fill: #ffffff"/>
   </g>
   <g id="matplotlib.axis_1">
    <g id="xtick_1">
     <g id="line2d_1">
      <defs>
       <path id="m64ed3c1ba6" d="M 0 0 
L 0 3.5 
" style="stroke: #000000; stroke-width: 0.8"/>
      </defs>
      <g>
       <use xlink:href="#m64ed3c1ba6" x="57.494318" y="188.2" style="stroke: #000000; stroke-width: 0.8"/>
      </g>
     </g>
     <g id="text_1">
      <!-- 518 -->
      <g transform="translate(47.950568 202.798437)scale(0.1 -0.1)">
       <defs>
        <path id="DejaVuSans-35" d="M 691 4666 
L 3169 4666 
L 3169 4134 
L 1269 4134 
L 1269 2991 
Q 1406 3038 1543 3061 
Q 1681 3084 1819 3084 
Q 2600 3084 3056 2656 
Q 3513 2228 3513 1497 
Q 3513 744 3044 326 
Q 2575 -91 1722 -91 
Q 1428 -91 1123 -41 
Q 819 9 494 109 
L 494 744 
Q 775 591 1075 516 
Q 1375 441 1709 441 
Q 2250 441 2565 725 
Q 2881 1009 2881 1497 
Q 2881 1984 2565 2268 
Q 2250 2553 1709 2553 
Q 1456 2553 1204 2497 
Q 953 2441 691 2322 
L 691 4666 
z
" transform="scale(0.015625)"/>
        <path id="DejaVuSans-31" d="M 794 531 
L 1825 531 
L 1825 4091 
L 703 3866 
L 703 4441 
L 1819 4666 
L 2450 4666 
L 2450 531 
L 3481 531 
L 3481 0 
L 794 0 
L 794 531 
z
" transform="scale(0.015625)"/>
        <path id="DejaVuSans-38" d="M 2034 2216 
Q 1584 2216 1326 1975 
Q 1069 1734 1069 1313 
Q 1069 891 1326 650 
Q 1584 409 2034 409 
Q 2484 409 2743 651 
Q 3003 894 3003 1313 
Q 3003 1734 2745 1975 
Q 2488 2216 2034 2216 
z
M 1403 2484 
Q 997 2584 770 2862 
Q 544 3141 544 3541 
Q 544 4100 942 4425 
Q 1341 4750 2034 4750 
Q 2731 4750 3128 4425 
Q 3525 4100 3525 3541 
Q 3525 3141 3298 2862 
Q 3072 2584 2669 2484 
Q 3125 2378 3379 2068 
Q 3634 1759 3634 1313 
Q 3634 634 3220 271 
Q 2806 -91 2034 -91 
Q 1263 -91 848 271 
Q 434 634 434 1313 
Q 434 1759 690 2068 
Q 947 2378 1403 2484 
z
M 1172 3481 
Q 1172 3119 1398 2916 
Q 1625 2713 2034 2713 
Q 2441 2713 2670 2916 
Q 2900 3119 2900 3481 
Q 2900 3844 2670 4047 
Q 2441 4250 2034 4250 
Q 1625 4250 1398 4047 
Q 1172 3844 1172 3481 
z
" transform="scale(0.015625)"/>
       </defs>
       <use xlink:href="#DejaVuSans-35"/>
       <use xlink:href="#DejaVuSans-31" x="63.623047"/>
       <use xlink:href="#DejaVuSans-38" x="127.246094"/>
      </g>
     </g>
    </g>
    <g id="xtick_2">
     <g id="line2d_2">
      <g>
       <use xlink:href="#m64ed3c1ba6" x="100.819692" y="188.2" style="stroke: #000000; stroke-width: 0.8"/>
      </g>
     </g>
     <g id="text_2">
      <!-- 520 -->
      <g transform="translate(91.275942 202.798437)scale(0.1 -0.1)">
       <defs>
        <path id="DejaVuSans-32" d="M 1228 531 
L 3431 531 
L 3431 0 
L 469 0 
L 469 531 
Q 828 903 1448 1529 
Q 2069 2156 2228 2338 
Q 2531 2678 2651 2914 
Q 2772 3150 2772 3378 
Q 2772 3750 2511 3984 
Q 2250 4219 1831 4219 
Q 1534 4219 1204 4116 
Q 875 4013 500 3803 
L 500 4441 
Q 881 4594 1212 4672 
Q 1544 4750 1819 4750 
Q 2544 4750 2975 4387 
Q 3406 4025 3406 3419 
Q 3406 3131 3298 2873 
Q 3191 2616 2906 2266 
Q 2828 2175 2409 1742 
Q 1991 1309 1228 531 
z
" transform="scale(0.015625)"/>
        <path id="DejaVuSans-30" d="M 2034 4250 
Q 1547 4250 1301 3770 
Q 1056 3291 1056 2328 
Q 1056 1369 1301 889 
Q 1547 409 2034 409 
Q 2525 409 2770 889 
Q 3016 1369 3016 2328 
Q 3016 3291 2770 3770 
Q 2525 4250 2034 4250 
z
M 2034 4750 
Q 2819 4750 3233 4129 
Q 3647 3509 3647 2328 
Q 3647 1150 3233 529 
Q 2819 -91 2034 -91 
Q 1250 -91 836 529 
Q 422 1150 422 2328 
Q 422 3509 836 4129 
Q 1250 4750 2034 4750 
z
" transform="scale(0.015625)"/>
       </defs>
       <use xlink:href="#DejaVuSans-35"/>
       <use xlink:href="#DejaVuSans-32" x="63.623047"/>
       <use xlink:href="#DejaVuSans-30" x="127.246094"/>
      </g>
     </g>
    </g>
    <g id="xtick_3">
     <g id="line2d_3">
      <g>
       <use xlink:href="#m64ed3c1ba6" x="144.145066" y="188.2" style="stroke: #000000; stroke-width: 0.8"/>
      </g>
     </g>
     <g id="text_3">
      <!-- 522 -->
      <g transform="translate(134.601316 202.798437)scale(0.1 -0.1)">
       <use xlink:href="#DejaVuSans-35"/>
       <use xlink:href="#DejaVuSans-32" x="63.623047"/>
       <use xlink:href="#DejaVuSans-32" x="127.246094"/>
      </g>
     </g>
    </g>
    <g id="xtick_4">
     <g id="line2d_4">
      <g>
       <use xlink:href="#m64ed3c1ba6" x="187.47044" y="188.2" style="stroke: #000000; stroke-width: 0.8"/>
      </g>
     </g>
     <g id="text_4">
      <!-- 524 -->
      <g transform="translate(177.92669 202.798437)scale(0.1 -0.1)">
       <defs>
        <path id="DejaVuSans-34" d="M 2419 4116 
L 825 1625 
L 2419 1625 
L 2419 4116 
z
M 2253 4666 
L 3047 4666 
L 3047 1625 
L 3713 1625 
L 3713 1100 
L 3047 1100 
L 3047 0 
L 2419 0 
L 2419 1100 
L 313 1100 
L 313 1709 
L 2253 4666 
z
" transform="scale(0.015625)"/>
       </defs>
       <use xlink:href="#DejaVuSans-35"/>
       <use xlink:href="#DejaVuSans-32" x="63.623047"/>
       <use xlink:href="#DejaVuSans-34" x="127.246094"/>
      </g>
     </g>
    </g>
    <g id="xtick_5">
     <g id="line2d_5">
      <g>
       <use xlink:href="#m64ed3c1ba6" x="230.795813" y="188.2" style="stroke: #000000; stroke-width: 0.8"/>
      </g>
     </g>
     <g id="text_5">
      <!-- 526 -->
      <g transform="translate(221.252063 202.798437)scale(0.1 -0.1)">
       <defs>
        <path id="DejaVuSans-36" d="M 2113 2584 
Q 1688 2584 1439 2293 
Q 1191 2003 1191 1497 
Q 1191 994 1439 701 
Q 1688 409 2113 409 
Q 2538 409 2786 701 
Q 3034 994 3034 1497 
Q 3034 2003 2786 2293 
Q 2538 2584 2113 2584 
z
M 3366 4563 
L 3366 3988 
Q 3128 4100 2886 4159 
Q 2644 4219 2406 4219 
Q 1781 4219 1451 3797 
Q 1122 3375 1075 2522 
Q 1259 2794 1537 2939 
Q 1816 3084 2150 3084 
Q 2853 3084 3261 2657 
Q 3669 2231 3669 1497 
Q 3669 778 3244 343 
Q 2819 -91 2113 -91 
Q 1303 -91 875 529 
Q 447 1150 447 2328 
Q 447 3434 972 4092 
Q 1497 4750 2381 4750 
Q 2619 4750 2861 4703 
Q 3103 4656 3366 4563 
z
" transform="scale(0.015625)"/>
       </defs>
       <use xlink:href="#DejaVuSans-35"/>
       <use xlink:href="#DejaVuSans-32" x="63.623047"/>
       <use xlink:href="#DejaVuSans-36" x="127.246094"/>
      </g>
     </g>
    </g>
    <g id="xtick_6">
     <g id="line2d_6">
      <g>
       <use xlink:href="#m64ed3c1ba6" x="274.121187" y="188.2" style="stroke: #000000; stroke-width: 0.8"/>
      </g>
     </g>
     <g id="text_6">
      <!-- 528 -->
      <g transform="translate(264.577437 202.798437)scale(0.1 -0.1)">
       <use xlink:href="#DejaVuSans-35"/>
       <use xlink:href="#DejaVuSans-32" x="63.623047"/>
       <use xlink:href="#DejaVuSans-38" x="127.246094"/>
      </g>
     </g>
    </g>
    <g id="xtick_7">
     <g id="line2d_7">
      <g>
       <use xlink:href="#m64ed3c1ba6" x="317.446561" y="188.2" style="stroke: #000000; stroke-width: 0.8"/>
      </g>
     </g>
     <g id="text_7">
      <!-- 530 -->
      <g transform="translate(307.902811 202.798437)scale(0.1 -0.1)">
       <defs>
        <path id="DejaVuSans-33" d="M 2597 2516 
Q 3050 2419 3304 2112 
Q 3559 1806 3559 1356 
Q 3559 666 3084 287 
Q 2609 -91 1734 -91 
Q 1441 -91 1130 -33 
Q 819 25 488 141 
L 488 750 
Q 750 597 1062 519 
Q 1375 441 1716 441 
Q 2309 441 2620 675 
Q 2931 909 2931 1356 
Q 2931 1769 2642 2001 
Q 2353 2234 1838 2234 
L 1294 2234 
L 1294 2753 
L 1863 2753 
Q 2328 2753 2575 2939 
Q 2822 3125 2822 3475 
Q 2822 3834 2567 4026 
Q 2313 4219 1838 4219 
Q 1578 4219 1281 4162 
Q 984 4106 628 3988 
L 628 4550 
Q 988 4650 1302 4700 
Q 1616 4750 1894 4750 
Q 2613 4750 3031 4423 
Q 3450 4097 3450 3541 
Q 3450 3153 3228 2886 
Q 3006 2619 2597 2516 
z
" transform="scale(0.015625)"/>
       </defs>
       <use xlink:href="#DejaVuSans-35"/>
       <use xlink:href="#DejaVuSans-33" x="63.623047"/>
       <use xlink:href="#DejaVuSans-30" x="127.246094"/>
      </g>
     </g>
    </g>
    <g id="xtick_8">
     <g id="line2d_8">
      <g>
       <use xlink:href="#m64ed3c1ba6" x="360.771935" y="188.2" style="stroke: #000000; stroke-width: 0.8"/>
      </g>
     </g>
     <g id="text_8">
      <!-- 532 -->
      <g transform="translate(351.228185 202.798437)scale(0.1 -0.1)">
       <use xlink:href="#DejaVuSans-35"/>
       <use xlink:href="#DejaVuSans-33" x="63.623047"/>
       <use xlink:href="#DejaVuSans-32" x="127.246094"/>
      </g>
     </g>
    </g>
    <g id="xtick_9">
     <g id="line2d_9">
      <g>
       <use xlink:href="#m64ed3c1ba6" x="404.097309" y="188.2" style="stroke: #000000; stroke-width: 0.8"/>
      </g>
     </g>
     <g id="text_9">
      <!-- 534 -->
      <g transform="translate(394.553559 202.798437)scale(0.1 -0.1)">
       <use xlink:href="#DejaVuSans-35"/>
       <use xlink:href="#DejaVuSans-33" x="63.623047"/>
       <use xlink:href="#DejaVuSans-34" x="127.246094"/>
      </g>
     </g>
    </g>
   </g>
   <g id="matplotlib.axis_2">
    <g id="ytick_1">
     <g id="line2d_10">
      <defs>
       <path id="m26357b4316" d="M 0 0 
L -3.5 0 
" style="stroke: #000000; stroke-width: 0.8"/>
      </defs>
      <g>
       <use xlink:href="#m26357b4316" x="40.175" y="180.423396" style="stroke: #000000; stroke-width: 0.8"/>
      </g>
     </g>
     <g id="text_10">
      <!-- 0.00 -->
      <g transform="translate(10.909375 184.222615)scale(0.1 -0.1)">
       <defs>
        <path id="DejaVuSans-2e" d="M 684 794 
L 1344 794 
L 1344 0 
L 684 0 
L 684 794 
z
" transform="scale(0.015625)"/>
       </defs>
       <use xlink:href="#DejaVuSans-30"/>
       <use xlink:href="#DejaVuSans-2e" x="63.623047"/>
       <use xlink:href="#DejaVuSans-30" x="95.410156"/>
       <use xlink:href="#DejaVuSans-30" x="159.033203"/>
      </g>
     </g>
    </g>
    <g id="ytick_2">
     <g id="line2d_11">
      <g>
       <use xlink:href="#m26357b4316" x="40.175" y="145.305671" style="stroke: #000000; stroke-width: 0.8"/>
      </g>
     </g>
     <g id="text_11">
      <!-- 0.05 -->
      <g transform="translate(10.909375 149.104889)scale(0.1 -0.1)">
       <use xlink:href="#DejaVuSans-30"/>
       <use xlink:href="#DejaVuSans-2e" x="63.623047"/>
       <use xlink:href="#DejaVuSans-30" x="95.410156"/>
       <use xlink:href="#DejaVuSans-35" x="159.033203"/>
      </g>
     </g>
    </g>
    <g id="ytick_3">
     <g id="line2d_12">
      <g>
       <use xlink:href="#m26357b4316" x="40.175" y="110.187945" style="stroke: #000000; stroke-width: 0.8"/>
      </g>
     </g>
     <g id="text_12">
      <!-- 0.10 -->
      <g transform="translate(10.909375 113.987164)scale(0.1 -0.1)">
       <use xlink:href="#DejaVuSans-30"/>
       <use xlink:href="#DejaVuSans-2e" x="63.623047"/>
       <use xlink:href="#DejaVuSans-31" x="95.410156"/>
       <use xlink:href="#DejaVuSans-30" x="159.033203"/>
      </g>
     </g>
    </g>
    <g id="ytick_4">
     <g id="line2d_13">
      <g>
       <use xlink:href="#m26357b4316" x="40.175" y="75.070219" style="stroke: #000000; stroke-width: 0.8"/>
      </g>
     </g>
     <g id="text_13">
      <!-- 0.15 -->
      <g transform="translate(10.909375 78.869438)scale(0.1 -0.1)">
       <use xlink:href="#DejaVuSans-30"/>
       <use xlink:href="#DejaVuSans-2e" x="63.623047"/>
       <use xlink:href="#DejaVuSans-31" x="95.410156"/>
       <use xlink:href="#DejaVuSans-35" x="159.033203"/>
      </g>
     </g>
    </g>
    <g id="ytick_5">
     <g id="line2d_14">
      <g>
       <use xlink:href="#m26357b4316" x="40.175" y="39.952494" style="stroke: #000000; stroke-width: 0.8"/>
      </g>
     </g>
     <g id="text_14">
      <!-- 0.20 -->
      <g transform="translate(10.909375 43.751713)scale(0.1 -0.1)">
       <use xlink:href="#DejaVuSans-30"/>
       <use xlink:href="#DejaVuSans-2e" x="63.623047"/>
       <use xlink:href="#DejaVuSans-32" x="95.410156"/>
       <use xlink:href="#DejaVuSans-30" x="159.033203"/>
      </g>
     </g>
    </g>
   </g>
   <g id="line2d_15">
    <path d="M 57.494318 179.673754 
L 74.174587 179.294637 
L 85.005931 178.839425 
L 92.587871 178.309042 
L 98.22017 177.7005 
L 102.552707 177.016957 
L 106.018737 176.25229 
L 108.834886 175.413099 
L 111.217782 174.479387 
L 113.167424 173.500463 
L 114.900438 172.407765 
L 116.416827 171.22217 
L 117.933215 169.752274 
L 119.232976 168.195146 
L 120.532737 166.277359 
L 121.615871 164.322938 
L 122.699006 161.951478 
L 123.78214 159.045961 
L 124.865274 155.45115 
L 125.948409 150.961861 
L 127.031543 145.311085 
L 128.114677 138.16478 
L 129.197812 129.141982 
L 130.280946 117.904007 
L 131.580707 101.464415 
L 133.963603 70.076606 
L 134.613484 64.74908 
L 135.046737 62.798157 
L 135.263364 62.364616 
L 135.479991 62.305528 
L 135.696618 62.621993 
L 136.129872 64.350505 
L 136.563125 67.423179 
L 137.213006 74.073851 
L 138.29614 88.366161 
L 140.245782 114.517359 
L 141.328917 126.348567 
L 142.412051 135.907882 
L 143.495185 143.491796 
L 144.57832 149.483192 
L 145.661454 154.232052 
L 146.744588 158.022939 
L 147.827723 161.076116 
L 148.910857 163.55866 
L 150.210618 165.95956 
L 151.510379 167.879054 
L 152.810141 169.432632 
L 154.326529 170.893451 
L 155.842917 172.065969 
L 157.575932 173.140008 
L 159.525574 174.094264 
L 161.908469 174.993617 
L 164.507992 175.734388 
L 167.757395 176.414339 
L 171.656678 176.984307 
L 176.422469 177.439684 
L 182.271395 177.760672 
L 189.203455 177.910405 
L 196.785395 177.851139 
L 203.934082 177.581531 
L 209.999634 177.143498 
L 214.982052 176.572187 
L 219.097963 175.880797 
L 222.347366 175.124145 
L 225.163515 174.247666 
L 227.54641 173.277855 
L 229.496052 172.268462 
L 231.229067 171.150677 
L 232.962082 169.75523 
L 234.47847 168.231047 
L 235.778231 166.627622 
L 237.077993 164.666515 
L 238.377754 162.238361 
L 239.460888 159.750678 
L 240.544023 156.716436 
L 241.627157 152.97884 
L 242.710291 148.330282 
L 243.793426 142.498954 
L 244.87656 135.139716 
L 245.959694 125.84475 
L 247.042829 114.21208 
L 248.125963 100.050064 
L 251.375366 54.379123 
L 251.80862 51.148459 
L 252.241873 49.411076 
L 252.4585 49.146017 
L 252.675127 49.292156 
L 252.891754 49.846314 
L 253.325008 52.127999 
L 253.758262 55.822959 
L 254.408142 63.451659 
L 255.707903 82.583902 
L 257.440918 107.374972 
L 258.524053 119.901913 
L 259.607187 129.953298 
L 260.690321 137.874278 
L 261.773456 144.082269 
L 262.85659 148.951215 
L 263.939724 152.782163 
L 265.022859 155.80653 
L 266.105993 158.198617 
L 267.189127 160.088601 
L 268.272262 161.573371 
L 269.355396 162.724834 
L 270.43853 163.596034 
L 271.521665 164.225555 
L 272.604799 164.640631 
L 273.90456 164.880461 
L 275.204322 164.853437 
L 276.504083 164.56151 
L 277.587217 164.107543 
L 278.670351 163.446419 
L 279.753486 162.554815 
L 280.83662 161.399447 
L 281.919755 159.934616 
L 283.002889 158.098692 
L 284.086023 155.809164 
L 285.169158 152.95578 
L 286.252292 149.391193 
L 287.335426 144.918579 
L 288.418561 139.276247 
L 289.501695 132.121202 
L 290.368202 125.01901 
L 291.451337 113.994519 
L 292.534471 100.113854 
L 293.617605 83.093035 
L 295.133994 55.147966 
L 296.433755 32.286733 
L 297.083635 24.032898 
L 297.516889 20.522573 
L 297.950143 18.912261 
L 298.16677 18.863636 
L 298.383397 19.324261 
L 298.81665 21.730196 
L 299.249904 25.956192 
L 299.899785 35.056127 
L 300.982919 54.549252 
L 302.932561 90.158728 
L 304.015695 106.269614 
L 305.09883 119.29574 
L 306.181964 129.640982 
L 307.265098 137.825148 
L 308.348233 144.322971 
L 309.431367 149.520326 
L 310.514501 153.715893 
L 311.597636 157.136245 
L 312.897397 160.454862 
L 314.197158 163.118808 
L 315.496919 165.284834 
L 316.79668 167.067025 
L 318.313069 168.772051 
L 319.829457 170.165979 
L 321.562472 171.467896 
L 323.512113 172.650574 
L 325.678382 173.702625 
L 328.277905 174.697891 
L 331.310681 175.594707 
L 334.776711 176.375587 
L 338.892621 177.071433 
L 344.091666 177.712259 
L 350.590472 178.27579 
L 359.03892 178.771071 
L 370.303517 179.19558 
L 386.117279 179.554529 
L 403.880682 179.792901 
L 403.880682 179.792901 
" clip-path="url(#p5072082846)" style="fill: none; stroke: #1f77b4; stroke-width: 1.5; stroke-linecap: square"/>
   </g>
   <g id="line2d_16">
    <path d="M 57.494318 180.136364 
L 103.852468 179.877657 
L 127.24817 179.544694 
L 141.328917 179.136591 
L 150.643872 178.657594 
L 157.359305 178.099184 
L 162.341723 177.473235 
L 166.241006 176.771321 
L 169.490409 175.960703 
L 172.089932 175.088927 
L 174.256201 174.142327 
L 176.205842 173.049809 
L 177.938857 171.815051 
L 179.455245 170.458571 
L 180.755007 169.023583 
L 182.054768 167.258616 
L 183.354529 165.060258 
L 184.437663 162.795257 
L 185.520798 160.018098 
L 186.603932 156.579514 
L 187.687066 152.282373 
L 188.770201 146.870757 
L 189.853335 140.026284 
L 190.93647 131.39072 
L 192.019604 120.658846 
L 193.319365 105.050651 
L 195.485634 78.059854 
L 196.135514 72.64203 
L 196.568768 70.464017 
L 196.785395 69.870949 
L 197.002022 69.625347 
L 197.218649 69.731852 
L 197.435276 70.18839 
L 197.868529 72.110602 
L 198.301783 75.252265 
L 198.951664 81.774295 
L 200.251425 98.221491 
L 201.98444 119.649604 
L 203.067574 130.527925 
L 204.150709 139.294138 
L 205.233843 146.241869 
L 206.316977 151.729878 
L 207.400112 156.080922 
L 208.483246 159.555728 
L 209.56638 162.355557 
L 210.649515 164.632909 
L 211.949276 166.83585 
L 213.249037 168.597054 
L 214.548798 170.02203 
L 216.065186 171.360849 
L 217.798201 172.56939 
L 219.747843 173.626441 
L 221.914112 174.527649 
L 224.297007 175.279368 
L 227.113157 175.937032 
L 230.579187 176.506361 
L 234.695097 176.945913 
L 239.677515 177.241668 
L 245.309814 177.349008 
L 251.375366 177.237871 
L 257.007665 176.912752 
L 261.773456 176.422661 
L 265.672739 175.813089 
L 268.922142 175.096429 
L 271.738292 174.2535 
L 274.121187 173.311384 
L 276.070829 172.323831 
L 277.803844 171.224159 
L 279.536859 169.844381 
L 281.053247 168.330206 
L 282.353008 166.730644 
L 283.652769 164.766382 
L 284.735904 162.770368 
L 285.819038 160.355098 
L 286.902173 157.404146 
L 287.985307 153.763116 
L 289.068441 149.227796 
L 290.151576 143.531756 
L 291.23471 136.339511 
L 292.317844 127.262413 
L 293.400979 115.93823 
L 294.484113 102.25509 
L 297.300262 64.151579 
L 297.950143 58.994356 
L 298.383397 57.248323 
L 298.600023 56.939113 
L 298.81665 57.015432 
L 299.033277 57.475398 
L 299.466531 59.502819 
L 299.899785 62.870741 
L 300.549665 69.91655 
L 301.6328 84.664998 
L 303.582441 111.071104 
L 304.665576 122.865925 
L 305.74871 132.328006 
L 306.831844 139.775429 
L 307.914979 145.599303 
L 308.998113 150.151544 
L 310.081248 153.715735 
L 311.164382 156.509662 
L 312.247516 158.696914 
L 313.330651 160.399051 
L 314.413785 161.705774 
L 315.496919 162.682683 
L 316.580054 163.376956 
L 317.663188 163.821355 
L 318.746322 164.036961 
L 319.829457 164.034914 
L 320.912591 163.817349 
L 321.995725 163.377631 
L 323.07886 162.699921 
L 324.161994 161.758031 
L 325.245128 160.513437 
L 326.328263 158.91225 
L 327.411397 156.880823 
L 328.494531 154.319557 
L 329.577666 151.094383 
L 330.6608 147.025426 
L 331.743934 141.872846 
L 332.827069 135.321591 
L 333.693576 128.807495 
L 334.776711 118.681781 
L 335.859845 105.914183 
L 336.942979 90.230296 
L 338.459367 64.387353 
L 339.759129 43.080114 
L 340.409009 35.290152 
L 340.842263 31.918427 
L 341.275517 30.296333 
L 341.492144 30.185258 
L 341.70877 30.547133 
L 341.925397 31.375434 
L 342.358651 34.362364 
L 343.008532 41.723533 
L 343.875039 55.231432 
L 346.691188 102.330062 
L 347.774323 116.207418 
L 348.857457 127.330158 
L 349.940591 136.141765 
L 351.023726 143.118834 
L 352.10686 148.672976 
L 353.189994 153.131146 
L 354.273129 156.743955 
L 355.356263 159.700877 
L 356.656024 162.582004 
L 357.955786 164.90504 
L 359.255547 166.801748 
L 360.771935 168.602715 
L 362.288323 170.064321 
L 364.021338 171.419992 
L 365.97098 172.642987 
L 368.137248 173.723596 
L 370.520144 174.663969 
L 373.336293 175.532825 
L 376.585696 176.303511 
L 380.48498 177.001632 
L 385.467398 177.653709 
L 391.53295 178.215143 
L 399.548144 178.720138 
L 403.880682 178.921049 
L 403.880682 178.921049 
" clip-path="url(#p5072082846)" style="fill: none; stroke: #ff7f0e; stroke-width: 1.5; stroke-linecap: square"/>
   </g>
   <g id="patch_3">
    <path d="M 40.175 188.2 
L 40.175 10.8 
" style="fill: none; stroke: #000000; stroke-width: 0.8; stroke-linejoin: miter; stroke-linecap: square"/>
   </g>
   <g id="patch_4">
    <path d="M 421.2 188.2 
L 421.2 10.8 
" style="fill: none; stroke: #000000; stroke-width: 0.8; stroke-linejoin: miter; stroke-linecap: square"/>
   </g>
   <g id="patch_5">
    <path d="M 40.175 188.2 
L 421.2 188.2 
" style="fill: none; stroke: #000000; stroke-width: 0.8; stroke-linejoin: miter; stroke-linecap: square"/>
   </g>
   <g id="patch_6">
    <path d="M 40.175 10.8 
L 421.2 10.8 
" style="fill: none; stroke: #000000; stroke-width: 0.8; stroke-linejoin: miter; stroke-linecap: square"/>
   </g>
   <g id="legend_1">
    <g id="patch_7">
     <path d="M 47.175 48.15625 
L 171.0875 48.15625 
Q 173.0875 48.15625 173.0875 46.15625 
L 173.0875 17.8 
Q 173.0875 15.8 171.0875 15.8 
L 47.175 15.8 
Q 45.175 15.8 45.175 17.8 
L 45.175 46.15625 
Q 45.175 48.15625 47.175 48.15625 
z
" style="fill: #ffffff; opacity: 0.8; stroke: #cccccc; stroke-linejoin: miter"/>
    </g>
    <g id="line2d_17">
     <path d="M 49.175 23.898438 
L 59.175 23.898438 
L 69.175 23.898438 
" style="fill: none; stroke: #1f77b4; stroke-width: 1.5; stroke-linecap: square"/>
    </g>
    <g id="text_15">
     <!-- From core-hole -->
     <g transform="translate(77.175 27.398438)scale(0.1 -0.1)">
      <defs>
       <path id="DejaVuSans-46" d="M 628 4666 
L 3309 4666 
L 3309 4134 
L 1259 4134 
L 1259 2759 
L 3109 2759 
L 3109 2228 
L 1259 2228 
L 1259 0 
L 628 0 
L 628 4666 
z
" transform="scale(0.015625)"/>
       <path id="DejaVuSans-72" d="M 2631 2963 
Q 2534 3019 2420 3045 
Q 2306 3072 2169 3072 
Q 1681 3072 1420 2755 
Q 1159 2438 1159 1844 
L 1159 0 
L 581 0 
L 581 3500 
L 1159 3500 
L 1159 2956 
Q 1341 3275 1631 3429 
Q 1922 3584 2338 3584 
Q 2397 3584 2469 3576 
Q 2541 3569 2628 3553 
L 2631 2963 
z
" transform="scale(0.015625)"/>
       <path id="DejaVuSans-6f" d="M 1959 3097 
Q 1497 3097 1228 2736 
Q 959 2375 959 1747 
Q 959 1119 1226 758 
Q 1494 397 1959 397 
Q 2419 397 2687 759 
Q 2956 1122 2956 1747 
Q 2956 2369 2687 2733 
Q 2419 3097 1959 3097 
z
M 1959 3584 
Q 2709 3584 3137 3096 
Q 3566 2609 3566 1747 
Q 3566 888 3137 398 
Q 2709 -91 1959 -91 
Q 1206 -91 779 398 
Q 353 888 353 1747 
Q 353 2609 779 3096 
Q 1206 3584 1959 3584 
z
" transform="scale(0.015625)"/>
       <path id="DejaVuSans-6d" d="M 3328 2828 
Q 3544 3216 3844 3400 
Q 4144 3584 4550 3584 
Q 5097 3584 5394 3201 
Q 5691 2819 5691 2113 
L 5691 0 
L 5113 0 
L 5113 2094 
Q 5113 2597 4934 2840 
Q 4756 3084 4391 3084 
Q 3944 3084 3684 2787 
Q 3425 2491 3425 1978 
L 3425 0 
L 2847 0 
L 2847 2094 
Q 2847 2600 2669 2842 
Q 2491 3084 2119 3084 
Q 1678 3084 1418 2786 
Q 1159 2488 1159 1978 
L 1159 0 
L 581 0 
L 581 3500 
L 1159 3500 
L 1159 2956 
Q 1356 3278 1631 3431 
Q 1906 3584 2284 3584 
Q 2666 3584 2933 3390 
Q 3200 3197 3328 2828 
z
" transform="scale(0.015625)"/>
       <path id="DejaVuSans-20" transform="scale(0.015625)"/>
       <path id="DejaVuSans-63" d="M 3122 3366 
L 3122 2828 
Q 2878 2963 2633 3030 
Q 2388 3097 2138 3097 
Q 1578 3097 1268 2742 
Q 959 2388 959 1747 
Q 959 1106 1268 751 
Q 1578 397 2138 397 
Q 2388 397 2633 464 
Q 2878 531 3122 666 
L 3122 134 
Q 2881 22 2623 -34 
Q 2366 -91 2075 -91 
Q 1284 -91 818 406 
Q 353 903 353 1747 
Q 353 2603 823 3093 
Q 1294 3584 2113 3584 
Q 2378 3584 2631 3529 
Q 2884 3475 3122 3366 
z
" transform="scale(0.015625)"/>
       <path id="DejaVuSans-65" d="M 3597 1894 
L 3597 1613 
L 953 1613 
Q 991 1019 1311 708 
Q 1631 397 2203 397 
Q 2534 397 2845 478 
Q 3156 559 3463 722 
L 3463 178 
Q 3153 47 2828 -22 
Q 2503 -91 2169 -91 
Q 1331 -91 842 396 
Q 353 884 353 1716 
Q 353 2575 817 3079 
Q 1281 3584 2069 3584 
Q 2775 3584 3186 3129 
Q 3597 2675 3597 1894 
z
M 3022 2063 
Q 3016 2534 2758 2815 
Q 2500 3097 2075 3097 
Q 1594 3097 1305 2825 
Q 1016 2553 972 2059 
L 3022 2063 
z
" transform="scale(0.015625)"/>
       <path id="DejaVuSans-2d" d="M 313 2009 
L 1997 2009 
L 1997 1497 
L 313 1497 
L 313 2009 
z
" transform="scale(0.015625)"/>
       <path id="DejaVuSans-68" d="M 3513 2113 
L 3513 0 
L 2938 0 
L 2938 2094 
Q 2938 2591 2744 2837 
Q 2550 3084 2163 3084 
Q 1697 3084 1428 2787 
Q 1159 2491 1159 1978 
L 1159 0 
L 581 0 
L 581 4863 
L 1159 4863 
L 1159 2956 
Q 1366 3272 1645 3428 
Q 1925 3584 2291 3584 
Q 2894 3584 3203 3211 
Q 3513 2838 3513 2113 
z
" transform="scale(0.015625)"/>
       <path id="DejaVuSans-6c" d="M 603 4863 
L 1178 4863 
L 1178 0 
L 603 0 
L 603 4863 
z
" transform="scale(0.015625)"/>
      </defs>
      <use xlink:href="#DejaVuSans-46"/>
      <use xlink:href="#DejaVuSans-72" x="50.269531"/>
      <use xlink:href="#DejaVuSans-6f" x="89.132812"/>
      <use xlink:href="#DejaVuSans-6d" x="150.314453"/>
      <use xlink:href="#DejaVuSans-20" x="247.726562"/>
      <use xlink:href="#DejaVuSans-63" x="279.513672"/>
      <use xlink:href="#DejaVuSans-6f" x="334.494141"/>
      <use xlink:href="#DejaVuSans-72" x="395.675781"/>
      <use xlink:href="#DejaVuSans-65" x="434.539062"/>
      <use xlink:href="#DejaVuSans-2d" x="496.0625"/>
      <use xlink:href="#DejaVuSans-68" x="532.146484"/>
      <use xlink:href="#DejaVuSans-6f" x="595.525391"/>
      <use xlink:href="#DejaVuSans-6c" x="656.707031"/>
      <use xlink:href="#DejaVuSans-65" x="684.490234"/>
     </g>
    </g>
    <g id="line2d_18">
     <path d="M 49.175 38.576562 
L 59.175 38.576562 
L 69.175 38.576562 
" style="fill: none; stroke: #ff7f0e; stroke-width: 1.5; stroke-linecap: square"/>
    </g>
    <g id="text_16">
     <!-- From valence-hole -->
     <g transform="translate(77.175 42.076562)scale(0.1 -0.1)">
      <defs>
       <path id="DejaVuSans-76" d="M 191 3500 
L 800 3500 
L 1894 563 
L 2988 3500 
L 3597 3500 
L 2284 0 
L 1503 0 
L 191 3500 
z
" transform="scale(0.015625)"/>
       <path id="DejaVuSans-61" d="M 2194 1759 
Q 1497 1759 1228 1600 
Q 959 1441 959 1056 
Q 959 750 1161 570 
Q 1363 391 1709 391 
Q 2188 391 2477 730 
Q 2766 1069 2766 1631 
L 2766 1759 
L 2194 1759 
z
M 3341 1997 
L 3341 0 
L 2766 0 
L 2766 531 
Q 2569 213 2275 61 
Q 1981 -91 1556 -91 
Q 1019 -91 701 211 
Q 384 513 384 1019 
Q 384 1609 779 1909 
Q 1175 2209 1959 2209 
L 2766 2209 
L 2766 2266 
Q 2766 2663 2505 2880 
Q 2244 3097 1772 3097 
Q 1472 3097 1187 3025 
Q 903 2953 641 2809 
L 641 3341 
Q 956 3463 1253 3523 
Q 1550 3584 1831 3584 
Q 2591 3584 2966 3190 
Q 3341 2797 3341 1997 
z
" transform="scale(0.015625)"/>
       <path id="DejaVuSans-6e" d="M 3513 2113 
L 3513 0 
L 2938 0 
L 2938 2094 
Q 2938 2591 2744 2837 
Q 2550 3084 2163 3084 
Q 1697 3084 1428 2787 
Q 1159 2491 1159 1978 
L 1159 0 
L 581 0 
L 581 3500 
L 1159 3500 
L 1159 2956 
Q 1366 3272 1645 3428 
Q 1925 3584 2291 3584 
Q 2894 3584 3203 3211 
Q 3513 2838 3513 2113 
z
" transform="scale(0.015625)"/>
      </defs>
      <use xlink:href="#DejaVuSans-46"/>
      <use xlink:href="#DejaVuSans-72" x="50.269531"/>
      <use xlink:href="#DejaVuSans-6f" x="89.132812"/>
      <use xlink:href="#DejaVuSans-6d" x="150.314453"/>
      <use xlink:href="#DejaVuSans-20" x="247.726562"/>
      <use xlink:href="#DejaVuSans-76" x="279.513672"/>
      <use xlink:href="#DejaVuSans-61" x="338.693359"/>
      <use xlink:href="#DejaVuSans-6c" x="399.972656"/>
      <use xlink:href="#DejaVuSans-65" x="427.755859"/>
      <use xlink:href="#DejaVuSans-6e" x="489.279297"/>
      <use xlink:href="#DejaVuSans-63" x="552.658203"/>
      <use xlink:href="#DejaVuSans-65" x="607.638672"/>
      <use xlink:href="#DejaVuSans-2d" x="669.162109"/>
      <use xlink:href="#DejaVuSans-68" x="705.246094"/>
      <use xlink:href="#DejaVuSans-6f" x="768.625"/>
      <use xlink:href="#DejaVuSans-6c" x="829.806641"/>
      <use xlink:href="#DejaVuSans-65" x="857.589844"/>
     </g>
    </g>
   </g>
  </g>
 </g>
 <defs>
  <clipPath id="p5072082846">
   <rect x="40.175" y="10.8" width="381.025" height="177.4"/>
  </clipPath>
 </defs>
</svg>
