<svg xmlns="http://www.w3.org/2000/svg" xmlns:rdkit="http://www.rdkit.org/xml" xmlns:xlink="http://www.w3.org/1999/xlink" version="1.1" baseProfile="full" xml:space="preserve" width="300px" height="300px" viewBox="0 0 300 300">
<!-- END OF HEADER -->
<rect style="opacity:1.0;fill:#FFFFFF;stroke:none" width="300.0" height="300.0" x="0.0" y="0.0"> </rect>
<path class="bond-0 atom-0 atom-1" d="M 239.0,15.0 L 231.5,40.3" style="fill:none;fill-rule:evenodd;stroke:#000000;stroke-width:2.0px;stroke-linecap:butt;stroke-linejoin:miter;stroke-opacity:1"/>
<path class="bond-0 atom-0 atom-1" d="M 231.5,40.3 L 224.0,65.6" style="fill:none;fill-rule:evenodd;stroke:#0000FF;stroke-width:2.0px;stroke-linecap:butt;stroke-linejoin:miter;stroke-opacity:1"/>
<path class="bond-1 atom-1 atom-2" d="M 230.3,90.5 L 236.9,98.6" style="fill:none;fill-rule:evenodd;stroke:#0000FF;stroke-width:2.0px;stroke-linecap:butt;stroke-linejoin:miter;stroke-opacity:1"/>
<path class="bond-1 atom-1 atom-2" d="M 236.9,98.6 L 243.5,106.8" style="fill:none;fill-rule:evenodd;stroke:#000000;stroke-width:2.0px;stroke-linecap:butt;stroke-linejoin:miter;stroke-opacity:1"/>
<path class="bond-2 atom-2 atom-3" d="M 243.5,106.8 L 233.1,130.2" style="fill:none;fill-rule:evenodd;stroke:#000000;stroke-width:2.0px;stroke-linecap:butt;stroke-linejoin:miter;stroke-opacity:1"/>
<path class="bond-2 atom-2 atom-3" d="M 233.1,130.2 L 222.6,153.7" style="fill:none;fill-rule:evenodd;stroke:#0000FF;stroke-width:2.0px;stroke-linecap:butt;stroke-linejoin:miter;stroke-opacity:1"/>
<path class="bond-2 atom-2 atom-3" d="M 231.8,108.3 L 222.7,129.0" style="fill:none;fill-rule:evenodd;stroke:#000000;stroke-width:2.0px;stroke-linecap:butt;stroke-linejoin:miter;stroke-opacity:1"/>
<path class="bond-2 atom-2 atom-3" d="M 222.7,129.0 L 213.5,149.7" style="fill:none;fill-rule:evenodd;stroke:#0000FF;stroke-width:2.0px;stroke-linecap:butt;stroke-linejoin:miter;stroke-opacity:1"/>
<path class="bond-3 atom-3 atom-4" d="M 207.1,168.0 L 191.4,170.9" style="fill:none;fill-rule:evenodd;stroke:#0000FF;stroke-width:2.0px;stroke-linecap:butt;stroke-linejoin:miter;stroke-opacity:1"/>
<path class="bond-3 atom-3 atom-4" d="M 191.4,170.9 L 175.8,173.7" style="fill:none;fill-rule:evenodd;stroke:#000000;stroke-width:2.0px;stroke-linecap:butt;stroke-linejoin:miter;stroke-opacity:1"/>
<path class="bond-4 atom-4 atom-5" d="M 175.8,173.7 L 177.6,121.3" style="fill:none;fill-rule:evenodd;stroke:#000000;stroke-width:2.0px;stroke-linecap:butt;stroke-linejoin:miter;stroke-opacity:1"/>
<path class="bond-4 atom-4 atom-5" d="M 186.2,161.6 L 187.4,125.5" style="fill:none;fill-rule:evenodd;stroke:#000000;stroke-width:2.0px;stroke-linecap:butt;stroke-linejoin:miter;stroke-opacity:1"/>
<path class="bond-5 atom-5 atom-6" d="M 177.6,121.3 L 139.6,119.2" style="fill:none;fill-rule:evenodd;stroke:#000000;stroke-width:2.0px;stroke-linecap:butt;stroke-linejoin:miter;stroke-opacity:1"/>
<path class="bond-6 atom-6 atom-7" d="M 144.6,119.5 L 145.5,101.7" style="fill:none;fill-rule:evenodd;stroke:#000000;stroke-width:2.0px;stroke-linecap:butt;stroke-linejoin:miter;stroke-opacity:1"/>
<path class="bond-6 atom-6 atom-7" d="M 145.5,101.7 L 146.4,84.0" style="fill:none;fill-rule:evenodd;stroke:#FF0000;stroke-width:2.0px;stroke-linecap:butt;stroke-linejoin:miter;stroke-opacity:1"/>
<path class="bond-6 atom-6 atom-7" d="M 134.3,126.3 L 135.5,101.2" style="fill:none;fill-rule:evenodd;stroke:#000000;stroke-width:2.0px;stroke-linecap:butt;stroke-linejoin:miter;stroke-opacity:1"/>
<path class="bond-6 atom-6 atom-7" d="M 135.5,101.2 L 136.4,83.5" style="fill:none;fill-rule:evenodd;stroke:#FF0000;stroke-width:2.0px;stroke-linecap:butt;stroke-linejoin:miter;stroke-opacity:1"/>
<path class="bond-7 atom-6 atom-8" d="M 139.6,119.2 L 124.6,139.1" style="fill:none;fill-rule:evenodd;stroke:#000000;stroke-width:2.0px;stroke-linecap:butt;stroke-linejoin:miter;stroke-opacity:1"/>
<path class="bond-7 atom-6 atom-8" d="M 124.6,139.1 L 109.5,158.9" style="fill:none;fill-rule:evenodd;stroke:#0000FF;stroke-width:2.0px;stroke-linecap:butt;stroke-linejoin:miter;stroke-opacity:1"/>
<path class="bond-8 atom-8 atom-9" d="M 100.0,184.0 L 100.1,204.6" style="fill:none;fill-rule:evenodd;stroke:#0000FF;stroke-width:2.0px;stroke-linecap:butt;stroke-linejoin:miter;stroke-opacity:1"/>
<path class="bond-8 atom-8 atom-9" d="M 100.1,204.6 L 100.1,225.2" style="fill:none;fill-rule:evenodd;stroke:#000000;stroke-width:2.0px;stroke-linecap:butt;stroke-linejoin:miter;stroke-opacity:1"/>
<path class="bond-9 atom-9 atom-10" d="M 100.1,216.5 L 85.4,237.6" style="fill:none;fill-rule:evenodd;stroke:#000000;stroke-width:2.0px;stroke-linecap:butt;stroke-linejoin:miter;stroke-opacity:1"/>
<path class="bond-9 atom-9 atom-10" d="M 85.4,237.6 L 70.7,258.8" style="fill:none;fill-rule:evenodd;stroke:#FF0000;stroke-width:2.0px;stroke-linecap:butt;stroke-linejoin:miter;stroke-opacity:1"/>
<path class="bond-9 atom-9 atom-10" d="M 106.1,225.3 L 93.6,243.3" style="fill:none;fill-rule:evenodd;stroke:#000000;stroke-width:2.0px;stroke-linecap:butt;stroke-linejoin:miter;stroke-opacity:1"/>
<path class="bond-9 atom-9 atom-10" d="M 93.6,243.3 L 78.9,264.5" style="fill:none;fill-rule:evenodd;stroke:#FF0000;stroke-width:2.0px;stroke-linecap:butt;stroke-linejoin:miter;stroke-opacity:1"/>
<path class="bond-10 atom-9 atom-11" d="M 100.1,225.2 L 113.7,225.5" style="fill:none;fill-rule:evenodd;stroke:#000000;stroke-width:2.0px;stroke-linecap:butt;stroke-linejoin:miter;stroke-opacity:1"/>
<path class="bond-10 atom-9 atom-11" d="M 113.7,225.5 L 127.3,225.8" style="fill:none;fill-rule:evenodd;stroke:#0000FF;stroke-width:2.0px;stroke-linecap:butt;stroke-linejoin:miter;stroke-opacity:1"/>
<path class="bond-11 atom-11 atom-12" d="M 137.6,238.5 L 138.1,260.9" style="fill:none;fill-rule:evenodd;stroke:#0000FF;stroke-width:2.0px;stroke-linecap:butt;stroke-linejoin:miter;stroke-opacity:1"/>
<path class="bond-11 atom-11 atom-12" d="M 138.1,260.9 L 138.6,283.2" style="fill:none;fill-rule:evenodd;stroke:#000000;stroke-width:2.0px;stroke-linecap:butt;stroke-linejoin:miter;stroke-opacity:1"/>
<path class="bond-12 atom-8 atom-13" d="M 90.0,171.6 L 75.2,171.7" style="fill:none;fill-rule:evenodd;stroke:#0000FF;stroke-width:2.0px;stroke-linecap:butt;stroke-linejoin:miter;stroke-opacity:1"/>
<path class="bond-12 atom-8 atom-13" d="M 75.2,171.7 L 60.4,171.9" style="fill:none;fill-rule:evenodd;stroke:#000000;stroke-width:2.0px;stroke-linecap:butt;stroke-linejoin:miter;stroke-opacity:1"/>
<path class="bond-13 atom-5 atom-1" d="M 177.6,121.3 L 193.9,104.8" style="fill:none;fill-rule:evenodd;stroke:#000000;stroke-width:2.0px;stroke-linecap:butt;stroke-linejoin:miter;stroke-opacity:1"/>
<path class="bond-13 atom-5 atom-1" d="M 193.9,104.8 L 210.2,88.3" style="fill:none;fill-rule:evenodd;stroke:#0000FF;stroke-width:2.0px;stroke-linecap:butt;stroke-linejoin:miter;stroke-opacity:1"/>
<path class="bond-14 atom-11 atom-4" d="M 146.5,213.5 L 161.1,193.6" style="fill:none;fill-rule:evenodd;stroke:#0000FF;stroke-width:2.0px;stroke-linecap:butt;stroke-linejoin:miter;stroke-opacity:1"/>
<path class="bond-14 atom-11 atom-4" d="M 161.1,193.6 L 175.8,173.7" style="fill:none;fill-rule:evenodd;stroke:#000000;stroke-width:2.0px;stroke-linecap:butt;stroke-linejoin:miter;stroke-opacity:1"/>
<path d="M 243.1,106.4 L 243.5,106.8 L 242.9,108.0" style="fill:none;stroke:#000000;stroke-width:2.0px;stroke-linecap:butt;stroke-linejoin:miter;stroke-opacity:1;"/>
<path d="M 141.5,119.3 L 139.6,119.2 L 138.9,120.2" style="fill:none;stroke:#000000;stroke-width:2.0px;stroke-linecap:butt;stroke-linejoin:miter;stroke-opacity:1;"/>
<path d="M 100.1,224.2 L 100.1,225.2 L 100.8,225.2" style="fill:none;stroke:#000000;stroke-width:2.0px;stroke-linecap:butt;stroke-linejoin:miter;stroke-opacity:1;"/>
<path class="atom-1" d="M 215.7 67.8 L 222.5 78.7 Q 223.1 79.8, 224.2 81.8 Q 225.3 83.7, 225.3 83.8 L 225.3 67.8 L 228.1 67.8 L 228.1 88.4 L 225.3 88.4 L 218.0 76.5 Q 217.1 75.1, 216.2 73.5 Q 215.4 71.9, 215.1 71.4 L 215.1 88.4 L 212.4 88.4 L 212.4 67.8 L 215.7 67.8 " fill="#0000FF"/>
<path class="atom-3" d="M 212.5 155.9 L 219.3 166.8 Q 220.0 167.9, 221.0 169.9 Q 222.1 171.8, 222.2 171.9 L 222.2 155.9 L 224.9 155.9 L 224.9 176.6 L 222.1 176.6 L 214.8 164.6 Q 214.0 163.2, 213.1 161.6 Q 212.2 160.0, 211.9 159.5 L 211.9 176.6 L 209.3 176.6 L 209.3 155.9 L 212.5 155.9 " fill="#0000FF"/>
<path class="atom-7" d="M 132.5 70.8 Q 132.5 65.9, 135.0 63.1 Q 137.4 60.3, 142.0 60.3 Q 146.6 60.3, 149.1 63.1 Q 151.5 65.9, 151.5 70.8 Q 151.5 75.9, 149.0 78.7 Q 146.5 81.5, 142.0 81.5 Q 137.5 81.5, 135.0 78.7 Q 132.5 75.9, 132.5 70.8 M 142.0 79.2 Q 145.2 79.2, 146.9 77.1 Q 148.6 75.0, 148.6 70.8 Q 148.6 66.8, 146.9 64.7 Q 145.2 62.7, 142.0 62.7 Q 138.9 62.7, 137.2 64.7 Q 135.5 66.8, 135.5 70.8 Q 135.5 75.0, 137.2 77.1 Q 138.9 79.2, 142.0 79.2 " fill="#FF0000"/>
<path class="atom-8" d="M 95.4 161.1 L 102.2 172.1 Q 102.9 173.1, 103.9 175.1 Q 105.0 177.0, 105.1 177.2 L 105.1 161.1 L 107.8 161.1 L 107.8 181.8 L 105.0 181.8 L 97.7 169.8 Q 96.9 168.4, 96.0 166.8 Q 95.1 165.2, 94.8 164.7 L 94.8 181.8 L 92.2 181.8 L 92.2 161.1 L 95.4 161.1 " fill="#0000FF"/>
<path class="atom-10" d="M 56.5 274.3 Q 56.5 269.3, 59.0 266.6 Q 61.4 263.8, 66.0 263.8 Q 70.6 263.8, 73.0 266.6 Q 75.5 269.3, 75.5 274.3 Q 75.5 279.3, 73.0 282.2 Q 70.5 285.0, 66.0 285.0 Q 61.5 285.0, 59.0 282.2 Q 56.5 279.3, 56.5 274.3 M 66.0 282.7 Q 69.2 282.7, 70.8 280.6 Q 72.6 278.4, 72.6 274.3 Q 72.6 270.2, 70.8 268.2 Q 69.2 266.1, 66.0 266.1 Q 62.9 266.1, 61.1 268.2 Q 59.4 270.2, 59.4 274.3 Q 59.4 278.5, 61.1 280.6 Q 62.9 282.7, 66.0 282.7 " fill="#FF0000"/>
<path class="atom-11" d="M 132.7 215.7 L 139.5 226.6 Q 140.2 227.7, 141.2 229.7 Q 142.3 231.6, 142.4 231.7 L 142.4 215.7 L 145.1 215.7 L 145.1 236.3 L 142.3 236.3 L 135.0 224.4 Q 134.2 223.0, 133.3 221.4 Q 132.4 219.8, 132.1 219.3 L 132.1 236.3 L 129.5 236.3 L 129.5 215.7 L 132.7 215.7 " fill="#0000FF"/>
</svg>