<svg xmlns="http://www.w3.org/2000/svg" xmlns:rdkit="http://www.rdkit.org/xml" xmlns:xlink="http://www.w3.org/1999/xlink" version="1.1" baseProfile="full" xml:space="preserve" width="300px" height="300px" viewBox="0 0 300 300">
<!-- END OF HEADER -->
<rect style="opacity:1.0;fill:#FFFFFF;stroke:none" width="300.0" height="300.0" x="0.0" y="0.0"> </rect>
<path class="bond-0 atom-0 atom-1" d="M 286.4,145.1 L 264.3,133.2" style="fill:none;fill-rule:evenodd;stroke:#000000;stroke-width:2.0px;stroke-linecap:butt;stroke-linejoin:miter;stroke-opacity:1"/>
<path class="bond-0 atom-0 atom-1" d="M 264.3,133.2 L 242.2,121.2" style="fill:none;fill-rule:evenodd;stroke:#0000FF;stroke-width:2.0px;stroke-linecap:butt;stroke-linejoin:miter;stroke-opacity:1"/>
<path class="bond-1 atom-1 atom-2" d="M 232.0,106.0 L 228.7,83.6" style="fill:none;fill-rule:evenodd;stroke:#0000FF;stroke-width:2.0px;stroke-linecap:butt;stroke-linejoin:miter;stroke-opacity:1"/>
<path class="bond-1 atom-1 atom-2" d="M 228.7,83.6 L 225.3,61.3" style="fill:none;fill-rule:evenodd;stroke:#000000;stroke-width:2.0px;stroke-linecap:butt;stroke-linejoin:miter;stroke-opacity:1"/>
<path class="bond-2 atom-2 atom-3" d="M 225.3,61.3 L 202.6,55.4" style="fill:none;fill-rule:evenodd;stroke:#000000;stroke-width:2.0px;stroke-linecap:butt;stroke-linejoin:miter;stroke-opacity:1"/>
<path class="bond-2 atom-2 atom-3" d="M 202.6,55.4 L 179.8,49.6" style="fill:none;fill-rule:evenodd;stroke:#0000FF;stroke-width:2.0px;stroke-linecap:butt;stroke-linejoin:miter;stroke-opacity:1"/>
<path class="bond-2 atom-2 atom-3" d="M 217.8,68.1 L 197.7,63.0" style="fill:none;fill-rule:evenodd;stroke:#000000;stroke-width:2.0px;stroke-linecap:butt;stroke-linejoin:miter;stroke-opacity:1"/>
<path class="bond-2 atom-2 atom-3" d="M 197.7,63.0 L 177.7,57.8" style="fill:none;fill-rule:evenodd;stroke:#0000FF;stroke-width:2.0px;stroke-linecap:butt;stroke-linejoin:miter;stroke-opacity:1"/>
<path class="bond-3 atom-3 atom-4" d="M 165.8,58.1 L 155.8,77.5" style="fill:none;fill-rule:evenodd;stroke:#0000FF;stroke-width:2.0px;stroke-linecap:butt;stroke-linejoin:miter;stroke-opacity:1"/>
<path class="bond-3 atom-3 atom-4" d="M 155.8,77.5 L 145.8,97.0" style="fill:none;fill-rule:evenodd;stroke:#000000;stroke-width:2.0px;stroke-linecap:butt;stroke-linejoin:miter;stroke-opacity:1"/>
<path class="bond-4 atom-4 atom-5" d="M 145.8,97.0 L 182.8,138.5" style="fill:none;fill-rule:evenodd;stroke:#000000;stroke-width:2.0px;stroke-linecap:butt;stroke-linejoin:miter;stroke-opacity:1"/>
<path class="bond-4 atom-4 atom-5" d="M 156.0,95.7 L 185.0,128.3" style="fill:none;fill-rule:evenodd;stroke:#000000;stroke-width:2.0px;stroke-linecap:butt;stroke-linejoin:miter;stroke-opacity:1"/>
<path class="bond-5 atom-5 atom-6" d="M 182.8,138.5 L 165.4,193.2" style="fill:none;fill-rule:evenodd;stroke:#000000;stroke-width:2.0px;stroke-linecap:butt;stroke-linejoin:miter;stroke-opacity:1"/>
<path class="bond-6 atom-6 atom-7" d="M 160.5,194.2 L 173.8,209.1" style="fill:none;fill-rule:evenodd;stroke:#000000;stroke-width:2.0px;stroke-linecap:butt;stroke-linejoin:miter;stroke-opacity:1"/>
<path class="bond-6 atom-6 atom-7" d="M 173.8,209.1 L 187.1,224.0" style="fill:none;fill-rule:evenodd;stroke:#FF0000;stroke-width:2.0px;stroke-linecap:butt;stroke-linejoin:miter;stroke-opacity:1"/>
<path class="bond-6 atom-6 atom-7" d="M 166.9,188.5 L 180.2,203.4" style="fill:none;fill-rule:evenodd;stroke:#000000;stroke-width:2.0px;stroke-linecap:butt;stroke-linejoin:miter;stroke-opacity:1"/>
<path class="bond-6 atom-6 atom-7" d="M 180.2,203.4 L 193.4,218.3" style="fill:none;fill-rule:evenodd;stroke:#FF0000;stroke-width:2.0px;stroke-linecap:butt;stroke-linejoin:miter;stroke-opacity:1"/>
<path class="bond-7 atom-6 atom-8" d="M 165.4,193.2 L 141.9,197.8" style="fill:none;fill-rule:evenodd;stroke:#000000;stroke-width:2.0px;stroke-linecap:butt;stroke-linejoin:miter;stroke-opacity:1"/>
<path class="bond-7 atom-6 atom-8" d="M 141.9,197.8 L 118.5,202.3" style="fill:none;fill-rule:evenodd;stroke:#0000FF;stroke-width:2.0px;stroke-linecap:butt;stroke-linejoin:miter;stroke-opacity:1"/>
<path class="bond-8 atom-8 atom-9" d="M 101.4,194.0 L 87.0,177.3" style="fill:none;fill-rule:evenodd;stroke:#0000FF;stroke-width:2.0px;stroke-linecap:butt;stroke-linejoin:miter;stroke-opacity:1"/>
<path class="bond-8 atom-8 atom-9" d="M 87.0,177.3 L 72.7,160.7" style="fill:none;fill-rule:evenodd;stroke:#000000;stroke-width:2.0px;stroke-linecap:butt;stroke-linejoin:miter;stroke-opacity:1"/>
<path class="bond-9 atom-9 atom-10" d="M 74.2,156.0 L 52.5,160.3" style="fill:none;fill-rule:evenodd;stroke:#000000;stroke-width:2.0px;stroke-linecap:butt;stroke-linejoin:miter;stroke-opacity:1"/>
<path class="bond-9 atom-9 atom-10" d="M 52.5,160.3 L 30.8,164.7" style="fill:none;fill-rule:evenodd;stroke:#FF0000;stroke-width:2.0px;stroke-linecap:butt;stroke-linejoin:miter;stroke-opacity:1"/>
<path class="bond-9 atom-9 atom-10" d="M 75.9,164.4 L 54.2,168.7" style="fill:none;fill-rule:evenodd;stroke:#000000;stroke-width:2.0px;stroke-linecap:butt;stroke-linejoin:miter;stroke-opacity:1"/>
<path class="bond-9 atom-9 atom-10" d="M 54.2,168.7 L 32.5,173.0" style="fill:none;fill-rule:evenodd;stroke:#FF0000;stroke-width:2.0px;stroke-linecap:butt;stroke-linejoin:miter;stroke-opacity:1"/>
<path class="bond-10 atom-9 atom-11" d="M 72.7,160.7 L 79.9,138.9" style="fill:none;fill-rule:evenodd;stroke:#000000;stroke-width:2.0px;stroke-linecap:butt;stroke-linejoin:miter;stroke-opacity:1"/>
<path class="bond-10 atom-9 atom-11" d="M 79.9,138.9 L 87.0,117.2" style="fill:none;fill-rule:evenodd;stroke:#0000FF;stroke-width:2.0px;stroke-linecap:butt;stroke-linejoin:miter;stroke-opacity:1"/>
<path class="bond-11 atom-11 atom-12" d="M 82.0,96.4 L 66.8,78.5" style="fill:none;fill-rule:evenodd;stroke:#0000FF;stroke-width:2.0px;stroke-linecap:butt;stroke-linejoin:miter;stroke-opacity:1"/>
<path class="bond-11 atom-11 atom-12" d="M 66.8,78.5 L 51.6,60.5" style="fill:none;fill-rule:evenodd;stroke:#000000;stroke-width:2.0px;stroke-linecap:butt;stroke-linejoin:miter;stroke-opacity:1"/>
<path class="bond-12 atom-8 atom-13" d="M 106.2,214.6 L 98.0,238.0" style="fill:none;fill-rule:evenodd;stroke:#0000FF;stroke-width:2.0px;stroke-linecap:butt;stroke-linejoin:miter;stroke-opacity:1"/>
<path class="bond-12 atom-8 atom-13" d="M 98.0,238.0 L 89.7,261.4" style="fill:none;fill-rule:evenodd;stroke:#000000;stroke-width:2.0px;stroke-linecap:butt;stroke-linejoin:miter;stroke-opacity:1"/>
<path class="bond-13 atom-5 atom-1" d="M 182.8,138.5 L 203.9,129.4" style="fill:none;fill-rule:evenodd;stroke:#000000;stroke-width:2.0px;stroke-linecap:butt;stroke-linejoin:miter;stroke-opacity:1"/>
<path class="bond-13 atom-5 atom-1" d="M 203.9,129.4 L 225.1,120.3" style="fill:none;fill-rule:evenodd;stroke:#0000FF;stroke-width:2.0px;stroke-linecap:butt;stroke-linejoin:miter;stroke-opacity:1"/>
<path class="bond-14 atom-11 atom-4" d="M 99.1,105.0 L 122.4,101.0" style="fill:none;fill-rule:evenodd;stroke:#0000FF;stroke-width:2.0px;stroke-linecap:butt;stroke-linejoin:miter;stroke-opacity:1"/>
<path class="bond-14 atom-11 atom-4" d="M 122.4,101.0 L 145.8,97.0" style="fill:none;fill-rule:evenodd;stroke:#000000;stroke-width:2.0px;stroke-linecap:butt;stroke-linejoin:miter;stroke-opacity:1"/>
<path d="M 225.5,62.4 L 225.3,61.3 L 224.2,61.0" style="fill:none;stroke:#000000;stroke-width:2.0px;stroke-linecap:butt;stroke-linejoin:miter;stroke-opacity:1;"/>
<path d="M 166.3,190.5 L 165.4,193.2 L 164.2,193.5" style="fill:none;stroke:#000000;stroke-width:2.0px;stroke-linecap:butt;stroke-linejoin:miter;stroke-opacity:1;"/>
<path d="M 73.4,161.5 L 72.7,160.7 L 73.0,159.6" style="fill:none;stroke:#000000;stroke-width:2.0px;stroke-linecap:butt;stroke-linejoin:miter;stroke-opacity:1;"/>
<path class="atom-1" d="M 229.7 107.8 L 235.5 117.2 Q 236.1 118.1, 237.0 119.7 Q 237.9 121.4, 238.0 121.5 L 238.0 107.8 L 240.3 107.8 L 240.3 125.4 L 237.9 125.4 L 231.7 115.2 Q 231.0 114.1, 230.2 112.7 Q 229.5 111.3, 229.2 110.9 L 229.2 125.4 L 227.0 125.4 L 227.0 107.8 L 229.7 107.8 " fill="#0000FF"/>
<path class="atom-3" d="M 167.4 38.6 L 173.2 47.9 Q 173.8 48.9, 174.7 50.5 Q 175.6 52.2, 175.6 52.3 L 175.6 38.6 L 178.0 38.6 L 178.0 56.2 L 175.6 56.2 L 169.4 46.0 Q 168.7 44.8, 167.9 43.5 Q 167.2 42.1, 166.9 41.7 L 166.9 56.2 L 164.6 56.2 L 164.6 38.6 L 167.4 38.6 " fill="#0000FF"/>
<path class="atom-7" d="M 191.7 232.0 Q 191.7 227.8, 193.8 225.4 Q 195.9 223.0, 199.8 223.0 Q 203.7 223.0, 205.8 225.4 Q 207.9 227.8, 207.9 232.0 Q 207.9 236.2, 205.8 238.7 Q 203.6 241.1, 199.8 241.1 Q 195.9 241.1, 193.8 238.7 Q 191.7 236.3, 191.7 232.0 M 199.8 239.1 Q 202.5 239.1, 203.9 237.3 Q 205.4 235.5, 205.4 232.0 Q 205.4 228.5, 203.9 226.8 Q 202.5 225.0, 199.8 225.0 Q 197.1 225.0, 195.7 226.8 Q 194.2 228.5, 194.2 232.0 Q 194.2 235.5, 195.7 237.3 Q 197.1 239.1, 199.8 239.1 " fill="#FF0000"/>
<path class="atom-8" d="M 106.0 195.1 L 111.8 204.4 Q 112.4 205.4, 113.3 207.0 Q 114.2 208.7, 114.3 208.8 L 114.3 195.1 L 116.6 195.1 L 116.6 212.7 L 114.2 212.7 L 108.0 202.5 Q 107.3 201.3, 106.5 200.0 Q 105.8 198.6, 105.5 198.2 L 105.5 212.7 L 103.3 212.7 L 103.3 195.1 L 106.0 195.1 " fill="#0000FF"/>
<path class="atom-10" d="M 13.6 170.9 Q 13.6 166.7, 15.7 164.3 Q 17.8 162.0, 21.7 162.0 Q 25.6 162.0, 27.7 164.3 Q 29.8 166.7, 29.8 170.9 Q 29.8 175.2, 27.7 177.6 Q 25.5 180.0, 21.7 180.0 Q 17.8 180.0, 15.7 177.6 Q 13.6 175.2, 13.6 170.9 M 21.7 178.0 Q 24.4 178.0, 25.8 176.2 Q 27.3 174.4, 27.3 170.9 Q 27.3 167.4, 25.8 165.7 Q 24.4 163.9, 21.7 163.9 Q 19.0 163.9, 17.6 165.7 Q 16.1 167.4, 16.1 170.9 Q 16.1 174.4, 17.6 176.2 Q 19.0 178.0, 21.7 178.0 " fill="#FF0000"/>
<path class="atom-11" d="M 86.7 97.7 L 92.4 107.0 Q 93.0 107.9, 93.9 109.6 Q 94.8 111.3, 94.9 111.4 L 94.9 97.7 L 97.2 97.7 L 97.2 115.3 L 94.8 115.3 L 88.6 105.1 Q 87.9 103.9, 87.1 102.6 Q 86.4 101.2, 86.2 100.8 L 86.2 115.3 L 83.9 115.3 L 83.9 97.7 L 86.7 97.7 " fill="#0000FF"/>
</svg>