<svg xmlns="http://www.w3.org/2000/svg" xmlns:rdkit="http://www.rdkit.org/xml" xmlns:xlink="http://www.w3.org/1999/xlink" version="1.1" baseProfile="full" xml:space="preserve" width="300px" height="200px" viewBox="0 0 300 200">
<!-- END OF HEADER -->
<rect style="opacity:1.0;fill:#FFFFFF;stroke:none" width="300.0" height="200.0" x="0.0" y="0.0"> </rect>
<path class="bond-0 atom-0 atom-1" d="M 261.3,96.0 L 243.3,86.3" style="fill:none;fill-rule:evenodd;stroke:#000000;stroke-width:2.0px;stroke-linecap:butt;stroke-linejoin:miter;stroke-opacity:1"/>
<path class="bond-0 atom-0 atom-1" d="M 243.3,86.3 L 225.2,76.5" style="fill:none;fill-rule:evenodd;stroke:#0000FF;stroke-width:2.0px;stroke-linecap:butt;stroke-linejoin:miter;stroke-opacity:1"/>
<path class="bond-1 atom-1 atom-2" d="M 217.0,64.1 L 214.2,45.8" style="fill:none;fill-rule:evenodd;stroke:#0000FF;stroke-width:2.0px;stroke-linecap:butt;stroke-linejoin:miter;stroke-opacity:1"/>
<path class="bond-1 atom-1 atom-2" d="M 214.2,45.8 L 211.5,27.6" style="fill:none;fill-rule:evenodd;stroke:#000000;stroke-width:2.0px;stroke-linecap:butt;stroke-linejoin:miter;stroke-opacity:1"/>
<path class="bond-2 atom-2 atom-3" d="M 211.5,27.6 L 192.9,22.8" style="fill:none;fill-rule:evenodd;stroke:#000000;stroke-width:2.0px;stroke-linecap:butt;stroke-linejoin:miter;stroke-opacity:1"/>
<path class="bond-2 atom-2 atom-3" d="M 192.9,22.8 L 174.4,18.1" style="fill:none;fill-rule:evenodd;stroke:#0000FF;stroke-width:2.0px;stroke-linecap:butt;stroke-linejoin:miter;stroke-opacity:1"/>
<path class="bond-2 atom-2 atom-3" d="M 205.3,33.2 L 189.0,29.0" style="fill:none;fill-rule:evenodd;stroke:#000000;stroke-width:2.0px;stroke-linecap:butt;stroke-linejoin:miter;stroke-opacity:1"/>
<path class="bond-2 atom-2 atom-3" d="M 189.0,29.0 L 172.6,24.8" style="fill:none;fill-rule:evenodd;stroke:#0000FF;stroke-width:2.0px;stroke-linecap:butt;stroke-linejoin:miter;stroke-opacity:1"/>
<path class="bond-3 atom-3 atom-4" d="M 162.9,25.0 L 154.7,40.9" style="fill:none;fill-rule:evenodd;stroke:#0000FF;stroke-width:2.0px;stroke-linecap:butt;stroke-linejoin:miter;stroke-opacity:1"/>
<path class="bond-3 atom-3 atom-4" d="M 154.7,40.9 L 146.5,56.7" style="fill:none;fill-rule:evenodd;stroke:#000000;stroke-width:2.0px;stroke-linecap:butt;stroke-linejoin:miter;stroke-opacity:1"/>
<path class="bond-4 atom-4 atom-5" d="M 146.5,56.7 L 176.8,90.6" style="fill:none;fill-rule:evenodd;stroke:#000000;stroke-width:2.0px;stroke-linecap:butt;stroke-linejoin:miter;stroke-opacity:1"/>
<path class="bond-4 atom-4 atom-5" d="M 154.9,55.7 L 178.6,82.2" style="fill:none;fill-rule:evenodd;stroke:#000000;stroke-width:2.0px;stroke-linecap:butt;stroke-linejoin:miter;stroke-opacity:1"/>
<path class="bond-5 atom-5 atom-6" d="M 176.8,90.6 L 162.6,135.3" style="fill:none;fill-rule:evenodd;stroke:#000000;stroke-width:2.0px;stroke-linecap:butt;stroke-linejoin:miter;stroke-opacity:1"/>
<path class="bond-6 atom-6 atom-7" d="M 158.6,136.1 L 169.4,148.2" style="fill:none;fill-rule:evenodd;stroke:#000000;stroke-width:2.0px;stroke-linecap:butt;stroke-linejoin:miter;stroke-opacity:1"/>
<path class="bond-6 atom-6 atom-7" d="M 169.4,148.2 L 180.2,160.4" style="fill:none;fill-rule:evenodd;stroke:#FF0000;stroke-width:2.0px;stroke-linecap:butt;stroke-linejoin:miter;stroke-opacity:1"/>
<path class="bond-6 atom-6 atom-7" d="M 163.8,131.4 L 174.6,143.6" style="fill:none;fill-rule:evenodd;stroke:#000000;stroke-width:2.0px;stroke-linecap:butt;stroke-linejoin:miter;stroke-opacity:1"/>
<path class="bond-6 atom-6 atom-7" d="M 174.6,143.6 L 185.4,155.8" style="fill:none;fill-rule:evenodd;stroke:#FF0000;stroke-width:2.0px;stroke-linecap:butt;stroke-linejoin:miter;stroke-opacity:1"/>
<path class="bond-7 atom-6 atom-8" d="M 162.6,135.3 L 143.4,139.0" style="fill:none;fill-rule:evenodd;stroke:#000000;stroke-width:2.0px;stroke-linecap:butt;stroke-linejoin:miter;stroke-opacity:1"/>
<path class="bond-7 atom-6 atom-8" d="M 143.4,139.0 L 124.3,142.7" style="fill:none;fill-rule:evenodd;stroke:#0000FF;stroke-width:2.0px;stroke-linecap:butt;stroke-linejoin:miter;stroke-opacity:1"/>
<path class="bond-8 atom-8 atom-9" d="M 110.3,135.9 L 98.6,122.3" style="fill:none;fill-rule:evenodd;stroke:#0000FF;stroke-width:2.0px;stroke-linecap:butt;stroke-linejoin:miter;stroke-opacity:1"/>
<path class="bond-8 atom-8 atom-9" d="M 98.6,122.3 L 86.9,108.7" style="fill:none;fill-rule:evenodd;stroke:#000000;stroke-width:2.0px;stroke-linecap:butt;stroke-linejoin:miter;stroke-opacity:1"/>
<path class="bond-9 atom-9 atom-10" d="M 88.1,104.9 L 70.4,108.4" style="fill:none;fill-rule:evenodd;stroke:#000000;stroke-width:2.0px;stroke-linecap:butt;stroke-linejoin:miter;stroke-opacity:1"/>
<path class="bond-9 atom-9 atom-10" d="M 70.4,108.4 L 52.7,112.0" style="fill:none;fill-rule:evenodd;stroke:#FF0000;stroke-width:2.0px;stroke-linecap:butt;stroke-linejoin:miter;stroke-opacity:1"/>
<path class="bond-9 atom-9 atom-10" d="M 89.5,111.7 L 71.8,115.3" style="fill:none;fill-rule:evenodd;stroke:#000000;stroke-width:2.0px;stroke-linecap:butt;stroke-linejoin:miter;stroke-opacity:1"/>
<path class="bond-9 atom-9 atom-10" d="M 71.8,115.3 L 54.1,118.8" style="fill:none;fill-rule:evenodd;stroke:#FF0000;stroke-width:2.0px;stroke-linecap:butt;stroke-linejoin:miter;stroke-opacity:1"/>
<path class="bond-10 atom-9 atom-11" d="M 86.9,108.7 L 92.7,90.9" style="fill:none;fill-rule:evenodd;stroke:#000000;stroke-width:2.0px;stroke-linecap:butt;stroke-linejoin:miter;stroke-opacity:1"/>
<path class="bond-10 atom-9 atom-11" d="M 92.7,90.9 L 98.6,73.2" style="fill:none;fill-rule:evenodd;stroke:#0000FF;stroke-width:2.0px;stroke-linecap:butt;stroke-linejoin:miter;stroke-opacity:1"/>
<path class="bond-11 atom-11 atom-12" d="M 94.5,56.3 L 82.1,41.6" style="fill:none;fill-rule:evenodd;stroke:#0000FF;stroke-width:2.0px;stroke-linecap:butt;stroke-linejoin:miter;stroke-opacity:1"/>
<path class="bond-11 atom-11 atom-12" d="M 82.1,41.6 L 69.6,26.9" style="fill:none;fill-rule:evenodd;stroke:#000000;stroke-width:2.0px;stroke-linecap:butt;stroke-linejoin:miter;stroke-opacity:1"/>
<path class="bond-12 atom-8 atom-13" d="M 114.2,152.7 L 107.5,171.8" style="fill:none;fill-rule:evenodd;stroke:#0000FF;stroke-width:2.0px;stroke-linecap:butt;stroke-linejoin:miter;stroke-opacity:1"/>
<path class="bond-12 atom-8 atom-13" d="M 107.5,171.8 L 100.8,190.9" style="fill:none;fill-rule:evenodd;stroke:#000000;stroke-width:2.0px;stroke-linecap:butt;stroke-linejoin:miter;stroke-opacity:1"/>
<path class="bond-13 atom-5 atom-1" d="M 176.8,90.6 L 194.0,83.2" style="fill:none;fill-rule:evenodd;stroke:#000000;stroke-width:2.0px;stroke-linecap:butt;stroke-linejoin:miter;stroke-opacity:1"/>
<path class="bond-13 atom-5 atom-1" d="M 194.0,83.2 L 211.3,75.8" style="fill:none;fill-rule:evenodd;stroke:#0000FF;stroke-width:2.0px;stroke-linecap:butt;stroke-linejoin:miter;stroke-opacity:1"/>
<path class="bond-14 atom-11 atom-4" d="M 108.4,63.3 L 127.5,60.0" style="fill:none;fill-rule:evenodd;stroke:#0000FF;stroke-width:2.0px;stroke-linecap:butt;stroke-linejoin:miter;stroke-opacity:1"/>
<path class="bond-14 atom-11 atom-4" d="M 127.5,60.0 L 146.5,56.7" style="fill:none;fill-rule:evenodd;stroke:#000000;stroke-width:2.0px;stroke-linecap:butt;stroke-linejoin:miter;stroke-opacity:1"/>
<path d="M 211.6,28.5 L 211.5,27.6 L 210.6,27.3" style="fill:none;stroke:#000000;stroke-width:2.0px;stroke-linecap:butt;stroke-linejoin:miter;stroke-opacity:1;"/>
<path d="M 163.3,133.1 L 162.6,135.3 L 161.6,135.5" style="fill:none;stroke:#000000;stroke-width:2.0px;stroke-linecap:butt;stroke-linejoin:miter;stroke-opacity:1;"/>
<path d="M 87.5,109.4 L 86.9,108.7 L 87.2,107.8" style="fill:none;stroke:#000000;stroke-width:2.0px;stroke-linecap:butt;stroke-linejoin:miter;stroke-opacity:1;"/>
<path class="atom-1" d="M 215.1 65.6 L 219.8 73.2 Q 220.3 73.9, 221.0 75.3 Q 221.8 76.7, 221.8 76.7 L 221.8 65.6 L 223.7 65.6 L 223.7 79.9 L 221.7 79.9 L 216.7 71.6 Q 216.1 70.7, 215.5 69.5 Q 214.9 68.4, 214.7 68.1 L 214.7 79.9 L 212.8 79.9 L 212.8 65.6 L 215.1 65.6 " fill="#0000FF"/>
<path class="atom-3" d="M 164.2 9.1 L 168.9 16.7 Q 169.4 17.4, 170.1 18.8 Q 170.9 20.2, 170.9 20.2 L 170.9 9.1 L 172.8 9.1 L 172.8 23.4 L 170.9 23.4 L 165.8 15.1 Q 165.2 14.2, 164.6 13.0 Q 164.0 11.9, 163.8 11.6 L 163.8 23.4 L 162.0 23.4 L 162.0 9.1 L 164.2 9.1 " fill="#0000FF"/>
<path class="atom-7" d="M 184.1 166.9 Q 184.1 163.5, 185.8 161.5 Q 187.5 159.6, 190.6 159.6 Q 193.8 159.6, 195.5 161.5 Q 197.2 163.5, 197.2 166.9 Q 197.2 170.4, 195.5 172.4 Q 193.8 174.3, 190.6 174.3 Q 187.5 174.3, 185.8 172.4 Q 184.1 170.4, 184.1 166.9 M 190.6 172.7 Q 192.8 172.7, 194.0 171.3 Q 195.2 169.8, 195.2 166.9 Q 195.2 164.1, 194.0 162.7 Q 192.8 161.2, 190.6 161.2 Q 188.5 161.2, 187.3 162.7 Q 186.1 164.1, 186.1 166.9 Q 186.1 169.8, 187.3 171.3 Q 188.5 172.7, 190.6 172.7 " fill="#FF0000"/>
<path class="atom-8" d="M 114.1 136.8 L 118.8 144.4 Q 119.3 145.2, 120.0 146.5 Q 120.8 147.9, 120.8 148.0 L 120.8 136.8 L 122.7 136.8 L 122.7 151.2 L 120.8 151.2 L 115.7 142.9 Q 115.1 141.9, 114.5 140.8 Q 113.9 139.7, 113.7 139.3 L 113.7 151.2 L 111.9 151.2 L 111.9 136.8 L 114.1 136.8 " fill="#0000FF"/>
<path class="atom-10" d="M 38.7 117.1 Q 38.7 113.6, 40.4 111.7 Q 42.1 109.8, 45.3 109.8 Q 48.5 109.8, 50.2 111.7 Q 51.9 113.6, 51.9 117.1 Q 51.9 120.5, 50.1 122.5 Q 48.4 124.5, 45.3 124.5 Q 42.1 124.5, 40.4 122.5 Q 38.7 120.6, 38.7 117.1 M 45.3 122.9 Q 47.5 122.9, 48.6 121.4 Q 49.8 119.9, 49.8 117.1 Q 49.8 114.2, 48.6 112.8 Q 47.5 111.4, 45.3 111.4 Q 43.1 111.4, 41.9 112.8 Q 40.7 114.2, 40.7 117.1 Q 40.7 119.9, 41.9 121.4 Q 43.1 122.9, 45.3 122.9 " fill="#FF0000"/>
<path class="atom-11" d="M 98.3 57.3 L 103.0 64.9 Q 103.5 65.7, 104.2 67.0 Q 105.0 68.4, 105.0 68.5 L 105.0 57.3 L 106.9 57.3 L 106.9 71.7 L 104.9 71.7 L 99.9 63.4 Q 99.3 62.4, 98.7 61.3 Q 98.1 60.2, 97.9 59.8 L 97.9 71.7 L 96.0 71.7 L 96.0 57.3 L 98.3 57.3 " fill="#0000FF"/>
</svg>