<svg xmlns="http://www.w3.org/2000/svg" xmlns:rdkit="http://www.rdkit.org/xml" xmlns:xlink="http://www.w3.org/1999/xlink" version="1.1" baseProfile="full" xml:space="preserve" width="300px" height="300px" viewBox="0 0 300 300">
<!-- END OF HEADER -->
<rect style="opacity:1.0;fill:#FFFFFF;stroke:none" width="300.0" height="300.0" x="0.0" y="0.0"> </rect>
<path class="bond-0 atom-0 atom-1" d="M 240.8,15.0 L 233.1,40.2" style="fill:none;fill-rule:evenodd;stroke:#000000;stroke-width:2.0px;stroke-linecap:butt;stroke-linejoin:miter;stroke-opacity:1"/>
<path class="bond-0 atom-0 atom-1" d="M 233.1,40.2 L 225.4,65.5" style="fill:none;fill-rule:evenodd;stroke:#0000FF;stroke-width:2.0px;stroke-linecap:butt;stroke-linejoin:miter;stroke-opacity:1"/>
<path class="bond-1 atom-1 atom-2" d="M 231.6,90.5 L 238.3,98.6" style="fill:none;fill-rule:evenodd;stroke:#0000FF;stroke-width:2.0px;stroke-linecap:butt;stroke-linejoin:miter;stroke-opacity:1"/>
<path class="bond-1 atom-1 atom-2" d="M 238.3,98.6 L 244.9,106.7" style="fill:none;fill-rule:evenodd;stroke:#000000;stroke-width:2.0px;stroke-linecap:butt;stroke-linejoin:miter;stroke-opacity:1"/>
<path class="bond-2 atom-2 atom-3" d="M 244.9,106.7 L 234.2,130.1" style="fill:none;fill-rule:evenodd;stroke:#000000;stroke-width:2.0px;stroke-linecap:butt;stroke-linejoin:miter;stroke-opacity:1"/>
<path class="bond-2 atom-2 atom-3" d="M 234.2,130.1 L 223.6,153.6" style="fill:none;fill-rule:evenodd;stroke:#0000FF;stroke-width:2.0px;stroke-linecap:butt;stroke-linejoin:miter;stroke-opacity:1"/>
<path class="bond-2 atom-2 atom-3" d="M 233.1,108.2 L 223.8,128.8" style="fill:none;fill-rule:evenodd;stroke:#000000;stroke-width:2.0px;stroke-linecap:butt;stroke-linejoin:miter;stroke-opacity:1"/>
<path class="bond-2 atom-2 atom-3" d="M 223.8,128.8 L 214.5,149.4" style="fill:none;fill-rule:evenodd;stroke:#0000FF;stroke-width:2.0px;stroke-linecap:butt;stroke-linejoin:miter;stroke-opacity:1"/>
<path class="bond-3 atom-3 atom-4" d="M 207.8,167.9 L 192.0,170.8" style="fill:none;fill-rule:evenodd;stroke:#0000FF;stroke-width:2.0px;stroke-linecap:butt;stroke-linejoin:miter;stroke-opacity:1"/>
<path class="bond-3 atom-3 atom-4" d="M 192.0,170.8 L 176.1,173.6" style="fill:none;fill-rule:evenodd;stroke:#000000;stroke-width:2.0px;stroke-linecap:butt;stroke-linejoin:miter;stroke-opacity:1"/>
<path class="bond-4 atom-4 atom-5" d="M 176.1,173.6 L 178.2,121.2" style="fill:none;fill-rule:evenodd;stroke:#000000;stroke-width:2.0px;stroke-linecap:butt;stroke-linejoin:miter;stroke-opacity:1"/>
<path class="bond-4 atom-4 atom-5" d="M 186.7,161.5 L 188.1,125.5" style="fill:none;fill-rule:evenodd;stroke:#000000;stroke-width:2.0px;stroke-linecap:butt;stroke-linejoin:miter;stroke-opacity:1"/>
<path class="bond-5 atom-5 atom-6" d="M 178.2,121.2 L 139.9,119.2" style="fill:none;fill-rule:evenodd;stroke:#000000;stroke-width:2.0px;stroke-linecap:butt;stroke-linejoin:miter;stroke-opacity:1"/>
<path class="bond-6 atom-6 atom-7" d="M 144.9,119.4 L 145.9,101.8" style="fill:none;fill-rule:evenodd;stroke:#000000;stroke-width:2.0px;stroke-linecap:butt;stroke-linejoin:miter;stroke-opacity:1"/>
<path class="bond-6 atom-6 atom-7" d="M 145.9,101.8 L 146.9,84.1" style="fill:none;fill-rule:evenodd;stroke:#FF0000;stroke-width:2.0px;stroke-linecap:butt;stroke-linejoin:miter;stroke-opacity:1"/>
<path class="bond-6 atom-6 atom-7" d="M 134.5,126.2 L 135.8,101.2" style="fill:none;fill-rule:evenodd;stroke:#000000;stroke-width:2.0px;stroke-linecap:butt;stroke-linejoin:miter;stroke-opacity:1"/>
<path class="bond-6 atom-6 atom-7" d="M 135.8,101.2 L 136.8,83.5" style="fill:none;fill-rule:evenodd;stroke:#FF0000;stroke-width:2.0px;stroke-linecap:butt;stroke-linejoin:miter;stroke-opacity:1"/>
<path class="bond-7 atom-6 atom-8" d="M 139.9,119.2 L 124.6,139.0" style="fill:none;fill-rule:evenodd;stroke:#000000;stroke-width:2.0px;stroke-linecap:butt;stroke-linejoin:miter;stroke-opacity:1"/>
<path class="bond-7 atom-6 atom-8" d="M 124.6,139.0 L 109.3,158.8" style="fill:none;fill-rule:evenodd;stroke:#0000FF;stroke-width:2.0px;stroke-linecap:butt;stroke-linejoin:miter;stroke-opacity:1"/>
<path class="bond-8 atom-8 atom-9" d="M 99.5,184.0 L 99.4,204.6" style="fill:none;fill-rule:evenodd;stroke:#0000FF;stroke-width:2.0px;stroke-linecap:butt;stroke-linejoin:miter;stroke-opacity:1"/>
<path class="bond-8 atom-8 atom-9" d="M 99.4,204.6 L 99.4,225.1" style="fill:none;fill-rule:evenodd;stroke:#000000;stroke-width:2.0px;stroke-linecap:butt;stroke-linejoin:miter;stroke-opacity:1"/>
<path class="bond-9 atom-9 atom-10" d="M 99.4,216.4 L 84.5,237.5" style="fill:none;fill-rule:evenodd;stroke:#000000;stroke-width:2.0px;stroke-linecap:butt;stroke-linejoin:miter;stroke-opacity:1"/>
<path class="bond-9 atom-9 atom-10" d="M 84.5,237.5 L 69.5,258.6" style="fill:none;fill-rule:evenodd;stroke:#FF0000;stroke-width:2.0px;stroke-linecap:butt;stroke-linejoin:miter;stroke-opacity:1"/>
<path class="bond-9 atom-9 atom-10" d="M 105.4,225.3 L 92.7,243.3" style="fill:none;fill-rule:evenodd;stroke:#000000;stroke-width:2.0px;stroke-linecap:butt;stroke-linejoin:miter;stroke-opacity:1"/>
<path class="bond-9 atom-9 atom-10" d="M 92.7,243.3 L 77.7,264.4" style="fill:none;fill-rule:evenodd;stroke:#FF0000;stroke-width:2.0px;stroke-linecap:butt;stroke-linejoin:miter;stroke-opacity:1"/>
<path class="bond-10 atom-9 atom-11" d="M 99.4,225.1 L 113.1,225.4" style="fill:none;fill-rule:evenodd;stroke:#000000;stroke-width:2.0px;stroke-linecap:butt;stroke-linejoin:miter;stroke-opacity:1"/>
<path class="bond-10 atom-9 atom-11" d="M 113.1,225.4 L 126.9,225.7" style="fill:none;fill-rule:evenodd;stroke:#0000FF;stroke-width:2.0px;stroke-linecap:butt;stroke-linejoin:miter;stroke-opacity:1"/>
<path class="bond-11 atom-11 atom-12" d="M 137.2,238.5 L 137.6,260.8" style="fill:none;fill-rule:evenodd;stroke:#0000FF;stroke-width:2.0px;stroke-linecap:butt;stroke-linejoin:miter;stroke-opacity:1"/>
<path class="bond-11 atom-11 atom-12" d="M 137.6,260.8 L 138.0,283.1" style="fill:none;fill-rule:evenodd;stroke:#000000;stroke-width:2.0px;stroke-linecap:butt;stroke-linejoin:miter;stroke-opacity:1"/>
<path class="bond-12 atom-8 atom-13" d="M 89.5,171.5 L 74.5,171.7" style="fill:none;fill-rule:evenodd;stroke:#0000FF;stroke-width:2.0px;stroke-linecap:butt;stroke-linejoin:miter;stroke-opacity:1"/>
<path class="bond-12 atom-8 atom-13" d="M 74.5,171.7 L 59.5,171.9" style="fill:none;fill-rule:evenodd;stroke:#000000;stroke-width:2.0px;stroke-linecap:butt;stroke-linejoin:miter;stroke-opacity:1"/>
<path class="bond-13 atom-5 atom-1" d="M 178.2,121.2 L 194.8,104.6" style="fill:none;fill-rule:evenodd;stroke:#000000;stroke-width:2.0px;stroke-linecap:butt;stroke-linejoin:miter;stroke-opacity:1"/>
<path class="bond-13 atom-5 atom-1" d="M 194.8,104.6 L 211.5,88.1" style="fill:none;fill-rule:evenodd;stroke:#0000FF;stroke-width:2.0px;stroke-linecap:butt;stroke-linejoin:miter;stroke-opacity:1"/>
<path class="bond-14 atom-11 atom-4" d="M 146.4,213.3 L 161.3,193.5" style="fill:none;fill-rule:evenodd;stroke:#0000FF;stroke-width:2.0px;stroke-linecap:butt;stroke-linejoin:miter;stroke-opacity:1"/>
<path class="bond-14 atom-11 atom-4" d="M 161.3,193.5 L 176.1,173.6" style="fill:none;fill-rule:evenodd;stroke:#000000;stroke-width:2.0px;stroke-linecap:butt;stroke-linejoin:miter;stroke-opacity:1"/>
<path d="M 244.5,106.3 L 244.9,106.7 L 244.3,107.9" style="fill:none;stroke:#000000;stroke-width:2.0px;stroke-linecap:butt;stroke-linejoin:miter;stroke-opacity:1;"/>
<path d="M 141.8,119.3 L 139.9,119.2 L 139.1,120.2" style="fill:none;stroke:#000000;stroke-width:2.0px;stroke-linecap:butt;stroke-linejoin:miter;stroke-opacity:1;"/>
<path d="M 99.4,224.1 L 99.4,225.1 L 100.1,225.1" style="fill:none;stroke:#000000;stroke-width:2.0px;stroke-linecap:butt;stroke-linejoin:miter;stroke-opacity:1;"/>
<path class="atom-1" d="M 217.0 67.7 L 223.8 78.7 Q 224.5 79.8, 225.5 81.7 Q 226.6 83.7, 226.7 83.8 L 226.7 67.7 L 229.4 67.7 L 229.4 88.4 L 226.6 88.4 L 219.3 76.4 Q 218.4 75.0, 217.5 73.4 Q 216.7 71.8, 216.4 71.3 L 216.4 88.4 L 213.7 88.4 L 213.7 67.7 L 217.0 67.7 " fill="#0000FF"/>
<path class="atom-3" d="M 213.3 155.8 L 220.1 166.7 Q 220.8 167.8, 221.9 169.8 Q 222.9 171.8, 223.0 171.9 L 223.0 155.8 L 225.8 155.8 L 225.8 176.5 L 222.9 176.5 L 215.6 164.5 Q 214.8 163.1, 213.9 161.5 Q 213.0 159.9, 212.7 159.4 L 212.7 176.5 L 210.0 176.5 L 210.0 155.8 L 213.3 155.8 " fill="#0000FF"/>
<path class="atom-7" d="M 133.0 70.8 Q 133.0 65.9, 135.5 63.1 Q 138.0 60.3, 142.6 60.3 Q 147.2 60.3, 149.6 63.1 Q 152.1 65.9, 152.1 70.8 Q 152.1 75.9, 149.6 78.8 Q 147.1 81.6, 142.6 81.6 Q 138.0 81.6, 135.5 78.8 Q 133.0 75.9, 133.0 70.8 M 142.6 79.3 Q 145.7 79.3, 147.4 77.1 Q 149.2 75.0, 149.2 70.8 Q 149.2 66.8, 147.4 64.7 Q 145.7 62.6, 142.6 62.6 Q 139.4 62.6, 137.7 64.7 Q 136.0 66.7, 136.0 70.8 Q 136.0 75.0, 137.7 77.1 Q 139.4 79.3, 142.6 79.3 " fill="#FF0000"/>
<path class="atom-8" d="M 95.0 161.0 L 101.8 172.0 Q 102.4 173.1, 103.5 175.1 Q 104.6 177.0, 104.7 177.1 L 104.7 161.0 L 107.4 161.0 L 107.4 181.8 L 104.6 181.8 L 97.3 169.8 Q 96.4 168.4, 95.5 166.7 Q 94.7 165.1, 94.4 164.6 L 94.4 181.8 L 91.7 181.8 L 91.7 161.0 L 95.0 161.0 " fill="#0000FF"/>
<path class="atom-10" d="M 55.1 274.3 Q 55.1 269.3, 57.6 266.5 Q 60.1 263.7, 64.7 263.7 Q 69.3 263.7, 71.7 266.5 Q 74.2 269.3, 74.2 274.3 Q 74.2 279.3, 71.7 282.2 Q 69.2 285.0, 64.7 285.0 Q 60.1 285.0, 57.6 282.2 Q 55.1 279.3, 55.1 274.3 M 64.7 282.7 Q 67.8 282.7, 69.5 280.5 Q 71.2 278.4, 71.2 274.3 Q 71.2 270.2, 69.5 268.1 Q 67.8 266.0, 64.7 266.0 Q 61.5 266.0, 59.8 268.1 Q 58.1 270.1, 58.1 274.3 Q 58.1 278.4, 59.8 280.5 Q 61.5 282.7, 64.7 282.7 " fill="#FF0000"/>
<path class="atom-11" d="M 132.4 215.5 L 139.2 226.5 Q 139.9 227.6, 140.9 229.6 Q 142.0 231.5, 142.1 231.6 L 142.1 215.5 L 144.8 215.5 L 144.8 236.3 L 142.0 236.3 L 134.7 224.3 Q 133.8 222.9, 132.9 221.2 Q 132.1 219.6, 131.8 219.1 L 131.8 236.3 L 129.1 236.3 L 129.1 215.5 L 132.4 215.5 " fill="#0000FF"/>
</svg>