<svg xmlns="http://www.w3.org/2000/svg" xmlns:rdkit="http://www.rdkit.org/xml" xmlns:xlink="http://www.w3.org/1999/xlink" version="1.1" baseProfile="full" xml:space="preserve" width="300px" height="300px" viewBox="0 0 300 300">
<!-- END OF HEADER -->
<rect style="opacity:1.0;fill:#FFFFFF;stroke:none" width="300.0" height="300.0" x="0.0" y="0.0"> </rect>
<path class="bond-0 atom-0 atom-1" d="M 285.0,237.5 L 272.0,215.0" style="fill:none;fill-rule:evenodd;stroke:#000000;stroke-width:2.0px;stroke-linecap:butt;stroke-linejoin:miter;stroke-opacity:1"/>
<path class="bond-0 atom-0 atom-1" d="M 272.0,215.0 L 259.1,192.6" style="fill:none;fill-rule:evenodd;stroke:#0000FF;stroke-width:2.0px;stroke-linecap:butt;stroke-linejoin:miter;stroke-opacity:1"/>
<path class="bond-1 atom-1 atom-2" d="M 257.4,169.3 L 266.9,147.9" style="fill:none;fill-rule:evenodd;stroke:#0000FF;stroke-width:2.0px;stroke-linecap:butt;stroke-linejoin:miter;stroke-opacity:1"/>
<path class="bond-1 atom-1 atom-2" d="M 266.9,147.9 L 276.3,126.4" style="fill:none;fill-rule:evenodd;stroke:#000000;stroke-width:2.0px;stroke-linecap:butt;stroke-linejoin:miter;stroke-opacity:1"/>
<path class="bond-2 atom-2 atom-3" d="M 276.3,126.4 L 259.8,109.3" style="fill:none;fill-rule:evenodd;stroke:#000000;stroke-width:2.0px;stroke-linecap:butt;stroke-linejoin:miter;stroke-opacity:1"/>
<path class="bond-2 atom-2 atom-3" d="M 259.8,109.3 L 243.3,92.1" style="fill:none;fill-rule:evenodd;stroke:#0000FF;stroke-width:2.0px;stroke-linecap:butt;stroke-linejoin:miter;stroke-opacity:1"/>
<path class="bond-2 atom-2 atom-3" d="M 265.3,128.4 L 250.9,113.5" style="fill:none;fill-rule:evenodd;stroke:#000000;stroke-width:2.0px;stroke-linecap:butt;stroke-linejoin:miter;stroke-opacity:1"/>
<path class="bond-2 atom-2 atom-3" d="M 250.9,113.5 L 236.6,98.5" style="fill:none;fill-rule:evenodd;stroke:#0000FF;stroke-width:2.0px;stroke-linecap:butt;stroke-linejoin:miter;stroke-opacity:1"/>
<path class="bond-3 atom-3 atom-4" d="M 224.7,87.7 L 203.3,99.8" style="fill:none;fill-rule:evenodd;stroke:#0000FF;stroke-width:2.0px;stroke-linecap:butt;stroke-linejoin:miter;stroke-opacity:1"/>
<path class="bond-3 atom-3 atom-4" d="M 203.3,99.8 L 181.9,112.0" style="fill:none;fill-rule:evenodd;stroke:#000000;stroke-width:2.0px;stroke-linecap:butt;stroke-linejoin:miter;stroke-opacity:1"/>
<path class="bond-4 atom-4 atom-5" d="M 181.9,112.0 L 192.5,170.9" style="fill:none;fill-rule:evenodd;stroke:#000000;stroke-width:2.0px;stroke-linecap:butt;stroke-linejoin:miter;stroke-opacity:1"/>
<path class="bond-4 atom-4 atom-5" d="M 192.2,116.8 L 200.5,162.8" style="fill:none;fill-rule:evenodd;stroke:#000000;stroke-width:2.0px;stroke-linecap:butt;stroke-linejoin:miter;stroke-opacity:1"/>
<path class="bond-5 atom-5 atom-6" d="M 192.5,170.9 L 144.9,210.1" style="fill:none;fill-rule:evenodd;stroke:#000000;stroke-width:2.0px;stroke-linecap:butt;stroke-linejoin:miter;stroke-opacity:1"/>
<path class="bond-6 atom-6 atom-7" d="M 139.8,208.0 L 144.0,231.1" style="fill:none;fill-rule:evenodd;stroke:#000000;stroke-width:2.0px;stroke-linecap:butt;stroke-linejoin:miter;stroke-opacity:1"/>
<path class="bond-6 atom-6 atom-7" d="M 144.0,231.1 L 148.1,254.3" style="fill:none;fill-rule:evenodd;stroke:#FF0000;stroke-width:2.0px;stroke-linecap:butt;stroke-linejoin:miter;stroke-opacity:1"/>
<path class="bond-6 atom-6 atom-7" d="M 149.0,206.7 L 153.1,229.5" style="fill:none;fill-rule:evenodd;stroke:#000000;stroke-width:2.0px;stroke-linecap:butt;stroke-linejoin:miter;stroke-opacity:1"/>
<path class="bond-6 atom-6 atom-7" d="M 153.1,229.5 L 157.2,252.6" style="fill:none;fill-rule:evenodd;stroke:#FF0000;stroke-width:2.0px;stroke-linecap:butt;stroke-linejoin:miter;stroke-opacity:1"/>
<path class="bond-7 atom-6 atom-8" d="M 144.9,210.1 L 120.7,200.4" style="fill:none;fill-rule:evenodd;stroke:#000000;stroke-width:2.0px;stroke-linecap:butt;stroke-linejoin:miter;stroke-opacity:1"/>
<path class="bond-7 atom-6 atom-8" d="M 120.7,200.4 L 96.4,190.8" style="fill:none;fill-rule:evenodd;stroke:#0000FF;stroke-width:2.0px;stroke-linecap:butt;stroke-linejoin:miter;stroke-opacity:1"/>
<path class="bond-8 atom-8 atom-9" d="M 85.2,175.5 L 81.2,151.2" style="fill:none;fill-rule:evenodd;stroke:#0000FF;stroke-width:2.0px;stroke-linecap:butt;stroke-linejoin:miter;stroke-opacity:1"/>
<path class="bond-8 atom-8 atom-9" d="M 81.2,151.2 L 77.2,126.9" style="fill:none;fill-rule:evenodd;stroke:#000000;stroke-width:2.0px;stroke-linecap:butt;stroke-linejoin:miter;stroke-opacity:1"/>
<path class="bond-9 atom-9 atom-10" d="M 81.4,123.5 L 58.9,115.1" style="fill:none;fill-rule:evenodd;stroke:#000000;stroke-width:2.0px;stroke-linecap:butt;stroke-linejoin:miter;stroke-opacity:1"/>
<path class="bond-9 atom-9 atom-10" d="M 58.9,115.1 L 36.3,106.7" style="fill:none;fill-rule:evenodd;stroke:#FF0000;stroke-width:2.0px;stroke-linecap:butt;stroke-linejoin:miter;stroke-opacity:1"/>
<path class="bond-9 atom-9 atom-10" d="M 78.1,132.2 L 55.6,123.8" style="fill:none;fill-rule:evenodd;stroke:#000000;stroke-width:2.0px;stroke-linecap:butt;stroke-linejoin:miter;stroke-opacity:1"/>
<path class="bond-9 atom-9 atom-10" d="M 55.6,123.8 L 33.0,115.4" style="fill:none;fill-rule:evenodd;stroke:#FF0000;stroke-width:2.0px;stroke-linecap:butt;stroke-linejoin:miter;stroke-opacity:1"/>
<path class="bond-10 atom-9 atom-11" d="M 77.2,126.9 L 96.5,111.4" style="fill:none;fill-rule:evenodd;stroke:#000000;stroke-width:2.0px;stroke-linecap:butt;stroke-linejoin:miter;stroke-opacity:1"/>
<path class="bond-10 atom-9 atom-11" d="M 96.5,111.4 L 115.7,95.9" style="fill:none;fill-rule:evenodd;stroke:#0000FF;stroke-width:2.0px;stroke-linecap:butt;stroke-linejoin:miter;stroke-opacity:1"/>
<path class="bond-11 atom-11 atom-12" d="M 123.2,76.8 L 119.1,50.8" style="fill:none;fill-rule:evenodd;stroke:#0000FF;stroke-width:2.0px;stroke-linecap:butt;stroke-linejoin:miter;stroke-opacity:1"/>
<path class="bond-11 atom-11 atom-12" d="M 119.1,50.8 L 115.1,24.8" style="fill:none;fill-rule:evenodd;stroke:#000000;stroke-width:2.0px;stroke-linecap:butt;stroke-linejoin:miter;stroke-opacity:1"/>
<path class="bond-12 atom-8 atom-13" d="M 77.7,194.4 L 56.5,211.0" style="fill:none;fill-rule:evenodd;stroke:#0000FF;stroke-width:2.0px;stroke-linecap:butt;stroke-linejoin:miter;stroke-opacity:1"/>
<path class="bond-12 atom-8 atom-13" d="M 56.5,211.0 L 35.3,227.6" style="fill:none;fill-rule:evenodd;stroke:#000000;stroke-width:2.0px;stroke-linecap:butt;stroke-linejoin:miter;stroke-opacity:1"/>
<path class="bond-13 atom-5 atom-1" d="M 192.5,170.9 L 217.8,175.1" style="fill:none;fill-rule:evenodd;stroke:#000000;stroke-width:2.0px;stroke-linecap:butt;stroke-linejoin:miter;stroke-opacity:1"/>
<path class="bond-13 atom-5 atom-1" d="M 217.8,175.1 L 243.0,179.4" style="fill:none;fill-rule:evenodd;stroke:#0000FF;stroke-width:2.0px;stroke-linecap:butt;stroke-linejoin:miter;stroke-opacity:1"/>
<path class="bond-14 atom-11 atom-4" d="M 134.4,92.3 L 158.1,102.1" style="fill:none;fill-rule:evenodd;stroke:#0000FF;stroke-width:2.0px;stroke-linecap:butt;stroke-linejoin:miter;stroke-opacity:1"/>
<path class="bond-14 atom-11 atom-4" d="M 158.1,102.1 L 181.9,112.0" style="fill:none;fill-rule:evenodd;stroke:#000000;stroke-width:2.0px;stroke-linecap:butt;stroke-linejoin:miter;stroke-opacity:1"/>
<path d="M 275.8,127.5 L 276.3,126.4 L 275.5,125.6" style="fill:none;stroke:#000000;stroke-width:2.0px;stroke-linecap:butt;stroke-linejoin:miter;stroke-opacity:1;"/>
<path d="M 147.3,208.1 L 144.9,210.1 L 143.7,209.6" style="fill:none;stroke:#000000;stroke-width:2.0px;stroke-linecap:butt;stroke-linejoin:miter;stroke-opacity:1;"/>
<path d="M 77.4,128.2 L 77.2,126.9 L 78.2,126.2" style="fill:none;stroke:#000000;stroke-width:2.0px;stroke-linecap:butt;stroke-linejoin:miter;stroke-opacity:1;"/>
<path class="atom-1" d="M 248.1 171.3 L 254.4 181.5 Q 255.0 182.5, 256.0 184.3 Q 257.0 186.1, 257.1 186.3 L 257.1 171.3 L 259.6 171.3 L 259.6 190.5 L 257.0 190.5 L 250.2 179.4 Q 249.4 178.1, 248.6 176.6 Q 247.8 175.1, 247.5 174.7 L 247.5 190.5 L 245.0 190.5 L 245.0 171.3 L 248.1 171.3 " fill="#0000FF"/>
<path class="atom-3" d="M 229.7 72.8 L 236.0 83.0 Q 236.7 84.0, 237.7 85.8 Q 238.7 87.6, 238.7 87.7 L 238.7 72.8 L 241.3 72.8 L 241.3 92.0 L 238.6 92.0 L 231.9 80.9 Q 231.1 79.6, 230.3 78.1 Q 229.4 76.6, 229.2 76.1 L 229.2 92.0 L 226.7 92.0 L 226.7 72.8 L 229.7 72.8 " fill="#0000FF"/>
<path class="atom-7" d="M 145.9 265.2 Q 145.9 260.6, 148.2 258.1 Q 150.5 255.5, 154.8 255.5 Q 159.0 255.5, 161.3 258.1 Q 163.6 260.6, 163.6 265.2 Q 163.6 269.9, 161.3 272.6 Q 159.0 275.2, 154.8 275.2 Q 150.5 275.2, 148.2 272.6 Q 145.9 269.9, 145.9 265.2 M 154.8 273.0 Q 157.7 273.0, 159.3 271.1 Q 160.9 269.1, 160.9 265.2 Q 160.9 261.5, 159.3 259.6 Q 157.7 257.7, 154.8 257.7 Q 151.8 257.7, 150.2 259.6 Q 148.7 261.5, 148.7 265.2 Q 148.7 269.1, 150.2 271.1 Q 151.8 273.0, 154.8 273.0 " fill="#FF0000"/>
<path class="atom-8" d="M 82.8 177.5 L 89.1 187.7 Q 89.7 188.7, 90.7 190.5 Q 91.7 192.4, 91.8 192.5 L 91.8 177.5 L 94.4 177.5 L 94.4 196.7 L 91.7 196.7 L 85.0 185.6 Q 84.2 184.3, 83.3 182.8 Q 82.5 181.3, 82.3 180.9 L 82.3 196.7 L 79.8 196.7 L 79.8 177.5 L 82.8 177.5 " fill="#0000FF"/>
<path class="atom-10" d="M 15.0 107.1 Q 15.0 102.5, 17.3 99.9 Q 19.6 97.3, 23.8 97.3 Q 28.1 97.3, 30.3 99.9 Q 32.6 102.5, 32.6 107.1 Q 32.6 111.8, 30.3 114.4 Q 28.0 117.0, 23.8 117.0 Q 19.6 117.0, 17.3 114.4 Q 15.0 111.8, 15.0 107.1 M 23.8 114.9 Q 26.7 114.9, 28.3 112.9 Q 29.9 110.9, 29.9 107.1 Q 29.9 103.3, 28.3 101.4 Q 26.7 99.5, 23.8 99.5 Q 20.9 99.5, 19.3 101.4 Q 17.7 103.3, 17.7 107.1 Q 17.7 111.0, 19.3 112.9 Q 20.9 114.9, 23.8 114.9 " fill="#FF0000"/>
<path class="atom-11" d="M 120.8 78.8 L 127.1 89.0 Q 127.7 90.0, 128.7 91.8 Q 129.7 93.6, 129.8 93.7 L 129.8 78.8 L 132.3 78.8 L 132.3 98.0 L 129.7 98.0 L 123.0 86.9 Q 122.2 85.6, 121.3 84.1 Q 120.5 82.6, 120.3 82.2 L 120.3 98.0 L 117.8 98.0 L 117.8 78.8 L 120.8 78.8 " fill="#0000FF"/>
</svg>