<svg xmlns="http://www.w3.org/2000/svg" xmlns:rdkit="http://www.rdkit.org/xml" xmlns:xlink="http://www.w3.org/1999/xlink" version="1.1" baseProfile="full" xml:space="preserve" width="300px" height="300px" viewBox="0 0 300 300">
<!-- END OF HEADER -->
<rect style="opacity:1.0;fill:#FFFFFF;stroke:none" width="300.0" height="300.0" x="0.0" y="0.0"> </rect>
<path class="bond-0 atom-0 atom-1" d="M 286.4,238.3 L 273.3,215.7" style="fill:none;fill-rule:evenodd;stroke:#000000;stroke-width:2.0px;stroke-linecap:butt;stroke-linejoin:miter;stroke-opacity:1"/>
<path class="bond-0 atom-0 atom-1" d="M 273.3,215.7 L 260.2,193.0" style="fill:none;fill-rule:evenodd;stroke:#0000FF;stroke-width:2.0px;stroke-linecap:butt;stroke-linejoin:miter;stroke-opacity:1"/>
<path class="bond-1 atom-1 atom-2" d="M 258.5,169.5 L 268.0,147.8" style="fill:none;fill-rule:evenodd;stroke:#0000FF;stroke-width:2.0px;stroke-linecap:butt;stroke-linejoin:miter;stroke-opacity:1"/>
<path class="bond-1 atom-1 atom-2" d="M 268.0,147.8 L 277.6,126.2" style="fill:none;fill-rule:evenodd;stroke:#000000;stroke-width:2.0px;stroke-linecap:butt;stroke-linejoin:miter;stroke-opacity:1"/>
<path class="bond-2 atom-2 atom-3" d="M 277.6,126.2 L 260.9,108.8" style="fill:none;fill-rule:evenodd;stroke:#000000;stroke-width:2.0px;stroke-linecap:butt;stroke-linejoin:miter;stroke-opacity:1"/>
<path class="bond-2 atom-2 atom-3" d="M 260.9,108.8 L 244.2,91.5" style="fill:none;fill-rule:evenodd;stroke:#0000FF;stroke-width:2.0px;stroke-linecap:butt;stroke-linejoin:miter;stroke-opacity:1"/>
<path class="bond-2 atom-2 atom-3" d="M 266.4,128.2 L 252.0,113.1" style="fill:none;fill-rule:evenodd;stroke:#000000;stroke-width:2.0px;stroke-linecap:butt;stroke-linejoin:miter;stroke-opacity:1"/>
<path class="bond-2 atom-2 atom-3" d="M 252.0,113.1 L 237.5,98.0" style="fill:none;fill-rule:evenodd;stroke:#0000FF;stroke-width:2.0px;stroke-linecap:butt;stroke-linejoin:miter;stroke-opacity:1"/>
<path class="bond-3 atom-3 atom-4" d="M 225.4,87.1 L 203.8,99.3" style="fill:none;fill-rule:evenodd;stroke:#0000FF;stroke-width:2.0px;stroke-linecap:butt;stroke-linejoin:miter;stroke-opacity:1"/>
<path class="bond-3 atom-3 atom-4" d="M 203.8,99.3 L 182.2,111.6" style="fill:none;fill-rule:evenodd;stroke:#000000;stroke-width:2.0px;stroke-linecap:butt;stroke-linejoin:miter;stroke-opacity:1"/>
<path class="bond-4 atom-4 atom-5" d="M 182.2,111.6 L 192.9,171.1" style="fill:none;fill-rule:evenodd;stroke:#000000;stroke-width:2.0px;stroke-linecap:butt;stroke-linejoin:miter;stroke-opacity:1"/>
<path class="bond-4 atom-4 atom-5" d="M 192.6,116.5 L 201.0,162.9" style="fill:none;fill-rule:evenodd;stroke:#000000;stroke-width:2.0px;stroke-linecap:butt;stroke-linejoin:miter;stroke-opacity:1"/>
<path class="bond-5 atom-5 atom-6" d="M 192.9,171.1 L 144.9,210.7" style="fill:none;fill-rule:evenodd;stroke:#000000;stroke-width:2.0px;stroke-linecap:butt;stroke-linejoin:miter;stroke-opacity:1"/>
<path class="bond-6 atom-6 atom-7" d="M 139.7,208.6 L 143.9,232.0" style="fill:none;fill-rule:evenodd;stroke:#000000;stroke-width:2.0px;stroke-linecap:butt;stroke-linejoin:miter;stroke-opacity:1"/>
<path class="bond-6 atom-6 atom-7" d="M 143.9,232.0 L 148.1,255.3" style="fill:none;fill-rule:evenodd;stroke:#FF0000;stroke-width:2.0px;stroke-linecap:butt;stroke-linejoin:miter;stroke-opacity:1"/>
<path class="bond-6 atom-6 atom-7" d="M 149.0,207.2 L 153.1,230.3" style="fill:none;fill-rule:evenodd;stroke:#000000;stroke-width:2.0px;stroke-linecap:butt;stroke-linejoin:miter;stroke-opacity:1"/>
<path class="bond-6 atom-6 atom-7" d="M 153.1,230.3 L 157.3,253.7" style="fill:none;fill-rule:evenodd;stroke:#FF0000;stroke-width:2.0px;stroke-linecap:butt;stroke-linejoin:miter;stroke-opacity:1"/>
<path class="bond-7 atom-6 atom-8" d="M 144.9,210.7 L 120.4,201.0" style="fill:none;fill-rule:evenodd;stroke:#000000;stroke-width:2.0px;stroke-linecap:butt;stroke-linejoin:miter;stroke-opacity:1"/>
<path class="bond-7 atom-6 atom-8" d="M 120.4,201.0 L 95.9,191.3" style="fill:none;fill-rule:evenodd;stroke:#0000FF;stroke-width:2.0px;stroke-linecap:butt;stroke-linejoin:miter;stroke-opacity:1"/>
<path class="bond-8 atom-8 atom-9" d="M 84.5,175.8 L 80.5,151.2" style="fill:none;fill-rule:evenodd;stroke:#0000FF;stroke-width:2.0px;stroke-linecap:butt;stroke-linejoin:miter;stroke-opacity:1"/>
<path class="bond-8 atom-8 atom-9" d="M 80.5,151.2 L 76.5,126.7" style="fill:none;fill-rule:evenodd;stroke:#000000;stroke-width:2.0px;stroke-linecap:butt;stroke-linejoin:miter;stroke-opacity:1"/>
<path class="bond-9 atom-9 atom-10" d="M 80.7,123.3 L 57.9,114.8" style="fill:none;fill-rule:evenodd;stroke:#000000;stroke-width:2.0px;stroke-linecap:butt;stroke-linejoin:miter;stroke-opacity:1"/>
<path class="bond-9 atom-9 atom-10" d="M 57.9,114.8 L 35.1,106.3" style="fill:none;fill-rule:evenodd;stroke:#FF0000;stroke-width:2.0px;stroke-linecap:butt;stroke-linejoin:miter;stroke-opacity:1"/>
<path class="bond-9 atom-9 atom-10" d="M 77.4,132.0 L 54.6,123.6" style="fill:none;fill-rule:evenodd;stroke:#000000;stroke-width:2.0px;stroke-linecap:butt;stroke-linejoin:miter;stroke-opacity:1"/>
<path class="bond-9 atom-9 atom-10" d="M 54.6,123.6 L 31.9,115.1" style="fill:none;fill-rule:evenodd;stroke:#FF0000;stroke-width:2.0px;stroke-linecap:butt;stroke-linejoin:miter;stroke-opacity:1"/>
<path class="bond-10 atom-9 atom-11" d="M 76.5,126.7 L 95.9,111.1" style="fill:none;fill-rule:evenodd;stroke:#000000;stroke-width:2.0px;stroke-linecap:butt;stroke-linejoin:miter;stroke-opacity:1"/>
<path class="bond-10 atom-9 atom-11" d="M 95.9,111.1 L 115.4,95.4" style="fill:none;fill-rule:evenodd;stroke:#0000FF;stroke-width:2.0px;stroke-linecap:butt;stroke-linejoin:miter;stroke-opacity:1"/>
<path class="bond-11 atom-11 atom-12" d="M 123.0,76.0 L 118.8,49.8" style="fill:none;fill-rule:evenodd;stroke:#0000FF;stroke-width:2.0px;stroke-linecap:butt;stroke-linejoin:miter;stroke-opacity:1"/>
<path class="bond-11 atom-11 atom-12" d="M 118.8,49.8 L 114.7,23.5" style="fill:none;fill-rule:evenodd;stroke:#000000;stroke-width:2.0px;stroke-linecap:butt;stroke-linejoin:miter;stroke-opacity:1"/>
<path class="bond-12 atom-8 atom-13" d="M 77.0,194.9 L 55.6,211.6" style="fill:none;fill-rule:evenodd;stroke:#0000FF;stroke-width:2.0px;stroke-linecap:butt;stroke-linejoin:miter;stroke-opacity:1"/>
<path class="bond-12 atom-8 atom-13" d="M 55.6,211.6 L 34.1,228.4" style="fill:none;fill-rule:evenodd;stroke:#000000;stroke-width:2.0px;stroke-linecap:butt;stroke-linejoin:miter;stroke-opacity:1"/>
<path class="bond-13 atom-5 atom-1" d="M 192.9,171.1 L 218.4,175.4" style="fill:none;fill-rule:evenodd;stroke:#000000;stroke-width:2.0px;stroke-linecap:butt;stroke-linejoin:miter;stroke-opacity:1"/>
<path class="bond-13 atom-5 atom-1" d="M 218.4,175.4 L 243.9,179.7" style="fill:none;fill-rule:evenodd;stroke:#0000FF;stroke-width:2.0px;stroke-linecap:butt;stroke-linejoin:miter;stroke-opacity:1"/>
<path class="bond-14 atom-11 atom-4" d="M 134.2,91.7 L 158.2,101.6" style="fill:none;fill-rule:evenodd;stroke:#0000FF;stroke-width:2.0px;stroke-linecap:butt;stroke-linejoin:miter;stroke-opacity:1"/>
<path class="bond-14 atom-11 atom-4" d="M 158.2,101.6 L 182.2,111.6" style="fill:none;fill-rule:evenodd;stroke:#000000;stroke-width:2.0px;stroke-linecap:butt;stroke-linejoin:miter;stroke-opacity:1"/>
<path d="M 277.1,127.3 L 277.6,126.2 L 276.7,125.3" style="fill:none;stroke:#000000;stroke-width:2.0px;stroke-linecap:butt;stroke-linejoin:miter;stroke-opacity:1;"/>
<path d="M 147.3,208.7 L 144.9,210.7 L 143.6,210.2" style="fill:none;stroke:#000000;stroke-width:2.0px;stroke-linecap:butt;stroke-linejoin:miter;stroke-opacity:1;"/>
<path d="M 76.7,127.9 L 76.5,126.7 L 77.5,125.9" style="fill:none;stroke:#000000;stroke-width:2.0px;stroke-linecap:butt;stroke-linejoin:miter;stroke-opacity:1;"/>
<path class="atom-1" d="M 249.1 171.6 L 255.4 181.8 Q 256.1 182.8, 257.1 184.7 Q 258.1 186.5, 258.1 186.6 L 258.1 171.6 L 260.7 171.6 L 260.7 190.9 L 258.1 190.9 L 251.2 179.7 Q 250.4 178.4, 249.6 176.9 Q 248.8 175.4, 248.5 174.9 L 248.5 190.9 L 246.0 190.9 L 246.0 171.6 L 249.1 171.6 " fill="#0000FF"/>
<path class="atom-3" d="M 230.5 72.0 L 236.9 82.3 Q 237.5 83.3, 238.5 85.1 Q 239.6 87.0, 239.6 87.1 L 239.6 72.0 L 242.2 72.0 L 242.2 91.4 L 239.5 91.4 L 232.7 80.2 Q 231.9 78.9, 231.1 77.4 Q 230.2 75.9, 230.0 75.4 L 230.0 91.4 L 227.5 91.4 L 227.5 72.0 L 230.5 72.0 " fill="#0000FF"/>
<path class="atom-7" d="M 145.9 266.4 Q 145.9 261.8, 148.2 259.2 Q 150.5 256.6, 154.8 256.6 Q 159.1 256.6, 161.4 259.2 Q 163.7 261.8, 163.7 266.4 Q 163.7 271.1, 161.4 273.8 Q 159.1 276.5, 154.8 276.5 Q 150.5 276.5, 148.2 273.8 Q 145.9 271.2, 145.9 266.4 M 154.8 274.3 Q 157.8 274.3, 159.4 272.3 Q 161.0 270.3, 161.0 266.4 Q 161.0 262.6, 159.4 260.7 Q 157.8 258.7, 154.8 258.7 Q 151.9 258.7, 150.2 260.7 Q 148.6 262.6, 148.6 266.4 Q 148.6 270.3, 150.2 272.3 Q 151.9 274.3, 154.8 274.3 " fill="#FF0000"/>
<path class="atom-8" d="M 82.1 177.8 L 88.5 188.1 Q 89.1 189.1, 90.1 190.9 Q 91.2 192.8, 91.2 192.9 L 91.2 177.8 L 93.8 177.8 L 93.8 197.2 L 91.1 197.2 L 84.3 186.0 Q 83.5 184.7, 82.7 183.2 Q 81.8 181.7, 81.6 181.2 L 81.6 197.2 L 79.1 197.2 L 79.1 177.8 L 82.1 177.8 " fill="#0000FF"/>
<path class="atom-10" d="M 13.6 106.7 Q 13.6 102.0, 15.9 99.4 Q 18.2 96.8, 22.5 96.8 Q 26.8 96.8, 29.1 99.4 Q 31.4 102.0, 31.4 106.7 Q 31.4 111.4, 29.1 114.1 Q 26.8 116.7, 22.5 116.7 Q 18.3 116.7, 15.9 114.1 Q 13.6 111.4, 13.6 106.7 M 22.5 114.5 Q 25.5 114.5, 27.1 112.6 Q 28.7 110.6, 28.7 106.7 Q 28.7 102.9, 27.1 100.9 Q 25.5 99.0, 22.5 99.0 Q 19.6 99.0, 18.0 100.9 Q 16.4 102.8, 16.4 106.7 Q 16.4 110.6, 18.0 112.6 Q 19.6 114.5, 22.5 114.5 " fill="#FF0000"/>
<path class="atom-11" d="M 120.5 78.1 L 126.9 88.4 Q 127.5 89.4, 128.5 91.2 Q 129.5 93.1, 129.6 93.2 L 129.6 78.1 L 132.2 78.1 L 132.2 97.5 L 129.5 97.5 L 122.7 86.3 Q 121.9 85.0, 121.0 83.5 Q 120.2 81.9, 120.0 81.5 L 120.0 97.5 L 117.5 97.5 L 117.5 78.1 L 120.5 78.1 " fill="#0000FF"/>
</svg>