<?xml version="1.0" encoding="utf-8" standalone="no"?>
<!DOCTYPE svg PUBLIC "-//W3C//DTD SVG 1.1//EN"
  "http://www.w3.org/Graphics/SVG/1.1/DTD/svg11.dtd">
<!-- Created with matplotlib (https://matplotlib.org/) -->
<svg height="432pt" version="1.1" viewBox="0 0 720 432" width="720pt" xmlns="http://www.w3.org/2000/svg" xmlns:xlink="http://www.w3.org/1999/xlink">
 <metadata>
  <rdf:RDF xmlns:cc="http://creativecommons.org/ns#" xmlns:dc="http://purl.org/dc/elements/1.1/" xmlns:rdf="http://www.w3.org/1999/02/22-rdf-syntax-ns#">
   <cc:Work>
    <dc:type rdf:resource="http://purl.org/dc/dcmitype/StillImage"/>
    <dc:date>2021-07-19T10:44:47.223651</dc:date>
    <dc:format>image/svg+xml</dc:format>
    <dc:creator>
     <cc:Agent>
      <dc:title>Matplotlib v3.3.2, https://matplotlib.org/</dc:title>
     </cc:Agent>
    </dc:creator>
   </cc:Work>
  </rdf:RDF>
 </metadata>
 <defs>
  <style type="text/css">*{stroke-linecap:butt;stroke-linejoin:round;}</style>
 </defs>
 <g id="figure_1">
  <g id="patch_1">
   <path d="M 0 432 
L 720 432 
L 720 0 
L 0 0 
z
" style="fill:none;"/>
  </g>
  <g id="axes_1">
   <g id="patch_2">
    <path d="M 90 378 
L 648 378 
L 648 269.28 
L 90 269.28 
z
" style="fill:#ffffff;"/>
   </g>
   <g id="matplotlib.axis_1">
    <g id="xtick_1">
     <g id="line2d_1">
      <defs>
       <path d="M 0 0 
L 0 3.5 
" id="mf2522611db" style="stroke:#000000;stroke-width:0.8;"/>
      </defs>
      <g>
       <use style="stroke:#000000;stroke-width:0.8;" x="90" xlink:href="#mf2522611db" y="378"/>
      </g>
     </g>
     <g id="text_1">
      <!-- 0 -->
      <g transform="translate(86.81875 392.598437)scale(0.1 -0.1)">
       <defs>
        <path d="M 31.78125 66.40625 
Q 24.171875 66.40625 20.328125 58.90625 
Q 16.5 51.421875 16.5 36.375 
Q 16.5 21.390625 20.328125 13.890625 
Q 24.171875 6.390625 31.78125 6.390625 
Q 39.453125 6.390625 43.28125 13.890625 
Q 47.125 21.390625 47.125 36.375 
Q 47.125 51.421875 43.28125 58.90625 
Q 39.453125 66.40625 31.78125 66.40625 
z
M 31.78125 74.21875 
Q 44.046875 74.21875 50.515625 64.515625 
Q 56.984375 54.828125 56.984375 36.375 
Q 56.984375 17.96875 50.515625 8.265625 
Q 44.046875 -1.421875 31.78125 -1.421875 
Q 19.53125 -1.421875 13.0625 8.265625 
Q 6.59375 17.96875 6.59375 36.375 
Q 6.59375 54.828125 13.0625 64.515625 
Q 19.53125 74.21875 31.78125 74.21875 
z
" id="DejaVuSans-48"/>
       </defs>
       <use xlink:href="#DejaVuSans-48"/>
      </g>
     </g>
    </g>
    <g id="xtick_2">
     <g id="line2d_2">
      <g>
       <use style="stroke:#000000;stroke-width:0.8;" x="159.75" xlink:href="#mf2522611db" y="378"/>
      </g>
     </g>
     <g id="text_2">
      <!-- 250 -->
      <g transform="translate(150.20625 392.598437)scale(0.1 -0.1)">
       <defs>
        <path d="M 19.1875 8.296875 
L 53.609375 8.296875 
L 53.609375 0 
L 7.328125 0 
L 7.328125 8.296875 
Q 12.9375 14.109375 22.625 23.890625 
Q 32.328125 33.6875 34.8125 36.53125 
Q 39.546875 41.84375 41.421875 45.53125 
Q 43.3125 49.21875 43.3125 52.78125 
Q 43.3125 58.59375 39.234375 62.25 
Q 35.15625 65.921875 28.609375 65.921875 
Q 23.96875 65.921875 18.8125 64.3125 
Q 13.671875 62.703125 7.8125 59.421875 
L 7.8125 69.390625 
Q 13.765625 71.78125 18.9375 73 
Q 24.125 74.21875 28.421875 74.21875 
Q 39.75 74.21875 46.484375 68.546875 
Q 53.21875 62.890625 53.21875 53.421875 
Q 53.21875 48.921875 51.53125 44.890625 
Q 49.859375 40.875 45.40625 35.40625 
Q 44.1875 33.984375 37.640625 27.21875 
Q 31.109375 20.453125 19.1875 8.296875 
z
" id="DejaVuSans-50"/>
        <path d="M 10.796875 72.90625 
L 49.515625 72.90625 
L 49.515625 64.59375 
L 19.828125 64.59375 
L 19.828125 46.734375 
Q 21.96875 47.46875 24.109375 47.828125 
Q 26.265625 48.1875 28.421875 48.1875 
Q 40.625 48.1875 47.75 41.5 
Q 54.890625 34.8125 54.890625 23.390625 
Q 54.890625 11.625 47.5625 5.09375 
Q 40.234375 -1.421875 26.90625 -1.421875 
Q 22.3125 -1.421875 17.546875 -0.640625 
Q 12.796875 0.140625 7.71875 1.703125 
L 7.71875 11.625 
Q 12.109375 9.234375 16.796875 8.0625 
Q 21.484375 6.890625 26.703125 6.890625 
Q 35.15625 6.890625 40.078125 11.328125 
Q 45.015625 15.765625 45.015625 23.390625 
Q 45.015625 31 40.078125 35.4375 
Q 35.15625 39.890625 26.703125 39.890625 
Q 22.75 39.890625 18.8125 39.015625 
Q 14.890625 38.140625 10.796875 36.28125 
z
" id="DejaVuSans-53"/>
       </defs>
       <use xlink:href="#DejaVuSans-50"/>
       <use x="63.623047" xlink:href="#DejaVuSans-53"/>
       <use x="127.246094" xlink:href="#DejaVuSans-48"/>
      </g>
     </g>
    </g>
    <g id="xtick_3">
     <g id="line2d_3">
      <g>
       <use style="stroke:#000000;stroke-width:0.8;" x="229.5" xlink:href="#mf2522611db" y="378"/>
      </g>
     </g>
     <g id="text_3">
      <!-- 500 -->
      <g transform="translate(219.95625 392.598437)scale(0.1 -0.1)">
       <use xlink:href="#DejaVuSans-53"/>
       <use x="63.623047" xlink:href="#DejaVuSans-48"/>
       <use x="127.246094" xlink:href="#DejaVuSans-48"/>
      </g>
     </g>
    </g>
    <g id="xtick_4">
     <g id="line2d_4">
      <g>
       <use style="stroke:#000000;stroke-width:0.8;" x="299.25" xlink:href="#mf2522611db" y="378"/>
      </g>
     </g>
     <g id="text_4">
      <!-- 750 -->
      <g transform="translate(289.70625 392.598437)scale(0.1 -0.1)">
       <defs>
        <path d="M 8.203125 72.90625 
L 55.078125 72.90625 
L 55.078125 68.703125 
L 28.609375 0 
L 18.3125 0 
L 43.21875 64.59375 
L 8.203125 64.59375 
z
" id="DejaVuSans-55"/>
       </defs>
       <use xlink:href="#DejaVuSans-55"/>
       <use x="63.623047" xlink:href="#DejaVuSans-53"/>
       <use x="127.246094" xlink:href="#DejaVuSans-48"/>
      </g>
     </g>
    </g>
    <g id="xtick_5">
     <g id="line2d_5">
      <g>
       <use style="stroke:#000000;stroke-width:0.8;" x="369" xlink:href="#mf2522611db" y="378"/>
      </g>
     </g>
     <g id="text_5">
      <!-- 1000 -->
      <g transform="translate(356.275 392.598437)scale(0.1 -0.1)">
       <defs>
        <path d="M 12.40625 8.296875 
L 28.515625 8.296875 
L 28.515625 63.921875 
L 10.984375 60.40625 
L 10.984375 69.390625 
L 28.421875 72.90625 
L 38.28125 72.90625 
L 38.28125 8.296875 
L 54.390625 8.296875 
L 54.390625 0 
L 12.40625 0 
z
" id="DejaVuSans-49"/>
       </defs>
       <use xlink:href="#DejaVuSans-49"/>
       <use x="63.623047" xlink:href="#DejaVuSans-48"/>
       <use x="127.246094" xlink:href="#DejaVuSans-48"/>
       <use x="190.869141" xlink:href="#DejaVuSans-48"/>
      </g>
     </g>
    </g>
    <g id="xtick_6">
     <g id="line2d_6">
      <g>
       <use style="stroke:#000000;stroke-width:0.8;" x="438.75" xlink:href="#mf2522611db" y="378"/>
      </g>
     </g>
     <g id="text_6">
      <!-- 1250 -->
      <g transform="translate(426.025 392.598437)scale(0.1 -0.1)">
       <use xlink:href="#DejaVuSans-49"/>
       <use x="63.623047" xlink:href="#DejaVuSans-50"/>
       <use x="127.246094" xlink:href="#DejaVuSans-53"/>
       <use x="190.869141" xlink:href="#DejaVuSans-48"/>
      </g>
     </g>
    </g>
    <g id="xtick_7">
     <g id="line2d_7">
      <g>
       <use style="stroke:#000000;stroke-width:0.8;" x="508.5" xlink:href="#mf2522611db" y="378"/>
      </g>
     </g>
     <g id="text_7">
      <!-- 1500 -->
      <g transform="translate(495.775 392.598437)scale(0.1 -0.1)">
       <use xlink:href="#DejaVuSans-49"/>
       <use x="63.623047" xlink:href="#DejaVuSans-53"/>
       <use x="127.246094" xlink:href="#DejaVuSans-48"/>
       <use x="190.869141" xlink:href="#DejaVuSans-48"/>
      </g>
     </g>
    </g>
    <g id="xtick_8">
     <g id="line2d_8">
      <g>
       <use style="stroke:#000000;stroke-width:0.8;" x="578.25" xlink:href="#mf2522611db" y="378"/>
      </g>
     </g>
     <g id="text_8">
      <!-- 1750 -->
      <g transform="translate(565.525 392.598437)scale(0.1 -0.1)">
       <use xlink:href="#DejaVuSans-49"/>
       <use x="63.623047" xlink:href="#DejaVuSans-55"/>
       <use x="127.246094" xlink:href="#DejaVuSans-53"/>
       <use x="190.869141" xlink:href="#DejaVuSans-48"/>
      </g>
     </g>
    </g>
    <g id="xtick_9">
     <g id="line2d_9">
      <g>
       <use style="stroke:#000000;stroke-width:0.8;" x="648" xlink:href="#mf2522611db" y="378"/>
      </g>
     </g>
     <g id="text_9">
      <!-- 2000 -->
      <g transform="translate(635.275 392.598437)scale(0.1 -0.1)">
       <use xlink:href="#DejaVuSans-50"/>
       <use x="63.623047" xlink:href="#DejaVuSans-48"/>
       <use x="127.246094" xlink:href="#DejaVuSans-48"/>
       <use x="190.869141" xlink:href="#DejaVuSans-48"/>
      </g>
     </g>
    </g>
    <g id="text_10">
     <!-- Photon energy [eV] -->
     <g transform="translate(320.56875 406.276562)scale(0.1 -0.1)">
      <defs>
       <path d="M 19.671875 64.796875 
L 19.671875 37.40625 
L 32.078125 37.40625 
Q 38.96875 37.40625 42.71875 40.96875 
Q 46.484375 44.53125 46.484375 51.125 
Q 46.484375 57.671875 42.71875 61.234375 
Q 38.96875 64.796875 32.078125 64.796875 
z
M 9.8125 72.90625 
L 32.078125 72.90625 
Q 44.34375 72.90625 50.609375 67.359375 
Q 56.890625 61.8125 56.890625 51.125 
Q 56.890625 40.328125 50.609375 34.8125 
Q 44.34375 29.296875 32.078125 29.296875 
L 19.671875 29.296875 
L 19.671875 0 
L 9.8125 0 
z
" id="DejaVuSans-80"/>
       <path d="M 54.890625 33.015625 
L 54.890625 0 
L 45.90625 0 
L 45.90625 32.71875 
Q 45.90625 40.484375 42.875 44.328125 
Q 39.84375 48.1875 33.796875 48.1875 
Q 26.515625 48.1875 22.3125 43.546875 
Q 18.109375 38.921875 18.109375 30.90625 
L 18.109375 0 
L 9.078125 0 
L 9.078125 75.984375 
L 18.109375 75.984375 
L 18.109375 46.1875 
Q 21.34375 51.125 25.703125 53.5625 
Q 30.078125 56 35.796875 56 
Q 45.21875 56 50.046875 50.171875 
Q 54.890625 44.34375 54.890625 33.015625 
z
" id="DejaVuSans-104"/>
       <path d="M 30.609375 48.390625 
Q 23.390625 48.390625 19.1875 42.75 
Q 14.984375 37.109375 14.984375 27.296875 
Q 14.984375 17.484375 19.15625 11.84375 
Q 23.34375 6.203125 30.609375 6.203125 
Q 37.796875 6.203125 41.984375 11.859375 
Q 46.1875 17.53125 46.1875 27.296875 
Q 46.1875 37.015625 41.984375 42.703125 
Q 37.796875 48.390625 30.609375 48.390625 
z
M 30.609375 56 
Q 42.328125 56 49.015625 48.375 
Q 55.71875 40.765625 55.71875 27.296875 
Q 55.71875 13.875 49.015625 6.21875 
Q 42.328125 -1.421875 30.609375 -1.421875 
Q 18.84375 -1.421875 12.171875 6.21875 
Q 5.515625 13.875 5.515625 27.296875 
Q 5.515625 40.765625 12.171875 48.375 
Q 18.84375 56 30.609375 56 
z
" id="DejaVuSans-111"/>
       <path d="M 18.3125 70.21875 
L 18.3125 54.6875 
L 36.8125 54.6875 
L 36.8125 47.703125 
L 18.3125 47.703125 
L 18.3125 18.015625 
Q 18.3125 11.328125 20.140625 9.421875 
Q 21.96875 7.515625 27.59375 7.515625 
L 36.8125 7.515625 
L 36.8125 0 
L 27.59375 0 
Q 17.1875 0 13.234375 3.875 
Q 9.28125 7.765625 9.28125 18.015625 
L 9.28125 47.703125 
L 2.6875 47.703125 
L 2.6875 54.6875 
L 9.28125 54.6875 
L 9.28125 70.21875 
z
" id="DejaVuSans-116"/>
       <path d="M 54.890625 33.015625 
L 54.890625 0 
L 45.90625 0 
L 45.90625 32.71875 
Q 45.90625 40.484375 42.875 44.328125 
Q 39.84375 48.1875 33.796875 48.1875 
Q 26.515625 48.1875 22.3125 43.546875 
Q 18.109375 38.921875 18.109375 30.90625 
L 18.109375 0 
L 9.078125 0 
L 9.078125 54.6875 
L 18.109375 54.6875 
L 18.109375 46.1875 
Q 21.34375 51.125 25.703125 53.5625 
Q 30.078125 56 35.796875 56 
Q 45.21875 56 50.046875 50.171875 
Q 54.890625 44.34375 54.890625 33.015625 
z
" id="DejaVuSans-110"/>
       <path id="DejaVuSans-32"/>
       <path d="M 56.203125 29.59375 
L 56.203125 25.203125 
L 14.890625 25.203125 
Q 15.484375 15.921875 20.484375 11.0625 
Q 25.484375 6.203125 34.421875 6.203125 
Q 39.59375 6.203125 44.453125 7.46875 
Q 49.3125 8.734375 54.109375 11.28125 
L 54.109375 2.78125 
Q 49.265625 0.734375 44.1875 -0.34375 
Q 39.109375 -1.421875 33.890625 -1.421875 
Q 20.796875 -1.421875 13.15625 6.1875 
Q 5.515625 13.8125 5.515625 26.8125 
Q 5.515625 40.234375 12.765625 48.109375 
Q 20.015625 56 32.328125 56 
Q 43.359375 56 49.78125 48.890625 
Q 56.203125 41.796875 56.203125 29.59375 
z
M 47.21875 32.234375 
Q 47.125 39.59375 43.09375 43.984375 
Q 39.0625 48.390625 32.421875 48.390625 
Q 24.90625 48.390625 20.390625 44.140625 
Q 15.875 39.890625 15.1875 32.171875 
z
" id="DejaVuSans-101"/>
       <path d="M 41.109375 46.296875 
Q 39.59375 47.171875 37.8125 47.578125 
Q 36.03125 48 33.890625 48 
Q 26.265625 48 22.1875 43.046875 
Q 18.109375 38.09375 18.109375 28.8125 
L 18.109375 0 
L 9.078125 0 
L 9.078125 54.6875 
L 18.109375 54.6875 
L 18.109375 46.1875 
Q 20.953125 51.171875 25.484375 53.578125 
Q 30.03125 56 36.53125 56 
Q 37.453125 56 38.578125 55.875 
Q 39.703125 55.765625 41.0625 55.515625 
z
" id="DejaVuSans-114"/>
       <path d="M 45.40625 27.984375 
Q 45.40625 37.75 41.375 43.109375 
Q 37.359375 48.484375 30.078125 48.484375 
Q 22.859375 48.484375 18.828125 43.109375 
Q 14.796875 37.75 14.796875 27.984375 
Q 14.796875 18.265625 18.828125 12.890625 
Q 22.859375 7.515625 30.078125 7.515625 
Q 37.359375 7.515625 41.375 12.890625 
Q 45.40625 18.265625 45.40625 27.984375 
z
M 54.390625 6.78125 
Q 54.390625 -7.171875 48.1875 -13.984375 
Q 42 -20.796875 29.203125 -20.796875 
Q 24.46875 -20.796875 20.265625 -20.09375 
Q 16.0625 -19.390625 12.109375 -17.921875 
L 12.109375 -9.1875 
Q 16.0625 -11.328125 19.921875 -12.34375 
Q 23.78125 -13.375 27.78125 -13.375 
Q 36.625 -13.375 41.015625 -8.765625 
Q 45.40625 -4.15625 45.40625 5.171875 
L 45.40625 9.625 
Q 42.625 4.78125 38.28125 2.390625 
Q 33.9375 0 27.875 0 
Q 17.828125 0 11.671875 7.65625 
Q 5.515625 15.328125 5.515625 27.984375 
Q 5.515625 40.671875 11.671875 48.328125 
Q 17.828125 56 27.875 56 
Q 33.9375 56 38.28125 53.609375 
Q 42.625 51.21875 45.40625 46.390625 
L 45.40625 54.6875 
L 54.390625 54.6875 
z
" id="DejaVuSans-103"/>
       <path d="M 32.171875 -5.078125 
Q 28.375 -14.84375 24.75 -17.8125 
Q 21.140625 -20.796875 15.09375 -20.796875 
L 7.90625 -20.796875 
L 7.90625 -13.28125 
L 13.1875 -13.28125 
Q 16.890625 -13.28125 18.9375 -11.515625 
Q 21 -9.765625 23.484375 -3.21875 
L 25.09375 0.875 
L 2.984375 54.6875 
L 12.5 54.6875 
L 29.59375 11.921875 
L 46.6875 54.6875 
L 56.203125 54.6875 
z
" id="DejaVuSans-121"/>
       <path d="M 8.59375 75.984375 
L 29.296875 75.984375 
L 29.296875 69 
L 17.578125 69 
L 17.578125 -6.203125 
L 29.296875 -6.203125 
L 29.296875 -13.1875 
L 8.59375 -13.1875 
z
" id="DejaVuSans-91"/>
       <path d="M 28.609375 0 
L 0.78125 72.90625 
L 11.078125 72.90625 
L 34.1875 11.53125 
L 57.328125 72.90625 
L 67.578125 72.90625 
L 39.796875 0 
z
" id="DejaVuSans-86"/>
       <path d="M 30.421875 75.984375 
L 30.421875 -13.1875 
L 9.71875 -13.1875 
L 9.71875 -6.203125 
L 21.390625 -6.203125 
L 21.390625 69 
L 9.71875 69 
L 9.71875 75.984375 
z
" id="DejaVuSans-93"/>
      </defs>
      <use xlink:href="#DejaVuSans-80"/>
      <use x="60.302734" xlink:href="#DejaVuSans-104"/>
      <use x="123.681641" xlink:href="#DejaVuSans-111"/>
      <use x="184.863281" xlink:href="#DejaVuSans-116"/>
      <use x="224.072266" xlink:href="#DejaVuSans-111"/>
      <use x="285.253906" xlink:href="#DejaVuSans-110"/>
      <use x="348.632812" xlink:href="#DejaVuSans-32"/>
      <use x="380.419922" xlink:href="#DejaVuSans-101"/>
      <use x="441.943359" xlink:href="#DejaVuSans-110"/>
      <use x="505.322266" xlink:href="#DejaVuSans-101"/>
      <use x="566.845703" xlink:href="#DejaVuSans-114"/>
      <use x="606.208984" xlink:href="#DejaVuSans-103"/>
      <use x="669.685547" xlink:href="#DejaVuSans-121"/>
      <use x="728.865234" xlink:href="#DejaVuSans-32"/>
      <use x="760.652344" xlink:href="#DejaVuSans-91"/>
      <use x="799.666016" xlink:href="#DejaVuSans-101"/>
      <use x="861.189453" xlink:href="#DejaVuSans-86"/>
      <use x="929.597656" xlink:href="#DejaVuSans-93"/>
     </g>
    </g>
   </g>
   <g id="matplotlib.axis_2">
    <g id="ytick_1">
     <g id="line2d_10">
      <defs>
       <path d="M 0 0 
L -3.5 0 
" id="m13d80e8c02" style="stroke:#000000;stroke-width:0.8;"/>
      </defs>
      <g>
       <use style="stroke:#000000;stroke-width:0.8;" x="90" xlink:href="#m13d80e8c02" y="356.256"/>
      </g>
     </g>
    </g>
    <g id="ytick_2">
     <g id="line2d_11">
      <g>
       <use style="stroke:#000000;stroke-width:0.8;" x="90" xlink:href="#m13d80e8c02" y="334.512"/>
      </g>
     </g>
    </g>
    <g id="ytick_3">
     <g id="line2d_12">
      <g>
       <use style="stroke:#000000;stroke-width:0.8;" x="90" xlink:href="#m13d80e8c02" y="312.768"/>
      </g>
     </g>
    </g>
    <g id="ytick_4">
     <g id="line2d_13">
      <g>
       <use style="stroke:#000000;stroke-width:0.8;" x="90" xlink:href="#m13d80e8c02" y="291.024"/>
      </g>
     </g>
    </g>
    <g id="ytick_5">
     <g id="line2d_14">
      <g>
       <use style="stroke:#000000;stroke-width:0.8;" x="90" xlink:href="#m13d80e8c02" y="269.28"/>
      </g>
     </g>
    </g>
   </g>
   <g id="line2d_15">
    <path clip-path="url(#pb3190460da)" d="M 90 378 
L 90.558 377.887158 
L 91.116 377.395472 
L 91.674 375.126329 
L 92.79 362.167579 
L 93.348 358.012326 
L 93.906 332.769662 
L 94.464 347.92301 
L 95.022 327.198067 
L 95.58 341.822768 
L 96.138 352.429763 
L 96.696 276.718122 
L 97.254 275.316092 
L 97.812 347.024767 
L 98.37 361.731511 
L 98.928 354.430359 
L 99.486 356.611454 
L 100.044 352.378126 
L 100.602 298.169767 
L 101.16 354.909202 
L 101.718 366.920197 
L 102.276 368.882626 
L 102.834 355.678057 
L 103.392 356.162183 
L 103.95 358.969289 
L 104.508 371.146929 
L 105.066 374.807589 
L 105.624 375.747396 
L 106.182 375.848967 
L 106.74 373.749912 
L 107.298 375.542261 
L 107.856 374.058356 
L 108.414 375.668778 
L 108.972 376.109612 
L 109.53 375.991585 
L 110.088 374.722241 
L 110.646 376.730965 
L 111.204 377.21815 
L 112.32 377.373081 
L 112.878 377.180076 
L 113.436 376.233568 
L 113.994 376.959965 
L 114.552 377.47102 
L 115.668 377.629317 
L 119.574 377.741768 
L 124.038 377.714112 
L 125.712 377.530008 
L 126.27 377.306683 
L 126.828 376.58881 
L 127.386 371.934389 
L 127.944 373.11643 
L 128.502 375.374754 
L 129.06 369.442897 
L 129.618 372.371214 
L 130.176 376.072758 
L 130.734 376.321918 
L 131.292 374.956232 
L 131.85 371.727289 
L 132.966 358.875629 
L 133.524 355.502105 
L 134.082 364.208801 
L 134.64 367.515484 
L 135.198 375.233543 
L 135.756 376.648156 
L 136.314 377.150932 
L 137.43 377.535862 
L 139.104 377.731181 
L 143.01 377.863075 
L 155.286 377.942266 
L 212.76 377.980871 
L 231.732 377.888267 
L 233.406 377.692106 
L 233.964 377.368884 
L 234.522 375.55314 
L 235.08 373.042468 
L 235.638 375.937821 
L 236.196 377.095601 
L 236.754 376.708865 
L 237.312 373.81239 
L 237.87 375.910031 
L 238.428 376.713747 
L 238.986 375.878037 
L 239.544 370.512314 
L 240.102 357.963161 
L 240.66 369.104951 
L 241.218 370.85078 
L 241.776 376.216636 
L 242.334 377.166326 
L 242.892 377.466569 
L 243.45 377.454135 
L 244.008 377.708716 
L 245.682 377.858447 
L 248.472 377.879128 
L 249.588 377.739971 
L 250.146 377.168053 
L 250.704 375.83295 
L 251.262 377.262571 
L 251.82 377.759635 
L 252.936 377.898258 
L 257.4 377.928729 
L 264.096 377.791654 
L 266.328 377.538358 
L 267.444 377.16166 
L 268.002 376.755894 
L 268.56 375.93133 
L 269.118 373.753272 
L 269.676 363.778766 
L 270.234 338.004954 
L 270.792 336.334576 
L 271.35 353.373481 
L 271.908 342.954066 
L 272.466 370.817073 
L 273.024 375.114229 
L 273.582 376.402448 
L 274.14 376.969774 
L 275.256 377.457663 
L 276.93 377.720696 
L 280.278 377.880725 
L 288.648 377.961175 
L 329.94 377.992611 
L 467.208 377.918503 
L 467.766 377.765575 
L 468.324 377.289383 
L 469.44 377.57419 
L 469.998 376.346743 
L 470.556 376.596835 
L 471.114 377.700461 
L 471.672 377.878021 
L 473.346 377.968601 
L 503.478 377.998166 
L 647.442 377.999185 
L 647.442 377.999185 
" style="fill:none;stroke:#0000ff;stroke-linecap:square;stroke-width:2;"/>
   </g>
   <g id="patch_3">
    <path d="M 90 378 
L 90 269.28 
" style="fill:none;stroke:#000000;stroke-linecap:square;stroke-linejoin:miter;stroke-width:0.8;"/>
   </g>
   <g id="patch_4">
    <path d="M 648 378 
L 648 269.28 
" style="fill:none;stroke:#000000;stroke-linecap:square;stroke-linejoin:miter;stroke-width:0.8;"/>
   </g>
   <g id="patch_5">
    <path d="M 90 378 
L 648 378 
" style="fill:none;stroke:#000000;stroke-linecap:square;stroke-linejoin:miter;stroke-width:0.8;"/>
   </g>
   <g id="patch_6">
    <path d="M 90 269.28 
L 648 269.28 
" style="fill:none;stroke:#000000;stroke-linecap:square;stroke-linejoin:miter;stroke-width:0.8;"/>
   </g>
   <g id="legend_1">
    <g id="patch_7">
     <path d="M 567.190625 291.958125 
L 641 291.958125 
Q 643 291.958125 643 289.958125 
L 643 276.28 
Q 643 274.28 641 274.28 
L 567.190625 274.28 
Q 565.190625 274.28 565.190625 276.28 
L 565.190625 289.958125 
Q 565.190625 291.958125 567.190625 291.958125 
z
" style="fill:#ffffff;opacity:0.8;stroke:#cccccc;stroke-linejoin:miter;"/>
    </g>
    <g id="line2d_16">
     <path d="M 569.190625 282.378437 
L 589.190625 282.378437 
" style="fill:none;stroke:#0000ff;stroke-linecap:square;stroke-width:2;"/>
    </g>
    <g id="line2d_17"/>
    <g id="text_11">
     <!-- CPP-DFT -->
     <g transform="translate(597.190625 285.878437)scale(0.1 -0.1)">
      <defs>
       <path d="M 64.40625 67.28125 
L 64.40625 56.890625 
Q 59.421875 61.53125 53.78125 63.8125 
Q 48.140625 66.109375 41.796875 66.109375 
Q 29.296875 66.109375 22.65625 58.46875 
Q 16.015625 50.828125 16.015625 36.375 
Q 16.015625 21.96875 22.65625 14.328125 
Q 29.296875 6.6875 41.796875 6.6875 
Q 48.140625 6.6875 53.78125 8.984375 
Q 59.421875 11.28125 64.40625 15.921875 
L 64.40625 5.609375 
Q 59.234375 2.09375 53.4375 0.328125 
Q 47.65625 -1.421875 41.21875 -1.421875 
Q 24.65625 -1.421875 15.125 8.703125 
Q 5.609375 18.84375 5.609375 36.375 
Q 5.609375 53.953125 15.125 64.078125 
Q 24.65625 74.21875 41.21875 74.21875 
Q 47.75 74.21875 53.53125 72.484375 
Q 59.328125 70.75 64.40625 67.28125 
z
" id="DejaVuSans-67"/>
       <path d="M 4.890625 31.390625 
L 31.203125 31.390625 
L 31.203125 23.390625 
L 4.890625 23.390625 
z
" id="DejaVuSans-45"/>
       <path d="M 19.671875 64.796875 
L 19.671875 8.109375 
L 31.59375 8.109375 
Q 46.6875 8.109375 53.6875 14.9375 
Q 60.6875 21.78125 60.6875 36.53125 
Q 60.6875 51.171875 53.6875 57.984375 
Q 46.6875 64.796875 31.59375 64.796875 
z
M 9.8125 72.90625 
L 30.078125 72.90625 
Q 51.265625 72.90625 61.171875 64.09375 
Q 71.09375 55.28125 71.09375 36.53125 
Q 71.09375 17.671875 61.125 8.828125 
Q 51.171875 0 30.078125 0 
L 9.8125 0 
z
" id="DejaVuSans-68"/>
       <path d="M 9.8125 72.90625 
L 51.703125 72.90625 
L 51.703125 64.59375 
L 19.671875 64.59375 
L 19.671875 43.109375 
L 48.578125 43.109375 
L 48.578125 34.8125 
L 19.671875 34.8125 
L 19.671875 0 
L 9.8125 0 
z
" id="DejaVuSans-70"/>
       <path d="M -0.296875 72.90625 
L 61.375 72.90625 
L 61.375 64.59375 
L 35.5 64.59375 
L 35.5 0 
L 25.59375 0 
L 25.59375 64.59375 
L -0.296875 64.59375 
z
" id="DejaVuSans-84"/>
      </defs>
      <use xlink:href="#DejaVuSans-67"/>
      <use x="69.824219" xlink:href="#DejaVuSans-80"/>
      <use x="130.126953" xlink:href="#DejaVuSans-80"/>
      <use x="188.179688" xlink:href="#DejaVuSans-45"/>
      <use x="224.263672" xlink:href="#DejaVuSans-68"/>
      <use x="301.265625" xlink:href="#DejaVuSans-70"/>
      <use x="357.035156" xlink:href="#DejaVuSans-84"/>
     </g>
    </g>
   </g>
  </g>
  <g id="axes_2">
   <g id="patch_8">
    <path d="M 90 269.28 
L 648 269.28 
L 648 160.56 
L 90 160.56 
z
" style="fill:#ffffff;"/>
   </g>
   <g id="patch_9">
    <path clip-path="url(#p1cdbef8e6d)" d="M 91.054809 269.28 
L 93.844809 269.28 
L 93.844809 265.470152 
L 91.054809 265.470152 
z
" style="fill:#0000ff;"/>
   </g>
   <g id="patch_10">
    <path clip-path="url(#p1cdbef8e6d)" d="M 91.588322 269.28 
L 94.378322 269.28 
L 94.378322 269.28 
L 91.588322 269.28 
z
" style="fill:#0000ff;"/>
   </g>
   <g id="patch_11">
    <path clip-path="url(#p1cdbef8e6d)" d="M 91.685799 269.28 
L 94.475799 269.28 
L 94.475799 253.305429 
L 91.685799 253.305429 
z
" style="fill:#0000ff;"/>
   </g>
   <g id="patch_12">
    <path clip-path="url(#p1cdbef8e6d)" d="M 92.231027 269.28 
L 95.021027 269.28 
L 95.021027 256.778306 
L 92.231027 256.778306 
z
" style="fill:#0000ff;"/>
   </g>
   <g id="patch_13">
    <path clip-path="url(#p1cdbef8e6d)" d="M 92.682383 269.28 
L 95.472383 269.28 
L 95.472383 226.409781 
L 92.682383 226.409781 
z
" style="fill:#0000ff;"/>
   </g>
   <g id="patch_14">
    <path clip-path="url(#p1cdbef8e6d)" d="M 93.579718 269.28 
L 96.369718 269.28 
L 96.369718 250.213643 
L 93.579718 250.213643 
z
" style="fill:#0000ff;"/>
   </g>
   <g id="patch_15">
    <path clip-path="url(#p1cdbef8e6d)" d="M 93.686494 269.28 
L 96.476494 269.28 
L 96.476494 269.28 
L 93.686494 269.28 
z
" style="fill:#0000ff;"/>
   </g>
   <g id="patch_16">
    <path clip-path="url(#p1cdbef8e6d)" d="M 94.166506 269.28 
L 96.956506 269.28 
L 96.956506 242.450119 
L 94.166506 242.450119 
z
" style="fill:#0000ff;"/>
   </g>
   <g id="patch_17">
    <path clip-path="url(#p1cdbef8e6d)" d="M 94.48677 269.28 
L 97.27677 269.28 
L 97.27677 235.338648 
L 94.48677 235.338648 
z
" style="fill:#0000ff;"/>
   </g>
   <g id="patch_18">
    <path clip-path="url(#p1cdbef8e6d)" d="M 94.706263 269.28 
L 97.496263 269.28 
L 97.496263 267.79973 
L 94.706263 267.79973 
z
" style="fill:#0000ff;"/>
   </g>
   <g id="patch_19">
    <path clip-path="url(#p1cdbef8e6d)" d="M 95.720392 269.28 
L 98.510392 269.28 
L 98.510392 193.813092 
L 95.720392 193.813092 
z
" style="fill:#0000ff;"/>
   </g>
   <g id="patch_20">
    <path clip-path="url(#p1cdbef8e6d)" d="M 96.025056 269.28 
L 98.815056 269.28 
L 98.815056 173.272181 
L 96.025056 173.272181 
z
" style="fill:#0000ff;"/>
   </g>
   <g id="patch_21">
    <path clip-path="url(#p1cdbef8e6d)" d="M 96.414938 269.28 
L 99.204938 269.28 
L 99.204938 269.219424 
L 96.414938 269.219424 
z
" style="fill:#0000ff;"/>
   </g>
   <g id="patch_22">
    <path clip-path="url(#p1cdbef8e6d)" d="M 96.552243 269.28 
L 99.342243 269.28 
L 99.342243 260.427356 
L 96.552243 260.427356 
z
" style="fill:#0000ff;"/>
   </g>
   <g id="patch_23">
    <path clip-path="url(#p1cdbef8e6d)" d="M 96.710968 269.28 
L 99.500968 269.28 
L 99.500968 269.2638 
L 96.710968 269.2638 
z
" style="fill:#0000ff;"/>
   </g>
   <g id="patch_24">
    <path clip-path="url(#p1cdbef8e6d)" d="M 97.417122 269.28 
L 100.207122 269.28 
L 100.207122 269.28 
L 97.417122 269.28 
z
" style="fill:#0000ff;"/>
   </g>
   <g id="patch_25">
    <path clip-path="url(#p1cdbef8e6d)" d="M 97.54649 269.28 
L 100.33649 269.28 
L 100.33649 268.919404 
L 97.54649 268.919404 
z
" style="fill:#0000ff;"/>
   </g>
   <g id="patch_26">
    <path clip-path="url(#p1cdbef8e6d)" d="M 97.91931 269.28 
L 100.70931 269.28 
L 100.70931 260.148427 
L 97.91931 260.148427 
z
" style="fill:#0000ff;"/>
   </g>
   <g id="patch_27">
    <path clip-path="url(#p1cdbef8e6d)" d="M 97.980821 269.28 
L 100.770821 269.28 
L 100.770821 269.28 
L 97.980821 269.28 
z
" style="fill:#0000ff;"/>
   </g>
   <g id="patch_28">
    <path clip-path="url(#p1cdbef8e6d)" d="M 98.184492 269.28 
L 100.974492 269.28 
L 100.974492 268.05395 
L 98.184492 268.05395 
z
" style="fill:#0000ff;"/>
   </g>
   <g id="patch_29">
    <path clip-path="url(#p1cdbef8e6d)" d="M 98.30476 269.28 
L 101.09476 269.28 
L 101.09476 255.047638 
L 98.30476 255.047638 
z
" style="fill:#0000ff;"/>
   </g>
   <g id="patch_30">
    <path clip-path="url(#p1cdbef8e6d)" d="M 98.338767 269.28 
L 101.128767 269.28 
L 101.128767 262.186554 
L 98.338767 262.186554 
z
" style="fill:#0000ff;"/>
   </g>
   <g id="patch_31">
    <path clip-path="url(#p1cdbef8e6d)" d="M 99.603606 269.28 
L 102.393606 269.28 
L 102.393606 196.448118 
L 99.603606 196.448118 
z
" style="fill:#0000ff;"/>
   </g>
   <g id="patch_32">
    <path clip-path="url(#p1cdbef8e6d)" d="M 100.04393 269.28 
L 102.83393 269.28 
L 102.83393 262.837898 
L 100.04393 262.837898 
z
" style="fill:#0000ff;"/>
   </g>
   <g id="patch_33">
    <path clip-path="url(#p1cdbef8e6d)" d="M 100.221961 269.28 
L 103.011961 269.28 
L 103.011961 267.921341 
L 100.221961 267.921341 
z
" style="fill:#0000ff;"/>
   </g>
   <g id="patch_34">
    <path clip-path="url(#p1cdbef8e6d)" d="M 100.40077 269.28 
L 103.19077 269.28 
L 103.19077 263.974477 
L 100.40077 263.974477 
z
" style="fill:#0000ff;"/>
   </g>
   <g id="patch_35">
    <path clip-path="url(#p1cdbef8e6d)" d="M 101.238875 269.28 
L 104.028875 269.28 
L 104.028875 269.220718 
L 101.238875 269.220718 
z
" style="fill:#0000ff;"/>
   </g>
   <g id="patch_36">
    <path clip-path="url(#p1cdbef8e6d)" d="M 101.491584 269.28 
L 104.281584 269.28 
L 104.281584 268.799809 
L 101.491584 268.799809 
z
" style="fill:#0000ff;"/>
   </g>
   <g id="patch_37">
    <path clip-path="url(#p1cdbef8e6d)" d="M 102.812889 269.28 
L 105.602889 269.28 
L 105.602889 256.186911 
L 102.812889 256.186911 
z
" style="fill:#0000ff;"/>
   </g>
   <g id="patch_38">
    <path clip-path="url(#p1cdbef8e6d)" d="M 103.132072 269.28 
L 105.922072 269.28 
L 105.922072 259.312621 
L 103.132072 259.312621 
z
" style="fill:#0000ff;"/>
   </g>
   <g id="patch_39">
    <path clip-path="url(#p1cdbef8e6d)" d="M 104.099746 269.28 
L 106.889746 269.28 
L 106.889746 257.599779 
L 104.099746 257.599779 
z
" style="fill:#0000ff;"/>
   </g>
   <g id="patch_40">
    <path clip-path="url(#p1cdbef8e6d)" d="M 106.767472 269.28 
L 109.557472 269.28 
L 109.557472 266.681852 
L 106.767472 266.681852 
z
" style="fill:#0000ff;"/>
   </g>
   <g id="patch_41">
    <path clip-path="url(#p1cdbef8e6d)" d="M 107.876677 269.28 
L 110.666677 269.28 
L 110.666677 266.750963 
L 107.876677 266.750963 
z
" style="fill:#0000ff;"/>
   </g>
   <g id="patch_42">
    <path clip-path="url(#p1cdbef8e6d)" d="M 108.199897 269.28 
L 110.989897 269.28 
L 110.989897 269.28 
L 108.199897 269.28 
z
" style="fill:#0000ff;"/>
   </g>
   <g id="patch_43">
    <path clip-path="url(#p1cdbef8e6d)" d="M 108.569235 269.28 
L 111.359235 269.28 
L 111.359235 269.21681 
L 108.569235 269.21681 
z
" style="fill:#0000ff;"/>
   </g>
   <g id="patch_44">
    <path clip-path="url(#p1cdbef8e6d)" d="M 108.851433 269.28 
L 111.641433 269.28 
L 111.641433 267.17953 
L 108.851433 267.17953 
z
" style="fill:#0000ff;"/>
   </g>
   <g id="patch_45">
    <path clip-path="url(#p1cdbef8e6d)" d="M 109.425731 269.28 
L 112.215731 269.28 
L 112.215731 268.122093 
L 109.425731 268.122093 
z
" style="fill:#0000ff;"/>
   </g>
   <g id="patch_46">
    <path clip-path="url(#p1cdbef8e6d)" d="M 109.788142 269.28 
L 112.578142 269.28 
L 112.578142 266.552832 
L 109.788142 266.552832 
z
" style="fill:#0000ff;"/>
   </g>
   <g id="patch_47">
    <path clip-path="url(#p1cdbef8e6d)" d="M 114.153755 269.28 
L 116.943755 269.28 
L 116.943755 268.933742 
L 114.153755 268.933742 
z
" style="fill:#0000ff;"/>
   </g>
   <g id="patch_48">
    <path clip-path="url(#p1cdbef8e6d)" d="M 114.497029 269.28 
L 117.287029 269.28 
L 117.287029 268.717056 
L 114.497029 268.717056 
z
" style="fill:#0000ff;"/>
   </g>
   <g id="patch_49">
    <path clip-path="url(#p1cdbef8e6d)" d="M 127.472097 269.28 
L 130.262097 269.28 
L 130.262097 267.982811 
L 127.472097 267.982811 
z
" style="fill:#0000ff;"/>
   </g>
   <g id="patch_50">
    <path clip-path="url(#p1cdbef8e6d)" d="M 127.593499 269.28 
L 130.383499 269.28 
L 130.383499 263.541178 
L 127.593499 263.541178 
z
" style="fill:#0000ff;"/>
   </g>
   <g id="patch_51">
    <path clip-path="url(#p1cdbef8e6d)" d="M 127.816325 269.28 
L 130.606325 269.28 
L 130.606325 269.276553 
L 127.816325 269.276553 
z
" style="fill:#0000ff;"/>
   </g>
   <g id="patch_52">
    <path clip-path="url(#p1cdbef8e6d)" d="M 128.750176 269.28 
L 131.540176 269.28 
L 131.540176 269.28 
L 128.750176 269.28 
z
" style="fill:#0000ff;"/>
   </g>
   <g id="patch_53">
    <path clip-path="url(#p1cdbef8e6d)" d="M 129.170801 269.28 
L 131.960801 269.28 
L 131.960801 269.28 
L 129.170801 269.28 
z
" style="fill:#0000ff;"/>
   </g>
   <g id="patch_54">
    <path clip-path="url(#p1cdbef8e6d)" d="M 129.354717 269.28 
L 132.144717 269.28 
L 132.144717 265.753927 
L 129.354717 265.753927 
z
" style="fill:#0000ff;"/>
   </g>
   <g id="patch_55">
    <path clip-path="url(#p1cdbef8e6d)" d="M 129.414366 269.28 
L 132.204366 269.28 
L 132.204366 262.419612 
L 129.414366 262.419612 
z
" style="fill:#0000ff;"/>
   </g>
   <g id="patch_56">
    <path clip-path="url(#p1cdbef8e6d)" d="M 130.041435 269.28 
L 132.831435 269.28 
L 132.831435 268.987423 
L 130.041435 268.987423 
z
" style="fill:#0000ff;"/>
   </g>
   <g id="patch_57">
    <path clip-path="url(#p1cdbef8e6d)" d="M 132.014772 269.28 
L 134.804772 269.28 
L 134.804772 265.789842 
L 132.014772 265.789842 
z
" style="fill:#0000ff;"/>
   </g>
   <g id="patch_58">
    <path clip-path="url(#p1cdbef8e6d)" d="M 133.49057 269.28 
L 136.28057 269.28 
L 136.28057 246.056731 
L 133.49057 246.056731 
z
" style="fill:#0000ff;"/>
   </g>
   <g id="patch_59">
    <path clip-path="url(#p1cdbef8e6d)" d="M 238.124611 269.28 
L 240.914611 269.28 
L 240.914611 267.313257 
L 238.124611 267.313257 
z
" style="fill:#ff0000;"/>
   </g>
   <g id="patch_60">
    <path clip-path="url(#p1cdbef8e6d)" d="M 238.713869 269.28 
L 241.503869 269.28 
L 241.503869 264.570132 
L 238.713869 264.570132 
z
" style="fill:#ff0000;"/>
   </g>
   <g id="patch_61">
    <path clip-path="url(#p1cdbef8e6d)" d="M 240.833325 269.28 
L 243.623325 269.28 
L 243.623325 266.727039 
L 240.833325 266.727039 
z
" style="fill:#ff0000;"/>
   </g>
   <g id="patch_62">
    <path clip-path="url(#p1cdbef8e6d)" d="M 241.117843 269.28 
L 243.907843 269.28 
L 243.907843 266.662956 
L 241.117843 266.662956 
z
" style="fill:#ff0000;"/>
   </g>
   <g id="patch_63">
    <path clip-path="url(#p1cdbef8e6d)" d="M 243.731526 269.28 
L 246.521526 269.28 
L 246.521526 257.243473 
L 243.731526 257.243473 
z
" style="fill:#ff0000;"/>
   </g>
   <g id="patch_64">
    <path clip-path="url(#p1cdbef8e6d)" d="M 243.891435 269.28 
L 246.681435 269.28 
L 246.681435 259.346505 
L 243.891435 259.346505 
z
" style="fill:#ff0000;"/>
   </g>
   <g id="patch_65">
    <path clip-path="url(#p1cdbef8e6d)" d="M 244.638792 269.28 
L 247.428792 269.28 
L 247.428792 259.261007 
L 244.638792 259.261007 
z
" style="fill:#ff0000;"/>
   </g>
   <g id="patch_66">
    <path clip-path="url(#p1cdbef8e6d)" d="M 247.02415 269.28 
L 249.81415 269.28 
L 249.81415 269.165627 
L 247.02415 269.165627 
z
" style="fill:#ff0000;"/>
   </g>
   <g id="patch_67">
    <path clip-path="url(#p1cdbef8e6d)" d="M 251.095409 269.28 
L 253.885409 269.28 
L 253.885409 269.279891 
L 251.095409 269.279891 
z
" style="fill:#ff0000;"/>
   </g>
   <g id="patch_68">
    <path clip-path="url(#p1cdbef8e6d)" d="M 251.667909 269.28 
L 254.457909 269.28 
L 254.457909 269.27993 
L 251.667909 269.27993 
z
" style="fill:#ff0000;"/>
   </g>
   <g id="matplotlib.axis_3">
    <g id="xtick_10">
     <g id="line2d_18">
      <g>
       <use style="stroke:#000000;stroke-width:0.8;" x="90" xlink:href="#mf2522611db" y="269.28"/>
      </g>
     </g>
    </g>
    <g id="xtick_11">
     <g id="line2d_19">
      <g>
       <use style="stroke:#000000;stroke-width:0.8;" x="159.75" xlink:href="#mf2522611db" y="269.28"/>
      </g>
     </g>
    </g>
    <g id="xtick_12">
     <g id="line2d_20">
      <g>
       <use style="stroke:#000000;stroke-width:0.8;" x="229.5" xlink:href="#mf2522611db" y="269.28"/>
      </g>
     </g>
    </g>
    <g id="xtick_13">
     <g id="line2d_21">
      <g>
       <use style="stroke:#000000;stroke-width:0.8;" x="299.25" xlink:href="#mf2522611db" y="269.28"/>
      </g>
     </g>
    </g>
    <g id="xtick_14">
     <g id="line2d_22">
      <g>
       <use style="stroke:#000000;stroke-width:0.8;" x="369" xlink:href="#mf2522611db" y="269.28"/>
      </g>
     </g>
    </g>
    <g id="xtick_15">
     <g id="line2d_23">
      <g>
       <use style="stroke:#000000;stroke-width:0.8;" x="438.75" xlink:href="#mf2522611db" y="269.28"/>
      </g>
     </g>
    </g>
    <g id="xtick_16">
     <g id="line2d_24">
      <g>
       <use style="stroke:#000000;stroke-width:0.8;" x="508.5" xlink:href="#mf2522611db" y="269.28"/>
      </g>
     </g>
    </g>
    <g id="xtick_17">
     <g id="line2d_25">
      <g>
       <use style="stroke:#000000;stroke-width:0.8;" x="578.25" xlink:href="#mf2522611db" y="269.28"/>
      </g>
     </g>
    </g>
    <g id="xtick_18">
     <g id="line2d_26">
      <g>
       <use style="stroke:#000000;stroke-width:0.8;" x="648" xlink:href="#mf2522611db" y="269.28"/>
      </g>
     </g>
    </g>
   </g>
   <g id="matplotlib.axis_4">
    <g id="ytick_6">
     <g id="line2d_27">
      <g>
       <use style="stroke:#000000;stroke-width:0.8;" x="90" xlink:href="#m13d80e8c02" y="247.536"/>
      </g>
     </g>
    </g>
    <g id="ytick_7">
     <g id="line2d_28">
      <g>
       <use style="stroke:#000000;stroke-width:0.8;" x="90" xlink:href="#m13d80e8c02" y="225.792"/>
      </g>
     </g>
    </g>
    <g id="ytick_8">
     <g id="line2d_29">
      <g>
       <use style="stroke:#000000;stroke-width:0.8;" x="90" xlink:href="#m13d80e8c02" y="204.048"/>
      </g>
     </g>
    </g>
    <g id="ytick_9">
     <g id="line2d_30">
      <g>
       <use style="stroke:#000000;stroke-width:0.8;" x="90" xlink:href="#m13d80e8c02" y="182.304"/>
      </g>
     </g>
    </g>
    <g id="ytick_10">
     <g id="line2d_31">
      <g>
       <use style="stroke:#000000;stroke-width:0.8;" x="90" xlink:href="#m13d80e8c02" y="160.56"/>
      </g>
     </g>
    </g>
   </g>
   <g id="patch_69">
    <path d="M 90 269.28 
L 90 160.56 
" style="fill:none;stroke:#000000;stroke-linecap:square;stroke-linejoin:miter;stroke-width:0.8;"/>
   </g>
   <g id="patch_70">
    <path d="M 648 269.28 
L 648 160.56 
" style="fill:none;stroke:#000000;stroke-linecap:square;stroke-linejoin:miter;stroke-width:0.8;"/>
   </g>
   <g id="patch_71">
    <path d="M 90 269.28 
L 648 269.28 
" style="fill:none;stroke:#000000;stroke-linecap:square;stroke-linejoin:miter;stroke-width:0.8;"/>
   </g>
   <g id="patch_72">
    <path d="M 90 160.56 
L 648 160.56 
" style="fill:none;stroke:#000000;stroke-linecap:square;stroke-linejoin:miter;stroke-width:0.8;"/>
   </g>
   <g id="legend_2">
    <g id="patch_73">
     <path d="M 490.460938 197.91625 
L 641 197.91625 
Q 643 197.91625 643 195.91625 
L 643 167.56 
Q 643 165.56 641 165.56 
L 490.460938 165.56 
Q 488.460938 165.56 488.460938 167.56 
L 488.460938 195.91625 
Q 488.460938 197.91625 490.460938 197.91625 
z
" style="fill:#ffffff;opacity:0.8;stroke:#cccccc;stroke-linejoin:miter;"/>
    </g>
    <g id="patch_74">
     <path d="M 492.460938 177.158437 
L 512.460938 177.158437 
L 512.460938 170.158437 
L 492.460938 170.158437 
z
" style="fill:#0000ff;"/>
    </g>
    <g id="text_12">
     <!-- ADC(2)         [50 states] -->
     <g transform="translate(520.460938 177.158437)scale(0.1 -0.1)">
      <defs>
       <path d="M 34.1875 63.1875 
L 20.796875 26.90625 
L 47.609375 26.90625 
z
M 28.609375 72.90625 
L 39.796875 72.90625 
L 67.578125 0 
L 57.328125 0 
L 50.6875 18.703125 
L 17.828125 18.703125 
L 11.1875 0 
L 0.78125 0 
z
" id="DejaVuSans-65"/>
       <path d="M 31 75.875 
Q 24.46875 64.65625 21.28125 53.65625 
Q 18.109375 42.671875 18.109375 31.390625 
Q 18.109375 20.125 21.3125 9.0625 
Q 24.515625 -2 31 -13.1875 
L 23.1875 -13.1875 
Q 15.875 -1.703125 12.234375 9.375 
Q 8.59375 20.453125 8.59375 31.390625 
Q 8.59375 42.28125 12.203125 53.3125 
Q 15.828125 64.359375 23.1875 75.875 
z
" id="DejaVuSans-40"/>
       <path d="M 8.015625 75.875 
L 15.828125 75.875 
Q 23.140625 64.359375 26.78125 53.3125 
Q 30.421875 42.28125 30.421875 31.390625 
Q 30.421875 20.453125 26.78125 9.375 
Q 23.140625 -1.703125 15.828125 -13.1875 
L 8.015625 -13.1875 
Q 14.5 -2 17.703125 9.0625 
Q 20.90625 20.125 20.90625 31.390625 
Q 20.90625 42.671875 17.703125 53.65625 
Q 14.5 64.65625 8.015625 75.875 
z
" id="DejaVuSans-41"/>
       <path d="M 44.28125 53.078125 
L 44.28125 44.578125 
Q 40.484375 46.53125 36.375 47.5 
Q 32.28125 48.484375 27.875 48.484375 
Q 21.1875 48.484375 17.84375 46.4375 
Q 14.5 44.390625 14.5 40.28125 
Q 14.5 37.15625 16.890625 35.375 
Q 19.28125 33.59375 26.515625 31.984375 
L 29.59375 31.296875 
Q 39.15625 29.25 43.1875 25.515625 
Q 47.21875 21.78125 47.21875 15.09375 
Q 47.21875 7.46875 41.1875 3.015625 
Q 35.15625 -1.421875 24.609375 -1.421875 
Q 20.21875 -1.421875 15.453125 -0.5625 
Q 10.6875 0.296875 5.421875 2 
L 5.421875 11.28125 
Q 10.40625 8.6875 15.234375 7.390625 
Q 20.0625 6.109375 24.8125 6.109375 
Q 31.15625 6.109375 34.5625 8.28125 
Q 37.984375 10.453125 37.984375 14.40625 
Q 37.984375 18.0625 35.515625 20.015625 
Q 33.0625 21.96875 24.703125 23.78125 
L 21.578125 24.515625 
Q 13.234375 26.265625 9.515625 29.90625 
Q 5.8125 33.546875 5.8125 39.890625 
Q 5.8125 47.609375 11.28125 51.796875 
Q 16.75 56 26.8125 56 
Q 31.78125 56 36.171875 55.265625 
Q 40.578125 54.546875 44.28125 53.078125 
z
" id="DejaVuSans-115"/>
       <path d="M 34.28125 27.484375 
Q 23.390625 27.484375 19.1875 25 
Q 14.984375 22.515625 14.984375 16.5 
Q 14.984375 11.71875 18.140625 8.90625 
Q 21.296875 6.109375 26.703125 6.109375 
Q 34.1875 6.109375 38.703125 11.40625 
Q 43.21875 16.703125 43.21875 25.484375 
L 43.21875 27.484375 
z
M 52.203125 31.203125 
L 52.203125 0 
L 43.21875 0 
L 43.21875 8.296875 
Q 40.140625 3.328125 35.546875 0.953125 
Q 30.953125 -1.421875 24.3125 -1.421875 
Q 15.921875 -1.421875 10.953125 3.296875 
Q 6 8.015625 6 15.921875 
Q 6 25.140625 12.171875 29.828125 
Q 18.359375 34.515625 30.609375 34.515625 
L 43.21875 34.515625 
L 43.21875 35.40625 
Q 43.21875 41.609375 39.140625 45 
Q 35.0625 48.390625 27.6875 48.390625 
Q 23 48.390625 18.546875 47.265625 
Q 14.109375 46.140625 10.015625 43.890625 
L 10.015625 52.203125 
Q 14.9375 54.109375 19.578125 55.046875 
Q 24.21875 56 28.609375 56 
Q 40.484375 56 46.34375 49.84375 
Q 52.203125 43.703125 52.203125 31.203125 
z
" id="DejaVuSans-97"/>
      </defs>
      <use xlink:href="#DejaVuSans-65"/>
      <use x="68.408203" xlink:href="#DejaVuSans-68"/>
      <use x="145.410156" xlink:href="#DejaVuSans-67"/>
      <use x="215.234375" xlink:href="#DejaVuSans-40"/>
      <use x="254.248047" xlink:href="#DejaVuSans-50"/>
      <use x="317.871094" xlink:href="#DejaVuSans-41"/>
      <use x="356.884766" xlink:href="#DejaVuSans-32"/>
      <use x="388.671875" xlink:href="#DejaVuSans-32"/>
      <use x="420.458984" xlink:href="#DejaVuSans-32"/>
      <use x="452.246094" xlink:href="#DejaVuSans-32"/>
      <use x="484.033203" xlink:href="#DejaVuSans-32"/>
      <use x="515.820312" xlink:href="#DejaVuSans-32"/>
      <use x="547.607422" xlink:href="#DejaVuSans-32"/>
      <use x="579.394531" xlink:href="#DejaVuSans-32"/>
      <use x="611.181641" xlink:href="#DejaVuSans-32"/>
      <use x="642.96875" xlink:href="#DejaVuSans-91"/>
      <use x="681.982422" xlink:href="#DejaVuSans-53"/>
      <use x="745.605469" xlink:href="#DejaVuSans-48"/>
      <use x="809.228516" xlink:href="#DejaVuSans-32"/>
      <use x="841.015625" xlink:href="#DejaVuSans-115"/>
      <use x="893.115234" xlink:href="#DejaVuSans-116"/>
      <use x="932.324219" xlink:href="#DejaVuSans-97"/>
      <use x="993.603516" xlink:href="#DejaVuSans-116"/>
      <use x="1032.8125" xlink:href="#DejaVuSans-101"/>
      <use x="1094.335938" xlink:href="#DejaVuSans-115"/>
      <use x="1146.435547" xlink:href="#DejaVuSans-93"/>
     </g>
    </g>
    <g id="patch_75">
     <path d="M 492.460938 191.836562 
L 512.460938 191.836562 
L 512.460938 184.836562 
L 492.460938 184.836562 
z
" style="fill:#ff0000;"/>
    </g>
    <g id="text_13">
     <!-- CVS-ADC(2) [10 states] -->
     <g transform="translate(520.460938 191.836562)scale(0.1 -0.1)">
      <defs>
       <path d="M 53.515625 70.515625 
L 53.515625 60.890625 
Q 47.90625 63.578125 42.921875 64.890625 
Q 37.9375 66.21875 33.296875 66.21875 
Q 25.25 66.21875 20.875 63.09375 
Q 16.5 59.96875 16.5 54.203125 
Q 16.5 49.359375 19.40625 46.890625 
Q 22.3125 44.4375 30.421875 42.921875 
L 36.375 41.703125 
Q 47.40625 39.59375 52.65625 34.296875 
Q 57.90625 29 57.90625 20.125 
Q 57.90625 9.515625 50.796875 4.046875 
Q 43.703125 -1.421875 29.984375 -1.421875 
Q 24.8125 -1.421875 18.96875 -0.25 
Q 13.140625 0.921875 6.890625 3.21875 
L 6.890625 13.375 
Q 12.890625 10.015625 18.65625 8.296875 
Q 24.421875 6.59375 29.984375 6.59375 
Q 38.421875 6.59375 43.015625 9.90625 
Q 47.609375 13.234375 47.609375 19.390625 
Q 47.609375 24.75 44.3125 27.78125 
Q 41.015625 30.8125 33.5 32.328125 
L 27.484375 33.5 
Q 16.453125 35.6875 11.515625 40.375 
Q 6.59375 45.0625 6.59375 53.421875 
Q 6.59375 63.09375 13.40625 68.65625 
Q 20.21875 74.21875 32.171875 74.21875 
Q 37.3125 74.21875 42.625 73.28125 
Q 47.953125 72.359375 53.515625 70.515625 
z
" id="DejaVuSans-83"/>
      </defs>
      <use xlink:href="#DejaVuSans-67"/>
      <use x="69.824219" xlink:href="#DejaVuSans-86"/>
      <use x="138.232422" xlink:href="#DejaVuSans-83"/>
      <use x="201.708984" xlink:href="#DejaVuSans-45"/>
      <use x="235.542969" xlink:href="#DejaVuSans-65"/>
      <use x="303.951172" xlink:href="#DejaVuSans-68"/>
      <use x="380.953125" xlink:href="#DejaVuSans-67"/>
      <use x="450.777344" xlink:href="#DejaVuSans-40"/>
      <use x="489.791016" xlink:href="#DejaVuSans-50"/>
      <use x="553.414062" xlink:href="#DejaVuSans-41"/>
      <use x="592.427734" xlink:href="#DejaVuSans-32"/>
      <use x="624.214844" xlink:href="#DejaVuSans-91"/>
      <use x="663.228516" xlink:href="#DejaVuSans-49"/>
      <use x="726.851562" xlink:href="#DejaVuSans-48"/>
      <use x="790.474609" xlink:href="#DejaVuSans-32"/>
      <use x="822.261719" xlink:href="#DejaVuSans-115"/>
      <use x="874.361328" xlink:href="#DejaVuSans-116"/>
      <use x="913.570312" xlink:href="#DejaVuSans-97"/>
      <use x="974.849609" xlink:href="#DejaVuSans-116"/>
      <use x="1014.058594" xlink:href="#DejaVuSans-101"/>
      <use x="1075.582031" xlink:href="#DejaVuSans-115"/>
      <use x="1127.681641" xlink:href="#DejaVuSans-93"/>
     </g>
    </g>
   </g>
  </g>
  <g id="axes_3">
   <g id="patch_76">
    <path d="M 90 160.56 
L 648 160.56 
L 648 51.84 
L 90 51.84 
z
" style="fill:#ffffff;"/>
   </g>
   <g id="patch_77">
    <path clip-path="url(#p91b8213cb2)" d="M 91.054809 160.56 
L 93.844809 160.56 
L 93.844809 156.750152 
L 91.054809 156.750152 
z
" style="fill:#0000ff;"/>
   </g>
   <g id="patch_78">
    <path clip-path="url(#p91b8213cb2)" d="M 91.588322 160.56 
L 94.378322 160.56 
L 94.378322 160.56 
L 91.588322 160.56 
z
" style="fill:#0000ff;"/>
   </g>
   <g id="patch_79">
    <path clip-path="url(#p91b8213cb2)" d="M 91.685799 160.56 
L 94.475799 160.56 
L 94.475799 144.585429 
L 91.685799 144.585429 
z
" style="fill:#0000ff;"/>
   </g>
   <g id="patch_80">
    <path clip-path="url(#p91b8213cb2)" d="M 92.231027 160.56 
L 95.021027 160.56 
L 95.021027 148.058306 
L 92.231027 148.058306 
z
" style="fill:#0000ff;"/>
   </g>
   <g id="patch_81">
    <path clip-path="url(#p91b8213cb2)" d="M 92.682383 160.56 
L 95.472383 160.56 
L 95.472383 117.689781 
L 92.682383 117.689781 
z
" style="fill:#0000ff;"/>
   </g>
   <g id="patch_82">
    <path clip-path="url(#p91b8213cb2)" d="M 93.579718 160.56 
L 96.369718 160.56 
L 96.369718 141.493643 
L 93.579718 141.493643 
z
" style="fill:#0000ff;"/>
   </g>
   <g id="patch_83">
    <path clip-path="url(#p91b8213cb2)" d="M 93.686494 160.56 
L 96.476494 160.56 
L 96.476494 160.56 
L 93.686494 160.56 
z
" style="fill:#0000ff;"/>
   </g>
   <g id="patch_84">
    <path clip-path="url(#p91b8213cb2)" d="M 94.166506 160.56 
L 96.956506 160.56 
L 96.956506 133.730119 
L 94.166506 133.730119 
z
" style="fill:#0000ff;"/>
   </g>
   <g id="patch_85">
    <path clip-path="url(#p91b8213cb2)" d="M 94.48677 160.56 
L 97.27677 160.56 
L 97.27677 126.618648 
L 94.48677 126.618648 
z
" style="fill:#0000ff;"/>
   </g>
   <g id="patch_86">
    <path clip-path="url(#p91b8213cb2)" d="M 94.706263 160.56 
L 97.496263 160.56 
L 97.496263 159.07973 
L 94.706263 159.07973 
z
" style="fill:#0000ff;"/>
   </g>
   <g id="patch_87">
    <path clip-path="url(#p91b8213cb2)" d="M 95.720392 160.56 
L 98.510392 160.56 
L 98.510392 85.093092 
L 95.720392 85.093092 
z
" style="fill:#0000ff;"/>
   </g>
   <g id="patch_88">
    <path clip-path="url(#p91b8213cb2)" d="M 96.025056 160.56 
L 98.815056 160.56 
L 98.815056 64.552181 
L 96.025056 64.552181 
z
" style="fill:#0000ff;"/>
   </g>
   <g id="patch_89">
    <path clip-path="url(#p91b8213cb2)" d="M 96.414938 160.56 
L 99.204938 160.56 
L 99.204938 160.499424 
L 96.414938 160.499424 
z
" style="fill:#0000ff;"/>
   </g>
   <g id="patch_90">
    <path clip-path="url(#p91b8213cb2)" d="M 96.552243 160.56 
L 99.342243 160.56 
L 99.342243 151.707356 
L 96.552243 151.707356 
z
" style="fill:#0000ff;"/>
   </g>
   <g id="patch_91">
    <path clip-path="url(#p91b8213cb2)" d="M 96.710968 160.56 
L 99.500968 160.56 
L 99.500968 160.5438 
L 96.710968 160.5438 
z
" style="fill:#0000ff;"/>
   </g>
   <g id="patch_92">
    <path clip-path="url(#p91b8213cb2)" d="M 97.417122 160.56 
L 100.207122 160.56 
L 100.207122 160.56 
L 97.417122 160.56 
z
" style="fill:#0000ff;"/>
   </g>
   <g id="patch_93">
    <path clip-path="url(#p91b8213cb2)" d="M 97.54649 160.56 
L 100.33649 160.56 
L 100.33649 160.199404 
L 97.54649 160.199404 
z
" style="fill:#0000ff;"/>
   </g>
   <g id="patch_94">
    <path clip-path="url(#p91b8213cb2)" d="M 97.91931 160.56 
L 100.70931 160.56 
L 100.70931 151.428427 
L 97.91931 151.428427 
z
" style="fill:#0000ff;"/>
   </g>
   <g id="patch_95">
    <path clip-path="url(#p91b8213cb2)" d="M 97.980821 160.56 
L 100.770821 160.56 
L 100.770821 160.56 
L 97.980821 160.56 
z
" style="fill:#0000ff;"/>
   </g>
   <g id="patch_96">
    <path clip-path="url(#p91b8213cb2)" d="M 98.184492 160.56 
L 100.974492 160.56 
L 100.974492 159.33395 
L 98.184492 159.33395 
z
" style="fill:#0000ff;"/>
   </g>
   <g id="patch_97">
    <path clip-path="url(#p91b8213cb2)" d="M 98.30476 160.56 
L 101.09476 160.56 
L 101.09476 146.327638 
L 98.30476 146.327638 
z
" style="fill:#0000ff;"/>
   </g>
   <g id="patch_98">
    <path clip-path="url(#p91b8213cb2)" d="M 98.338767 160.56 
L 101.128767 160.56 
L 101.128767 153.466554 
L 98.338767 153.466554 
z
" style="fill:#0000ff;"/>
   </g>
   <g id="patch_99">
    <path clip-path="url(#p91b8213cb2)" d="M 99.603606 160.56 
L 102.393606 160.56 
L 102.393606 87.728118 
L 99.603606 87.728118 
z
" style="fill:#0000ff;"/>
   </g>
   <g id="patch_100">
    <path clip-path="url(#p91b8213cb2)" d="M 100.04393 160.56 
L 102.83393 160.56 
L 102.83393 154.117898 
L 100.04393 154.117898 
z
" style="fill:#0000ff;"/>
   </g>
   <g id="patch_101">
    <path clip-path="url(#p91b8213cb2)" d="M 100.221961 160.56 
L 103.011961 160.56 
L 103.011961 159.201341 
L 100.221961 159.201341 
z
" style="fill:#0000ff;"/>
   </g>
   <g id="patch_102">
    <path clip-path="url(#p91b8213cb2)" d="M 100.40077 160.56 
L 103.19077 160.56 
L 103.19077 155.254477 
L 100.40077 155.254477 
z
" style="fill:#0000ff;"/>
   </g>
   <g id="patch_103">
    <path clip-path="url(#p91b8213cb2)" d="M 101.238875 160.56 
L 104.028875 160.56 
L 104.028875 160.500718 
L 101.238875 160.500718 
z
" style="fill:#0000ff;"/>
   </g>
   <g id="patch_104">
    <path clip-path="url(#p91b8213cb2)" d="M 101.491584 160.56 
L 104.281584 160.56 
L 104.281584 160.079809 
L 101.491584 160.079809 
z
" style="fill:#0000ff;"/>
   </g>
   <g id="patch_105">
    <path clip-path="url(#p91b8213cb2)" d="M 102.812889 160.56 
L 105.602889 160.56 
L 105.602889 147.466911 
L 102.812889 147.466911 
z
" style="fill:#0000ff;"/>
   </g>
   <g id="patch_106">
    <path clip-path="url(#p91b8213cb2)" d="M 103.132072 160.56 
L 105.922072 160.56 
L 105.922072 150.592621 
L 103.132072 150.592621 
z
" style="fill:#0000ff;"/>
   </g>
   <g id="patch_107">
    <path clip-path="url(#p91b8213cb2)" d="M 104.099746 160.56 
L 106.889746 160.56 
L 106.889746 148.879779 
L 104.099746 148.879779 
z
" style="fill:#0000ff;"/>
   </g>
   <g id="patch_108">
    <path clip-path="url(#p91b8213cb2)" d="M 106.767472 160.56 
L 109.557472 160.56 
L 109.557472 157.961852 
L 106.767472 157.961852 
z
" style="fill:#0000ff;"/>
   </g>
   <g id="patch_109">
    <path clip-path="url(#p91b8213cb2)" d="M 107.876677 160.56 
L 110.666677 160.56 
L 110.666677 158.030963 
L 107.876677 158.030963 
z
" style="fill:#0000ff;"/>
   </g>
   <g id="patch_110">
    <path clip-path="url(#p91b8213cb2)" d="M 108.199897 160.56 
L 110.989897 160.56 
L 110.989897 160.56 
L 108.199897 160.56 
z
" style="fill:#0000ff;"/>
   </g>
   <g id="patch_111">
    <path clip-path="url(#p91b8213cb2)" d="M 108.569235 160.56 
L 111.359235 160.56 
L 111.359235 160.49681 
L 108.569235 160.49681 
z
" style="fill:#0000ff;"/>
   </g>
   <g id="patch_112">
    <path clip-path="url(#p91b8213cb2)" d="M 108.851433 160.56 
L 111.641433 160.56 
L 111.641433 158.45953 
L 108.851433 158.45953 
z
" style="fill:#0000ff;"/>
   </g>
   <g id="patch_113">
    <path clip-path="url(#p91b8213cb2)" d="M 109.425731 160.56 
L 112.215731 160.56 
L 112.215731 159.402093 
L 109.425731 159.402093 
z
" style="fill:#0000ff;"/>
   </g>
   <g id="patch_114">
    <path clip-path="url(#p91b8213cb2)" d="M 109.788142 160.56 
L 112.578142 160.56 
L 112.578142 157.832832 
L 109.788142 157.832832 
z
" style="fill:#0000ff;"/>
   </g>
   <g id="patch_115">
    <path clip-path="url(#p91b8213cb2)" d="M 114.153755 160.56 
L 116.943755 160.56 
L 116.943755 160.213742 
L 114.153755 160.213742 
z
" style="fill:#0000ff;"/>
   </g>
   <g id="patch_116">
    <path clip-path="url(#p91b8213cb2)" d="M 114.497029 160.56 
L 117.287029 160.56 
L 117.287029 159.997056 
L 114.497029 159.997056 
z
" style="fill:#0000ff;"/>
   </g>
   <g id="patch_117">
    <path clip-path="url(#p91b8213cb2)" d="M 127.472097 160.56 
L 130.262097 160.56 
L 130.262097 159.262811 
L 127.472097 159.262811 
z
" style="fill:#0000ff;"/>
   </g>
   <g id="patch_118">
    <path clip-path="url(#p91b8213cb2)" d="M 127.593499 160.56 
L 130.383499 160.56 
L 130.383499 154.821178 
L 127.593499 154.821178 
z
" style="fill:#0000ff;"/>
   </g>
   <g id="patch_119">
    <path clip-path="url(#p91b8213cb2)" d="M 127.816325 160.56 
L 130.606325 160.56 
L 130.606325 160.556553 
L 127.816325 160.556553 
z
" style="fill:#0000ff;"/>
   </g>
   <g id="patch_120">
    <path clip-path="url(#p91b8213cb2)" d="M 128.750176 160.56 
L 131.540176 160.56 
L 131.540176 160.56 
L 128.750176 160.56 
z
" style="fill:#0000ff;"/>
   </g>
   <g id="patch_121">
    <path clip-path="url(#p91b8213cb2)" d="M 129.170801 160.56 
L 131.960801 160.56 
L 131.960801 160.56 
L 129.170801 160.56 
z
" style="fill:#0000ff;"/>
   </g>
   <g id="patch_122">
    <path clip-path="url(#p91b8213cb2)" d="M 129.354717 160.56 
L 132.144717 160.56 
L 132.144717 157.033927 
L 129.354717 157.033927 
z
" style="fill:#0000ff;"/>
   </g>
   <g id="patch_123">
    <path clip-path="url(#p91b8213cb2)" d="M 129.414366 160.56 
L 132.204366 160.56 
L 132.204366 153.699612 
L 129.414366 153.699612 
z
" style="fill:#0000ff;"/>
   </g>
   <g id="patch_124">
    <path clip-path="url(#p91b8213cb2)" d="M 130.041435 160.56 
L 132.831435 160.56 
L 132.831435 160.267423 
L 130.041435 160.267423 
z
" style="fill:#0000ff;"/>
   </g>
   <g id="patch_125">
    <path clip-path="url(#p91b8213cb2)" d="M 132.014772 160.56 
L 134.804772 160.56 
L 134.804772 157.069842 
L 132.014772 157.069842 
z
" style="fill:#0000ff;"/>
   </g>
   <g id="patch_126">
    <path clip-path="url(#p91b8213cb2)" d="M 133.49057 160.56 
L 136.28057 160.56 
L 136.28057 137.336731 
L 133.49057 137.336731 
z
" style="fill:#0000ff;"/>
   </g>
   <g id="patch_127">
    <path clip-path="url(#p91b8213cb2)" d="M 134.446716 160.56 
L 137.236716 160.56 
L 137.236716 143.666061 
L 134.446716 143.666061 
z
" style="fill:#0000ff;"/>
   </g>
   <g id="patch_128">
    <path clip-path="url(#p91b8213cb2)" d="M 135.292514 160.56 
L 138.082514 160.56 
L 138.082514 145.270017 
L 135.292514 145.270017 
z
" style="fill:#0000ff;"/>
   </g>
   <g id="patch_129">
    <path clip-path="url(#p91b8213cb2)" d="M 242.20866 160.56 
L 244.99866 160.56 
L 244.99866 154.497593 
L 242.20866 154.497593 
z
" style="fill:#0000ff;"/>
   </g>
   <g id="patch_130">
    <path clip-path="url(#p91b8213cb2)" d="M 242.35405 160.56 
L 245.14405 160.56 
L 245.14405 148.285245 
L 242.35405 148.285245 
z
" style="fill:#0000ff;"/>
   </g>
   <g id="patch_131">
    <path clip-path="url(#p91b8213cb2)" d="M 245.498305 160.56 
L 248.288305 160.56 
L 248.288305 155.49926 
L 245.498305 155.49926 
z
" style="fill:#0000ff;"/>
   </g>
   <g id="patch_132">
    <path clip-path="url(#p91b8213cb2)" d="M 245.506378 160.56 
L 248.296378 160.56 
L 248.296378 159.529186 
L 245.506378 159.529186 
z
" style="fill:#0000ff;"/>
   </g>
   <g id="patch_133">
    <path clip-path="url(#p91b8213cb2)" d="M 246.328436 160.56 
L 249.118436 160.56 
L 249.118436 146.253767 
L 246.328436 146.253767 
z
" style="fill:#0000ff;"/>
   </g>
   <g id="patch_134">
    <path clip-path="url(#p91b8213cb2)" d="M 247.116498 160.56 
L 249.906498 160.56 
L 249.906498 154.538895 
L 247.116498 154.538895 
z
" style="fill:#0000ff;"/>
   </g>
   <g id="patch_135">
    <path clip-path="url(#p91b8213cb2)" d="M 248.270336 160.56 
L 251.060336 160.56 
L 251.060336 153.427417 
L 248.270336 153.427417 
z
" style="fill:#0000ff;"/>
   </g>
   <g id="patch_136">
    <path clip-path="url(#p91b8213cb2)" d="M 250.253358 160.56 
L 253.043358 160.56 
L 253.043358 160.324369 
L 250.253358 160.324369 
z
" style="fill:#0000ff;"/>
   </g>
   <g id="patch_137">
    <path clip-path="url(#p91b8213cb2)" d="M 259.510933 160.56 
L 262.300933 160.56 
L 262.300933 158.877775 
L 259.510933 158.877775 
z
" style="fill:#0000ff;"/>
   </g>
   <g id="patch_138">
    <path clip-path="url(#p91b8213cb2)" d="M 259.872937 160.56 
L 262.662937 160.56 
L 262.662937 158.801584 
L 259.872937 158.801584 
z
" style="fill:#0000ff;"/>
   </g>
   <g id="patch_139">
    <path clip-path="url(#p91b8213cb2)" d="M 274.356831 160.56 
L 277.146831 160.56 
L 277.146831 125.763689 
L 274.356831 125.763689 
z
" style="fill:#0000ff;"/>
   </g>
   <g id="patch_140">
    <path clip-path="url(#p91b8213cb2)" d="M 275.394658 160.56 
L 278.184658 160.56 
L 278.184658 127.577144 
L 275.394658 127.577144 
z
" style="fill:#0000ff;"/>
   </g>
   <g id="patch_141">
    <path clip-path="url(#p91b8213cb2)" d="M 276.378145 160.56 
L 279.168145 160.56 
L 279.168145 128.314434 
L 276.378145 128.314434 
z
" style="fill:#0000ff;"/>
   </g>
   <g id="patch_142">
    <path clip-path="url(#p91b8213cb2)" d="M 475.327876 160.56 
L 478.117876 160.56 
L 478.117876 160.094973 
L 475.327876 160.094973 
z
" style="fill:#0000ff;"/>
   </g>
   <g id="patch_143">
    <path clip-path="url(#p91b8213cb2)" d="M 476.255854 160.56 
L 479.045854 160.56 
L 479.045854 160.211205 
L 476.255854 160.211205 
z
" style="fill:#0000ff;"/>
   </g>
   <g id="patch_144">
    <path clip-path="url(#p91b8213cb2)" d="M 478.09026 160.56 
L 480.88026 160.56 
L 480.88026 158.004354 
L 478.09026 158.004354 
z
" style="fill:#0000ff;"/>
   </g>
   <g id="patch_145">
    <path clip-path="url(#p91b8213cb2)" d="M 482.47436 160.56 
L 485.26436 160.56 
L 485.26436 160.546773 
L 482.47436 160.546773 
z
" style="fill:#0000ff;"/>
   </g>
   <g id="patch_146">
    <path clip-path="url(#p91b8213cb2)" d="M 616.423046 160.56 
L 619.213046 160.56 
L 619.213046 160.559721 
L 616.423046 160.559721 
z
" style="fill:#0000ff;"/>
   </g>
   <g id="patch_147">
    <path clip-path="url(#p91b8213cb2)" d="M 242.205976 160.56 
L 244.995976 160.56 
L 244.995976 154.36372 
L 242.205976 154.36372 
z
" style="fill:#ff0000;"/>
   </g>
   <g id="patch_148">
    <path clip-path="url(#p91b8213cb2)" d="M 242.351366 160.56 
L 245.141366 160.56 
L 245.141366 148.146587 
L 242.351366 148.146587 
z
" style="fill:#ff0000;"/>
   </g>
   <g id="patch_149">
    <path clip-path="url(#p91b8213cb2)" d="M 245.497296 160.56 
L 248.287296 160.56 
L 248.287296 155.439616 
L 245.497296 155.439616 
z
" style="fill:#ff0000;"/>
   </g>
   <g id="patch_150">
    <path clip-path="url(#p91b8213cb2)" d="M 245.506137 160.56 
L 248.296137 160.56 
L 248.296137 159.53201 
L 245.506137 159.53201 
z
" style="fill:#ff0000;"/>
   </g>
   <g id="patch_151">
    <path clip-path="url(#p91b8213cb2)" d="M 246.326129 160.56 
L 249.116129 160.56 
L 249.116129 145.997892 
L 246.326129 145.997892 
z
" style="fill:#ff0000;"/>
   </g>
   <g id="patch_152">
    <path clip-path="url(#p91b8213cb2)" d="M 247.114583 160.56 
L 249.904583 160.56 
L 249.904583 154.46207 
L 247.114583 154.46207 
z
" style="fill:#ff0000;"/>
   </g>
   <g id="patch_153">
    <path clip-path="url(#p91b8213cb2)" d="M 248.268835 160.56 
L 251.058835 160.56 
L 251.058835 153.331237 
L 248.268835 153.331237 
z
" style="fill:#ff0000;"/>
   </g>
   <g id="patch_154">
    <path clip-path="url(#p91b8213cb2)" d="M 250.24879 160.56 
L 253.03879 160.56 
L 253.03879 160.301955 
L 250.24879 160.301955 
z
" style="fill:#ff0000;"/>
   </g>
   <g id="patch_155">
    <path clip-path="url(#p91b8213cb2)" d="M 259.510505 160.56 
L 262.300505 160.56 
L 262.300505 158.868885 
L 259.510505 158.868885 
z
" style="fill:#ff0000;"/>
   </g>
   <g id="patch_156">
    <path clip-path="url(#p91b8213cb2)" d="M 259.87246 160.56 
L 262.66246 160.56 
L 262.66246 158.796523 
L 259.87246 158.796523 
z
" style="fill:#ff0000;"/>
   </g>
   <g id="matplotlib.axis_5">
    <g id="xtick_19">
     <g id="line2d_32">
      <g>
       <use style="stroke:#000000;stroke-width:0.8;" x="90" xlink:href="#mf2522611db" y="160.56"/>
      </g>
     </g>
    </g>
    <g id="xtick_20">
     <g id="line2d_33">
      <g>
       <use style="stroke:#000000;stroke-width:0.8;" x="159.75" xlink:href="#mf2522611db" y="160.56"/>
      </g>
     </g>
    </g>
    <g id="xtick_21">
     <g id="line2d_34">
      <g>
       <use style="stroke:#000000;stroke-width:0.8;" x="229.5" xlink:href="#mf2522611db" y="160.56"/>
      </g>
     </g>
    </g>
    <g id="xtick_22">
     <g id="line2d_35">
      <g>
       <use style="stroke:#000000;stroke-width:0.8;" x="299.25" xlink:href="#mf2522611db" y="160.56"/>
      </g>
     </g>
    </g>
    <g id="xtick_23">
     <g id="line2d_36">
      <g>
       <use style="stroke:#000000;stroke-width:0.8;" x="369" xlink:href="#mf2522611db" y="160.56"/>
      </g>
     </g>
    </g>
    <g id="xtick_24">
     <g id="line2d_37">
      <g>
       <use style="stroke:#000000;stroke-width:0.8;" x="438.75" xlink:href="#mf2522611db" y="160.56"/>
      </g>
     </g>
    </g>
    <g id="xtick_25">
     <g id="line2d_38">
      <g>
       <use style="stroke:#000000;stroke-width:0.8;" x="508.5" xlink:href="#mf2522611db" y="160.56"/>
      </g>
     </g>
    </g>
    <g id="xtick_26">
     <g id="line2d_39">
      <g>
       <use style="stroke:#000000;stroke-width:0.8;" x="578.25" xlink:href="#mf2522611db" y="160.56"/>
      </g>
     </g>
    </g>
    <g id="xtick_27">
     <g id="line2d_40">
      <g>
       <use style="stroke:#000000;stroke-width:0.8;" x="648" xlink:href="#mf2522611db" y="160.56"/>
      </g>
     </g>
    </g>
   </g>
   <g id="matplotlib.axis_6">
    <g id="ytick_11">
     <g id="line2d_41">
      <g>
       <use style="stroke:#000000;stroke-width:0.8;" x="90" xlink:href="#m13d80e8c02" y="138.816"/>
      </g>
     </g>
    </g>
    <g id="ytick_12">
     <g id="line2d_42">
      <g>
       <use style="stroke:#000000;stroke-width:0.8;" x="90" xlink:href="#m13d80e8c02" y="117.072"/>
      </g>
     </g>
    </g>
    <g id="ytick_13">
     <g id="line2d_43">
      <g>
       <use style="stroke:#000000;stroke-width:0.8;" x="90" xlink:href="#m13d80e8c02" y="95.328"/>
      </g>
     </g>
    </g>
    <g id="ytick_14">
     <g id="line2d_44">
      <g>
       <use style="stroke:#000000;stroke-width:0.8;" x="90" xlink:href="#m13d80e8c02" y="73.584"/>
      </g>
     </g>
    </g>
    <g id="ytick_15">
     <g id="line2d_45">
      <g>
       <use style="stroke:#000000;stroke-width:0.8;" x="90" xlink:href="#m13d80e8c02" y="51.84"/>
      </g>
     </g>
    </g>
   </g>
   <g id="patch_157">
    <path d="M 90 160.56 
L 90 51.84 
" style="fill:none;stroke:#000000;stroke-linecap:square;stroke-linejoin:miter;stroke-width:0.8;"/>
   </g>
   <g id="patch_158">
    <path d="M 648 160.56 
L 648 51.84 
" style="fill:none;stroke:#000000;stroke-linecap:square;stroke-linejoin:miter;stroke-width:0.8;"/>
   </g>
   <g id="patch_159">
    <path d="M 90 160.56 
L 648 160.56 
" style="fill:none;stroke:#000000;stroke-linecap:square;stroke-linejoin:miter;stroke-width:0.8;"/>
   </g>
   <g id="patch_160">
    <path d="M 90 51.84 
L 648 51.84 
" style="fill:none;stroke:#000000;stroke-linecap:square;stroke-linejoin:miter;stroke-width:0.8;"/>
   </g>
   <g id="legend_3">
    <g id="patch_161">
     <path d="M 490.460938 89.19625 
L 641 89.19625 
Q 643 89.19625 643 87.19625 
L 643 58.84 
Q 643 56.84 641 56.84 
L 490.460938 56.84 
Q 488.460938 56.84 488.460938 58.84 
L 488.460938 87.19625 
Q 488.460938 89.19625 490.460938 89.19625 
z
" style="fill:#ffffff;opacity:0.8;stroke:#cccccc;stroke-linejoin:miter;"/>
    </g>
    <g id="patch_162">
     <path d="M 492.460938 68.438437 
L 512.460938 68.438437 
L 512.460938 61.438437 
L 492.460938 61.438437 
z
" style="fill:#0000ff;"/>
    </g>
    <g id="text_14">
     <!-- ADC(1)         [70 states] -->
     <g transform="translate(520.460938 68.438437)scale(0.1 -0.1)">
      <use xlink:href="#DejaVuSans-65"/>
      <use x="68.408203" xlink:href="#DejaVuSans-68"/>
      <use x="145.410156" xlink:href="#DejaVuSans-67"/>
      <use x="215.234375" xlink:href="#DejaVuSans-40"/>
      <use x="254.248047" xlink:href="#DejaVuSans-49"/>
      <use x="317.871094" xlink:href="#DejaVuSans-41"/>
      <use x="356.884766" xlink:href="#DejaVuSans-32"/>
      <use x="388.671875" xlink:href="#DejaVuSans-32"/>
      <use x="420.458984" xlink:href="#DejaVuSans-32"/>
      <use x="452.246094" xlink:href="#DejaVuSans-32"/>
      <use x="484.033203" xlink:href="#DejaVuSans-32"/>
      <use x="515.820312" xlink:href="#DejaVuSans-32"/>
      <use x="547.607422" xlink:href="#DejaVuSans-32"/>
      <use x="579.394531" xlink:href="#DejaVuSans-32"/>
      <use x="611.181641" xlink:href="#DejaVuSans-32"/>
      <use x="642.96875" xlink:href="#DejaVuSans-91"/>
      <use x="681.982422" xlink:href="#DejaVuSans-55"/>
      <use x="745.605469" xlink:href="#DejaVuSans-48"/>
      <use x="809.228516" xlink:href="#DejaVuSans-32"/>
      <use x="841.015625" xlink:href="#DejaVuSans-115"/>
      <use x="893.115234" xlink:href="#DejaVuSans-116"/>
      <use x="932.324219" xlink:href="#DejaVuSans-97"/>
      <use x="993.603516" xlink:href="#DejaVuSans-116"/>
      <use x="1032.8125" xlink:href="#DejaVuSans-101"/>
      <use x="1094.335938" xlink:href="#DejaVuSans-115"/>
      <use x="1146.435547" xlink:href="#DejaVuSans-93"/>
     </g>
    </g>
    <g id="patch_163">
     <path d="M 492.460938 83.116562 
L 512.460938 83.116562 
L 512.460938 76.116562 
L 492.460938 76.116562 
z
" style="fill:#ff0000;"/>
    </g>
    <g id="text_15">
     <!-- CVS-ADC(1) [10 states] -->
     <g transform="translate(520.460938 83.116562)scale(0.1 -0.1)">
      <use xlink:href="#DejaVuSans-67"/>
      <use x="69.824219" xlink:href="#DejaVuSans-86"/>
      <use x="138.232422" xlink:href="#DejaVuSans-83"/>
      <use x="201.708984" xlink:href="#DejaVuSans-45"/>
      <use x="235.542969" xlink:href="#DejaVuSans-65"/>
      <use x="303.951172" xlink:href="#DejaVuSans-68"/>
      <use x="380.953125" xlink:href="#DejaVuSans-67"/>
      <use x="450.777344" xlink:href="#DejaVuSans-40"/>
      <use x="489.791016" xlink:href="#DejaVuSans-49"/>
      <use x="553.414062" xlink:href="#DejaVuSans-41"/>
      <use x="592.427734" xlink:href="#DejaVuSans-32"/>
      <use x="624.214844" xlink:href="#DejaVuSans-91"/>
      <use x="663.228516" xlink:href="#DejaVuSans-49"/>
      <use x="726.851562" xlink:href="#DejaVuSans-48"/>
      <use x="790.474609" xlink:href="#DejaVuSans-32"/>
      <use x="822.261719" xlink:href="#DejaVuSans-115"/>
      <use x="874.361328" xlink:href="#DejaVuSans-116"/>
      <use x="913.570312" xlink:href="#DejaVuSans-97"/>
      <use x="974.849609" xlink:href="#DejaVuSans-116"/>
      <use x="1014.058594" xlink:href="#DejaVuSans-101"/>
      <use x="1075.582031" xlink:href="#DejaVuSans-115"/>
      <use x="1127.681641" xlink:href="#DejaVuSans-93"/>
     </g>
    </g>
   </g>
  </g>
 </g>
 <defs>
  <clipPath id="pb3190460da">
   <rect height="108.72" width="558" x="90" y="269.28"/>
  </clipPath>
  <clipPath id="p1cdbef8e6d">
   <rect height="108.72" width="558" x="90" y="160.56"/>
  </clipPath>
  <clipPath id="p91b8213cb2">
   <rect height="108.72" width="558" x="90" y="51.84"/>
  </clipPath>
 </defs>
</svg>
