<?xml version="1.0" encoding="utf-8" standalone="no"?>
<!DOCTYPE svg PUBLIC "-//W3C//DTD SVG 1.1//EN"
  "http://www.w3.org/Graphics/SVG/1.1/DTD/svg11.dtd">
<!-- Created with matplotlib (https://matplotlib.org/) -->
<svg height="288pt" version="1.1" viewBox="0 0 432 288" width="432pt" xmlns="http://www.w3.org/2000/svg" xmlns:xlink="http://www.w3.org/1999/xlink">
 <metadata>
  <rdf:RDF xmlns:cc="http://creativecommons.org/ns#" xmlns:dc="http://purl.org/dc/elements/1.1/" xmlns:rdf="http://www.w3.org/1999/02/22-rdf-syntax-ns#">
   <cc:Work>
    <dc:type rdf:resource="http://purl.org/dc/dcmitype/StillImage"/>
    <dc:date>2021-07-14T08:21:33.118316</dc:date>
    <dc:format>image/svg+xml</dc:format>
    <dc:creator>
     <cc:Agent>
      <dc:title>Matplotlib v3.3.2, https://matplotlib.org/</dc:title>
     </cc:Agent>
    </dc:creator>
   </cc:Work>
  </rdf:RDF>
 </metadata>
 <defs>
  <style type="text/css">*{stroke-linecap:butt;stroke-linejoin:round;}</style>
 </defs>
 <g id="figure_1">
  <g id="patch_1">
   <path d="M 0 288 
L 432 288 
L 432 0 
L 0 0 
z
" style="fill:#ffffff;"/>
  </g>
  <g id="axes_1">
   <g id="patch_2">
    <path d="M 54 256.32 
L 388.8 256.32 
L 388.8 145.44 
L 54 145.44 
z
" style="fill:#ffffff;"/>
   </g>
   <g id="matplotlib.axis_1">
    <g id="xtick_1">
     <g id="line2d_1">
      <defs>
       <path d="M 0 0 
L 0 3.5 
" id="m0664f406e5" style="stroke:#000000;stroke-width:0.8;"/>
      </defs>
      <g>
       <use style="stroke:#000000;stroke-width:0.8;" x="67.95" xlink:href="#m0664f406e5" y="256.32"/>
      </g>
     </g>
     <g id="text_1">
      <!-- 290 -->
      <g transform="translate(58.40625 270.918437)scale(0.1 -0.1)">
       <defs>
        <path d="M 19.1875 8.296875 
L 53.609375 8.296875 
L 53.609375 0 
L 7.328125 0 
L 7.328125 8.296875 
Q 12.9375 14.109375 22.625 23.890625 
Q 32.328125 33.6875 34.8125 36.53125 
Q 39.546875 41.84375 41.421875 45.53125 
Q 43.3125 49.21875 43.3125 52.78125 
Q 43.3125 58.59375 39.234375 62.25 
Q 35.15625 65.921875 28.609375 65.921875 
Q 23.96875 65.921875 18.8125 64.3125 
Q 13.671875 62.703125 7.8125 59.421875 
L 7.8125 69.390625 
Q 13.765625 71.78125 18.9375 73 
Q 24.125 74.21875 28.421875 74.21875 
Q 39.75 74.21875 46.484375 68.546875 
Q 53.21875 62.890625 53.21875 53.421875 
Q 53.21875 48.921875 51.53125 44.890625 
Q 49.859375 40.875 45.40625 35.40625 
Q 44.1875 33.984375 37.640625 27.21875 
Q 31.109375 20.453125 19.1875 8.296875 
z
" id="DejaVuSans-50"/>
        <path d="M 10.984375 1.515625 
L 10.984375 10.5 
Q 14.703125 8.734375 18.5 7.8125 
Q 22.3125 6.890625 25.984375 6.890625 
Q 35.75 6.890625 40.890625 13.453125 
Q 46.046875 20.015625 46.78125 33.40625 
Q 43.953125 29.203125 39.59375 26.953125 
Q 35.25 24.703125 29.984375 24.703125 
Q 19.046875 24.703125 12.671875 31.3125 
Q 6.296875 37.9375 6.296875 49.421875 
Q 6.296875 60.640625 12.9375 67.421875 
Q 19.578125 74.21875 30.609375 74.21875 
Q 43.265625 74.21875 49.921875 64.515625 
Q 56.59375 54.828125 56.59375 36.375 
Q 56.59375 19.140625 48.40625 8.859375 
Q 40.234375 -1.421875 26.421875 -1.421875 
Q 22.703125 -1.421875 18.890625 -0.6875 
Q 15.09375 0.046875 10.984375 1.515625 
z
M 30.609375 32.421875 
Q 37.25 32.421875 41.125 36.953125 
Q 45.015625 41.5 45.015625 49.421875 
Q 45.015625 57.28125 41.125 61.84375 
Q 37.25 66.40625 30.609375 66.40625 
Q 23.96875 66.40625 20.09375 61.84375 
Q 16.21875 57.28125 16.21875 49.421875 
Q 16.21875 41.5 20.09375 36.953125 
Q 23.96875 32.421875 30.609375 32.421875 
z
" id="DejaVuSans-57"/>
        <path d="M 31.78125 66.40625 
Q 24.171875 66.40625 20.328125 58.90625 
Q 16.5 51.421875 16.5 36.375 
Q 16.5 21.390625 20.328125 13.890625 
Q 24.171875 6.390625 31.78125 6.390625 
Q 39.453125 6.390625 43.28125 13.890625 
Q 47.125 21.390625 47.125 36.375 
Q 47.125 51.421875 43.28125 58.90625 
Q 39.453125 66.40625 31.78125 66.40625 
z
M 31.78125 74.21875 
Q 44.046875 74.21875 50.515625 64.515625 
Q 56.984375 54.828125 56.984375 36.375 
Q 56.984375 17.96875 50.515625 8.265625 
Q 44.046875 -1.421875 31.78125 -1.421875 
Q 19.53125 -1.421875 13.0625 8.265625 
Q 6.59375 17.96875 6.59375 36.375 
Q 6.59375 54.828125 13.0625 64.515625 
Q 19.53125 74.21875 31.78125 74.21875 
z
" id="DejaVuSans-48"/>
       </defs>
       <use xlink:href="#DejaVuSans-50"/>
       <use x="63.623047" xlink:href="#DejaVuSans-57"/>
       <use x="127.246094" xlink:href="#DejaVuSans-48"/>
      </g>
     </g>
    </g>
    <g id="xtick_2">
     <g id="line2d_2">
      <g>
       <use style="stroke:#000000;stroke-width:0.8;" x="123.75" xlink:href="#m0664f406e5" y="256.32"/>
      </g>
     </g>
     <g id="text_2">
      <!-- 292 -->
      <g transform="translate(114.20625 270.918437)scale(0.1 -0.1)">
       <use xlink:href="#DejaVuSans-50"/>
       <use x="63.623047" xlink:href="#DejaVuSans-57"/>
       <use x="127.246094" xlink:href="#DejaVuSans-50"/>
      </g>
     </g>
    </g>
    <g id="xtick_3">
     <g id="line2d_3">
      <g>
       <use style="stroke:#000000;stroke-width:0.8;" x="179.55" xlink:href="#m0664f406e5" y="256.32"/>
      </g>
     </g>
     <g id="text_3">
      <!-- 294 -->
      <g transform="translate(170.00625 270.918437)scale(0.1 -0.1)">
       <defs>
        <path d="M 37.796875 64.3125 
L 12.890625 25.390625 
L 37.796875 25.390625 
z
M 35.203125 72.90625 
L 47.609375 72.90625 
L 47.609375 25.390625 
L 58.015625 25.390625 
L 58.015625 17.1875 
L 47.609375 17.1875 
L 47.609375 0 
L 37.796875 0 
L 37.796875 17.1875 
L 4.890625 17.1875 
L 4.890625 26.703125 
z
" id="DejaVuSans-52"/>
       </defs>
       <use xlink:href="#DejaVuSans-50"/>
       <use x="63.623047" xlink:href="#DejaVuSans-57"/>
       <use x="127.246094" xlink:href="#DejaVuSans-52"/>
      </g>
     </g>
    </g>
    <g id="xtick_4">
     <g id="line2d_4">
      <g>
       <use style="stroke:#000000;stroke-width:0.8;" x="235.35" xlink:href="#m0664f406e5" y="256.32"/>
      </g>
     </g>
     <g id="text_4">
      <!-- 296 -->
      <g transform="translate(225.80625 270.918437)scale(0.1 -0.1)">
       <defs>
        <path d="M 33.015625 40.375 
Q 26.375 40.375 22.484375 35.828125 
Q 18.609375 31.296875 18.609375 23.390625 
Q 18.609375 15.53125 22.484375 10.953125 
Q 26.375 6.390625 33.015625 6.390625 
Q 39.65625 6.390625 43.53125 10.953125 
Q 47.40625 15.53125 47.40625 23.390625 
Q 47.40625 31.296875 43.53125 35.828125 
Q 39.65625 40.375 33.015625 40.375 
z
M 52.59375 71.296875 
L 52.59375 62.3125 
Q 48.875 64.0625 45.09375 64.984375 
Q 41.3125 65.921875 37.59375 65.921875 
Q 27.828125 65.921875 22.671875 59.328125 
Q 17.53125 52.734375 16.796875 39.40625 
Q 19.671875 43.65625 24.015625 45.921875 
Q 28.375 48.1875 33.59375 48.1875 
Q 44.578125 48.1875 50.953125 41.515625 
Q 57.328125 34.859375 57.328125 23.390625 
Q 57.328125 12.15625 50.6875 5.359375 
Q 44.046875 -1.421875 33.015625 -1.421875 
Q 20.359375 -1.421875 13.671875 8.265625 
Q 6.984375 17.96875 6.984375 36.375 
Q 6.984375 53.65625 15.1875 63.9375 
Q 23.390625 74.21875 37.203125 74.21875 
Q 40.921875 74.21875 44.703125 73.484375 
Q 48.484375 72.75 52.59375 71.296875 
z
" id="DejaVuSans-54"/>
       </defs>
       <use xlink:href="#DejaVuSans-50"/>
       <use x="63.623047" xlink:href="#DejaVuSans-57"/>
       <use x="127.246094" xlink:href="#DejaVuSans-54"/>
      </g>
     </g>
    </g>
    <g id="xtick_5">
     <g id="line2d_5">
      <g>
       <use style="stroke:#000000;stroke-width:0.8;" x="291.15" xlink:href="#m0664f406e5" y="256.32"/>
      </g>
     </g>
     <g id="text_5">
      <!-- 298 -->
      <g transform="translate(281.60625 270.918437)scale(0.1 -0.1)">
       <defs>
        <path d="M 31.78125 34.625 
Q 24.75 34.625 20.71875 30.859375 
Q 16.703125 27.09375 16.703125 20.515625 
Q 16.703125 13.921875 20.71875 10.15625 
Q 24.75 6.390625 31.78125 6.390625 
Q 38.8125 6.390625 42.859375 10.171875 
Q 46.921875 13.96875 46.921875 20.515625 
Q 46.921875 27.09375 42.890625 30.859375 
Q 38.875 34.625 31.78125 34.625 
z
M 21.921875 38.8125 
Q 15.578125 40.375 12.03125 44.71875 
Q 8.5 49.078125 8.5 55.328125 
Q 8.5 64.0625 14.71875 69.140625 
Q 20.953125 74.21875 31.78125 74.21875 
Q 42.671875 74.21875 48.875 69.140625 
Q 55.078125 64.0625 55.078125 55.328125 
Q 55.078125 49.078125 51.53125 44.71875 
Q 48 40.375 41.703125 38.8125 
Q 48.828125 37.15625 52.796875 32.3125 
Q 56.78125 27.484375 56.78125 20.515625 
Q 56.78125 9.90625 50.3125 4.234375 
Q 43.84375 -1.421875 31.78125 -1.421875 
Q 19.734375 -1.421875 13.25 4.234375 
Q 6.78125 9.90625 6.78125 20.515625 
Q 6.78125 27.484375 10.78125 32.3125 
Q 14.796875 37.15625 21.921875 38.8125 
z
M 18.3125 54.390625 
Q 18.3125 48.734375 21.84375 45.5625 
Q 25.390625 42.390625 31.78125 42.390625 
Q 38.140625 42.390625 41.71875 45.5625 
Q 45.3125 48.734375 45.3125 54.390625 
Q 45.3125 60.0625 41.71875 63.234375 
Q 38.140625 66.40625 31.78125 66.40625 
Q 25.390625 66.40625 21.84375 63.234375 
Q 18.3125 60.0625 18.3125 54.390625 
z
" id="DejaVuSans-56"/>
       </defs>
       <use xlink:href="#DejaVuSans-50"/>
       <use x="63.623047" xlink:href="#DejaVuSans-57"/>
       <use x="127.246094" xlink:href="#DejaVuSans-56"/>
      </g>
     </g>
    </g>
    <g id="xtick_6">
     <g id="line2d_6">
      <g>
       <use style="stroke:#000000;stroke-width:0.8;" x="346.95" xlink:href="#m0664f406e5" y="256.32"/>
      </g>
     </g>
     <g id="text_6">
      <!-- 300 -->
      <g transform="translate(337.40625 270.918437)scale(0.1 -0.1)">
       <defs>
        <path d="M 40.578125 39.3125 
Q 47.65625 37.796875 51.625 33 
Q 55.609375 28.21875 55.609375 21.1875 
Q 55.609375 10.40625 48.1875 4.484375 
Q 40.765625 -1.421875 27.09375 -1.421875 
Q 22.515625 -1.421875 17.65625 -0.515625 
Q 12.796875 0.390625 7.625 2.203125 
L 7.625 11.71875 
Q 11.71875 9.328125 16.59375 8.109375 
Q 21.484375 6.890625 26.8125 6.890625 
Q 36.078125 6.890625 40.9375 10.546875 
Q 45.796875 14.203125 45.796875 21.1875 
Q 45.796875 27.640625 41.28125 31.265625 
Q 36.765625 34.90625 28.71875 34.90625 
L 20.21875 34.90625 
L 20.21875 43.015625 
L 29.109375 43.015625 
Q 36.375 43.015625 40.234375 45.921875 
Q 44.09375 48.828125 44.09375 54.296875 
Q 44.09375 59.90625 40.109375 62.90625 
Q 36.140625 65.921875 28.71875 65.921875 
Q 24.65625 65.921875 20.015625 65.03125 
Q 15.375 64.15625 9.8125 62.3125 
L 9.8125 71.09375 
Q 15.4375 72.65625 20.34375 73.4375 
Q 25.25 74.21875 29.59375 74.21875 
Q 40.828125 74.21875 47.359375 69.109375 
Q 53.90625 64.015625 53.90625 55.328125 
Q 53.90625 49.265625 50.4375 45.09375 
Q 46.96875 40.921875 40.578125 39.3125 
z
" id="DejaVuSans-51"/>
       </defs>
       <use xlink:href="#DejaVuSans-51"/>
       <use x="63.623047" xlink:href="#DejaVuSans-48"/>
       <use x="127.246094" xlink:href="#DejaVuSans-48"/>
      </g>
     </g>
    </g>
    <g id="text_7">
     <!-- Photon energy [eV] -->
     <g transform="translate(172.96875 284.596563)scale(0.1 -0.1)">
      <defs>
       <path d="M 19.671875 64.796875 
L 19.671875 37.40625 
L 32.078125 37.40625 
Q 38.96875 37.40625 42.71875 40.96875 
Q 46.484375 44.53125 46.484375 51.125 
Q 46.484375 57.671875 42.71875 61.234375 
Q 38.96875 64.796875 32.078125 64.796875 
z
M 9.8125 72.90625 
L 32.078125 72.90625 
Q 44.34375 72.90625 50.609375 67.359375 
Q 56.890625 61.8125 56.890625 51.125 
Q 56.890625 40.328125 50.609375 34.8125 
Q 44.34375 29.296875 32.078125 29.296875 
L 19.671875 29.296875 
L 19.671875 0 
L 9.8125 0 
z
" id="DejaVuSans-80"/>
       <path d="M 54.890625 33.015625 
L 54.890625 0 
L 45.90625 0 
L 45.90625 32.71875 
Q 45.90625 40.484375 42.875 44.328125 
Q 39.84375 48.1875 33.796875 48.1875 
Q 26.515625 48.1875 22.3125 43.546875 
Q 18.109375 38.921875 18.109375 30.90625 
L 18.109375 0 
L 9.078125 0 
L 9.078125 75.984375 
L 18.109375 75.984375 
L 18.109375 46.1875 
Q 21.34375 51.125 25.703125 53.5625 
Q 30.078125 56 35.796875 56 
Q 45.21875 56 50.046875 50.171875 
Q 54.890625 44.34375 54.890625 33.015625 
z
" id="DejaVuSans-104"/>
       <path d="M 30.609375 48.390625 
Q 23.390625 48.390625 19.1875 42.75 
Q 14.984375 37.109375 14.984375 27.296875 
Q 14.984375 17.484375 19.15625 11.84375 
Q 23.34375 6.203125 30.609375 6.203125 
Q 37.796875 6.203125 41.984375 11.859375 
Q 46.1875 17.53125 46.1875 27.296875 
Q 46.1875 37.015625 41.984375 42.703125 
Q 37.796875 48.390625 30.609375 48.390625 
z
M 30.609375 56 
Q 42.328125 56 49.015625 48.375 
Q 55.71875 40.765625 55.71875 27.296875 
Q 55.71875 13.875 49.015625 6.21875 
Q 42.328125 -1.421875 30.609375 -1.421875 
Q 18.84375 -1.421875 12.171875 6.21875 
Q 5.515625 13.875 5.515625 27.296875 
Q 5.515625 40.765625 12.171875 48.375 
Q 18.84375 56 30.609375 56 
z
" id="DejaVuSans-111"/>
       <path d="M 18.3125 70.21875 
L 18.3125 54.6875 
L 36.8125 54.6875 
L 36.8125 47.703125 
L 18.3125 47.703125 
L 18.3125 18.015625 
Q 18.3125 11.328125 20.140625 9.421875 
Q 21.96875 7.515625 27.59375 7.515625 
L 36.8125 7.515625 
L 36.8125 0 
L 27.59375 0 
Q 17.1875 0 13.234375 3.875 
Q 9.28125 7.765625 9.28125 18.015625 
L 9.28125 47.703125 
L 2.6875 47.703125 
L 2.6875 54.6875 
L 9.28125 54.6875 
L 9.28125 70.21875 
z
" id="DejaVuSans-116"/>
       <path d="M 54.890625 33.015625 
L 54.890625 0 
L 45.90625 0 
L 45.90625 32.71875 
Q 45.90625 40.484375 42.875 44.328125 
Q 39.84375 48.1875 33.796875 48.1875 
Q 26.515625 48.1875 22.3125 43.546875 
Q 18.109375 38.921875 18.109375 30.90625 
L 18.109375 0 
L 9.078125 0 
L 9.078125 54.6875 
L 18.109375 54.6875 
L 18.109375 46.1875 
Q 21.34375 51.125 25.703125 53.5625 
Q 30.078125 56 35.796875 56 
Q 45.21875 56 50.046875 50.171875 
Q 54.890625 44.34375 54.890625 33.015625 
z
" id="DejaVuSans-110"/>
       <path id="DejaVuSans-32"/>
       <path d="M 56.203125 29.59375 
L 56.203125 25.203125 
L 14.890625 25.203125 
Q 15.484375 15.921875 20.484375 11.0625 
Q 25.484375 6.203125 34.421875 6.203125 
Q 39.59375 6.203125 44.453125 7.46875 
Q 49.3125 8.734375 54.109375 11.28125 
L 54.109375 2.78125 
Q 49.265625 0.734375 44.1875 -0.34375 
Q 39.109375 -1.421875 33.890625 -1.421875 
Q 20.796875 -1.421875 13.15625 6.1875 
Q 5.515625 13.8125 5.515625 26.8125 
Q 5.515625 40.234375 12.765625 48.109375 
Q 20.015625 56 32.328125 56 
Q 43.359375 56 49.78125 48.890625 
Q 56.203125 41.796875 56.203125 29.59375 
z
M 47.21875 32.234375 
Q 47.125 39.59375 43.09375 43.984375 
Q 39.0625 48.390625 32.421875 48.390625 
Q 24.90625 48.390625 20.390625 44.140625 
Q 15.875 39.890625 15.1875 32.171875 
z
" id="DejaVuSans-101"/>
       <path d="M 41.109375 46.296875 
Q 39.59375 47.171875 37.8125 47.578125 
Q 36.03125 48 33.890625 48 
Q 26.265625 48 22.1875 43.046875 
Q 18.109375 38.09375 18.109375 28.8125 
L 18.109375 0 
L 9.078125 0 
L 9.078125 54.6875 
L 18.109375 54.6875 
L 18.109375 46.1875 
Q 20.953125 51.171875 25.484375 53.578125 
Q 30.03125 56 36.53125 56 
Q 37.453125 56 38.578125 55.875 
Q 39.703125 55.765625 41.0625 55.515625 
z
" id="DejaVuSans-114"/>
       <path d="M 45.40625 27.984375 
Q 45.40625 37.75 41.375 43.109375 
Q 37.359375 48.484375 30.078125 48.484375 
Q 22.859375 48.484375 18.828125 43.109375 
Q 14.796875 37.75 14.796875 27.984375 
Q 14.796875 18.265625 18.828125 12.890625 
Q 22.859375 7.515625 30.078125 7.515625 
Q 37.359375 7.515625 41.375 12.890625 
Q 45.40625 18.265625 45.40625 27.984375 
z
M 54.390625 6.78125 
Q 54.390625 -7.171875 48.1875 -13.984375 
Q 42 -20.796875 29.203125 -20.796875 
Q 24.46875 -20.796875 20.265625 -20.09375 
Q 16.0625 -19.390625 12.109375 -17.921875 
L 12.109375 -9.1875 
Q 16.0625 -11.328125 19.921875 -12.34375 
Q 23.78125 -13.375 27.78125 -13.375 
Q 36.625 -13.375 41.015625 -8.765625 
Q 45.40625 -4.15625 45.40625 5.171875 
L 45.40625 9.625 
Q 42.625 4.78125 38.28125 2.390625 
Q 33.9375 0 27.875 0 
Q 17.828125 0 11.671875 7.65625 
Q 5.515625 15.328125 5.515625 27.984375 
Q 5.515625 40.671875 11.671875 48.328125 
Q 17.828125 56 27.875 56 
Q 33.9375 56 38.28125 53.609375 
Q 42.625 51.21875 45.40625 46.390625 
L 45.40625 54.6875 
L 54.390625 54.6875 
z
" id="DejaVuSans-103"/>
       <path d="M 32.171875 -5.078125 
Q 28.375 -14.84375 24.75 -17.8125 
Q 21.140625 -20.796875 15.09375 -20.796875 
L 7.90625 -20.796875 
L 7.90625 -13.28125 
L 13.1875 -13.28125 
Q 16.890625 -13.28125 18.9375 -11.515625 
Q 21 -9.765625 23.484375 -3.21875 
L 25.09375 0.875 
L 2.984375 54.6875 
L 12.5 54.6875 
L 29.59375 11.921875 
L 46.6875 54.6875 
L 56.203125 54.6875 
z
" id="DejaVuSans-121"/>
       <path d="M 8.59375 75.984375 
L 29.296875 75.984375 
L 29.296875 69 
L 17.578125 69 
L 17.578125 -6.203125 
L 29.296875 -6.203125 
L 29.296875 -13.1875 
L 8.59375 -13.1875 
z
" id="DejaVuSans-91"/>
       <path d="M 28.609375 0 
L 0.78125 72.90625 
L 11.078125 72.90625 
L 34.1875 11.53125 
L 57.328125 72.90625 
L 67.578125 72.90625 
L 39.796875 0 
z
" id="DejaVuSans-86"/>
       <path d="M 30.421875 75.984375 
L 30.421875 -13.1875 
L 9.71875 -13.1875 
L 9.71875 -6.203125 
L 21.390625 -6.203125 
L 21.390625 69 
L 9.71875 69 
L 9.71875 75.984375 
z
" id="DejaVuSans-93"/>
      </defs>
      <use xlink:href="#DejaVuSans-80"/>
      <use x="60.302734" xlink:href="#DejaVuSans-104"/>
      <use x="123.681641" xlink:href="#DejaVuSans-111"/>
      <use x="184.863281" xlink:href="#DejaVuSans-116"/>
      <use x="224.072266" xlink:href="#DejaVuSans-111"/>
      <use x="285.253906" xlink:href="#DejaVuSans-110"/>
      <use x="348.632812" xlink:href="#DejaVuSans-32"/>
      <use x="380.419922" xlink:href="#DejaVuSans-101"/>
      <use x="441.943359" xlink:href="#DejaVuSans-110"/>
      <use x="505.322266" xlink:href="#DejaVuSans-101"/>
      <use x="566.845703" xlink:href="#DejaVuSans-114"/>
      <use x="606.208984" xlink:href="#DejaVuSans-103"/>
      <use x="669.685547" xlink:href="#DejaVuSans-121"/>
      <use x="728.865234" xlink:href="#DejaVuSans-32"/>
      <use x="760.652344" xlink:href="#DejaVuSans-91"/>
      <use x="799.666016" xlink:href="#DejaVuSans-101"/>
      <use x="861.189453" xlink:href="#DejaVuSans-86"/>
      <use x="929.597656" xlink:href="#DejaVuSans-93"/>
     </g>
    </g>
   </g>
   <g id="matplotlib.axis_2">
    <g id="ytick_1">
     <g id="line2d_7">
      <defs>
       <path d="M 0 0 
L -3.5 0 
" id="mbbfa2aacb4" style="stroke:#000000;stroke-width:0.8;"/>
      </defs>
      <g>
       <use style="stroke:#000000;stroke-width:0.8;" x="54" xlink:href="#mbbfa2aacb4" y="234.144"/>
      </g>
     </g>
    </g>
    <g id="ytick_2">
     <g id="line2d_8">
      <g>
       <use style="stroke:#000000;stroke-width:0.8;" x="54" xlink:href="#mbbfa2aacb4" y="211.968"/>
      </g>
     </g>
    </g>
    <g id="ytick_3">
     <g id="line2d_9">
      <g>
       <use style="stroke:#000000;stroke-width:0.8;" x="54" xlink:href="#mbbfa2aacb4" y="189.792"/>
      </g>
     </g>
    </g>
    <g id="ytick_4">
     <g id="line2d_10">
      <g>
       <use style="stroke:#000000;stroke-width:0.8;" x="54" xlink:href="#mbbfa2aacb4" y="167.616"/>
      </g>
     </g>
    </g>
    <g id="ytick_5">
     <g id="line2d_11">
      <g>
       <use style="stroke:#000000;stroke-width:0.8;" x="54" xlink:href="#mbbfa2aacb4" y="145.44"/>
      </g>
     </g>
    </g>
    <g id="text_8">
     <!--                                            Intensity [arb. units] -->
     <g transform="translate(40.920312 320.226094)rotate(-90)scale(0.1 -0.1)">
      <defs>
       <path d="M 9.8125 72.90625 
L 19.671875 72.90625 
L 19.671875 0 
L 9.8125 0 
z
" id="DejaVuSans-73"/>
       <path d="M 44.28125 53.078125 
L 44.28125 44.578125 
Q 40.484375 46.53125 36.375 47.5 
Q 32.28125 48.484375 27.875 48.484375 
Q 21.1875 48.484375 17.84375 46.4375 
Q 14.5 44.390625 14.5 40.28125 
Q 14.5 37.15625 16.890625 35.375 
Q 19.28125 33.59375 26.515625 31.984375 
L 29.59375 31.296875 
Q 39.15625 29.25 43.1875 25.515625 
Q 47.21875 21.78125 47.21875 15.09375 
Q 47.21875 7.46875 41.1875 3.015625 
Q 35.15625 -1.421875 24.609375 -1.421875 
Q 20.21875 -1.421875 15.453125 -0.5625 
Q 10.6875 0.296875 5.421875 2 
L 5.421875 11.28125 
Q 10.40625 8.6875 15.234375 7.390625 
Q 20.0625 6.109375 24.8125 6.109375 
Q 31.15625 6.109375 34.5625 8.28125 
Q 37.984375 10.453125 37.984375 14.40625 
Q 37.984375 18.0625 35.515625 20.015625 
Q 33.0625 21.96875 24.703125 23.78125 
L 21.578125 24.515625 
Q 13.234375 26.265625 9.515625 29.90625 
Q 5.8125 33.546875 5.8125 39.890625 
Q 5.8125 47.609375 11.28125 51.796875 
Q 16.75 56 26.8125 56 
Q 31.78125 56 36.171875 55.265625 
Q 40.578125 54.546875 44.28125 53.078125 
z
" id="DejaVuSans-115"/>
       <path d="M 9.421875 54.6875 
L 18.40625 54.6875 
L 18.40625 0 
L 9.421875 0 
z
M 9.421875 75.984375 
L 18.40625 75.984375 
L 18.40625 64.59375 
L 9.421875 64.59375 
z
" id="DejaVuSans-105"/>
       <path d="M 34.28125 27.484375 
Q 23.390625 27.484375 19.1875 25 
Q 14.984375 22.515625 14.984375 16.5 
Q 14.984375 11.71875 18.140625 8.90625 
Q 21.296875 6.109375 26.703125 6.109375 
Q 34.1875 6.109375 38.703125 11.40625 
Q 43.21875 16.703125 43.21875 25.484375 
L 43.21875 27.484375 
z
M 52.203125 31.203125 
L 52.203125 0 
L 43.21875 0 
L 43.21875 8.296875 
Q 40.140625 3.328125 35.546875 0.953125 
Q 30.953125 -1.421875 24.3125 -1.421875 
Q 15.921875 -1.421875 10.953125 3.296875 
Q 6 8.015625 6 15.921875 
Q 6 25.140625 12.171875 29.828125 
Q 18.359375 34.515625 30.609375 34.515625 
L 43.21875 34.515625 
L 43.21875 35.40625 
Q 43.21875 41.609375 39.140625 45 
Q 35.0625 48.390625 27.6875 48.390625 
Q 23 48.390625 18.546875 47.265625 
Q 14.109375 46.140625 10.015625 43.890625 
L 10.015625 52.203125 
Q 14.9375 54.109375 19.578125 55.046875 
Q 24.21875 56 28.609375 56 
Q 40.484375 56 46.34375 49.84375 
Q 52.203125 43.703125 52.203125 31.203125 
z
" id="DejaVuSans-97"/>
       <path d="M 48.6875 27.296875 
Q 48.6875 37.203125 44.609375 42.84375 
Q 40.53125 48.484375 33.40625 48.484375 
Q 26.265625 48.484375 22.1875 42.84375 
Q 18.109375 37.203125 18.109375 27.296875 
Q 18.109375 17.390625 22.1875 11.75 
Q 26.265625 6.109375 33.40625 6.109375 
Q 40.53125 6.109375 44.609375 11.75 
Q 48.6875 17.390625 48.6875 27.296875 
z
M 18.109375 46.390625 
Q 20.953125 51.265625 25.265625 53.625 
Q 29.59375 56 35.59375 56 
Q 45.5625 56 51.78125 48.09375 
Q 58.015625 40.1875 58.015625 27.296875 
Q 58.015625 14.40625 51.78125 6.484375 
Q 45.5625 -1.421875 35.59375 -1.421875 
Q 29.59375 -1.421875 25.265625 0.953125 
Q 20.953125 3.328125 18.109375 8.203125 
L 18.109375 0 
L 9.078125 0 
L 9.078125 75.984375 
L 18.109375 75.984375 
z
" id="DejaVuSans-98"/>
       <path d="M 10.6875 12.40625 
L 21 12.40625 
L 21 0 
L 10.6875 0 
z
" id="DejaVuSans-46"/>
       <path d="M 8.5 21.578125 
L 8.5 54.6875 
L 17.484375 54.6875 
L 17.484375 21.921875 
Q 17.484375 14.15625 20.5 10.265625 
Q 23.53125 6.390625 29.59375 6.390625 
Q 36.859375 6.390625 41.078125 11.03125 
Q 45.3125 15.671875 45.3125 23.6875 
L 45.3125 54.6875 
L 54.296875 54.6875 
L 54.296875 0 
L 45.3125 0 
L 45.3125 8.40625 
Q 42.046875 3.421875 37.71875 1 
Q 33.40625 -1.421875 27.6875 -1.421875 
Q 18.265625 -1.421875 13.375 4.4375 
Q 8.5 10.296875 8.5 21.578125 
z
M 31.109375 56 
z
" id="DejaVuSans-117"/>
      </defs>
      <use xlink:href="#DejaVuSans-32"/>
      <use x="31.787109" xlink:href="#DejaVuSans-32"/>
      <use x="63.574219" xlink:href="#DejaVuSans-32"/>
      <use x="95.361328" xlink:href="#DejaVuSans-32"/>
      <use x="127.148438" xlink:href="#DejaVuSans-32"/>
      <use x="158.935547" xlink:href="#DejaVuSans-32"/>
      <use x="190.722656" xlink:href="#DejaVuSans-32"/>
      <use x="222.509766" xlink:href="#DejaVuSans-32"/>
      <use x="254.296875" xlink:href="#DejaVuSans-32"/>
      <use x="286.083984" xlink:href="#DejaVuSans-32"/>
      <use x="317.871094" xlink:href="#DejaVuSans-32"/>
      <use x="349.658203" xlink:href="#DejaVuSans-32"/>
      <use x="381.445312" xlink:href="#DejaVuSans-32"/>
      <use x="413.232422" xlink:href="#DejaVuSans-32"/>
      <use x="445.019531" xlink:href="#DejaVuSans-32"/>
      <use x="476.806641" xlink:href="#DejaVuSans-32"/>
      <use x="508.59375" xlink:href="#DejaVuSans-32"/>
      <use x="540.380859" xlink:href="#DejaVuSans-32"/>
      <use x="572.167969" xlink:href="#DejaVuSans-32"/>
      <use x="603.955078" xlink:href="#DejaVuSans-32"/>
      <use x="635.742188" xlink:href="#DejaVuSans-32"/>
      <use x="667.529297" xlink:href="#DejaVuSans-32"/>
      <use x="699.316406" xlink:href="#DejaVuSans-32"/>
      <use x="731.103516" xlink:href="#DejaVuSans-32"/>
      <use x="762.890625" xlink:href="#DejaVuSans-32"/>
      <use x="794.677734" xlink:href="#DejaVuSans-32"/>
      <use x="826.464844" xlink:href="#DejaVuSans-32"/>
      <use x="858.251953" xlink:href="#DejaVuSans-32"/>
      <use x="890.039062" xlink:href="#DejaVuSans-32"/>
      <use x="921.826172" xlink:href="#DejaVuSans-32"/>
      <use x="953.613281" xlink:href="#DejaVuSans-32"/>
      <use x="985.400391" xlink:href="#DejaVuSans-32"/>
      <use x="1017.1875" xlink:href="#DejaVuSans-32"/>
      <use x="1048.974609" xlink:href="#DejaVuSans-32"/>
      <use x="1080.761719" xlink:href="#DejaVuSans-32"/>
      <use x="1112.548828" xlink:href="#DejaVuSans-32"/>
      <use x="1144.335938" xlink:href="#DejaVuSans-32"/>
      <use x="1176.123047" xlink:href="#DejaVuSans-32"/>
      <use x="1207.910156" xlink:href="#DejaVuSans-32"/>
      <use x="1239.697266" xlink:href="#DejaVuSans-32"/>
      <use x="1271.484375" xlink:href="#DejaVuSans-32"/>
      <use x="1303.271484" xlink:href="#DejaVuSans-32"/>
      <use x="1335.058594" xlink:href="#DejaVuSans-32"/>
      <use x="1366.845703" xlink:href="#DejaVuSans-73"/>
      <use x="1396.337891" xlink:href="#DejaVuSans-110"/>
      <use x="1459.716797" xlink:href="#DejaVuSans-116"/>
      <use x="1498.925781" xlink:href="#DejaVuSans-101"/>
      <use x="1560.449219" xlink:href="#DejaVuSans-110"/>
      <use x="1623.828125" xlink:href="#DejaVuSans-115"/>
      <use x="1675.927734" xlink:href="#DejaVuSans-105"/>
      <use x="1703.710938" xlink:href="#DejaVuSans-116"/>
      <use x="1742.919922" xlink:href="#DejaVuSans-121"/>
      <use x="1802.099609" xlink:href="#DejaVuSans-32"/>
      <use x="1833.886719" xlink:href="#DejaVuSans-91"/>
      <use x="1872.900391" xlink:href="#DejaVuSans-97"/>
      <use x="1934.179688" xlink:href="#DejaVuSans-114"/>
      <use x="1975.292969" xlink:href="#DejaVuSans-98"/>
      <use x="2038.769531" xlink:href="#DejaVuSans-46"/>
      <use x="2070.556641" xlink:href="#DejaVuSans-32"/>
      <use x="2102.34375" xlink:href="#DejaVuSans-117"/>
      <use x="2165.722656" xlink:href="#DejaVuSans-110"/>
      <use x="2229.101562" xlink:href="#DejaVuSans-105"/>
      <use x="2256.884766" xlink:href="#DejaVuSans-116"/>
      <use x="2296.09375" xlink:href="#DejaVuSans-115"/>
      <use x="2348.193359" xlink:href="#DejaVuSans-93"/>
     </g>
    </g>
   </g>
   <g id="line2d_12">
    <path clip-path="url(#pccaa7cd4b7)" d="M 41.066602 254.707309 
L 44.240562 254.440678 
L 51.492297 254.451212 
L 55.117171 254.659908 
L 58.742708 254.732985 
L 65.995769 254.472279 
L 69.620312 254.748785 
L 76.874698 254.21684 
L 80.500566 254.222107 
L 87.757934 253.079875 
L 91.390428 251.728947 
L 93.669516 249.087658 
L 95.055722 243.664854 
L 95.195314 246.015811 
L 95.990019 237.970151 
L 96.128728 240.501935 
L 96.911726 234.85222 
L 96.942869 228.478103 
L 97.40803 226.037611 
L 97.885118 221.155967 
L 97.916924 214.646231 
L 98.024269 223.597338 
L 98.38341 211.9345 
L 98.851221 208.951529 
L 98.893629 200.271881 
L 99.299153 210.037143 
L 99.36144 197.288911 
L 99.825275 195.119657 
L 99.857081 188.609921 
L 100.320917 186.440668 
L 100.796679 181.830263 
L 100.807281 179.660351 
L 100.935388 184.362046 
L 101.579898 176.135341 
L 102.502268 172.88179 
L 102.912916 170.354458 
L 104.761082 167.987209 
L 105.831241 170.716698 
L 106.126369 173.248709 
L 106.266624 175.464047 
L 107.897779 181.750164 
L 108.036488 184.281948 
L 109.079013 187.357526 
L 110.575655 190.252936 
L 111.465778 193.599534 
L 112.511837 195.951808 
L 113.251323 199.207773 
L 113.846358 201.107324 
L 114.135261 203.820153 
L 114.731621 205.448464 
L 115.174253 207.619035 
L 115.915064 210.603761 
L 116.510099 212.503312 
L 116.797677 215.487379 
L 117.688682 218.653151 
L 119.464951 226.160063 
L 121.25138 231.587476 
L 122.29744 233.939751 
L 122.740955 235.929495 
L 125.435618 240.996573 
L 131.747314 247.877178 
L 134.912107 249.486617 
L 138.533336 250.44122 
L 141.409668 249.247417 
L 143.081906 247.125126 
L 143.091845 245.090833 
L 144.011564 242.37976 
L 144.022166 240.209848 
L 144.942548 237.363155 
L 144.973692 230.989039 
L 145.440177 228.277307 
L 145.917265 223.395664 
L 145.938469 219.05584 
L 146.055974 225.927447 
L 146.404955 216.344108 
L 146.871441 213.632377 
L 146.913849 204.952729 
L 147.380335 202.240997 
L 147.857423 197.359354 
L 147.878627 193.01953 
L 147.996573 199.800724 
L 148.345113 190.307798 
L 148.812924 187.324828 
L 148.834128 182.985004 
L 149.260856 188.410442 
L 149.767099 177.561541 
L 149.905367 180.183737 
L 150.14872 174.103773 
L 152.258805 168.509549 
L 153.966848 170.990049 
L 155.223129 174.043334 
L 155.754934 176.078413 
L 156.090502 182.046201 
L 157.721215 188.422731 
L 158.316249 190.322282 
L 158.605594 192.944698 
L 159.497483 195.929643 
L 159.636855 198.325807 
L 160.522118 202.666948 
L 160.532057 200.632655 
L 161.260942 206.058533 
L 161.400755 208.364283 
L 162.737264 213.112941 
L 163.024842 216.097009 
L 163.915847 219.26278 
L 167.176831 232.106254 
L 168.375736 234.097096 
L 168.968561 236.448711 
L 170.169233 238.077901 
L 171.362394 241.244111 
L 173.012544 243.64247 
L 174.815538 245.679396 
L 176.615551 248.326609 
L 179.777252 250.568939 
L 182.943592 251.861933 
L 186.565153 252.748726 
L 190.189033 253.160852 
L 193.813575 253.437358 
L 197.438781 253.578244 
L 201.065642 253.380081 
L 204.691842 253.317538 
L 208.319366 252.983756 
L 211.950866 251.836257 
L 215.130789 250.349051 
L 216.501092 248.181114 
L 217.434064 242.757651 
L 217.573214 245.199022 
L 218.355108 239.775339 
L 218.376312 235.435515 
L 219.303983 231.097008 
L 219.325187 226.757184 
L 220.252858 222.418677 
L 220.274062 218.078853 
L 220.737897 215.909599 
L 221.21366 211.299195 
L 221.224262 209.129283 
L 221.351927 213.921391 
L 221.689423 206.68879 
L 222.165185 202.078386 
L 222.186389 197.738562 
L 222.303452 204.700582 
L 222.65155 195.298069 
L 223.127312 190.687665 
L 223.148516 186.347841 
L 223.266021 193.219448 
L 224.070224 183.229909 
L 224.090765 179.025705 
L 225.011809 176.043392 
L 225.022411 173.87348 
L 225.805631 168.178559 
L 225.914087 165.345756 
L 225.944119 170.755549 
L 227.349098 161.490191 
L 228.874996 163.707542 
L 229.947882 165.879028 
L 230.934325 169.813454 
L 231.212627 174.696195 
L 231.376957 171.984024 
L 231.808987 176.324506 
L 232.087288 181.207247 
L 232.251618 178.495077 
L 232.9699 186.090866 
L 233.099112 190.566529 
L 233.107726 188.803475 
L 233.83926 193.686874 
L 233.978411 196.128245 
L 234.718339 199.293797 
L 234.855723 202.096819 
L 235.29968 203.996151 
L 235.727071 209.285969 
L 236.467661 212.315902 
L 236.605708 214.983305 
L 237.345856 218.103651 
L 237.48567 220.409402 
L 238.225818 223.529747 
L 238.365632 225.835498 
L 239.69949 231.126634 
L 239.988835 233.749049 
L 242.664945 242.613473 
L 244.163243 245.169835 
L 245.962594 247.952668 
L 249.123632 250.330618 
L 256.363109 252.850112 
L 259.987321 253.194427 
L 267.2374 253.54401 
L 270.86128 253.956135 
L 288.990288 254.050279 
L 296.244674 253.518334 
L 299.875843 252.438645 
L 301.700373 250.067937 
L 302.768741 247.854355 
L 303.689343 244.962456 
L 304.460194 241.799098 
L 304.470796 239.629186 
L 305.403768 234.205723 
L 305.542918 236.647093 
L 306.335414 229.053499 
L 306.473681 231.675695 
L 306.79925 226.884245 
L 307.275012 222.27384 
L 307.413721 224.805624 
L 308.196057 219.291528 
L 308.217261 214.951704 
L 309.138968 211.833773 
L 309.159509 207.629568 
L 309.62467 205.189076 
L 310.100433 200.578671 
L 310.2387 203.200867 
L 311.033405 195.155208 
L 311.044007 192.985296 
L 311.172997 197.506165 
L 312.11392 190.455268 
L 312.881457 187.970008 
L 313.377681 185.574767 
L 314.911872 180.785073 
L 315.74782 182.413733 
L 317.545293 185.580821 
L 319.057758 191.640732 
L 319.651467 193.811521 
L 319.94037 196.52435 
L 320.53673 198.152662 
L 320.96876 202.493144 
L 320.979362 200.323232 
L 321.708246 205.749109 
L 322.301955 207.919899 
L 322.734647 212.124762 
L 322.744587 210.09047 
L 323.474355 215.335521 
L 323.61461 217.550859 
L 324.949793 222.570755 
L 325.239138 225.193171 
L 326.131469 228.087703 
L 327.909947 235.142551 
L 328.800511 238.398735 
L 330.289201 242.92158 
L 331.637637 245.229086 
L 335.692663 250.16252 
L 338.859555 251.342497 
L 342.480122 252.43272 
L 346.104996 252.641416 
L 349.730533 252.714492 
L 353.355075 252.990998 
L 360.606811 253.001532 
L 364.233673 252.803369 
L 367.859209 252.876446 
L 371.484083 253.085142 
L 375.110282 253.022599 
L 385.987223 253.174019 
L 385.987223 253.174019 
" style="fill:none;stroke:#0000ff;stroke-linecap:square;stroke-width:1.5;"/>
   </g>
   <g id="patch_3">
    <path d="M 54 256.32 
L 54 145.44 
" style="fill:none;stroke:#000000;stroke-linecap:square;stroke-linejoin:miter;stroke-width:0.8;"/>
   </g>
   <g id="patch_4">
    <path d="M 388.8 256.32 
L 388.8 145.44 
" style="fill:none;stroke:#000000;stroke-linecap:square;stroke-linejoin:miter;stroke-width:0.8;"/>
   </g>
   <g id="patch_5">
    <path d="M 54 256.32 
L 388.8 256.32 
" style="fill:none;stroke:#000000;stroke-linecap:square;stroke-linejoin:miter;stroke-width:0.8;"/>
   </g>
   <g id="patch_6">
    <path d="M 54 145.44 
L 388.8 145.44 
" style="fill:none;stroke:#000000;stroke-linecap:square;stroke-linejoin:miter;stroke-width:0.8;"/>
   </g>
   <g id="legend_1">
    <g id="patch_7">
     <path d="M 327.29375 168.118125 
L 381.8 168.118125 
Q 383.8 168.118125 383.8 166.118125 
L 383.8 152.44 
Q 383.8 150.44 381.8 150.44 
L 327.29375 150.44 
Q 325.29375 150.44 325.29375 152.44 
L 325.29375 166.118125 
Q 325.29375 168.118125 327.29375 168.118125 
z
" style="fill:#ffffff;opacity:0.8;stroke:#cccccc;stroke-linejoin:miter;"/>
    </g>
    <g id="line2d_13">
     <path d="M 329.29375 158.538437 
L 349.29375 158.538437 
" style="fill:none;stroke:#0000ff;stroke-linecap:square;stroke-width:1.5;"/>
    </g>
    <g id="line2d_14"/>
    <g id="text_9">
     <!-- Expt -->
     <g transform="translate(357.29375 162.038437)scale(0.1 -0.1)">
      <defs>
       <path d="M 9.8125 72.90625 
L 55.90625 72.90625 
L 55.90625 64.59375 
L 19.671875 64.59375 
L 19.671875 43.015625 
L 54.390625 43.015625 
L 54.390625 34.71875 
L 19.671875 34.71875 
L 19.671875 8.296875 
L 56.78125 8.296875 
L 56.78125 0 
L 9.8125 0 
z
" id="DejaVuSans-69"/>
       <path d="M 54.890625 54.6875 
L 35.109375 28.078125 
L 55.90625 0 
L 45.3125 0 
L 29.390625 21.484375 
L 13.484375 0 
L 2.875 0 
L 24.125 28.609375 
L 4.6875 54.6875 
L 15.28125 54.6875 
L 29.78125 35.203125 
L 44.28125 54.6875 
z
" id="DejaVuSans-120"/>
       <path d="M 18.109375 8.203125 
L 18.109375 -20.796875 
L 9.078125 -20.796875 
L 9.078125 54.6875 
L 18.109375 54.6875 
L 18.109375 46.390625 
Q 20.953125 51.265625 25.265625 53.625 
Q 29.59375 56 35.59375 56 
Q 45.5625 56 51.78125 48.09375 
Q 58.015625 40.1875 58.015625 27.296875 
Q 58.015625 14.40625 51.78125 6.484375 
Q 45.5625 -1.421875 35.59375 -1.421875 
Q 29.59375 -1.421875 25.265625 0.953125 
Q 20.953125 3.328125 18.109375 8.203125 
z
M 48.6875 27.296875 
Q 48.6875 37.203125 44.609375 42.84375 
Q 40.53125 48.484375 33.40625 48.484375 
Q 26.265625 48.484375 22.1875 42.84375 
Q 18.109375 37.203125 18.109375 27.296875 
Q 18.109375 17.390625 22.1875 11.75 
Q 26.265625 6.109375 33.40625 6.109375 
Q 40.53125 6.109375 44.609375 11.75 
Q 48.6875 17.390625 48.6875 27.296875 
z
" id="DejaVuSans-112"/>
      </defs>
      <use xlink:href="#DejaVuSans-69"/>
      <use x="63.183594" xlink:href="#DejaVuSans-120"/>
      <use x="122.363281" xlink:href="#DejaVuSans-112"/>
      <use x="185.839844" xlink:href="#DejaVuSans-116"/>
     </g>
    </g>
   </g>
  </g>
  <g id="axes_2">
   <g id="patch_8">
    <path d="M 54 145.44 
L 388.8 145.44 
L 388.8 34.56 
L 54 34.56 
z
" style="fill:#ffffff;"/>
   </g>
   <g id="matplotlib.axis_3">
    <g id="xtick_7">
     <g id="line2d_15">
      <g>
       <use style="stroke:#000000;stroke-width:0.8;" x="67.95" xlink:href="#m0664f406e5" y="145.44"/>
      </g>
     </g>
    </g>
    <g id="xtick_8">
     <g id="line2d_16">
      <g>
       <use style="stroke:#000000;stroke-width:0.8;" x="123.75" xlink:href="#m0664f406e5" y="145.44"/>
      </g>
     </g>
    </g>
    <g id="xtick_9">
     <g id="line2d_17">
      <g>
       <use style="stroke:#000000;stroke-width:0.8;" x="179.55" xlink:href="#m0664f406e5" y="145.44"/>
      </g>
     </g>
    </g>
    <g id="xtick_10">
     <g id="line2d_18">
      <g>
       <use style="stroke:#000000;stroke-width:0.8;" x="235.35" xlink:href="#m0664f406e5" y="145.44"/>
      </g>
     </g>
    </g>
    <g id="xtick_11">
     <g id="line2d_19">
      <g>
       <use style="stroke:#000000;stroke-width:0.8;" x="291.15" xlink:href="#m0664f406e5" y="145.44"/>
      </g>
     </g>
    </g>
    <g id="xtick_12">
     <g id="line2d_20">
      <g>
       <use style="stroke:#000000;stroke-width:0.8;" x="346.95" xlink:href="#m0664f406e5" y="145.44"/>
      </g>
     </g>
    </g>
   </g>
   <g id="matplotlib.axis_4">
    <g id="ytick_6">
     <g id="line2d_21">
      <g>
       <use style="stroke:#000000;stroke-width:0.8;" x="54" xlink:href="#mbbfa2aacb4" y="123.264"/>
      </g>
     </g>
    </g>
    <g id="ytick_7">
     <g id="line2d_22">
      <g>
       <use style="stroke:#000000;stroke-width:0.8;" x="54" xlink:href="#mbbfa2aacb4" y="101.088"/>
      </g>
     </g>
    </g>
    <g id="ytick_8">
     <g id="line2d_23">
      <g>
       <use style="stroke:#000000;stroke-width:0.8;" x="54" xlink:href="#mbbfa2aacb4" y="78.912"/>
      </g>
     </g>
    </g>
    <g id="ytick_9">
     <g id="line2d_24">
      <g>
       <use style="stroke:#000000;stroke-width:0.8;" x="54" xlink:href="#mbbfa2aacb4" y="56.736"/>
      </g>
     </g>
    </g>
    <g id="ytick_10">
     <g id="line2d_25">
      <g>
       <use style="stroke:#000000;stroke-width:0.8;" x="54" xlink:href="#mbbfa2aacb4" y="34.56"/>
      </g>
     </g>
    </g>
   </g>
   <g id="line2d_26">
    <path clip-path="url(#pfaf975e157)" d="M 54 142.346872 
L 59.58 141.652935 
L 64.323 140.840756 
L 68.229 139.938867 
L 71.298 139.014667 
L 74.088 137.942125 
L 76.32 136.867311 
L 78.552 135.533576 
L 80.505 134.086137 
L 82.179 132.573678 
L 83.853 130.738261 
L 85.248 128.896949 
L 86.643 126.700139 
L 88.038 124.061793 
L 89.433 120.874764 
L 90.828 117.008926 
L 92.223 112.314117 
L 93.618 106.634875 
L 95.013 99.850075 
L 96.408 91.957798 
L 100.872 65.500781 
L 101.709 62.612432 
L 102.267 61.482313 
L 102.546 61.179693 
L 102.825 61.05775 
L 103.104 61.117829 
L 103.383 61.358859 
L 103.941 62.367666 
L 104.499 64.03041 
L 105.336 67.563653 
L 106.452 73.653983 
L 110.916 99.915277 
L 112.311 106.268902 
L 113.706 111.521894 
L 115.101 115.803831 
L 116.496 119.268746 
L 117.891 122.061104 
L 119.286 124.303822 
L 120.681 126.096456 
L 122.076 127.517383 
L 123.471 128.627107 
L 124.866 129.471475 
L 126.261 130.084379 
L 127.656 130.489847 
L 129.33 130.724141 
L 131.004 130.695119 
L 132.678 130.401855 
L 134.073 129.94515 
L 135.468 129.277784 
L 136.863 128.374285 
L 138.258 127.199031 
L 139.653 125.704066 
L 141.048 123.826306 
L 142.443 121.484267 
L 143.559 119.207846 
L 144.675 116.505105 
L 145.791 113.303252 
L 146.907 109.523345 
L 148.023 105.087952 
L 149.418 98.534178 
L 150.813 90.861697 
L 153.324 75.353171 
L 154.719 67.486592 
L 155.556 63.855885 
L 156.114 62.114277 
L 156.672 61.018489 
L 156.951 60.732045 
L 157.23 60.625953 
L 157.509 60.701827 
L 157.788 60.958863 
L 158.346 62.001339 
L 158.904 63.701474 
L 159.741 67.300723 
L 160.857 73.500708 
L 165.321 100.383879 
L 166.716 106.961437 
L 168.111 112.446147 
L 169.506 116.968525 
L 170.901 120.684889 
L 172.296 123.742752 
L 173.691 126.268591 
L 175.086 128.365985 
L 176.481 130.117868 
L 178.155 131.855576 
L 179.829 133.277523 
L 181.782 134.624882 
L 183.735 135.710332 
L 185.967 136.702792 
L 188.478 137.575481 
L 191.268 138.313586 
L 194.616 138.954604 
L 198.243 139.417258 
L 202.428 139.713074 
L 206.613 139.789468 
L 210.798 139.654087 
L 214.704 139.318452 
L 218.331 138.787066 
L 221.4 138.124515 
L 224.19 137.297955 
L 226.701 136.310973 
L 228.933 135.176433 
L 230.886 133.922196 
L 232.56 132.595972 
L 234.234 130.973299 
L 235.629 129.33624 
L 237.024 127.375541 
L 238.419 125.013668 
L 239.814 122.153386 
L 241.209 118.674973 
L 242.604 114.436465 
L 243.999 109.282031 
L 245.394 103.068589 
L 246.789 95.728001 
L 248.463 85.633842 
L 250.974 70.271507 
L 251.811 66.218103 
L 252.648 63.301056 
L 253.206 62.14344 
L 253.485 61.82568 
L 253.764 61.688261 
L 254.043 61.732998 
L 254.322 61.959293 
L 254.88 62.942261 
L 255.438 64.586677 
L 256.275 68.111663 
L 257.391 74.232118 
L 262.134 102.352359 
L 263.529 108.673313 
L 264.924 113.923122 
L 266.319 118.240841 
L 267.714 121.782581 
L 269.109 124.692205 
L 270.504 127.091688 
L 271.899 129.08034 
L 273.573 131.034818 
L 275.247 132.617068 
L 276.921 133.906928 
L 278.874 135.121656 
L 281.106 136.212344 
L 283.338 137.05741 
L 285.849 137.78025 
L 288.639 138.360913 
L 291.708 138.783103 
L 295.056 139.027916 
L 298.683 139.065603 
L 302.31 138.868304 
L 305.658 138.454372 
L 308.727 137.837383 
L 311.238 137.117985 
L 313.47 136.26984 
L 315.423 135.321766 
L 317.376 134.127607 
L 319.05 132.854814 
L 320.724 131.288842 
L 322.119 129.702793 
L 323.514 127.79786 
L 324.909 125.498034 
L 326.304 122.707862 
L 327.699 119.309548 
L 329.094 115.162829 
L 330.489 110.112426 
L 331.884 104.012715 
L 333.279 96.786358 
L 334.953 86.799223 
L 337.743 69.908618 
L 338.58 66.074338 
L 339.138 64.168394 
L 339.696 62.8912 
L 340.254 62.307652 
L 340.533 62.28715 
L 340.812 62.44876 
L 341.37 63.3077 
L 341.928 64.840697 
L 342.765 68.233026 
L 343.881 74.252541 
L 348.903 103.975776 
L 350.298 110.198503 
L 351.693 115.365999 
L 353.088 119.622173 
L 354.483 123.122842 
L 355.878 126.009648 
L 357.273 128.401935 
L 358.668 130.39661 
L 360.342 132.373013 
L 362.016 133.990829 
L 363.969 135.528108 
L 365.922 136.774782 
L 368.154 137.928836 
L 370.665 138.966736 
L 373.455 139.880098 
L 376.803 140.734165 
L 380.709 141.494182 
L 385.452 142.182551 
L 389.079 142.587866 
L 389.079 142.587866 
" style="fill:none;stroke:#0000ff;stroke-linecap:square;stroke-width:1.5;"/>
   </g>
   <g id="patch_9">
    <path d="M 54 145.44 
L 54 34.56 
" style="fill:none;stroke:#000000;stroke-linecap:square;stroke-linejoin:miter;stroke-width:0.8;"/>
   </g>
   <g id="patch_10">
    <path d="M 388.8 145.44 
L 388.8 34.56 
" style="fill:none;stroke:#000000;stroke-linecap:square;stroke-linejoin:miter;stroke-width:0.8;"/>
   </g>
   <g id="patch_11">
    <path d="M 54 145.44 
L 388.8 145.44 
" style="fill:none;stroke:#000000;stroke-linecap:square;stroke-linejoin:miter;stroke-width:0.8;"/>
   </g>
   <g id="patch_12">
    <path d="M 54 34.56 
L 388.8 34.56 
" style="fill:none;stroke:#000000;stroke-linecap:square;stroke-linejoin:miter;stroke-width:0.8;"/>
   </g>
   <g id="legend_2">
    <g id="patch_13">
     <path d="M 323.8 57.238125 
L 381.8 57.238125 
Q 383.8 57.238125 383.8 55.238125 
L 383.8 41.56 
Q 383.8 39.56 381.8 39.56 
L 323.8 39.56 
Q 321.8 39.56 321.8 41.56 
L 321.8 55.238125 
Q 321.8 57.238125 323.8 57.238125 
z
" style="fill:#ffffff;opacity:0.8;stroke:#cccccc;stroke-linejoin:miter;"/>
    </g>
    <g id="line2d_27">
     <path d="M 325.8 47.658437 
L 345.8 47.658437 
" style="fill:none;stroke:#0000ff;stroke-linecap:square;stroke-width:1.5;"/>
    </g>
    <g id="line2d_28"/>
    <g id="text_10">
     <!-- $\Delta$SCF -->
     <g transform="translate(353.8 51.158437)scale(0.1 -0.1)">
      <defs>
       <path d="M 34.1875 63.1875 
L 14.15625 8.203125 
L 54.25 8.203125 
z
M 0.78125 0 
L 28.609375 72.90625 
L 39.796875 72.90625 
L 67.578125 0 
z
" id="DejaVuSans-916"/>
       <path d="M 53.515625 70.515625 
L 53.515625 60.890625 
Q 47.90625 63.578125 42.921875 64.890625 
Q 37.9375 66.21875 33.296875 66.21875 
Q 25.25 66.21875 20.875 63.09375 
Q 16.5 59.96875 16.5 54.203125 
Q 16.5 49.359375 19.40625 46.890625 
Q 22.3125 44.4375 30.421875 42.921875 
L 36.375 41.703125 
Q 47.40625 39.59375 52.65625 34.296875 
Q 57.90625 29 57.90625 20.125 
Q 57.90625 9.515625 50.796875 4.046875 
Q 43.703125 -1.421875 29.984375 -1.421875 
Q 24.8125 -1.421875 18.96875 -0.25 
Q 13.140625 0.921875 6.890625 3.21875 
L 6.890625 13.375 
Q 12.890625 10.015625 18.65625 8.296875 
Q 24.421875 6.59375 29.984375 6.59375 
Q 38.421875 6.59375 43.015625 9.90625 
Q 47.609375 13.234375 47.609375 19.390625 
Q 47.609375 24.75 44.3125 27.78125 
Q 41.015625 30.8125 33.5 32.328125 
L 27.484375 33.5 
Q 16.453125 35.6875 11.515625 40.375 
Q 6.59375 45.0625 6.59375 53.421875 
Q 6.59375 63.09375 13.40625 68.65625 
Q 20.21875 74.21875 32.171875 74.21875 
Q 37.3125 74.21875 42.625 73.28125 
Q 47.953125 72.359375 53.515625 70.515625 
z
" id="DejaVuSans-83"/>
       <path d="M 64.40625 67.28125 
L 64.40625 56.890625 
Q 59.421875 61.53125 53.78125 63.8125 
Q 48.140625 66.109375 41.796875 66.109375 
Q 29.296875 66.109375 22.65625 58.46875 
Q 16.015625 50.828125 16.015625 36.375 
Q 16.015625 21.96875 22.65625 14.328125 
Q 29.296875 6.6875 41.796875 6.6875 
Q 48.140625 6.6875 53.78125 8.984375 
Q 59.421875 11.28125 64.40625 15.921875 
L 64.40625 5.609375 
Q 59.234375 2.09375 53.4375 0.328125 
Q 47.65625 -1.421875 41.21875 -1.421875 
Q 24.65625 -1.421875 15.125 8.703125 
Q 5.609375 18.84375 5.609375 36.375 
Q 5.609375 53.953125 15.125 64.078125 
Q 24.65625 74.21875 41.21875 74.21875 
Q 47.75 74.21875 53.53125 72.484375 
Q 59.328125 70.75 64.40625 67.28125 
z
" id="DejaVuSans-67"/>
       <path d="M 9.8125 72.90625 
L 51.703125 72.90625 
L 51.703125 64.59375 
L 19.671875 64.59375 
L 19.671875 43.109375 
L 48.578125 43.109375 
L 48.578125 34.8125 
L 19.671875 34.8125 
L 19.671875 0 
L 9.8125 0 
z
" id="DejaVuSans-70"/>
      </defs>
      <use transform="translate(0 0.78125)" xlink:href="#DejaVuSans-916"/>
      <use transform="translate(68.408203 0.78125)" xlink:href="#DejaVuSans-83"/>
      <use transform="translate(131.884766 0.78125)" xlink:href="#DejaVuSans-67"/>
      <use transform="translate(201.708984 0.78125)" xlink:href="#DejaVuSans-70"/>
     </g>
    </g>
   </g>
  </g>
 </g>
 <defs>
  <clipPath id="pccaa7cd4b7">
   <rect height="110.88" width="334.8" x="54" y="145.44"/>
  </clipPath>
  <clipPath id="pfaf975e157">
   <rect height="110.88" width="334.8" x="54" y="34.56"/>
  </clipPath>
 </defs>
</svg>
