<?xml version="1.0" encoding="utf-8" standalone="no"?>
<!DOCTYPE svg PUBLIC "-//W3C//DTD SVG 1.1//EN"
  "http://www.w3.org/Graphics/SVG/1.1/DTD/svg11.dtd">
<!-- Created with matplotlib (https://matplotlib.org/) -->
<svg height="360pt" version="1.1" viewBox="0 0 432 360" width="432pt" xmlns="http://www.w3.org/2000/svg" xmlns:xlink="http://www.w3.org/1999/xlink">
 <metadata>
  <rdf:RDF xmlns:cc="http://creativecommons.org/ns#" xmlns:dc="http://purl.org/dc/elements/1.1/" xmlns:rdf="http://www.w3.org/1999/02/22-rdf-syntax-ns#">
   <cc:Work>
    <dc:type rdf:resource="http://purl.org/dc/dcmitype/StillImage"/>
    <dc:date>2021-07-02T17:31:16.641202</dc:date>
    <dc:format>image/svg+xml</dc:format>
    <dc:creator>
     <cc:Agent>
      <dc:title>Matplotlib v3.3.4, https://matplotlib.org/</dc:title>
     </cc:Agent>
    </dc:creator>
   </cc:Work>
  </rdf:RDF>
 </metadata>
 <defs>
  <style type="text/css">*{stroke-linecap:butt;stroke-linejoin:round;}</style>
 </defs>
 <g id="figure_1">
  <g id="patch_1">
   <path d="M 0 360 
L 432 360 
L 432 0 
L 0 0 
z
" style="fill:none;"/>
  </g>
  <g id="axes_1">
   <g id="patch_2">
    <path d="M 14.3 150.6 
L 411.6375 150.6 
L 411.6375 10.8 
L 14.3 10.8 
z
" style="fill:#ffffff;"/>
   </g>
   <g id="matplotlib.axis_1">
    <g id="xtick_1">
     <g id="line2d_1">
      <defs>
       <path d="M 0 0 
L 0 3.5 
" id="m401a025492" style="stroke:#000000;stroke-width:0.8;"/>
      </defs>
      <g>
       <use style="stroke:#000000;stroke-width:0.8;" x="50.421591" xlink:href="#m401a025492" y="150.6"/>
      </g>
     </g>
     <g id="text_1">
      <!-- 290 -->
      <g transform="translate(40.877841 165.198438)scale(0.1 -0.1)">
       <defs>
        <path d="M 19.1875 8.296875 
L 53.609375 8.296875 
L 53.609375 0 
L 7.328125 0 
L 7.328125 8.296875 
Q 12.9375 14.109375 22.625 23.890625 
Q 32.328125 33.6875 34.8125 36.53125 
Q 39.546875 41.84375 41.421875 45.53125 
Q 43.3125 49.21875 43.3125 52.78125 
Q 43.3125 58.59375 39.234375 62.25 
Q 35.15625 65.921875 28.609375 65.921875 
Q 23.96875 65.921875 18.8125 64.3125 
Q 13.671875 62.703125 7.8125 59.421875 
L 7.8125 69.390625 
Q 13.765625 71.78125 18.9375 73 
Q 24.125 74.21875 28.421875 74.21875 
Q 39.75 74.21875 46.484375 68.546875 
Q 53.21875 62.890625 53.21875 53.421875 
Q 53.21875 48.921875 51.53125 44.890625 
Q 49.859375 40.875 45.40625 35.40625 
Q 44.1875 33.984375 37.640625 27.21875 
Q 31.109375 20.453125 19.1875 8.296875 
z
" id="DejaVuSans-50"/>
        <path d="M 10.984375 1.515625 
L 10.984375 10.5 
Q 14.703125 8.734375 18.5 7.8125 
Q 22.3125 6.890625 25.984375 6.890625 
Q 35.75 6.890625 40.890625 13.453125 
Q 46.046875 20.015625 46.78125 33.40625 
Q 43.953125 29.203125 39.59375 26.953125 
Q 35.25 24.703125 29.984375 24.703125 
Q 19.046875 24.703125 12.671875 31.3125 
Q 6.296875 37.9375 6.296875 49.421875 
Q 6.296875 60.640625 12.9375 67.421875 
Q 19.578125 74.21875 30.609375 74.21875 
Q 43.265625 74.21875 49.921875 64.515625 
Q 56.59375 54.828125 56.59375 36.375 
Q 56.59375 19.140625 48.40625 8.859375 
Q 40.234375 -1.421875 26.421875 -1.421875 
Q 22.703125 -1.421875 18.890625 -0.6875 
Q 15.09375 0.046875 10.984375 1.515625 
z
M 30.609375 32.421875 
Q 37.25 32.421875 41.125 36.953125 
Q 45.015625 41.5 45.015625 49.421875 
Q 45.015625 57.28125 41.125 61.84375 
Q 37.25 66.40625 30.609375 66.40625 
Q 23.96875 66.40625 20.09375 61.84375 
Q 16.21875 57.28125 16.21875 49.421875 
Q 16.21875 41.5 20.09375 36.953125 
Q 23.96875 32.421875 30.609375 32.421875 
z
" id="DejaVuSans-57"/>
        <path d="M 31.78125 66.40625 
Q 24.171875 66.40625 20.328125 58.90625 
Q 16.5 51.421875 16.5 36.375 
Q 16.5 21.390625 20.328125 13.890625 
Q 24.171875 6.390625 31.78125 6.390625 
Q 39.453125 6.390625 43.28125 13.890625 
Q 47.125 21.390625 47.125 36.375 
Q 47.125 51.421875 43.28125 58.90625 
Q 39.453125 66.40625 31.78125 66.40625 
z
M 31.78125 74.21875 
Q 44.046875 74.21875 50.515625 64.515625 
Q 56.984375 54.828125 56.984375 36.375 
Q 56.984375 17.96875 50.515625 8.265625 
Q 44.046875 -1.421875 31.78125 -1.421875 
Q 19.53125 -1.421875 13.0625 8.265625 
Q 6.59375 17.96875 6.59375 36.375 
Q 6.59375 54.828125 13.0625 64.515625 
Q 19.53125 74.21875 31.78125 74.21875 
z
" id="DejaVuSans-48"/>
       </defs>
       <use xlink:href="#DejaVuSans-50"/>
       <use x="63.623047" xlink:href="#DejaVuSans-57"/>
       <use x="127.246094" xlink:href="#DejaVuSans-48"/>
      </g>
     </g>
    </g>
    <g id="xtick_2">
     <g id="line2d_2">
      <g>
       <use style="stroke:#000000;stroke-width:0.8;" x="122.664773" xlink:href="#m401a025492" y="150.6"/>
      </g>
     </g>
     <g id="text_2">
      <!-- 292 -->
      <g transform="translate(113.121023 165.198438)scale(0.1 -0.1)">
       <use xlink:href="#DejaVuSans-50"/>
       <use x="63.623047" xlink:href="#DejaVuSans-57"/>
       <use x="127.246094" xlink:href="#DejaVuSans-50"/>
      </g>
     </g>
    </g>
    <g id="xtick_3">
     <g id="line2d_3">
      <g>
       <use style="stroke:#000000;stroke-width:0.8;" x="194.907955" xlink:href="#m401a025492" y="150.6"/>
      </g>
     </g>
     <g id="text_3">
      <!-- 294 -->
      <g transform="translate(185.364205 165.198438)scale(0.1 -0.1)">
       <defs>
        <path d="M 37.796875 64.3125 
L 12.890625 25.390625 
L 37.796875 25.390625 
z
M 35.203125 72.90625 
L 47.609375 72.90625 
L 47.609375 25.390625 
L 58.015625 25.390625 
L 58.015625 17.1875 
L 47.609375 17.1875 
L 47.609375 0 
L 37.796875 0 
L 37.796875 17.1875 
L 4.890625 17.1875 
L 4.890625 26.703125 
z
" id="DejaVuSans-52"/>
       </defs>
       <use xlink:href="#DejaVuSans-50"/>
       <use x="63.623047" xlink:href="#DejaVuSans-57"/>
       <use x="127.246094" xlink:href="#DejaVuSans-52"/>
      </g>
     </g>
    </g>
    <g id="xtick_4">
     <g id="line2d_4">
      <g>
       <use style="stroke:#000000;stroke-width:0.8;" x="267.151136" xlink:href="#m401a025492" y="150.6"/>
      </g>
     </g>
     <g id="text_4">
      <!-- 296 -->
      <g transform="translate(257.607386 165.198438)scale(0.1 -0.1)">
       <defs>
        <path d="M 33.015625 40.375 
Q 26.375 40.375 22.484375 35.828125 
Q 18.609375 31.296875 18.609375 23.390625 
Q 18.609375 15.53125 22.484375 10.953125 
Q 26.375 6.390625 33.015625 6.390625 
Q 39.65625 6.390625 43.53125 10.953125 
Q 47.40625 15.53125 47.40625 23.390625 
Q 47.40625 31.296875 43.53125 35.828125 
Q 39.65625 40.375 33.015625 40.375 
z
M 52.59375 71.296875 
L 52.59375 62.3125 
Q 48.875 64.0625 45.09375 64.984375 
Q 41.3125 65.921875 37.59375 65.921875 
Q 27.828125 65.921875 22.671875 59.328125 
Q 17.53125 52.734375 16.796875 39.40625 
Q 19.671875 43.65625 24.015625 45.921875 
Q 28.375 48.1875 33.59375 48.1875 
Q 44.578125 48.1875 50.953125 41.515625 
Q 57.328125 34.859375 57.328125 23.390625 
Q 57.328125 12.15625 50.6875 5.359375 
Q 44.046875 -1.421875 33.015625 -1.421875 
Q 20.359375 -1.421875 13.671875 8.265625 
Q 6.984375 17.96875 6.984375 36.375 
Q 6.984375 53.65625 15.1875 63.9375 
Q 23.390625 74.21875 37.203125 74.21875 
Q 40.921875 74.21875 44.703125 73.484375 
Q 48.484375 72.75 52.59375 71.296875 
z
" id="DejaVuSans-54"/>
       </defs>
       <use xlink:href="#DejaVuSans-50"/>
       <use x="63.623047" xlink:href="#DejaVuSans-57"/>
       <use x="127.246094" xlink:href="#DejaVuSans-54"/>
      </g>
     </g>
    </g>
    <g id="xtick_5">
     <g id="line2d_5">
      <g>
       <use style="stroke:#000000;stroke-width:0.8;" x="339.394318" xlink:href="#m401a025492" y="150.6"/>
      </g>
     </g>
     <g id="text_5">
      <!-- 298 -->
      <g transform="translate(329.850568 165.198438)scale(0.1 -0.1)">
       <defs>
        <path d="M 31.78125 34.625 
Q 24.75 34.625 20.71875 30.859375 
Q 16.703125 27.09375 16.703125 20.515625 
Q 16.703125 13.921875 20.71875 10.15625 
Q 24.75 6.390625 31.78125 6.390625 
Q 38.8125 6.390625 42.859375 10.171875 
Q 46.921875 13.96875 46.921875 20.515625 
Q 46.921875 27.09375 42.890625 30.859375 
Q 38.875 34.625 31.78125 34.625 
z
M 21.921875 38.8125 
Q 15.578125 40.375 12.03125 44.71875 
Q 8.5 49.078125 8.5 55.328125 
Q 8.5 64.0625 14.71875 69.140625 
Q 20.953125 74.21875 31.78125 74.21875 
Q 42.671875 74.21875 48.875 69.140625 
Q 55.078125 64.0625 55.078125 55.328125 
Q 55.078125 49.078125 51.53125 44.71875 
Q 48 40.375 41.703125 38.8125 
Q 48.828125 37.15625 52.796875 32.3125 
Q 56.78125 27.484375 56.78125 20.515625 
Q 56.78125 9.90625 50.3125 4.234375 
Q 43.84375 -1.421875 31.78125 -1.421875 
Q 19.734375 -1.421875 13.25 4.234375 
Q 6.78125 9.90625 6.78125 20.515625 
Q 6.78125 27.484375 10.78125 32.3125 
Q 14.796875 37.15625 21.921875 38.8125 
z
M 18.3125 54.390625 
Q 18.3125 48.734375 21.84375 45.5625 
Q 25.390625 42.390625 31.78125 42.390625 
Q 38.140625 42.390625 41.71875 45.5625 
Q 45.3125 48.734375 45.3125 54.390625 
Q 45.3125 60.0625 41.71875 63.234375 
Q 38.140625 66.40625 31.78125 66.40625 
Q 25.390625 66.40625 21.84375 63.234375 
Q 18.3125 60.0625 18.3125 54.390625 
z
" id="DejaVuSans-56"/>
       </defs>
       <use xlink:href="#DejaVuSans-50"/>
       <use x="63.623047" xlink:href="#DejaVuSans-57"/>
       <use x="127.246094" xlink:href="#DejaVuSans-56"/>
      </g>
     </g>
    </g>
    <g id="xtick_6">
     <g id="line2d_6">
      <g>
       <use style="stroke:#000000;stroke-width:0.8;" x="411.6375" xlink:href="#m401a025492" y="150.6"/>
      </g>
     </g>
     <g id="text_6">
      <!-- 300 -->
      <g transform="translate(402.09375 165.198438)scale(0.1 -0.1)">
       <defs>
        <path d="M 40.578125 39.3125 
Q 47.65625 37.796875 51.625 33 
Q 55.609375 28.21875 55.609375 21.1875 
Q 55.609375 10.40625 48.1875 4.484375 
Q 40.765625 -1.421875 27.09375 -1.421875 
Q 22.515625 -1.421875 17.65625 -0.515625 
Q 12.796875 0.390625 7.625 2.203125 
L 7.625 11.71875 
Q 11.71875 9.328125 16.59375 8.109375 
Q 21.484375 6.890625 26.8125 6.890625 
Q 36.078125 6.890625 40.9375 10.546875 
Q 45.796875 14.203125 45.796875 21.1875 
Q 45.796875 27.640625 41.28125 31.265625 
Q 36.765625 34.90625 28.71875 34.90625 
L 20.21875 34.90625 
L 20.21875 43.015625 
L 29.109375 43.015625 
Q 36.375 43.015625 40.234375 45.921875 
Q 44.09375 48.828125 44.09375 54.296875 
Q 44.09375 59.90625 40.109375 62.90625 
Q 36.140625 65.921875 28.71875 65.921875 
Q 24.65625 65.921875 20.015625 65.03125 
Q 15.375 64.15625 9.8125 62.3125 
L 9.8125 71.09375 
Q 15.4375 72.65625 20.34375 73.4375 
Q 25.25 74.21875 29.59375 74.21875 
Q 40.828125 74.21875 47.359375 69.109375 
Q 53.90625 64.015625 53.90625 55.328125 
Q 53.90625 49.265625 50.4375 45.09375 
Q 46.96875 40.921875 40.578125 39.3125 
z
" id="DejaVuSans-51"/>
       </defs>
       <use xlink:href="#DejaVuSans-51"/>
       <use x="63.623047" xlink:href="#DejaVuSans-48"/>
       <use x="127.246094" xlink:href="#DejaVuSans-48"/>
      </g>
     </g>
    </g>
   </g>
   <g id="matplotlib.axis_2"/>
   <g id="line2d_7">
    <path clip-path="url(#paa527f32c5)" d="M 14.3 141.412287 
L 20.44067 140.603949 
L 25.497693 139.70936 
L 29.471068 138.794569 
L 33.083227 137.734012 
L 35.972955 136.671176 
L 38.501466 135.532699 
L 41.029977 134.138828 
L 43.197273 132.679936 
L 45.003352 131.225583 
L 46.809432 129.497686 
L 48.615511 127.426156 
L 50.060375 125.460519 
L 51.505239 123.156096 
L 52.950102 120.437108 
L 54.394966 117.208616 
L 55.83983 113.352292 
L 57.284693 108.722538 
L 58.729557 103.14484 
L 60.17442 96.420576 
L 61.619284 88.346792 
L 63.064148 78.766339 
L 64.509011 67.671569 
L 67.037523 45.890227 
L 68.482386 34.090286 
L 69.566034 27.029735 
L 70.288466 23.697689 
L 71.010898 21.736032 
L 71.372114 21.317017 
L 71.73333 21.284952 
L 72.094545 21.640032 
L 72.455761 22.375086 
L 73.178193 24.921929 
L 73.900625 28.741047 
L 74.984273 36.291812 
L 76.790352 51.412129 
L 78.957648 69.524591 
L 80.402511 80.090622 
L 81.847375 89.117724 
L 83.292239 96.661117 
L 84.737102 102.894728 
L 86.181966 108.022486 
L 87.62683 112.237179 
L 89.071693 115.705298 
L 90.516557 118.564295 
L 91.96142 120.925 
L 93.406284 122.875672 
L 94.851148 124.486143 
L 96.296011 125.811462 
L 98.102091 127.132117 
L 99.90817 128.138546 
L 101.71425 128.877585 
L 103.52033 129.38241 
L 105.326409 129.675229 
L 107.132489 129.76903 
L 108.938568 129.668595 
L 110.744648 129.370858 
L 112.550727 128.864685 
L 114.356807 128.130015 
L 116.162886 127.1363 
L 117.968966 125.840048 
L 119.41383 124.545559 
L 120.858693 122.979046 
L 122.303557 121.089082 
L 123.74842 118.810396 
L 125.193284 116.060407 
L 126.638148 112.735186 
L 128.083011 108.705278 
L 129.527875 103.812566 
L 130.972739 97.870974 
L 132.417602 90.676966 
L 133.862466 82.041298 
L 135.30733 71.861324 
L 137.113409 57.188156 
L 140.003136 32.93992 
L 141.086784 25.891896 
L 141.809216 22.550188 
L 142.531648 20.568323 
L 142.892864 20.13684 
L 143.25408 20.091724 
L 143.615295 20.433953 
L 143.976511 21.15712 
L 144.698943 23.685858 
L 145.421375 27.498106 
L 146.505023 35.065062 
L 148.311102 50.281365 
L 150.839614 71.399702 
L 152.284477 81.73422 
L 153.729341 90.526552 
L 155.174205 97.870273 
L 156.619068 103.952376 
L 158.063932 108.977453 
L 159.508795 113.133984 
L 160.953659 116.58288 
L 162.398523 119.456389 
L 163.843386 121.861107 
L 165.28825 123.882166 
L 166.733114 125.587324 
L 168.539193 127.35562 
L 170.345273 128.795761 
L 172.151352 129.969781 
L 174.318648 131.092901 
L 176.485943 131.960852 
L 179.014455 132.70875 
L 181.542966 133.217204 
L 184.071477 133.517958 
L 186.961205 133.630818 
L 189.850932 133.507109 
L 192.740659 133.140515 
L 195.26917 132.602031 
L 197.797682 131.830106 
L 199.964977 130.948942 
L 202.132273 129.822722 
L 203.938352 128.657068 
L 205.744432 127.239117 
L 207.550511 125.511872 
L 208.995375 123.857701 
L 210.440239 121.908752 
L 211.885102 119.603249 
L 213.329966 116.863619 
L 214.77483 113.592608 
L 216.219693 109.669031 
L 217.664557 104.944 
L 219.10942 99.239686 
L 220.554284 92.35515 
L 221.999148 84.08836 
L 223.444011 74.290602 
L 224.888875 62.977047 
L 229.584682 24.393024 
L 230.307114 20.619107 
L 231.029545 18.150194 
L 231.390761 17.461521 
L 231.751977 17.154545 
L 232.113193 17.233797 
L 232.474409 17.696398 
L 232.835625 18.532198 
L 233.558057 21.249555 
L 234.280489 25.184047 
L 235.364136 32.784868 
L 237.531432 50.710884 
L 239.337511 65.126958 
L 240.782375 75.123994 
L 242.227239 83.515027 
L 243.672102 90.362747 
L 244.75575 94.585021 
L 245.839398 98.113322 
L 246.923045 101.024156 
L 248.006693 103.385335 
L 249.090341 105.25405 
L 250.173989 106.676445 
L 251.257636 107.687898 
L 252.341284 108.313531 
L 253.063716 108.524259 
L 253.786148 108.572772 
L 254.50858 108.459475 
L 255.231011 108.182956 
L 255.953443 107.739967 
L 257.037091 106.751622 
L 258.120739 105.351267 
L 259.204386 103.503154 
L 260.288034 101.160745 
L 261.371682 98.266459 
L 262.45533 94.752135 
L 263.538977 90.541041 
L 264.622625 85.552771 
L 265.706273 79.713139 
L 267.151136 70.523008 
L 268.596 59.785771 
L 272.930591 25.649769 
L 273.653023 21.810258 
L 274.375455 19.202185 
L 274.73667 18.424987 
L 275.097886 18.022646 
L 275.459102 18.004479 
L 275.820318 18.372493 
L 276.181534 19.121298 
L 276.903966 21.704586 
L 277.626398 25.580758 
L 278.710045 33.268962 
L 280.516125 48.755819 
L 283.044636 70.334687 
L 284.4895 80.939115 
L 285.934364 89.992599 
L 287.379227 97.58515 
L 288.824091 103.903566 
L 290.268955 109.15383 
L 291.713818 113.526392 
L 293.158682 117.184236 
L 294.603545 120.261573 
L 296.048409 122.8668 
L 297.493273 125.08669 
L 299.299352 127.423819 
L 301.105432 129.371558 
L 302.911511 131.009989 
L 305.078807 132.653011 
L 307.246102 134.017956 
L 309.774614 135.337097 
L 312.664341 136.567246 
L 315.915284 137.684047 
L 319.527443 138.677989 
L 323.862034 139.619953 
L 328.919057 140.471549 
L 334.698511 141.21672 
L 341.92283 141.915382 
L 350.953227 142.549665 
L 362.15092 143.104131 
L 376.960773 143.601623 
L 396.827648 144.031714 
L 411.276284 144.245455 
L 411.276284 144.245455 
" style="fill:none;stroke:#1f77b4;stroke-linecap:square;stroke-width:1.5;"/>
   </g>
   <g id="patch_3">
    <path d="M 14.3 150.6 
L 14.3 10.8 
" style="fill:none;stroke:#000000;stroke-linecap:square;stroke-linejoin:miter;stroke-width:0.8;"/>
   </g>
   <g id="patch_4">
    <path d="M 411.6375 150.6 
L 411.6375 10.8 
" style="fill:none;stroke:#000000;stroke-linecap:square;stroke-linejoin:miter;stroke-width:0.8;"/>
   </g>
   <g id="patch_5">
    <path d="M 14.3 150.6 
L 411.6375 150.6 
" style="fill:none;stroke:#000000;stroke-linecap:square;stroke-linejoin:miter;stroke-width:0.8;"/>
   </g>
   <g id="patch_6">
    <path d="M 14.3 10.8 
L 411.6375 10.8 
" style="fill:none;stroke:#000000;stroke-linecap:square;stroke-linejoin:miter;stroke-width:0.8;"/>
   </g>
   <g id="legend_1">
    <g id="patch_7">
     <path d="M 346.6375 33.478125 
L 404.6375 33.478125 
Q 406.6375 33.478125 406.6375 31.478125 
L 406.6375 17.8 
Q 406.6375 15.8 404.6375 15.8 
L 346.6375 15.8 
Q 344.6375 15.8 344.6375 17.8 
L 344.6375 31.478125 
Q 344.6375 33.478125 346.6375 33.478125 
z
" style="fill:#ffffff;opacity:0.8;stroke:#cccccc;stroke-linejoin:miter;"/>
    </g>
    <g id="line2d_8">
     <path d="M 348.6375 23.898438 
L 368.6375 23.898438 
" style="fill:none;stroke:#1f77b4;stroke-linecap:square;stroke-width:1.5;"/>
    </g>
    <g id="line2d_9"/>
    <g id="text_7">
     <!-- $\Delta$SCF -->
     <g transform="translate(376.6375 27.398438)scale(0.1 -0.1)">
      <defs>
       <path d="M 34.1875 63.1875 
L 14.15625 8.203125 
L 54.25 8.203125 
z
M 0.78125 0 
L 28.609375 72.90625 
L 39.796875 72.90625 
L 67.578125 0 
z
" id="DejaVuSans-916"/>
       <path d="M 53.515625 70.515625 
L 53.515625 60.890625 
Q 47.90625 63.578125 42.921875 64.890625 
Q 37.9375 66.21875 33.296875 66.21875 
Q 25.25 66.21875 20.875 63.09375 
Q 16.5 59.96875 16.5 54.203125 
Q 16.5 49.359375 19.40625 46.890625 
Q 22.3125 44.4375 30.421875 42.921875 
L 36.375 41.703125 
Q 47.40625 39.59375 52.65625 34.296875 
Q 57.90625 29 57.90625 20.125 
Q 57.90625 9.515625 50.796875 4.046875 
Q 43.703125 -1.421875 29.984375 -1.421875 
Q 24.8125 -1.421875 18.96875 -0.25 
Q 13.140625 0.921875 6.890625 3.21875 
L 6.890625 13.375 
Q 12.890625 10.015625 18.65625 8.296875 
Q 24.421875 6.59375 29.984375 6.59375 
Q 38.421875 6.59375 43.015625 9.90625 
Q 47.609375 13.234375 47.609375 19.390625 
Q 47.609375 24.75 44.3125 27.78125 
Q 41.015625 30.8125 33.5 32.328125 
L 27.484375 33.5 
Q 16.453125 35.6875 11.515625 40.375 
Q 6.59375 45.0625 6.59375 53.421875 
Q 6.59375 63.09375 13.40625 68.65625 
Q 20.21875 74.21875 32.171875 74.21875 
Q 37.3125 74.21875 42.625 73.28125 
Q 47.953125 72.359375 53.515625 70.515625 
z
" id="DejaVuSans-83"/>
       <path d="M 64.40625 67.28125 
L 64.40625 56.890625 
Q 59.421875 61.53125 53.78125 63.8125 
Q 48.140625 66.109375 41.796875 66.109375 
Q 29.296875 66.109375 22.65625 58.46875 
Q 16.015625 50.828125 16.015625 36.375 
Q 16.015625 21.96875 22.65625 14.328125 
Q 29.296875 6.6875 41.796875 6.6875 
Q 48.140625 6.6875 53.78125 8.984375 
Q 59.421875 11.28125 64.40625 15.921875 
L 64.40625 5.609375 
Q 59.234375 2.09375 53.4375 0.328125 
Q 47.65625 -1.421875 41.21875 -1.421875 
Q 24.65625 -1.421875 15.125 8.703125 
Q 5.609375 18.84375 5.609375 36.375 
Q 5.609375 53.953125 15.125 64.078125 
Q 24.65625 74.21875 41.21875 74.21875 
Q 47.75 74.21875 53.53125 72.484375 
Q 59.328125 70.75 64.40625 67.28125 
z
" id="DejaVuSans-67"/>
       <path d="M 9.8125 72.90625 
L 51.703125 72.90625 
L 51.703125 64.59375 
L 19.671875 64.59375 
L 19.671875 43.109375 
L 48.578125 43.109375 
L 48.578125 34.8125 
L 19.671875 34.8125 
L 19.671875 0 
L 9.8125 0 
z
" id="DejaVuSans-70"/>
      </defs>
      <use transform="translate(0 0.78125)" xlink:href="#DejaVuSans-916"/>
      <use transform="translate(68.408203 0.78125)" xlink:href="#DejaVuSans-83"/>
      <use transform="translate(131.884766 0.78125)" xlink:href="#DejaVuSans-67"/>
      <use transform="translate(201.708984 0.78125)" xlink:href="#DejaVuSans-70"/>
     </g>
    </g>
   </g>
  </g>
  <g id="axes_2">
   <g id="patch_8">
    <path d="M 14.3 318.2 
L 411.6375 318.2 
L 411.6375 178.4 
L 14.3 178.4 
z
" style="fill:#ffffff;"/>
   </g>
   <g id="matplotlib.axis_3">
    <g id="xtick_7">
     <g id="line2d_10">
      <g>
       <use style="stroke:#000000;stroke-width:0.8;" x="50.421591" xlink:href="#m401a025492" y="318.2"/>
      </g>
     </g>
     <g id="text_8">
      <!-- 290 -->
      <g transform="translate(40.877841 332.798437)scale(0.1 -0.1)">
       <use xlink:href="#DejaVuSans-50"/>
       <use x="63.623047" xlink:href="#DejaVuSans-57"/>
       <use x="127.246094" xlink:href="#DejaVuSans-48"/>
      </g>
     </g>
    </g>
    <g id="xtick_8">
     <g id="line2d_11">
      <g>
       <use style="stroke:#000000;stroke-width:0.8;" x="122.664773" xlink:href="#m401a025492" y="318.2"/>
      </g>
     </g>
     <g id="text_9">
      <!-- 292 -->
      <g transform="translate(113.121023 332.798437)scale(0.1 -0.1)">
       <use xlink:href="#DejaVuSans-50"/>
       <use x="63.623047" xlink:href="#DejaVuSans-57"/>
       <use x="127.246094" xlink:href="#DejaVuSans-50"/>
      </g>
     </g>
    </g>
    <g id="xtick_9">
     <g id="line2d_12">
      <g>
       <use style="stroke:#000000;stroke-width:0.8;" x="194.907955" xlink:href="#m401a025492" y="318.2"/>
      </g>
     </g>
     <g id="text_10">
      <!-- 294 -->
      <g transform="translate(185.364205 332.798437)scale(0.1 -0.1)">
       <use xlink:href="#DejaVuSans-50"/>
       <use x="63.623047" xlink:href="#DejaVuSans-57"/>
       <use x="127.246094" xlink:href="#DejaVuSans-52"/>
      </g>
     </g>
    </g>
    <g id="xtick_10">
     <g id="line2d_13">
      <g>
       <use style="stroke:#000000;stroke-width:0.8;" x="267.151136" xlink:href="#m401a025492" y="318.2"/>
      </g>
     </g>
     <g id="text_11">
      <!-- 296 -->
      <g transform="translate(257.607386 332.798437)scale(0.1 -0.1)">
       <use xlink:href="#DejaVuSans-50"/>
       <use x="63.623047" xlink:href="#DejaVuSans-57"/>
       <use x="127.246094" xlink:href="#DejaVuSans-54"/>
      </g>
     </g>
    </g>
    <g id="xtick_11">
     <g id="line2d_14">
      <g>
       <use style="stroke:#000000;stroke-width:0.8;" x="339.394318" xlink:href="#m401a025492" y="318.2"/>
      </g>
     </g>
     <g id="text_12">
      <!-- 298 -->
      <g transform="translate(329.850568 332.798437)scale(0.1 -0.1)">
       <use xlink:href="#DejaVuSans-50"/>
       <use x="63.623047" xlink:href="#DejaVuSans-57"/>
       <use x="127.246094" xlink:href="#DejaVuSans-56"/>
      </g>
     </g>
    </g>
    <g id="xtick_12">
     <g id="line2d_15">
      <g>
       <use style="stroke:#000000;stroke-width:0.8;" x="411.6375" xlink:href="#m401a025492" y="318.2"/>
      </g>
     </g>
     <g id="text_13">
      <!-- 300 -->
      <g transform="translate(402.09375 332.798437)scale(0.1 -0.1)">
       <use xlink:href="#DejaVuSans-51"/>
       <use x="63.623047" xlink:href="#DejaVuSans-48"/>
       <use x="127.246094" xlink:href="#DejaVuSans-48"/>
      </g>
     </g>
    </g>
    <g id="text_14">
     <!-- Energy [eV] -->
     <g transform="translate(183.475 346.476562)scale(0.1 -0.1)">
      <defs>
       <path d="M 9.8125 72.90625 
L 55.90625 72.90625 
L 55.90625 64.59375 
L 19.671875 64.59375 
L 19.671875 43.015625 
L 54.390625 43.015625 
L 54.390625 34.71875 
L 19.671875 34.71875 
L 19.671875 8.296875 
L 56.78125 8.296875 
L 56.78125 0 
L 9.8125 0 
z
" id="DejaVuSans-69"/>
       <path d="M 54.890625 33.015625 
L 54.890625 0 
L 45.90625 0 
L 45.90625 32.71875 
Q 45.90625 40.484375 42.875 44.328125 
Q 39.84375 48.1875 33.796875 48.1875 
Q 26.515625 48.1875 22.3125 43.546875 
Q 18.109375 38.921875 18.109375 30.90625 
L 18.109375 0 
L 9.078125 0 
L 9.078125 54.6875 
L 18.109375 54.6875 
L 18.109375 46.1875 
Q 21.34375 51.125 25.703125 53.5625 
Q 30.078125 56 35.796875 56 
Q 45.21875 56 50.046875 50.171875 
Q 54.890625 44.34375 54.890625 33.015625 
z
" id="DejaVuSans-110"/>
       <path d="M 56.203125 29.59375 
L 56.203125 25.203125 
L 14.890625 25.203125 
Q 15.484375 15.921875 20.484375 11.0625 
Q 25.484375 6.203125 34.421875 6.203125 
Q 39.59375 6.203125 44.453125 7.46875 
Q 49.3125 8.734375 54.109375 11.28125 
L 54.109375 2.78125 
Q 49.265625 0.734375 44.1875 -0.34375 
Q 39.109375 -1.421875 33.890625 -1.421875 
Q 20.796875 -1.421875 13.15625 6.1875 
Q 5.515625 13.8125 5.515625 26.8125 
Q 5.515625 40.234375 12.765625 48.109375 
Q 20.015625 56 32.328125 56 
Q 43.359375 56 49.78125 48.890625 
Q 56.203125 41.796875 56.203125 29.59375 
z
M 47.21875 32.234375 
Q 47.125 39.59375 43.09375 43.984375 
Q 39.0625 48.390625 32.421875 48.390625 
Q 24.90625 48.390625 20.390625 44.140625 
Q 15.875 39.890625 15.1875 32.171875 
z
" id="DejaVuSans-101"/>
       <path d="M 41.109375 46.296875 
Q 39.59375 47.171875 37.8125 47.578125 
Q 36.03125 48 33.890625 48 
Q 26.265625 48 22.1875 43.046875 
Q 18.109375 38.09375 18.109375 28.8125 
L 18.109375 0 
L 9.078125 0 
L 9.078125 54.6875 
L 18.109375 54.6875 
L 18.109375 46.1875 
Q 20.953125 51.171875 25.484375 53.578125 
Q 30.03125 56 36.53125 56 
Q 37.453125 56 38.578125 55.875 
Q 39.703125 55.765625 41.0625 55.515625 
z
" id="DejaVuSans-114"/>
       <path d="M 45.40625 27.984375 
Q 45.40625 37.75 41.375 43.109375 
Q 37.359375 48.484375 30.078125 48.484375 
Q 22.859375 48.484375 18.828125 43.109375 
Q 14.796875 37.75 14.796875 27.984375 
Q 14.796875 18.265625 18.828125 12.890625 
Q 22.859375 7.515625 30.078125 7.515625 
Q 37.359375 7.515625 41.375 12.890625 
Q 45.40625 18.265625 45.40625 27.984375 
z
M 54.390625 6.78125 
Q 54.390625 -7.171875 48.1875 -13.984375 
Q 42 -20.796875 29.203125 -20.796875 
Q 24.46875 -20.796875 20.265625 -20.09375 
Q 16.0625 -19.390625 12.109375 -17.921875 
L 12.109375 -9.1875 
Q 16.0625 -11.328125 19.921875 -12.34375 
Q 23.78125 -13.375 27.78125 -13.375 
Q 36.625 -13.375 41.015625 -8.765625 
Q 45.40625 -4.15625 45.40625 5.171875 
L 45.40625 9.625 
Q 42.625 4.78125 38.28125 2.390625 
Q 33.9375 0 27.875 0 
Q 17.828125 0 11.671875 7.65625 
Q 5.515625 15.328125 5.515625 27.984375 
Q 5.515625 40.671875 11.671875 48.328125 
Q 17.828125 56 27.875 56 
Q 33.9375 56 38.28125 53.609375 
Q 42.625 51.21875 45.40625 46.390625 
L 45.40625 54.6875 
L 54.390625 54.6875 
z
" id="DejaVuSans-103"/>
       <path d="M 32.171875 -5.078125 
Q 28.375 -14.84375 24.75 -17.8125 
Q 21.140625 -20.796875 15.09375 -20.796875 
L 7.90625 -20.796875 
L 7.90625 -13.28125 
L 13.1875 -13.28125 
Q 16.890625 -13.28125 18.9375 -11.515625 
Q 21 -9.765625 23.484375 -3.21875 
L 25.09375 0.875 
L 2.984375 54.6875 
L 12.5 54.6875 
L 29.59375 11.921875 
L 46.6875 54.6875 
L 56.203125 54.6875 
z
" id="DejaVuSans-121"/>
       <path id="DejaVuSans-32"/>
       <path d="M 8.59375 75.984375 
L 29.296875 75.984375 
L 29.296875 69 
L 17.578125 69 
L 17.578125 -6.203125 
L 29.296875 -6.203125 
L 29.296875 -13.1875 
L 8.59375 -13.1875 
z
" id="DejaVuSans-91"/>
       <path d="M 28.609375 0 
L 0.78125 72.90625 
L 11.078125 72.90625 
L 34.1875 11.53125 
L 57.328125 72.90625 
L 67.578125 72.90625 
L 39.796875 0 
z
" id="DejaVuSans-86"/>
       <path d="M 30.421875 75.984375 
L 30.421875 -13.1875 
L 9.71875 -13.1875 
L 9.71875 -6.203125 
L 21.390625 -6.203125 
L 21.390625 69 
L 9.71875 69 
L 9.71875 75.984375 
z
" id="DejaVuSans-93"/>
      </defs>
      <use xlink:href="#DejaVuSans-69"/>
      <use x="63.183594" xlink:href="#DejaVuSans-110"/>
      <use x="126.5625" xlink:href="#DejaVuSans-101"/>
      <use x="188.085938" xlink:href="#DejaVuSans-114"/>
      <use x="227.449219" xlink:href="#DejaVuSans-103"/>
      <use x="290.925781" xlink:href="#DejaVuSans-121"/>
      <use x="350.105469" xlink:href="#DejaVuSans-32"/>
      <use x="381.892578" xlink:href="#DejaVuSans-91"/>
      <use x="420.90625" xlink:href="#DejaVuSans-101"/>
      <use x="482.429688" xlink:href="#DejaVuSans-86"/>
      <use x="550.837891" xlink:href="#DejaVuSans-93"/>
     </g>
    </g>
   </g>
   <g id="matplotlib.axis_4"/>
   <g id="line2d_16">
    <path clip-path="url(#pe6da1f2cdf)" d="M 15.616175 311.788932 
L 19.725439 311.425573 
L 29.114121 311.439928 
L 33.807176 311.724335 
L 38.501088 311.823922 
L 47.891486 311.468638 
L 52.584111 311.845455 
L 61.976225 311.120532 
L 66.670566 311.127709 
L 76.06654 309.571098 
L 80.76946 307.730081 
L 83.720152 304.130587 
L 85.514845 296.740499 
L 85.695573 299.944336 
L 86.724461 288.979875 
L 86.904045 292.430138 
L 87.917778 284.730821 
L 87.958099 276.044305 
L 88.560333 272.718452 
L 89.17801 266.065848 
L 89.219188 257.194512 
L 89.358165 269.392897 
L 89.823138 253.49902 
L 90.428804 249.433888 
L 90.483709 237.605441 
L 91.008734 250.913342 
L 91.089375 233.54031 
L 91.689894 230.584095 
L 91.731072 221.71276 
L 92.331591 218.756546 
L 92.947552 212.47358 
L 92.961278 209.516469 
L 93.127135 215.923843 
L 93.961571 204.712657 
L 95.155745 200.278784 
L 95.687402 196.834587 
L 98.080188 193.608549 
L 99.465702 197.328241 
L 99.847799 200.778813 
L 100.029384 203.797831 
L 102.141208 212.364423 
L 102.320792 215.814686 
L 103.670529 220.006021 
L 105.608203 223.951827 
L 106.760628 228.512502 
L 108.11494 231.718133 
L 109.072339 236.155296 
L 109.842719 238.743965 
L 110.216756 242.440953 
L 110.988852 244.659983 
L 111.561918 247.617992 
L 112.521032 251.685516 
L 113.291412 254.274185 
L 113.663734 258.340812 
L 114.817302 262.655061 
L 117.117003 272.885328 
L 119.429858 280.281696 
L 120.784171 283.487327 
L 121.358381 286.19891 
L 124.847109 293.104221 
L 133.01874 302.480968 
L 137.116137 304.674279 
L 141.804473 305.975193 
L 145.528404 304.348303 
L 147.693417 301.456087 
L 147.706286 298.683795 
L 148.897029 294.9892 
L 148.910755 292.032088 
L 150.102356 288.152673 
L 150.142676 279.466158 
L 150.746626 275.770665 
L 151.364303 269.118061 
L 151.391755 263.203837 
L 151.543887 272.568324 
L 151.995705 259.508345 
L 152.599656 255.812852 
L 152.65456 243.984405 
L 153.258511 240.288913 
L 153.876187 233.636308 
L 153.903639 227.722085 
L 154.056343 236.963358 
L 154.50759 224.026592 
L 155.113256 219.961461 
L 155.140708 214.047237 
L 155.693185 221.440914 
L 156.348609 206.656252 
L 156.527621 210.229728 
L 156.842685 201.944078 
L 158.104527 198.255503 
L 159.574571 194.320383 
L 161.785942 197.700757 
L 163.412425 201.861712 
L 164.100942 204.635077 
L 164.535395 212.767856 
L 166.646648 221.457661 
L 167.417028 224.04633 
L 167.791637 227.620105 
L 168.946349 231.687928 
L 169.12679 234.953372 
L 170.272923 240.869389 
L 170.285792 238.097097 
L 171.229464 245.491372 
L 171.410478 248.633602 
L 172.37045 252.516307 
L 173.14083 255.104976 
L 173.513151 259.171602 
L 174.666719 263.485851 
L 178.12056 277.907154 
L 178.888652 280.988675 
L 180.44085 283.701754 
L 181.20837 286.906488 
L 182.762856 289.126714 
L 184.307619 293.441561 
L 186.444036 296.709995 
L 188.778339 299.485876 
L 191.10878 303.093444 
L 195.202174 306.149246 
L 199.301572 307.911312 
L 203.990337 309.119816 
L 208.682105 309.681452 
L 213.37473 310.058268 
L 218.068213 310.250265 
L 222.763841 309.980213 
L 227.458611 309.894981 
L 232.155097 309.44011 
L 236.85673 307.876322 
L 240.973715 305.849587 
L 242.747819 302.895167 
L 243.95572 295.504182 
L 244.135875 298.831232 
L 245.148178 291.439948 
L 245.175631 285.525724 
L 246.376668 279.613295 
L 246.404121 273.699072 
L 247.605158 267.786643 
L 247.63261 261.872419 
L 248.233129 258.916205 
L 248.84909 252.633239 
L 248.862816 249.676128 
L 249.028102 256.206715 
L 249.465051 246.350274 
L 250.081011 240.067309 
L 250.108464 234.153085 
L 250.260023 243.640785 
L 250.710698 230.827232 
L 251.326659 224.544266 
L 251.354111 218.630043 
L 251.506243 227.994529 
L 252.547428 214.380989 
L 252.574022 208.651585 
L 253.766481 204.587351 
L 253.780207 201.630239 
L 254.794226 193.869316 
L 254.934642 190.00883 
L 254.973524 197.381185 
L 256.792524 184.754545 
L 258.768074 187.776306 
L 260.157119 190.735562 
L 260.665584 193.13901 
L 261.434248 196.097318 
L 261.794559 202.751418 
L 262.007314 199.055327 
L 262.566655 204.970448 
L 262.926966 211.624547 
L 263.139721 207.928456 
L 264.069667 218.279843 
L 264.236955 224.379185 
L 264.248107 221.976532 
L 265.195211 228.631528 
L 265.375367 231.958578 
L 266.333337 236.272528 
L 266.511205 240.09243 
L 267.085987 242.6808 
L 267.639323 249.889657 
L 268.598151 254.018787 
L 268.776877 257.65387 
L 269.735133 261.906213 
L 269.916147 265.048443 
L 270.874403 269.300787 
L 271.055417 272.443017 
L 272.782337 279.653669 
L 273.156946 283.227443 
L 274.31223 287.172053 
L 275.465226 291.609515 
L 276.621654 295.307699 
L 278.561472 298.791457 
L 280.891056 302.583845 
L 284.983592 305.824466 
L 294.356403 309.257982 
L 299.048599 309.727208 
L 308.435137 310.203612 
L 313.126904 310.765247 
L 336.598181 310.893544 
L 345.990295 310.168621 
L 350.691499 308.697243 
L 353.053682 305.466491 
L 354.436877 302.449866 
L 355.628764 298.508845 
L 356.626769 294.197885 
L 356.640495 291.240774 
L 357.848396 283.849789 
L 358.028551 287.176838 
L 359.054581 276.828443 
L 359.233592 280.401918 
L 359.655099 273.872228 
L 360.27106 267.589263 
L 360.450644 271.039525 
L 361.463519 263.525028 
L 361.490971 257.610805 
L 362.684288 253.361751 
L 362.710882 247.632347 
L 363.313117 244.306494 
L 363.929077 238.023528 
L 364.108089 241.597004 
L 365.136978 230.632543 
L 365.150704 227.675432 
L 365.317705 233.83638 
L 366.535901 224.227561 
L 367.529616 220.840699 
L 368.172067 217.576514 
L 370.158355 211.049216 
L 371.24064 213.268721 
L 373.567794 217.584764 
L 375.525953 225.843087 
L 376.294617 228.801395 
L 376.668654 232.498383 
L 377.44075 234.717413 
L 378.00009 240.632533 
L 378.013816 237.675422 
L 378.957489 245.069696 
L 379.726153 248.028004 
L 380.286351 253.758306 
L 380.299219 250.986013 
L 381.244035 258.133862 
L 381.425621 261.152879 
L 383.154257 267.993892 
L 383.528866 271.567667 
L 384.68415 275.512277 
L 386.986711 285.126479 
L 388.139707 289.56394 
L 390.067086 295.727581 
L 391.81288 298.872203 
L 397.062844 305.595386 
L 401.162957 307.203435 
L 405.850435 308.689168 
L 410.54349 308.973575 
L 415.237402 309.073162 
L 419.930027 309.449979 
L 429.318709 309.464334 
L 433 309.252618 
L 433 309.252618 
" style="fill:none;stroke:#1f77b4;stroke-linecap:square;stroke-width:1.5;"/>
   </g>
   <g id="patch_9">
    <path d="M 14.3 318.2 
L 14.3 178.4 
" style="fill:none;stroke:#000000;stroke-linecap:square;stroke-linejoin:miter;stroke-width:0.8;"/>
   </g>
   <g id="patch_10">
    <path d="M 411.6375 318.2 
L 411.6375 178.4 
" style="fill:none;stroke:#000000;stroke-linecap:square;stroke-linejoin:miter;stroke-width:0.8;"/>
   </g>
   <g id="patch_11">
    <path d="M 14.3 318.2 
L 411.6375 318.2 
" style="fill:none;stroke:#000000;stroke-linecap:square;stroke-linejoin:miter;stroke-width:0.8;"/>
   </g>
   <g id="patch_12">
    <path d="M 14.3 178.4 
L 411.6375 178.4 
" style="fill:none;stroke:#000000;stroke-linecap:square;stroke-linejoin:miter;stroke-width:0.8;"/>
   </g>
   <g id="legend_2">
    <g id="patch_13">
     <path d="M 350.13125 201.078125 
L 404.6375 201.078125 
Q 406.6375 201.078125 406.6375 199.078125 
L 406.6375 185.4 
Q 406.6375 183.4 404.6375 183.4 
L 350.13125 183.4 
Q 348.13125 183.4 348.13125 185.4 
L 348.13125 199.078125 
Q 348.13125 201.078125 350.13125 201.078125 
z
" style="fill:#ffffff;opacity:0.8;stroke:#cccccc;stroke-linejoin:miter;"/>
    </g>
    <g id="line2d_17">
     <path d="M 352.13125 191.498437 
L 372.13125 191.498437 
" style="fill:none;stroke:#1f77b4;stroke-linecap:square;stroke-width:1.5;"/>
    </g>
    <g id="line2d_18"/>
    <g id="text_15">
     <!-- Expt -->
     <g transform="translate(380.13125 194.998437)scale(0.1 -0.1)">
      <defs>
       <path d="M 54.890625 54.6875 
L 35.109375 28.078125 
L 55.90625 0 
L 45.3125 0 
L 29.390625 21.484375 
L 13.484375 0 
L 2.875 0 
L 24.125 28.609375 
L 4.6875 54.6875 
L 15.28125 54.6875 
L 29.78125 35.203125 
L 44.28125 54.6875 
z
" id="DejaVuSans-120"/>
       <path d="M 18.109375 8.203125 
L 18.109375 -20.796875 
L 9.078125 -20.796875 
L 9.078125 54.6875 
L 18.109375 54.6875 
L 18.109375 46.390625 
Q 20.953125 51.265625 25.265625 53.625 
Q 29.59375 56 35.59375 56 
Q 45.5625 56 51.78125 48.09375 
Q 58.015625 40.1875 58.015625 27.296875 
Q 58.015625 14.40625 51.78125 6.484375 
Q 45.5625 -1.421875 35.59375 -1.421875 
Q 29.59375 -1.421875 25.265625 0.953125 
Q 20.953125 3.328125 18.109375 8.203125 
z
M 48.6875 27.296875 
Q 48.6875 37.203125 44.609375 42.84375 
Q 40.53125 48.484375 33.40625 48.484375 
Q 26.265625 48.484375 22.1875 42.84375 
Q 18.109375 37.203125 18.109375 27.296875 
Q 18.109375 17.390625 22.1875 11.75 
Q 26.265625 6.109375 33.40625 6.109375 
Q 40.53125 6.109375 44.609375 11.75 
Q 48.6875 17.390625 48.6875 27.296875 
z
" id="DejaVuSans-112"/>
       <path d="M 18.3125 70.21875 
L 18.3125 54.6875 
L 36.8125 54.6875 
L 36.8125 47.703125 
L 18.3125 47.703125 
L 18.3125 18.015625 
Q 18.3125 11.328125 20.140625 9.421875 
Q 21.96875 7.515625 27.59375 7.515625 
L 36.8125 7.515625 
L 36.8125 0 
L 27.59375 0 
Q 17.1875 0 13.234375 3.875 
Q 9.28125 7.765625 9.28125 18.015625 
L 9.28125 47.703125 
L 2.6875 47.703125 
L 2.6875 54.6875 
L 9.28125 54.6875 
L 9.28125 70.21875 
z
" id="DejaVuSans-116"/>
      </defs>
      <use xlink:href="#DejaVuSans-69"/>
      <use x="63.183594" xlink:href="#DejaVuSans-120"/>
      <use x="122.363281" xlink:href="#DejaVuSans-112"/>
      <use x="185.839844" xlink:href="#DejaVuSans-116"/>
     </g>
    </g>
   </g>
  </g>
 </g>
 <defs>
  <clipPath id="paa527f32c5">
   <rect height="139.8" width="397.3375" x="14.3" y="10.8"/>
  </clipPath>
  <clipPath id="pe6da1f2cdf">
   <rect height="139.8" width="397.3375" x="14.3" y="178.4"/>
  </clipPath>
 </defs>
</svg>
