<svg xmlns="http://www.w3.org/2000/svg" xmlns:rdkit="http://www.rdkit.org/xml" xmlns:xlink="http://www.w3.org/1999/xlink" version="1.1" baseProfile="full" xml:space="preserve" width="300px" height="300px" viewBox="0 0 300 300">
<!-- END OF HEADER -->
<rect style="opacity:1.0;fill:#FFFFFF;stroke:none" width="300.0" height="300.0" x="0.0" y="0.0"> </rect>
<path class="bond-0 atom-0 atom-1" d="M 240.1,15.0 L 232.5,40.4" style="fill:none;fill-rule:evenodd;stroke:#000000;stroke-width:2.0px;stroke-linecap:butt;stroke-linejoin:miter;stroke-opacity:1"/>
<path class="bond-0 atom-0 atom-1" d="M 232.5,40.4 L 225.0,65.8" style="fill:none;fill-rule:evenodd;stroke:#0000FF;stroke-width:2.0px;stroke-linecap:butt;stroke-linejoin:miter;stroke-opacity:1"/>
<path class="bond-1 atom-1 atom-2" d="M 231.4,90.6 L 238.4,99.1" style="fill:none;fill-rule:evenodd;stroke:#0000FF;stroke-width:2.0px;stroke-linecap:butt;stroke-linejoin:miter;stroke-opacity:1"/>
<path class="bond-1 atom-1 atom-2" d="M 238.4,99.1 L 245.4,107.6" style="fill:none;fill-rule:evenodd;stroke:#000000;stroke-width:2.0px;stroke-linecap:butt;stroke-linejoin:miter;stroke-opacity:1"/>
<path class="bond-2 atom-2 atom-3" d="M 245.4,107.6 L 234.9,131.1" style="fill:none;fill-rule:evenodd;stroke:#000000;stroke-width:2.0px;stroke-linecap:butt;stroke-linejoin:miter;stroke-opacity:1"/>
<path class="bond-2 atom-2 atom-3" d="M 234.9,131.1 L 224.3,154.6" style="fill:none;fill-rule:evenodd;stroke:#0000FF;stroke-width:2.0px;stroke-linecap:butt;stroke-linejoin:miter;stroke-opacity:1"/>
<path class="bond-2 atom-2 atom-3" d="M 233.7,109.2 L 224.4,129.8" style="fill:none;fill-rule:evenodd;stroke:#000000;stroke-width:2.0px;stroke-linecap:butt;stroke-linejoin:miter;stroke-opacity:1"/>
<path class="bond-2 atom-2 atom-3" d="M 224.4,129.8 L 215.2,150.5" style="fill:none;fill-rule:evenodd;stroke:#0000FF;stroke-width:2.0px;stroke-linecap:butt;stroke-linejoin:miter;stroke-opacity:1"/>
<path class="bond-3 atom-3 atom-4" d="M 208.6,168.8 L 192.5,171.5" style="fill:none;fill-rule:evenodd;stroke:#0000FF;stroke-width:2.0px;stroke-linecap:butt;stroke-linejoin:miter;stroke-opacity:1"/>
<path class="bond-3 atom-3 atom-4" d="M 192.5,171.5 L 176.3,174.2" style="fill:none;fill-rule:evenodd;stroke:#000000;stroke-width:2.0px;stroke-linecap:butt;stroke-linejoin:miter;stroke-opacity:1"/>
<path class="bond-4 atom-4 atom-5" d="M 176.3,174.2 L 177.8,121.4" style="fill:none;fill-rule:evenodd;stroke:#000000;stroke-width:2.0px;stroke-linecap:butt;stroke-linejoin:miter;stroke-opacity:1"/>
<path class="bond-4 atom-4 atom-5" d="M 186.7,162.3 L 187.7,125.7" style="fill:none;fill-rule:evenodd;stroke:#000000;stroke-width:2.0px;stroke-linecap:butt;stroke-linejoin:miter;stroke-opacity:1"/>
<path class="bond-5 atom-5 atom-6" d="M 177.8,121.4 L 138.8,118.9" style="fill:none;fill-rule:evenodd;stroke:#000000;stroke-width:2.0px;stroke-linecap:butt;stroke-linejoin:miter;stroke-opacity:1"/>
<path class="bond-6 atom-6 atom-7" d="M 143.8,119.2 L 144.5,101.2" style="fill:none;fill-rule:evenodd;stroke:#000000;stroke-width:2.0px;stroke-linecap:butt;stroke-linejoin:miter;stroke-opacity:1"/>
<path class="bond-6 atom-6 atom-7" d="M 144.5,101.2 L 145.3,83.3" style="fill:none;fill-rule:evenodd;stroke:#FF0000;stroke-width:2.0px;stroke-linecap:butt;stroke-linejoin:miter;stroke-opacity:1"/>
<path class="bond-6 atom-6 atom-7" d="M 133.5,125.7 L 134.5,100.8" style="fill:none;fill-rule:evenodd;stroke:#000000;stroke-width:2.0px;stroke-linecap:butt;stroke-linejoin:miter;stroke-opacity:1"/>
<path class="bond-6 atom-6 atom-7" d="M 134.5,100.8 L 135.3,82.9" style="fill:none;fill-rule:evenodd;stroke:#FF0000;stroke-width:2.0px;stroke-linecap:butt;stroke-linejoin:miter;stroke-opacity:1"/>
<path class="bond-7 atom-6 atom-8" d="M 138.8,118.9 L 123.5,138.7" style="fill:none;fill-rule:evenodd;stroke:#000000;stroke-width:2.0px;stroke-linecap:butt;stroke-linejoin:miter;stroke-opacity:1"/>
<path class="bond-7 atom-6 atom-8" d="M 123.5,138.7 L 108.2,158.5" style="fill:none;fill-rule:evenodd;stroke:#0000FF;stroke-width:2.0px;stroke-linecap:butt;stroke-linejoin:miter;stroke-opacity:1"/>
<path class="bond-8 atom-8 atom-9" d="M 98.5,183.6 L 98.7,204.4" style="fill:none;fill-rule:evenodd;stroke:#0000FF;stroke-width:2.0px;stroke-linecap:butt;stroke-linejoin:miter;stroke-opacity:1"/>
<path class="bond-8 atom-8 atom-9" d="M 98.7,204.4 L 98.9,225.2" style="fill:none;fill-rule:evenodd;stroke:#000000;stroke-width:2.0px;stroke-linecap:butt;stroke-linejoin:miter;stroke-opacity:1"/>
<path class="bond-9 atom-9 atom-10" d="M 98.8,216.6 L 83.9,237.6" style="fill:none;fill-rule:evenodd;stroke:#000000;stroke-width:2.0px;stroke-linecap:butt;stroke-linejoin:miter;stroke-opacity:1"/>
<path class="bond-9 atom-9 atom-10" d="M 83.9,237.6 L 69.1,258.6" style="fill:none;fill-rule:evenodd;stroke:#FF0000;stroke-width:2.0px;stroke-linecap:butt;stroke-linejoin:miter;stroke-opacity:1"/>
<path class="bond-9 atom-9 atom-10" d="M 104.9,225.4 L 92.1,243.4" style="fill:none;fill-rule:evenodd;stroke:#000000;stroke-width:2.0px;stroke-linecap:butt;stroke-linejoin:miter;stroke-opacity:1"/>
<path class="bond-9 atom-9 atom-10" d="M 92.1,243.4 L 77.3,264.4" style="fill:none;fill-rule:evenodd;stroke:#FF0000;stroke-width:2.0px;stroke-linecap:butt;stroke-linejoin:miter;stroke-opacity:1"/>
<path class="bond-10 atom-9 atom-11" d="M 98.9,225.2 L 113.0,225.7" style="fill:none;fill-rule:evenodd;stroke:#000000;stroke-width:2.0px;stroke-linecap:butt;stroke-linejoin:miter;stroke-opacity:1"/>
<path class="bond-10 atom-9 atom-11" d="M 113.0,225.7 L 127.1,226.1" style="fill:none;fill-rule:evenodd;stroke:#0000FF;stroke-width:2.0px;stroke-linecap:butt;stroke-linejoin:miter;stroke-opacity:1"/>
<path class="bond-11 atom-11 atom-12" d="M 137.6,239.1 L 138.2,261.6" style="fill:none;fill-rule:evenodd;stroke:#0000FF;stroke-width:2.0px;stroke-linecap:butt;stroke-linejoin:miter;stroke-opacity:1"/>
<path class="bond-11 atom-11 atom-12" d="M 138.2,261.6 L 138.9,284.1" style="fill:none;fill-rule:evenodd;stroke:#000000;stroke-width:2.0px;stroke-linecap:butt;stroke-linejoin:miter;stroke-opacity:1"/>
<path class="bond-12 atom-8 atom-13" d="M 88.4,171.0 L 73.0,171.0" style="fill:none;fill-rule:evenodd;stroke:#0000FF;stroke-width:2.0px;stroke-linecap:butt;stroke-linejoin:miter;stroke-opacity:1"/>
<path class="bond-12 atom-8 atom-13" d="M 73.0,171.0 L 57.7,171.0" style="fill:none;fill-rule:evenodd;stroke:#000000;stroke-width:2.0px;stroke-linecap:butt;stroke-linejoin:miter;stroke-opacity:1"/>
<path class="bond-13 atom-5 atom-1" d="M 177.8,121.4 L 194.5,104.9" style="fill:none;fill-rule:evenodd;stroke:#000000;stroke-width:2.0px;stroke-linecap:butt;stroke-linejoin:miter;stroke-opacity:1"/>
<path class="bond-13 atom-5 atom-1" d="M 194.5,104.9 L 211.2,88.3" style="fill:none;fill-rule:evenodd;stroke:#0000FF;stroke-width:2.0px;stroke-linecap:butt;stroke-linejoin:miter;stroke-opacity:1"/>
<path class="bond-14 atom-11 atom-4" d="M 146.6,213.9 L 161.5,194.0" style="fill:none;fill-rule:evenodd;stroke:#0000FF;stroke-width:2.0px;stroke-linecap:butt;stroke-linejoin:miter;stroke-opacity:1"/>
<path class="bond-14 atom-11 atom-4" d="M 161.5,194.0 L 176.3,174.2" style="fill:none;fill-rule:evenodd;stroke:#000000;stroke-width:2.0px;stroke-linecap:butt;stroke-linejoin:miter;stroke-opacity:1"/>
<path d="M 245.0,107.1 L 245.4,107.6 L 244.8,108.7" style="fill:none;stroke:#000000;stroke-width:2.0px;stroke-linecap:butt;stroke-linejoin:miter;stroke-opacity:1;"/>
<path d="M 140.7,119.0 L 138.8,118.9 L 138.0,119.9" style="fill:none;stroke:#000000;stroke-width:2.0px;stroke-linecap:butt;stroke-linejoin:miter;stroke-opacity:1;"/>
<path d="M 98.9,224.2 L 98.9,225.2 L 99.6,225.2" style="fill:none;stroke:#000000;stroke-width:2.0px;stroke-linecap:butt;stroke-linejoin:miter;stroke-opacity:1;"/>
<path class="atom-1" d="M 216.7 68.0 L 223.5 79.0 Q 224.2 80.1, 225.3 82.1 Q 226.4 84.0, 226.4 84.1 L 226.4 68.0 L 229.2 68.0 L 229.2 88.8 L 226.3 88.8 L 219.0 76.8 Q 218.2 75.4, 217.3 73.7 Q 216.4 72.1, 216.1 71.6 L 216.1 88.8 L 213.5 88.8 L 213.5 68.0 L 216.7 68.0 " fill="#0000FF"/>
<path class="atom-3" d="M 214.1 156.8 L 220.9 167.8 Q 221.6 168.9, 222.7 170.8 Q 223.8 172.8, 223.8 172.9 L 223.8 156.8 L 226.6 156.8 L 226.6 177.5 L 223.7 177.5 L 216.4 165.5 Q 215.6 164.1, 214.7 162.5 Q 213.8 160.9, 213.5 160.4 L 213.5 177.5 L 210.8 177.5 L 210.8 156.8 L 214.1 156.8 " fill="#0000FF"/>
<path class="atom-7" d="M 131.3 70.1 Q 131.3 65.1, 133.8 62.4 Q 136.3 59.6, 140.9 59.6 Q 145.4 59.6, 147.9 62.4 Q 150.4 65.1, 150.4 70.1 Q 150.4 75.2, 147.9 78.0 Q 145.4 80.9, 140.9 80.9 Q 136.3 80.9, 133.8 78.0 Q 131.3 75.2, 131.3 70.1 M 140.9 78.5 Q 144.0 78.5, 145.7 76.4 Q 147.4 74.3, 147.4 70.1 Q 147.4 66.0, 145.7 64.0 Q 144.0 61.9, 140.9 61.9 Q 137.7 61.9, 136.0 64.0 Q 134.3 66.0, 134.3 70.1 Q 134.3 74.3, 136.0 76.4 Q 137.7 78.5, 140.9 78.5 " fill="#FF0000"/>
<path class="atom-8" d="M 93.9 160.7 L 100.6 171.6 Q 101.3 172.7, 102.4 174.7 Q 103.5 176.7, 103.5 176.8 L 103.5 160.7 L 106.3 160.7 L 106.3 181.4 L 103.5 181.4 L 96.2 169.4 Q 95.3 168.0, 94.4 166.4 Q 93.5 164.8, 93.3 164.3 L 93.3 181.4 L 90.6 181.4 L 90.6 160.7 L 93.9 160.7 " fill="#0000FF"/>
<path class="atom-10" d="M 54.6 274.3 Q 54.6 269.3, 57.1 266.5 Q 59.6 263.7, 64.2 263.7 Q 68.7 263.7, 71.2 266.5 Q 73.7 269.3, 73.7 274.3 Q 73.7 279.3, 71.2 282.2 Q 68.7 285.0, 64.2 285.0 Q 59.6 285.0, 57.1 282.2 Q 54.6 279.3, 54.6 274.3 M 64.2 282.7 Q 67.3 282.7, 69.0 280.5 Q 70.7 278.4, 70.7 274.3 Q 70.7 270.2, 69.0 268.1 Q 67.3 266.1, 64.2 266.1 Q 61.0 266.1, 59.3 268.1 Q 57.6 270.2, 57.6 274.3 Q 57.6 278.4, 59.3 280.5 Q 61.0 282.7, 64.2 282.7 " fill="#FF0000"/>
<path class="atom-11" d="M 132.6 216.1 L 139.4 227.1 Q 140.1 228.2, 141.2 230.1 Q 142.2 232.1, 142.3 232.2 L 142.3 216.1 L 145.0 216.1 L 145.0 236.8 L 142.2 236.8 L 134.9 224.8 Q 134.1 223.4, 133.2 221.8 Q 132.3 220.2, 132.0 219.7 L 132.0 236.8 L 129.3 236.8 L 129.3 216.1 L 132.6 216.1 " fill="#0000FF"/>
</svg>