<svg xmlns="http://www.w3.org/2000/svg" xmlns:rdkit="http://www.rdkit.org/xml" xmlns:xlink="http://www.w3.org/1999/xlink" version="1.1" baseProfile="full" xml:space="preserve" width="300px" height="300px" viewBox="0 0 300 300">
<!-- END OF HEADER -->
<rect style="opacity:1.0;fill:#FFFFFF;stroke:none" width="300.0" height="300.0" x="0.0" y="0.0"> </rect>
<path class="bond-0 atom-0 atom-1" d="M 239.7,15.0 L 232.1,40.2" style="fill:none;fill-rule:evenodd;stroke:#000000;stroke-width:2.0px;stroke-linecap:butt;stroke-linejoin:miter;stroke-opacity:1"/>
<path class="bond-0 atom-0 atom-1" d="M 232.1,40.2 L 224.4,65.4" style="fill:none;fill-rule:evenodd;stroke:#0000FF;stroke-width:2.0px;stroke-linecap:butt;stroke-linejoin:miter;stroke-opacity:1"/>
<path class="bond-1 atom-1 atom-2" d="M 230.6,90.4 L 237.0,98.4" style="fill:none;fill-rule:evenodd;stroke:#0000FF;stroke-width:2.0px;stroke-linecap:butt;stroke-linejoin:miter;stroke-opacity:1"/>
<path class="bond-1 atom-1 atom-2" d="M 237.0,98.4 L 243.4,106.3" style="fill:none;fill-rule:evenodd;stroke:#000000;stroke-width:2.0px;stroke-linecap:butt;stroke-linejoin:miter;stroke-opacity:1"/>
<path class="bond-2 atom-2 atom-3" d="M 243.4,106.3 L 232.9,129.7" style="fill:none;fill-rule:evenodd;stroke:#000000;stroke-width:2.0px;stroke-linecap:butt;stroke-linejoin:miter;stroke-opacity:1"/>
<path class="bond-2 atom-2 atom-3" d="M 232.9,129.7 L 222.4,153.1" style="fill:none;fill-rule:evenodd;stroke:#0000FF;stroke-width:2.0px;stroke-linecap:butt;stroke-linejoin:miter;stroke-opacity:1"/>
<path class="bond-2 atom-2 atom-3" d="M 231.8,107.8 L 222.5,128.4" style="fill:none;fill-rule:evenodd;stroke:#000000;stroke-width:2.0px;stroke-linecap:butt;stroke-linejoin:miter;stroke-opacity:1"/>
<path class="bond-2 atom-2 atom-3" d="M 222.5,128.4 L 213.3,149.0" style="fill:none;fill-rule:evenodd;stroke:#0000FF;stroke-width:2.0px;stroke-linecap:butt;stroke-linejoin:miter;stroke-opacity:1"/>
<path class="bond-3 atom-3 atom-4" d="M 206.7,167.6 L 191.2,170.5" style="fill:none;fill-rule:evenodd;stroke:#0000FF;stroke-width:2.0px;stroke-linecap:butt;stroke-linejoin:miter;stroke-opacity:1"/>
<path class="bond-3 atom-3 atom-4" d="M 191.2,170.5 L 175.7,173.3" style="fill:none;fill-rule:evenodd;stroke:#000000;stroke-width:2.0px;stroke-linecap:butt;stroke-linejoin:miter;stroke-opacity:1"/>
<path class="bond-4 atom-4 atom-5" d="M 175.7,173.3 L 177.9,121.2" style="fill:none;fill-rule:evenodd;stroke:#000000;stroke-width:2.0px;stroke-linecap:butt;stroke-linejoin:miter;stroke-opacity:1"/>
<path class="bond-4 atom-4 atom-5" d="M 186.2,161.2 L 187.7,125.4" style="fill:none;fill-rule:evenodd;stroke:#000000;stroke-width:2.0px;stroke-linecap:butt;stroke-linejoin:miter;stroke-opacity:1"/>
<path class="bond-5 atom-5 atom-6" d="M 177.9,121.2 L 140.3,119.4" style="fill:none;fill-rule:evenodd;stroke:#000000;stroke-width:2.0px;stroke-linecap:butt;stroke-linejoin:miter;stroke-opacity:1"/>
<path class="bond-6 atom-6 atom-7" d="M 145.3,119.6 L 146.3,102.0" style="fill:none;fill-rule:evenodd;stroke:#000000;stroke-width:2.0px;stroke-linecap:butt;stroke-linejoin:miter;stroke-opacity:1"/>
<path class="bond-6 atom-6 atom-7" d="M 146.3,102.0 L 147.3,84.4" style="fill:none;fill-rule:evenodd;stroke:#FF0000;stroke-width:2.0px;stroke-linecap:butt;stroke-linejoin:miter;stroke-opacity:1"/>
<path class="bond-6 atom-6 atom-7" d="M 134.9,126.5 L 136.3,101.4" style="fill:none;fill-rule:evenodd;stroke:#000000;stroke-width:2.0px;stroke-linecap:butt;stroke-linejoin:miter;stroke-opacity:1"/>
<path class="bond-6 atom-6 atom-7" d="M 136.3,101.4 L 137.3,83.8" style="fill:none;fill-rule:evenodd;stroke:#FF0000;stroke-width:2.0px;stroke-linecap:butt;stroke-linejoin:miter;stroke-opacity:1"/>
<path class="bond-7 atom-6 atom-8" d="M 140.3,119.4 L 125.2,139.2" style="fill:none;fill-rule:evenodd;stroke:#000000;stroke-width:2.0px;stroke-linecap:butt;stroke-linejoin:miter;stroke-opacity:1"/>
<path class="bond-7 atom-6 atom-8" d="M 125.2,139.2 L 110.1,159.1" style="fill:none;fill-rule:evenodd;stroke:#0000FF;stroke-width:2.0px;stroke-linecap:butt;stroke-linejoin:miter;stroke-opacity:1"/>
<path class="bond-8 atom-8 atom-9" d="M 100.5,184.2 L 100.4,204.7" style="fill:none;fill-rule:evenodd;stroke:#0000FF;stroke-width:2.0px;stroke-linecap:butt;stroke-linejoin:miter;stroke-opacity:1"/>
<path class="bond-8 atom-8 atom-9" d="M 100.4,204.7 L 100.2,225.1" style="fill:none;fill-rule:evenodd;stroke:#000000;stroke-width:2.0px;stroke-linecap:butt;stroke-linejoin:miter;stroke-opacity:1"/>
<path class="bond-9 atom-9 atom-10" d="M 100.3,216.3 L 85.5,237.5" style="fill:none;fill-rule:evenodd;stroke:#000000;stroke-width:2.0px;stroke-linecap:butt;stroke-linejoin:miter;stroke-opacity:1"/>
<path class="bond-9 atom-9 atom-10" d="M 85.5,237.5 L 70.8,258.7" style="fill:none;fill-rule:evenodd;stroke:#FF0000;stroke-width:2.0px;stroke-linecap:butt;stroke-linejoin:miter;stroke-opacity:1"/>
<path class="bond-9 atom-9 atom-10" d="M 106.3,225.2 L 93.7,243.2" style="fill:none;fill-rule:evenodd;stroke:#000000;stroke-width:2.0px;stroke-linecap:butt;stroke-linejoin:miter;stroke-opacity:1"/>
<path class="bond-9 atom-9 atom-10" d="M 93.7,243.2 L 79.0,264.4" style="fill:none;fill-rule:evenodd;stroke:#FF0000;stroke-width:2.0px;stroke-linecap:butt;stroke-linejoin:miter;stroke-opacity:1"/>
<path class="bond-10 atom-9 atom-11" d="M 100.2,225.1 L 113.7,225.3" style="fill:none;fill-rule:evenodd;stroke:#000000;stroke-width:2.0px;stroke-linecap:butt;stroke-linejoin:miter;stroke-opacity:1"/>
<path class="bond-10 atom-9 atom-11" d="M 113.7,225.3 L 127.1,225.5" style="fill:none;fill-rule:evenodd;stroke:#0000FF;stroke-width:2.0px;stroke-linecap:butt;stroke-linejoin:miter;stroke-opacity:1"/>
<path class="bond-11 atom-11 atom-12" d="M 137.3,238.2 L 137.7,260.4" style="fill:none;fill-rule:evenodd;stroke:#0000FF;stroke-width:2.0px;stroke-linecap:butt;stroke-linejoin:miter;stroke-opacity:1"/>
<path class="bond-11 atom-11 atom-12" d="M 137.7,260.4 L 138.0,282.6" style="fill:none;fill-rule:evenodd;stroke:#000000;stroke-width:2.0px;stroke-linecap:butt;stroke-linejoin:miter;stroke-opacity:1"/>
<path class="bond-12 atom-8 atom-13" d="M 90.5,171.8 L 75.9,172.1" style="fill:none;fill-rule:evenodd;stroke:#0000FF;stroke-width:2.0px;stroke-linecap:butt;stroke-linejoin:miter;stroke-opacity:1"/>
<path class="bond-12 atom-8 atom-13" d="M 75.9,172.1 L 61.3,172.4" style="fill:none;fill-rule:evenodd;stroke:#000000;stroke-width:2.0px;stroke-linecap:butt;stroke-linejoin:miter;stroke-opacity:1"/>
<path class="bond-13 atom-5 atom-1" d="M 177.9,121.2 L 194.2,104.6" style="fill:none;fill-rule:evenodd;stroke:#000000;stroke-width:2.0px;stroke-linecap:butt;stroke-linejoin:miter;stroke-opacity:1"/>
<path class="bond-13 atom-5 atom-1" d="M 194.2,104.6 L 210.6,88.1" style="fill:none;fill-rule:evenodd;stroke:#0000FF;stroke-width:2.0px;stroke-linecap:butt;stroke-linejoin:miter;stroke-opacity:1"/>
<path class="bond-14 atom-11 atom-4" d="M 146.4,213.2 L 161.0,193.3" style="fill:none;fill-rule:evenodd;stroke:#0000FF;stroke-width:2.0px;stroke-linecap:butt;stroke-linejoin:miter;stroke-opacity:1"/>
<path class="bond-14 atom-11 atom-4" d="M 161.0,193.3 L 175.7,173.3" style="fill:none;fill-rule:evenodd;stroke:#000000;stroke-width:2.0px;stroke-linecap:butt;stroke-linejoin:miter;stroke-opacity:1"/>
<path d="M 243.1,105.9 L 243.4,106.3 L 242.9,107.5" style="fill:none;stroke:#000000;stroke-width:2.0px;stroke-linecap:butt;stroke-linejoin:miter;stroke-miterlimit:10;stroke-opacity:1;"/>
<path d="M 142.2,119.5 L 140.3,119.4 L 139.5,120.4" style="fill:none;stroke:#000000;stroke-width:2.0px;stroke-linecap:butt;stroke-linejoin:miter;stroke-miterlimit:10;stroke-opacity:1;"/>
<path d="M 100.2,224.1 L 100.2,225.1 L 100.9,225.2" style="fill:none;stroke:#000000;stroke-width:2.0px;stroke-linecap:butt;stroke-linejoin:miter;stroke-miterlimit:10;stroke-opacity:1;"/>
<path class="atom-1" d="M 216.0 67.6 L 222.8 78.6 Q 223.5 79.6, 224.6 81.6 Q 225.6 83.5, 225.7 83.7 L 225.7 67.6 L 228.4 67.6 L 228.4 88.3 L 225.6 88.3 L 218.3 76.3 Q 217.5 74.9, 216.6 73.3 Q 215.7 71.7, 215.5 71.2 L 215.5 88.3 L 212.8 88.3 L 212.8 67.6 L 216.0 67.6 " fill="#0000FF"/>
<path class="atom-3" d="M 212.2 155.4 L 219.0 166.3 Q 219.6 167.4, 220.7 169.3 Q 221.8 171.3, 221.9 171.4 L 221.9 155.4 L 224.6 155.4 L 224.6 176.0 L 221.8 176.0 L 214.5 164.0 Q 213.7 162.6, 212.8 161.0 Q 211.9 159.4, 211.6 158.9 L 211.6 176.0 L 208.9 176.0 L 208.9 155.4 L 212.2 155.4 " fill="#0000FF"/>
<path class="atom-7" d="M 133.6 71.2 Q 133.6 66.2, 136.0 63.5 Q 138.5 60.7, 143.1 60.7 Q 147.6 60.7, 150.1 63.5 Q 152.5 66.2, 152.5 71.2 Q 152.5 76.2, 150.1 79.1 Q 147.6 81.9, 143.1 81.9 Q 138.5 81.9, 136.0 79.1 Q 133.6 76.3, 133.6 71.2 M 143.1 79.6 Q 146.2 79.6, 147.9 77.5 Q 149.6 75.4, 149.6 71.2 Q 149.6 67.2, 147.9 65.1 Q 146.2 63.0, 143.1 63.0 Q 139.9 63.0, 138.2 65.1 Q 136.5 67.1, 136.5 71.2 Q 136.5 75.4, 138.2 77.5 Q 139.9 79.6, 143.1 79.6 " fill="#FF0000"/>
<path class="atom-8" d="M 96.0 161.3 L 102.7 172.2 Q 103.4 173.3, 104.5 175.3 Q 105.6 177.2, 105.6 177.3 L 105.6 161.3 L 108.4 161.3 L 108.4 182.0 L 105.5 182.0 L 98.3 170.0 Q 97.4 168.6, 96.5 167.0 Q 95.6 165.4, 95.4 164.9 L 95.4 182.0 L 92.7 182.0 L 92.7 161.3 L 96.0 161.3 " fill="#0000FF"/>
<path class="atom-10" d="M 56.6 274.3 Q 56.6 269.3, 59.0 266.6 Q 61.5 263.8, 66.1 263.8 Q 70.7 263.8, 73.1 266.6 Q 75.6 269.3, 75.6 274.3 Q 75.6 279.3, 73.1 282.2 Q 70.6 285.0, 66.1 285.0 Q 61.5 285.0, 59.0 282.2 Q 56.6 279.3, 56.6 274.3 M 66.1 282.7 Q 69.2 282.7, 70.9 280.6 Q 72.6 278.4, 72.6 274.3 Q 72.6 270.2, 70.9 268.2 Q 69.2 266.1, 66.1 266.1 Q 62.9 266.1, 61.2 268.2 Q 59.5 270.2, 59.5 274.3 Q 59.5 278.5, 61.2 280.6 Q 62.9 282.7, 66.1 282.7 " fill="#FF0000"/>
<path class="atom-11" d="M 132.6 215.4 L 139.3 226.3 Q 140.0 227.4, 141.1 229.3 Q 142.2 231.3, 142.2 231.4 L 142.2 215.4 L 145.0 215.4 L 145.0 236.0 L 142.1 236.0 L 134.9 224.1 Q 134.0 222.7, 133.1 221.1 Q 132.2 219.5, 132.0 219.0 L 132.0 236.0 L 129.3 236.0 L 129.3 215.4 L 132.6 215.4 " fill="#0000FF"/>
</svg>