<?xml version="1.0" encoding="UTF-8" standalone="no"?>
<!-- Created with Inkscape (http://www.inkscape.org/) -->

<svg
   width="115mm"
   height="80mm"
   viewBox="0 0 115 80"
   version="1.1"
   id="svg5"
   inkscape:version="1.1.2 (0a00cf5339, 2022-02-04)"
   sodipodi:docname="impes_01.svg"
   xmlns:inkscape="http://www.inkscape.org/namespaces/inkscape"
   xmlns:sodipodi="http://sodipodi.sourceforge.net/DTD/sodipodi-0.dtd"
   xmlns="http://www.w3.org/2000/svg"
   xmlns:svg="http://www.w3.org/2000/svg">
  <sodipodi:namedview
     id="namedview7"
     pagecolor="#ffffff"
     bordercolor="#666666"
     borderopacity="1.0"
     inkscape:pageshadow="2"
     inkscape:pageopacity="0.0"
     inkscape:pagecheckerboard="0"
     inkscape:document-units="mm"
     showgrid="false"
     showguides="true"
     inkscape:guide-bbox="true"
     inkscape:zoom="0.40567374"
     inkscape:cx="634.74654"
     inkscape:cy="298.26925"
     inkscape:window-width="1920"
     inkscape:window-height="1007"
     inkscape:window-x="0"
     inkscape:window-y="0"
     inkscape:window-maximized="1"
     inkscape:current-layer="g4647"
     height="80mm">
    <sodipodi:guide
       position="12.913043,121.29038"
       orientation="1,0"
       id="guide522" />
    <sodipodi:guide
       position="12.913043,59.148862"
       orientation="0,-1"
       id="guide528" />
  </sodipodi:namedview>
  <defs
     id="defs2">
    <marker
       style="overflow:visible"
       id="Arrow1Mend"
       refX="0"
       refY="0"
       orient="auto"
       inkscape:stockid="Arrow1Mend"
       inkscape:isstock="true">
      <path
         transform="matrix(-0.4,0,0,-0.4,-4,0)"
         style="fill:context-stroke;fill-rule:evenodd;stroke:context-stroke;stroke-width:1pt"
         d="M 0,0 5,-5 -12.5,0 5,5 Z"
         id="path1430" />
    </marker>
    <marker
       style="overflow:visible"
       id="Arrow1Mstart"
       refX="0"
       refY="0"
       orient="auto"
       inkscape:stockid="Arrow1Mstart"
       inkscape:isstock="true">
      <path
         transform="matrix(0.4,0,0,0.4,4,0)"
         style="fill:context-stroke;fill-rule:evenodd;stroke:context-stroke;stroke-width:1pt"
         d="M 0,0 5,-5 -12.5,0 5,5 Z"
         id="path1427" />
    </marker>
    <inkscape:path-effect
       effect="bspline"
       id="path-effect526"
       is_visible="true"
       lpeversion="1"
       weight="33.333333"
       steps="2"
       helper_size="0"
       apply_no_weight="true"
       apply_with_weight="true"
       only_selected="false" />
    <inkscape:path-effect
       effect="skeletal"
       id="path-effect118"
       is_visible="true"
       lpeversion="1"
       pattern="m 12.000959,35.911039 c 0,-2.755661 2.236478,-4.992138 4.992139,-4.992138 2.75566,0 4.992138,2.236477 4.992138,4.992138 0,2.75566 -2.236478,4.992138 -4.992138,4.992138 -2.755661,0 -4.992139,-2.236478 -4.992139,-4.992138 z"
       copytype="single_stretched"
       prop_scale="0.26032215"
       scale_y_rel="false"
       spacing="0"
       normal_offset="0"
       tang_offset="0"
       prop_units="false"
       vertical_pattern="false"
       hide_knot="false"
       fuse_tolerance="0" />
    <inkscape:path-effect
       effect="bspline"
       id="path-effect116"
       is_visible="true"
       lpeversion="1"
       weight="33.333333"
       steps="2"
       helper_size="0"
       apply_no_weight="true"
       apply_with_weight="true"
       only_selected="false" />
  </defs>
  <g
     inkscape:label="Layer 1"
     inkscape:groupmode="layer"
     id="layer1">
    <g
       id="g19573"
       transform="matrix(0.54282985,0,0,0.54282985,0.34120106,-59.014423)">
      <path
         style="fill:#0044aa;stroke:none;stroke-width:0.264583px;stroke-linecap:butt;stroke-linejoin:miter;stroke-opacity:1"
         d="m 18.062456,139.64373 c 0.04332,-0.11013 1.527136,0.26802 4.151121,1.45077 2.329957,1.05021 6.726136,3.30534 9.759724,7.53487 5.098932,7.21488 6.770182,14.14414 10.458159,26.09848 1.578296,5.07908 3.436345,11.20537 5.508846,16.86573 1.601962,4.34196 3.345282,9.106 6.181433,12.9421 1.635716,2.11224 3.888623,4.11177 6.282662,3.9439 2.651474,0.0394 5.149676,-1.86483 7.529434,-3.95799 3.390572,-3.11021 6.073359,-6.64085 9.43988,-10.33307 3.100904,-3.44332 6.643867,-7.10388 11.262015,-9.23868 0.07074,-0.0313 0.141606,-0.0621 0.212596,-0.0924 4.047209,-1.72699 8.444856,-1.81415 12.453084,-1.57431 4.25603,0.21067 8.18894,0.6801 11.93241,-0.0799 3.96449,-0.75928 7.60583,-2.87057 10.72522,-5.3726 3.65905,-2.94931 6.70312,-6.5505 9.27135,-10.23803 5.71859,-8.20677 9.24647,-17.16808 13.92995,-24.40632 2.14653,-3.33 4.52515,-6.19811 7.38378,-8.40156 2.8954,-2.22183 6.14753,-3.4898 9.24245,-3.95651 4.18115,-0.61854 8.33796,-0.059 11.34731,0.4614 8.11187,1.39286 12.45394,2.93891 12.40728,3.13971 -0.0466,0.2008 -4.5348,-0.97456 -12.5776,-2.0037 -2.98221,-0.37807 -7.06032,-0.7864 -10.92828,-0.0832 -2.8361,0.50744 -5.79449,1.7548 -8.3924,3.84276 -2.60569,2.08361 -4.76849,4.82896 -6.79808,8.07137 -4.43548,7.11315 -7.81689,16.07187 -13.66422,24.67762 -2.6167,3.84941 -5.78184,7.64303 -9.6561,10.82106 -3.30101,2.72012 -7.28842,5.02632 -11.79444,5.94819 -4.25618,0.82774 -8.41328,0.38839 -12.56262,0.16314 -3.889938,-0.16978 -7.903538,-0.14641 -11.28053,1.36889 -0.05929,0.0266 -0.118373,0.0537 -0.177249,0.0812 -4.038439,1.79293 -7.313943,5.24785 -10.429237,8.6127 -3.273909,3.58057 -6.032808,7.16373 -9.637917,10.45842 -2.44611,2.32514 -5.530173,4.42993 -9.200273,4.56586 -3.622607,-0.0761 -6.503327,-2.43858 -8.266958,-5.00319 -3.044643,-4.25459 -4.826754,-9.21336 -6.357683,-13.59457 -2.040462,-5.79216 -3.803806,-11.93062 -5.296928,-17.05275 -3.584504,-12.20002 -4.849423,-18.70594 -9.62046,-25.94062 -2.607784,-4.02565 -6.804458,-6.45723 -8.992948,-7.65165 -2.483814,-1.3556 -3.8881,-1.95707 -3.844781,-2.0672 z"
         id="path114"
         inkscape:path-effect="#path-effect116;#path-effect118"
         inkscape:original-d="m 18.062456,139.64373 c 4.775705,1.87887 9.551307,3.75741 14.326802,5.63561 2.870672,9.31163 5.740166,18.62053 8.609865,27.93119 3.824183,12.92046 7.647043,25.83815 11.470166,38.75682 5.18174,-0.52959 10.363007,-1.05942 15.544112,-1.58953 6.730963,-10.37582 13.461391,-20.75149 20.19169,-31.12763 8.665739,3.39039 17.330869,6.78038 25.995919,10.17017 7.22709,-6.5437 14.45363,-13.08739 21.68005,-19.6315 3.87584,-9.59449 7.75126,-19.18886 11.6265,-28.78368 4.86581,-4.16178 9.73105,-8.32356 14.59633,-12.48587 8.47951,1.97049 16.95843,3.94048 25.43727,5.91007"
         sodipodi:nodetypes="ccccccccccc" />
      <path
         style="fill:none;stroke:#000000;stroke-width:0.79375;stroke-linecap:butt;stroke-linejoin:miter;stroke-miterlimit:4;stroke-dasharray:none;stroke-opacity:1;marker-start:url(#Arrow1Mstart);marker-end:url(#Arrow1Mend)"
         d="m 12.913043,117.10428 c 0,40.24921 0,80.4979 0,120.74685 0,0 194.772717,0 194.772717,0"
         id="path524"
         inkscape:path-effect="#path-effect526"
         inkscape:original-d="m 12.913043,117.10428 c 2.65e-4,40.24921 0,120.74685 0,120.74685 H 207.68576"
         sodipodi:nodetypes="ccc" />
      <text
         xml:space="preserve"
         style="font-style:normal;font-weight:normal;font-size:10.5833px;line-height:1.25;font-family:sans-serif;fill:#000000;fill-opacity:1;stroke:none;stroke-width:0.264583"
         x="3.2190084"
         y="123.62567"
         id="text3221"><tspan
           sodipodi:role="line"
           id="tspan3219"
           style="stroke-width:0.264583"
           x="3.2190084"
           y="123.62567">E</tspan></text>
      <text
         xml:space="preserve"
         style="font-style:normal;font-weight:normal;font-size:10.5833px;line-height:1.25;font-family:sans-serif;fill:#000000;fill-opacity:1;stroke:none;stroke-width:0.264583"
         x="107.05227"
         y="251.1649"
         id="text3466"><tspan
           sodipodi:role="line"
           id="tspan3464"
           style="stroke-width:0.264583"
           x="107.05227"
           y="251.1649">q</tspan></text>
      <g
         id="g4647">
        <circle
           style="fill:#ffffff;stroke:#0044aa;stroke-width:0.745287;stroke-miterlimit:4;stroke-dasharray:none;stroke-opacity:1"
           id="path4429"
           cx="32.016541"
           cy="149.81416"
           r="1.8076069" />
        <circle
           style="fill:#ffffff;stroke:#0044aa;stroke-width:0.745287;stroke-miterlimit:4;stroke-dasharray:none;stroke-opacity:1"
           id="circle4511"
           cx="39.620838"
           cy="168.77617"
           r="1.8076069" />
        <circle
           style="fill:#ffffff;stroke:#0044aa;stroke-width:0.745287;stroke-miterlimit:4;stroke-dasharray:none;stroke-opacity:1"
           id="circle4513"
           cx="46.057476"
           cy="189.55002"
           r="1.8076069" />
        <circle
           style="fill:#ffffff;stroke:#0044aa;stroke-width:0.745287;stroke-miterlimit:4;stroke-dasharray:none;stroke-opacity:1"
           id="circle4515"
           cx="60.838005"
           cy="209.70824"
           r="1.8076069" />
        <circle
           style="fill:#ffffff;stroke:#0044aa;stroke-width:0.745287;stroke-miterlimit:4;stroke-dasharray:none;stroke-opacity:1"
           id="circle4517"
           cx="88.484421"
           cy="186.60211"
           r="1.8076069" />
        <circle
           style="fill:#ffcc00;stroke:#0044aa;stroke-width:0.745287;stroke-miterlimit:4;stroke-dasharray:none;stroke-opacity:1"
           id="circle4519"
           cx="103.75688"
           cy="184.78337"
           r="1.8076069" />
        <circle
           style="fill:#ffffff;stroke:#0044aa;stroke-width:0.745287;stroke-miterlimit:4;stroke-dasharray:none;stroke-opacity:1"
           id="circle4521"
           cx="115.96722"
           cy="183.90222"
           r="1.8076069" />
        <circle
           style="fill:#ffffff;stroke:#0044aa;stroke-width:0.745287;stroke-miterlimit:4;stroke-dasharray:none;stroke-opacity:1"
           id="circle4523"
           cx="140.56567"
           cy="157.29541"
           r="1.8076069" />
        <circle
           style="fill:#ffffff;stroke:#0044aa;stroke-width:0.745287;stroke-miterlimit:4;stroke-dasharray:none;stroke-opacity:1"
           id="circle4525"
           cx="152.37219"
           cy="138.26633"
           r="1.8076069" />
        <circle
           style="fill:#ffffff;stroke:#0044aa;stroke-width:0.745287;stroke-miterlimit:4;stroke-dasharray:none;stroke-opacity:1"
           id="circle4527"
           cx="171.19466"
           cy="131.21339"
           r="1.8076069" />
        <ellipse
           style="opacity:0.75;fill:none;stroke:#0044a8;stroke-width:0.904258;stroke-linecap:round;stroke-miterlimit:4;stroke-dasharray:0.904258, 1.80852;stroke-dashoffset:0;stroke-opacity:1"
           id="path13090"
           cx="88.475517"
           cy="186.60187"
           rx="19.547873"
           ry="19.547871" />
        <ellipse
           style="opacity:0.75;fill:none;stroke:#0044a8;stroke-width:0.904258;stroke-linecap:round;stroke-miterlimit:4;stroke-dasharray:0.904258, 1.80852;stroke-dashoffset:0;stroke-opacity:1"
           id="ellipse13334"
           cx="115.95831"
           cy="183.90198"
           rx="19.547873"
           ry="19.547871" />
      </g>
      <text
         xml:space="preserve"
         style="font-style:normal;font-weight:normal;font-size:8.46667px;line-height:1.25;font-family:sans-serif;fill:#000000;fill-opacity:1;stroke:none;stroke-width:0.264583"
         x="86.813522"
         y="195.16817"
         id="text13388"><tspan
           sodipodi:role="line"
           id="tspan13386"
           style="font-size:8.46667px;stroke-width:0.264583"
           x="86.813522"
           y="195.16817">q<tspan
   style="font-size:65%;baseline-shift:sub"
   id="tspan17338">1</tspan></tspan></text>
      <text
         xml:space="preserve"
         style="font-style:normal;font-weight:normal;font-size:8.46667px;line-height:1.25;font-family:sans-serif;fill:#000000;fill-opacity:1;stroke:none;stroke-width:0.264583"
         x="113.3894"
         y="192.23668"
         id="text17820"><tspan
           sodipodi:role="line"
           id="tspan17818"
           style="font-size:8.46667px;stroke-width:0.264583"
           x="113.3894"
           y="192.23668">q<tspan
   style="font-size:65%;baseline-shift:sub"
   id="tspan17816">2</tspan></tspan></text>
      <text
         xml:space="preserve"
         style="font-style:normal;font-weight:normal;font-size:8.46667px;line-height:1.25;font-family:sans-serif;fill:#aa8800;fill-opacity:1;stroke:none;stroke-width:0.264583"
         x="95.300041"
         y="165.78485"
         id="text18392"><tspan
           sodipodi:role="line"
           id="tspan18390"
           style="font-size:8.46667px;fill:#aa8800;stroke-width:0.264583"
           x="95.300041"
           y="165.78485">q<tspan
   style="font-size:65%;baseline-shift:sub;fill:#aa8800"
   id="tspan18388">x</tspan></tspan></text>
    </g>
  </g>
</svg>
