<?xml version="1.0" encoding="UTF-8" standalone="no"?>
<!-- Created with Inkscape (http://www.inkscape.org/) -->

<svg
   version="1.1"
   id="svg2"
   xml:space="preserve"
   width="169.33333"
   height="132"
   viewBox="0 0 169.33333 132"
   sodipodi:docname="MD_euler_even.svg"
   inkscape:version="1.1 (ce6663b3b7, 2021-05-25)"
   xmlns:inkscape="http://www.inkscape.org/namespaces/inkscape"
   xmlns:sodipodi="http://sodipodi.sourceforge.net/DTD/sodipodi-0.dtd"
   xmlns="http://www.w3.org/2000/svg"
   xmlns:svg="http://www.w3.org/2000/svg"><defs
     id="defs6"><clipPath
       clipPathUnits="userSpaceOnUse"
       id="clipPath22"><path
         d="M 7.086,96.164 H 120.473 V 8.293 H 7.086 Z"
         id="path20" /></clipPath><clipPath
       clipPathUnits="userSpaceOnUse"
       id="clipPath30"><path
         d="M 0,0 H 127 V 99 H 0 Z"
         id="path28" /></clipPath><clipPath
       clipPathUnits="userSpaceOnUse"
       id="clipPath46"><path
         d="M 0,0 H 127 V 99 H 0 Z"
         id="path44" /></clipPath><clipPath
       clipPathUnits="userSpaceOnUse"
       id="clipPath62"><path
         d="M 0,0 H 127 V 99 H 0 Z"
         id="path60" /></clipPath><clipPath
       clipPathUnits="userSpaceOnUse"
       id="clipPath78"><path
         d="M 0,0 H 127 V 99 H 0 Z"
         id="path76" /></clipPath></defs><sodipodi:namedview
     id="namedview4"
     pagecolor="#ffffff"
     bordercolor="#666666"
     borderopacity="1.0"
     inkscape:pageshadow="2"
     inkscape:pageopacity="0.0"
     inkscape:pagecheckerboard="0"
     showgrid="false"
     inkscape:zoom="6.2272727"
     inkscape:cx="54.759124"
     inkscape:cy="66"
     inkscape:window-width="2493"
     inkscape:window-height="1385"
     inkscape:window-x="1987"
     inkscape:window-y="27"
     inkscape:window-maximized="1"
     inkscape:current-layer="g8" /><g
     id="g8"
     inkscape:groupmode="layer"
     inkscape:label="MD_euler_even"
     transform="matrix(1.3333333,0,0,-1.3333333,0,132)"><g
       id="g10"><path
         d="M 0,0 H 127 V 99 H 0 Z"
         style="fill:#ffffff;fill-opacity:1;fill-rule:nonzero;stroke:none"
         id="path12" /><path
         d="M 7.086,96.164 H 120.473 V 8.293 H 7.086 Z"
         style="fill:#ffffff;fill-opacity:1;fill-rule:nonzero;stroke:none"
         id="path14" /></g><g
       id="g16"><g
         id="g18"
         clip-path="url(#clipPath22)"><g
           id="g24"><g
             id="g26" /><g
             id="g38"><g
               clip-path="url(#clipPath30)"
               id="g36"><g
                 id="g34"><path
                   d="m 7.086,81.52 1.59,-0.114 1.586,-0.34 1.586,-0.562 1.703,-0.844 1.699,-1.086 1.816,-1.418 1.926,-1.785 2.156,-2.301 2.379,-2.89 2.61,-3.52 3.172,-4.683 4.195,-6.625 8.844,-14.079 3.175,-4.585 2.723,-3.551 2.379,-2.758 2.156,-2.168 2.039,-1.738 1.817,-1.27 1.812,-1 1.703,-0.676 1.586,-0.402 1.586,-0.18 1.59,0.051 1.586,0.274 1.59,0.5 1.699,0.777 1.699,1.023 1.817,1.352 1.925,1.719 2.157,2.234 2.265,2.684 2.61,3.445 3.062,4.441 3.856,6.02 10.883,17.234 3.062,4.297 2.605,3.285 2.27,2.516 2.152,2.062 1.93,1.551 1.813,1.188 1.703,0.859 1.699,0.609 1.59,0.34 1.586,0.114"
                   style="fill:none;stroke:#000000;stroke-width:0.5;stroke-linecap:square;stroke-linejoin:round;stroke-miterlimit:4;stroke-dasharray:none;stroke-opacity:1"
                   id="path32" /></g></g></g></g><g
           id="g40"><g
             id="g42" /><g
             id="g54"><g
               clip-path="url(#clipPath46)"
               id="g52"><g
                 id="g50"><path
                   d="m 7.086,81.52 h 5.672 l 5.668,-2.891 5.668,-5.781 5.672,-8.387 5.668,-10.426 5.668,-11.629 5.671,-11.808 5.668,-10.836 5.668,-8.707 5.672,-5.5 5.668,-1.434 5.668,3.168 5.672,7.922 5.668,12.352 5.668,16.007 5.672,18.442 5.668,19.297 5.668,18.328 0.133,0.363"
                   style="fill:none;stroke:#000000;stroke-width:0.5;stroke-linecap:butt;stroke-linejoin:round;stroke-miterlimit:4;stroke-dasharray:2, 2;stroke-dashoffset:0;stroke-opacity:1"
                   id="path48" /></g></g></g></g><g
           id="g56"><g
             id="g58" /><g
             id="g70"><g
               clip-path="url(#clipPath62)"
               id="g68"><g
                 id="g66"><path
                   d="m 7.086,81.52 h 2.269 l 2.266,-0.461 2.27,-0.926 2.265,-1.383 2.27,-1.82 2.265,-2.239 2.27,-2.628 2.266,-2.985 2.269,-3.301 2.27,-3.562 2.265,-3.777 2.27,-3.938 2.265,-4.031 2.27,-4.071 2.266,-4.043 2.269,-3.949 2.266,-3.793 2.269,-3.574 2.266,-3.297 2.269,-2.965 2.266,-2.574 2.27,-2.144 2.265,-1.668 2.27,-1.161 2.269,-0.625 2.266,-0.074 2.269,0.489 2.266,1.054 2.27,1.61 2.265,2.148 2.27,2.66 2.265,3.145 2.27,3.578 2.266,3.969 2.269,4.3 2.266,4.571 2.269,4.769 2.27,4.899 2.265,4.957 2.27,4.929 2.266,4.829 2.269,4.648 2.266,4.391 2.269,4.062 2.266,3.664 2.269,3.203 2.266,2.68 2.27,2.109 2.265,1.496 2.27,0.852"
                   style="fill:none;stroke:#000000;stroke-width:0.5;stroke-linecap:butt;stroke-linejoin:round;stroke-miterlimit:4;stroke-dasharray:3, 1, 1, 1;stroke-dashoffset:0;stroke-opacity:1"
                   id="path64" /></g></g></g></g><g
           id="g72"><g
             id="g74" /><g
             id="g86"><g
               clip-path="url(#clipPath78)"
               id="g84"><g
                 id="g82"><path
                   d="m 7.086,81.52 h 1.133 l 1.136,-0.118 1.133,-0.23 1.133,-0.344 1.137,-0.461 1.133,-0.574 1.132,-0.688 1.133,-0.792 1.137,-0.899 1.133,-1.004 1.133,-1.101 1.132,-1.196 1.137,-1.289 1.133,-1.375 1.133,-1.457 1.133,-1.531 1.136,-1.606 1.133,-1.664 1.133,-1.722 1.137,-1.778 1.132,-1.82 1.133,-1.855 1.133,-1.887 1.137,-1.91 1.133,-1.926 2.265,-3.867 1.137,-1.926 1.133,-1.914 1.133,-1.887 1.132,-1.859 1.137,-1.82 1.133,-1.778 1.133,-1.722 1.136,-1.665 1.133,-1.597 1.133,-1.528 1.133,-1.445 1.137,-1.363 1.132,-1.274 1.133,-1.175 1.133,-1.075 1.137,-0.968 1.133,-0.86 1.132,-0.746 1.133,-0.629 1.137,-0.507 1.133,-0.387 1.133,-0.262 1.136,-0.133 1.133,-0.008 1.133,0.118 1.133,0.246 1.136,0.375 1.133,0.5 1.133,0.625 1.133,0.75 1.137,0.867 1.132,0.984 1.133,1.098 1.137,1.211 1.133,1.312 1.133,1.418 1.132,1.512 1.137,1.602 1.133,1.683 1.133,1.766 1.133,1.836 1.136,1.898 1.133,1.953 1.133,2.008 1.133,2.047 1.136,2.082 1.133,2.106 1.133,2.125 1.137,2.132 1.133,2.133 1.132,2.129 1.133,2.109 1.137,2.086 1.133,2.055 1.133,2.012 1.132,1.965 1.137,1.906 1.133,1.84 1.133,1.769 1.132,1.692 1.137,1.601 1.133,1.508 1.133,1.414 1.137,1.305 1.132,1.191 1.133,1.078 1.133,0.957 1.137,0.832 1.133,0.7 1.132,0.57 1.133,0.437 1.137,0.297 1.133,0.16"
                   style="fill:none;stroke:#000000;stroke-width:0.5;stroke-linecap:butt;stroke-linejoin:round;stroke-miterlimit:4;stroke-dasharray:1, 1;stroke-dashoffset:0;stroke-opacity:1"
                   id="path80" /></g></g></g></g></g></g><g
       id="g88"><path
         d="m 7.086,8.293 v 0.75"
         style="fill:#000000;fill-opacity:1;fill-rule:nonzero;stroke:#000000;stroke-width:0.5;stroke-linecap:square;stroke-linejoin:round;stroke-miterlimit:4;stroke-dasharray:none;stroke-opacity:1"
         id="path90" /><path
         d="m 7.086,96.164 v -0.75"
         style="fill:#000000;fill-opacity:1;fill-rule:nonzero;stroke:#000000;stroke-width:0.5;stroke-linecap:square;stroke-linejoin:round;stroke-miterlimit:4;stroke-dasharray:none;stroke-opacity:1"
         id="path92" /><path
         d="m 35.434,8.293 v 0.75"
         style="fill:#000000;fill-opacity:1;fill-rule:nonzero;stroke:#000000;stroke-width:0.5;stroke-linecap:square;stroke-linejoin:round;stroke-miterlimit:4;stroke-dasharray:none;stroke-opacity:1"
         id="path94" /><path
         d="m 35.434,96.164 v -0.75"
         style="fill:#000000;fill-opacity:1;fill-rule:nonzero;stroke:#000000;stroke-width:0.5;stroke-linecap:square;stroke-linejoin:round;stroke-miterlimit:4;stroke-dasharray:none;stroke-opacity:1"
         id="path96" /><path
         d="m 63.781,8.293 v 0.75"
         style="fill:#000000;fill-opacity:1;fill-rule:nonzero;stroke:#000000;stroke-width:0.5;stroke-linecap:square;stroke-linejoin:round;stroke-miterlimit:4;stroke-dasharray:none;stroke-opacity:1"
         id="path98" /><path
         d="m 63.781,96.164 v -0.75"
         style="fill:#000000;fill-opacity:1;fill-rule:nonzero;stroke:#000000;stroke-width:0.5;stroke-linecap:square;stroke-linejoin:round;stroke-miterlimit:4;stroke-dasharray:none;stroke-opacity:1"
         id="path100" /><path
         d="m 92.125,8.293 v 0.75"
         style="fill:#000000;fill-opacity:1;fill-rule:nonzero;stroke:#000000;stroke-width:0.5;stroke-linecap:square;stroke-linejoin:round;stroke-miterlimit:4;stroke-dasharray:none;stroke-opacity:1"
         id="path102" /><path
         d="m 92.125,96.164 v -0.75"
         style="fill:#000000;fill-opacity:1;fill-rule:nonzero;stroke:#000000;stroke-width:0.5;stroke-linecap:square;stroke-linejoin:round;stroke-miterlimit:4;stroke-dasharray:none;stroke-opacity:1"
         id="path104" /><path
         d="m 120.473,8.293 v 0.75"
         style="fill:#000000;fill-opacity:1;fill-rule:nonzero;stroke:#000000;stroke-width:0.5;stroke-linecap:square;stroke-linejoin:round;stroke-miterlimit:4;stroke-dasharray:none;stroke-opacity:1"
         id="path106" /><path
         d="m 120.473,96.164 v -0.75"
         style="fill:#000000;fill-opacity:1;fill-rule:nonzero;stroke:#000000;stroke-width:0.5;stroke-linecap:square;stroke-linejoin:round;stroke-miterlimit:4;stroke-dasharray:none;stroke-opacity:1"
         id="path108" /><path
         d="M 60.676,5.965 60.703,5.938 C 60.684,5.762 60.676,5.457 60.676,5.02 L 60.652,4.996 H 60.516 L 60.492,5.02 60.457,5.293 c -0.016,0.145 -0.027,0.23 -0.035,0.262 -0.008,0.035 -0.024,0.058 -0.043,0.07 -0.02,0.016 -0.082,0.027 -0.191,0.039 -0.106,0.008 -0.227,0.012 -0.36,0.012 H 59.273 C 59.258,5.234 59.25,4.98 59.25,4.914 V 3.207 l 0.008,-0.574 c 0,-0.219 0.008,-0.363 0.015,-0.43 0.008,-0.062 0.024,-0.105 0.04,-0.129 0.019,-0.019 0.054,-0.035 0.109,-0.051 0.051,-0.015 0.183,-0.027 0.391,-0.035 L 59.836,1.973 V 1.824 L 59.813,1.801 c -0.5,0.015 -0.778,0.023 -0.836,0.023 -0.063,0 -0.34,-0.008 -0.836,-0.023 l -0.024,0.023 v 0.149 l 0.024,0.015 c 0.183,0.008 0.304,0.02 0.367,0.032 0.058,0.011 0.097,0.027 0.117,0.043 0.023,0.019 0.039,0.058 0.051,0.121 0.015,0.058 0.023,0.195 0.023,0.402 l 0.004,0.621 v 1.707 c 0,0.031 -0.008,0.285 -0.023,0.762 H 58.242 C 58.063,5.676 57.91,5.672 57.777,5.664 57.648,5.656 57.57,5.637 57.551,5.605 57.531,5.574 57.512,5.469 57.492,5.293 L 57.465,5.02 57.438,4.996 H 57.305 L 57.281,5.02 c -0.004,0.468 -0.015,0.777 -0.027,0.918 l 0.027,0.027 c 0.34,-0.016 0.903,-0.024 1.696,-0.024 0.804,0 1.371,0.008 1.699,0.024"
         style="fill:#000000;fill-opacity:1;fill-rule:nonzero;stroke:none"
         id="path110" /><path
         d="m 61.66,5.926 c 0.09,0 0.168,-0.031 0.235,-0.094 0.062,-0.066 0.097,-0.144 0.097,-0.234 0,-0.09 -0.035,-0.168 -0.097,-0.235 C 61.828,5.301 61.75,5.27 61.66,5.27 c -0.09,0 -0.168,0.031 -0.234,0.093 -0.067,0.063 -0.098,0.141 -0.098,0.235 0,0.09 0.031,0.168 0.098,0.234 0.066,0.063 0.144,0.094 0.234,0.094 M 61.91,4.617 61.965,4.578 C 61.941,4.324 61.934,4 61.934,3.605 V 2.941 c 0,-0.043 0.004,-0.179 0.011,-0.414 0.008,-0.234 0.016,-0.371 0.024,-0.41 C 61.977,2.078 61.992,2.051 62.008,2.035 62.027,2.016 62.047,2.004 62.07,2 62.098,1.996 62.203,1.984 62.391,1.973 L 62.414,1.949 V 1.828 L 62.391,1.801 c -0.243,0.015 -0.477,0.023 -0.703,0.023 -0.227,0 -0.461,-0.008 -0.704,-0.023 l -0.027,0.027 v 0.121 l 0.027,0.024 c 0.188,0.011 0.293,0.023 0.321,0.027 0.023,0.008 0.043,0.02 0.062,0.039 0.02,0.016 0.031,0.047 0.039,0.082 0.008,0.039 0.016,0.164 0.024,0.379 0.008,0.215 0.011,0.375 0.011,0.484 v 0.579 c 0,0.078 -0.003,0.183 -0.011,0.32 -0.008,0.133 -0.012,0.215 -0.016,0.246 -0.008,0.031 -0.023,0.055 -0.047,0.07 -0.027,0.016 -0.078,0.024 -0.152,0.024 h -0.246 l -0.028,0.023 v 0.129 l 0.024,0.023 c 0.375,0.043 0.687,0.118 0.945,0.219"
         style="fill:#000000;fill-opacity:1;fill-rule:nonzero;stroke:none"
         id="path112" /><path
         d="M 63.641,4.617 63.695,4.578 C 63.684,4.449 63.676,4.297 63.672,4.117 l 0.277,0.254 c 0.078,0.074 0.133,0.117 0.156,0.141 0.028,0.019 0.086,0.043 0.18,0.07 0.094,0.027 0.192,0.039 0.297,0.039 0.195,0 0.363,-0.047 0.512,-0.144 0.144,-0.094 0.254,-0.227 0.324,-0.399 0.266,0.25 0.418,0.391 0.461,0.418 0.043,0.027 0.113,0.055 0.211,0.082 0.094,0.027 0.191,0.043 0.285,0.043 0.156,0 0.297,-0.035 0.426,-0.101 0.129,-0.067 0.23,-0.153 0.308,-0.258 0.075,-0.11 0.121,-0.227 0.133,-0.352 0.012,-0.125 0.02,-0.297 0.02,-0.515 V 3.09 c 0,-0.035 0.004,-0.277 0.015,-0.731 0.004,-0.187 0.028,-0.296 0.063,-0.332 0.039,-0.035 0.156,-0.054 0.359,-0.054 L 67.723,1.949 V 1.824 L 67.699,1.801 c -0.246,0.015 -0.414,0.023 -0.504,0.023 -0.047,0 -0.187,-0.008 -0.422,-0.023 l -0.039,0.031 c 0.024,0.258 0.039,0.586 0.039,0.996 V 3.18 c 0,0.308 -0.015,0.527 -0.046,0.652 -0.028,0.121 -0.098,0.223 -0.204,0.305 -0.109,0.078 -0.234,0.117 -0.382,0.117 -0.106,0 -0.207,-0.02 -0.297,-0.063 C 65.75,4.148 65.668,4.086 65.598,4.004 65.523,3.922 65.48,3.844 65.473,3.773 65.465,3.703 65.461,3.57 65.461,3.379 V 3.012 c 0,-0.086 0.004,-0.246 0.012,-0.485 C 65.48,2.293 65.492,2.156 65.5,2.113 65.508,2.078 65.52,2.047 65.539,2.031 65.559,2.016 65.578,2.004 65.605,2 65.629,1.996 65.734,1.984 65.918,1.973 L 65.945,1.949 V 1.828 L 65.922,1.801 c -0.242,0.015 -0.481,0.023 -0.707,0.023 -0.207,0 -0.442,-0.008 -0.703,-0.023 l -0.024,0.027 v 0.121 l 0.024,0.024 c 0.191,0.011 0.297,0.023 0.32,0.027 0.027,0.008 0.047,0.02 0.066,0.039 0.02,0.016 0.032,0.047 0.04,0.082 0.007,0.039 0.015,0.164 0.023,0.379 0.008,0.215 0.012,0.375 0.012,0.484 V 3.32 c 0,0.219 -0.016,0.391 -0.047,0.508 -0.028,0.121 -0.094,0.219 -0.196,0.301 -0.097,0.086 -0.222,0.125 -0.371,0.125 -0.117,0 -0.226,-0.024 -0.324,-0.07 C 63.941,4.141 63.863,4.082 63.801,4.016 63.738,3.949 63.699,3.883 63.684,3.824 63.672,3.77 63.664,3.641 63.664,3.445 V 3.012 c 0,-0.086 0.004,-0.246 0.012,-0.485 C 63.684,2.293 63.691,2.156 63.699,2.113 63.707,2.078 63.723,2.047 63.742,2.031 63.762,2.016 63.781,2.004 63.805,2 63.832,1.996 63.934,1.984 64.121,1.973 L 64.148,1.949 V 1.828 L 64.125,1.801 c -0.246,0.015 -0.48,0.023 -0.707,0.023 -0.227,0 -0.461,-0.008 -0.703,-0.023 l -0.027,0.027 v 0.121 l 0.027,0.024 c 0.187,0.011 0.297,0.023 0.32,0.027 0.024,0.008 0.047,0.02 0.063,0.039 0.019,0.016 0.031,0.047 0.039,0.082 0.008,0.039 0.015,0.164 0.023,0.379 0.008,0.215 0.016,0.375 0.016,0.484 v 0.579 c 0,0.078 -0.004,0.183 -0.016,0.32 -0.004,0.133 -0.012,0.215 -0.015,0.246 -0.004,0.031 -0.02,0.055 -0.047,0.07 -0.024,0.016 -0.075,0.024 -0.153,0.024 h -0.246 l -0.027,0.023 v 0.129 l 0.023,0.023 c 0.375,0.043 0.688,0.118 0.946,0.219"
         style="fill:#000000;fill-opacity:1;fill-rule:nonzero;stroke:none"
         id="path114" /><path
         d="M 70.449,2.254 70.355,2.043 C 70.152,1.914 69.973,1.828 69.813,1.789 69.652,1.75 69.512,1.73 69.387,1.73 c -0.235,0 -0.457,0.047 -0.668,0.141 -0.211,0.09 -0.383,0.246 -0.512,0.465 -0.133,0.219 -0.199,0.48 -0.199,0.789 0,0.207 0.027,0.391 0.074,0.555 0.055,0.168 0.106,0.289 0.164,0.371 0.055,0.078 0.149,0.168 0.281,0.265 0.133,0.098 0.274,0.176 0.422,0.235 0.149,0.058 0.309,0.086 0.481,0.086 0.234,0 0.441,-0.055 0.621,-0.164 0.176,-0.11 0.301,-0.25 0.375,-0.422 0.07,-0.172 0.109,-0.356 0.109,-0.551 0,-0.059 -0.004,-0.117 -0.012,-0.176 L 70.492,3.293 C 70.359,3.266 70.18,3.246 69.957,3.234 69.73,3.227 69.582,3.219 69.512,3.219 H 68.57 c 0.004,-0.403 0.106,-0.699 0.305,-0.895 0.199,-0.191 0.445,-0.285 0.734,-0.285 0.137,0 0.266,0.024 0.395,0.07 0.125,0.047 0.258,0.114 0.398,0.196 z M 68.57,3.453 c 0.035,-0.004 0.172,-0.012 0.407,-0.019 0.234,-0.008 0.41,-0.012 0.523,-0.012 0.27,0 0.438,0.004 0.496,0.016 0,0.046 0,0.082 0,0.105 0,0.305 -0.058,0.531 -0.183,0.676 -0.122,0.148 -0.29,0.222 -0.504,0.222 -0.231,0 -0.414,-0.082 -0.543,-0.25 C 68.637,4.027 68.57,3.781 68.57,3.453"
         style="fill:#000000;fill-opacity:1;fill-rule:nonzero;stroke:none"
         id="path116" /><path
         d="m 7.086,8.293 h 0.75"
         style="fill:#000000;fill-opacity:1;fill-rule:nonzero;stroke:#000000;stroke-width:0.5;stroke-linecap:square;stroke-linejoin:round;stroke-miterlimit:4;stroke-dasharray:none;stroke-opacity:1"
         id="path118" /><path
         d="m 120.473,8.293 h -0.75"
         style="fill:#000000;fill-opacity:1;fill-rule:nonzero;stroke:#000000;stroke-width:0.5;stroke-linecap:square;stroke-linejoin:round;stroke-miterlimit:4;stroke-dasharray:none;stroke-opacity:1"
         id="path120" /><path
         d="m 7.086,22.938 h 0.75"
         style="fill:#000000;fill-opacity:1;fill-rule:nonzero;stroke:#000000;stroke-width:0.5;stroke-linecap:square;stroke-linejoin:round;stroke-miterlimit:4;stroke-dasharray:none;stroke-opacity:1"
         id="path122" /><path
         d="m 120.473,22.938 h -0.75"
         style="fill:#000000;fill-opacity:1;fill-rule:nonzero;stroke:#000000;stroke-width:0.5;stroke-linecap:square;stroke-linejoin:round;stroke-miterlimit:4;stroke-dasharray:none;stroke-opacity:1"
         id="path124" /><path
         d="m 7.086,37.582 h 0.75"
         style="fill:#000000;fill-opacity:1;fill-rule:nonzero;stroke:#000000;stroke-width:0.5;stroke-linecap:square;stroke-linejoin:round;stroke-miterlimit:4;stroke-dasharray:none;stroke-opacity:1"
         id="path126" /><path
         d="m 120.473,37.582 h -0.75"
         style="fill:#000000;fill-opacity:1;fill-rule:nonzero;stroke:#000000;stroke-width:0.5;stroke-linecap:square;stroke-linejoin:round;stroke-miterlimit:4;stroke-dasharray:none;stroke-opacity:1"
         id="path128" /><path
         d="m 7.086,52.227 h 0.75"
         style="fill:#000000;fill-opacity:1;fill-rule:nonzero;stroke:#000000;stroke-width:0.5;stroke-linecap:square;stroke-linejoin:round;stroke-miterlimit:4;stroke-dasharray:none;stroke-opacity:1"
         id="path130" /><path
         d="m 120.473,52.227 h -0.75"
         style="fill:#000000;fill-opacity:1;fill-rule:nonzero;stroke:#000000;stroke-width:0.5;stroke-linecap:square;stroke-linejoin:round;stroke-miterlimit:4;stroke-dasharray:none;stroke-opacity:1"
         id="path132" /><path
         d="m 7.086,66.875 h 0.75"
         style="fill:#000000;fill-opacity:1;fill-rule:nonzero;stroke:#000000;stroke-width:0.5;stroke-linecap:square;stroke-linejoin:round;stroke-miterlimit:4;stroke-dasharray:none;stroke-opacity:1"
         id="path134" /><path
         d="m 120.473,66.875 h -0.75"
         style="fill:#000000;fill-opacity:1;fill-rule:nonzero;stroke:#000000;stroke-width:0.5;stroke-linecap:square;stroke-linejoin:round;stroke-miterlimit:4;stroke-dasharray:none;stroke-opacity:1"
         id="path136" /><path
         d="m 7.086,81.52 h 0.75"
         style="fill:#000000;fill-opacity:1;fill-rule:nonzero;stroke:#000000;stroke-width:0.5;stroke-linecap:square;stroke-linejoin:round;stroke-miterlimit:4;stroke-dasharray:none;stroke-opacity:1"
         id="path138" /><path
         d="m 120.473,81.52 h -0.75"
         style="fill:#000000;fill-opacity:1;fill-rule:nonzero;stroke:#000000;stroke-width:0.5;stroke-linecap:square;stroke-linejoin:round;stroke-miterlimit:4;stroke-dasharray:none;stroke-opacity:1"
         id="path140" /><path
         d="m 7.086,96.164 h 0.75"
         style="fill:#000000;fill-opacity:1;fill-rule:nonzero;stroke:#000000;stroke-width:0.5;stroke-linecap:square;stroke-linejoin:round;stroke-miterlimit:4;stroke-dasharray:none;stroke-opacity:1"
         id="path142" /><path
         d="m 120.473,96.164 h -0.75"
         style="fill:#000000;fill-opacity:1;fill-rule:nonzero;stroke:#000000;stroke-width:0.5;stroke-linecap:square;stroke-linejoin:round;stroke-miterlimit:4;stroke-dasharray:none;stroke-opacity:1"
         id="path144" /><path
         d="m 0.449,35.848 -0.023,0.023 c 0.015,0.34 0.023,0.57 0.023,0.692 l -0.027,1.371 c 0,0.39 0.035,0.711 0.109,0.961 0.074,0.25 0.199,0.472 0.383,0.668 0.18,0.195 0.391,0.339 0.629,0.441 0.238,0.101 0.492,0.152 0.766,0.152 0.261,0 0.523,-0.047 0.781,-0.136 0.258,-0.094 0.488,-0.223 0.691,-0.395 0.207,-0.168 0.371,-0.359 0.496,-0.574 0.125,-0.219 0.207,-0.434 0.25,-0.649 C 4.57,38.184 4.59,37.961 4.59,37.734 4.59,37.582 4.586,37.297 4.574,36.875 4.57,36.734 4.566,36.645 4.566,36.598 c 0,-0.133 0.008,-0.297 0.024,-0.489 L 4.566,36.086 H 4.469 L 4.441,36.109 C 4.383,36.223 4.348,36.289 4.332,36.305 4.316,36.324 4.145,36.336 3.82,36.348 3.492,36.359 3.242,36.363 3.07,36.363 H 1.328 C 1.184,36.363 1.066,36.359 0.977,36.355 0.887,36.352 0.82,36.344 0.781,36.336 0.742,36.324 0.715,36.313 0.699,36.301 0.684,36.289 0.672,36.27 0.66,36.238 0.648,36.211 0.641,36.164 0.633,36.094 L 0.613,35.871 0.594,35.848 Z m 3.821,1.086 c 0.039,0.199 0.058,0.425 0.058,0.687 0,0.457 -0.074,0.82 -0.226,1.09 -0.153,0.273 -0.379,0.477 -0.676,0.613 -0.301,0.133 -0.637,0.203 -1.012,0.203 -0.555,0 -0.98,-0.148 -1.285,-0.445 -0.305,-0.293 -0.457,-0.758 -0.457,-1.394 0,-0.262 0.019,-0.512 0.058,-0.754 0.321,-0.016 0.68,-0.024 1.083,-0.024 h 0.921 l 0.86,0.004 c 0.168,0 0.394,0.008 0.676,0.02"
         style="fill:#000000;fill-opacity:1;fill-rule:nonzero;stroke:none"
         id="path146" /><path
         d="m 0.465,41.246 c 0,0.094 0.031,0.172 0.098,0.234 0.062,0.067 0.14,0.098 0.234,0.098 0.09,0 0.168,-0.031 0.23,-0.098 0.067,-0.062 0.098,-0.14 0.098,-0.234 0,-0.09 -0.031,-0.164 -0.094,-0.23 -0.066,-0.067 -0.144,-0.098 -0.234,-0.098 -0.094,0 -0.172,0.031 -0.234,0.098 -0.067,0.066 -0.098,0.14 -0.098,0.23 m 1.308,0.25 0.04,0.055 C 2.07,41.531 2.395,41.52 2.789,41.52 h 0.66 c 0.043,0 0.184,0.003 0.418,0.011 0.231,0.008 0.367,0.016 0.406,0.028 0.04,0.007 0.067,0.019 0.086,0.039 0.016,0.015 0.028,0.039 0.032,0.062 0.007,0.028 0.015,0.133 0.027,0.317 l 0.023,0.027 H 4.563 L 4.59,41.98 C 4.574,41.738 4.566,41.5 4.566,41.273 4.566,41.051 4.574,40.816 4.59,40.57 L 4.563,40.543 H 4.441 L 4.418,40.57 C 4.406,40.762 4.398,40.867 4.391,40.891 4.387,40.918 4.375,40.938 4.355,40.957 4.336,40.977 4.309,40.988 4.27,40.996 4.23,41 4.105,41.008 3.891,41.02 3.676,41.027 3.516,41.031 3.406,41.031 H 2.828 C 2.75,41.031 2.645,41.027 2.512,41.02 2.375,41.012 2.293,41.004 2.262,41 2.23,40.996 2.207,40.98 2.191,40.953 2.18,40.93 2.172,40.879 2.172,40.801 L 2.168,40.559 2.145,40.531 H 2.02 l -0.024,0.024 c -0.047,0.371 -0.121,0.687 -0.223,0.941"
         style="fill:#000000;fill-opacity:1;fill-rule:nonzero;stroke:none"
         id="path148" /><path
         d="m 3.707,42.445 v 0.125 l 0.023,0.028 c 0.165,0.004 0.305,0.015 0.422,0.031 0.094,0.059 0.168,0.164 0.227,0.312 0.059,0.149 0.086,0.293 0.086,0.442 0,0.207 -0.055,0.371 -0.168,0.496 C 4.188,44 4.055,44.063 3.898,44.063 3.816,44.063 3.742,44.043 3.68,43.996 3.617,43.953 3.566,43.883 3.527,43.793 3.488,43.703 3.441,43.539 3.387,43.305 3.34,43.102 3.305,42.961 3.277,42.883 3.25,42.801 3.207,42.727 3.145,42.652 3.082,42.578 3.004,42.52 2.914,42.48 2.824,42.441 2.723,42.422 2.613,42.422 c -0.261,0 -0.472,0.105 -0.629,0.312 -0.156,0.207 -0.234,0.469 -0.234,0.778 0,0.133 0.016,0.273 0.055,0.429 0.035,0.153 0.07,0.27 0.101,0.352 L 1.949,44.32 C 2.027,44.305 2.23,44.293 2.563,44.289 L 2.59,44.262 V 44.145 L 2.563,44.117 C 2.445,44.113 2.359,44.102 2.313,44.086 2.266,44.074 2.215,44.039 2.156,43.98 2.102,43.926 2.055,43.844 2.016,43.742 1.98,43.637 1.961,43.527 1.961,43.414 c 0,-0.121 0.016,-0.219 0.051,-0.301 0.035,-0.082 0.09,-0.148 0.16,-0.195 0.07,-0.051 0.156,-0.074 0.258,-0.074 0.074,0 0.14,0.011 0.203,0.043 0.055,0.031 0.101,0.078 0.14,0.14 0.036,0.063 0.063,0.125 0.079,0.196 l 0.082,0.32 c 0.066,0.273 0.121,0.469 0.171,0.586 0.047,0.117 0.122,0.211 0.223,0.273 0.098,0.067 0.215,0.098 0.356,0.098 0.269,0 0.504,-0.113 0.695,-0.336 0.195,-0.219 0.289,-0.508 0.289,-0.855 0,-0.125 -0.012,-0.278 -0.039,-0.461 C 4.602,42.668 4.57,42.512 4.539,42.383 L 4.5,42.367 4.305,42.398 c -0.063,0.008 -0.121,0.012 -0.184,0.016 -0.062,0 -0.191,0.004 -0.391,0.008 z"
         style="fill:#000000;fill-opacity:1;fill-rule:nonzero;stroke:none"
         id="path150" /><path
         d="m 1.738,45.777 0.035,0.055 c 0.223,-0.019 0.422,-0.031 0.594,-0.031 -0.242,0.265 -0.402,0.449 -0.48,0.554 -0.078,0.106 -0.117,0.286 -0.117,0.54 0,0.16 0.023,0.308 0.066,0.437 0.043,0.133 0.113,0.254 0.215,0.363 0.101,0.114 0.226,0.2 0.379,0.266 0.152,0.062 0.328,0.098 0.527,0.098 0.141,0 0.281,-0.024 0.426,-0.071 C 3.527,47.945 3.66,47.887 3.785,47.813 3.906,47.738 3.988,47.68 4.031,47.637 4.07,47.594 4.129,47.504 4.211,47.363 4.285,47.242 4.363,47.121 4.449,47 c 0.063,-0.086 0.102,-0.145 0.117,-0.176 0.02,-0.035 0.036,-0.09 0.055,-0.168 0.016,-0.078 0.024,-0.16 0.024,-0.25 0,-0.203 -0.051,-0.406 -0.153,-0.605 h 0.621 c 0.043,0 0.184,0.004 0.414,0.012 0.235,0.007 0.371,0.015 0.411,0.023 0.039,0.012 0.066,0.023 0.085,0.039 0.016,0.02 0.028,0.043 0.032,0.066 0.008,0.024 0.015,0.133 0.027,0.317 l 0.023,0.027 H 6.227 L 6.254,46.262 C 6.238,46.016 6.23,45.781 6.23,45.559 c 0,-0.227 0.008,-0.461 0.024,-0.704 L 6.227,44.828 H 6.105 L 6.082,44.855 C 6.07,45.043 6.063,45.148 6.055,45.172 6.051,45.199 6.035,45.223 6.02,45.238 6,45.258 5.969,45.27 5.93,45.277 5.887,45.285 5.758,45.293 5.535,45.301 5.316,45.309 5.148,45.316 5.039,45.316 H 2.793 C 2.691,45.316 2.574,45.309 2.441,45.301 2.309,45.293 2.23,45.285 2.211,45.277 2.188,45.273 2.168,45.258 2.156,45.238 2.141,45.215 2.137,45.164 2.137,45.086 L 2.133,44.84 2.109,44.813 H 1.984 L 1.961,44.836 C 1.914,45.211 1.84,45.523 1.738,45.777 m 2.25,0.024 c 0.09,0.09 0.168,0.199 0.239,0.332 0.066,0.133 0.101,0.281 0.101,0.441 0,0.188 -0.051,0.356 -0.144,0.504 C 4.086,47.223 3.945,47.336 3.762,47.414 3.578,47.496 3.375,47.535 3.148,47.535 2.969,47.535 2.797,47.5 2.641,47.43 2.484,47.355 2.363,47.246 2.273,47.098 2.184,46.949 2.137,46.789 2.137,46.621 c 0,-0.101 0.019,-0.203 0.054,-0.301 0.036,-0.097 0.09,-0.191 0.161,-0.273 0.07,-0.086 0.136,-0.149 0.203,-0.184 0.062,-0.039 0.113,-0.058 0.156,-0.058 0.043,-0.004 0.09,-0.004 0.141,-0.004 z"
         style="fill:#000000;fill-opacity:1;fill-rule:nonzero;stroke:none"
         id="path152" /><path
         d="m 0.227,49.395 0.035,0.054 C 0.488,49.43 0.938,49.418 1.613,49.418 h 1.836 c 0.043,0 0.184,0.004 0.418,0.012 0.231,0.008 0.367,0.015 0.406,0.027 0.04,0.008 0.067,0.02 0.086,0.039 0.016,0.016 0.028,0.039 0.032,0.063 0.007,0.027 0.015,0.132 0.027,0.316 l 0.023,0.027 H 4.563 L 4.59,49.879 C 4.574,49.633 4.566,49.398 4.566,49.172 c 0,-0.223 0.008,-0.457 0.024,-0.703 L 4.563,48.441 H 4.441 L 4.418,48.469 C 4.406,48.66 4.398,48.766 4.391,48.789 4.387,48.816 4.375,48.836 4.355,48.855 4.336,48.875 4.309,48.887 4.27,48.895 4.23,48.898 4.105,48.906 3.891,48.918 3.676,48.926 3.516,48.93 3.406,48.93 H 1.891 L 1.27,48.918 C 1.051,48.91 0.902,48.906 0.816,48.898 0.734,48.891 0.684,48.883 0.668,48.871 0.652,48.859 0.641,48.84 0.633,48.809 0.625,48.781 0.621,48.664 0.621,48.457 L 0.594,48.43 H 0.473 l -0.028,0.023 c -0.043,0.371 -0.117,0.688 -0.218,0.942"
         style="fill:#000000;fill-opacity:1;fill-rule:nonzero;stroke:none"
         id="path154" /><path
         d="M 2.582,50.668 2.551,50.555 2.523,50.531 H 2.16 c -0.258,0.348 -0.387,0.684 -0.387,1.012 0,0.223 0.04,0.41 0.125,0.559 0.082,0.148 0.188,0.257 0.313,0.324 0.129,0.066 0.273,0.097 0.441,0.097 l 0.59,-0.015 h 0.875 c 0.117,0 0.192,0.012 0.215,0.027 0.027,0.016 0.043,0.035 0.051,0.055 0.012,0.023 0.015,0.062 0.023,0.121 l 0.016,0.168 0.023,0.023 H 4.563 L 4.586,52.879 C 4.574,52.738 4.57,52.605 4.57,52.48 c 0,-0.117 0.004,-0.257 0.016,-0.421 l -0.039,-0.043 -0.473,0.011 0.5,-0.64 C 4.617,51.281 4.641,51.164 4.641,51.035 4.641,50.879 4.613,50.746 4.555,50.633 4.5,50.52 4.418,50.434 4.32,50.375 4.215,50.316 4.094,50.285 3.949,50.285 c -0.289,0 -0.511,0.09 -0.672,0.27 -0.16,0.179 -0.3,0.672 -0.414,1.472 -0.289,0 -0.492,-0.066 -0.609,-0.195 -0.117,-0.129 -0.176,-0.301 -0.176,-0.519 0,-0.114 0.016,-0.215 0.047,-0.309 0.035,-0.09 0.063,-0.145 0.082,-0.16 0.02,-0.012 0.141,-0.067 0.359,-0.156 z m 0.461,1.359 c 0.094,-0.547 0.191,-0.886 0.297,-1.023 0.105,-0.137 0.269,-0.203 0.488,-0.203 0.305,0 0.457,0.152 0.457,0.457 0,0.258 -0.148,0.515 -0.449,0.769 z"
         style="fill:#000000;fill-opacity:1;fill-rule:nonzero;stroke:none"
         id="path156" /><path
         d="m 4.254,55.59 0.195,-0.117 c 0.141,-0.254 0.207,-0.535 0.207,-0.844 0,-0.43 -0.125,-0.762 -0.383,-0.996 -0.253,-0.235 -0.585,-0.352 -0.988,-0.352 -0.183,0 -0.347,0.02 -0.492,0.059 -0.145,0.039 -0.262,0.09 -0.355,0.152 -0.094,0.063 -0.168,0.129 -0.223,0.203 -0.055,0.075 -0.133,0.2 -0.231,0.379 -0.097,0.176 -0.16,0.309 -0.191,0.399 -0.027,0.09 -0.043,0.215 -0.043,0.371 0,0.304 0.055,0.551 0.172,0.746 0.219,-0.039 0.465,-0.067 0.738,-0.086 L 2.684,55.477 V 55.359 L 2.656,55.332 C 2.492,55.324 2.383,55.313 2.328,55.297 2.27,55.285 2.207,55.207 2.145,55.066 2.078,54.926 2.047,54.773 2.047,54.613 c 0,-0.16 0.035,-0.3 0.101,-0.425 0.067,-0.125 0.18,-0.223 0.332,-0.286 0.153,-0.062 0.336,-0.093 0.547,-0.093 0.18,0 0.356,0.023 0.528,0.074 0.172,0.051 0.312,0.117 0.425,0.203 0.114,0.082 0.204,0.191 0.27,0.328 0.07,0.137 0.102,0.289 0.102,0.457 0,0.106 -0.012,0.207 -0.039,0.309 -0.028,0.101 -0.075,0.218 -0.137,0.347 z"
         style="fill:#000000;fill-opacity:1;fill-rule:nonzero;stroke:none"
         id="path158" /><path
         d="M 4.137,58.301 4.348,58.207 C 4.477,58.004 4.563,57.82 4.602,57.66 4.641,57.504 4.66,57.359 4.66,57.234 4.66,57 4.613,56.777 4.523,56.57 4.43,56.359 4.277,56.188 4.059,56.055 3.84,55.926 3.574,55.859 3.266,55.859 c -0.203,0 -0.391,0.024 -0.555,0.075 -0.164,0.05 -0.289,0.105 -0.367,0.16 -0.082,0.054 -0.168,0.148 -0.266,0.281 -0.098,0.133 -0.176,0.273 -0.234,0.422 -0.059,0.148 -0.09,0.308 -0.09,0.48 0,0.235 0.055,0.442 0.168,0.621 0.109,0.18 0.25,0.305 0.422,0.375 0.172,0.075 0.355,0.11 0.547,0.11 0.062,0 0.121,-0.004 0.175,-0.008 l 0.032,-0.031 c 0.031,-0.133 0.05,-0.313 0.058,-0.539 0.012,-0.223 0.016,-0.371 0.016,-0.442 v -0.941 c 0.406,0.004 0.703,0.105 0.894,0.305 0.192,0.199 0.286,0.441 0.286,0.73 0,0.137 -0.024,0.27 -0.071,0.395 -0.047,0.125 -0.109,0.261 -0.195,0.402 z M 2.938,56.422 c 0.007,0.035 0.011,0.168 0.023,0.406 0.004,0.235 0.008,0.41 0.008,0.52 0,0.273 -0.004,0.437 -0.012,0.496 -0.047,0.004 -0.086,0.004 -0.109,0.004 -0.305,0 -0.528,-0.063 -0.676,-0.184 -0.149,-0.125 -0.223,-0.293 -0.223,-0.504 0,-0.234 0.086,-0.414 0.25,-0.543 0.168,-0.133 0.414,-0.195 0.739,-0.195"
         style="fill:#000000;fill-opacity:1;fill-rule:nonzero;stroke:none"
         id="path160" /><path
         d="m 1.773,59.66 0.04,0.055 C 1.941,59.707 2.098,59.699 2.277,59.691 L 2.02,59.973 C 1.949,60.051 1.902,60.102 1.883,60.129 1.859,60.152 1.836,60.211 1.813,60.305 1.781,60.398 1.77,60.5 1.77,60.602 c 0,0.195 0.046,0.367 0.144,0.511 0.098,0.149 0.231,0.254 0.399,0.328 -0.25,0.262 -0.387,0.414 -0.415,0.461 -0.027,0.043 -0.054,0.114 -0.085,0.207 -0.028,0.098 -0.04,0.192 -0.04,0.289 0,0.153 0.032,0.297 0.098,0.426 0.067,0.125 0.152,0.231 0.262,0.305 0.105,0.078 0.222,0.121 0.347,0.133 0.125,0.015 0.297,0.019 0.516,0.019 h 0.309 c 0.031,0 0.277,0.008 0.73,0.02 0.184,0.004 0.293,0.023 0.332,0.062 0.031,0.035 0.051,0.157 0.051,0.36 l 0.023,0.023 H 4.566 L 4.59,63.723 c -0.016,-0.25 -0.024,-0.418 -0.024,-0.504 0,-0.051 0.008,-0.192 0.024,-0.426 L 4.559,62.754 C 4.305,62.781 3.973,62.793 3.566,62.793 H 3.215 C 2.902,62.793 2.684,62.777 2.563,62.75 2.438,62.719 2.336,62.652 2.258,62.543 2.176,62.438 2.137,62.309 2.137,62.16 c 0,-0.105 0.023,-0.203 0.066,-0.297 0.039,-0.09 0.102,-0.172 0.188,-0.246 0.082,-0.074 0.156,-0.113 0.23,-0.121 0.07,-0.008 0.203,-0.012 0.395,-0.012 h 0.363 c 0.086,0 0.25,0.004 0.484,0.012 0.239,0.008 0.375,0.016 0.414,0.024 0.039,0.007 0.067,0.023 0.082,0.039 0.016,0.019 0.028,0.043 0.032,0.066 0.007,0.023 0.015,0.129 0.027,0.316 l 0.023,0.024 H 4.563 L 4.59,61.941 C 4.574,61.699 4.566,61.465 4.566,61.238 c 0,-0.211 0.008,-0.445 0.024,-0.703 L 4.563,60.508 H 4.441 l -0.023,0.027 c -0.012,0.188 -0.02,0.297 -0.027,0.32 -0.004,0.024 -0.016,0.047 -0.036,0.063 -0.019,0.02 -0.046,0.031 -0.085,0.039 -0.04,0.008 -0.165,0.016 -0.379,0.023 -0.215,0.008 -0.375,0.016 -0.485,0.016 H 3.074 C 2.852,60.996 2.684,60.98 2.563,60.949 2.445,60.918 2.344,60.852 2.262,60.754 2.18,60.652 2.137,60.527 2.137,60.379 c 0,-0.117 0.023,-0.223 0.07,-0.32 0.047,-0.098 0.102,-0.176 0.168,-0.239 0.07,-0.062 0.133,-0.097 0.191,-0.113 0.059,-0.016 0.184,-0.023 0.379,-0.023 h 0.434 c 0.086,0 0.25,0.004 0.484,0.011 0.239,0.008 0.375,0.016 0.414,0.028 0.039,0.007 0.067,0.019 0.082,0.039 0.016,0.019 0.028,0.039 0.032,0.066 0.007,0.024 0.015,0.129 0.027,0.313 l 0.023,0.027 H 4.563 L 4.59,60.145 C 4.574,59.902 4.566,59.664 4.566,59.438 4.566,59.215 4.574,58.98 4.59,58.734 L 4.563,58.707 H 4.441 L 4.418,58.734 C 4.406,58.926 4.398,59.031 4.391,59.055 4.387,59.082 4.375,59.102 4.355,59.121 4.336,59.141 4.309,59.152 4.27,59.16 4.23,59.164 4.105,59.172 3.891,59.184 3.676,59.191 3.516,59.195 3.406,59.195 H 2.828 C 2.75,59.195 2.645,59.191 2.512,59.184 2.375,59.176 2.293,59.168 2.262,59.164 2.23,59.16 2.207,59.145 2.191,59.121 2.18,59.094 2.172,59.043 2.172,58.965 L 2.168,58.723 2.145,58.695 H 2.02 L 1.996,58.719 C 1.949,59.09 1.875,59.406 1.773,59.66"
         style="fill:#000000;fill-opacity:1;fill-rule:nonzero;stroke:none"
         id="path162" /><path
         d="M 4.137,66.469 4.348,66.375 C 4.477,66.172 4.563,65.992 4.602,65.832 4.641,65.672 4.66,65.531 4.66,65.406 4.66,65.172 4.613,64.949 4.523,64.738 4.43,64.531 4.277,64.359 4.059,64.227 c -0.219,-0.133 -0.485,-0.2 -0.793,-0.2 -0.203,0 -0.391,0.028 -0.555,0.078 -0.164,0.051 -0.289,0.106 -0.367,0.161 -0.082,0.054 -0.168,0.148 -0.266,0.281 -0.098,0.133 -0.176,0.273 -0.234,0.422 -0.059,0.148 -0.09,0.308 -0.09,0.48 0,0.235 0.055,0.442 0.168,0.621 0.109,0.18 0.25,0.305 0.422,0.375 0.172,0.075 0.355,0.11 0.547,0.11 0.062,0 0.121,-0.004 0.175,-0.008 l 0.032,-0.035 c 0.031,-0.133 0.05,-0.309 0.058,-0.535 0.012,-0.223 0.016,-0.372 0.016,-0.446 V 64.59 c 0.406,0.008 0.703,0.109 0.894,0.305 0.192,0.199 0.286,0.445 0.286,0.734 0,0.137 -0.024,0.269 -0.071,0.394 -0.047,0.125 -0.109,0.258 -0.195,0.399 z M 2.938,64.59 c 0.007,0.039 0.011,0.172 0.023,0.406 0.004,0.238 0.008,0.41 0.008,0.524 0,0.273 -0.004,0.437 -0.012,0.496 -0.047,0 -0.086,0.004 -0.109,0.004 -0.305,0 -0.528,-0.063 -0.676,-0.188 -0.149,-0.121 -0.223,-0.289 -0.223,-0.5 0,-0.234 0.086,-0.414 0.25,-0.547 0.168,-0.129 0.414,-0.195 0.739,-0.195"
         style="fill:#000000;fill-opacity:1;fill-rule:nonzero;stroke:none"
         id="path164" /><path
         d="m 1.773,67.758 0.04,0.055 c 0.132,-0.012 0.304,-0.02 0.515,-0.024 -0.129,0.156 -0.258,0.305 -0.39,0.445 -0.04,0.039 -0.067,0.079 -0.083,0.114 -0.019,0.039 -0.039,0.097 -0.058,0.179 -0.02,0.086 -0.027,0.172 -0.027,0.262 0,0.145 0.031,0.289 0.089,0.43 0.063,0.14 0.133,0.246 0.215,0.316 0.082,0.07 0.184,0.121 0.297,0.149 0.113,0.027 0.25,0.043 0.418,0.043 h 0.516 c 0.031,0 0.277,0.003 0.73,0.011 0.184,0.004 0.293,0.028 0.332,0.063 0.031,0.035 0.051,0.156 0.051,0.363 l 0.023,0.024 H 4.566 L 4.59,70.164 C 4.574,69.918 4.566,69.75 4.566,69.66 c 0,-0.051 0.008,-0.191 0.024,-0.426 L 4.559,69.195 C 4.305,69.223 3.973,69.234 3.566,69.234 H 3.18 C 2.949,69.234 2.785,69.23 2.684,69.219 2.582,69.207 2.488,69.176 2.406,69.121 2.324,69.066 2.258,68.992 2.211,68.902 2.168,68.809 2.145,68.699 2.145,68.574 c 0,-0.101 0.011,-0.191 0.031,-0.261 0.019,-0.075 0.062,-0.153 0.125,-0.243 0.062,-0.09 0.121,-0.156 0.179,-0.199 0.055,-0.043 0.106,-0.07 0.153,-0.078 0.051,-0.008 0.152,-0.012 0.308,-0.012 h 0.508 c 0.043,0 0.184,0.004 0.418,0.008 0.231,0.012 0.367,0.02 0.406,0.027 0.04,0.008 0.067,0.024 0.086,0.039 0.016,0.016 0.028,0.04 0.032,0.063 0.007,0.027 0.015,0.133 0.027,0.316 l 0.023,0.028 H 4.563 L 4.59,68.238 C 4.574,67.996 4.566,67.762 4.566,67.531 c 0,-0.222 0.008,-0.457 0.024,-0.703 L 4.563,66.805 H 4.441 L 4.418,66.828 C 4.406,67.02 4.398,67.125 4.391,67.152 4.387,67.176 4.375,67.195 4.355,67.215 4.336,67.234 4.309,67.246 4.27,67.254 4.23,67.262 4.105,67.27 3.891,67.277 3.676,67.285 3.516,67.289 3.406,67.289 H 2.828 C 2.75,67.289 2.645,67.285 2.512,67.277 2.375,67.27 2.293,67.266 2.262,67.258 2.23,67.254 2.207,67.238 2.191,67.215 2.18,67.188 2.172,67.137 2.172,67.063 L 2.168,66.816 2.145,66.789 H 2.02 L 1.996,66.813 C 1.949,67.184 1.875,67.5 1.773,67.758"
         style="fill:#000000;fill-opacity:1;fill-rule:nonzero;stroke:none"
         id="path166" /><path
         d="M 2.266,70.383 H 2.191 L 2.16,70.402 c -0.066,0.184 -0.129,0.332 -0.187,0.446 -0.512,0 -0.809,-0.008 -0.891,-0.02 -0.07,0.203 -0.148,0.367 -0.227,0.496 l 0.059,0.071 c 0.121,-0.02 0.481,-0.043 1.07,-0.071 0.004,0.098 0.004,0.203 0.004,0.317 0,0.23 -0.004,0.394 -0.015,0.496 l 0.019,0.019 0.246,-0.054 0.028,-0.024 C 2.262,71.977 2.262,71.867 2.262,71.746 c 0,-0.109 0,-0.25 0.004,-0.422 l 1.191,-0.019 c 0.273,0 0.453,0.008 0.539,0.019 0.086,0.016 0.152,0.051 0.199,0.106 0.047,0.058 0.075,0.144 0.075,0.258 0,0.132 -0.036,0.253 -0.106,0.363 l 0.106,0.07 c 0.035,-0.047 0.132,-0.16 0.293,-0.336 0.046,-0.101 0.07,-0.207 0.07,-0.312 0,-0.438 -0.211,-0.66 -0.637,-0.66 -0.156,0 -0.289,0.003 -0.398,0.015 -0.035,0 -0.067,0 -0.102,0 H 2.277 v -0.117 c 0,-0.09 0.004,-0.191 0.012,-0.305 z"
         style="fill:#000000;fill-opacity:1;fill-rule:nonzero;stroke:none"
         id="path168" /><path
         d="M 7.086,96.164 H 120.473"
         style="fill:none;stroke:#000000;stroke-width:0.5;stroke-linecap:square;stroke-linejoin:round;stroke-miterlimit:4;stroke-dasharray:none;stroke-opacity:1"
         id="path170" /><path
         d="M 120.473,8.293 V 96.164"
         style="fill:none;stroke:#000000;stroke-width:0.5;stroke-linecap:square;stroke-linejoin:round;stroke-miterlimit:4;stroke-dasharray:none;stroke-opacity:1"
         id="path172" /><path
         d="M 7.086,8.293 H 120.473"
         style="fill:none;stroke:#000000;stroke-width:0.5;stroke-linecap:square;stroke-linejoin:round;stroke-miterlimit:4;stroke-dasharray:none;stroke-opacity:1"
         id="path174" /><path
         d="M 7.086,8.293 V 96.164"
         style="fill:none;stroke:#000000;stroke-width:0.5;stroke-linecap:square;stroke-linejoin:round;stroke-miterlimit:4;stroke-dasharray:none;stroke-opacity:1"
         id="path176" /><path
         d="M 63.781,48.047 V 25.496"
         style="fill:none;stroke:#000000;stroke-width:0.5;stroke-linecap:round;stroke-linejoin:round;stroke-miterlimit:4;stroke-dasharray:none;stroke-opacity:1"
         id="path178" /><path
         d="m 64.98,27.898 -1.199,-2.402 -1.203,2.402 z"
         style="fill:#000000;fill-opacity:1;fill-rule:nonzero;stroke:#000000;stroke-width:0.5;stroke-linecap:round;stroke-linejoin:round;stroke-miterlimit:4;stroke-dasharray:none;stroke-opacity:1"
         id="path180" /><path
         d="m 59.672,52.66 -0.094,-0.211 c -0.203,-0.133 -0.383,-0.219 -0.543,-0.254 -0.16,-0.043 -0.301,-0.062 -0.426,-0.062 -0.234,0 -0.457,0.047 -0.668,0.14 -0.211,0.09 -0.382,0.247 -0.511,0.465 -0.133,0.219 -0.2,0.485 -0.2,0.793 0,0.203 0.028,0.387 0.075,0.555 0.054,0.164 0.105,0.285 0.164,0.367 0.054,0.078 0.148,0.168 0.281,0.266 0.133,0.097 0.273,0.176 0.422,0.234 0.148,0.059 0.308,0.086 0.48,0.086 0.235,0 0.442,-0.055 0.621,-0.164 0.176,-0.109 0.301,-0.25 0.375,-0.422 0.071,-0.172 0.11,-0.355 0.11,-0.547 0,-0.062 -0.004,-0.121 -0.012,-0.179 L 59.715,53.695 C 59.582,53.668 59.402,53.648 59.18,53.637 58.953,53.629 58.805,53.625 58.734,53.625 h -0.941 c 0.004,-0.406 0.105,-0.703 0.305,-0.895 0.199,-0.191 0.445,-0.289 0.734,-0.289 0.137,0 0.266,0.024 0.395,0.071 0.125,0.047 0.257,0.113 0.398,0.199 z m -1.879,1.199 c 0.035,-0.007 0.172,-0.015 0.406,-0.023 0.235,-0.008 0.41,-0.012 0.524,-0.012 0.269,0 0.437,0.004 0.496,0.016 0,0.047 0,0.082 0,0.109 0,0.301 -0.059,0.528 -0.184,0.676 -0.121,0.145 -0.289,0.219 -0.504,0.219 -0.23,0 -0.414,-0.082 -0.543,-0.25 -0.129,-0.164 -0.195,-0.41 -0.195,-0.735"
         style="fill:#000000;fill-opacity:1;fill-rule:nonzero;stroke:none"
         id="path182" /><path
         d="m 60.086,52.207 -0.023,0.027 v 0.118 l 0.023,0.023 c 0.074,0 0.133,0.012 0.18,0.035 0.043,0.02 0.101,0.063 0.168,0.125 0.062,0.067 0.179,0.203 0.343,0.406 L 61.25,53.523 61,53.895 c -0.035,0.054 -0.113,0.164 -0.23,0.324 -0.114,0.16 -0.211,0.281 -0.29,0.359 -0.078,0.082 -0.136,0.133 -0.175,0.152 -0.035,0.02 -0.075,0.028 -0.114,0.028 -0.019,0 -0.043,0 -0.07,0 l -0.031,0.019 -0.024,0.118 0.024,0.027 c 0.199,0.027 0.418,0.062 0.66,0.113 0.133,-0.109 0.332,-0.371 0.598,-0.781 l 0.215,-0.344 0.187,0.235 c 0.141,0.187 0.34,0.464 0.598,0.835 0.093,-0.015 0.168,-0.019 0.222,-0.019 0.051,0 0.118,0.004 0.203,0.019 l 0.024,-0.023 V 54.84 l -0.024,-0.024 c -0.062,-0.007 -0.109,-0.015 -0.14,-0.031 -0.028,-0.012 -0.082,-0.058 -0.16,-0.133 -0.078,-0.078 -0.184,-0.195 -0.313,-0.351 L 61.984,54.09 c -0.035,-0.043 -0.07,-0.086 -0.105,-0.129 l -0.18,-0.234 0.11,-0.164 c 0.046,-0.071 0.164,-0.239 0.351,-0.497 0.188,-0.257 0.317,-0.429 0.391,-0.515 0.078,-0.09 0.133,-0.141 0.164,-0.156 0.031,-0.012 0.086,-0.02 0.16,-0.02 l 0.023,-0.023 V 52.23 l -0.023,-0.023 c -0.145,0.016 -0.258,0.02 -0.336,0.02 -0.023,0 -0.148,-0.004 -0.375,-0.02 -0.16,0.203 -0.32,0.426 -0.484,0.676 l -0.297,0.453 C 61.18,53.105 60.91,52.73 60.574,52.207 c -0.133,0.016 -0.211,0.02 -0.238,0.02 -0.039,0 -0.121,-0.004 -0.25,-0.02"
         style="fill:#000000;fill-opacity:1;fill-rule:nonzero;stroke:none"
         id="path184" /><path
         d="m 63.672,54.215 -0.113,0.027 -0.024,0.031 v 0.364 c 0.348,0.258 0.688,0.386 1.016,0.386 0.222,0 0.41,-0.043 0.558,-0.125 0.149,-0.085 0.254,-0.191 0.321,-0.316 0.066,-0.125 0.101,-0.273 0.101,-0.441 L 65.516,53.555 V 52.68 c 0,-0.121 0.007,-0.192 0.023,-0.219 0.02,-0.023 0.039,-0.043 0.059,-0.051 0.023,-0.008 0.062,-0.015 0.121,-0.019 l 0.168,-0.016 0.023,-0.027 V 52.23 l -0.023,-0.023 c -0.145,0.012 -0.278,0.02 -0.399,0.02 -0.117,0 -0.258,-0.008 -0.422,-0.02 l -0.046,0.043 0.011,0.469 -0.636,-0.496 c -0.11,-0.047 -0.227,-0.067 -0.352,-0.067 -0.156,0 -0.293,0.028 -0.402,0.082 -0.114,0.059 -0.2,0.137 -0.258,0.239 -0.063,0.101 -0.09,0.226 -0.09,0.371 0,0.285 0.09,0.511 0.27,0.672 0.179,0.16 0.667,0.296 1.468,0.41 0,0.289 -0.062,0.492 -0.191,0.613 -0.129,0.117 -0.301,0.176 -0.52,0.176 -0.113,0 -0.215,-0.016 -0.308,-0.051 -0.094,-0.031 -0.145,-0.059 -0.16,-0.078 -0.012,-0.024 -0.067,-0.141 -0.157,-0.36 z m 1.359,-0.465 c -0.547,-0.09 -0.886,-0.187 -1.019,-0.293 -0.137,-0.105 -0.203,-0.269 -0.203,-0.488 0,-0.309 0.152,-0.461 0.453,-0.461 0.261,0 0.515,0.152 0.769,0.453 z"
         style="fill:#000000;fill-opacity:1;fill-rule:nonzero;stroke:none"
         id="path186" /><path
         d="m 68.594,52.543 -0.117,-0.199 c -0.25,-0.137 -0.532,-0.207 -0.844,-0.207 -0.43,0 -0.762,0.129 -0.996,0.383 -0.235,0.257 -0.352,0.585 -0.352,0.992 0,0.183 0.02,0.347 0.063,0.492 0.039,0.141 0.09,0.262 0.152,0.355 0.059,0.094 0.129,0.168 0.203,0.223 0.074,0.055 0.199,0.129 0.375,0.227 0.176,0.097 0.313,0.16 0.402,0.191 0.09,0.031 0.211,0.047 0.372,0.047 0.3,0 0.55,-0.059 0.742,-0.172 -0.035,-0.223 -0.063,-0.469 -0.082,-0.738 l -0.028,-0.024 h -0.121 l -0.027,0.028 c -0.008,0.16 -0.016,0.273 -0.031,0.328 -0.012,0.058 -0.09,0.117 -0.235,0.183 -0.14,0.063 -0.289,0.098 -0.449,0.098 -0.16,0 -0.305,-0.035 -0.43,-0.102 -0.125,-0.07 -0.218,-0.179 -0.281,-0.332 -0.062,-0.156 -0.097,-0.336 -0.097,-0.55 0,-0.18 0.027,-0.356 0.078,-0.528 0.05,-0.168 0.117,-0.312 0.199,-0.422 0.086,-0.113 0.195,-0.203 0.332,-0.273 0.137,-0.066 0.289,-0.102 0.457,-0.102 0.105,0 0.207,0.016 0.309,0.043 0.101,0.028 0.214,0.071 0.347,0.133 z"
         style="fill:#000000;fill-opacity:1;fill-rule:nonzero;stroke:none"
         id="path188" /><path
         d="m 68.852,54.527 v 0.078 l 0.019,0.028 c 0.184,0.07 0.332,0.133 0.445,0.191 0,0.508 -0.007,0.805 -0.019,0.891 0.203,0.07 0.367,0.144 0.496,0.226 l 0.07,-0.058 c -0.019,-0.125 -0.043,-0.481 -0.07,-1.074 0.098,0 0.203,-0.004 0.316,-0.004 0.231,0 0.395,0.008 0.496,0.019 l 0.02,-0.019 -0.055,-0.246 -0.023,-0.028 c -0.102,0 -0.211,0.004 -0.332,0.004 -0.11,0 -0.25,-0.004 -0.422,-0.004 L 69.777,53.34 c 0,-0.277 0.004,-0.457 0.016,-0.543 0.016,-0.082 0.051,-0.149 0.105,-0.199 0.059,-0.047 0.145,-0.071 0.258,-0.071 0.133,0 0.254,0.036 0.364,0.102 l 0.07,-0.106 c -0.047,-0.031 -0.16,-0.128 -0.336,-0.293 -0.102,-0.046 -0.207,-0.07 -0.313,-0.07 -0.437,0 -0.656,0.215 -0.656,0.641 0,0.156 0.004,0.289 0.012,0.398 0,0.031 0,0.067 0,0.102 v 1.215 H 69.18 c -0.09,0 -0.192,-0.004 -0.305,-0.012 z"
         style="fill:#000000;fill-opacity:1;fill-rule:nonzero;stroke:none"
         id="path190" /><path
         d="m 81.102,84.621 c 8.109,1.652 16.003,3.266 23.687,4.836"
         style="fill:none;stroke:#000000;stroke-width:0.5;stroke-linecap:round;stroke-linejoin:round;stroke-miterlimit:4;stroke-dasharray:none;stroke-opacity:1"
         id="path192" /><path
         d="m 102.199,90.156 2.59,-0.699 -2.113,-1.652 z"
         style="fill:#000000;fill-opacity:1;fill-rule:nonzero;stroke:#000000;stroke-width:0.5;stroke-linecap:round;stroke-linejoin:round;stroke-miterlimit:4;stroke-dasharray:none;stroke-opacity:1"
         id="path194" /><path
         d="m 80.402,75.711 c 8.719,2.082 17.231,4.117 25.539,6.102"
         style="fill:none;stroke:#000000;stroke-width:0.5;stroke-linecap:round;stroke-linejoin:round;stroke-miterlimit:4;stroke-dasharray:none;stroke-opacity:1"
         id="path196" /><path
         d="m 103.328,82.426 2.613,-0.613 -2.058,-1.723 z"
         style="fill:#000000;fill-opacity:1;fill-rule:nonzero;stroke:#000000;stroke-width:0.5;stroke-linecap:round;stroke-linejoin:round;stroke-miterlimit:4;stroke-dasharray:none;stroke-opacity:1"
         id="path198" /><path
         d="m 82.898,67.191 c 6.731,1.664 13.278,3.282 19.645,4.852"
         style="fill:none;stroke:#000000;stroke-width:0.5;stroke-linecap:round;stroke-linejoin:round;stroke-miterlimit:4;stroke-dasharray:none;stroke-opacity:1"
         id="path200" /><path
         d="m 99.926,72.633 2.617,-0.59 -2.039,-1.738 z"
         style="fill:#000000;fill-opacity:1;fill-rule:nonzero;stroke:#000000;stroke-width:0.5;stroke-linecap:round;stroke-linejoin:round;stroke-miterlimit:4;stroke-dasharray:none;stroke-opacity:1"
         id="path202" /><path
         d="m 51.324,85.543 c -0.062,0.109 -0.109,0.125 -0.219,0.125 -0.109,0 -0.156,-0.031 -0.203,-0.125 l -2.328,-3.984 c 0,-0.016 -0.031,-0.063 -0.031,-0.094 0,-0.063 0.062,-0.063 0.156,-0.063 h 4.828 c 0.094,0 0.141,0 0.141,0.063 0,0.015 0,0.047 -0.016,0.078 z m -0.422,-0.469 1.828,-3.156 h -3.656 z"
         style="fill:#000000;fill-opacity:1;fill-rule:nonzero;stroke:none"
         id="path204" /><path
         d="m 55.707,83.746 h 0.656 c 0.11,0 0.203,0 0.203,0.141 0,0.093 -0.078,0.093 -0.187,0.093 H 55.77 l 0.203,0.829 c 0.031,0.093 0.031,0.125 0.031,0.125 0,0.156 -0.109,0.203 -0.219,0.203 -0.062,0 -0.219,-0.032 -0.281,-0.235 L 55.27,83.98 h -0.641 c -0.125,0 -0.125,0 -0.156,-0.015 -0.032,-0.031 -0.047,-0.11 -0.047,-0.141 0.015,-0.078 0.062,-0.078 0.187,-0.078 h 0.61 l -0.36,-1.422 c -0.031,-0.125 -0.078,-0.328 -0.078,-0.406 0,-0.344 0.313,-0.578 0.672,-0.578 0.688,0 1.094,0.828 1.094,0.922 0,0.015 -0.016,0.093 -0.11,0.093 -0.078,0 -0.093,-0.031 -0.125,-0.109 -0.203,-0.453 -0.546,-0.703 -0.843,-0.703 -0.219,0 -0.219,0.219 -0.219,0.297 0,0.078 0,0.094 0.031,0.203 z"
         style="fill:#000000;fill-opacity:1;fill-rule:nonzero;stroke:none"
         id="path206" /><path
         d="m 61.836,83.434 c 0.094,0 0.219,0 0.219,0.156 0,0.156 -0.157,0.156 -0.25,0.156 h -4.141 c -0.078,0 -0.25,0 -0.25,-0.156 0,-0.156 0.141,-0.156 0.219,-0.156 z m -0.031,-1.375 c 0.093,0 0.25,0 0.25,0.156 0,0.156 -0.125,0.156 -0.219,0.156 h -4.203 c -0.078,0 -0.219,0 -0.219,-0.156 0,-0.156 0.172,-0.156 0.25,-0.156 z"
         style="fill:#000000;fill-opacity:1;fill-rule:nonzero;stroke:none"
         id="path208" /><path
         d="m 65.648,85.012 c 0.047,0.187 0.063,0.203 0.313,0.203 h 0.547 c 0.64,0 0.734,-0.188 0.734,-0.547 0,-0.078 -0.015,-0.234 -0.047,-0.422 0,-0.016 -0.015,-0.078 -0.015,-0.109 0,-0.047 0.047,-0.094 0.109,-0.094 0.109,0 0.109,0.062 0.125,0.156 l 0.156,1.141 c 0,0.109 -0.062,0.109 -0.172,0.109 h -3.89 c -0.156,0 -0.172,0 -0.219,-0.125 L 62.898,84.23 c -0.015,-0.062 -0.015,-0.093 -0.015,-0.093 0,-0.016 0,-0.094 0.109,-0.094 0.078,0 0.078,0.016 0.141,0.172 0.265,0.734 0.453,1 1.219,1 h 0.546 c 0.125,0 0.125,0 0.204,-0.031 l -0.813,-3.266 c -0.031,-0.172 -0.062,-0.219 -0.234,-0.25 -0.172,-0.031 -0.516,-0.031 -0.516,-0.031 -0.156,0 -0.172,0 -0.203,-0.016 -0.031,-0.016 -0.047,-0.109 -0.047,-0.141 0,0 0.016,-0.078 0.109,-0.078 0.157,0 0.344,0.016 0.5,0.016 0.25,0 0.407,0.016 0.563,0.016 0.172,0 0.359,-0.016 0.531,-0.016 0.188,0 0.375,-0.016 0.547,-0.016 0.047,0 0.094,0 0.109,0.047 0.016,0.016 0.032,0.078 0.032,0.11 -0.016,0.078 -0.047,0.078 -0.235,0.078 -0.14,0 -0.265,0.015 -0.39,0.015 -0.141,0.016 -0.219,0.016 -0.219,0.11 z"
         style="fill:#000000;fill-opacity:1;fill-rule:nonzero;stroke:none"
         id="path210" /><path
         d="m 70.902,85.605 c 0.047,0.094 0.047,0.11 0.047,0.125 0,0.094 -0.078,0.157 -0.156,0.157 -0.109,0 -0.141,-0.063 -0.172,-0.157 l -2.344,-5.531 c -0.031,-0.094 -0.031,-0.109 -0.031,-0.14 0,-0.079 0.063,-0.157 0.156,-0.157 0.094,0 0.125,0.078 0.157,0.157 z"
         style="fill:#000000;fill-opacity:1;fill-rule:nonzero;stroke:none"
         id="path212" /><path
         d="M 74.719,82.527 H 74.5 C 74.484,82.434 74.422,82.043 74.344,81.98 74.297,81.934 73.813,81.934 73.719,81.934 h -1.11 l 0.766,0.625 c 0.203,0.171 0.734,0.546 0.922,0.734 0.172,0.172 0.422,0.484 0.422,0.906 0,0.75 -0.672,1.188 -1.485,1.188 -0.765,0 -1.296,-0.516 -1.296,-1.078 0,-0.297 0.25,-0.344 0.312,-0.344 0.156,0 0.328,0.109 0.328,0.328 0,0.125 -0.078,0.328 -0.344,0.328 0.141,0.297 0.5,0.531 0.922,0.531 0.625,0 0.953,-0.468 0.953,-0.953 0,-0.422 -0.281,-0.859 -0.687,-1.25 L 72,81.652 C 71.938,81.59 71.938,81.59 71.938,81.402 h 2.593 z"
         style="fill:#000000;fill-opacity:1;fill-rule:nonzero;stroke:none"
         id="path214" /><path
         d="m 78.449,83.309 c 0,0.437 0,2.078 -1.469,2.078 -1.468,0 -1.468,-1.641 -1.468,-2.078 0,-0.422 0,-2.032 1.468,-2.032 1.469,0 1.469,1.61 1.469,2.032 z M 76.98,81.465 c -0.25,0 -0.656,0.125 -0.812,0.625 -0.094,0.344 -0.094,0.922 -0.094,1.297 0,0.406 0,0.859 0.094,1.187 0.141,0.531 0.594,0.61 0.812,0.61 0.266,0 0.672,-0.125 0.797,-0.579 0.094,-0.312 0.094,-0.75 0.094,-1.218 0,-0.375 0,-0.985 -0.094,-1.313 -0.172,-0.531 -0.609,-0.609 -0.797,-0.609 z"
         style="fill:#000000;fill-opacity:1;fill-rule:nonzero;stroke:none"
         id="path216" /><path
         d="m 51.324,76.234 c -0.062,0.11 -0.109,0.125 -0.219,0.125 -0.109,0 -0.156,-0.031 -0.203,-0.125 L 48.574,72.25 c 0,-0.016 -0.031,-0.062 -0.031,-0.094 0,-0.062 0.062,-0.062 0.156,-0.062 h 4.828 c 0.094,0 0.141,0 0.141,0.062 0,0.016 0,0.047 -0.016,0.078 z m -0.422,-0.468 1.828,-3.157 h -3.656 z"
         style="fill:#000000;fill-opacity:1;fill-rule:nonzero;stroke:none"
         id="path218" /><path
         d="m 55.707,74.438 h 0.656 c 0.11,0 0.203,0 0.203,0.14 0,0.094 -0.078,0.094 -0.187,0.094 H 55.77 l 0.203,0.828 c 0.031,0.094 0.031,0.125 0.031,0.125 0,0.156 -0.109,0.203 -0.219,0.203 -0.062,0 -0.219,-0.031 -0.281,-0.234 L 55.27,74.672 h -0.641 c -0.125,0 -0.125,0 -0.156,-0.016 -0.032,-0.031 -0.047,-0.109 -0.047,-0.14 0.015,-0.078 0.062,-0.078 0.187,-0.078 h 0.61 l -0.36,-1.422 c -0.031,-0.125 -0.078,-0.328 -0.078,-0.407 0,-0.343 0.313,-0.578 0.672,-0.578 0.688,0 1.094,0.828 1.094,0.922 0,0.016 -0.016,0.094 -0.11,0.094 -0.078,0 -0.093,-0.031 -0.125,-0.109 -0.203,-0.454 -0.546,-0.704 -0.843,-0.704 -0.219,0 -0.219,0.219 -0.219,0.297 0,0.078 0,0.094 0.031,0.203 z"
         style="fill:#000000;fill-opacity:1;fill-rule:nonzero;stroke:none"
         id="path220" /><path
         d="m 61.836,74.125 c 0.094,0 0.219,0 0.219,0.156 0,0.157 -0.157,0.157 -0.25,0.157 h -4.141 c -0.078,0 -0.25,0 -0.25,-0.157 0,-0.156 0.141,-0.156 0.219,-0.156 z M 61.805,72.75 c 0.093,0 0.25,0 0.25,0.156 0,0.157 -0.125,0.157 -0.219,0.157 h -4.203 c -0.078,0 -0.219,0 -0.219,-0.157 0,-0.156 0.172,-0.156 0.25,-0.156 z"
         style="fill:#000000;fill-opacity:1;fill-rule:nonzero;stroke:none"
         id="path222" /><path
         d="m 65.648,75.703 c 0.047,0.188 0.063,0.203 0.313,0.203 h 0.547 c 0.64,0 0.734,-0.187 0.734,-0.547 0,-0.078 -0.015,-0.234 -0.047,-0.421 0,-0.016 -0.015,-0.079 -0.015,-0.11 0,-0.047 0.047,-0.094 0.109,-0.094 0.109,0 0.109,0.063 0.125,0.157 l 0.156,1.14 c 0,0.11 -0.062,0.11 -0.172,0.11 h -3.89 c -0.156,0 -0.172,0 -0.219,-0.125 l -0.391,-1.094 c -0.015,-0.063 -0.015,-0.094 -0.015,-0.094 0,-0.015 0,-0.094 0.109,-0.094 0.078,0 0.078,0.016 0.141,0.172 0.265,0.735 0.453,1 1.219,1 h 0.546 c 0.125,0 0.125,0 0.204,-0.031 l -0.813,-3.266 c -0.031,-0.171 -0.062,-0.218 -0.234,-0.25 -0.172,-0.031 -0.516,-0.031 -0.516,-0.031 -0.156,0 -0.172,0 -0.203,-0.015 -0.031,-0.016 -0.047,-0.11 -0.047,-0.141 0,0 0.016,-0.078 0.109,-0.078 0.157,0 0.344,0.015 0.5,0.015 0.25,0 0.407,0.016 0.563,0.016 0.172,0 0.359,-0.016 0.531,-0.016 0.188,0 0.375,-0.015 0.547,-0.015 0.047,0 0.094,0 0.109,0.047 0.016,0.015 0.032,0.078 0.032,0.109 -0.016,0.078 -0.047,0.078 -0.235,0.078 -0.14,0 -0.265,0.016 -0.39,0.016 -0.141,0.015 -0.219,0.015 -0.219,0.109 z"
         style="fill:#000000;fill-opacity:1;fill-rule:nonzero;stroke:none"
         id="path224" /><path
         d="m 70.902,76.297 c 0.047,0.094 0.047,0.109 0.047,0.125 0,0.094 -0.078,0.156 -0.156,0.156 -0.109,0 -0.141,-0.062 -0.172,-0.156 l -2.344,-5.531 c -0.031,-0.094 -0.031,-0.11 -0.031,-0.141 0,-0.078 0.063,-0.156 0.156,-0.156 0.094,0 0.125,0.078 0.157,0.156 z"
         style="fill:#000000;fill-opacity:1;fill-rule:nonzero;stroke:none"
         id="path226" /><path
         d="m 72.516,75.422 c 0.203,-0.063 0.406,-0.078 0.609,-0.078 0.141,0 0.469,0 0.844,0.203 0.109,0.062 0.469,0.312 0.469,0.437 0,0.079 -0.047,0.094 -0.079,0.094 -0.015,0 -0.015,0 -0.093,-0.031 -0.203,-0.078 -0.516,-0.172 -0.907,-0.172 -0.296,0 -0.609,0.063 -0.89,0.156 -0.047,0.032 -0.078,0.047 -0.094,0.047 -0.094,0 -0.094,-0.078 -0.094,-0.172 v -1.797 c 0,-0.093 0,-0.171 0.11,-0.171 0.062,0 0.078,0.031 0.109,0.078 0.156,0.187 0.422,0.39 0.891,0.39 0.734,0 0.734,-0.89 0.734,-1.078 0,-0.234 -0.016,-0.578 -0.219,-0.828 -0.187,-0.219 -0.468,-0.312 -0.718,-0.312 -0.407,0 -0.829,0.218 -0.969,0.578 0.297,0 0.328,0.234 0.328,0.297 0,0.171 -0.125,0.312 -0.313,0.312 -0.046,0 -0.296,-0.031 -0.296,-0.328 0,-0.547 0.515,-1.078 1.265,-1.078 0.828,0 1.516,0.578 1.516,1.328 0,0.687 -0.547,1.297 -1.328,1.297 -0.375,0 -0.688,-0.125 -0.875,-0.281 z"
         style="fill:#000000;fill-opacity:1;fill-rule:nonzero;stroke:none"
         id="path228" /><path
         d="m 78.449,74 c 0,0.438 0,2.078 -1.469,2.078 -1.468,0 -1.468,-1.64 -1.468,-2.078 0,-0.422 0,-2.031 1.468,-2.031 1.469,0 1.469,1.609 1.469,2.031 z M 76.98,72.156 c -0.25,0 -0.656,0.125 -0.812,0.625 -0.094,0.344 -0.094,0.922 -0.094,1.297 0,0.406 0,0.86 0.094,1.188 0.141,0.531 0.594,0.609 0.812,0.609 0.266,0 0.672,-0.125 0.797,-0.578 0.094,-0.313 0.094,-0.75 0.094,-1.219 0,-0.375 0,-0.984 -0.094,-1.312 -0.172,-0.532 -0.609,-0.61 -0.797,-0.61 z"
         style="fill:#000000;fill-opacity:1;fill-rule:nonzero;stroke:none"
         id="path230" /><path
         d="m 49.496,66.879 c -0.062,0.109 -0.109,0.125 -0.219,0.125 -0.109,0 -0.156,-0.031 -0.203,-0.125 l -2.328,-3.984 c 0,-0.016 -0.031,-0.063 -0.031,-0.094 0,-0.063 0.062,-0.063 0.156,-0.063 h 4.828 c 0.094,0 0.141,0 0.141,0.063 0,0.015 0,0.047 -0.016,0.078 z m -0.422,-0.469 1.828,-3.156 h -3.656 z"
         style="fill:#000000;fill-opacity:1;fill-rule:nonzero;stroke:none"
         id="path232" /><path
         d="m 53.879,65.082 h 0.656 c 0.11,0 0.203,0 0.203,0.141 0,0.093 -0.078,0.093 -0.187,0.093 h -0.61 l 0.204,0.829 c 0.031,0.093 0.031,0.125 0.031,0.125 0,0.156 -0.11,0.203 -0.219,0.203 -0.062,0 -0.219,-0.032 -0.281,-0.235 l -0.235,-0.922 h -0.64 c -0.125,0 -0.125,0 -0.156,-0.015 -0.032,-0.031 -0.047,-0.11 -0.047,-0.141 0.015,-0.078 0.062,-0.078 0.187,-0.078 h 0.61 l -0.36,-1.422 c -0.031,-0.125 -0.078,-0.328 -0.078,-0.406 0,-0.344 0.313,-0.578 0.672,-0.578 0.687,0 1.094,0.828 1.094,0.922 0,0.015 -0.016,0.093 -0.11,0.093 -0.078,0 -0.093,-0.031 -0.125,-0.109 -0.203,-0.453 -0.547,-0.703 -0.843,-0.703 -0.219,0 -0.219,0.219 -0.219,0.297 0,0.078 0,0.094 0.031,0.203 z"
         style="fill:#000000;fill-opacity:1;fill-rule:nonzero;stroke:none"
         id="path234" /><path
         d="m 60.012,64.77 c 0.093,0 0.218,0 0.218,0.156 0,0.156 -0.156,0.156 -0.25,0.156 h -4.14 c -0.078,0 -0.25,0 -0.25,-0.156 0,-0.156 0.14,-0.156 0.219,-0.156 z M 59.98,63.395 c 0.094,0 0.25,0 0.25,0.156 0,0.156 -0.125,0.156 -0.218,0.156 h -4.203 c -0.079,0 -0.219,0 -0.219,-0.156 0,-0.156 0.172,-0.156 0.25,-0.156 z"
         style="fill:#000000;fill-opacity:1;fill-rule:nonzero;stroke:none"
         id="path236" /><path
         d="m 63.82,66.348 c 0.047,0.187 0.063,0.203 0.313,0.203 h 0.547 c 0.64,0 0.734,-0.188 0.734,-0.547 0,-0.078 -0.016,-0.234 -0.047,-0.422 0,-0.016 -0.015,-0.078 -0.015,-0.109 0,-0.047 0.046,-0.094 0.109,-0.094 0.109,0 0.109,0.062 0.125,0.156 l 0.156,1.141 c 0,0.109 -0.062,0.109 -0.172,0.109 h -3.89 c -0.157,0 -0.172,0 -0.219,-0.125 L 61.07,65.566 c -0.015,-0.062 -0.015,-0.093 -0.015,-0.093 0,-0.016 0,-0.094 0.109,-0.094 0.078,0 0.078,0.016 0.141,0.172 0.265,0.734 0.453,1 1.218,1 h 0.547 c 0.125,0 0.125,0 0.203,-0.031 l -0.812,-3.266 c -0.031,-0.172 -0.063,-0.219 -0.234,-0.25 -0.172,-0.031 -0.516,-0.031 -0.516,-0.031 -0.156,0 -0.172,0 -0.203,-0.016 -0.031,-0.016 -0.047,-0.109 -0.047,-0.141 0,0 0.016,-0.078 0.109,-0.078 0.157,0 0.344,0.016 0.5,0.016 0.25,0 0.407,0.016 0.563,0.016 0.172,0 0.359,-0.016 0.531,-0.016 0.188,0 0.375,-0.016 0.547,-0.016 0.047,0 0.094,0 0.109,0.047 0.016,0.016 0.032,0.078 0.032,0.11 -0.016,0.078 -0.047,0.078 -0.235,0.078 -0.14,0 -0.265,0.015 -0.39,0.015 -0.141,0.016 -0.219,0.016 -0.219,0.11 z"
         style="fill:#000000;fill-opacity:1;fill-rule:nonzero;stroke:none"
         id="path238" /><path
         d="m 69.078,66.941 c 0.047,0.094 0.047,0.11 0.047,0.125 0,0.094 -0.078,0.157 -0.156,0.157 -0.11,0 -0.141,-0.063 -0.172,-0.157 l -2.344,-5.531 c -0.031,-0.094 -0.031,-0.109 -0.031,-0.14 0,-0.079 0.062,-0.157 0.156,-0.157 0.094,0 0.125,0.078 0.156,0.157 z"
         style="fill:#000000;fill-opacity:1;fill-rule:nonzero;stroke:none"
         id="path240" /><path
         d="m 71.816,66.535 c 0,0.188 -0.015,0.188 -0.203,0.188 -0.39,-0.391 -1,-0.391 -1.218,-0.391 v -0.234 c 0.156,0 0.562,0 0.921,0.172 v -3.016 c 0,-0.203 0,-0.281 -0.625,-0.281 h -0.25 v -0.235 c 0.329,0.032 0.797,0.032 1.125,0.032 0.329,0 0.797,0 1.125,-0.032 v 0.235 h -0.25 c -0.625,0 -0.625,0.078 -0.625,0.281 z"
         style="fill:#000000;fill-opacity:1;fill-rule:nonzero;stroke:none"
         id="path242" /><path
         d="m 76.625,64.645 c 0,0.437 0,2.078 -1.469,2.078 -1.468,0 -1.468,-1.641 -1.468,-2.078 0,-0.422 0,-2.032 1.468,-2.032 1.469,0 1.469,1.61 1.469,2.032 z m -1.469,-1.844 c -0.25,0 -0.656,0.125 -0.812,0.625 -0.094,0.344 -0.094,0.922 -0.094,1.297 0,0.406 0,0.859 0.094,1.187 0.14,0.531 0.594,0.61 0.812,0.61 0.266,0 0.672,-0.125 0.797,-0.579 0.094,-0.312 0.094,-0.75 0.094,-1.218 0,-0.375 0,-0.985 -0.094,-1.313 -0.172,-0.531 -0.609,-0.609 -0.797,-0.609 z"
         style="fill:#000000;fill-opacity:1;fill-rule:nonzero;stroke:none"
         id="path244" /><path
         d="m 80.277,64.645 c 0,0.437 0,2.078 -1.468,2.078 -1.469,0 -1.469,-1.641 -1.469,-2.078 0,-0.422 0,-2.032 1.469,-2.032 1.468,0 1.468,1.61 1.468,2.032 z m -1.468,-1.844 c -0.25,0 -0.657,0.125 -0.813,0.625 -0.094,0.344 -0.094,0.922 -0.094,1.297 0,0.406 0,0.859 0.094,1.187 0.141,0.531 0.594,0.61 0.813,0.61 0.265,0 0.671,-0.125 0.796,-0.579 0.094,-0.312 0.094,-0.75 0.094,-1.218 0,-0.375 0,-0.985 -0.094,-1.313 -0.171,-0.531 -0.609,-0.609 -0.796,-0.609 z"
         style="fill:#000000;fill-opacity:1;fill-rule:nonzero;stroke:none"
         id="path246" /></g></g></svg>
