<?xml version="1.0" encoding="UTF-8" standalone="no"?>
<!-- Created with Inkscape (http://www.inkscape.org/) -->

<svg
   version="1.1"
   id="svg2"
   xml:space="preserve"
   width="170.07875"
   height="136.55434"
   viewBox="0 0 170.07875 136.55434"
   sodipodi:docname="MM_bend.svg"
   inkscape:version="1.1 (ce6663b3b7, 2021-05-25)"
   xmlns:inkscape="http://www.inkscape.org/namespaces/inkscape"
   xmlns:sodipodi="http://sodipodi.sourceforge.net/DTD/sodipodi-0.dtd"
   xmlns="http://www.w3.org/2000/svg"
   xmlns:svg="http://www.w3.org/2000/svg"><defs
     id="defs6" /><sodipodi:namedview
     id="namedview4"
     pagecolor="#ffffff"
     bordercolor="#666666"
     borderopacity="1.0"
     inkscape:pageshadow="2"
     inkscape:pageopacity="0.0"
     inkscape:pagecheckerboard="0"
     showgrid="false"
     inkscape:zoom="6.0195818"
     inkscape:cx="53.990462"
     inkscape:cy="68.277168"
     inkscape:window-width="2493"
     inkscape:window-height="1385"
     inkscape:window-x="1987"
     inkscape:window-y="27"
     inkscape:window-maximized="1"
     inkscape:current-layer="g8" /><g
     id="g8"
     inkscape:groupmode="layer"
     inkscape:label="MM_bend"
     transform="matrix(1.3333333,0,0,-1.3333333,0,136.55433)"><g
       id="g10"><g
         id="g12"
         transform="matrix(1,0,0,-1,0,102.41575)"><path
           d="M 37.805,76.668 C 40.629,60.258 49.281,45.418 62.172,34.879"
           style="fill:none;stroke:#000000;stroke-width:0.465388;stroke-linecap:square;stroke-linejoin:round;stroke-miterlimit:4;stroke-dasharray:none;stroke-opacity:1"
           id="path14" /></g><g
         id="g16"
         transform="matrix(1,0,0,-1,0,102.41575)"><path
           d="m 119.965,88.453 c 0.004,7.492 -6.067,13.563 -13.559,13.563 -7.488,0 -13.558,-6.071 -13.554,-13.563 -0.004,-7.488 6.066,-13.558 13.554,-13.558 7.492,0 13.563,6.07 13.559,13.558 z"
           style="fill:none;stroke:#000000;stroke-width:0.8;stroke-linecap:butt;stroke-linejoin:miter;stroke-miterlimit:10;stroke-dasharray:none;stroke-opacity:1"
           id="path18" /></g><g
         id="g20"
         transform="matrix(1,0,0,-1,0,102.41575)"><path
           d="m 34.855,88.914 h 5.344 l 3.266,-5.66 6.625,11.473 6.621,-11.473 6.625,11.473 6.625,-11.473 6.621,11.473 6.625,-11.473 3.266,5.66 h 6.136"
           style="fill:none;stroke:#000000;stroke-width:0.5;stroke-linecap:butt;stroke-linejoin:miter;stroke-miterlimit:4;stroke-dasharray:none;stroke-opacity:1"
           id="path22" /></g><g
         id="g24"
         transform="matrix(1,0,0,-1,0,102.41575)"><path
           d="m 34.617,88.453 c 0,7.492 -6.07,13.563 -13.558,13.563 -7.489,0 -13.559,-6.071 -13.559,-13.563 0,-7.488 6.07,-13.558 13.559,-13.558 7.488,0 13.558,6.07 13.558,13.558 z"
           style="fill:none;stroke:#000000;stroke-width:0.8;stroke-linecap:butt;stroke-linejoin:miter;stroke-miterlimit:10;stroke-dasharray:none;stroke-opacity:1"
           id="path26" /></g><g
         id="g28"
         transform="matrix(1,0,0,-1,0,102.41575)"><path
           d="m 71.16,26.137 2.672,4.625 h 6.531 L 73.742,42.234 H 86.988 L 80.363,53.707 H 93.609 L 86.988,65.18 h 13.246 l -3.265,5.656 3.066,5.316"
           style="fill:none;stroke:#000000;stroke-width:0.5;stroke-linecap:butt;stroke-linejoin:miter;stroke-miterlimit:4;stroke-dasharray:none;stroke-opacity:1"
           id="path30" /></g><g
         id="g32"
         transform="matrix(0.57735,-1,-1,-0.57735,0,102.41575)"><path
           d="m 50.208,-42.45 c 0.002,6.485 -5.258,11.746 -11.742,11.744 -6.488,0 -11.745,-5.257 -11.743,-11.744 -10e-4,-6.486 5.257,-11.743 11.742,-11.745 6.487,0.003 11.744,5.261 11.743,11.745 z"
           style="fill:none;stroke:#000000;stroke-width:0.69282;stroke-linecap:butt;stroke-linejoin:miter;stroke-miterlimit:10;stroke-dasharray:none;stroke-opacity:1"
           id="path34" /></g><g
         id="g36"
         transform="matrix(0.624881,0.979288,1,-0.59117,0,102.41575)"><path
           d="m -23.138,52.341 8.357,10e-4 0.001,12.147 h -8.357 z"
           style="fill:#ffffff;fill-opacity:1;fill-rule:nonzero;stroke:#ffffff;stroke-width:0.622706;stroke-linecap:square;stroke-linejoin:round;stroke-miterlimit:4;stroke-dasharray:none;stroke-opacity:1"
           id="path38" /></g><path
         d="m 48.465,50.638 c 0,0.922 -0.297,1.891 -1.125,1.891 -1.313,0 -2.672,-2.562 -2.672,-4.547 0,-0.656 0.187,-1.875 1.125,-1.875 1.312,0 2.672,2.531 2.672,4.531 z m -2.828,-1.187 c 0.187,0.719 0.375,1.375 0.734,1.984 0.219,0.36 0.547,0.86 0.969,0.86 0.484,0 0.515,-0.766 0.515,-1.11 0,-0.531 -0.14,-1.156 -0.281,-1.734 z m 1.859,-0.281 c -0.141,-0.563 -0.312,-1.235 -0.672,-1.875 -0.234,-0.422 -0.594,-0.969 -1.031,-0.969 -0.375,0 -0.5,0.469 -0.5,1.125 0,0.578 0.141,1.156 0.281,1.719 z"
         style="fill:#000000;fill-opacity:1;fill-rule:nonzero;stroke:none"
         id="path40" /><path
         d="m 62.496,68.865 1.563,0.312 -0.512,-1.511 -0.512,-1.508 -1.051,1.199 -1.054,1.195 1.566,0.313"
         style="fill:#000000;fill-opacity:1;fill-rule:nonzero;stroke:none"
         id="path42" /><g
         id="g44"
         transform="matrix(-0.94138,0.999999,1,0.941381,0,102.41575)"><path
           d="m -48.979,16.389 -0.614,0.984 -0.546,-1.026 -0.544,-1.024 1.16,0.042 1.16,0.037 z"
           style="fill:none;stroke:#000000;stroke-width:0.0218802;stroke-linecap:butt;stroke-linejoin:miter;stroke-miterlimit:10;stroke-dasharray:none;stroke-opacity:1"
           id="path46" /></g><path
         d="m 38.32,24.431 -1.023,-1.222 -0.547,1.5 -0.543,1.496 1.57,-0.278 1.571,-0.273 -1.028,-1.223"
         style="fill:#000000;fill-opacity:1;fill-rule:nonzero;stroke:none"
         id="path48" /><g
         id="g50"
         transform="matrix(0.999999,-0.140588,-0.140588,-1,0,102.41575)"><path
           d="m 48.329,71.19 -0.835,1.34 -0.743,-1.396 -0.739,-1.392 1.578,0.056 1.578,0.051 z"
           style="fill:none;stroke:#000000;stroke-width:0.0297573;stroke-linecap:butt;stroke-linejoin:miter;stroke-miterlimit:10;stroke-dasharray:none;stroke-opacity:1"
           id="path52" /></g></g></g></svg>
