<?xml version="1.0" encoding="UTF-8" standalone="no"?>
<!-- Created with Inkscape (http://www.inkscape.org/) -->

<svg
   version="1.1"
   id="svg2"
   xml:space="preserve"
   width="169.33333"
   height="132"
   viewBox="0 0 169.33333 132"
   sodipodi:docname="MM_butanetorsion_even.svg"
   inkscape:version="1.1 (ce6663b3b7, 2021-05-25)"
   xmlns:inkscape="http://www.inkscape.org/namespaces/inkscape"
   xmlns:sodipodi="http://sodipodi.sourceforge.net/DTD/sodipodi-0.dtd"
   xmlns="http://www.w3.org/2000/svg"
   xmlns:svg="http://www.w3.org/2000/svg"><defs
     id="defs6"><clipPath
       clipPathUnits="userSpaceOnUse"
       id="clipPath22"><path
         d="M 7.086,96.164 H 120.473 V 15.379 H 7.086 Z"
         id="path20" /></clipPath><clipPath
       clipPathUnits="userSpaceOnUse"
       id="clipPath30"><path
         d="M 0,0 H 127 V 99 H 0 Z"
         id="path28" /></clipPath><clipPath
       clipPathUnits="userSpaceOnUse"
       id="clipPath46"><path
         d="M 0,0 H 127 V 99 H 0 Z"
         id="path44" /></clipPath></defs><sodipodi:namedview
     id="namedview4"
     pagecolor="#ffffff"
     bordercolor="#666666"
     borderopacity="1.0"
     inkscape:pageshadow="2"
     inkscape:pageopacity="0.0"
     inkscape:pagecheckerboard="0"
     showgrid="false"
     inkscape:zoom="6.2272727"
     inkscape:cx="54.759124"
     inkscape:cy="66"
     inkscape:window-width="2493"
     inkscape:window-height="1385"
     inkscape:window-x="1987"
     inkscape:window-y="27"
     inkscape:window-maximized="1"
     inkscape:current-layer="g8" /><g
     id="g8"
     inkscape:groupmode="layer"
     inkscape:label="MM_butanetorsion_even"
     transform="matrix(1.3333333,0,0,-1.3333333,0,132)"><g
       id="g10"><path
         d="M 0,0 H 127 V 99 H 0 Z"
         style="fill:#ffffff;fill-opacity:1;fill-rule:nonzero;stroke:none"
         id="path12" /><path
         d="M 7.086,96.164 H 120.473 V 15.379 H 7.086 Z"
         style="fill:#ffffff;fill-opacity:1;fill-rule:nonzero;stroke:none"
         id="path14" /></g><g
       id="g16"><g
         id="g18"
         clip-path="url(#clipPath22)"><g
           id="g24"><g
             id="g26" /><g
             id="g38"><g
               clip-path="url(#clipPath30)"
               id="g36"><g
                 id="g34"><path
                   d="m 7.086,15.379 h 0.316 l 1.258,0.523 0.633,0.52 1.258,1.512 0.945,1.507 1.262,2.555 1.574,3.715 2.203,5.98 1.891,5.286 1.574,4.062 1.262,2.844 1.258,2.383 1.261,1.683 0.942,0.813 0.632,0.289 0.946,0.117 1.258,-0.582 0.629,-0.578 0.632,-0.699 1.258,-1.973 1.262,-2.496 1.574,-3.715 4.094,-10.277 1.262,-2.614 1.257,-2.089 0.946,-1.102 0.945,-0.758 0.945,-0.289 0.629,0.059 0.946,0.465 0.945,0.929 0.945,1.336 0.945,1.738 0.942,2.149 0.945,2.496 0.945,2.789 1.575,5.516 1.89,7.722 1.575,7.313 5.039,24.793 1.261,4.703 0.946,2.609 0.629,1.223 0.628,0.754 0.633,0.23 0.313,-0.058 0.316,-0.172 0.629,-0.754 0.629,-1.223 0.633,-1.625 0.941,-3.191 1.262,-5.285 1.891,-9.231 3.148,-15.793 1.891,-8.3 1.574,-6.04 1.262,-4.179 1.257,-3.539 1.575,-3.543 0.945,-1.625 1.262,-1.453 0.629,-0.465 0.628,-0.289 0.629,-0.059 0.633,0.176 0.629,0.289 1.258,1.277 0.945,1.395 0.945,1.742 1.262,2.727 2.203,5.515 2.836,7.028 1.258,2.609 1.262,2.09 0.629,0.871 1.261,1.105 1.258,0.348 0.946,-0.234 0.628,-0.407 0.946,-0.925 0.945,-1.336 0.945,-1.743 1.258,-2.73 1.578,-3.945 5.039,-13.703 1.258,-2.844 1.262,-2.383 0.945,-1.449 1.258,-1.336 0.945,-0.582 0.946,-0.172"
                   style="fill:none;stroke:#000000;stroke-width:0.5;stroke-linecap:square;stroke-linejoin:round;stroke-miterlimit:4;stroke-dasharray:none;stroke-opacity:1"
                   id="path32" /></g></g></g></g><g
           id="g40"><g
             id="g42" /><g
             id="g54"><g
               clip-path="url(#clipPath46)"
               id="g52"><g
                 id="g50"><path
                   d="m 7.086,20.188 0.945,0.152 0.946,0.461 0.945,0.762 0.945,1.062 0.946,1.352 1.257,2.23 1.262,2.68 1.574,3.871 2.52,6.906 2.519,6.774 1.258,2.902 1.262,2.344 0.945,1.296 0.945,0.844 0.629,0.285 0.629,0.059 0.629,-0.172 0.633,-0.41 0.629,-0.637 0.945,-1.371 0.946,-1.828 1.257,-3.039 1.575,-4.488 3.781,-11.102 1.262,-2.898 0.941,-1.68 0.945,-1.172 0.633,-0.476 0.629,-0.223 0.629,0.035 0.629,0.297 0.633,0.551 0.629,0.797 0.945,1.628 0.945,2.098 1.258,3.402 1.574,4.954 5.356,17.484 1.574,4.098 1.262,2.722 1.257,2.203 1.262,1.707 0.945,0.965 0.946,0.719 0.941,0.481 0.945,0.253 0.946,0.039 0.945,-0.183 0.945,-0.402 0.946,-0.637 0.945,-0.883 0.945,-1.145 1.258,-1.953 1.262,-2.461 1.258,-2.972 1.574,-4.387 1.891,-6.027 4.41,-14.575 1.257,-3.402 0.946,-2.098 0.945,-1.628 0.945,-1.106 0.629,-0.422 0.633,-0.168 0.629,0.094 0.629,0.352 0.629,0.601 0.945,1.348 0.945,1.828 1.262,3.066 1.574,4.516 3.465,10.25 1.258,3.039 0.945,1.828 0.946,1.371 0.629,0.637 0.632,0.41 0.629,0.172 0.629,-0.059 0.629,-0.285 0.633,-0.508 0.945,-1.152 0.942,-1.574 1.261,-2.645 1.575,-3.945 5.984,-15.82 1.262,-2.575 1.258,-2.113 1.261,-1.609 0.946,-0.863 0.945,-0.559 0.941,-0.258 0.317,-0.015"
                   style="fill:none;stroke:#000000;stroke-width:0.5;stroke-linecap:butt;stroke-linejoin:round;stroke-miterlimit:4;stroke-dasharray:2, 2;stroke-dashoffset:0;stroke-opacity:1"
                   id="path48" /></g></g></g></g></g></g><g
       id="g56"><path
         d="m 7.086,15.379 v 0.75"
         style="fill:#000000;fill-opacity:1;fill-rule:nonzero;stroke:#000000;stroke-width:0.5;stroke-linecap:square;stroke-linejoin:round;stroke-miterlimit:4;stroke-dasharray:none;stroke-opacity:1"
         id="path58" /><path
         d="m 7.086,96.164 v -0.75"
         style="fill:#000000;fill-opacity:1;fill-rule:nonzero;stroke:#000000;stroke-width:0.5;stroke-linecap:square;stroke-linejoin:round;stroke-miterlimit:4;stroke-dasharray:none;stroke-opacity:1"
         id="path60" /><path
         d="m 1.895,9.645 v 0.043 l 0.132,0.39 H 3.594 V 10.035 L 3.453,9.645 Z"
         style="fill:#000000;fill-opacity:1;fill-rule:nonzero;stroke:none"
         id="path62" /><path
         d="m 4.207,11.695 -0.051,0.02 -0.031,0.238 0.031,0.031 c 0.196,0.055 0.442,0.149 0.739,0.274 0.3,0.125 0.515,0.219 0.644,0.285 L 5.613,12.516 C 5.582,11.66 5.566,11.145 5.566,10.973 V 9.887 C 5.566,9.617 5.57,9.367 5.574,9.133 5.582,8.898 5.59,8.758 5.602,8.715 5.613,8.672 5.633,8.641 5.664,8.617 5.691,8.594 5.73,8.578 5.781,8.57 5.832,8.566 5.984,8.555 6.234,8.543 L 6.258,8.52 V 8.387 L 6.234,8.363 C 5.809,8.379 5.508,8.387 5.332,8.387 5.199,8.387 4.871,8.379 4.355,8.363 L 4.336,8.387 V 8.52 l 0.023,0.023 c 0.293,0.02 0.457,0.035 0.5,0.047 0.043,0.008 0.075,0.023 0.098,0.051 0.023,0.023 0.039,0.07 0.055,0.136 0.011,0.071 0.023,0.274 0.031,0.61 0.012,0.336 0.016,0.508 0.016,0.515 v 1.153 c 0,0.566 -0.004,0.875 -0.004,0.922 -0.004,0.05 -0.02,0.074 -0.051,0.074 -0.008,0 -0.02,0 -0.035,-0.004 C 4.957,12.043 4.914,12.023 4.84,11.992 L 4.551,11.863 C 4.43,11.813 4.316,11.754 4.207,11.695"
         style="fill:#000000;fill-opacity:1;fill-rule:nonzero;stroke:none"
         id="path64" /><path
         d="m 7.746,10.465 c -0.219,0.113 -0.383,0.246 -0.496,0.394 -0.113,0.153 -0.168,0.332 -0.168,0.543 0,0.301 0.109,0.559 0.332,0.77 0.219,0.215 0.52,0.32 0.902,0.32 0.192,0 0.372,-0.031 0.539,-0.101 0.165,-0.067 0.29,-0.164 0.379,-0.301 0.09,-0.133 0.137,-0.281 0.137,-0.445 0,-0.172 -0.055,-0.336 -0.16,-0.497 C 9.105,10.992 8.922,10.832 8.652,10.672 V 10.645 C 8.883,10.535 9.051,10.441 9.16,10.367 9.273,10.289 9.363,10.188 9.434,10.059 9.504,9.93 9.539,9.777 9.539,9.609 9.539,9.375 9.473,9.152 9.336,8.938 9.203,8.727 9.027,8.563 8.809,8.449 8.59,8.34 8.363,8.285 8.129,8.285 7.785,8.285 7.504,8.379 7.281,8.57 7.059,8.762 6.949,9.016 6.949,9.336 c 0,0.258 0.074,0.48 0.227,0.664 0.156,0.188 0.344,0.332 0.57,0.438 z m 0.68,0.281 c 0.211,0.129 0.351,0.262 0.426,0.395 0.074,0.129 0.113,0.273 0.113,0.425 0,0.223 -0.067,0.403 -0.195,0.532 -0.129,0.132 -0.301,0.195 -0.52,0.195 -0.207,0 -0.379,-0.055 -0.516,-0.172 -0.136,-0.117 -0.203,-0.281 -0.203,-0.488 0,-0.16 0.043,-0.297 0.133,-0.414 0.09,-0.114 0.344,-0.274 0.762,-0.473 M 7.98,10.359 C 7.75,10.223 7.59,10.074 7.5,9.918 7.41,9.758 7.367,9.582 7.367,9.383 c 0,-0.278 0.078,-0.5 0.235,-0.656 0.156,-0.161 0.355,-0.243 0.601,-0.243 0.168,0 0.32,0.039 0.457,0.118 0.137,0.078 0.242,0.187 0.309,0.32 0.066,0.137 0.101,0.285 0.101,0.445 0,0.231 -0.082,0.41 -0.242,0.539 -0.16,0.129 -0.445,0.282 -0.848,0.453"
         style="fill:#000000;fill-opacity:1;fill-rule:nonzero;stroke:none"
         id="path66" /><path
         d="m 9.941,10.176 c 0,0.347 0.02,0.66 0.055,0.941 0.035,0.278 0.109,0.524 0.231,0.742 0.121,0.219 0.273,0.379 0.453,0.489 0.179,0.109 0.386,0.164 0.617,0.164 0.262,0 0.488,-0.067 0.687,-0.203 0.2,-0.133 0.344,-0.34 0.43,-0.621 0.086,-0.278 0.129,-0.661 0.129,-1.141 0,-0.781 -0.117,-1.356 -0.359,-1.723 C 11.945,8.453 11.613,8.27 11.191,8.27 10.977,8.27 10.789,8.316 10.625,8.406 10.465,8.5 10.328,8.633 10.223,8.805 10.121,8.98 10.047,9.184 10.004,9.422 9.965,9.656 9.941,9.91 9.941,10.176 m 0.504,0.172 c 0,-0.371 0.028,-0.711 0.082,-1.016 0.059,-0.305 0.149,-0.523 0.282,-0.656 0.129,-0.133 0.285,-0.203 0.464,-0.203 0.172,0 0.317,0.062 0.434,0.179 0.117,0.121 0.203,0.325 0.254,0.614 0.055,0.289 0.082,0.644 0.082,1.07 0,0.668 -0.063,1.164 -0.191,1.484 -0.125,0.321 -0.336,0.481 -0.629,0.481 -0.258,0 -0.45,-0.125 -0.582,-0.371 -0.129,-0.25 -0.196,-0.778 -0.196,-1.582"
         style="fill:#000000;fill-opacity:1;fill-rule:nonzero;stroke:none"
         id="path68" /><path
         d="m 35.434,15.379 v 0.75"
         style="fill:#000000;fill-opacity:1;fill-rule:nonzero;stroke:#000000;stroke-width:0.5;stroke-linecap:square;stroke-linejoin:round;stroke-miterlimit:4;stroke-dasharray:none;stroke-opacity:1"
         id="path70" /><path
         d="m 35.434,96.164 v -0.75"
         style="fill:#000000;fill-opacity:1;fill-rule:nonzero;stroke:#000000;stroke-width:0.5;stroke-linecap:square;stroke-linejoin:round;stroke-miterlimit:4;stroke-dasharray:none;stroke-opacity:1"
         id="path72" /><path
         d="m 31.742,9.68 v 0.039 l 0.129,0.394 h 1.57 V 10.066 L 33.301,9.68 Z"
         style="fill:#000000;fill-opacity:1;fill-rule:nonzero;stroke:none"
         id="path74" /><path
         d="m 33.996,8.395 v 0.054 c 0.543,0.125 0.969,0.364 1.281,0.719 0.309,0.352 0.485,0.781 0.524,1.293 -0.285,-0.344 -0.61,-0.512 -0.965,-0.512 -0.223,0 -0.418,0.051 -0.586,0.16 -0.168,0.106 -0.289,0.246 -0.371,0.418 -0.078,0.172 -0.121,0.375 -0.121,0.606 0,0.422 0.129,0.762 0.383,1.019 0.254,0.254 0.57,0.383 0.949,0.383 0.379,0 0.687,-0.137 0.922,-0.414 0.238,-0.273 0.355,-0.672 0.355,-1.187 0,-0.231 -0.023,-0.45 -0.066,-0.661 C 36.258,10.066 36.176,9.848 36.059,9.629 35.938,9.406 35.781,9.203 35.586,9.012 35.391,8.824 35.168,8.664 34.922,8.539 34.672,8.414 34.43,8.336 34.191,8.301 Z m 0.27,2.925 c 0,-0.168 0.031,-0.336 0.089,-0.5 0.059,-0.16 0.153,-0.289 0.274,-0.375 0.125,-0.09 0.269,-0.132 0.434,-0.132 0.23,0 0.417,0.074 0.558,0.23 0.141,0.156 0.211,0.387 0.211,0.695 0,0.321 -0.07,0.582 -0.211,0.789 -0.137,0.203 -0.328,0.305 -0.57,0.305 -0.231,0 -0.422,-0.086 -0.567,-0.258 -0.144,-0.172 -0.218,-0.422 -0.218,-0.754"
         style="fill:#000000;fill-opacity:1;fill-rule:nonzero;stroke:none"
         id="path76" /><path
         d="m 36.789,10.207 c 0,0.348 0.016,0.664 0.051,0.941 0.035,0.278 0.113,0.524 0.234,0.743 0.121,0.218 0.27,0.382 0.449,0.488 0.184,0.109 0.387,0.164 0.618,0.164 0.261,0 0.492,-0.066 0.691,-0.203 0.199,-0.133 0.34,-0.34 0.426,-0.621 0.09,-0.278 0.133,-0.656 0.133,-1.137 0,-0.781 -0.121,-1.359 -0.36,-1.727 -0.238,-0.371 -0.57,-0.554 -0.996,-0.554 -0.211,0 -0.398,0.047 -0.562,0.137 -0.164,0.093 -0.297,0.226 -0.403,0.398 -0.105,0.176 -0.175,0.379 -0.218,0.617 -0.043,0.235 -0.063,0.488 -0.063,0.754 m 0.504,0.172 c 0,-0.371 0.027,-0.711 0.082,-1.016 0.055,-0.304 0.148,-0.523 0.277,-0.656 0.133,-0.133 0.286,-0.199 0.465,-0.199 0.176,0 0.321,0.058 0.438,0.176 0.117,0.121 0.199,0.324 0.254,0.613 0.054,0.289 0.078,0.648 0.078,1.074 0,0.668 -0.063,1.16 -0.188,1.481 -0.129,0.32 -0.34,0.48 -0.633,0.48 -0.253,0 -0.449,-0.125 -0.578,-0.371 -0.133,-0.25 -0.195,-0.777 -0.195,-1.582"
         style="fill:#000000;fill-opacity:1;fill-rule:nonzero;stroke:none"
         id="path78" /><path
         d="m 63.781,15.379 v 0.75"
         style="fill:#000000;fill-opacity:1;fill-rule:nonzero;stroke:#000000;stroke-width:0.5;stroke-linecap:square;stroke-linejoin:round;stroke-miterlimit:4;stroke-dasharray:none;stroke-opacity:1"
         id="path80" /><path
         d="m 63.781,96.164 v -0.75"
         style="fill:#000000;fill-opacity:1;fill-rule:nonzero;stroke:#000000;stroke-width:0.5;stroke-linecap:square;stroke-linejoin:round;stroke-miterlimit:4;stroke-dasharray:none;stroke-opacity:1"
         id="path82" /><path
         d="m 62.66,10.207 c 0,0.348 0.02,0.664 0.055,0.941 0.035,0.278 0.109,0.524 0.23,0.743 0.121,0.218 0.274,0.382 0.453,0.488 0.18,0.109 0.387,0.164 0.618,0.164 0.261,0 0.488,-0.066 0.687,-0.203 0.199,-0.133 0.344,-0.34 0.43,-0.621 0.086,-0.278 0.129,-0.656 0.129,-1.137 0,-0.781 -0.121,-1.359 -0.36,-1.727 -0.238,-0.371 -0.57,-0.554 -0.992,-0.554 -0.215,0 -0.402,0.047 -0.566,0.137 C 63.18,8.531 63.047,8.664 62.941,8.836 62.84,9.012 62.766,9.215 62.723,9.453 62.68,9.688 62.66,9.941 62.66,10.207 m 0.504,0.172 c 0,-0.371 0.027,-0.711 0.082,-1.016 0.059,-0.304 0.149,-0.523 0.281,-0.656 0.129,-0.133 0.286,-0.199 0.465,-0.199 0.172,0 0.317,0.058 0.434,0.176 0.117,0.121 0.199,0.324 0.254,0.613 0.054,0.289 0.082,0.648 0.082,1.074 0,0.668 -0.067,1.16 -0.192,1.481 -0.125,0.32 -0.336,0.48 -0.629,0.48 -0.257,0 -0.449,-0.125 -0.582,-0.371 -0.129,-0.25 -0.195,-0.777 -0.195,-1.582"
         style="fill:#000000;fill-opacity:1;fill-rule:nonzero;stroke:none"
         id="path84" /><path
         d="m 92.125,15.379 v 0.75"
         style="fill:#000000;fill-opacity:1;fill-rule:nonzero;stroke:#000000;stroke-width:0.5;stroke-linecap:square;stroke-linejoin:round;stroke-miterlimit:4;stroke-dasharray:none;stroke-opacity:1"
         id="path86" /><path
         d="m 92.125,96.164 v -0.75"
         style="fill:#000000;fill-opacity:1;fill-rule:nonzero;stroke:#000000;stroke-width:0.5;stroke-linecap:square;stroke-linejoin:round;stroke-miterlimit:4;stroke-dasharray:none;stroke-opacity:1"
         id="path88" /><path
         d="m 89.699,8.395 v 0.054 c 0.543,0.125 0.969,0.364 1.281,0.719 0.309,0.352 0.485,0.781 0.524,1.293 -0.285,-0.344 -0.606,-0.512 -0.961,-0.512 -0.227,0 -0.422,0.051 -0.59,0.16 -0.168,0.106 -0.289,0.246 -0.371,0.418 -0.078,0.172 -0.117,0.375 -0.117,0.606 0,0.422 0.125,0.762 0.379,1.019 0.258,0.254 0.57,0.383 0.949,0.383 0.383,0 0.687,-0.137 0.926,-0.414 0.234,-0.273 0.351,-0.672 0.351,-1.187 0,-0.231 -0.019,-0.45 -0.062,-0.661 C 91.961,10.066 91.883,9.848 91.762,9.629 91.645,9.406 91.484,9.203 91.289,9.012 91.094,8.824 90.871,8.664 90.625,8.539 90.379,8.414 90.133,8.336 89.895,8.301 Z m 0.27,2.925 c 0,-0.168 0.031,-0.336 0.09,-0.5 0.058,-0.16 0.152,-0.289 0.273,-0.375 0.125,-0.09 0.27,-0.132 0.434,-0.132 0.23,0 0.418,0.074 0.558,0.23 0.141,0.156 0.211,0.387 0.211,0.695 0,0.321 -0.07,0.582 -0.207,0.789 -0.14,0.203 -0.332,0.305 -0.574,0.305 -0.231,0 -0.422,-0.086 -0.566,-0.258 -0.145,-0.172 -0.219,-0.422 -0.219,-0.754"
         style="fill:#000000;fill-opacity:1;fill-rule:nonzero;stroke:none"
         id="path90" /><path
         d="m 92.492,10.207 c 0,0.348 0.02,0.664 0.055,0.941 0.031,0.278 0.109,0.524 0.23,0.743 0.121,0.218 0.27,0.382 0.453,0.488 0.18,0.109 0.387,0.164 0.618,0.164 0.261,0 0.488,-0.066 0.687,-0.203 0.199,-0.133 0.34,-0.34 0.43,-0.621 0.086,-0.278 0.129,-0.656 0.129,-1.137 0,-0.781 -0.121,-1.359 -0.36,-1.727 -0.238,-0.371 -0.57,-0.554 -0.992,-0.554 -0.215,0 -0.402,0.047 -0.566,0.137 -0.164,0.093 -0.297,0.226 -0.403,0.398 -0.101,0.176 -0.175,0.379 -0.218,0.617 -0.043,0.235 -0.063,0.488 -0.063,0.754 m 0.504,0.172 c 0,-0.371 0.027,-0.711 0.082,-1.016 0.059,-0.304 0.149,-0.523 0.281,-0.656 0.129,-0.133 0.286,-0.199 0.465,-0.199 0.172,0 0.317,0.058 0.434,0.176 0.117,0.121 0.199,0.324 0.254,0.613 0.054,0.289 0.082,0.648 0.082,1.074 0,0.668 -0.067,1.16 -0.192,1.481 -0.129,0.32 -0.336,0.48 -0.629,0.48 -0.257,0 -0.449,-0.125 -0.582,-0.371 -0.128,-0.25 -0.195,-0.777 -0.195,-1.582"
         style="fill:#000000;fill-opacity:1;fill-rule:nonzero;stroke:none"
         id="path92" /><path
         d="m 120.473,15.379 v 0.75"
         style="fill:#000000;fill-opacity:1;fill-rule:nonzero;stroke:#000000;stroke-width:0.5;stroke-linecap:square;stroke-linejoin:round;stroke-miterlimit:4;stroke-dasharray:none;stroke-opacity:1"
         id="path94" /><path
         d="m 120.473,96.164 v -0.75"
         style="fill:#000000;fill-opacity:1;fill-rule:nonzero;stroke:#000000;stroke-width:0.5;stroke-linecap:square;stroke-linejoin:round;stroke-miterlimit:4;stroke-dasharray:none;stroke-opacity:1"
         id="path96" /><path
         d="m 116.711,11.695 -0.051,0.02 -0.031,0.238 0.031,0.031 c 0.195,0.055 0.442,0.149 0.738,0.274 0.301,0.125 0.516,0.219 0.645,0.285 l 0.074,-0.027 C 118.086,11.66 118.07,11.145 118.07,10.973 V 9.887 c 0,-0.27 0.004,-0.52 0.008,-0.754 0.008,-0.235 0.016,-0.375 0.027,-0.418 0.012,-0.043 0.032,-0.074 0.063,-0.098 0.027,-0.023 0.066,-0.039 0.117,-0.047 0.051,-0.004 0.203,-0.015 0.453,-0.027 L 118.762,8.52 V 8.387 l -0.024,-0.024 c -0.425,0.016 -0.726,0.024 -0.902,0.024 -0.133,0 -0.461,-0.008 -0.977,-0.024 L 116.84,8.387 V 8.52 l 0.023,0.023 c 0.293,0.02 0.457,0.035 0.5,0.047 0.043,0.008 0.075,0.023 0.098,0.051 0.023,0.023 0.039,0.07 0.055,0.136 0.011,0.071 0.023,0.274 0.031,0.61 0.012,0.336 0.016,0.508 0.016,0.515 v 1.153 c 0,0.566 -0.004,0.875 -0.004,0.922 -0.004,0.05 -0.02,0.074 -0.051,0.074 -0.008,0 -0.02,0 -0.035,-0.004 -0.012,-0.004 -0.055,-0.024 -0.129,-0.055 l -0.289,-0.129 c -0.121,-0.05 -0.235,-0.109 -0.344,-0.168"
         style="fill:#000000;fill-opacity:1;fill-rule:nonzero;stroke:none"
         id="path98" /><path
         d="m 120.25,10.465 c -0.219,0.113 -0.383,0.246 -0.496,0.394 -0.113,0.153 -0.168,0.332 -0.168,0.543 0,0.301 0.109,0.559 0.332,0.77 0.219,0.215 0.52,0.32 0.902,0.32 0.192,0 0.371,-0.031 0.539,-0.101 0.164,-0.067 0.289,-0.164 0.379,-0.301 0.09,-0.133 0.137,-0.281 0.137,-0.445 0,-0.172 -0.055,-0.336 -0.16,-0.497 -0.106,-0.156 -0.289,-0.316 -0.559,-0.476 v -0.027 c 0.231,-0.11 0.399,-0.204 0.508,-0.278 0.113,-0.078 0.203,-0.179 0.274,-0.308 0.07,-0.129 0.105,-0.282 0.105,-0.45 0,-0.234 -0.066,-0.457 -0.203,-0.671 -0.133,-0.211 -0.309,-0.375 -0.527,-0.489 -0.219,-0.109 -0.446,-0.164 -0.68,-0.164 -0.344,0 -0.625,0.094 -0.848,0.285 -0.222,0.192 -0.332,0.446 -0.332,0.766 0,0.258 0.074,0.48 0.227,0.664 0.156,0.188 0.343,0.332 0.57,0.438 z m 0.68,0.281 c 0.211,0.129 0.351,0.262 0.425,0.395 0.075,0.129 0.114,0.273 0.114,0.425 0,0.223 -0.067,0.403 -0.196,0.532 -0.128,0.132 -0.3,0.195 -0.519,0.195 -0.207,0 -0.379,-0.055 -0.516,-0.172 -0.136,-0.117 -0.203,-0.281 -0.203,-0.488 0,-0.16 0.043,-0.297 0.133,-0.414 0.09,-0.114 0.344,-0.274 0.762,-0.473 m -0.446,-0.387 c -0.23,-0.136 -0.39,-0.285 -0.48,-0.441 -0.09,-0.16 -0.133,-0.336 -0.133,-0.535 0,-0.278 0.078,-0.5 0.234,-0.656 0.157,-0.161 0.356,-0.243 0.602,-0.243 0.168,0 0.32,0.039 0.457,0.118 0.137,0.078 0.242,0.187 0.309,0.32 0.066,0.137 0.101,0.285 0.101,0.445 0,0.231 -0.082,0.41 -0.242,0.539 -0.16,0.129 -0.445,0.282 -0.848,0.453"
         style="fill:#000000;fill-opacity:1;fill-rule:nonzero;stroke:none"
         id="path100" /><path
         d="m 122.445,10.176 c 0,0.347 0.02,0.66 0.055,0.941 0.035,0.278 0.109,0.524 0.23,0.742 0.122,0.219 0.274,0.379 0.454,0.489 0.179,0.109 0.386,0.164 0.617,0.164 0.262,0 0.488,-0.067 0.687,-0.203 0.2,-0.133 0.344,-0.34 0.43,-0.621 0.086,-0.278 0.129,-0.661 0.129,-1.141 0,-0.781 -0.117,-1.356 -0.359,-1.723 -0.239,-0.371 -0.571,-0.554 -0.993,-0.554 -0.215,0 -0.402,0.046 -0.566,0.136 -0.16,0.094 -0.297,0.227 -0.402,0.399 -0.102,0.175 -0.176,0.379 -0.219,0.617 -0.039,0.234 -0.063,0.488 -0.063,0.754 m 0.504,0.172 c 0,-0.371 0.028,-0.711 0.082,-1.016 0.059,-0.305 0.149,-0.523 0.282,-0.656 0.128,-0.133 0.285,-0.203 0.464,-0.203 0.172,0 0.317,0.062 0.434,0.179 0.117,0.121 0.203,0.325 0.254,0.614 0.055,0.289 0.082,0.644 0.082,1.07 0,0.668 -0.063,1.164 -0.192,1.484 -0.125,0.321 -0.335,0.481 -0.628,0.481 -0.258,0 -0.45,-0.125 -0.582,-0.371 -0.129,-0.25 -0.196,-0.778 -0.196,-1.582"
         style="fill:#000000;fill-opacity:1;fill-rule:nonzero;stroke:none"
         id="path102" /><path
         d="m 31.285,5.688 0.024,0.019 C 31.645,5.691 31.875,5.684 32,5.684 l 1.371,0.031 c 0.391,0 0.711,-0.039 0.961,-0.113 0.25,-0.071 0.473,-0.2 0.664,-0.379 C 35.191,5.043 35.34,4.832 35.441,4.594 35.539,4.352 35.59,4.098 35.59,3.824 35.59,3.563 35.547,3.301 35.453,3.043 35.363,2.785 35.23,2.555 35.063,2.352 34.895,2.148 34.699,1.98 34.484,1.855 34.27,1.73 34.055,1.648 33.836,1.605 33.621,1.566 33.398,1.543 33.172,1.543 c -0.152,0 -0.442,0.008 -0.863,0.02 -0.137,0.003 -0.231,0.003 -0.274,0.003 -0.137,0 -0.301,-0.007 -0.488,-0.023 l -0.024,0.023 v 0.098 l 0.024,0.027 c 0.113,0.059 0.18,0.098 0.195,0.114 0.016,0.011 0.031,0.183 0.039,0.511 0.012,0.329 0.02,0.579 0.02,0.75 v 1.075 l -0.004,0.664 c 0,0.144 0,0.261 -0.008,0.351 C 31.785,5.25 31.781,5.313 31.77,5.352 31.762,5.391 31.75,5.418 31.734,5.434 31.723,5.449 31.703,5.465 31.676,5.473 31.648,5.484 31.598,5.492 31.531,5.504 L 31.309,5.52 31.285,5.539 Z m 1.082,-3.825 c 0.199,-0.039 0.43,-0.058 0.688,-0.058 0.457,0 0.82,0.078 1.093,0.23 0.274,0.153 0.477,0.375 0.61,0.676 0.137,0.297 0.203,0.637 0.203,1.012 0,0.55 -0.148,0.98 -0.441,1.285 -0.297,0.305 -0.762,0.457 -1.395,0.457 -0.262,0 -0.516,-0.02 -0.758,-0.059 C 32.352,5.086 32.344,4.723 32.344,4.32 V 3.402 l 0.008,-0.863 c 0,-0.168 0.003,-0.391 0.015,-0.676"
         style="fill:#000000;fill-opacity:1;fill-rule:nonzero;stroke:none"
         id="path104" /><path
         d="m 36.684,5.668 c 0.093,0 0.171,-0.031 0.234,-0.094 C 36.98,5.508 37.016,5.43 37.016,5.34 37.016,5.25 36.98,5.172 36.918,5.105 36.855,5.043 36.777,5.012 36.684,5.012 c -0.09,0 -0.168,0.031 -0.235,0.093 -0.062,0.063 -0.097,0.141 -0.097,0.235 0,0.09 0.035,0.168 0.097,0.234 0.067,0.063 0.145,0.094 0.235,0.094 M 36.934,4.359 36.988,4.32 C 36.969,4.066 36.957,3.742 36.957,3.348 V 2.684 c 0,-0.043 0.004,-0.18 0.012,-0.414 C 36.977,2.035 36.984,1.898 36.992,1.859 37,1.82 37.016,1.793 37.031,1.777 37.051,1.758 37.07,1.746 37.098,1.742 37.121,1.738 37.227,1.727 37.414,1.715 L 37.438,1.691 V 1.57 L 37.414,1.543 c -0.242,0.016 -0.476,0.023 -0.703,0.023 -0.227,0 -0.461,-0.007 -0.703,-0.023 L 35.98,1.57 v 0.121 l 0.028,0.024 c 0.187,0.012 0.297,0.023 0.32,0.027 0.024,0.008 0.047,0.02 0.063,0.039 0.019,0.016 0.031,0.047 0.039,0.082 0.008,0.039 0.015,0.164 0.023,0.379 0.008,0.215 0.016,0.375 0.016,0.485 v 0.578 c 0,0.078 -0.004,0.183 -0.016,0.32 -0.004,0.133 -0.012,0.215 -0.015,0.246 -0.008,0.031 -0.024,0.055 -0.047,0.07 -0.028,0.016 -0.075,0.024 -0.153,0.024 h -0.246 l -0.027,0.023 v 0.129 l 0.023,0.024 c 0.375,0.043 0.688,0.117 0.946,0.218"
         style="fill:#000000;fill-opacity:1;fill-rule:nonzero;stroke:none"
         id="path106" /><path
         d="M 38.582,5.906 38.637,5.871 C 38.617,5.648 38.605,5.195 38.605,4.52 V 3.797 c 0.165,0.137 0.317,0.269 0.458,0.402 0.042,0.035 0.082,0.063 0.117,0.082 0.035,0.016 0.097,0.035 0.179,0.055 0.082,0.019 0.168,0.027 0.258,0.027 0.149,0 0.293,-0.027 0.43,-0.09 0.141,-0.058 0.246,-0.132 0.316,-0.214 0.075,-0.082 0.121,-0.18 0.149,-0.293 0.027,-0.114 0.043,-0.254 0.043,-0.418 V 2.832 c 0,-0.035 0.004,-0.277 0.011,-0.73 0.008,-0.188 0.028,-0.297 0.067,-0.332 0.035,-0.036 0.156,-0.055 0.359,-0.055 L 41.016,1.691 V 1.566 L 40.992,1.543 c -0.246,0.016 -0.414,0.023 -0.504,0.023 -0.043,0 -0.187,-0.007 -0.425,-0.023 l -0.036,0.031 c 0.024,0.258 0.039,0.586 0.039,0.996 v 0.383 c 0,0.231 -0.007,0.399 -0.019,0.496 C 40.039,3.555 40.004,3.645 39.949,3.727 39.895,3.813 39.824,3.875 39.73,3.922 39.641,3.969 39.531,3.988 39.402,3.988 39.27,3.988 39.16,3.973 39.07,3.938 38.98,3.898 38.891,3.84 38.801,3.754 38.707,3.668 38.652,3.594 38.633,3.539 38.613,3.48 38.605,3.367 38.605,3.207 V 2.684 c 0,-0.043 0.004,-0.18 0.012,-0.414 C 38.625,2.035 38.633,1.898 38.641,1.859 38.652,1.82 38.664,1.793 38.684,1.777 38.699,1.758 38.719,1.746 38.746,1.742 38.77,1.738 38.875,1.727 39.063,1.715 L 39.09,1.691 V 1.57 L 39.066,1.543 c -0.246,0.016 -0.48,0.023 -0.707,0.023 -0.222,0 -0.457,-0.007 -0.703,-0.023 L 37.629,1.57 v 0.121 l 0.027,0.024 c 0.188,0.012 0.297,0.023 0.321,0.027 0.023,0.008 0.046,0.02 0.066,0.039 0.016,0.016 0.031,0.047 0.035,0.082 0.008,0.039 0.016,0.164 0.024,0.379 0.011,0.215 0.015,0.375 0.015,0.485 V 4.246 L 38.105,4.867 C 38.098,5.082 38.094,5.234 38.086,5.316 38.078,5.402 38.07,5.449 38.059,5.465 38.047,5.48 38.023,5.492 37.996,5.5 37.969,5.508 37.848,5.512 37.641,5.512 l -0.028,0.027 v 0.125 l 0.024,0.027 c 0.375,0.043 0.691,0.114 0.945,0.215"
         style="fill:#000000;fill-opacity:1;fill-rule:nonzero;stroke:none"
         id="path108" /><path
         d="M 43.668,1.996 43.574,1.785 C 43.371,1.656 43.191,1.57 43.031,1.531 42.871,1.492 42.73,1.473 42.605,1.473 c -0.234,0 -0.457,0.047 -0.667,0.14 -0.211,0.09 -0.379,0.246 -0.512,0.465 -0.133,0.219 -0.199,0.481 -0.199,0.789 0,0.207 0.027,0.391 0.078,0.555 0.05,0.168 0.101,0.289 0.16,0.371 0.055,0.078 0.148,0.168 0.281,0.266 0.133,0.097 0.274,0.175 0.422,0.234 0.148,0.059 0.309,0.086 0.48,0.086 0.235,0 0.442,-0.055 0.622,-0.164 0.175,-0.11 0.3,-0.25 0.375,-0.422 0.07,-0.172 0.109,-0.355 0.109,-0.551 0,-0.058 -0.004,-0.117 -0.008,-0.176 L 43.711,3.035 C 43.578,3.008 43.398,2.988 43.176,2.977 42.949,2.969 42.805,2.961 42.73,2.961 h -0.941 c 0.004,-0.402 0.106,-0.699 0.305,-0.895 0.199,-0.191 0.445,-0.285 0.734,-0.285 0.137,0 0.266,0.024 0.395,0.071 0.125,0.046 0.257,0.113 0.398,0.195 z m -1.879,1.199 c 0.035,-0.004 0.172,-0.011 0.406,-0.019 0.235,-0.008 0.41,-0.012 0.524,-0.012 0.269,0 0.437,0.004 0.496,0.016 0,0.047 0,0.082 0,0.105 0,0.305 -0.059,0.531 -0.184,0.676 -0.121,0.148 -0.289,0.223 -0.504,0.223 -0.23,0 -0.414,-0.082 -0.543,-0.25 C 41.855,3.77 41.789,3.523 41.789,3.195"
         style="fill:#000000;fill-opacity:1;fill-rule:nonzero;stroke:none"
         id="path110" /><path
         d="m 45.922,5.539 v 0.125 l 0.023,0.027 c 0.375,0.043 0.688,0.114 0.946,0.215 L 46.945,5.871 C 46.926,5.648 46.914,5.195 46.914,4.52 V 2.602 c 0,-0.196 0.004,-0.368 0.012,-0.516 0.004,-0.148 0.015,-0.234 0.035,-0.262 0.019,-0.027 0.047,-0.051 0.086,-0.07 0.039,-0.016 0.156,-0.031 0.344,-0.047 L 47.414,1.684 V 1.57 L 47.391,1.543 c -0.215,0.016 -0.379,0.023 -0.493,0.023 -0.105,0 -0.257,-0.007 -0.453,-0.023 l -0.031,0.031 c 0.004,0.196 0.008,0.328 0.008,0.403 0,0.011 0,0.046 0.004,0.113 C 46.316,2.012 46.211,1.922 46.102,1.828 45.945,1.688 45.84,1.602 45.793,1.566 45.703,1.52 45.574,1.496 45.406,1.496 45.137,1.496 44.91,1.563 44.723,1.695 44.531,1.828 44.398,2 44.32,2.203 44.238,2.41 44.199,2.621 44.199,2.84 c 0,0.219 0.039,0.433 0.125,0.637 0.082,0.203 0.199,0.351 0.352,0.445 0.156,0.094 0.32,0.191 0.504,0.293 0.179,0.101 0.359,0.148 0.535,0.148 0.25,0 0.484,-0.058 0.711,-0.183 L 46.414,4.832 C 46.41,5.063 46.402,5.219 46.395,5.309 46.387,5.395 46.379,5.449 46.367,5.465 46.355,5.48 46.336,5.492 46.305,5.5 46.277,5.508 46.16,5.512 45.949,5.512 Z M 46.426,3.68 c -0.121,0.136 -0.258,0.242 -0.403,0.312 -0.148,0.074 -0.296,0.11 -0.445,0.11 -0.164,0 -0.316,-0.043 -0.457,-0.133 C 44.977,3.879 44.875,3.746 44.813,3.574 44.75,3.398 44.719,3.207 44.719,3.004 c 0,-0.344 0.086,-0.617 0.261,-0.824 0.172,-0.207 0.391,-0.309 0.653,-0.309 0.14,0 0.265,0.031 0.379,0.098 0.109,0.062 0.199,0.152 0.269,0.261 0.074,0.114 0.114,0.227 0.125,0.336 0.012,0.114 0.02,0.317 0.02,0.614 z"
         style="fill:#000000;fill-opacity:1;fill-rule:nonzero;stroke:none"
         id="path112" /><path
         d="M 48.742,4.359 48.797,4.32 C 48.785,4.207 48.777,4.008 48.77,3.719 l 0.222,0.277 c 0.071,0.094 0.137,0.164 0.192,0.211 0.054,0.051 0.121,0.09 0.195,0.117 0.074,0.028 0.148,0.039 0.226,0.039 0.086,0 0.168,-0.015 0.243,-0.05 L 49.871,4.27 C 49.84,4.012 49.82,3.785 49.816,3.586 H 49.684 C 49.605,3.766 49.48,3.855 49.309,3.855 49.188,3.855 49.082,3.816 48.992,3.738 48.902,3.664 48.84,3.566 48.813,3.449 48.781,3.332 48.766,3.188 48.766,3.008 V 2.684 c 0,-0.059 0.004,-0.204 0.011,-0.43 C 48.785,2.023 48.793,1.895 48.801,1.855 48.813,1.82 48.824,1.797 48.844,1.781 48.863,1.762 48.887,1.75 48.918,1.746 48.945,1.738 49.086,1.73 49.332,1.715 L 49.359,1.691 V 1.57 L 49.332,1.543 c -0.258,0.016 -0.527,0.023 -0.812,0.023 -0.223,0 -0.457,-0.007 -0.704,-0.023 L 47.789,1.57 v 0.121 l 0.027,0.024 c 0.192,0.012 0.297,0.023 0.321,0.027 0.023,0.008 0.047,0.02 0.066,0.039 0.016,0.016 0.031,0.047 0.035,0.082 0.008,0.039 0.016,0.164 0.024,0.379 0.011,0.215 0.015,0.375 0.015,0.485 v 0.578 c 0,0.078 -0.004,0.183 -0.011,0.32 -0.008,0.133 -0.016,0.215 -0.02,0.246 -0.004,0.031 -0.019,0.055 -0.047,0.07 -0.023,0.016 -0.074,0.024 -0.152,0.024 h -0.246 l -0.024,0.023 v 0.129 l 0.024,0.024 c 0.371,0.043 0.687,0.117 0.941,0.218"
         style="fill:#000000;fill-opacity:1;fill-rule:nonzero;stroke:none"
         id="path114" /><path
         d="m 50.609,3.555 -0.113,0.027 -0.023,0.031 v 0.364 c 0.347,0.257 0.683,0.386 1.011,0.386 0.223,0 0.411,-0.043 0.559,-0.125 0.148,-0.086 0.258,-0.191 0.324,-0.316 0.067,-0.125 0.098,-0.274 0.098,-0.442 L 52.449,2.891 V 2.02 c 0,-0.122 0.012,-0.192 0.028,-0.219 0.015,-0.024 0.035,-0.043 0.054,-0.051 0.024,-0.008 0.063,-0.016 0.121,-0.02 L 52.82,1.715 52.844,1.688 V 1.57 L 52.82,1.547 C 52.68,1.559 52.547,1.566 52.422,1.566 52.305,1.566 52.164,1.559 52,1.547 L 51.957,1.59 51.969,2.059 51.328,1.563 C 51.223,1.516 51.105,1.496 50.977,1.496 c -0.157,0 -0.289,0.027 -0.403,0.082 -0.113,0.059 -0.199,0.137 -0.258,0.238 -0.058,0.102 -0.089,0.223 -0.089,0.368 0,0.289 0.089,0.511 0.269,0.675 0.18,0.161 0.672,0.297 1.473,0.411 0,0.289 -0.067,0.492 -0.196,0.609 -0.128,0.121 -0.3,0.18 -0.519,0.18 -0.113,0 -0.215,-0.02 -0.309,-0.051 C 50.855,3.977 50.801,3.949 50.785,3.926 50.773,3.906 50.719,3.785 50.629,3.566 Z M 51.969,3.09 C 51.422,3 51.082,2.898 50.945,2.793 50.809,2.691 50.742,2.527 50.742,2.305 c 0,-0.305 0.153,-0.457 0.457,-0.457 0.258,0 0.516,0.152 0.77,0.453 z"
         style="fill:#000000;fill-opacity:1;fill-rule:nonzero;stroke:none"
         id="path116" /><path
         d="M 54.082,5.906 54.137,5.871 C 54.117,5.648 54.105,5.195 54.105,4.52 V 2.684 c 0,-0.043 0.004,-0.18 0.012,-0.414 0.008,-0.235 0.016,-0.372 0.028,-0.411 0.007,-0.039 0.019,-0.066 0.039,-0.082 0.015,-0.019 0.039,-0.031 0.062,-0.035 0.027,-0.004 0.133,-0.015 0.317,-0.027 L 54.59,1.691 V 1.57 L 54.566,1.543 c -0.246,0.016 -0.48,0.023 -0.707,0.023 -0.222,0 -0.457,-0.007 -0.703,-0.023 L 53.129,1.57 v 0.121 l 0.027,0.024 c 0.192,0.012 0.297,0.023 0.321,0.027 0.027,0.008 0.046,0.02 0.066,0.039 0.02,0.016 0.031,0.047 0.039,0.082 0.004,0.039 0.012,0.164 0.023,0.379 0.008,0.215 0.012,0.375 0.012,0.485 V 4.246 L 53.605,4.867 C 53.598,5.082 53.594,5.234 53.586,5.316 53.578,5.402 53.57,5.449 53.559,5.465 53.547,5.48 53.527,5.492 53.496,5.5 53.469,5.508 53.352,5.512 53.145,5.512 l -0.028,0.027 v 0.125 l 0.024,0.027 c 0.371,0.043 0.687,0.114 0.941,0.215"
         style="fill:#000000;fill-opacity:1;fill-rule:nonzero;stroke:none"
         id="path118" /><path
         d="m 56.855,3.555 -0.113,0.027 -0.023,0.031 v 0.364 c 0.347,0.257 0.683,0.386 1.011,0.386 0.223,0 0.411,-0.043 0.559,-0.125 C 58.438,4.152 58.547,4.047 58.613,3.922 58.68,3.797 58.711,3.648 58.711,3.48 L 58.695,2.891 V 2.02 c 0,-0.122 0.012,-0.192 0.028,-0.219 C 58.738,1.777 58.758,1.758 58.777,1.75 58.801,1.742 58.84,1.734 58.898,1.73 L 59.066,1.715 59.09,1.688 V 1.57 L 59.066,1.547 c -0.14,0.012 -0.273,0.019 -0.398,0.019 -0.117,0 -0.258,-0.007 -0.422,-0.019 L 58.203,1.59 58.215,2.059 57.574,1.563 C 57.469,1.516 57.352,1.496 57.223,1.496 c -0.157,0 -0.289,0.027 -0.403,0.082 -0.113,0.059 -0.199,0.137 -0.257,0.238 -0.059,0.102 -0.09,0.223 -0.09,0.368 0,0.289 0.09,0.511 0.269,0.675 0.18,0.161 0.672,0.297 1.473,0.411 0,0.289 -0.067,0.492 -0.195,0.609 C 57.891,4 57.719,4.059 57.5,4.059 57.387,4.059 57.285,4.039 57.191,4.008 57.102,3.977 57.047,3.949 57.031,3.926 57.02,3.906 56.965,3.785 56.875,3.566 Z M 58.215,3.09 C 57.668,3 57.328,2.898 57.191,2.793 57.055,2.691 56.988,2.527 56.988,2.305 c 0,-0.305 0.153,-0.457 0.457,-0.457 0.258,0 0.516,0.152 0.77,0.453 z"
         style="fill:#000000;fill-opacity:1;fill-rule:nonzero;stroke:none"
         id="path120" /><path
         d="M 60.234,4.359 60.289,4.32 C 60.277,4.191 60.27,4.02 60.266,3.805 c 0.156,0.129 0.304,0.261 0.445,0.394 0.043,0.035 0.082,0.063 0.117,0.082 0.035,0.016 0.098,0.035 0.18,0.055 0.086,0.019 0.172,0.027 0.258,0.027 0.148,0 0.293,-0.027 0.433,-0.09 0.141,-0.058 0.246,-0.132 0.317,-0.214 0.07,-0.082 0.121,-0.18 0.148,-0.293 0.027,-0.114 0.039,-0.254 0.039,-0.418 V 2.832 c 0,-0.035 0.004,-0.277 0.016,-0.73 0.004,-0.188 0.023,-0.297 0.062,-0.332 0.035,-0.036 0.157,-0.055 0.364,-0.055 L 62.668,1.691 V 1.566 L 62.645,1.543 c -0.25,0.016 -0.418,0.023 -0.504,0.023 -0.051,0 -0.196,-0.007 -0.43,-0.023 l -0.035,0.031 c 0.027,0.258 0.039,0.586 0.039,0.996 v 0.383 c 0,0.231 -0.004,0.399 -0.016,0.496 C 61.688,3.555 61.656,3.645 61.602,3.727 61.547,3.813 61.473,3.875 61.383,3.922 61.289,3.969 61.18,3.988 61.055,3.988 60.949,3.988 60.863,3.98 60.793,3.961 60.719,3.938 60.637,3.898 60.547,3.832 60.457,3.77 60.391,3.711 60.348,3.656 60.305,3.602 60.281,3.547 60.273,3.5 60.262,3.453 60.258,3.348 60.258,3.191 V 2.684 c 0,-0.043 0.004,-0.18 0.012,-0.414 0.007,-0.235 0.015,-0.372 0.027,-0.411 0.008,-0.039 0.019,-0.066 0.039,-0.082 0.016,-0.019 0.039,-0.031 0.062,-0.035 0.028,-0.004 0.133,-0.015 0.317,-0.027 L 60.742,1.691 V 1.57 L 60.719,1.543 c -0.246,0.016 -0.481,0.023 -0.707,0.023 -0.223,0 -0.457,-0.007 -0.703,-0.023 L 59.281,1.57 v 0.121 l 0.028,0.024 c 0.191,0.012 0.296,0.023 0.32,0.027 0.027,0.008 0.047,0.02 0.066,0.039 0.02,0.016 0.032,0.047 0.039,0.082 0.004,0.039 0.012,0.164 0.024,0.379 0.008,0.215 0.012,0.375 0.012,0.485 v 0.578 c 0,0.078 -0.004,0.183 -0.012,0.32 -0.008,0.133 -0.016,0.215 -0.02,0.246 -0.004,0.031 -0.019,0.055 -0.047,0.07 -0.023,0.016 -0.074,0.024 -0.152,0.024 H 59.297 L 59.27,3.988 v 0.129 l 0.023,0.024 c 0.371,0.043 0.687,0.117 0.941,0.218"
         style="fill:#000000;fill-opacity:1;fill-rule:nonzero;stroke:none"
         id="path122" /><path
         d="M 65.957,4.156 65.98,4.105 C 65.902,3.98 65.852,3.902 65.832,3.863 H 65.285 C 65.34,3.758 65.367,3.645 65.367,3.527 65.367,3.391 65.336,3.254 65.273,3.121 65.211,2.992 65.121,2.883 65.008,2.789 64.895,2.695 64.766,2.625 64.621,2.57 64.48,2.516 64.316,2.488 64.133,2.488 H 63.996 C 63.883,2.395 63.809,2.328 63.773,2.281 63.742,2.238 63.727,2.191 63.727,2.145 63.727,2.059 63.766,2 63.844,1.965 63.922,1.93 64.086,1.91 64.336,1.91 l 0.656,0.008 c 0.207,0 0.363,-0.023 0.473,-0.07 0.113,-0.051 0.199,-0.137 0.269,-0.266 0.067,-0.125 0.102,-0.258 0.102,-0.398 0,-0.215 -0.07,-0.43 -0.207,-0.645 -0.141,-0.211 -0.344,-0.375 -0.606,-0.488 -0.265,-0.11 -0.546,-0.164 -0.843,-0.164 -0.172,0 -0.332,0.019 -0.481,0.054 -0.148,0.039 -0.281,0.094 -0.39,0.168 -0.114,0.079 -0.204,0.176 -0.274,0.297 -0.066,0.121 -0.101,0.246 -0.101,0.375 0,0.074 0.011,0.149 0.031,0.227 0.023,0.082 0.062,0.164 0.125,0.258 l 0.527,0.297 c -0.168,0.05 -0.273,0.105 -0.32,0.156 -0.043,0.051 -0.063,0.113 -0.063,0.183 0,0.075 0.024,0.164 0.071,0.266 l 0.472,0.34 C 63.5,2.582 63.313,2.688 63.215,2.832 63.121,2.977 63.07,3.137 63.07,3.309 c 0,0.156 0.035,0.308 0.102,0.453 0.07,0.14 0.172,0.258 0.312,0.343 0.137,0.086 0.289,0.153 0.461,0.204 0.172,0.05 0.328,0.074 0.469,0.074 0.242,0 0.477,-0.078 0.695,-0.238 0.356,0 0.637,0.003 0.848,0.011 M 63.574,3.477 c 0,-0.118 0.024,-0.247 0.071,-0.383 0.046,-0.137 0.125,-0.242 0.226,-0.313 0.106,-0.07 0.223,-0.105 0.356,-0.105 0.171,0 0.324,0.058 0.449,0.172 0.125,0.113 0.187,0.289 0.187,0.531 0,0.203 -0.058,0.383 -0.172,0.547 -0.113,0.16 -0.277,0.242 -0.488,0.242 -0.18,0 -0.328,-0.059 -0.449,-0.172 -0.117,-0.117 -0.18,-0.289 -0.18,-0.519 m 0.86,-1.965 C 64.121,1.512 63.938,1.508 63.891,1.5 63.844,1.492 63.773,1.461 63.688,1.402 63.598,1.344 63.527,1.262 63.473,1.16 63.414,1.063 63.387,0.949 63.387,0.824 c 0,-0.222 0.082,-0.402 0.246,-0.539 0.164,-0.14 0.383,-0.211 0.656,-0.211 0.207,0 0.395,0.043 0.57,0.133 0.172,0.082 0.301,0.199 0.383,0.344 0.086,0.144 0.125,0.285 0.125,0.414 0,0.137 -0.035,0.25 -0.101,0.344 -0.071,0.093 -0.161,0.152 -0.27,0.171 -0.113,0.02 -0.297,0.032 -0.562,0.032"
         style="fill:#000000;fill-opacity:1;fill-rule:nonzero;stroke:none"
         id="path124" /><path
         d="M 67.16,5.906 67.215,5.871 C 67.191,5.648 67.184,5.195 67.184,4.52 V 2.684 c 0,-0.043 0.004,-0.18 0.007,-0.414 0.012,-0.235 0.02,-0.372 0.028,-0.411 C 67.227,1.82 67.242,1.793 67.258,1.777 67.273,1.758 67.297,1.746 67.32,1.742 67.348,1.738 67.453,1.727 67.637,1.715 L 67.664,1.691 V 1.57 L 67.641,1.543 c -0.243,0.016 -0.477,0.023 -0.707,0.023 -0.223,0 -0.457,-0.007 -0.704,-0.023 L 66.207,1.57 v 0.121 l 0.023,0.024 c 0.192,0.012 0.297,0.023 0.325,0.027 0.023,0.008 0.043,0.02 0.062,0.039 0.02,0.016 0.031,0.047 0.039,0.082 0.008,0.039 0.016,0.164 0.024,0.379 0.008,0.215 0.011,0.375 0.011,0.485 V 4.246 L 66.68,4.867 C 66.676,5.082 66.668,5.234 66.66,5.316 66.656,5.402 66.645,5.449 66.633,5.465 66.621,5.48 66.602,5.492 66.574,5.5 66.543,5.508 66.426,5.512 66.219,5.512 l -0.028,0.027 v 0.125 l 0.024,0.027 c 0.371,0.043 0.687,0.114 0.945,0.215"
         style="fill:#000000;fill-opacity:1;fill-rule:nonzero;stroke:none"
         id="path126" /><path
         d="M 70.398,1.996 70.305,1.785 C 70.102,1.656 69.922,1.57 69.762,1.531 69.602,1.492 69.461,1.473 69.336,1.473 c -0.234,0 -0.457,0.047 -0.668,0.14 -0.211,0.09 -0.379,0.246 -0.512,0.465 -0.133,0.219 -0.199,0.481 -0.199,0.789 0,0.207 0.027,0.391 0.078,0.555 0.051,0.168 0.102,0.289 0.16,0.371 0.055,0.078 0.149,0.168 0.282,0.266 0.132,0.097 0.273,0.175 0.421,0.234 0.149,0.059 0.309,0.086 0.481,0.086 0.234,0 0.441,-0.055 0.621,-0.164 0.176,-0.11 0.301,-0.25 0.375,-0.422 0.07,-0.172 0.109,-0.355 0.109,-0.551 0,-0.058 -0.004,-0.117 -0.007,-0.176 L 70.441,3.035 C 70.309,3.008 70.129,2.988 69.906,2.977 69.68,2.969 69.535,2.961 69.461,2.961 H 68.52 c 0.003,-0.402 0.105,-0.699 0.304,-0.895 0.199,-0.191 0.446,-0.285 0.735,-0.285 0.136,0 0.265,0.024 0.394,0.071 0.125,0.046 0.258,0.113 0.399,0.195 z M 68.52,3.195 c 0.035,-0.004 0.171,-0.011 0.406,-0.019 0.234,-0.008 0.41,-0.012 0.523,-0.012 0.27,0 0.438,0.004 0.496,0.016 0,0.047 0,0.082 0,0.105 0,0.305 -0.058,0.531 -0.183,0.676 -0.121,0.148 -0.289,0.223 -0.504,0.223 -0.231,0 -0.414,-0.082 -0.543,-0.25 C 68.586,3.77 68.52,3.523 68.52,3.195"
         style="fill:#000000;fill-opacity:1;fill-rule:nonzero;stroke:none"
         id="path128" /><path
         d="m 73.816,0.184 c -0.406,0.343 -0.722,0.757 -0.945,1.246 -0.223,0.484 -0.336,1.004 -0.336,1.554 0,0.45 0.063,0.848 0.188,1.2 0.125,0.351 0.3,0.671 0.523,0.964 0.227,0.293 0.422,0.5 0.594,0.622 h 0.031 L 73.965,5.652 V 5.621 c -0.61,-0.656 -0.914,-1.512 -0.914,-2.57 0,-0.586 0.066,-1.086 0.203,-1.504 0.137,-0.414 0.371,-0.824 0.711,-1.231 L 73.961,0.281 73.852,0.184 Z"
         style="fill:#000000;fill-opacity:1;fill-rule:nonzero;stroke:none"
         id="path130" /><path
         d="m 76.152,5.539 v 0.125 l 0.024,0.027 c 0.371,0.043 0.687,0.114 0.941,0.215 L 77.176,5.871 C 77.152,5.648 77.141,5.195 77.141,4.52 V 2.602 c 0,-0.196 0.004,-0.368 0.011,-0.516 0.008,-0.148 0.02,-0.234 0.036,-0.262 0.019,-0.027 0.046,-0.051 0.089,-0.07 0.039,-0.016 0.153,-0.031 0.34,-0.047 L 77.645,1.684 V 1.57 L 77.617,1.543 c -0.211,0.016 -0.375,0.023 -0.492,0.023 -0.105,0 -0.258,-0.007 -0.453,-0.023 l -0.031,0.031 c 0.007,0.196 0.007,0.328 0.007,0.403 0,0.011 0.004,0.046 0.004,0.113 C 76.547,2.012 76.438,1.922 76.332,1.828 76.172,1.688 76.07,1.602 76.02,1.566 75.93,1.52 75.805,1.496 75.637,1.496 c -0.27,0 -0.5,0.067 -0.688,0.199 C 74.762,1.828 74.629,2 74.547,2.203 74.469,2.41 74.426,2.621 74.426,2.84 c 0,0.219 0.043,0.433 0.125,0.637 0.082,0.203 0.203,0.351 0.355,0.445 0.153,0.094 0.321,0.191 0.5,0.293 0.18,0.101 0.36,0.148 0.539,0.148 0.246,0 0.485,-0.058 0.707,-0.183 L 76.641,4.832 C 76.637,5.063 76.633,5.219 76.625,5.309 76.617,5.395 76.605,5.449 76.594,5.465 76.582,5.48 76.563,5.492 76.535,5.5 76.508,5.508 76.387,5.512 76.18,5.512 Z m 0.5,-1.859 c -0.121,0.136 -0.254,0.242 -0.402,0.312 -0.148,0.074 -0.297,0.11 -0.445,0.11 -0.164,0 -0.317,-0.043 -0.457,-0.133 C 75.207,3.879 75.105,3.746 75.043,3.574 74.98,3.398 74.949,3.207 74.949,3.004 c 0,-0.344 0.086,-0.617 0.258,-0.824 0.172,-0.207 0.391,-0.309 0.652,-0.309 0.145,0 0.27,0.031 0.379,0.098 0.11,0.062 0.203,0.152 0.274,0.261 0.07,0.114 0.113,0.227 0.125,0.336 0.011,0.114 0.015,0.317 0.015,0.614 z"
         style="fill:#000000;fill-opacity:1;fill-rule:nonzero;stroke:none"
         id="path132" /><path
         d="M 80.438,1.996 80.344,1.785 C 80.141,1.656 79.957,1.57 79.797,1.531 79.641,1.492 79.496,1.473 79.371,1.473 c -0.234,0 -0.457,0.047 -0.664,0.14 -0.211,0.09 -0.383,0.246 -0.516,0.465 -0.128,0.219 -0.195,0.481 -0.195,0.789 0,0.207 0.024,0.391 0.074,0.555 0.051,0.168 0.106,0.289 0.16,0.371 0.055,0.078 0.149,0.168 0.282,0.266 0.133,0.097 0.273,0.175 0.422,0.234 0.148,0.059 0.308,0.086 0.48,0.086 0.234,0 0.441,-0.055 0.621,-0.164 0.18,-0.11 0.305,-0.25 0.375,-0.422 0.074,-0.172 0.11,-0.355 0.11,-0.551 0,-0.058 -0.004,-0.117 -0.008,-0.176 L 80.48,3.035 C 80.348,3.008 80.168,2.988 79.941,2.977 79.719,2.969 79.57,2.961 79.5,2.961 h -0.941 c 0.004,-0.402 0.105,-0.699 0.304,-0.895 0.2,-0.191 0.442,-0.285 0.731,-0.285 0.136,0 0.269,0.024 0.394,0.071 0.125,0.046 0.262,0.113 0.403,0.195 z m -1.879,1.199 c 0.035,-0.004 0.168,-0.011 0.406,-0.019 0.234,-0.008 0.41,-0.012 0.519,-0.012 0.274,0 0.438,0.004 0.496,0.016 0.004,0.047 0.004,0.082 0.004,0.105 0,0.305 -0.062,0.531 -0.183,0.676 -0.125,0.148 -0.293,0.223 -0.504,0.223 -0.234,0 -0.414,-0.082 -0.543,-0.25 C 78.621,3.77 78.559,3.523 78.559,3.195"
         style="fill:#000000;fill-opacity:1;fill-rule:nonzero;stroke:none"
         id="path134" /><path
         d="M 83.953,4.156 83.977,4.105 C 83.895,3.98 83.844,3.902 83.824,3.863 H 83.281 C 83.336,3.758 83.363,3.645 83.363,3.527 83.363,3.391 83.332,3.254 83.266,3.121 83.203,2.992 83.117,2.883 83,2.789 82.887,2.695 82.762,2.625 82.617,2.57 82.473,2.516 82.309,2.488 82.125,2.488 H 81.992 C 81.875,2.395 81.801,2.328 81.77,2.281 81.734,2.238 81.719,2.191 81.719,2.145 81.719,2.059 81.758,2 81.836,1.965 81.918,1.93 82.082,1.91 82.328,1.91 l 0.656,0.008 c 0.207,0 0.368,-0.023 0.477,-0.07 0.109,-0.051 0.199,-0.137 0.266,-0.266 0.07,-0.125 0.105,-0.258 0.105,-0.398 0,-0.215 -0.07,-0.43 -0.211,-0.645 -0.141,-0.211 -0.34,-0.375 -0.605,-0.488 -0.262,-0.11 -0.543,-0.164 -0.844,-0.164 -0.168,0 -0.328,0.019 -0.477,0.054 -0.152,0.039 -0.281,0.094 -0.394,0.168 -0.113,0.079 -0.203,0.176 -0.27,0.297 -0.07,0.121 -0.101,0.246 -0.101,0.375 0,0.074 0.008,0.149 0.031,0.227 0.019,0.082 0.062,0.164 0.121,0.258 l 0.531,0.297 c -0.172,0.05 -0.277,0.105 -0.32,0.156 -0.043,0.051 -0.066,0.113 -0.066,0.183 0,0.075 0.023,0.164 0.074,0.266 l 0.472,0.34 c -0.281,0.074 -0.464,0.18 -0.562,0.324 -0.098,0.145 -0.145,0.305 -0.145,0.477 0,0.156 0.036,0.308 0.102,0.453 0.07,0.14 0.172,0.258 0.309,0.343 0.136,0.086 0.293,0.153 0.461,0.204 0.171,0.05 0.328,0.074 0.468,0.074 0.246,0 0.477,-0.078 0.699,-0.238 0.352,0 0.633,0.003 0.848,0.011 M 81.57,3.477 c 0,-0.118 0.024,-0.247 0.071,-0.383 0.047,-0.137 0.121,-0.242 0.226,-0.313 0.106,-0.07 0.223,-0.105 0.352,-0.105 0.176,0 0.324,0.058 0.449,0.172 0.129,0.113 0.191,0.289 0.191,0.531 0,0.203 -0.058,0.383 -0.171,0.547 C 82.57,4.086 82.406,4.168 82.195,4.168 82.02,4.168 81.871,4.109 81.75,3.996 81.629,3.879 81.57,3.707 81.57,3.477 M 82.43,1.512 C 82.113,1.512 81.934,1.508 81.883,1.5 81.836,1.492 81.77,1.461 81.68,1.402 81.594,1.344 81.52,1.262 81.465,1.16 81.41,1.063 81.383,0.949 81.383,0.824 c 0,-0.222 0.082,-0.402 0.246,-0.539 0.164,-0.14 0.383,-0.211 0.656,-0.211 0.203,0 0.395,0.043 0.567,0.133 0.175,0.082 0.304,0.199 0.386,0.344 0.082,0.144 0.125,0.285 0.125,0.414 0,0.137 -0.035,0.25 -0.105,0.344 -0.07,0.093 -0.16,0.152 -0.27,0.171 -0.109,0.02 -0.297,0.032 -0.558,0.032"
         style="fill:#000000;fill-opacity:1;fill-rule:nonzero;stroke:none"
         id="path136" /><path
         d="M 85.18,4.359 85.238,4.32 C 85.227,4.207 85.219,4.008 85.211,3.719 l 0.219,0.277 c 0.074,0.094 0.136,0.164 0.191,0.211 0.059,0.051 0.121,0.09 0.195,0.117 0.075,0.028 0.153,0.039 0.231,0.039 0.086,0 0.164,-0.015 0.242,-0.05 L 86.309,4.27 C 86.277,4.012 86.262,3.785 86.258,3.586 H 86.125 C 86.047,3.766 85.922,3.855 85.746,3.855 85.625,3.855 85.52,3.816 85.43,3.738 85.34,3.664 85.281,3.566 85.25,3.449 85.219,3.332 85.203,3.188 85.203,3.008 V 2.684 c 0,-0.059 0.004,-0.204 0.012,-0.43 C 85.223,2.023 85.234,1.895 85.242,1.855 85.25,1.82 85.266,1.797 85.281,1.781 85.301,1.762 85.324,1.75 85.355,1.746 85.387,1.738 85.523,1.73 85.773,1.715 L 85.801,1.691 V 1.57 L 85.773,1.543 C 85.516,1.559 85.242,1.566 84.961,1.566 84.734,1.566 84.5,1.559 84.258,1.543 L 84.23,1.57 v 0.121 l 0.028,0.024 c 0.187,0.012 0.293,0.023 0.32,0.027 0.024,0.008 0.043,0.02 0.063,0.039 0.019,0.016 0.031,0.047 0.039,0.082 0.008,0.039 0.015,0.164 0.023,0.379 0.008,0.215 0.012,0.375 0.012,0.485 v 0.578 c 0,0.078 -0.004,0.183 -0.012,0.32 -0.008,0.133 -0.012,0.215 -0.019,0.246 -0.004,0.031 -0.02,0.055 -0.043,0.07 -0.028,0.016 -0.078,0.024 -0.153,0.024 h -0.246 l -0.027,0.023 v 0.129 l 0.023,0.024 c 0.375,0.043 0.688,0.117 0.942,0.218"
         style="fill:#000000;fill-opacity:1;fill-rule:nonzero;stroke:none"
         id="path138" /><path
         d="M 89.016,1.996 88.922,1.785 C 88.719,1.656 88.539,1.57 88.379,1.531 88.219,1.492 88.078,1.473 87.953,1.473 c -0.234,0 -0.457,0.047 -0.668,0.14 -0.207,0.09 -0.379,0.246 -0.512,0.465 -0.132,0.219 -0.199,0.481 -0.199,0.789 0,0.207 0.028,0.391 0.078,0.555 0.051,0.168 0.106,0.289 0.161,0.371 0.054,0.078 0.148,0.168 0.281,0.266 0.133,0.097 0.273,0.175 0.422,0.234 0.148,0.059 0.308,0.086 0.48,0.086 0.234,0 0.442,-0.055 0.621,-0.164 0.18,-0.11 0.305,-0.25 0.375,-0.422 0.074,-0.172 0.11,-0.355 0.11,-0.551 0,-0.058 -0.004,-0.117 -0.008,-0.176 L 89.059,3.035 C 88.926,3.008 88.75,2.988 88.523,2.977 88.301,2.969 88.152,2.961 88.078,2.961 h -0.941 c 0.008,-0.402 0.109,-0.699 0.304,-0.895 0.2,-0.191 0.446,-0.285 0.735,-0.285 0.137,0 0.269,0.024 0.394,0.071 0.125,0.046 0.258,0.113 0.399,0.195 z m -1.879,1.199 c 0.039,-0.004 0.172,-0.011 0.406,-0.019 0.238,-0.008 0.41,-0.012 0.523,-0.012 0.274,0 0.438,0.004 0.497,0.016 0,0.047 0.003,0.082 0.003,0.105 0,0.305 -0.062,0.531 -0.187,0.676 -0.121,0.148 -0.289,0.223 -0.5,0.223 -0.234,0 -0.414,-0.082 -0.547,-0.25 C 87.203,3.77 87.137,3.523 87.137,3.195"
         style="fill:#000000;fill-opacity:1;fill-rule:nonzero;stroke:none"
         id="path140" /><path
         d="M 91.891,1.996 91.797,1.785 C 91.594,1.656 91.414,1.57 91.254,1.531 91.094,1.492 90.953,1.473 90.828,1.473 c -0.234,0 -0.457,0.047 -0.668,0.14 -0.211,0.09 -0.379,0.246 -0.512,0.465 -0.132,0.219 -0.199,0.481 -0.199,0.789 0,0.207 0.028,0.391 0.078,0.555 0.051,0.168 0.102,0.289 0.161,0.371 0.054,0.078 0.148,0.168 0.281,0.266 0.133,0.097 0.273,0.175 0.422,0.234 0.148,0.059 0.308,0.086 0.48,0.086 0.234,0 0.442,-0.055 0.621,-0.164 0.176,-0.11 0.301,-0.25 0.375,-0.422 0.071,-0.172 0.11,-0.355 0.11,-0.551 0,-0.058 -0.004,-0.117 -0.008,-0.176 L 91.934,3.035 C 91.801,3.008 91.621,2.988 91.398,2.977 91.172,2.969 91.027,2.961 90.953,2.961 h -0.941 c 0.004,-0.402 0.105,-0.699 0.304,-0.895 0.2,-0.191 0.446,-0.285 0.735,-0.285 0.137,0 0.265,0.024 0.394,0.071 0.125,0.046 0.258,0.113 0.399,0.195 z m -1.879,1.199 c 0.035,-0.004 0.172,-0.011 0.406,-0.019 0.234,-0.008 0.41,-0.012 0.523,-0.012 0.27,0 0.438,0.004 0.497,0.016 0,0.047 0,0.082 0,0.105 0,0.305 -0.059,0.531 -0.184,0.676 -0.121,0.148 -0.289,0.223 -0.504,0.223 -0.23,0 -0.414,-0.082 -0.543,-0.25 C 90.078,3.77 90.012,3.523 90.012,3.195"
         style="fill:#000000;fill-opacity:1;fill-rule:nonzero;stroke:none"
         id="path142" /><path
         d="m 92.473,2.43 h 0.125 l 0.023,-0.028 c 0.004,-0.164 0.016,-0.304 0.031,-0.422 0.059,-0.089 0.164,-0.167 0.313,-0.222 0.148,-0.059 0.297,-0.09 0.441,-0.09 0.207,0 0.371,0.059 0.496,0.168 0.125,0.113 0.188,0.246 0.188,0.398 0,0.086 -0.024,0.157 -0.07,0.219 -0.043,0.063 -0.114,0.113 -0.204,0.152 -0.089,0.04 -0.253,0.09 -0.488,0.141 -0.199,0.047 -0.34,0.086 -0.422,0.113 -0.078,0.024 -0.156,0.071 -0.23,0.133 -0.074,0.063 -0.129,0.137 -0.172,0.231 -0.035,0.09 -0.055,0.187 -0.055,0.297 0,0.261 0.102,0.472 0.309,0.628 0.211,0.161 0.469,0.239 0.777,0.239 0.133,0 0.278,-0.02 0.43,-0.055 0.152,-0.035 0.269,-0.07 0.351,-0.105 L 94.344,4.188 C 94.328,4.109 94.316,3.902 94.313,3.57 L 94.285,3.543 H 94.168 L 94.145,3.57 c -0.008,0.121 -0.02,0.203 -0.032,0.25 -0.015,0.051 -0.05,0.102 -0.109,0.157 -0.055,0.054 -0.133,0.101 -0.238,0.14 -0.106,0.039 -0.215,0.059 -0.328,0.059 -0.122,0 -0.219,-0.02 -0.301,-0.055 -0.082,-0.035 -0.145,-0.086 -0.196,-0.16 -0.05,-0.07 -0.074,-0.156 -0.074,-0.258 0,-0.074 0.016,-0.14 0.043,-0.199 0.031,-0.059 0.078,-0.106 0.141,-0.141 0.062,-0.039 0.129,-0.062 0.195,-0.078 l 0.32,-0.082 C 93.84,3.137 94.035,3.078 94.152,3.027 94.273,2.98 94.363,2.906 94.426,2.809 94.492,2.711 94.523,2.59 94.523,2.449 94.523,2.18 94.414,1.949 94.191,1.754 93.969,1.563 93.68,1.465 93.332,1.465 c -0.121,0 -0.277,0.015 -0.457,0.043 -0.184,0.027 -0.34,0.055 -0.469,0.09 l -0.015,0.039 0.031,0.195 c 0.008,0.059 0.016,0.121 0.016,0.184 0.003,0.058 0.003,0.191 0.007,0.386 z"
         style="fill:#000000;fill-opacity:1;fill-rule:nonzero;stroke:none"
         id="path144" /><path
         d="m 95.082,0.184 h -0.035 l -0.113,0.097 v 0.035 c 0.339,0.407 0.574,0.817 0.711,1.235 0.136,0.414 0.203,0.914 0.203,1.5 0,1.058 -0.305,1.914 -0.914,2.57 v 0.031 l 0.089,0.118 h 0.036 c 0.3,-0.219 0.593,-0.571 0.875,-1.059 0.285,-0.484 0.425,-1.059 0.425,-1.727 0,-0.539 -0.105,-1.05 -0.32,-1.535 C 95.82,0.965 95.504,0.543 95.082,0.184"
         style="fill:#000000;fill-opacity:1;fill-rule:nonzero;stroke:none"
         id="path146" /><path
         d="m 7.086,15.379 h 0.75"
         style="fill:#000000;fill-opacity:1;fill-rule:nonzero;stroke:#000000;stroke-width:0.5;stroke-linecap:square;stroke-linejoin:round;stroke-miterlimit:4;stroke-dasharray:none;stroke-opacity:1"
         id="path148" /><path
         d="m 120.473,15.379 h -0.75"
         style="fill:#000000;fill-opacity:1;fill-rule:nonzero;stroke:#000000;stroke-width:0.5;stroke-linecap:square;stroke-linejoin:round;stroke-miterlimit:4;stroke-dasharray:none;stroke-opacity:1"
         id="path150" /><path
         d="m 7.086,24.629 h 0.75"
         style="fill:#000000;fill-opacity:1;fill-rule:nonzero;stroke:#000000;stroke-width:0.5;stroke-linecap:square;stroke-linejoin:round;stroke-miterlimit:4;stroke-dasharray:none;stroke-opacity:1"
         id="path152" /><path
         d="m 120.473,24.629 h -0.75"
         style="fill:#000000;fill-opacity:1;fill-rule:nonzero;stroke:#000000;stroke-width:0.5;stroke-linecap:square;stroke-linejoin:round;stroke-miterlimit:4;stroke-dasharray:none;stroke-opacity:1"
         id="path154" /><path
         d="m 7.086,33.883 h 0.75"
         style="fill:#000000;fill-opacity:1;fill-rule:nonzero;stroke:#000000;stroke-width:0.5;stroke-linecap:square;stroke-linejoin:round;stroke-miterlimit:4;stroke-dasharray:none;stroke-opacity:1"
         id="path156" /><path
         d="m 120.473,33.883 h -0.75"
         style="fill:#000000;fill-opacity:1;fill-rule:nonzero;stroke:#000000;stroke-width:0.5;stroke-linecap:square;stroke-linejoin:round;stroke-miterlimit:4;stroke-dasharray:none;stroke-opacity:1"
         id="path158" /><path
         d="m 7.086,43.133 h 0.75"
         style="fill:#000000;fill-opacity:1;fill-rule:nonzero;stroke:#000000;stroke-width:0.5;stroke-linecap:square;stroke-linejoin:round;stroke-miterlimit:4;stroke-dasharray:none;stroke-opacity:1"
         id="path160" /><path
         d="m 120.473,43.133 h -0.75"
         style="fill:#000000;fill-opacity:1;fill-rule:nonzero;stroke:#000000;stroke-width:0.5;stroke-linecap:square;stroke-linejoin:round;stroke-miterlimit:4;stroke-dasharray:none;stroke-opacity:1"
         id="path162" /><path
         d="m 7.086,52.387 h 0.75"
         style="fill:#000000;fill-opacity:1;fill-rule:nonzero;stroke:#000000;stroke-width:0.5;stroke-linecap:square;stroke-linejoin:round;stroke-miterlimit:4;stroke-dasharray:none;stroke-opacity:1"
         id="path164" /><path
         d="m 120.473,52.387 h -0.75"
         style="fill:#000000;fill-opacity:1;fill-rule:nonzero;stroke:#000000;stroke-width:0.5;stroke-linecap:square;stroke-linejoin:round;stroke-miterlimit:4;stroke-dasharray:none;stroke-opacity:1"
         id="path166" /><path
         d="m 7.086,61.637 h 0.75"
         style="fill:#000000;fill-opacity:1;fill-rule:nonzero;stroke:#000000;stroke-width:0.5;stroke-linecap:square;stroke-linejoin:round;stroke-miterlimit:4;stroke-dasharray:none;stroke-opacity:1"
         id="path168" /><path
         d="m 120.473,61.637 h -0.75"
         style="fill:#000000;fill-opacity:1;fill-rule:nonzero;stroke:#000000;stroke-width:0.5;stroke-linecap:square;stroke-linejoin:round;stroke-miterlimit:4;stroke-dasharray:none;stroke-opacity:1"
         id="path170" /><path
         d="m 7.086,70.891 h 0.75"
         style="fill:#000000;fill-opacity:1;fill-rule:nonzero;stroke:#000000;stroke-width:0.5;stroke-linecap:square;stroke-linejoin:round;stroke-miterlimit:4;stroke-dasharray:none;stroke-opacity:1"
         id="path172" /><path
         d="m 120.473,70.891 h -0.75"
         style="fill:#000000;fill-opacity:1;fill-rule:nonzero;stroke:#000000;stroke-width:0.5;stroke-linecap:square;stroke-linejoin:round;stroke-miterlimit:4;stroke-dasharray:none;stroke-opacity:1"
         id="path174" /><path
         d="m 7.086,80.145 h 0.75"
         style="fill:#000000;fill-opacity:1;fill-rule:nonzero;stroke:#000000;stroke-width:0.5;stroke-linecap:square;stroke-linejoin:round;stroke-miterlimit:4;stroke-dasharray:none;stroke-opacity:1"
         id="path176" /><path
         d="m 120.473,80.145 h -0.75"
         style="fill:#000000;fill-opacity:1;fill-rule:nonzero;stroke:#000000;stroke-width:0.5;stroke-linecap:square;stroke-linejoin:round;stroke-miterlimit:4;stroke-dasharray:none;stroke-opacity:1"
         id="path178" /><path
         d="m 7.086,89.395 h 0.75"
         style="fill:#000000;fill-opacity:1;fill-rule:nonzero;stroke:#000000;stroke-width:0.5;stroke-linecap:square;stroke-linejoin:round;stroke-miterlimit:4;stroke-dasharray:none;stroke-opacity:1"
         id="path180" /><path
         d="m 120.473,89.395 h -0.75"
         style="fill:#000000;fill-opacity:1;fill-rule:nonzero;stroke:#000000;stroke-width:0.5;stroke-linecap:square;stroke-linejoin:round;stroke-miterlimit:4;stroke-dasharray:none;stroke-opacity:1"
         id="path182" /><path
         d="m 0.449,48.301 -0.023,0.023 c 0.012,0.672 0.019,1.102 0.019,1.289 0,0.641 -0.007,1.211 -0.019,1.711 L 0.449,51.34 C 0.637,51.289 0.93,51.254 1.328,51.23 L 1.352,51.211 V 51.066 L 1.328,51.043 c -0.015,0 -0.031,0 -0.047,0 -0.164,0 -0.324,-0.012 -0.472,-0.035 C 0.754,50.883 0.719,50.715 0.703,50.496 0.684,50.277 0.676,50.113 0.676,50.004 c 0,-0.152 0.012,-0.352 0.031,-0.59 l 0.469,-0.012 0.539,-0.007 0.594,-0.012 c 0.011,0.211 0.015,0.406 0.015,0.582 0,0.183 -0.004,0.332 -0.015,0.453 -0.012,0.121 -0.024,0.191 -0.036,0.211 -0.015,0.023 -0.039,0.039 -0.074,0.047 -0.035,0.012 -0.101,0.023 -0.191,0.031 l -0.184,0.008 -0.023,0.023 v 0.137 l 0.023,0.023 C 2.039,50.895 2.25,50.891 2.465,50.883 l 0.66,0.015 0.023,-0.023 V 50.738 L 3.125,50.715 2.949,50.695 C 2.813,50.68 2.73,50.664 2.703,50.656 2.68,50.648 2.656,50.633 2.637,50.605 2.617,50.574 2.602,50.504 2.59,50.387 2.578,50.27 2.57,50.109 2.57,49.902 c 0,-0.113 0.008,-0.285 0.016,-0.519 0.164,-0.008 0.437,-0.012 0.82,-0.012 0.41,0 0.711,0.004 0.907,0.012 v 0.539 c 0,0.476 -0.008,0.773 -0.016,0.891 -0.016,0.121 -0.043,0.234 -0.086,0.339 -0.047,0.02 -0.148,0.047 -0.313,0.086 -0.164,0.043 -0.265,0.063 -0.308,0.071 L 3.57,51.34 v 0.14 l 0.02,0.024 c 0.086,-0.02 0.23,-0.035 0.441,-0.055 0.207,-0.015 0.387,-0.023 0.535,-0.023 L 4.59,51.406 C 4.578,51.031 4.574,50.543 4.574,49.941 L 4.566,49.145 c 0,-0.188 0.008,-0.379 0.024,-0.582 L 4.566,48.539 H 4.469 L 4.441,48.563 C 4.383,48.68 4.348,48.746 4.332,48.762 4.316,48.777 4.145,48.793 3.82,48.801 3.492,48.813 3.242,48.816 3.07,48.816 H 1.328 C 1.184,48.816 1.066,48.813 0.977,48.809 0.887,48.805 0.82,48.801 0.781,48.789 0.742,48.777 0.715,48.77 0.699,48.754 0.684,48.742 0.672,48.723 0.66,48.695 0.648,48.664 0.641,48.617 0.633,48.551 L 0.613,48.324 0.594,48.301 Z"
         style="fill:#000000;fill-opacity:1;fill-rule:nonzero;stroke:none"
         id="path184" /><path
         d="m 1.773,52.758 0.04,0.055 c 0.132,-0.012 0.304,-0.02 0.515,-0.024 -0.129,0.156 -0.258,0.305 -0.39,0.445 -0.04,0.039 -0.067,0.079 -0.083,0.114 -0.019,0.039 -0.039,0.097 -0.058,0.179 -0.02,0.086 -0.027,0.172 -0.027,0.262 0,0.145 0.031,0.289 0.089,0.43 0.063,0.14 0.133,0.246 0.215,0.316 0.082,0.07 0.184,0.121 0.297,0.149 0.113,0.027 0.25,0.043 0.418,0.043 h 0.516 c 0.031,0 0.277,0.003 0.73,0.011 0.184,0.004 0.293,0.028 0.332,0.063 0.031,0.035 0.051,0.156 0.051,0.363 l 0.023,0.024 H 4.566 L 4.59,55.164 C 4.574,54.918 4.566,54.75 4.566,54.66 c 0,-0.051 0.008,-0.191 0.024,-0.426 L 4.559,54.195 C 4.305,54.223 3.973,54.234 3.566,54.234 H 3.18 C 2.949,54.234 2.785,54.23 2.684,54.219 2.582,54.207 2.488,54.176 2.406,54.121 2.324,54.066 2.258,53.992 2.211,53.902 2.168,53.809 2.145,53.699 2.145,53.574 c 0,-0.101 0.011,-0.191 0.031,-0.261 0.019,-0.075 0.062,-0.153 0.125,-0.243 0.062,-0.09 0.121,-0.156 0.179,-0.199 0.055,-0.043 0.106,-0.07 0.153,-0.078 0.051,-0.008 0.152,-0.012 0.308,-0.012 h 0.508 c 0.043,0 0.184,0.004 0.418,0.008 0.231,0.012 0.367,0.02 0.406,0.027 0.04,0.008 0.067,0.024 0.086,0.039 0.016,0.016 0.028,0.04 0.032,0.063 0.007,0.027 0.015,0.133 0.027,0.316 l 0.023,0.028 H 4.563 L 4.59,53.238 C 4.574,52.996 4.566,52.762 4.566,52.531 c 0,-0.222 0.008,-0.457 0.024,-0.703 L 4.563,51.805 H 4.441 L 4.418,51.828 C 4.406,52.02 4.398,52.125 4.391,52.152 4.387,52.176 4.375,52.195 4.355,52.215 4.336,52.234 4.309,52.246 4.27,52.254 4.23,52.262 4.105,52.27 3.891,52.277 3.676,52.285 3.516,52.289 3.406,52.289 H 2.828 C 2.75,52.289 2.645,52.285 2.512,52.277 2.375,52.27 2.293,52.266 2.262,52.258 2.23,52.254 2.207,52.238 2.191,52.215 2.18,52.188 2.172,52.137 2.172,52.063 L 2.168,51.816 2.145,51.789 H 2.02 L 1.996,51.813 C 1.949,52.184 1.875,52.5 1.773,52.758"
         style="fill:#000000;fill-opacity:1;fill-rule:nonzero;stroke:none"
         id="path186" /><path
         d="M 4.137,57.836 4.348,57.742 C 4.477,57.539 4.563,57.359 4.602,57.199 4.641,57.039 4.66,56.898 4.66,56.773 4.66,56.539 4.613,56.316 4.523,56.105 4.43,55.895 4.277,55.727 4.059,55.594 3.84,55.461 3.574,55.395 3.266,55.395 c -0.203,0 -0.391,0.027 -0.555,0.078 -0.164,0.05 -0.289,0.101 -0.367,0.16 -0.082,0.055 -0.168,0.148 -0.266,0.281 -0.098,0.133 -0.176,0.274 -0.234,0.422 -0.059,0.148 -0.09,0.309 -0.09,0.48 0,0.235 0.055,0.442 0.168,0.622 0.109,0.175 0.25,0.3 0.422,0.375 0.172,0.07 0.355,0.109 0.547,0.109 0.062,0 0.121,-0.004 0.175,-0.008 l 0.032,-0.035 c 0.031,-0.133 0.05,-0.313 0.058,-0.535 0.012,-0.227 0.016,-0.371 0.016,-0.446 v -0.941 c 0.406,0.004 0.703,0.106 0.894,0.305 0.192,0.199 0.286,0.445 0.286,0.734 0,0.137 -0.024,0.266 -0.071,0.395 -0.047,0.125 -0.109,0.257 -0.195,0.398 z M 2.938,55.957 c 0.007,0.035 0.011,0.172 0.023,0.406 0.004,0.235 0.008,0.41 0.008,0.524 0,0.269 -0.004,0.437 -0.012,0.496 -0.047,0 -0.086,0 -0.109,0 -0.305,0 -0.528,-0.059 -0.676,-0.184 -0.149,-0.121 -0.223,-0.289 -0.223,-0.504 0,-0.23 0.086,-0.414 0.25,-0.543 0.168,-0.129 0.414,-0.195 0.739,-0.195"
         style="fill:#000000;fill-opacity:1;fill-rule:nonzero;stroke:none"
         id="path188" /><path
         d="m 1.773,59.246 0.04,0.055 c 0.113,-0.012 0.316,-0.02 0.605,-0.028 l -0.281,0.223 c -0.09,0.07 -0.16,0.133 -0.211,0.192 -0.051,0.054 -0.09,0.117 -0.113,0.191 -0.032,0.078 -0.043,0.152 -0.043,0.23 0,0.086 0.015,0.168 0.05,0.243 l 0.043,0.019 C 2.121,60.34 2.352,60.324 2.547,60.32 v -0.132 c -0.18,-0.079 -0.27,-0.204 -0.27,-0.379 0,-0.121 0.039,-0.227 0.118,-0.317 0.078,-0.09 0.171,-0.148 0.289,-0.179 0.117,-0.028 0.265,-0.043 0.441,-0.043 h 0.324 c 0.059,0 0.203,0.003 0.434,0.011 0.226,0.008 0.359,0.016 0.394,0.024 0.036,0.008 0.063,0.023 0.078,0.043 0.016,0.015 0.028,0.043 0.036,0.07 0.004,0.031 0.011,0.172 0.027,0.418 l 0.023,0.027 H 4.563 L 4.59,59.836 C 4.574,59.578 4.566,59.305 4.566,59.023 c 0,-0.226 0.008,-0.46 0.024,-0.703 L 4.563,58.293 H 4.441 L 4.418,58.32 C 4.406,58.508 4.398,58.617 4.391,58.641 4.387,58.664 4.375,58.688 4.355,58.703 4.336,58.723 4.309,58.734 4.27,58.742 4.23,58.75 4.105,58.758 3.891,58.766 3.676,58.773 3.516,58.777 3.406,58.777 H 2.828 C 2.75,58.777 2.645,58.773 2.512,58.766 2.375,58.758 2.293,58.754 2.262,58.75 2.23,58.742 2.207,58.73 2.191,58.703 2.18,58.676 2.172,58.625 2.172,58.551 L 2.168,58.305 2.145,58.277 H 2.02 l -0.024,0.024 c -0.047,0.375 -0.121,0.687 -0.223,0.945"
         style="fill:#000000;fill-opacity:1;fill-rule:nonzero;stroke:none"
         id="path190" /><path
         d="m 1.977,63.723 0.054,0.023 C 2.152,63.664 2.234,63.617 2.27,63.598 v -0.547 c 0.109,0.054 0.218,0.082 0.335,0.082 0.141,0 0.274,-0.031 0.407,-0.094 0.129,-0.066 0.242,-0.152 0.332,-0.266 0.094,-0.113 0.168,-0.242 0.222,-0.386 0.055,-0.145 0.082,-0.305 0.082,-0.492 v -0.133 c 0.09,-0.117 0.161,-0.188 0.204,-0.223 0.046,-0.031 0.089,-0.051 0.136,-0.051 0.086,0 0.149,0.039 0.184,0.121 0.035,0.079 0.051,0.243 0.051,0.489 l -0.008,0.656 c 0,0.207 0.023,0.367 0.074,0.476 0.047,0.11 0.137,0.2 0.262,0.27 0.125,0.066 0.258,0.102 0.398,0.102 0.215,0 0.43,-0.071 0.645,-0.211 0.215,-0.137 0.375,-0.34 0.488,-0.606 C 6.191,62.523 6.25,62.242 6.25,61.941 6.25,61.773 6.23,61.613 6.191,61.465 6.156,61.316 6.098,61.184 6.023,61.07 5.949,60.961 5.852,60.871 5.73,60.801 5.609,60.73 5.484,60.699 5.352,60.699 c -0.071,0 -0.149,0.008 -0.227,0.031 -0.078,0.024 -0.164,0.063 -0.258,0.125 L 4.574,61.383 C 4.52,61.215 4.469,61.105 4.414,61.063 4.363,61.02 4.301,60.996 4.23,60.996 c -0.074,0 -0.164,0.027 -0.265,0.074 l -0.34,0.473 C 3.555,61.266 3.445,61.078 3.301,60.98 3.156,60.883 3,60.836 2.828,60.836 c -0.16,0 -0.308,0.035 -0.453,0.102 -0.145,0.07 -0.258,0.171 -0.344,0.308 -0.086,0.141 -0.156,0.293 -0.203,0.465 -0.051,0.172 -0.078,0.324 -0.078,0.465 0,0.246 0.082,0.48 0.238,0.699 0,0.352 -0.004,0.637 -0.011,0.848 M 2.656,61.34 c 0.121,0 0.246,0.023 0.383,0.07 0.137,0.047 0.242,0.121 0.313,0.227 0.07,0.105 0.105,0.222 0.105,0.351 0,0.176 -0.059,0.325 -0.168,0.45 -0.117,0.128 -0.293,0.191 -0.531,0.191 -0.203,0 -0.387,-0.059 -0.547,-0.172 C 2.047,62.34 1.965,62.18 1.965,61.965 c 0,-0.176 0.058,-0.324 0.176,-0.445 0.117,-0.122 0.289,-0.18 0.515,-0.18 m 1.965,0.859 c 0,-0.316 0.004,-0.496 0.012,-0.543 0.008,-0.051 0.043,-0.117 0.101,-0.207 0.059,-0.086 0.137,-0.156 0.239,-0.215 0.101,-0.054 0.215,-0.082 0.34,-0.082 0.218,0 0.398,0.082 0.539,0.246 0.136,0.165 0.207,0.383 0.207,0.657 0,0.207 -0.043,0.394 -0.129,0.566 -0.086,0.176 -0.203,0.305 -0.348,0.387 -0.144,0.082 -0.281,0.125 -0.414,0.125 -0.133,0 -0.246,-0.035 -0.344,-0.106 C 4.73,62.961 4.672,62.871 4.652,62.758 4.633,62.648 4.621,62.461 4.621,62.199"
         style="fill:#000000;fill-opacity:1;fill-rule:nonzero;stroke:none"
         id="path192" /><path
         d="m 6.156,63.961 c -0.164,0.066 -0.312,0.113 -0.449,0.148 v 0.071 c 0.102,0.093 0.156,0.199 0.156,0.308 0,0.141 -0.07,0.262 -0.207,0.364 C 5.52,64.953 5.215,65.098 4.742,65.285 4.535,65.211 4.336,65.137 4.152,65.063 L 2.996,64.594 C 2.879,64.547 2.707,64.473 2.484,64.379 2.266,64.281 2.141,64.227 2.117,64.207 2.098,64.188 2.074,64.164 2.055,64.133 2.035,64.105 2.02,64.027 2,63.898 L 1.977,63.875 H 1.859 l -0.023,0.023 c 0.016,0.227 0.019,0.457 0.019,0.696 0,0.273 -0.003,0.488 -0.019,0.64 l 0.023,0.024 H 1.977 L 2,65.234 c 0.004,-0.019 0.008,-0.078 0.016,-0.179 0.004,-0.098 0.019,-0.16 0.047,-0.184 0.023,-0.023 0.05,-0.035 0.082,-0.035 0.031,0 0.14,0.031 0.324,0.09 0.179,0.062 0.344,0.121 0.484,0.176 l 0.457,0.183 c 0.301,0.121 0.524,0.215 0.664,0.281 L 3.73,65.723 C 3.605,65.777 3.418,65.855 3.164,65.957 L 2.543,66.199 C 2.383,66.262 2.281,66.297 2.242,66.309 2.203,66.316 2.176,66.32 2.16,66.32 2.117,66.32 2.086,66.305 2.07,66.273 2.055,66.242 2.043,66.172 2.031,66.066 L 2.012,65.941 1.988,65.922 H 1.859 l -0.023,0.023 c 0.016,0.164 0.019,0.36 0.019,0.582 0,0.207 -0.003,0.371 -0.019,0.493 l 0.023,0.023 H 1.988 L 2.012,67.02 C 2.016,66.949 2.023,66.891 2.043,66.848 2.059,66.805 2.09,66.762 2.137,66.723 2.18,66.684 2.305,66.613 2.516,66.512 2.723,66.41 2.938,66.313 3.16,66.211 l 0.629,-0.289 1.582,-0.676 c 0.137,-0.058 0.285,-0.133 0.442,-0.219 0.156,-0.086 0.269,-0.195 0.335,-0.32 0.071,-0.125 0.106,-0.258 0.106,-0.398 0,-0.125 -0.031,-0.239 -0.098,-0.348"
         style="fill:#000000;fill-opacity:1;fill-rule:nonzero;stroke:none"
         id="path194" /><path
         d="M 7.086,96.164 H 120.473"
         style="fill:none;stroke:#000000;stroke-width:0.5;stroke-linecap:square;stroke-linejoin:round;stroke-miterlimit:4;stroke-dasharray:none;stroke-opacity:1"
         id="path196" /><path
         d="M 120.473,15.379 V 96.164"
         style="fill:none;stroke:#000000;stroke-width:0.5;stroke-linecap:square;stroke-linejoin:round;stroke-miterlimit:4;stroke-dasharray:none;stroke-opacity:1"
         id="path198" /><path
         d="M 7.086,15.379 H 120.473"
         style="fill:none;stroke:#000000;stroke-width:0.5;stroke-linecap:square;stroke-linejoin:round;stroke-miterlimit:4;stroke-dasharray:none;stroke-opacity:1"
         id="path200" /><path
         d="M 7.086,15.379 V 96.164"
         style="fill:none;stroke:#000000;stroke-width:0.5;stroke-linecap:square;stroke-linejoin:round;stroke-miterlimit:4;stroke-dasharray:none;stroke-opacity:1"
         id="path202" /><path
         d="m 13.914,88.137 0.024,-0.078 -0.016,-0.036 c -0.41,-0.355 -0.688,-0.531 -0.836,-0.531 -0.098,0 -0.148,0.063 -0.148,0.188 0,0.062 0.007,0.136 0.019,0.23 0.016,0.094 0.035,0.195 0.059,0.305 l 0.074,0.316 0.043,0.172 -0.016,0.008 c -0.293,-0.414 -0.566,-0.723 -0.816,-0.93 -0.254,-0.207 -0.43,-0.312 -0.535,-0.312 -0.133,0 -0.203,0.168 -0.203,0.5 0,0.211 0.031,0.449 0.093,0.715 0.067,0.265 0.145,0.511 0.235,0.738 0.093,0.226 0.168,0.375 0.222,0.445 0.055,0.071 0.149,0.153 0.278,0.246 0.129,0.09 0.25,0.16 0.363,0.211 0.113,0.047 0.242,0.071 0.379,0.071 0.172,0 0.351,-0.036 0.543,-0.106 l 0.187,0.113 0.063,-0.054 C 13.922,90.32 13.879,90.172 13.805,89.91 l -0.137,-0.5 -0.074,-0.289 c -0.051,-0.207 -0.098,-0.422 -0.145,-0.648 -0.047,-0.227 -0.066,-0.379 -0.066,-0.461 0,-0.078 0.027,-0.117 0.078,-0.117 0.035,0 0.078,0.015 0.133,0.043 0.054,0.031 0.152,0.097 0.297,0.207 z m -0.492,1.867 c -0.152,0.066 -0.313,0.101 -0.484,0.101 -0.141,0 -0.27,-0.027 -0.379,-0.078 -0.039,-0.031 -0.082,-0.086 -0.125,-0.168 -0.043,-0.078 -0.106,-0.226 -0.184,-0.441 -0.078,-0.215 -0.141,-0.445 -0.187,-0.691 -0.051,-0.243 -0.075,-0.438 -0.075,-0.582 0,-0.11 0.008,-0.18 0.028,-0.211 0.019,-0.032 0.047,-0.047 0.082,-0.047 0.07,0 0.211,0.097 0.414,0.285 0.203,0.191 0.379,0.41 0.519,0.66 0.141,0.25 0.258,0.582 0.352,1 z"
         style="fill:#000000;fill-opacity:1;fill-rule:nonzero;stroke:none"
         id="path204" /><path
         d="m 15.387,91.871 0.074,-0.055 -0.203,-0.933 -0.301,-1.406 c 0.258,0.343 0.504,0.582 0.738,0.722 0.235,0.137 0.438,0.207 0.61,0.207 0.086,0 0.152,-0.019 0.199,-0.062 0.051,-0.043 0.086,-0.114 0.109,-0.211 0.024,-0.102 0.035,-0.219 0.035,-0.36 0,-0.281 -0.046,-0.558 -0.14,-0.824 -0.094,-0.269 -0.195,-0.48 -0.305,-0.64 -0.105,-0.161 -0.226,-0.301 -0.359,-0.414 -0.133,-0.118 -0.281,-0.215 -0.453,-0.301 -0.168,-0.082 -0.332,-0.125 -0.489,-0.125 -0.164,0 -0.308,0.047 -0.422,0.14 -0.117,0.094 -0.175,0.211 -0.175,0.36 0,0.09 0.035,0.312 0.101,0.668 l 0.207,1.054 c 0.039,0.211 0.078,0.438 0.121,0.68 l 0.114,0.637 c 0.035,0.183 0.054,0.289 0.054,0.316 0.004,0.028 0.008,0.051 0.008,0.071 0,0.046 -0.015,0.078 -0.047,0.093 -0.031,0.02 -0.086,0.028 -0.164,0.028 l -0.246,0.004 -0.019,0.023 0.007,0.07 0.024,0.028 c 0.363,0.058 0.672,0.136 0.922,0.23 M 14.73,88.168 c 0,-0.121 0.036,-0.227 0.106,-0.316 0.066,-0.09 0.184,-0.133 0.34,-0.133 0.219,0 0.402,0.097 0.547,0.297 0.14,0.195 0.261,0.449 0.355,0.761 0.094,0.309 0.145,0.571 0.145,0.782 0,0.211 -0.02,0.347 -0.059,0.402 -0.039,0.059 -0.098,0.086 -0.184,0.086 -0.128,0 -0.265,-0.043 -0.41,-0.133 C 15.43,89.828 15.285,89.688 15.145,89.492 15.004,89.297 14.898,89.055 14.832,88.77 14.766,88.484 14.73,88.281 14.73,88.168"
         style="fill:#000000;fill-opacity:1;fill-rule:nonzero;stroke:none"
         id="path206" /><path
         d="m 19.41,91.379 c 0,0.105 0.035,0.195 0.098,0.277 0.066,0.078 0.148,0.117 0.242,0.117 0.066,0 0.117,-0.019 0.16,-0.062 0.039,-0.039 0.059,-0.098 0.059,-0.176 0,-0.105 -0.028,-0.199 -0.09,-0.281 -0.059,-0.082 -0.137,-0.125 -0.227,-0.125 -0.07,0 -0.125,0.023 -0.172,0.07 -0.046,0.047 -0.07,0.106 -0.07,0.18 m -0.762,-1.633 -0.031,0.067 0.008,0.039 c 0.266,0.191 0.473,0.324 0.613,0.402 0.145,0.078 0.258,0.117 0.34,0.117 0.082,0 0.121,-0.058 0.121,-0.176 0,-0.05 -0.011,-0.125 -0.031,-0.222 -0.02,-0.098 -0.07,-0.293 -0.148,-0.586 -0.215,-0.789 -0.321,-1.254 -0.321,-1.399 0,-0.078 0.028,-0.117 0.082,-0.117 0.086,0 0.239,0.082 0.457,0.25 L 19.77,88.109 19.801,88.035 19.797,88 c -0.137,-0.105 -0.277,-0.207 -0.422,-0.305 -0.145,-0.097 -0.25,-0.16 -0.312,-0.187 -0.059,-0.024 -0.11,-0.039 -0.153,-0.039 -0.058,0 -0.105,0.027 -0.137,0.078 -0.035,0.051 -0.05,0.109 -0.05,0.176 0,0.09 0.011,0.183 0.035,0.285 0.027,0.097 0.055,0.211 0.09,0.336 0.129,0.453 0.218,0.804 0.273,1.058 0.051,0.254 0.078,0.411 0.078,0.465 0,0.067 -0.019,0.102 -0.066,0.102 -0.028,0 -0.059,-0.008 -0.086,-0.024 -0.027,-0.011 -0.149,-0.086 -0.367,-0.211 z"
         style="fill:#000000;fill-opacity:1;fill-rule:nonzero;stroke:none"
         id="path208" /><path
         d="m 20.406,87.488 -0.035,0.051 c 0.125,0.391 0.238,0.836 0.336,1.344 0.098,0.508 0.148,0.832 0.148,0.969 0,0.078 -0.027,0.113 -0.078,0.113 -0.074,0 -0.222,-0.074 -0.453,-0.231 l -0.035,0.008 -0.023,0.067 0.007,0.043 c 0.079,0.058 0.172,0.125 0.278,0.199 0.109,0.074 0.219,0.14 0.32,0.199 0.106,0.055 0.18,0.09 0.219,0.102 0.043,0.015 0.078,0.019 0.109,0.019 0.055,0 0.09,-0.016 0.114,-0.055 0.019,-0.039 0.031,-0.078 0.031,-0.121 0,-0.086 -0.035,-0.261 -0.098,-0.519 -0.019,-0.074 -0.074,-0.285 -0.16,-0.641 l 0.023,-0.008 c 0.145,0.239 0.321,0.465 0.532,0.68 0.211,0.219 0.429,0.383 0.652,0.496 0.227,0.113 0.391,0.168 0.496,0.168 0.059,0 0.102,-0.016 0.133,-0.051 0.027,-0.039 0.043,-0.086 0.043,-0.14 0,-0.137 -0.067,-0.465 -0.203,-0.985 -0.18,-0.695 -0.27,-1.105 -0.27,-1.226 0,-0.074 0.024,-0.11 0.078,-0.11 0.063,0 0.227,0.094 0.493,0.282 l 0.031,-0.008 0.031,-0.078 -0.008,-0.035 c -0.121,-0.098 -0.258,-0.2 -0.414,-0.301 -0.156,-0.102 -0.269,-0.168 -0.34,-0.199 -0.07,-0.032 -0.129,-0.047 -0.175,-0.047 -0.063,0 -0.106,0.019 -0.137,0.062 -0.028,0.043 -0.039,0.094 -0.039,0.156 0,0.071 0.015,0.176 0.047,0.321 0.031,0.148 0.093,0.414 0.195,0.801 0.141,0.55 0.215,0.886 0.215,1.011 0,0.106 -0.039,0.156 -0.114,0.156 -0.05,0 -0.113,-0.015 -0.183,-0.05 C 22.047,89.871 21.91,89.777 21.766,89.645 21.621,89.512 21.488,89.359 21.371,89.18 21.25,89.004 21.156,88.828 21.09,88.656 21.02,88.48 20.961,88.281 20.91,88.063 20.902,88.035 20.875,87.875 20.82,87.582 20.688,87.563 20.547,87.531 20.406,87.488"
         style="fill:#000000;fill-opacity:1;fill-rule:nonzero;stroke:none"
         id="path210" /><path
         d="m 24.414,91.379 c 0,0.105 0.035,0.195 0.098,0.277 0.066,0.078 0.148,0.117 0.242,0.117 0.066,0 0.117,-0.019 0.16,-0.062 0.039,-0.039 0.059,-0.098 0.059,-0.176 0,-0.105 -0.028,-0.199 -0.09,-0.281 -0.059,-0.082 -0.137,-0.125 -0.227,-0.125 -0.07,0 -0.125,0.023 -0.172,0.07 -0.046,0.047 -0.07,0.106 -0.07,0.18 m -0.762,-1.633 -0.031,0.067 0.008,0.039 c 0.266,0.191 0.473,0.324 0.613,0.402 0.145,0.078 0.258,0.117 0.34,0.117 0.082,0 0.121,-0.058 0.121,-0.176 0,-0.05 -0.012,-0.125 -0.031,-0.222 -0.02,-0.098 -0.07,-0.293 -0.149,-0.586 -0.214,-0.789 -0.32,-1.254 -0.32,-1.399 0,-0.078 0.027,-0.117 0.082,-0.117 0.086,0 0.238,0.082 0.457,0.25 L 24.773,88.109 24.805,88.035 24.801,88 c -0.137,-0.105 -0.278,-0.207 -0.422,-0.305 -0.145,-0.097 -0.25,-0.16 -0.313,-0.187 -0.058,-0.024 -0.109,-0.039 -0.152,-0.039 -0.059,0 -0.105,0.027 -0.137,0.078 -0.035,0.051 -0.05,0.109 -0.05,0.176 0,0.09 0.011,0.183 0.035,0.285 0.027,0.097 0.054,0.211 0.09,0.336 0.128,0.453 0.218,0.804 0.273,1.058 0.051,0.254 0.078,0.411 0.078,0.465 0,0.067 -0.019,0.102 -0.066,0.102 -0.028,0 -0.059,-0.008 -0.086,-0.024 -0.028,-0.011 -0.149,-0.086 -0.367,-0.211 z"
         style="fill:#000000;fill-opacity:1;fill-rule:nonzero;stroke:none"
         id="path212" /><path
         d="m 26.672,88.215 0.031,-0.07 -0.008,-0.036 c -0.078,-0.066 -0.211,-0.164 -0.398,-0.3 -0.188,-0.137 -0.324,-0.227 -0.406,-0.274 -0.082,-0.047 -0.157,-0.07 -0.215,-0.07 -0.059,0 -0.102,0.027 -0.137,0.082 -0.035,0.051 -0.051,0.125 -0.051,0.223 0,0.117 0.032,0.324 0.098,0.621 0.078,0.343 0.176,0.832 0.293,1.464 l -0.477,-0.011 -0.019,0.023 0.008,0.051 0.023,0.023 c 0.211,0.075 0.375,0.145 0.504,0.215 0.039,0.172 0.09,0.508 0.152,1.012 0.211,0.086 0.364,0.156 0.461,0.211 l 0.071,-0.055 -0.114,-0.449 c -0.015,-0.055 -0.066,-0.309 -0.156,-0.754 0.086,-0.008 0.16,-0.008 0.215,-0.008 0.191,0 0.328,0.012 0.41,0.039 l 0.027,-0.023 -0.066,-0.285 c -0.074,0 -0.285,0.004 -0.641,0.011 -0.214,-1.039 -0.324,-1.652 -0.324,-1.839 0,-0.09 0.039,-0.133 0.113,-0.133 0.036,0 0.086,0.015 0.145,0.047 0.062,0.035 0.172,0.105 0.324,0.215 l 0.102,0.082 z"
         style="fill:#000000;fill-opacity:1;fill-rule:nonzero;stroke:none"
         id="path214" /><path
         d="m 28.078,91.379 c 0,0.105 0.035,0.195 0.102,0.277 0.062,0.078 0.144,0.117 0.238,0.117 0.066,0 0.117,-0.019 0.16,-0.062 0.039,-0.039 0.063,-0.098 0.063,-0.176 0,-0.105 -0.032,-0.199 -0.094,-0.281 -0.059,-0.082 -0.133,-0.125 -0.227,-0.125 -0.066,0 -0.125,0.023 -0.172,0.07 -0.046,0.047 -0.07,0.106 -0.07,0.18 m -0.762,-1.633 -0.031,0.067 0.012,0.039 c 0.266,0.191 0.469,0.324 0.613,0.402 0.141,0.078 0.254,0.117 0.336,0.117 0.082,0 0.121,-0.058 0.121,-0.176 0,-0.05 -0.012,-0.125 -0.031,-0.222 -0.02,-0.098 -0.07,-0.293 -0.148,-0.586 -0.211,-0.789 -0.321,-1.254 -0.321,-1.399 0,-0.078 0.028,-0.117 0.086,-0.117 0.082,0 0.235,0.082 0.453,0.25 L 28.438,88.109 28.469,88.035 28.465,88 c -0.137,-0.105 -0.277,-0.207 -0.422,-0.305 -0.145,-0.097 -0.25,-0.16 -0.309,-0.187 -0.062,-0.024 -0.113,-0.039 -0.156,-0.039 -0.058,0 -0.105,0.027 -0.137,0.078 -0.031,0.051 -0.05,0.109 -0.05,0.176 0,0.09 0.011,0.183 0.039,0.285 0.023,0.097 0.05,0.211 0.086,0.336 0.129,0.453 0.218,0.804 0.273,1.058 0.055,0.254 0.078,0.411 0.078,0.465 0,0.067 -0.019,0.102 -0.066,0.102 -0.028,0 -0.055,-0.008 -0.082,-0.024 -0.028,-0.011 -0.153,-0.086 -0.371,-0.211 z"
         style="fill:#000000;fill-opacity:1;fill-rule:nonzero;stroke:none"
         id="path216" /><path
         d="m 28.844,88.379 c 0,0.375 0.066,0.715 0.191,1.019 0.129,0.309 0.32,0.551 0.582,0.735 0.262,0.18 0.516,0.269 0.762,0.269 0.226,0 0.418,-0.07 0.574,-0.207 0.152,-0.136 0.231,-0.375 0.231,-0.707 0,-0.328 -0.075,-0.66 -0.219,-0.996 -0.145,-0.336 -0.344,-0.59 -0.598,-0.762 -0.254,-0.171 -0.504,-0.257 -0.75,-0.257 -0.16,0 -0.301,0.035 -0.422,0.113 -0.121,0.074 -0.211,0.176 -0.265,0.305 -0.059,0.132 -0.086,0.293 -0.086,0.488 m 0.469,0.043 c 0,-0.168 0.019,-0.301 0.05,-0.399 0.035,-0.101 0.09,-0.179 0.176,-0.238 0.086,-0.058 0.188,-0.09 0.313,-0.09 0.128,0 0.242,0.035 0.336,0.102 0.101,0.07 0.191,0.195 0.281,0.383 0.086,0.183 0.152,0.39 0.191,0.621 0.039,0.23 0.059,0.441 0.059,0.633 0,0.179 -0.02,0.32 -0.063,0.429 -0.039,0.106 -0.097,0.188 -0.179,0.242 -0.082,0.055 -0.176,0.083 -0.289,0.083 -0.301,0 -0.524,-0.18 -0.665,-0.54 -0.14,-0.359 -0.21,-0.769 -0.21,-1.226"
         style="fill:#000000;fill-opacity:1;fill-rule:nonzero;stroke:none"
         id="path218" /><path
         d="M 38.215,89.559 H 48.91"
         style="fill:none;stroke:#000000;stroke-width:0.5;stroke-linecap:square;stroke-linejoin:round;stroke-miterlimit:4;stroke-dasharray:none;stroke-opacity:1"
         id="path220" /><path
         d="M 38.215,80.875 H 48.91"
         style="fill:none;stroke:#000000;stroke-width:0.5;stroke-linecap:butt;stroke-linejoin:round;stroke-miterlimit:4;stroke-dasharray:2, 2;stroke-dashoffset:0;stroke-opacity:1"
         id="path222" /><path
         d="m 16.961,82.98 0.027,-0.023 v -0.144 l -0.023,-0.02 C 16.75,82.789 16.617,82.777 16.566,82.762 16.512,82.746 16.477,82.719 16.453,82.684 16.434,82.648 16.422,82.574 16.418,82.469 16.414,82.367 16.41,82.066 16.402,81.578 v -1.351 c 0,-0.196 0.004,-0.418 0.008,-0.664 0.008,-0.243 0.02,-0.387 0.039,-0.426 0.016,-0.043 0.051,-0.071 0.098,-0.09 0.051,-0.02 0.191,-0.031 0.418,-0.035 l 0.023,-0.02 v -0.144 l -0.027,-0.024 c -0.316,0.016 -0.594,0.028 -0.832,0.028 -0.16,0 -0.43,-0.012 -0.816,-0.028 l -0.028,0.024 v 0.14 l 0.024,0.024 c 0.214,0.004 0.347,0.015 0.402,0.031 0.051,0.016 0.086,0.043 0.109,0.078 0.02,0.035 0.035,0.109 0.039,0.215 0.004,0.109 0.008,0.406 0.012,0.891 v 2.152 L 14.863,80.262 C 14.609,79.73 14.387,79.234 14.195,78.766 h -0.113 c -0.109,0.254 -0.199,0.457 -0.269,0.605 l -1.399,2.91 v -2.047 c 0,-0.191 0,-0.414 0.004,-0.664 0.008,-0.246 0.02,-0.39 0.039,-0.429 0.02,-0.039 0.055,-0.071 0.102,-0.09 0.046,-0.02 0.187,-0.031 0.418,-0.035 L 13,78.992 v -0.14 l -0.027,-0.024 -0.188,0.008 c -0.195,0.008 -0.359,0.016 -0.5,0.016 -0.062,0 -0.293,-0.008 -0.699,-0.024 l -0.023,0.024 v 0.14 l 0.023,0.024 c 0.215,0.004 0.348,0.015 0.398,0.031 0.051,0.016 0.086,0.039 0.11,0.078 0.023,0.035 0.035,0.105 0.039,0.207 0.004,0.102 0.008,0.402 0.012,0.902 v 1.34 c 0,0.18 0,0.395 -0.008,0.649 -0.004,0.254 -0.016,0.402 -0.035,0.441 -0.016,0.043 -0.051,0.07 -0.102,0.09 -0.047,0.019 -0.184,0.031 -0.414,0.035 l -0.023,0.024 v 0.14 l 0.027,0.027 c 0.133,-0.007 0.316,-0.015 0.543,-0.015 0.215,0 0.402,0.008 0.562,0.015 0.164,-0.378 0.325,-0.722 0.473,-1.027 l 1.109,-2.281 1.004,2.09 c 0.27,0.562 0.453,0.968 0.547,1.218 0.188,-0.007 0.371,-0.015 0.555,-0.015 0.164,0 0.355,0.008 0.578,0.015"
         style="fill:#000000;fill-opacity:1;fill-rule:nonzero;stroke:none"
         id="path224" /><path
         d="m 22.637,82.98 0.027,-0.023 v -0.144 l -0.023,-0.02 c -0.215,-0.004 -0.348,-0.016 -0.399,-0.031 -0.054,-0.016 -0.09,-0.043 -0.113,-0.078 -0.02,-0.036 -0.031,-0.11 -0.035,-0.215 -0.004,-0.102 -0.008,-0.403 -0.016,-0.891 v -1.351 c 0,-0.196 0,-0.418 0.008,-0.664 0.008,-0.243 0.019,-0.387 0.035,-0.426 0.02,-0.043 0.055,-0.071 0.102,-0.09 0.05,-0.02 0.187,-0.031 0.418,-0.035 l 0.023,-0.02 v -0.144 l -0.027,-0.024 c -0.317,0.016 -0.594,0.028 -0.832,0.028 -0.16,0 -0.434,-0.012 -0.817,-0.028 l -0.027,0.024 v 0.14 l 0.023,0.024 c 0.215,0.004 0.348,0.015 0.399,0.031 0.055,0.016 0.09,0.043 0.109,0.078 0.024,0.035 0.035,0.109 0.039,0.215 0.004,0.109 0.012,0.406 0.016,0.891 v 2.152 L 20.535,80.262 C 20.281,79.73 20.063,79.234 19.871,78.766 h -0.113 c -0.11,0.254 -0.199,0.457 -0.27,0.605 l -1.402,2.91 v -2.047 c 0,-0.191 0.004,-0.414 0.008,-0.664 0.008,-0.246 0.019,-0.39 0.039,-0.429 0.019,-0.039 0.051,-0.071 0.101,-0.09 0.047,-0.02 0.188,-0.031 0.414,-0.035 l 0.024,-0.024 v -0.14 l -0.024,-0.024 -0.187,0.008 c -0.195,0.008 -0.359,0.016 -0.5,0.016 -0.063,0 -0.297,-0.008 -0.699,-0.024 l -0.024,0.024 v 0.14 l 0.024,0.024 c 0.215,0.004 0.347,0.015 0.398,0.031 0.051,0.016 0.086,0.039 0.11,0.078 0.023,0.035 0.035,0.105 0.039,0.207 0,0.102 0.007,0.402 0.011,0.902 v 1.34 c 0,0.18 0,0.395 -0.007,0.649 -0.004,0.254 -0.016,0.402 -0.036,0.441 -0.019,0.043 -0.05,0.07 -0.101,0.09 -0.047,0.019 -0.188,0.031 -0.414,0.035 l -0.024,0.024 v 0.14 l 0.028,0.027 c 0.132,-0.007 0.316,-0.015 0.543,-0.015 0.214,0 0.402,0.008 0.562,0.015 0.164,-0.378 0.32,-0.722 0.473,-1.027 l 1.109,-2.281 1,2.09 c 0.274,0.562 0.457,0.968 0.551,1.218 0.187,-0.007 0.371,-0.015 0.551,-0.015 0.168,0 0.359,0.008 0.582,0.015"
         style="fill:#000000;fill-opacity:1;fill-rule:nonzero;stroke:none"
         id="path226" /></g></g></svg>
