<?xml version="1.0" encoding="UTF-8" standalone="no"?>
<!-- Created with Inkscape (http://www.inkscape.org/) -->

<svg
   version="1.1"
   id="svg2"
   xml:space="preserve"
   width="170.07875"
   height="82.69606"
   viewBox="0 0 170.07875 82.69606"
   sodipodi:docname="MM_outofplane.svg"
   inkscape:version="1.1 (ce6663b3b7, 2021-05-25)"
   xmlns:inkscape="http://www.inkscape.org/namespaces/inkscape"
   xmlns:sodipodi="http://sodipodi.sourceforge.net/DTD/sodipodi-0.dtd"
   xmlns="http://www.w3.org/2000/svg"
   xmlns:svg="http://www.w3.org/2000/svg"><defs
     id="defs6" /><sodipodi:namedview
     id="namedview4"
     pagecolor="#ffffff"
     bordercolor="#666666"
     borderopacity="1.0"
     inkscape:pageshadow="2"
     inkscape:pageopacity="0.0"
     inkscape:pagecheckerboard="0"
     showgrid="false"
     inkscape:zoom="8.1432865"
     inkscape:cx="62.137074"
     inkscape:cy="41.383783"
     inkscape:window-width="2493"
     inkscape:window-height="1385"
     inkscape:window-x="1987"
     inkscape:window-y="27"
     inkscape:window-maximized="1"
     inkscape:current-layer="g8" /><g
     id="g8"
     inkscape:groupmode="layer"
     inkscape:label="MM_outofplane"
     transform="matrix(1.3333333,0,0,-1.3333333,0,82.69606)"><g
       id="g10"><g
         id="g12"
         transform="matrix(-1,-1,1,-1,0,62.022045)"><path
           d="m -14.109,62.367 c 0.002,3.26 -2.641,5.903 -5.901,5.904 -3.261,0 -5.904,-2.642 -5.904,-5.904 0.002,-3.26 2.643,-5.904 5.904,-5.904 3.26,0.002 5.903,2.644 5.901,5.904 z"
           style="fill:none;stroke:#000000;stroke-width:0.565685;stroke-linecap:butt;stroke-linejoin:miter;stroke-miterlimit:10;stroke-dasharray:none;stroke-opacity:1"
           id="path14" /></g><g
         id="g16"
         transform="matrix(1,0,0,-1,0,62.022045)"><path
           d="m 67.398,16.461 1.176,2.031 2.797,0.039 -2.769,4.957 5.679,0.082 -2.769,4.957 5.676,0.078 -2.77,4.958 5.68,0.082 -1.368,2.441 1.348,2.336"
           style="fill:none;stroke:#000000;stroke-width:0.5;stroke-linecap:butt;stroke-linejoin:miter;stroke-miterlimit:4;stroke-dasharray:none;stroke-opacity:1"
           id="path18" /></g><g
         id="g20"
         transform="matrix(1,0,0,-1,0,62.022045)"><path
           d="m 56.797,3.93 c -4.68,4.679 -4.68,12.269 0,16.953 4.68,4.68 12.269,4.68 16.949,-0.004 4.684,-4.68 4.684,-12.27 0.004,-16.949 -4.68,-4.684 -12.27,-4.68 -16.953,0 z"
           style="fill:#ffffff;fill-opacity:1;fill-rule:nonzero;stroke:#000000;stroke-width:0.8;stroke-linecap:butt;stroke-linejoin:miter;stroke-miterlimit:10;stroke-dasharray:none;stroke-opacity:1"
           id="path22" /></g><g
         id="g24"
         transform="matrix(1,0,0,-1,0,62.022045)"><path
           d="m 24.34,44.68 3.137,-2.52 4.586,1.778 -1.524,-9.848 9.301,3.605 -1.524,-9.843 9.301,3.605 -1.523,-9.848 9.301,3.606 -0.75,-4.856 3.601,-2.894"
           style="fill:none;stroke:#000000;stroke-width:0.5;stroke-linecap:butt;stroke-linejoin:miter;stroke-miterlimit:4;stroke-dasharray:none;stroke-opacity:1"
           id="path26" /></g><g
         id="g28"
         transform="matrix(1,0,0,-1,0,62.022045)"><path
           d="m 103.406,46.617 -2.894,-2.793 1.183,-4.773 -9.574,2.754 2.402,-9.68 -9.578,2.75 2.403,-9.68 -9.575,2.754 2.399,-9.679 -4.719,1.359 -3.324,-3.211"
           style="fill:none;stroke:#000000;stroke-width:0.5;stroke-linecap:butt;stroke-linejoin:miter;stroke-miterlimit:4;stroke-dasharray:none;stroke-opacity:1"
           id="path30" /></g><g
         id="g32"
         transform="matrix(1,0,0,-1,0,62.022045)"><path
           d="m 11.039,41.16 c -4.68,4.68 -4.68,12.27 0,16.953 4.68,4.68 12.27,4.68 16.949,-0.004 4.684,-4.679 4.684,-12.269 0.004,-16.949 -4.683,-4.683 -12.273,-4.68 -16.953,0 z"
           style="fill:#ffffff;fill-opacity:1;fill-rule:nonzero;stroke:#000000;stroke-width:0.8;stroke-linecap:butt;stroke-linejoin:miter;stroke-miterlimit:10;stroke-dasharray:none;stroke-opacity:1"
           id="path34" /></g><g
         id="g36"
         transform="matrix(1,0,0,-1,0,62.022045)"><path
           d="m 99.594,41.16 c -4.68,4.68 -4.68,12.27 0,16.953 4.679,4.68 12.269,4.68 16.949,-0.004 4.684,-4.679 4.684,-12.269 0.004,-16.949 -4.68,-4.683 -12.27,-4.68 -16.953,0 z"
           style="fill:#ffffff;fill-opacity:1;fill-rule:nonzero;stroke:#000000;stroke-width:0.8;stroke-linecap:butt;stroke-linejoin:miter;stroke-miterlimit:10;stroke-dasharray:none;stroke-opacity:1"
           id="path38" /></g><g
         id="g40"
         transform="matrix(1,0,0,-1,0,62.022045)"><path
           d="m 64.648,23.973 v 23.191 l -33.25,2.289"
           style="fill:none;stroke:#000000;stroke-width:0.4;stroke-linecap:butt;stroke-linejoin:miter;stroke-miterlimit:4;stroke-dasharray:1.6, 1.6;stroke-dashoffset:0;stroke-opacity:1"
           id="path42" /></g><g
         id="g44"
         transform="matrix(1,0,0,-1,0,62.022045)"><path
           d="m 64.613,41.711 -4.804,0.348 v 5.39"
           style="fill:none;stroke:#000000;stroke-width:0.4;stroke-linecap:butt;stroke-linejoin:miter;stroke-miterlimit:4;stroke-dasharray:none;stroke-opacity:1"
           id="path46" /></g><g
         id="g48"
         transform="matrix(1,0,0,-1,0,62.022045)"><path
           d="m 43.051,32.055 c 3.035,4.062 4.965,8.843 5.605,13.871"
           style="fill:none;stroke:#000000;stroke-width:0.4;stroke-linecap:square;stroke-linejoin:round;stroke-miterlimit:4;stroke-dasharray:none;stroke-opacity:1"
           id="path50" /></g><path
         d="m 48.668,16.229 1.16,0.16 -0.437,-1.086 -0.442,-1.09 -1.445,1.852 1.164,0.164"
         style="fill:#000000;fill-opacity:1;fill-rule:nonzero;stroke:none"
         id="path52" /><g
         id="g54"
         transform="matrix(-0.837692,0.999999,1,0.837693,0,62.022045)"><path
           d="m -50.867,6.057 -0.477,0.761 -0.423,-0.792 -0.423,-0.796 1.8,0.062 z"
           style="fill:none;stroke:#000000;stroke-width:0.0230355;stroke-linecap:butt;stroke-linejoin:miter;stroke-miterlimit:10;stroke-dasharray:none;stroke-opacity:1"
           id="path56" /></g><path
         d="m 43.242,30.737 1.055,-0.516 -1.945,-1.312 -0.082,1.168 -0.082,1.172 1.054,-0.512"
         style="fill:#000000;fill-opacity:1;fill-rule:nonzero;stroke:none"
         id="path58" /><g
         id="g60"
         transform="matrix(-0.10619,0.999999,1,0.106191,0,62.022045)"><path
           d="m -35.477,39.475 -0.621,0.989 -1.093,-2.062 1.163,0.042 1.168,0.042 z"
           style="fill:none;stroke:#000000;stroke-width:0.029882;stroke-linecap:butt;stroke-linejoin:miter;stroke-miterlimit:10;stroke-dasharray:none;stroke-opacity:1"
           id="path62" /></g><g
         id="g64"
         transform="matrix(1,0,0,-1,0,62.022045)"><path
           d="m 45.629,36.18 c 0.801,1.55 1.457,3.172 1.973,4.84"
           style="fill:none;stroke:#ffffff;stroke-width:0.8;stroke-linecap:square;stroke-linejoin:round;stroke-miterlimit:4;stroke-dasharray:none;stroke-opacity:1"
           id="path66" /></g><path
         d="m 51.297,26.819 c 0.094,0.078 0.094,0.141 0.094,0.141 0,0.109 -0.094,0.125 -0.11,0.125 -0.062,0 -0.093,-0.016 -0.156,-0.094 L 49.047,24.71 c -0.438,1.281 -0.469,1.375 -0.672,1.828 -0.094,0.187 -0.312,0.656 -1.125,0.656 -0.547,0 -0.797,-0.469 -0.797,-0.609 0,-0.094 0.078,-0.11 0.125,-0.11 0.078,0 0.11,0.047 0.125,0.125 0.094,0.235 0.313,0.36 0.485,0.36 0.281,0 0.593,-0.766 0.734,-1.141 0.281,-0.672 0.578,-1.641 0.578,-1.672 0,-0.031 -0.062,-0.094 -0.078,-0.109 L 46.328,21.756 C 46.25,21.678 46.219,21.663 46.219,21.6 c 0,-0.047 0.047,-0.109 0.125,-0.109 0.047,0 0.062,0.015 0.094,0.031 0.031,0.031 0.125,0.141 0.156,0.172 l 1.5,1.641 0.5,0.531 c 0.109,-0.375 0.359,-1.172 0.625,-1.766 0.125,-0.25 0.328,-0.719 1.156,-0.719 0.563,0 0.797,0.485 0.797,0.61 0,0.031 -0.031,0.109 -0.125,0.109 -0.094,0 -0.109,-0.062 -0.125,-0.094 -0.109,-0.328 -0.391,-0.39 -0.484,-0.39 -0.454,0 -1.079,2.047 -1.329,2.812 z"
         style="fill:#000000;fill-opacity:1;fill-rule:nonzero;stroke:none"
         id="path68" /></g></g></svg>
