<?xml version="1.0" encoding="utf-8" standalone="no"?>
<!DOCTYPE svg PUBLIC "-//W3C//DTD SVG 1.1//EN"
  "http://www.w3.org/Graphics/SVG/1.1/DTD/svg11.dtd">
<!-- Created with matplotlib (https://matplotlib.org/) -->
<svg height="288pt" version="1.1" viewBox="0 0 432 288" width="432pt" xmlns="http://www.w3.org/2000/svg" xmlns:xlink="http://www.w3.org/1999/xlink">
 <metadata>
  <rdf:RDF xmlns:cc="http://creativecommons.org/ns#" xmlns:dc="http://purl.org/dc/elements/1.1/" xmlns:rdf="http://www.w3.org/1999/02/22-rdf-syntax-ns#">
   <cc:Work>
    <dc:type rdf:resource="http://purl.org/dc/dcmitype/StillImage"/>
    <dc:date>2021-07-19T16:03:45.607714</dc:date>
    <dc:format>image/svg+xml</dc:format>
    <dc:creator>
     <cc:Agent>
      <dc:title>Matplotlib v3.3.2, https://matplotlib.org/</dc:title>
     </cc:Agent>
    </dc:creator>
   </cc:Work>
  </rdf:RDF>
 </metadata>
 <defs>
  <style type="text/css">*{stroke-linecap:butt;stroke-linejoin:round;}</style>
 </defs>
 <g id="figure_1">
  <g id="patch_1">
   <path d="M 0 288 
L 432 288 
L 432 0 
L 0 0 
z
" style="fill:#ffffff;"/>
  </g>
  <g id="axes_1">
   <g id="patch_2">
    <path d="M 54 256.32 
L 388.8 256.32 
L 388.8 145.44 
L 54 145.44 
z
" style="fill:#ffffff;"/>
   </g>
   <g id="matplotlib.axis_1">
    <g id="xtick_1">
     <g id="line2d_1">
      <defs>
       <path d="M 0 0 
L 0 3.5 
" id="m42ead9bd23" style="stroke:#000000;stroke-width:0.8;"/>
      </defs>
      <g>
       <use style="stroke:#000000;stroke-width:0.8;" x="54" xlink:href="#m42ead9bd23" y="256.32"/>
      </g>
     </g>
     <g id="text_1">
      <!-- 518 -->
      <g transform="translate(44.45625 270.918437)scale(0.1 -0.1)">
       <defs>
        <path d="M 10.796875 72.90625 
L 49.515625 72.90625 
L 49.515625 64.59375 
L 19.828125 64.59375 
L 19.828125 46.734375 
Q 21.96875 47.46875 24.109375 47.828125 
Q 26.265625 48.1875 28.421875 48.1875 
Q 40.625 48.1875 47.75 41.5 
Q 54.890625 34.8125 54.890625 23.390625 
Q 54.890625 11.625 47.5625 5.09375 
Q 40.234375 -1.421875 26.90625 -1.421875 
Q 22.3125 -1.421875 17.546875 -0.640625 
Q 12.796875 0.140625 7.71875 1.703125 
L 7.71875 11.625 
Q 12.109375 9.234375 16.796875 8.0625 
Q 21.484375 6.890625 26.703125 6.890625 
Q 35.15625 6.890625 40.078125 11.328125 
Q 45.015625 15.765625 45.015625 23.390625 
Q 45.015625 31 40.078125 35.4375 
Q 35.15625 39.890625 26.703125 39.890625 
Q 22.75 39.890625 18.8125 39.015625 
Q 14.890625 38.140625 10.796875 36.28125 
z
" id="DejaVuSans-53"/>
        <path d="M 12.40625 8.296875 
L 28.515625 8.296875 
L 28.515625 63.921875 
L 10.984375 60.40625 
L 10.984375 69.390625 
L 28.421875 72.90625 
L 38.28125 72.90625 
L 38.28125 8.296875 
L 54.390625 8.296875 
L 54.390625 0 
L 12.40625 0 
z
" id="DejaVuSans-49"/>
        <path d="M 31.78125 34.625 
Q 24.75 34.625 20.71875 30.859375 
Q 16.703125 27.09375 16.703125 20.515625 
Q 16.703125 13.921875 20.71875 10.15625 
Q 24.75 6.390625 31.78125 6.390625 
Q 38.8125 6.390625 42.859375 10.171875 
Q 46.921875 13.96875 46.921875 20.515625 
Q 46.921875 27.09375 42.890625 30.859375 
Q 38.875 34.625 31.78125 34.625 
z
M 21.921875 38.8125 
Q 15.578125 40.375 12.03125 44.71875 
Q 8.5 49.078125 8.5 55.328125 
Q 8.5 64.0625 14.71875 69.140625 
Q 20.953125 74.21875 31.78125 74.21875 
Q 42.671875 74.21875 48.875 69.140625 
Q 55.078125 64.0625 55.078125 55.328125 
Q 55.078125 49.078125 51.53125 44.71875 
Q 48 40.375 41.703125 38.8125 
Q 48.828125 37.15625 52.796875 32.3125 
Q 56.78125 27.484375 56.78125 20.515625 
Q 56.78125 9.90625 50.3125 4.234375 
Q 43.84375 -1.421875 31.78125 -1.421875 
Q 19.734375 -1.421875 13.25 4.234375 
Q 6.78125 9.90625 6.78125 20.515625 
Q 6.78125 27.484375 10.78125 32.3125 
Q 14.796875 37.15625 21.921875 38.8125 
z
M 18.3125 54.390625 
Q 18.3125 48.734375 21.84375 45.5625 
Q 25.390625 42.390625 31.78125 42.390625 
Q 38.140625 42.390625 41.71875 45.5625 
Q 45.3125 48.734375 45.3125 54.390625 
Q 45.3125 60.0625 41.71875 63.234375 
Q 38.140625 66.40625 31.78125 66.40625 
Q 25.390625 66.40625 21.84375 63.234375 
Q 18.3125 60.0625 18.3125 54.390625 
z
" id="DejaVuSans-56"/>
       </defs>
       <use xlink:href="#DejaVuSans-53"/>
       <use x="63.623047" xlink:href="#DejaVuSans-49"/>
       <use x="127.246094" xlink:href="#DejaVuSans-56"/>
      </g>
     </g>
    </g>
    <g id="xtick_2">
     <g id="line2d_2">
      <g>
       <use style="stroke:#000000;stroke-width:0.8;" x="114.872727" xlink:href="#m42ead9bd23" y="256.32"/>
      </g>
     </g>
     <g id="text_2">
      <!-- 520 -->
      <g transform="translate(105.328977 270.918437)scale(0.1 -0.1)">
       <defs>
        <path d="M 19.1875 8.296875 
L 53.609375 8.296875 
L 53.609375 0 
L 7.328125 0 
L 7.328125 8.296875 
Q 12.9375 14.109375 22.625 23.890625 
Q 32.328125 33.6875 34.8125 36.53125 
Q 39.546875 41.84375 41.421875 45.53125 
Q 43.3125 49.21875 43.3125 52.78125 
Q 43.3125 58.59375 39.234375 62.25 
Q 35.15625 65.921875 28.609375 65.921875 
Q 23.96875 65.921875 18.8125 64.3125 
Q 13.671875 62.703125 7.8125 59.421875 
L 7.8125 69.390625 
Q 13.765625 71.78125 18.9375 73 
Q 24.125 74.21875 28.421875 74.21875 
Q 39.75 74.21875 46.484375 68.546875 
Q 53.21875 62.890625 53.21875 53.421875 
Q 53.21875 48.921875 51.53125 44.890625 
Q 49.859375 40.875 45.40625 35.40625 
Q 44.1875 33.984375 37.640625 27.21875 
Q 31.109375 20.453125 19.1875 8.296875 
z
" id="DejaVuSans-50"/>
        <path d="M 31.78125 66.40625 
Q 24.171875 66.40625 20.328125 58.90625 
Q 16.5 51.421875 16.5 36.375 
Q 16.5 21.390625 20.328125 13.890625 
Q 24.171875 6.390625 31.78125 6.390625 
Q 39.453125 6.390625 43.28125 13.890625 
Q 47.125 21.390625 47.125 36.375 
Q 47.125 51.421875 43.28125 58.90625 
Q 39.453125 66.40625 31.78125 66.40625 
z
M 31.78125 74.21875 
Q 44.046875 74.21875 50.515625 64.515625 
Q 56.984375 54.828125 56.984375 36.375 
Q 56.984375 17.96875 50.515625 8.265625 
Q 44.046875 -1.421875 31.78125 -1.421875 
Q 19.53125 -1.421875 13.0625 8.265625 
Q 6.59375 17.96875 6.59375 36.375 
Q 6.59375 54.828125 13.0625 64.515625 
Q 19.53125 74.21875 31.78125 74.21875 
z
" id="DejaVuSans-48"/>
       </defs>
       <use xlink:href="#DejaVuSans-53"/>
       <use x="63.623047" xlink:href="#DejaVuSans-50"/>
       <use x="127.246094" xlink:href="#DejaVuSans-48"/>
      </g>
     </g>
    </g>
    <g id="xtick_3">
     <g id="line2d_3">
      <g>
       <use style="stroke:#000000;stroke-width:0.8;" x="175.745455" xlink:href="#m42ead9bd23" y="256.32"/>
      </g>
     </g>
     <g id="text_3">
      <!-- 522 -->
      <g transform="translate(166.201705 270.918437)scale(0.1 -0.1)">
       <use xlink:href="#DejaVuSans-53"/>
       <use x="63.623047" xlink:href="#DejaVuSans-50"/>
       <use x="127.246094" xlink:href="#DejaVuSans-50"/>
      </g>
     </g>
    </g>
    <g id="xtick_4">
     <g id="line2d_4">
      <g>
       <use style="stroke:#000000;stroke-width:0.8;" x="236.618182" xlink:href="#m42ead9bd23" y="256.32"/>
      </g>
     </g>
     <g id="text_4">
      <!-- 524 -->
      <g transform="translate(227.074432 270.918437)scale(0.1 -0.1)">
       <defs>
        <path d="M 37.796875 64.3125 
L 12.890625 25.390625 
L 37.796875 25.390625 
z
M 35.203125 72.90625 
L 47.609375 72.90625 
L 47.609375 25.390625 
L 58.015625 25.390625 
L 58.015625 17.1875 
L 47.609375 17.1875 
L 47.609375 0 
L 37.796875 0 
L 37.796875 17.1875 
L 4.890625 17.1875 
L 4.890625 26.703125 
z
" id="DejaVuSans-52"/>
       </defs>
       <use xlink:href="#DejaVuSans-53"/>
       <use x="63.623047" xlink:href="#DejaVuSans-50"/>
       <use x="127.246094" xlink:href="#DejaVuSans-52"/>
      </g>
     </g>
    </g>
    <g id="xtick_5">
     <g id="line2d_5">
      <g>
       <use style="stroke:#000000;stroke-width:0.8;" x="297.490909" xlink:href="#m42ead9bd23" y="256.32"/>
      </g>
     </g>
     <g id="text_5">
      <!-- 526 -->
      <g transform="translate(287.947159 270.918437)scale(0.1 -0.1)">
       <defs>
        <path d="M 33.015625 40.375 
Q 26.375 40.375 22.484375 35.828125 
Q 18.609375 31.296875 18.609375 23.390625 
Q 18.609375 15.53125 22.484375 10.953125 
Q 26.375 6.390625 33.015625 6.390625 
Q 39.65625 6.390625 43.53125 10.953125 
Q 47.40625 15.53125 47.40625 23.390625 
Q 47.40625 31.296875 43.53125 35.828125 
Q 39.65625 40.375 33.015625 40.375 
z
M 52.59375 71.296875 
L 52.59375 62.3125 
Q 48.875 64.0625 45.09375 64.984375 
Q 41.3125 65.921875 37.59375 65.921875 
Q 27.828125 65.921875 22.671875 59.328125 
Q 17.53125 52.734375 16.796875 39.40625 
Q 19.671875 43.65625 24.015625 45.921875 
Q 28.375 48.1875 33.59375 48.1875 
Q 44.578125 48.1875 50.953125 41.515625 
Q 57.328125 34.859375 57.328125 23.390625 
Q 57.328125 12.15625 50.6875 5.359375 
Q 44.046875 -1.421875 33.015625 -1.421875 
Q 20.359375 -1.421875 13.671875 8.265625 
Q 6.984375 17.96875 6.984375 36.375 
Q 6.984375 53.65625 15.1875 63.9375 
Q 23.390625 74.21875 37.203125 74.21875 
Q 40.921875 74.21875 44.703125 73.484375 
Q 48.484375 72.75 52.59375 71.296875 
z
" id="DejaVuSans-54"/>
       </defs>
       <use xlink:href="#DejaVuSans-53"/>
       <use x="63.623047" xlink:href="#DejaVuSans-50"/>
       <use x="127.246094" xlink:href="#DejaVuSans-54"/>
      </g>
     </g>
    </g>
    <g id="xtick_6">
     <g id="line2d_6">
      <g>
       <use style="stroke:#000000;stroke-width:0.8;" x="358.363636" xlink:href="#m42ead9bd23" y="256.32"/>
      </g>
     </g>
     <g id="text_6">
      <!-- 528 -->
      <g transform="translate(348.819886 270.918437)scale(0.1 -0.1)">
       <use xlink:href="#DejaVuSans-53"/>
       <use x="63.623047" xlink:href="#DejaVuSans-50"/>
       <use x="127.246094" xlink:href="#DejaVuSans-56"/>
      </g>
     </g>
    </g>
    <g id="text_7">
     <!-- Photon energy [eV] -->
     <g transform="translate(172.96875 284.596563)scale(0.1 -0.1)">
      <defs>
       <path d="M 19.671875 64.796875 
L 19.671875 37.40625 
L 32.078125 37.40625 
Q 38.96875 37.40625 42.71875 40.96875 
Q 46.484375 44.53125 46.484375 51.125 
Q 46.484375 57.671875 42.71875 61.234375 
Q 38.96875 64.796875 32.078125 64.796875 
z
M 9.8125 72.90625 
L 32.078125 72.90625 
Q 44.34375 72.90625 50.609375 67.359375 
Q 56.890625 61.8125 56.890625 51.125 
Q 56.890625 40.328125 50.609375 34.8125 
Q 44.34375 29.296875 32.078125 29.296875 
L 19.671875 29.296875 
L 19.671875 0 
L 9.8125 0 
z
" id="DejaVuSans-80"/>
       <path d="M 54.890625 33.015625 
L 54.890625 0 
L 45.90625 0 
L 45.90625 32.71875 
Q 45.90625 40.484375 42.875 44.328125 
Q 39.84375 48.1875 33.796875 48.1875 
Q 26.515625 48.1875 22.3125 43.546875 
Q 18.109375 38.921875 18.109375 30.90625 
L 18.109375 0 
L 9.078125 0 
L 9.078125 75.984375 
L 18.109375 75.984375 
L 18.109375 46.1875 
Q 21.34375 51.125 25.703125 53.5625 
Q 30.078125 56 35.796875 56 
Q 45.21875 56 50.046875 50.171875 
Q 54.890625 44.34375 54.890625 33.015625 
z
" id="DejaVuSans-104"/>
       <path d="M 30.609375 48.390625 
Q 23.390625 48.390625 19.1875 42.75 
Q 14.984375 37.109375 14.984375 27.296875 
Q 14.984375 17.484375 19.15625 11.84375 
Q 23.34375 6.203125 30.609375 6.203125 
Q 37.796875 6.203125 41.984375 11.859375 
Q 46.1875 17.53125 46.1875 27.296875 
Q 46.1875 37.015625 41.984375 42.703125 
Q 37.796875 48.390625 30.609375 48.390625 
z
M 30.609375 56 
Q 42.328125 56 49.015625 48.375 
Q 55.71875 40.765625 55.71875 27.296875 
Q 55.71875 13.875 49.015625 6.21875 
Q 42.328125 -1.421875 30.609375 -1.421875 
Q 18.84375 -1.421875 12.171875 6.21875 
Q 5.515625 13.875 5.515625 27.296875 
Q 5.515625 40.765625 12.171875 48.375 
Q 18.84375 56 30.609375 56 
z
" id="DejaVuSans-111"/>
       <path d="M 18.3125 70.21875 
L 18.3125 54.6875 
L 36.8125 54.6875 
L 36.8125 47.703125 
L 18.3125 47.703125 
L 18.3125 18.015625 
Q 18.3125 11.328125 20.140625 9.421875 
Q 21.96875 7.515625 27.59375 7.515625 
L 36.8125 7.515625 
L 36.8125 0 
L 27.59375 0 
Q 17.1875 0 13.234375 3.875 
Q 9.28125 7.765625 9.28125 18.015625 
L 9.28125 47.703125 
L 2.6875 47.703125 
L 2.6875 54.6875 
L 9.28125 54.6875 
L 9.28125 70.21875 
z
" id="DejaVuSans-116"/>
       <path d="M 54.890625 33.015625 
L 54.890625 0 
L 45.90625 0 
L 45.90625 32.71875 
Q 45.90625 40.484375 42.875 44.328125 
Q 39.84375 48.1875 33.796875 48.1875 
Q 26.515625 48.1875 22.3125 43.546875 
Q 18.109375 38.921875 18.109375 30.90625 
L 18.109375 0 
L 9.078125 0 
L 9.078125 54.6875 
L 18.109375 54.6875 
L 18.109375 46.1875 
Q 21.34375 51.125 25.703125 53.5625 
Q 30.078125 56 35.796875 56 
Q 45.21875 56 50.046875 50.171875 
Q 54.890625 44.34375 54.890625 33.015625 
z
" id="DejaVuSans-110"/>
       <path id="DejaVuSans-32"/>
       <path d="M 56.203125 29.59375 
L 56.203125 25.203125 
L 14.890625 25.203125 
Q 15.484375 15.921875 20.484375 11.0625 
Q 25.484375 6.203125 34.421875 6.203125 
Q 39.59375 6.203125 44.453125 7.46875 
Q 49.3125 8.734375 54.109375 11.28125 
L 54.109375 2.78125 
Q 49.265625 0.734375 44.1875 -0.34375 
Q 39.109375 -1.421875 33.890625 -1.421875 
Q 20.796875 -1.421875 13.15625 6.1875 
Q 5.515625 13.8125 5.515625 26.8125 
Q 5.515625 40.234375 12.765625 48.109375 
Q 20.015625 56 32.328125 56 
Q 43.359375 56 49.78125 48.890625 
Q 56.203125 41.796875 56.203125 29.59375 
z
M 47.21875 32.234375 
Q 47.125 39.59375 43.09375 43.984375 
Q 39.0625 48.390625 32.421875 48.390625 
Q 24.90625 48.390625 20.390625 44.140625 
Q 15.875 39.890625 15.1875 32.171875 
z
" id="DejaVuSans-101"/>
       <path d="M 41.109375 46.296875 
Q 39.59375 47.171875 37.8125 47.578125 
Q 36.03125 48 33.890625 48 
Q 26.265625 48 22.1875 43.046875 
Q 18.109375 38.09375 18.109375 28.8125 
L 18.109375 0 
L 9.078125 0 
L 9.078125 54.6875 
L 18.109375 54.6875 
L 18.109375 46.1875 
Q 20.953125 51.171875 25.484375 53.578125 
Q 30.03125 56 36.53125 56 
Q 37.453125 56 38.578125 55.875 
Q 39.703125 55.765625 41.0625 55.515625 
z
" id="DejaVuSans-114"/>
       <path d="M 45.40625 27.984375 
Q 45.40625 37.75 41.375 43.109375 
Q 37.359375 48.484375 30.078125 48.484375 
Q 22.859375 48.484375 18.828125 43.109375 
Q 14.796875 37.75 14.796875 27.984375 
Q 14.796875 18.265625 18.828125 12.890625 
Q 22.859375 7.515625 30.078125 7.515625 
Q 37.359375 7.515625 41.375 12.890625 
Q 45.40625 18.265625 45.40625 27.984375 
z
M 54.390625 6.78125 
Q 54.390625 -7.171875 48.1875 -13.984375 
Q 42 -20.796875 29.203125 -20.796875 
Q 24.46875 -20.796875 20.265625 -20.09375 
Q 16.0625 -19.390625 12.109375 -17.921875 
L 12.109375 -9.1875 
Q 16.0625 -11.328125 19.921875 -12.34375 
Q 23.78125 -13.375 27.78125 -13.375 
Q 36.625 -13.375 41.015625 -8.765625 
Q 45.40625 -4.15625 45.40625 5.171875 
L 45.40625 9.625 
Q 42.625 4.78125 38.28125 2.390625 
Q 33.9375 0 27.875 0 
Q 17.828125 0 11.671875 7.65625 
Q 5.515625 15.328125 5.515625 27.984375 
Q 5.515625 40.671875 11.671875 48.328125 
Q 17.828125 56 27.875 56 
Q 33.9375 56 38.28125 53.609375 
Q 42.625 51.21875 45.40625 46.390625 
L 45.40625 54.6875 
L 54.390625 54.6875 
z
" id="DejaVuSans-103"/>
       <path d="M 32.171875 -5.078125 
Q 28.375 -14.84375 24.75 -17.8125 
Q 21.140625 -20.796875 15.09375 -20.796875 
L 7.90625 -20.796875 
L 7.90625 -13.28125 
L 13.1875 -13.28125 
Q 16.890625 -13.28125 18.9375 -11.515625 
Q 21 -9.765625 23.484375 -3.21875 
L 25.09375 0.875 
L 2.984375 54.6875 
L 12.5 54.6875 
L 29.59375 11.921875 
L 46.6875 54.6875 
L 56.203125 54.6875 
z
" id="DejaVuSans-121"/>
       <path d="M 8.59375 75.984375 
L 29.296875 75.984375 
L 29.296875 69 
L 17.578125 69 
L 17.578125 -6.203125 
L 29.296875 -6.203125 
L 29.296875 -13.1875 
L 8.59375 -13.1875 
z
" id="DejaVuSans-91"/>
       <path d="M 28.609375 0 
L 0.78125 72.90625 
L 11.078125 72.90625 
L 34.1875 11.53125 
L 57.328125 72.90625 
L 67.578125 72.90625 
L 39.796875 0 
z
" id="DejaVuSans-86"/>
       <path d="M 30.421875 75.984375 
L 30.421875 -13.1875 
L 9.71875 -13.1875 
L 9.71875 -6.203125 
L 21.390625 -6.203125 
L 21.390625 69 
L 9.71875 69 
L 9.71875 75.984375 
z
" id="DejaVuSans-93"/>
      </defs>
      <use xlink:href="#DejaVuSans-80"/>
      <use x="60.302734" xlink:href="#DejaVuSans-104"/>
      <use x="123.681641" xlink:href="#DejaVuSans-111"/>
      <use x="184.863281" xlink:href="#DejaVuSans-116"/>
      <use x="224.072266" xlink:href="#DejaVuSans-111"/>
      <use x="285.253906" xlink:href="#DejaVuSans-110"/>
      <use x="348.632812" xlink:href="#DejaVuSans-32"/>
      <use x="380.419922" xlink:href="#DejaVuSans-101"/>
      <use x="441.943359" xlink:href="#DejaVuSans-110"/>
      <use x="505.322266" xlink:href="#DejaVuSans-101"/>
      <use x="566.845703" xlink:href="#DejaVuSans-114"/>
      <use x="606.208984" xlink:href="#DejaVuSans-103"/>
      <use x="669.685547" xlink:href="#DejaVuSans-121"/>
      <use x="728.865234" xlink:href="#DejaVuSans-32"/>
      <use x="760.652344" xlink:href="#DejaVuSans-91"/>
      <use x="799.666016" xlink:href="#DejaVuSans-101"/>
      <use x="861.189453" xlink:href="#DejaVuSans-86"/>
      <use x="929.597656" xlink:href="#DejaVuSans-93"/>
     </g>
    </g>
   </g>
   <g id="matplotlib.axis_2">
    <g id="ytick_1">
     <g id="line2d_7">
      <defs>
       <path d="M 0 0 
L -3.5 0 
" id="mcad4e7a603" style="stroke:#000000;stroke-width:0.8;"/>
      </defs>
      <g>
       <use style="stroke:#000000;stroke-width:0.8;" x="54" xlink:href="#mcad4e7a603" y="234.144"/>
      </g>
     </g>
    </g>
    <g id="ytick_2">
     <g id="line2d_8">
      <g>
       <use style="stroke:#000000;stroke-width:0.8;" x="54" xlink:href="#mcad4e7a603" y="211.968"/>
      </g>
     </g>
    </g>
    <g id="ytick_3">
     <g id="line2d_9">
      <g>
       <use style="stroke:#000000;stroke-width:0.8;" x="54" xlink:href="#mcad4e7a603" y="189.792"/>
      </g>
     </g>
    </g>
    <g id="ytick_4">
     <g id="line2d_10">
      <g>
       <use style="stroke:#000000;stroke-width:0.8;" x="54" xlink:href="#mcad4e7a603" y="167.616"/>
      </g>
     </g>
    </g>
    <g id="ytick_5">
     <g id="line2d_11">
      <g>
       <use style="stroke:#000000;stroke-width:0.8;" x="54" xlink:href="#mcad4e7a603" y="145.44"/>
      </g>
     </g>
    </g>
    <g id="text_8">
     <!--                                   Emission intensity [arb. units] -->
     <g transform="translate(40.920312 329.672969)rotate(-90)scale(0.1 -0.1)">
      <defs>
       <path d="M 9.8125 72.90625 
L 55.90625 72.90625 
L 55.90625 64.59375 
L 19.671875 64.59375 
L 19.671875 43.015625 
L 54.390625 43.015625 
L 54.390625 34.71875 
L 19.671875 34.71875 
L 19.671875 8.296875 
L 56.78125 8.296875 
L 56.78125 0 
L 9.8125 0 
z
" id="DejaVuSans-69"/>
       <path d="M 52 44.1875 
Q 55.375 50.25 60.0625 53.125 
Q 64.75 56 71.09375 56 
Q 79.640625 56 84.28125 50.015625 
Q 88.921875 44.046875 88.921875 33.015625 
L 88.921875 0 
L 79.890625 0 
L 79.890625 32.71875 
Q 79.890625 40.578125 77.09375 44.375 
Q 74.3125 48.1875 68.609375 48.1875 
Q 61.625 48.1875 57.5625 43.546875 
Q 53.515625 38.921875 53.515625 30.90625 
L 53.515625 0 
L 44.484375 0 
L 44.484375 32.71875 
Q 44.484375 40.625 41.703125 44.40625 
Q 38.921875 48.1875 33.109375 48.1875 
Q 26.21875 48.1875 22.15625 43.53125 
Q 18.109375 38.875 18.109375 30.90625 
L 18.109375 0 
L 9.078125 0 
L 9.078125 54.6875 
L 18.109375 54.6875 
L 18.109375 46.1875 
Q 21.1875 51.21875 25.484375 53.609375 
Q 29.78125 56 35.6875 56 
Q 41.65625 56 45.828125 52.96875 
Q 50 49.953125 52 44.1875 
z
" id="DejaVuSans-109"/>
       <path d="M 9.421875 54.6875 
L 18.40625 54.6875 
L 18.40625 0 
L 9.421875 0 
z
M 9.421875 75.984375 
L 18.40625 75.984375 
L 18.40625 64.59375 
L 9.421875 64.59375 
z
" id="DejaVuSans-105"/>
       <path d="M 44.28125 53.078125 
L 44.28125 44.578125 
Q 40.484375 46.53125 36.375 47.5 
Q 32.28125 48.484375 27.875 48.484375 
Q 21.1875 48.484375 17.84375 46.4375 
Q 14.5 44.390625 14.5 40.28125 
Q 14.5 37.15625 16.890625 35.375 
Q 19.28125 33.59375 26.515625 31.984375 
L 29.59375 31.296875 
Q 39.15625 29.25 43.1875 25.515625 
Q 47.21875 21.78125 47.21875 15.09375 
Q 47.21875 7.46875 41.1875 3.015625 
Q 35.15625 -1.421875 24.609375 -1.421875 
Q 20.21875 -1.421875 15.453125 -0.5625 
Q 10.6875 0.296875 5.421875 2 
L 5.421875 11.28125 
Q 10.40625 8.6875 15.234375 7.390625 
Q 20.0625 6.109375 24.8125 6.109375 
Q 31.15625 6.109375 34.5625 8.28125 
Q 37.984375 10.453125 37.984375 14.40625 
Q 37.984375 18.0625 35.515625 20.015625 
Q 33.0625 21.96875 24.703125 23.78125 
L 21.578125 24.515625 
Q 13.234375 26.265625 9.515625 29.90625 
Q 5.8125 33.546875 5.8125 39.890625 
Q 5.8125 47.609375 11.28125 51.796875 
Q 16.75 56 26.8125 56 
Q 31.78125 56 36.171875 55.265625 
Q 40.578125 54.546875 44.28125 53.078125 
z
" id="DejaVuSans-115"/>
       <path d="M 34.28125 27.484375 
Q 23.390625 27.484375 19.1875 25 
Q 14.984375 22.515625 14.984375 16.5 
Q 14.984375 11.71875 18.140625 8.90625 
Q 21.296875 6.109375 26.703125 6.109375 
Q 34.1875 6.109375 38.703125 11.40625 
Q 43.21875 16.703125 43.21875 25.484375 
L 43.21875 27.484375 
z
M 52.203125 31.203125 
L 52.203125 0 
L 43.21875 0 
L 43.21875 8.296875 
Q 40.140625 3.328125 35.546875 0.953125 
Q 30.953125 -1.421875 24.3125 -1.421875 
Q 15.921875 -1.421875 10.953125 3.296875 
Q 6 8.015625 6 15.921875 
Q 6 25.140625 12.171875 29.828125 
Q 18.359375 34.515625 30.609375 34.515625 
L 43.21875 34.515625 
L 43.21875 35.40625 
Q 43.21875 41.609375 39.140625 45 
Q 35.0625 48.390625 27.6875 48.390625 
Q 23 48.390625 18.546875 47.265625 
Q 14.109375 46.140625 10.015625 43.890625 
L 10.015625 52.203125 
Q 14.9375 54.109375 19.578125 55.046875 
Q 24.21875 56 28.609375 56 
Q 40.484375 56 46.34375 49.84375 
Q 52.203125 43.703125 52.203125 31.203125 
z
" id="DejaVuSans-97"/>
       <path d="M 48.6875 27.296875 
Q 48.6875 37.203125 44.609375 42.84375 
Q 40.53125 48.484375 33.40625 48.484375 
Q 26.265625 48.484375 22.1875 42.84375 
Q 18.109375 37.203125 18.109375 27.296875 
Q 18.109375 17.390625 22.1875 11.75 
Q 26.265625 6.109375 33.40625 6.109375 
Q 40.53125 6.109375 44.609375 11.75 
Q 48.6875 17.390625 48.6875 27.296875 
z
M 18.109375 46.390625 
Q 20.953125 51.265625 25.265625 53.625 
Q 29.59375 56 35.59375 56 
Q 45.5625 56 51.78125 48.09375 
Q 58.015625 40.1875 58.015625 27.296875 
Q 58.015625 14.40625 51.78125 6.484375 
Q 45.5625 -1.421875 35.59375 -1.421875 
Q 29.59375 -1.421875 25.265625 0.953125 
Q 20.953125 3.328125 18.109375 8.203125 
L 18.109375 0 
L 9.078125 0 
L 9.078125 75.984375 
L 18.109375 75.984375 
z
" id="DejaVuSans-98"/>
       <path d="M 10.6875 12.40625 
L 21 12.40625 
L 21 0 
L 10.6875 0 
z
" id="DejaVuSans-46"/>
       <path d="M 8.5 21.578125 
L 8.5 54.6875 
L 17.484375 54.6875 
L 17.484375 21.921875 
Q 17.484375 14.15625 20.5 10.265625 
Q 23.53125 6.390625 29.59375 6.390625 
Q 36.859375 6.390625 41.078125 11.03125 
Q 45.3125 15.671875 45.3125 23.6875 
L 45.3125 54.6875 
L 54.296875 54.6875 
L 54.296875 0 
L 45.3125 0 
L 45.3125 8.40625 
Q 42.046875 3.421875 37.71875 1 
Q 33.40625 -1.421875 27.6875 -1.421875 
Q 18.265625 -1.421875 13.375 4.4375 
Q 8.5 10.296875 8.5 21.578125 
z
M 31.109375 56 
z
" id="DejaVuSans-117"/>
      </defs>
      <use xlink:href="#DejaVuSans-32"/>
      <use x="31.787109" xlink:href="#DejaVuSans-32"/>
      <use x="63.574219" xlink:href="#DejaVuSans-32"/>
      <use x="95.361328" xlink:href="#DejaVuSans-32"/>
      <use x="127.148438" xlink:href="#DejaVuSans-32"/>
      <use x="158.935547" xlink:href="#DejaVuSans-32"/>
      <use x="190.722656" xlink:href="#DejaVuSans-32"/>
      <use x="222.509766" xlink:href="#DejaVuSans-32"/>
      <use x="254.296875" xlink:href="#DejaVuSans-32"/>
      <use x="286.083984" xlink:href="#DejaVuSans-32"/>
      <use x="317.871094" xlink:href="#DejaVuSans-32"/>
      <use x="349.658203" xlink:href="#DejaVuSans-32"/>
      <use x="381.445312" xlink:href="#DejaVuSans-32"/>
      <use x="413.232422" xlink:href="#DejaVuSans-32"/>
      <use x="445.019531" xlink:href="#DejaVuSans-32"/>
      <use x="476.806641" xlink:href="#DejaVuSans-32"/>
      <use x="508.59375" xlink:href="#DejaVuSans-32"/>
      <use x="540.380859" xlink:href="#DejaVuSans-32"/>
      <use x="572.167969" xlink:href="#DejaVuSans-32"/>
      <use x="603.955078" xlink:href="#DejaVuSans-32"/>
      <use x="635.742188" xlink:href="#DejaVuSans-32"/>
      <use x="667.529297" xlink:href="#DejaVuSans-32"/>
      <use x="699.316406" xlink:href="#DejaVuSans-32"/>
      <use x="731.103516" xlink:href="#DejaVuSans-32"/>
      <use x="762.890625" xlink:href="#DejaVuSans-32"/>
      <use x="794.677734" xlink:href="#DejaVuSans-32"/>
      <use x="826.464844" xlink:href="#DejaVuSans-32"/>
      <use x="858.251953" xlink:href="#DejaVuSans-32"/>
      <use x="890.039062" xlink:href="#DejaVuSans-32"/>
      <use x="921.826172" xlink:href="#DejaVuSans-32"/>
      <use x="953.613281" xlink:href="#DejaVuSans-32"/>
      <use x="985.400391" xlink:href="#DejaVuSans-32"/>
      <use x="1017.1875" xlink:href="#DejaVuSans-32"/>
      <use x="1048.974609" xlink:href="#DejaVuSans-32"/>
      <use x="1080.761719" xlink:href="#DejaVuSans-69"/>
      <use x="1143.945312" xlink:href="#DejaVuSans-109"/>
      <use x="1241.357422" xlink:href="#DejaVuSans-105"/>
      <use x="1269.140625" xlink:href="#DejaVuSans-115"/>
      <use x="1321.240234" xlink:href="#DejaVuSans-115"/>
      <use x="1373.339844" xlink:href="#DejaVuSans-105"/>
      <use x="1401.123047" xlink:href="#DejaVuSans-111"/>
      <use x="1462.304688" xlink:href="#DejaVuSans-110"/>
      <use x="1525.683594" xlink:href="#DejaVuSans-32"/>
      <use x="1557.470703" xlink:href="#DejaVuSans-105"/>
      <use x="1585.253906" xlink:href="#DejaVuSans-110"/>
      <use x="1648.632812" xlink:href="#DejaVuSans-116"/>
      <use x="1687.841797" xlink:href="#DejaVuSans-101"/>
      <use x="1749.365234" xlink:href="#DejaVuSans-110"/>
      <use x="1812.744141" xlink:href="#DejaVuSans-115"/>
      <use x="1864.84375" xlink:href="#DejaVuSans-105"/>
      <use x="1892.626953" xlink:href="#DejaVuSans-116"/>
      <use x="1931.835938" xlink:href="#DejaVuSans-121"/>
      <use x="1991.015625" xlink:href="#DejaVuSans-32"/>
      <use x="2022.802734" xlink:href="#DejaVuSans-91"/>
      <use x="2061.816406" xlink:href="#DejaVuSans-97"/>
      <use x="2123.095703" xlink:href="#DejaVuSans-114"/>
      <use x="2164.208984" xlink:href="#DejaVuSans-98"/>
      <use x="2227.685547" xlink:href="#DejaVuSans-46"/>
      <use x="2259.472656" xlink:href="#DejaVuSans-32"/>
      <use x="2291.259766" xlink:href="#DejaVuSans-117"/>
      <use x="2354.638672" xlink:href="#DejaVuSans-110"/>
      <use x="2418.017578" xlink:href="#DejaVuSans-105"/>
      <use x="2445.800781" xlink:href="#DejaVuSans-116"/>
      <use x="2485.009766" xlink:href="#DejaVuSans-115"/>
      <use x="2537.109375" xlink:href="#DejaVuSans-93"/>
     </g>
    </g>
   </g>
   <g id="line2d_12">
    <path clip-path="url(#p9336e4337f)" d="M 23.889746 248.141322 
L 28.696774 248.083477 
L 31.755999 247.959529 
L 33.722297 248.025907 
L 35.470404 247.964208 
L 37.218208 248.030311 
L 43.991837 247.911042 
L 47.706394 247.851821 
L 53.606498 247.539751 
L 57.758044 247.481081 
L 64.750621 247.170387 
L 68.684427 246.79194 
L 73.711007 246.287068 
L 75.677608 246.225645 
L 80.267049 245.784124 
L 83.764924 244.957824 
L 89.448197 243.942577 
L 92.946072 243.116278 
L 97.31732 242.54668 
L 103.001953 240.956331 
L 104.313675 240.638481 
L 106.937572 239.811081 
L 112.840548 238.284907 
L 116.558731 236.69208 
L 117.870453 236.374231 
L 120.494954 235.29123 
L 123.555538 234.59218 
L 127.710408 233.127705 
L 129.022734 232.554254 
L 131.865428 231.599329 
L 133.61429 231.218129 
L 137.985539 230.648532 
L 141.918589 230.589586 
L 143.447597 230.783213 
L 145.632843 230.658165 
L 147.599293 230.660642 
L 149.128301 230.85427 
L 153.277428 231.818002 
L 155.02493 232.011905 
L 156.334839 232.460858 
L 160.481398 234.510895 
L 161.790853 235.151548 
L 163.318954 235.728577 
L 164.628259 236.433131 
L 167.902955 237.587463 
L 169.212411 238.228117 
L 172.05027 239.317999 
L 173.141382 239.894477 
L 174.669483 240.471506 
L 176.197282 241.176335 
L 186.021976 244.383732 
L 192.792281 245.670268 
L 199.564097 246.317803 
L 202.404675 246.257481 
L 204.807509 246.516109 
L 207.210646 246.646937 
L 220.540317 246.024724 
L 230.593629 244.951081 
L 232.561136 244.506257 
L 234.528342 244.189233 
L 239.119293 243.108709 
L 241.08801 242.152683 
L 247.870856 238.135501 
L 249.402886 237.051124 
L 252.686951 234.243642 
L 253.782898 232.775313 
L 255.315683 231.371435 
L 256.411329 230.030906 
L 257.069532 228.881528 
L 258.602317 227.47765 
L 261.231503 224.413742 
L 262.767763 221.540158 
L 263.863409 220.19963 
L 264.740408 218.922726 
L 265.399216 217.517747 
L 266.275611 216.496444 
L 268.029158 214.134338 
L 271.09639 210.623679 
L 272.409774 209.602927 
L 274.379095 208.391299 
L 275.472474 208.009274 
L 277.220278 208.075376 
L 278.966873 208.65268 
L 279.83934 209.292783 
L 282.23749 211.532319 
L 284.852624 214.411132 
L 285.505236 215.626062 
L 286.594686 216.905442 
L 287.246845 218.312073 
L 288.988605 220.934184 
L 292.254235 225.92253 
L 293.343534 227.265811 
L 293.9966 228.28904 
L 296.175953 230.656101 
L 299.011092 232.896187 
L 300.100542 234.175568 
L 301.846231 235.136273 
L 303.155082 236.032527 
L 304.46484 236.545381 
L 305.993243 236.994609 
L 307.521949 237.316037 
L 309.270055 237.254338 
L 310.581928 236.872588 
L 311.675458 236.426663 
L 312.550947 235.788762 
L 315.179528 232.980454 
L 317.15308 229.979621 
L 317.592638 228.893868 
L 318.25069 227.80839 
L 320.009827 223.081975 
L 320.451046 221.293319 
L 321.110307 219.696639 
L 321.992293 216.311028 
L 323.096854 211.200386 
L 323.537318 209.731232 
L 323.979293 207.623075 
L 324.202472 205.642443 
L 326.192494 195.676485 
L 326.637793 192.162523 
L 327.079013 190.373867 
L 327.301587 188.648836 
L 327.742353 187.051881 
L 328.185084 184.624223 
L 328.408414 182.579691 
L 329.068732 180.53571 
L 329.510254 178.619254 
L 330.399191 172.294232 
L 331.280422 169.228122 
L 331.501485 168.142094 
L 331.941496 166.86464 
L 331.943762 165.906136 
L 333.475792 164.821759 
L 333.91399 164.311108 
L 335.218308 167.124369 
L 335.653332 167.955623 
L 335.867596 169.745104 
L 336.300958 171.27926 
L 337.595908 178.054335 
L 337.809869 179.971617 
L 338.459913 182.272851 
L 338.886475 186.682517 
L 339.531382 191.156358 
L 339.745343 193.07364 
L 340.610557 196.780954 
L 341.251987 202.724501 
L 341.684443 204.642058 
L 342.112819 208.284921 
L 342.327536 209.882702 
L 343.192901 213.526116 
L 343.839771 217.169254 
L 344.054186 218.894836 
L 345.56627 226.245288 
L 346.436168 227.971695 
L 346.432239 229.633101 
L 347.302288 231.295608 
L 347.95339 233.14954 
L 348.822683 235.131548 
L 350.779462 239.223639 
L 353.613241 242.038827 
L 356.231246 243.703536 
L 358.414679 244.345291 
L 361.035252 244.923695 
L 364.093569 245.18315 
L 369.991106 245.957384 
L 375.670903 246.411841 
L 382.007241 246.419823 
L 387.03216 246.617854 
L 393.367742 246.945337 
L 399.921366 247.464796 
L 399.921366 247.464796 
" style="fill:none;stroke:#0000ff;stroke-linecap:square;stroke-width:1.5;"/>
   </g>
   <g id="patch_3">
    <path d="M 54 256.32 
L 54 145.44 
" style="fill:none;stroke:#000000;stroke-linecap:square;stroke-linejoin:miter;stroke-width:0.8;"/>
   </g>
   <g id="patch_4">
    <path d="M 388.8 256.32 
L 388.8 145.44 
" style="fill:none;stroke:#000000;stroke-linecap:square;stroke-linejoin:miter;stroke-width:0.8;"/>
   </g>
   <g id="patch_5">
    <path d="M 54 256.32 
L 388.8 256.32 
" style="fill:none;stroke:#000000;stroke-linecap:square;stroke-linejoin:miter;stroke-width:0.8;"/>
   </g>
   <g id="patch_6">
    <path d="M 54 145.44 
L 388.8 145.44 
" style="fill:none;stroke:#000000;stroke-linecap:square;stroke-linejoin:miter;stroke-width:0.8;"/>
   </g>
   <g id="legend_1">
    <g id="patch_7">
     <path d="M 61 168.118125 
L 115.50625 168.118125 
Q 117.50625 168.118125 117.50625 166.118125 
L 117.50625 152.44 
Q 117.50625 150.44 115.50625 150.44 
L 61 150.44 
Q 59 150.44 59 152.44 
L 59 166.118125 
Q 59 168.118125 61 168.118125 
z
" style="fill:#ffffff;opacity:0.8;stroke:#cccccc;stroke-linejoin:miter;"/>
    </g>
    <g id="line2d_13">
     <path d="M 63 158.538437 
L 83 158.538437 
" style="fill:none;stroke:#0000ff;stroke-linecap:square;stroke-width:1.5;"/>
    </g>
    <g id="line2d_14"/>
    <g id="text_9">
     <!-- Expt -->
     <g transform="translate(91 162.038437)scale(0.1 -0.1)">
      <defs>
       <path d="M 54.890625 54.6875 
L 35.109375 28.078125 
L 55.90625 0 
L 45.3125 0 
L 29.390625 21.484375 
L 13.484375 0 
L 2.875 0 
L 24.125 28.609375 
L 4.6875 54.6875 
L 15.28125 54.6875 
L 29.78125 35.203125 
L 44.28125 54.6875 
z
" id="DejaVuSans-120"/>
       <path d="M 18.109375 8.203125 
L 18.109375 -20.796875 
L 9.078125 -20.796875 
L 9.078125 54.6875 
L 18.109375 54.6875 
L 18.109375 46.390625 
Q 20.953125 51.265625 25.265625 53.625 
Q 29.59375 56 35.59375 56 
Q 45.5625 56 51.78125 48.09375 
Q 58.015625 40.1875 58.015625 27.296875 
Q 58.015625 14.40625 51.78125 6.484375 
Q 45.5625 -1.421875 35.59375 -1.421875 
Q 29.59375 -1.421875 25.265625 0.953125 
Q 20.953125 3.328125 18.109375 8.203125 
z
M 48.6875 27.296875 
Q 48.6875 37.203125 44.609375 42.84375 
Q 40.53125 48.484375 33.40625 48.484375 
Q 26.265625 48.484375 22.1875 42.84375 
Q 18.109375 37.203125 18.109375 27.296875 
Q 18.109375 17.390625 22.1875 11.75 
Q 26.265625 6.109375 33.40625 6.109375 
Q 40.53125 6.109375 44.609375 11.75 
Q 48.6875 17.390625 48.6875 27.296875 
z
" id="DejaVuSans-112"/>
      </defs>
      <use xlink:href="#DejaVuSans-69"/>
      <use x="63.183594" xlink:href="#DejaVuSans-120"/>
      <use x="122.363281" xlink:href="#DejaVuSans-112"/>
      <use x="185.839844" xlink:href="#DejaVuSans-116"/>
     </g>
    </g>
   </g>
  </g>
  <g id="axes_2">
   <g id="patch_8">
    <path d="M 54 145.44 
L 388.8 145.44 
L 388.8 34.56 
L 54 34.56 
z
" style="fill:#ffffff;"/>
   </g>
   <g id="matplotlib.axis_3">
    <g id="xtick_7">
     <g id="line2d_15">
      <g>
       <use style="stroke:#000000;stroke-width:0.8;" x="54" xlink:href="#m42ead9bd23" y="145.44"/>
      </g>
     </g>
    </g>
    <g id="xtick_8">
     <g id="line2d_16">
      <g>
       <use style="stroke:#000000;stroke-width:0.8;" x="114.872727" xlink:href="#m42ead9bd23" y="145.44"/>
      </g>
     </g>
    </g>
    <g id="xtick_9">
     <g id="line2d_17">
      <g>
       <use style="stroke:#000000;stroke-width:0.8;" x="175.745455" xlink:href="#m42ead9bd23" y="145.44"/>
      </g>
     </g>
    </g>
    <g id="xtick_10">
     <g id="line2d_18">
      <g>
       <use style="stroke:#000000;stroke-width:0.8;" x="236.618182" xlink:href="#m42ead9bd23" y="145.44"/>
      </g>
     </g>
    </g>
    <g id="xtick_11">
     <g id="line2d_19">
      <g>
       <use style="stroke:#000000;stroke-width:0.8;" x="297.490909" xlink:href="#m42ead9bd23" y="145.44"/>
      </g>
     </g>
    </g>
    <g id="xtick_12">
     <g id="line2d_20">
      <g>
       <use style="stroke:#000000;stroke-width:0.8;" x="358.363636" xlink:href="#m42ead9bd23" y="145.44"/>
      </g>
     </g>
    </g>
   </g>
   <g id="matplotlib.axis_4">
    <g id="ytick_6">
     <g id="line2d_21">
      <g>
       <use style="stroke:#000000;stroke-width:0.8;" x="54" xlink:href="#mcad4e7a603" y="123.264"/>
      </g>
     </g>
    </g>
    <g id="ytick_7">
     <g id="line2d_22">
      <g>
       <use style="stroke:#000000;stroke-width:0.8;" x="54" xlink:href="#mcad4e7a603" y="101.088"/>
      </g>
     </g>
    </g>
    <g id="ytick_8">
     <g id="line2d_23">
      <g>
       <use style="stroke:#000000;stroke-width:0.8;" x="54" xlink:href="#mcad4e7a603" y="78.912"/>
      </g>
     </g>
    </g>
    <g id="ytick_9">
     <g id="line2d_24">
      <g>
       <use style="stroke:#000000;stroke-width:0.8;" x="54" xlink:href="#mcad4e7a603" y="56.736"/>
      </g>
     </g>
    </g>
    <g id="ytick_10">
     <g id="line2d_25">
      <g>
       <use style="stroke:#000000;stroke-width:0.8;" x="54" xlink:href="#mcad4e7a603" y="34.56"/>
      </g>
     </g>
    </g>
   </g>
   <g id="line2d_26">
    <path clip-path="url(#p87db92790d)" d="M 53.763613 144.635692 
L 72.634158 144.243324 
L 84.808704 143.785415 
L 93.635249 143.242008 
L 100.026886 142.643459 
L 105.201067 141.944648 
L 109.157795 141.206372 
L 112.505795 140.374879 
L 115.245067 139.493494 
L 117.679977 138.500034 
L 119.810522 137.412866 
L 121.636704 136.268566 
L 123.462886 134.870554 
L 124.984704 133.459621 
L 126.506522 131.767474 
L 128.02834 129.725541 
L 129.550158 127.249189 
L 130.767613 124.888004 
L 131.985067 122.127133 
L 133.202522 118.909271 
L 134.72434 114.175129 
L 136.246158 108.636648 
L 138.376704 99.885715 
L 140.202886 92.535657 
L 141.115977 89.490528 
L 142.029067 87.220252 
L 142.637795 86.255189 
L 143.246522 85.787965 
L 143.550886 85.749631 
L 143.855249 85.842708 
L 144.463977 86.416353 
L 145.072704 87.479037 
L 145.681431 88.977857 
L 146.594522 91.888691 
L 147.811977 96.588018 
L 151.46434 111.346532 
L 152.986158 116.479454 
L 154.507977 120.802702 
L 156.029795 124.381147 
L 157.551613 127.322248 
L 159.073431 129.737404 
L 160.595249 131.72611 
L 162.117067 133.371498 
L 163.943249 134.98642 
L 165.769431 136.29357 
L 167.899977 137.519734 
L 170.030522 138.499477 
L 172.465431 139.391191 
L 175.509067 140.252217 
L 178.857067 140.964073 
L 182.813795 141.581777 
L 187.683613 142.113143 
L 193.770886 142.539808 
L 201.075613 142.820915 
L 209.902158 142.927702 
L 219.033067 142.819858 
L 227.555249 142.50755 
L 234.859977 142.023081 
L 240.642886 141.428695 
L 245.512704 140.708626 
L 249.469431 139.903485 
L 252.817431 138.998377 
L 255.556704 138.043715 
L 257.991613 136.974285 
L 260.122158 135.811685 
L 261.94834 134.595781 
L 263.774522 133.119622 
L 265.29634 131.638548 
L 266.818158 129.871653 
L 268.339977 127.750064 
L 269.861795 125.188037 
L 271.383613 122.081495 
L 272.601067 119.123878 
L 273.818522 115.67665 
L 275.34034 110.593672 
L 276.862158 104.607916 
L 278.68834 96.410082 
L 281.427613 84.028069 
L 282.340704 80.792097 
L 282.949431 79.132581 
L 283.558158 77.960904 
L 284.166886 77.332973 
L 284.471249 77.233381 
L 284.775613 77.278617 
L 285.079977 77.467714 
L 285.688704 78.26422 
L 286.297431 79.579269 
L 287.210522 82.373829 
L 288.427977 87.186349 
L 292.993431 106.727391 
L 294.515249 111.856036 
L 296.037067 116.080669 
L 297.254522 118.870072 
L 298.471977 121.200791 
L 299.689431 123.133567 
L 300.906886 124.723273 
L 302.12434 126.017001 
L 303.646158 127.276718 
L 305.167977 128.194416 
L 306.689795 128.814054 
L 308.211613 129.165868 
L 309.733431 129.26817 
L 311.255249 129.128538 
L 312.777067 128.744359 
L 314.298886 128.102718 
L 315.820704 127.179625 
L 317.342522 125.938539 
L 318.559977 124.682814 
L 319.777431 123.156834 
L 320.994886 121.318014 
L 322.21234 119.114298 
L 323.429795 116.483294 
L 324.647249 113.352227 
L 325.864704 109.639764 
L 327.082158 105.261586 
L 328.299613 100.1428 
L 329.821431 92.645586 
L 331.647613 82.202272 
L 334.691249 64.281689 
L 335.60434 60.126644 
L 336.213067 58.026186 
L 336.821795 56.581163 
L 337.430522 55.866073 
L 337.734886 55.796121 
L 338.039249 55.92037 
L 338.343613 56.237458 
L 338.95234 57.432138 
L 339.561067 59.321316 
L 340.474158 63.255511 
L 341.691613 69.955559 
L 346.561431 98.673437 
L 348.083249 105.673442 
L 349.605067 111.512393 
L 351.126886 116.331944 
L 352.648704 120.299149 
L 354.170522 123.570812 
L 355.69234 126.281067 
L 357.214158 128.539657 
L 358.735977 130.434432 
L 360.562158 132.324911 
L 362.38834 133.884189 
L 364.518886 135.377684 
L 366.649431 136.598859 
L 369.08434 137.73867 
L 371.823613 138.772686 
L 374.867249 139.690725 
L 378.519613 140.557078 
L 382.780704 141.335417 
L 387.954886 142.04724 
L 388.867977 142.152746 
L 388.867977 142.152746 
" style="fill:none;stroke:#0000ff;stroke-linecap:square;stroke-width:1.5;"/>
   </g>
   <g id="patch_9">
    <path d="M 54 145.44 
L 54 34.56 
" style="fill:none;stroke:#000000;stroke-linecap:square;stroke-linejoin:miter;stroke-width:0.8;"/>
   </g>
   <g id="patch_10">
    <path d="M 388.8 145.44 
L 388.8 34.56 
" style="fill:none;stroke:#000000;stroke-linecap:square;stroke-linejoin:miter;stroke-width:0.8;"/>
   </g>
   <g id="patch_11">
    <path d="M 54 145.44 
L 388.8 145.44 
" style="fill:none;stroke:#000000;stroke-linecap:square;stroke-linejoin:miter;stroke-width:0.8;"/>
   </g>
   <g id="patch_12">
    <path d="M 54 34.56 
L 388.8 34.56 
" style="fill:none;stroke:#000000;stroke-linecap:square;stroke-linejoin:miter;stroke-width:0.8;"/>
   </g>
   <g id="legend_2">
    <g id="patch_13">
     <path d="M 61 57.238125 
L 210.917188 57.238125 
Q 212.917188 57.238125 212.917188 55.238125 
L 212.917188 41.56 
Q 212.917188 39.56 210.917188 39.56 
L 61 39.56 
Q 59 39.56 59 41.56 
L 59 55.238125 
Q 59 57.238125 61 57.238125 
z
" style="fill:#ffffff;opacity:0.8;stroke:#cccccc;stroke-linejoin:miter;"/>
    </g>
    <g id="line2d_27">
     <path d="M 63 47.658437 
L 83 47.658437 
" style="fill:none;stroke:#0000ff;stroke-linecap:square;stroke-width:1.5;"/>
    </g>
    <g id="line2d_28"/>
    <g id="text_10">
     <!-- DFT overlap [+15.5 eV] -->
     <g transform="translate(91 51.158437)scale(0.1 -0.1)">
      <defs>
       <path d="M 19.671875 64.796875 
L 19.671875 8.109375 
L 31.59375 8.109375 
Q 46.6875 8.109375 53.6875 14.9375 
Q 60.6875 21.78125 60.6875 36.53125 
Q 60.6875 51.171875 53.6875 57.984375 
Q 46.6875 64.796875 31.59375 64.796875 
z
M 9.8125 72.90625 
L 30.078125 72.90625 
Q 51.265625 72.90625 61.171875 64.09375 
Q 71.09375 55.28125 71.09375 36.53125 
Q 71.09375 17.671875 61.125 8.828125 
Q 51.171875 0 30.078125 0 
L 9.8125 0 
z
" id="DejaVuSans-68"/>
       <path d="M 9.8125 72.90625 
L 51.703125 72.90625 
L 51.703125 64.59375 
L 19.671875 64.59375 
L 19.671875 43.109375 
L 48.578125 43.109375 
L 48.578125 34.8125 
L 19.671875 34.8125 
L 19.671875 0 
L 9.8125 0 
z
" id="DejaVuSans-70"/>
       <path d="M -0.296875 72.90625 
L 61.375 72.90625 
L 61.375 64.59375 
L 35.5 64.59375 
L 35.5 0 
L 25.59375 0 
L 25.59375 64.59375 
L -0.296875 64.59375 
z
" id="DejaVuSans-84"/>
       <path d="M 2.984375 54.6875 
L 12.5 54.6875 
L 29.59375 8.796875 
L 46.6875 54.6875 
L 56.203125 54.6875 
L 35.6875 0 
L 23.484375 0 
z
" id="DejaVuSans-118"/>
       <path d="M 9.421875 75.984375 
L 18.40625 75.984375 
L 18.40625 0 
L 9.421875 0 
z
" id="DejaVuSans-108"/>
       <path d="M 46 62.703125 
L 46 35.5 
L 73.1875 35.5 
L 73.1875 27.203125 
L 46 27.203125 
L 46 0 
L 37.796875 0 
L 37.796875 27.203125 
L 10.59375 27.203125 
L 10.59375 35.5 
L 37.796875 35.5 
L 37.796875 62.703125 
z
" id="DejaVuSans-43"/>
      </defs>
      <use xlink:href="#DejaVuSans-68"/>
      <use x="77.001953" xlink:href="#DejaVuSans-70"/>
      <use x="132.771484" xlink:href="#DejaVuSans-84"/>
      <use x="193.855469" xlink:href="#DejaVuSans-32"/>
      <use x="225.642578" xlink:href="#DejaVuSans-111"/>
      <use x="286.824219" xlink:href="#DejaVuSans-118"/>
      <use x="346.003906" xlink:href="#DejaVuSans-101"/>
      <use x="407.527344" xlink:href="#DejaVuSans-114"/>
      <use x="448.640625" xlink:href="#DejaVuSans-108"/>
      <use x="476.423828" xlink:href="#DejaVuSans-97"/>
      <use x="537.703125" xlink:href="#DejaVuSans-112"/>
      <use x="601.179688" xlink:href="#DejaVuSans-32"/>
      <use x="632.966797" xlink:href="#DejaVuSans-91"/>
      <use x="671.980469" xlink:href="#DejaVuSans-43"/>
      <use x="755.769531" xlink:href="#DejaVuSans-49"/>
      <use x="819.392578" xlink:href="#DejaVuSans-53"/>
      <use x="883.015625" xlink:href="#DejaVuSans-46"/>
      <use x="914.802734" xlink:href="#DejaVuSans-53"/>
      <use x="978.425781" xlink:href="#DejaVuSans-32"/>
      <use x="1010.212891" xlink:href="#DejaVuSans-101"/>
      <use x="1071.736328" xlink:href="#DejaVuSans-86"/>
      <use x="1140.144531" xlink:href="#DejaVuSans-93"/>
     </g>
    </g>
   </g>
  </g>
 </g>
 <defs>
  <clipPath id="p9336e4337f">
   <rect height="110.88" width="334.8" x="54" y="145.44"/>
  </clipPath>
  <clipPath id="p87db92790d">
   <rect height="110.88" width="334.8" x="54" y="34.56"/>
  </clipPath>
 </defs>
</svg>
