<?xml version="1.0" encoding="UTF-8" standalone="no"?>
<!-- Created with Inkscape (http://www.inkscape.org/) -->

<svg
   width="157.02373mm"
   height="60.035049mm"
   viewBox="0 0 157.02373 60.03505"
   version="1.1"
   id="svg965"
   inkscape:version="1.1 (ce6663b3b7, 2021-05-25)"
   sodipodi:docname="rel_vs_corr.svg"
   xmlns:inkscape="http://www.inkscape.org/namespaces/inkscape"
   xmlns:sodipodi="http://sodipodi.sourceforge.net/DTD/sodipodi-0.dtd"
   xmlns="http://www.w3.org/2000/svg"
   xmlns:svg="http://www.w3.org/2000/svg">
  <sodipodi:namedview
     id="namedview967"
     pagecolor="#ffffff"
     bordercolor="#666666"
     borderopacity="1.0"
     inkscape:pageshadow="2"
     inkscape:pageopacity="0.0"
     inkscape:pagecheckerboard="0"
     inkscape:document-units="mm"
     showgrid="false"
     fit-margin-top="3"
     fit-margin-left="3"
     fit-margin-right="3"
     fit-margin-bottom="3"
     inkscape:zoom="0.75266541"
     inkscape:cx="286.98011"
     inkscape:cy="297.609"
     inkscape:window-width="1516"
     inkscape:window-height="999"
     inkscape:window-x="404"
     inkscape:window-y="51"
     inkscape:window-maximized="0"
     inkscape:current-layer="layer1" />
  <defs
     id="defs962" />
  <g
     inkscape:label="Layer 1"
     inkscape:groupmode="layer"
     id="layer1"
     transform="translate(-40.529472,-28.435874)">
    <rect
       style="fill:none;stroke:#000000;stroke-width:0.18203;stroke-linecap:square"
       id="rect1134"
       width="72.773605"
       height="40.990891"
       x="43.620487"
       y="39.625641" />
    <text
       xml:space="preserve"
       style="font-size:4.23333px;line-height:1.25;font-family:sans-serif;word-spacing:0px;stroke-width:0.264583"
       x="75.604584"
       y="85.470924"
       id="text1680-73"><tspan
         sodipodi:role="line"
         id="tspan1678-6"
         style="font-size:4.23333px;stroke-width:0.264583"
         x="75.604584"
         y="85.470924">Z</tspan></text>
    <text
       xml:space="preserve"
       style="font-size:4.23333px;line-height:1.25;font-family:sans-serif;word-spacing:0px;stroke-width:0.264583"
       x="156.77104"
       y="85.352638"
       id="text1680-73-3"><tspan
         sodipodi:role="line"
         id="tspan1678-6-9"
         style="font-size:4.23333px;stroke-width:0.264583"
         x="156.77104"
         y="85.352638">Z</tspan></text>
    <text
       xml:space="preserve"
       style="font-size:4.23333px;line-height:1.25;font-family:sans-serif;word-spacing:0px;stroke-width:0.264583"
       x="74.432739"
       y="35.916203"
       id="text1680-73-3-4"><tspan
         sodipodi:role="line"
         id="tspan1678-6-9-8"
         style="font-size:4.23333px;stroke-width:0.264583"
         x="74.432739"
         y="35.916203">total</tspan></text>
    <text
       xml:space="preserve"
       style="font-size:4.23333px;line-height:1.25;font-family:sans-serif;word-spacing:0px;stroke-width:0.264583"
       x="47.036263"
       y="45.178024"
       id="text1680-73-3-4-6"><tspan
         sodipodi:role="line"
         id="tspan1678-6-9-8-73"
         style="font-size:4.23333px;stroke-width:0.264583"
         x="47.036263"
         y="45.178024">rel</tspan></text>
    <text
       xml:space="preserve"
       style="font-size:4.23333px;line-height:1.25;font-family:sans-serif;word-spacing:0px;fill:#ff0000;stroke-width:0.264583"
       x="48.185112"
       y="52.675537"
       id="text1680-73-3-4-6-6"><tspan
         sodipodi:role="line"
         id="tspan1678-6-9-8-73-5"
         style="font-size:4.23333px;fill:#ff0000;stroke-width:0.264583"
         x="48.185112"
         y="52.675537">corr</tspan></text>
    <text
       xml:space="preserve"
       style="font-size:4.23333px;line-height:1.25;font-family:sans-serif;word-spacing:0px;stroke-width:0.264583"
       x="153.07571"
       y="34.521988"
       id="text1680-73-3-4-7"><tspan
         sodipodi:role="line"
         id="tspan1678-6-9-8-7"
         style="font-size:4.23333px;stroke-width:0.264583"
         x="153.07571"
         y="34.521988">1s</tspan></text>
    <rect
       style="fill:none;stroke:#000000;stroke-width:0.18203;stroke-linecap:square"
       id="rect1134-6"
       width="72.773605"
       height="40.990891"
       x="121.68858"
       y="39.622791" />
    <path
       style="fill:none;stroke:#ff0000;stroke-width:0.264583px;stroke-linecap:butt;stroke-linejoin:miter;stroke-opacity:1"
       d="m 43.620487,80.616531 c 6.749735,-1.997609 13.682526,-3.005452 20.380997,-5.267901 2.680078,-0.905214 5.094975,-2.477873 7.741436,-3.477117 2.413182,-0.911162 5.162378,-1.176523 7.282307,-2.801811 1.533183,-1.175446 1.702101,-2.215438 3.209607,-3.668125 2.177555,-2.098368 5.018598,-3.603385 6.786041,-6.144098 1.710188,-2.458409 1.636202,-5.550507 2.567676,-8.344983 1.122661,-3.36805 2.384277,-7.191326 2.384277,-9.720532"
       id="path6496" />
    <path
       style="fill:none;stroke:#ff0000;stroke-width:0.264583px;stroke-linecap:butt;stroke-linejoin:miter;stroke-opacity:1"
       d="m 121.68858,80.613677 c 7.61214,0.476964 14.28908,-1.441906 20.17588,-6.180088 2.13213,-1.716108 4.48072,-2.655144 6.23581,-4.86026 1.46679,-1.842882 3.58414,-4.955212 4.40175,-7.244546 0.46186,-1.293235 0.74275,-2.72285 1.37554,-3.943227 0.67167,-1.295378 1.29286,-2.776419 2.01747,-4.03494 0.38329,-0.66572 1.30718,-1.619964 1.55894,-2.475975 0.70523,-2.397826 -1.30969,2.094966 0,-1.834068 -0.27153,-0.905266 0.87444,-1.02919 1.10044,-1.650654 0.62744,-1.725406 1.14545,-4.446822 2.29259,-5.593892"
       id="path6498" />
    <path
       style="fill:none;stroke:#000000;stroke-width:0.264583px;stroke-linecap:butt;stroke-linejoin:miter;stroke-opacity:1"
       d="M 43.620487,80.616531 C 48.58262,78.761895 53.960298,77.71805 58.78492,75.49192 c 0.892097,-0.411623 1.747775,-1.547392 2.7511,-1.834057 2.114476,-0.604137 4.250028,-1.03577 6.235811,-2.109171 2.228151,-1.20441 4.036753,-3.945059 5.777285,-5.685594 0.808512,-0.808511 3.351906,-1.239565 4.585169,-1.650654 0.675113,-0.225038 5.502177,-7.38428 7.336247,-8.344981 2.58005,-1.351454 4.774748,-2.440068 7.061121,-4.218342 0.929621,-0.723032 1.637273,-2.340869 2.384298,-3.301309 1.198036,-1.540301 3.072696,-2.793779 4.585147,-3.943238 0.884552,-0.672261 1.817282,-1.981323 2.751102,-2.292573"
       id="path6664" />
    <path
       style="fill:none;stroke:#000000;stroke-width:0.264583px;stroke-linecap:butt;stroke-linejoin:miter;stroke-opacity:1"
       d="m 121.68858,80.613677 c 3.78496,-1.083086 7.71676,-0.11814 11.54071,-0.503365 6.06618,-0.611105 13.79624,-1.762141 19.44266,-4.585351 2.428,-1.214003 4.47406,-3.277507 6.78604,-4.676859 1.88261,-1.139468 3.31049,-1.368595 5.13537,-2.75109 1.54038,-1.166956 2.80603,-3.017925 4.21834,-4.310042 2.27993,-2.085899 9.03889,-7.322474 10.82096,-9.995637"
       id="path6666" />
  </g>
</svg>
