<?xml version="1.0" encoding="UTF-8" standalone="no"?>
<svg
   xmlns:dc="http://purl.org/dc/elements/1.1/"
   xmlns:cc="http://creativecommons.org/ns#"
   xmlns:rdf="http://www.w3.org/1999/02/22-rdf-syntax-ns#"
   xmlns:svg="http://www.w3.org/2000/svg"
   xmlns="http://www.w3.org/2000/svg"
   viewBox="0 0 2448.5957 1259.1414"
   height="1259.1414"
   width="2448.5957"
   xml:space="preserve"
   id="svg2"
   version="1.1"><metadata
     id="metadata8"><rdf:RDF><cc:Work
         rdf:about=""><dc:format>image/svg+xml</dc:format><dc:type
           rdf:resource="http://purl.org/dc/dcmitype/StillImage" /></cc:Work></rdf:RDF></metadata><defs
     id="defs6"><clipPath
       id="clipPath14"
       clipPathUnits="userSpaceOnUse"><path
         id="path12"
         d="M 0,0 H 1920 V 1080 H 0 Z" /></clipPath><clipPath
       id="clipPath24"
       clipPathUnits="userSpaceOnUse"><path
         id="path22"
         d="M 0,0 H 1920 V 1080 H 0 Z" /></clipPath><clipPath
       id="clipPath38"
       clipPathUnits="userSpaceOnUse"><path
         id="path36"
         d="M 0,0 H 1920 V 1080 H 0 Z" /></clipPath><clipPath
       id="clipPath44"
       clipPathUnits="userSpaceOnUse"><path
         id="path42"
         d="M 171,172.8956 H 531.9137 V 660 H 171 Z" /></clipPath><clipPath
       id="clipPath48"
       clipPathUnits="userSpaceOnUse"><path
         id="path46"
         d="M 171,172.8953 H 531.9137 V 660 H 171 Z" /></clipPath><clipPath
       id="clipPath152"
       clipPathUnits="userSpaceOnUse"><path
         id="path150"
         d="M 292.8962,706.8533 H 405.327 v 57.09462 H 292.8962 Z" /></clipPath><clipPath
       id="clipPath166"
       clipPathUnits="userSpaceOnUse"><path
         id="path164"
         d="m 331.3314,719.4322 h 38.03047 v 31.93693 H 331.3314 Z" /></clipPath><clipPath
       id="clipPath192"
       clipPathUnits="userSpaceOnUse"><path
         id="path190"
         d="M 0,0 H 1920 V 1080 H 0 Z" /></clipPath></defs><g
     clip-path="url(#clipPath14)"
     transform="matrix(1.3333333,0,0,-1.3333333,-111.40443,1286.6467)"
     id="g10"><g
       id="g16" /><g
       id="g18"><g
         clip-path="url(#clipPath24)"
         id="g20"><path
           id="path26"
           style="fill:#ffffff;fill-opacity:1;fill-rule:nonzero;stroke:none"
           d="M 0,0 H 1920 V 1080 H 0 Z" /><g
           transform="matrix(-1,0,0,1,481.7107,90.60673)"
           id="g28"><path
             id="path30"
             style="fill:none;stroke:#000000;stroke-width:2;stroke-linecap:butt;stroke-linejoin:miter;stroke-miterlimit:4;stroke-dasharray:none;stroke-opacity:1"
             d="M 0,0 H 67.53396" /></g></g></g><g
       id="g32"><g
         clip-path="url(#clipPath38)"
         id="g34"><g
           id="g40" /><g
           id="g64"><g
             style="opacity:0.25069999"
             id="g62"
             clip-path="url(#clipPath44)"><g
               id="g50" /><g
               id="g60"><g
                 id="g58"
                 clip-path="url(#clipPath48)"><path
                   id="path52"
                   style="fill:#e22146;fill-opacity:1;fill-rule:nonzero;stroke:none"
                   d="M 252.5292,656.1642 H 445.694 c 22.9536,0 36.7257,0 45.9071,-3.8331 13.2358,-4.8174 23.6621,-15.2438 28.4796,-28.4796 3.8331,-9.1814 3.8331,-22.9535 3.8331,-45.907 V 259.1154 c 0,-22.9536 0,-36.7257 -3.8331,-45.9071 -4.8175,-13.2358 -15.2438,-23.6621 -28.4796,-28.4796 -9.1814,-3.8331 -22.9535,-3.8331 -45.9071,-3.8331 H 252.5292 c -22.9535,0 -36.7256,0 -45.907,3.8331 -13.2358,4.8175 -23.6622,15.2438 -28.4796,28.4796 -3.8331,9.1814 -3.8331,22.9535 -3.8331,45.9071 v 318.8291 c 0,22.9535 0,36.7256 3.8331,45.907 4.8174,13.2358 15.2438,23.6622 28.4796,28.4796 9.1814,3.8331 22.9535,3.8331 45.907,3.8331 z" /><g
                   id="g56"
                   transform="matrix(1,0,0,-1,174.3095,656.1642)"><path
                     id="path54"
                     style="fill:none;stroke:#000000;stroke-width:4;stroke-linecap:butt;stroke-linejoin:miter;stroke-miterlimit:4;stroke-dasharray:8, 8;stroke-dashoffset:0;stroke-opacity:1"
                     d="M 78.21977,0 H 271.3846 c 22.9535,0 36.7256,0 45.907,3.833117 13.2358,4.817437 23.6622,15.243783 28.4796,28.479583 3.8331,9.18142 3.8331,22.95354 3.8331,45.90707 V 397.0488 c 0,22.9536 0,36.7257 -3.8331,45.9071 -4.8174,13.2358 -15.2438,23.6622 -28.4796,28.4796 -9.1814,3.8331 -22.9535,3.8331 -45.907,3.8331 H 78.21977 c -22.95353,0 -36.72565,0 -45.90707,-3.8331 C 19.0769,466.6181 8.650554,456.1917 3.833117,442.9559 0,433.7745 0,420.0024 0,397.0488 V 78.21977 C 0,55.26624 0,41.49412 3.833117,32.3127 8.650554,19.0769 19.0769,8.650554 32.3127,3.833117 41.49412,0 55.26624,0 78.21977,0 Z" /></g></g></g></g></g><g
           transform="matrix(0,1,1,0,349.1116,249.5463)"
           id="g66"><path
             id="path68"
             style="fill:none;stroke:#000000;stroke-width:2;stroke-linecap:butt;stroke-linejoin:miter;stroke-miterlimit:4;stroke-dasharray:none;stroke-opacity:1"
             d="M 0,0 H 74.49022" /></g><g
           transform="matrix(0,1,1,0,349.1116,379.5541)"
           id="g70"><path
             id="path72"
             style="fill:none;stroke:#000000;stroke-width:2;stroke-linecap:butt;stroke-linejoin:miter;stroke-miterlimit:4;stroke-dasharray:none;stroke-opacity:1"
             d="M 0,0 H 74.49022" /></g><g
           transform="matrix(0,1,1,0,349.1116,507.1377)"
           id="g74"><path
             id="path76"
             style="fill:none;stroke:#000000;stroke-width:2;stroke-linecap:butt;stroke-linejoin:miter;stroke-miterlimit:4;stroke-dasharray:none;stroke-opacity:1"
             d="M 0,0 H 74.49022" /></g><g
           transform="matrix(0,1,1,0,349.1116,634.7214)"
           id="g78"><path
             id="path80"
             style="fill:none;stroke:#000000;stroke-width:2;stroke-linecap:butt;stroke-linejoin:miter;stroke-miterlimit:4;stroke-dasharray:none;stroke-opacity:1"
             d="M 0,0 H 74.49022" /></g><path
           id="path82"
           style="fill:#2657af;fill-opacity:1;fill-rule:nonzero;stroke:none"
           d="m 273.4588,579.0217 h 151.3055 v 66.61578 H 273.4588 Z" /><g
           transform="matrix(1,0,0,-1,273.4588,645.6375)"
           id="g84"><path
             id="path86"
             style="fill:none;stroke:#000000;stroke-width:1;stroke-linecap:butt;stroke-linejoin:miter;stroke-miterlimit:4;stroke-dasharray:none;stroke-opacity:1"
             d="M 0,0 H 151.3055 V 66.61578 H 0 Z" /></g><g
           transform="matrix(-1,0,0,1,664.1143,735.4007)"
           id="g88"><path
             id="path90"
             style="fill:none;stroke:#000000;stroke-width:2;stroke-linecap:butt;stroke-linejoin:miter;stroke-miterlimit:4;stroke-dasharray:none;stroke-opacity:1"
             d="M 0,0 H 67.53396" /></g><g
           transform="matrix(-1,0,0,1,455.2859,735.4007)"
           id="g92"><path
             id="path94"
             style="fill:none;stroke:#000000;stroke-width:2;stroke-linecap:butt;stroke-linejoin:miter;stroke-miterlimit:4;stroke-dasharray:none;stroke-opacity:1"
             d="M 0,0 H 67.53396" /></g><g
           transform="matrix(-1,0,0,1,348.9273,825.7813)"
           id="g96"><path
             id="path98"
             style="fill:none;stroke:#000000;stroke-width:2;stroke-linecap:butt;stroke-linejoin:miter;stroke-miterlimit:4;stroke-dasharray:none;stroke-opacity:1"
             d="M 0,0 H 110.7883" /></g><path
           id="path100"
           style="fill:#7caded;fill-opacity:1;fill-rule:nonzero;stroke:none"
           d="m 273.4588,889.7909 h 151.3055 v 66.61578 H 273.4588 Z" /><g
           transform="matrix(1,0,0,-1,273.4588,956.4067)"
           id="g102"><path
             id="path104"
             style="fill:none;stroke:#000000;stroke-width:1;stroke-linecap:butt;stroke-linejoin:miter;stroke-miterlimit:4;stroke-dasharray:none;stroke-opacity:1"
             d="M 0,0 H 151.3055 V 66.61578 H 0 Z" /></g><g
           transform="translate(290.6566,934.0933)"
           id="g106"><text
             id="text110"
             style="font-variant:normal;font-weight:600;font-size:15px;font-family:Graphik;-inkscape-font-specification:Graphik-Semibold;writing-mode:lr-tb;fill:#ffffff;fill-opacity:1;fill-rule:nonzero;stroke:none"
             transform="scale(1,-1)"><tspan
               id="tspan108"
               y="0"
               x="0 4.875 14.1 18.315001 23.969999 28.184999 36.645 40.845001 44.174999 58.02 67.260002 71.459999 80.264999 88.934998 98.114998 102.315 110.775 116.91">Initial molecular </tspan></text>
</g><g
           transform="translate(283.1116,916.0783)"
           id="g112"><text
             id="text116"
             style="font-variant:normal;font-weight:600;font-size:15px;font-family:Graphik;-inkscape-font-specification:Graphik-Semibold;writing-mode:lr-tb;fill:#ffffff;fill-opacity:1;fill-rule:nonzero;stroke:none"
             transform="scale(1,-1)"><tspan
               id="tspan114"
               y="0"
               x="0 9.2250004 18.405001 27.075001 31.275 40.080002 44.294998 47.625 57.18 61.395 68.925003 74.580002 80.714996 84.93 94.485001 103.665 109.32 113.535 122.775 132">nuclei distribution </tspan></text>
</g><g
           transform="translate(299.1616,898.0633)"
           id="g118"><text
             id="text122"
             style="font-variant:normal;font-weight:600;font-size:15px;font-family:Graphik;-inkscape-font-specification:Graphik-Semibold;writing-mode:lr-tb;fill:#ffffff;fill-opacity:1;fill-rule:nonzero;stroke:none"
             transform="scale(1,-1)"><tspan
               id="tspan120"
               y="0"
               x="0 4.2150002 13.44 16.77 27.99 40.23 53.895 57.224998 62.790001 68.790001 77.25 91.095001">in COM frame</tspan></text>
</g><g
           transform="matrix(0,1,1,0,349.1116,762.305)"
           id="g124"><path
             id="path126"
             style="fill:none;stroke:#000000;stroke-width:2;stroke-linecap:butt;stroke-linejoin:miter;stroke-miterlimit:4;stroke-dasharray:none;stroke-opacity:1"
             d="M 0,0 H 126.9526" /></g><path
           id="path128"
           style="fill:#7caded;fill-opacity:1;fill-rule:nonzero;stroke:none"
           d="m 94.13776,792.4734 h 151.3055 v 66.61578 H 94.13776 Z" /><g
           transform="matrix(1,0,0,-1,94.13776,859.0892)"
           id="g130"><path
             id="path132"
             style="fill:none;stroke:#000000;stroke-width:1;stroke-linecap:butt;stroke-linejoin:miter;stroke-miterlimit:4;stroke-dasharray:none;stroke-opacity:1"
             d="M 0,0 H 151.3055 V 66.61578 H 0 Z" /></g><g
           transform="translate(97.72303,827.8765)"
           id="g134"><text
             id="text138"
             style="font-variant:normal;font-weight:600;font-size:15px;font-family:Graphik;-inkscape-font-specification:Graphik-Semibold;writing-mode:lr-tb;fill:#ffffff;fill-opacity:1;fill-rule:nonzero;stroke:none"
             transform="scale(1,-1)"><tspan
               id="tspan136"
               y="0"
               x="0 11.22 20.445 29.684999 38.955002 46.514999 55.32 58.650002 67.110001 76.334999 79.665001 87.900002 96.239998 104.7 108.915 113.115 121.575 131.13 135.33 144.13499">Choose an available </tspan></text>
</g><g
           transform="translate(127.423,809.8615)"
           id="g140"><text
             id="text144"
             style="font-variant:normal;font-weight:600;font-size:15px;font-family:Graphik;-inkscape-font-specification:Graphik-Semibold;writing-mode:lr-tb;fill:#ffffff;fill-opacity:1;fill-rule:nonzero;stroke:none"
             transform="scale(1,-1)"><tspan
               id="tspan142"
               y="0"
               x="0 9.5550003 18.795 23.01 32.235001 37.889999 41.220001 50.759998 56.759998 66 75.18">point group</tspan></text>
</g></g></g><g
       id="g146"><g
         clip-path="url(#clipPath152)"
         id="g148"><path
           id="path154"
           style="fill:#ffe46d;fill-opacity:1;fill-rule:nonzero;stroke:none"
           d="m 349.1116,762.3892 -54.0954,-26.9886 54.0954,-26.9885 54.0954,26.9885 z" /><g
           transform="matrix(1,0,0,-1,295.0162,762.3892)"
           id="g156"><path
             id="path158"
             style="fill:none;stroke:#000000;stroke-width:1;stroke-linecap:butt;stroke-linejoin:miter;stroke-miterlimit:4;stroke-dasharray:none;stroke-opacity:1"
             d="M 54.0954,0 0,26.98854 54.0954,53.97707 108.1908,26.98854 Z" /></g></g></g><g
       id="g160"><g
         clip-path="url(#clipPath166)"
         id="g162"><g
           transform="translate(339.9516,729.5891)"
           id="g168"><text
             id="text172"
             style="font-variant:normal;font-weight:normal;font-size:14px;font-family:Graphik;-inkscape-font-specification:Graphik-Regular;writing-mode:lr-tb;fill:#000000;fill-opacity:1;fill-rule:nonzero;stroke:none"
             transform="scale(1,-1)"><tspan
               id="tspan170"
               y="0"
               x="0">C</tspan></text>
</g><g
           transform="translate(339.9516,729.5891)"
           id="g174"><text
             id="text178"
             style="font-variant:normal;font-weight:normal;font-size:9.33333397px;font-family:Graphik;-inkscape-font-specification:Graphik-Regular;writing-mode:lr-tb;fill:#000000;fill-opacity:1;fill-rule:nonzero;stroke:none"
             transform="matrix(1,0,0,-1,10.22,-1.026669)"><tspan
               id="tspan176"
               y="0"
               x="0">1</tspan></text>
</g><g
           transform="translate(339.9516,729.5891)"
           id="g180"><text
             id="text184"
             style="font-variant:normal;font-weight:normal;font-size:14px;font-family:Graphik;-inkscape-font-specification:Graphik-Regular;writing-mode:lr-tb;fill:#000000;fill-opacity:1;fill-rule:nonzero;stroke:none"
             transform="matrix(1,0,0,-1,13.944,0)"><tspan
               id="tspan182"
               y="0"
               x="0">?</tspan></text>
</g></g></g><g
       id="g186"><g
         clip-path="url(#clipPath192)"
         id="g188"><path
           id="path194"
           style="fill:#2657af;fill-opacity:1;fill-rule:nonzero;stroke:none"
           d="m 452.7799,702.0928 h 151.3055 v 66.61578 H 452.7799 Z" /><g
           transform="matrix(1,0,0,-1,452.7799,768.7086)"
           id="g196"><path
             id="path198"
             style="fill:none;stroke:#000000;stroke-width:1;stroke-linecap:butt;stroke-linejoin:miter;stroke-miterlimit:4;stroke-dasharray:none;stroke-opacity:1"
             d="M 0,0 H 151.3055 V 66.61578 H 0 Z" /></g><g
           transform="translate(467.6151,737.4959)"
           id="g200"><text
             id="text204"
             style="font-variant:normal;font-weight:600;font-size:15px;font-family:Graphik;-inkscape-font-specification:Graphik-Semibold;writing-mode:lr-tb;fill:#ffffff;fill-opacity:1;fill-rule:nonzero;stroke:none"
             transform="scale(1,-1)"><tspan
               id="tspan202"
               y="0"
               x="0 9.6300001 18.434999 24.09 27.42 36.09 45.330002 54.375 62.610001 71.415001 80.639999 86.294998 90.510002 99.75 108.975 117.435 121.635">Set conventional </tspan></text>
</g><g
           transform="translate(488.3901,719.4809)"
           id="g206"><text
             id="text210"
             style="font-variant:normal;font-weight:600;font-size:15px;font-family:Graphik;-inkscape-font-specification:Graphik-Semibold;writing-mode:lr-tb;fill:#ffffff;fill-opacity:1;fill-rule:nonzero;stroke:none"
             transform="scale(1,-1)"><tspan
               id="tspan208"
               y="0"
               x="0 9.2399998 15.375 19.59 28.395 37.619999 43.32 51.75 57.404999 61.619999 70.860001">orientation</tspan></text>
</g><path
           id="path212"
           style="fill:#d5d5d5;fill-opacity:1;fill-rule:nonzero;stroke:none"
           d="m 679.7377,778.5266 h 100.3817 c 5.8037,0 9.2859,0 11.6074,-0.9692 3.3466,-1.2181 5.9829,-3.8543 7.2009,-7.201 0.9692,-2.3214 0.9692,-5.8037 0.9692,-11.6074 v -46.6968 c 0,-5.8037 0,-9.2859 -0.9692,-11.6074 -1.218,-3.3466 -3.8543,-5.9828 -7.2009,-7.2009 -2.3215,-0.9692 -5.8037,-0.9692 -11.6074,-0.9692 H 679.7377 c -5.8037,0 -9.2859,0 -11.6074,0.9692 -3.3466,1.2181 -5.9829,3.8543 -7.201,7.2009 -0.9692,2.3215 -0.9692,5.8037 -0.9692,11.6074 v 46.6968 c 0,5.8037 0,9.286 0.9692,11.6074 1.2181,3.3467 3.8544,5.9829 7.201,7.201 2.3215,0.9692 5.8037,0.9692 11.6074,0.9692 z" /><g
           transform="translate(689.8261,737.4959)"
           id="g214"><text
             id="text218"
             style="font-variant:normal;font-weight:600;font-size:15px;font-family:Graphik;-inkscape-font-specification:Graphik-Semibold;writing-mode:lr-tb;fill:#000000;fill-opacity:1;fill-rule:nonzero;stroke:none"
             transform="scale(1,-1)"><tspan
               id="tspan216"
               y="0"
               x="0 9.7650003 18.57 27.809999 33.945 38.16 46.965 56.189999 61.845001 70.650002 80.205002">Reoriented </tspan></text>
</g><g
           transform="translate(673.6411,719.4809)"
           id="g220"><text
             id="text224"
             style="font-variant:normal;font-weight:600;font-size:15px;font-family:Graphik;-inkscape-font-specification:Graphik-Semibold;writing-mode:lr-tb;fill:#000000;fill-opacity:1;fill-rule:nonzero;stroke:none"
             transform="scale(1,-1)"><tspan
               id="tspan222"
               y="0"
               x="0 13.845 23.084999 27.285 36.09 44.759998 53.939999 58.139999 66.945 70.275002 77.805 83.459999 89.595001 93.809998 103.035">molecule string</tspan></text>
</g><g
           transform="translate(396.387,747.0837)"
           id="g226"><text
             id="text230"
             style="font-variant:normal;font-weight:normal;font-size:15px;font-family:CanelaText;-inkscape-font-specification:CanelaText-Regular;writing-mode:lr-tb;fill:#000000;fill-opacity:1;fill-rule:nonzero;stroke:none"
             transform="scale(1,-1)"><tspan
               id="tspan228"
               y="0"
               x="0">Y</tspan></text>
</g><g
           transform="translate(293.4616,623.3242)"
           id="g232"><text
             id="text236"
             style="font-variant:normal;font-weight:600;font-size:15px;font-family:Graphik;-inkscape-font-specification:Graphik-Semibold;writing-mode:lr-tb;fill:#ffffff;fill-opacity:1;fill-rule:nonzero;stroke:none"
             transform="scale(1,-1)"><tspan
               id="tspan234"
               y="0"
               x="0 9.7650003 18.57 24.225 30.360001 34.575001 43.185001 51.419998 60.224998 63.555 71.114998 79.919998 85.635002 93.165001 96.495003 105.735 111.3">Retrieve sets of </tspan></text>
</g><g
           transform="translate(280.1566,605.3092)"
           id="g238"><text
             id="text242"
             style="font-variant:normal;font-weight:600;font-size:15px;font-family:Graphik;-inkscape-font-specification:Graphik-Semibold;writing-mode:lr-tb;fill:#ffffff;fill-opacity:1;fill-rule:nonzero;stroke:none"
             transform="scale(1,-1)"><tspan
               id="tspan240"
               y="0"
               x="0 4.2150002 13.44 22.245001 31.799999 40.98 45.195 53.535 61.994999 66.195 75 84.224998 89.879997 93.209999 101.64 107.295 116.535 130.38 137.91">inequivalent atoms </tspan></text>
</g><g
           transform="translate(282.6691,587.2942)"
           id="g244"><text
             id="text248"
             style="font-variant:normal;font-weight:600;font-size:15px;font-family:Graphik;-inkscape-font-specification:Graphik-Semibold;writing-mode:lr-tb;fill:#ffffff;fill-opacity:1;fill-rule:nonzero;stroke:none"
             transform="scale(1,-1)"><tspan
               id="tspan246"
               y="0"
               x="0 5.25 14.49 20.625 23.955 32.834999 41.294998 49.965 59.189999 62.52 71.760002 81.315002 90.120003 96.120003 104.55 110.205 114.42 123.66 132.88499">for each operation </tspan></text>
</g><g
           transform="translate(326.8826,685.8881)"
           id="g250"><text
             id="text254"
             style="font-variant:normal;font-weight:normal;font-size:15px;font-family:CanelaText;-inkscape-font-specification:CanelaText-Regular;writing-mode:lr-tb;fill:#000000;fill-opacity:1;fill-rule:nonzero;stroke:none"
             transform="scale(1,-1)"><tspan
               id="tspan252"
               y="0"
               x="0">N</tspan></text>
</g><g
           transform="matrix(0,1,1,0,349.1116,124.3868)"
           id="g256"><path
             id="path258"
             style="fill:none;stroke:#000000;stroke-width:2;stroke-linecap:butt;stroke-linejoin:miter;stroke-miterlimit:4;stroke-dasharray:none;stroke-opacity:1"
             d="M 0,0 H 74.49022" /></g><path
           id="path260"
           style="fill:#2657af;fill-opacity:1;fill-rule:nonzero;stroke:none"
           d="m 273.4588,451.8378 h 151.3055 v 66.61578 H 273.4588 Z" /><g
           transform="matrix(1,0,0,-1,273.4588,518.4536)"
           id="g262"><path
             id="path264"
             style="fill:none;stroke:#000000;stroke-width:1;stroke-linecap:butt;stroke-linejoin:miter;stroke-miterlimit:4;stroke-dasharray:none;stroke-opacity:1"
             d="M 0,0 H 151.3055 V 66.61578 H 0 Z" /></g><g
           transform="translate(278.0791,496.1403)"
           id="g266"><text
             id="text270"
             style="font-variant:normal;font-weight:600;font-size:15px;font-family:Graphik;-inkscape-font-specification:Graphik-Semibold;writing-mode:lr-tb;fill:#ffffff;fill-opacity:1;fill-rule:nonzero;stroke:none"
             transform="scale(1,-1)"><tspan
               id="tspan268"
               y="0"
               x="0 10.8 20.355 29.91 34.110001 42.615002 45.945 55.185001 64.739998 73.544998 79.544998 87.974998 93.629997 97.845001 107.085 116.31 123.84 127.17 132.825 142.065">Apply operations to </tspan></text>
</g><g
           transform="translate(282.0991,478.1253)"
           id="g272"><text
             id="text276"
             style="font-variant:normal;font-weight:600;font-size:15px;font-family:Graphik;-inkscape-font-specification:Graphik-Semibold;writing-mode:lr-tb;fill:#ffffff;fill-opacity:1;fill-rule:nonzero;stroke:none"
             transform="scale(1,-1)"><tspan
               id="tspan274"
               y="0"
               x="0 5.6550002 14.88 23.684999 27.014999 35.685001 44.924999 51.060001 57.060001 65.940002 73.470001 83.025002 92.264999 101.49 111.045 115.26 124.485 134.02499">the corresponding </tspan></text>
</g><g
           transform="translate(314.0566,460.1103)"
           id="g278"><text
             id="text282"
             style="font-variant:normal;font-weight:600;font-size:15px;font-family:Graphik;-inkscape-font-specification:Graphik-Semibold;writing-mode:lr-tb;fill:#ffffff;fill-opacity:1;fill-rule:nonzero;stroke:none"
             transform="scale(1,-1)"><tspan
               id="tspan280"
               y="0"
               x="0 8.4300003 14.085 23.325001 37.169998 40.5 48.060001 56.865002 62.580002 70.110001">atom sets </tspan></text>
</g><path
           id="path284"
           style="fill:#2657af;fill-opacity:1;fill-rule:nonzero;stroke:none"
           d="m 273.4588,324.6539 h 151.3055 v 66.61578 H 273.4588 Z" /><g
           transform="matrix(1,0,0,-1,273.4588,391.2697)"
           id="g286"><path
             id="path288"
             style="fill:none;stroke:#000000;stroke-width:1;stroke-linecap:butt;stroke-linejoin:miter;stroke-miterlimit:4;stroke-dasharray:none;stroke-opacity:1"
             d="M 0,0 H 151.3055 V 66.61578 H 0 Z" /></g><g
           transform="translate(282.3391,368.9563)"
           id="g290"><text
             id="text294"
             style="font-variant:normal;font-weight:600;font-size:15px;font-family:Graphik;-inkscape-font-specification:Graphik-Semibold;writing-mode:lr-tb;fill:#ffffff;fill-opacity:1;fill-rule:nonzero;stroke:none"
             transform="scale(1,-1)"><tspan
               id="tspan292"
               y="0"
               x="0 11.25 20.49 34.334999 43.889999 53.07 58.724998 67.529999 70.860001 79.32 88.904999 96.464996 105.705 109.905 119.085 124.74 133.545">Compute absolute </tspan></text>
</g><g
           transform="translate(278.9341,350.9413)"
           id="g296"><text
             id="text300"
             style="font-variant:normal;font-weight:600;font-size:15px;font-family:Graphik;-inkscape-font-specification:Graphik-Semibold;writing-mode:lr-tb;fill:#ffffff;fill-opacity:1;fill-rule:nonzero;stroke:none"
             transform="scale(1,-1)"><tspan
               id="tspan298"
               y="0"
               x="0 9.5550003">di</tspan></text>
</g><g
           transform="translate(278.9341,350.9413)"
           id="g302"><text
             id="text306"
             style="font-variant:normal;font-weight:600;font-size:15px;font-family:Graphik;-inkscape-font-specification:Graphik-Semibold;writing-mode:lr-tb;fill:#ffffff;fill-opacity:1;fill-rule:nonzero;stroke:none"
             transform="matrix(1,0,0,-1,13.77,0)"><tspan
               id="tspan304"
               y="0"
               x="0">ﬀ</tspan></text>
</g><g
           transform="translate(278.9341,350.9413)"
           id="g308"><text
             id="text312"
             style="font-variant:normal;font-weight:600;font-size:15px;font-family:Graphik;-inkscape-font-specification:Graphik-Semibold;writing-mode:lr-tb;fill:#ffffff;fill-opacity:1;fill-rule:nonzero;stroke:none"
             transform="matrix(1,0,0,-1,23.745,0)"><tspan
               id="tspan310"
               y="0"
               x="0 8.8050003 14.805 23.610001 32.834999 41.505001 50.310001 53.639999 63.195 72 77.654999 89.775002 98.580002 107.385 116.61">erence between </tspan></text>
</g><g
           transform="translate(305.8066,332.9263)"
           id="g314"><text
             id="text318"
             style="font-variant:normal;font-weight:600;font-size:15px;font-family:Graphik;-inkscape-font-specification:Graphik-Semibold;writing-mode:lr-tb;fill:#ffffff;fill-opacity:1;fill-rule:nonzero;stroke:none"
             transform="scale(1,-1)"><tspan
               id="tspan316"
               y="0"
               x="0 8.6700001 17.91 27.15 33.119999 42.674999 46.889999 56.115002 64.544998 70.199997 79.080002">coordinates</tspan></text>
</g><path
           id="path320"
           style="fill:#2657af;fill-opacity:1;fill-rule:nonzero;stroke:none"
           d="m 273.4588,197.47 h 151.3055 v 66.61578 H 273.4588 Z" /><g
           transform="matrix(1,0,0,-1,273.4588,264.0857)"
           id="g322"><path
             id="path324"
             style="fill:none;stroke:#000000;stroke-width:1;stroke-linecap:butt;stroke-linejoin:miter;stroke-miterlimit:4;stroke-dasharray:none;stroke-opacity:1"
             d="M 0,0 H 151.3055 V 66.61578 H 0 Z" /></g><g
           transform="translate(300.5491,241.7724)"
           id="g326"><text
             id="text330"
             style="font-variant:normal;font-weight:600;font-size:15px;font-family:Graphik;-inkscape-font-specification:Graphik-Semibold;writing-mode:lr-tb;fill:#ffffff;fill-opacity:1;fill-rule:nonzero;stroke:none"
             transform="scale(1,-1)"><tspan
               id="tspan328"
               y="0"
               x="0 11.7 20.504999 26.16 29.49 37.724998 45.959999 54.764999 60.764999 69.224998 78.764999 87.57 97.125">Get averaged </tspan></text>
</g><g
           transform="translate(300.6091,223.7574)"
           id="g332"><text
             id="text336"
             style="font-variant:normal;font-weight:600;font-size:15px;font-family:Graphik;-inkscape-font-specification:Graphik-Semibold;writing-mode:lr-tb;fill:#ffffff;fill-opacity:1;fill-rule:nonzero;stroke:none"
             transform="scale(1,-1)"><tspan
               id="tspan334"
               y="0"
               x="0 9.5550003 18.825001 26.355 30.57 36.224998 40.439999 49.68 58.904999 66.434998 69.764999 78.224998 87.449997 97.004997">positions and </tspan></text>
</g><g
           transform="translate(301.0441,205.7424)"
           id="g338"><text
             id="text342"
             style="font-variant:normal;font-weight:600;font-size:15px;font-family:Graphik;-inkscape-font-specification:Graphik-Semibold;writing-mode:lr-tb;fill:#ffffff;fill-opacity:1;fill-rule:nonzero;stroke:none"
             transform="scale(1,-1)"><tspan
               id="tspan340"
               y="0"
               x="0 8.4300003 14.085 23.325001 37.169998 41.384998 50.055 53.384998 57.584999 66.044998 75.599998 84.404999 88.605003">atomic labels</tspan></text>
</g><path
           id="path344"
           style="fill:#2657af;fill-opacity:1;fill-rule:nonzero;stroke:none"
           d="m 273.4588,61.41448 h 151.3055 v 66.61578 H 273.4588 Z" /><g
           transform="matrix(1,0,0,-1,273.4588,128.0303)"
           id="g346"><path
             id="path348"
             style="fill:none;stroke:#000000;stroke-width:1;stroke-linecap:butt;stroke-linejoin:miter;stroke-miterlimit:4;stroke-dasharray:none;stroke-opacity:1"
             d="M 0,0 H 151.3055 V 66.61578 H 0 Z" /></g><g
           transform="translate(288.2941,96.81754)"
           id="g350"><text
             id="text354"
             style="font-variant:normal;font-weight:600;font-size:15px;font-family:Graphik;-inkscape-font-specification:Graphik-Semibold;writing-mode:lr-tb;fill:#ffffff;fill-opacity:1;fill-rule:nonzero;stroke:none"
             transform="scale(1,-1)"><tspan
               id="tspan352"
               y="0"
               x="0 9.6300001 18.434999 24.09 27.42 36.09 45.330002 54.375 62.610001 71.415001 80.639999 86.294998 90.510002 99.75 108.975 117.435 121.635">Set conventional </tspan></text>
</g><g
           transform="translate(309.0691,78.80254)"
           id="g356"><text
             id="text360"
             style="font-variant:normal;font-weight:600;font-size:15px;font-family:Graphik;-inkscape-font-specification:Graphik-Semibold;writing-mode:lr-tb;fill:#ffffff;fill-opacity:1;fill-rule:nonzero;stroke:none"
             transform="scale(1,-1)"><tspan
               id="tspan358"
               y="0"
               x="0 9.2399998 15.375 19.59 28.395 37.619999 43.32 51.75 57.404999 61.619999 70.860001">orientation</tspan></text>
</g><g
           transform="rotate(90,27.2965,482.4353)"
           id="g362"><text
             id="text366"
             style="font-variant:normal;font-weight:normal;font-size:20px;font-family:CanelaText;-inkscape-font-specification:CanelaText-Regular;writing-mode:lr-tb;fill:#000000;fill-opacity:1;fill-rule:nonzero;stroke:none"
             transform="scale(1,-1)"><tspan
               id="tspan364"
               y="0"
               x="0 11.32 21.58 38.66 55.740002 66.120003 73.580002 81.300003 86.760002 96.760002 107.04">Symmetrizer</tspan></text>
</g><path
           id="path368"
           style="fill:#d5d5d5;fill-opacity:1;fill-rule:nonzero;stroke:none"
           d="m 497.3341,133.7326 h 100.3817 c 5.8037,0 9.286,0 11.6074,-0.9691 3.3467,-1.2181 5.9829,-3.8544 7.201,-7.201 0.9692,-2.3215 0.9692,-5.8037 0.9692,-11.6074 V 67.25832 c 0,-5.8037 0,-9.28592 -0.9692,-11.6074 -1.2181,-3.34662 -3.8543,-5.98287 -7.201,-7.20094 -2.3214,-0.96919 -5.8037,-0.96919 -11.6074,-0.96919 H 497.3341 c -5.8037,0 -9.2859,0 -11.6074,0.96919 -3.3466,1.21807 -5.9829,3.85432 -7.2009,7.20094 -0.9692,2.32148 -0.9692,5.8037 -0.9692,11.6074 v 46.69678 c 0,5.8037 0,9.2859 0.9692,11.6074 1.218,3.3466 3.8543,5.9829 7.2009,7.201 2.3215,0.9691 5.8037,0.9691 11.6074,0.9691 z" /><g
           transform="translate(507.4225,92.70188)"
           id="g370"><text
             id="text374"
             style="font-variant:normal;font-weight:600;font-size:15px;font-family:Graphik;-inkscape-font-specification:Graphik-Semibold;writing-mode:lr-tb;fill:#000000;fill-opacity:1;fill-rule:nonzero;stroke:none"
             transform="scale(1,-1)"><tspan
               id="tspan372"
               y="0"
               x="0 9.7650003 18.57 27.809999 33.945 38.16 46.965 56.189999 61.845001 70.650002 80.205002">Reoriented </tspan></text>
</g><g
           transform="translate(491.2375,74.68688)"
           id="g376"><text
             id="text380"
             style="font-variant:normal;font-weight:600;font-size:15px;font-family:Graphik;-inkscape-font-specification:Graphik-Semibold;writing-mode:lr-tb;fill:#000000;fill-opacity:1;fill-rule:nonzero;stroke:none"
             transform="scale(1,-1)"><tspan
               id="tspan378"
               y="0"
               x="0 13.845 23.084999 27.285 36.09 44.759998 53.939999 58.139999 66.945 70.275002 77.805 83.459999 89.595001 93.809998 103.035">molecule string</tspan></text>
</g><path
           id="path382"
           style="fill:#7caded;fill-opacity:1;fill-rule:nonzero;stroke:none"
           d="m 698.6255,103.9518 h 62.60609 v 38.86838 H 698.6255 Z" /><g
           transform="matrix(1,0,0,-1,698.6255,142.8202)"
           id="g384"><path
             id="path386"
             style="fill:none;stroke:#000000;stroke-width:1;stroke-linecap:butt;stroke-linejoin:miter;stroke-miterlimit:4;stroke-dasharray:none;stroke-opacity:1"
             d="M 0,0 H 62.60609 V 38.86838 H 0 Z" /></g><g
           transform="translate(710.6836,116.5818)"
           id="g388"><text
             id="text392"
             style="font-variant:normal;font-weight:600;font-size:15px;font-family:Graphik;-inkscape-font-specification:Graphik-Semibold;writing-mode:lr-tb;fill:#ffffff;fill-opacity:1;fill-rule:nonzero;stroke:none"
             transform="scale(1,-1)"><tspan
               id="tspan390"
               y="0"
               x="0 4.875 14.1 23.655001 32.834999">Input</tspan></text>
</g><path
           id="path394"
           style="fill:#d5d5d5;fill-opacity:1;fill-rule:nonzero;stroke:none"
           d="m 707.5004,85.49302 h 44.8563 c 3.3274,0 5.3238,0 6.6548,-0.55565 1.9186,-0.69834 3.43,-2.20975 4.1284,-4.12843 0.5556,-1.33094 0.5556,-3.32736 0.5556,-6.65473 V 57.96345 c 0,-3.32737 0,-5.32379 -0.5556,-6.65473 -0.6984,-1.91868 -2.2098,-3.43009 -4.1284,-4.12843 -1.331,-0.55565 -3.3274,-0.55565 -6.6548,-0.55565 h -44.8563 c -3.3274,0 -5.3238,0 -6.6547,0.55565 -1.9187,0.69834 -3.4301,2.20975 -4.1285,4.12843 -0.5556,1.33094 -0.5556,3.32736 -0.5556,6.65473 v 16.19076 c 0,3.32737 0,5.32379 0.5556,6.65473 0.6984,1.91868 2.2098,3.43009 4.1285,4.12843 1.3309,0.55565 3.3273,0.55565 6.6547,0.55565 z" /><g
           transform="translate(704.1961,59.25466)"
           id="g396"><text
             id="text400"
             style="font-variant:normal;font-weight:600;font-size:15px;font-family:Graphik;-inkscape-font-specification:Graphik-Semibold;writing-mode:lr-tb;fill:#000000;fill-opacity:1;fill-rule:nonzero;stroke:none"
             transform="scale(1,-1)"><tspan
               id="tspan398"
               y="0"
               x="0 12.24 21.42 27.075001 36.630001 45.810001">Output</tspan></text>
</g></g></g></g></svg>