<?xml version="1.0" encoding="UTF-8" standalone="no"?>
<!-- Created with Inkscape (http://www.inkscape.org/) -->

<svg
   width="157.55006mm"
   height="137.24316mm"
   viewBox="0 0 157.55006 137.24317"
   version="1.1"
   id="svg965"
   inkscape:version="1.1 (ce6663b3b7, 2021-05-25)"
   sodipodi:docname="vinyl_decomp.svg"
   xmlns:inkscape="http://www.inkscape.org/namespaces/inkscape"
   xmlns:sodipodi="http://sodipodi.sourceforge.net/DTD/sodipodi-0.dtd"
   xmlns="http://www.w3.org/2000/svg"
   xmlns:svg="http://www.w3.org/2000/svg">
  <sodipodi:namedview
     id="namedview967"
     pagecolor="#ffffff"
     bordercolor="#666666"
     borderopacity="1.0"
     inkscape:pageshadow="2"
     inkscape:pageopacity="0.0"
     inkscape:pagecheckerboard="0"
     inkscape:document-units="mm"
     showgrid="false"
     fit-margin-top="3"
     fit-margin-left="3"
     fit-margin-right="3"
     fit-margin-bottom="3"
     inkscape:zoom="1.4645623"
     inkscape:cx="94.567503"
     inkscape:cy="297.69987"
     inkscape:window-width="1853"
     inkscape:window-height="1025"
     inkscape:window-x="67"
     inkscape:window-y="27"
     inkscape:window-maximized="1"
     inkscape:current-layer="layer1" />
  <defs
     id="defs962" />
  <g
     inkscape:label="Layer 1"
     inkscape:groupmode="layer"
     id="layer1"
     transform="translate(-40.529472,-36.534618)">
    <path
       style="fill:none;stroke:#000000;stroke-width:0.426577;stroke-linecap:butt;stroke-linejoin:miter;stroke-miterlimit:4;stroke-dasharray:none;stroke-opacity:1"
       d="m 43.617668,80.619356 h 6.329729 c 0,0 2.016554,0.103522 1.960533,-2.278935 -0.05602,-2.382527 0.728204,-48.16872 1.56843,-28.072518 0.840233,20.096184 1.960537,22.996679 2.85678,18.645961 0.896244,-4.350738 1.512416,-15.43471 1.680458,-8.287099 0.168049,7.147621 0.448126,11.912696 0.840234,6.215317 0.392105,-5.697379 0.616165,-10.87681 0.896244,-5.179431 0.280079,5.697379 0.11203,8.079906 0.560158,3.004067 0.448114,-5.075849 0.448114,-6.318899 0.840221,-4.143545 0.392108,2.175364 0.464445,3.696833 3.031255,3.582687 3.053689,-0.135767 3.108026,-7.519048 8.765578,-2.546801 l 2.616303,3.290776 -2.616303,-3.290776 3.472942,4.350718 c 0,0 5.175817,5.593787 9.881097,0.828713 4.705291,-4.765074 8.290271,1.24307 8.290271,1.24307 0,0 4.257161,6.008143 10.418842,1.864589 6.16169,-4.143545 10.75495,2.278965 10.75495,2.278965"
       id="path3781"
       inkscape:connector-curvature="0"
       sodipodi:nodetypes="ccsssssssssccccscsc" />
    <rect
       style="fill:none;stroke:#000000;stroke-width:0.18203;stroke-linecap:square"
       id="rect1134"
       width="72.773605"
       height="40.990891"
       x="43.620487"
       y="39.625641" />
    <text
       xml:space="preserve"
       style="font-size:4.23333px;line-height:1.25;font-family:sans-serif;word-spacing:0px;stroke-width:0.264583"
       x="80.119743"
       y="45.266861"
       id="text1680"><tspan
         sodipodi:role="line"
         id="tspan1678"
         style="font-size:4.23333px;stroke-width:0.264583"
         x="80.119743"
         y="45.266861">ADC polarization</tspan></text>
    <path
       style="fill:none;stroke:#000000;stroke-width:0.426577;stroke-linecap:butt;stroke-linejoin:miter;stroke-miterlimit:4;stroke-dasharray:none;stroke-opacity:1"
       d="m 43.617666,125.84361 h 6.329729 c 0,0 2.016554,0.10352 1.960533,-2.27893 -0.05602,-2.38253 0.728204,-48.168752 1.56843,-28.07255 0.840233,20.09621 1.960537,22.99671 2.85678,18.64599 0.896248,-4.35074 1.512418,-15.434739 1.680458,-8.2871 0.16805,7.14762 0.44813,11.91269 0.84023,6.21532 0.39211,-5.69738 0.61617,-10.87683 0.89625,-5.17944 0.28008,5.69738 0.11203,8.07991 0.56016,3.00407 0.44811,-5.07585 0.44811,-6.31891 0.84022,-4.14354 0.39211,2.17536 0.46444,3.69683 3.03125,3.58268 3.05369,-0.13576 3.10803,-7.51906 8.76558,-2.5468 l 2.6163,3.29078 -2.6163,-3.29078 3.47294,4.35072 c 0,0 5.17582,5.59379 9.8811,0.82871 4.70529,-4.76507 8.29027,1.24307 8.29027,1.24307 0,0 4.25716,6.00815 10.418844,1.86459 6.16169,-4.14354 10.75495,2.27897 10.75495,2.27897"
       id="path3781-3"
       inkscape:connector-curvature="0"
       sodipodi:nodetypes="ccsssssssssccccscsc" />
    <rect
       style="fill:none;stroke:#000000;stroke-width:0.18203;stroke-linecap:square"
       id="rect1134-6"
       width="72.773605"
       height="40.990891"
       x="43.620487"
       y="84.849869" />
    <text
       xml:space="preserve"
       style="font-size:4.23333px;line-height:1.25;font-family:sans-serif;word-spacing:0px;stroke-width:0.264583"
       x="74.828079"
       y="90.491089"
       id="text1680-7"><tspan
         sodipodi:role="line"
         id="tspan1678-5"
         style="font-size:4.23333px;stroke-width:0.264583"
         x="74.828079"
         y="90.491089">DFT polarization</tspan></text>
    <path
       style="fill:none;stroke:#000000;stroke-width:0.426577;stroke-linecap:butt;stroke-linejoin:miter;stroke-miterlimit:4;stroke-dasharray:none;stroke-opacity:1"
       d="m 82.333107,170.56382 h 6.329729 c 0,0 2.016554,0.10352 1.960533,-2.27893 -0.05602,-2.38253 0.728204,-48.16876 1.56843,-28.07255 0.840233,20.09621 1.960537,22.99671 2.85678,18.64599 0.896248,-4.35074 1.512418,-15.43474 1.680458,-8.2871 0.16805,7.14762 0.44813,11.91269 0.84023,6.21532 0.39211,-5.69738 0.61617,-10.87683 0.89625,-5.17944 0.28008,5.69738 0.11203,8.07991 0.56016,3.00407 0.44811,-5.07585 0.44811,-6.31891 0.84022,-4.14354 0.392113,2.17536 0.464443,3.69683 3.031253,3.58268 3.05369,-0.13576 3.10803,-7.51906 8.76558,-2.5468 l 2.6163,3.29078 -2.6163,-3.29078 3.47294,4.35072 c 0,0 5.17582,5.59379 9.8811,0.82871 4.70529,-4.76507 8.29027,1.24307 8.29027,1.24307 0,0 4.25716,6.00815 10.41884,1.86459 6.16169,-4.14354 10.75495,2.27897 10.75495,2.27897"
       id="path3781-3-3"
       inkscape:connector-curvature="0"
       sodipodi:nodetypes="ccsssssssssccccscsc" />
    <rect
       style="fill:none;stroke:#000000;stroke-width:0.18203;stroke-linecap:square"
       id="rect1134-6-67"
       width="72.773605"
       height="40.990891"
       x="82.33593"
       y="129.57007" />
    <text
       xml:space="preserve"
       style="font-size:4.23333px;line-height:1.25;font-family:sans-serif;word-spacing:0px;stroke-width:0.264583"
       x="113.54353"
       y="135.21129"
       id="text1680-7-5"><tspan
         sodipodi:role="line"
         id="tspan1678-5-3"
         style="font-size:4.23333px;stroke-width:0.264583"
         x="113.54353"
         y="135.21129">Experiment</tspan></text>
    <path
       style="fill:none;stroke:#000000;stroke-width:0.426577;stroke-linecap:butt;stroke-linejoin:miter;stroke-miterlimit:4;stroke-dasharray:none;stroke-opacity:1"
       d="m 122.21211,80.61935 h 6.32973 c 0,0 2.01655,0.10352 1.96053,-2.27894 -0.056,-2.38253 0.72821,-48.168719 1.56843,-28.072517 0.84023,20.096187 1.96054,22.996677 2.85678,18.645957 0.89625,-4.35073 1.51242,-15.43471 1.68046,-8.2871 0.16805,7.14763 0.44813,11.9127 0.84023,6.21532 0.39211,-5.69738 0.61617,-10.87681 0.89625,-5.17943 0.28008,5.69738 0.11203,8.07991 0.56016,3.00407 0.44811,-5.07585 0.44811,-6.3189 0.84022,-4.14355 0.3921,2.17537 0.46444,3.69684 3.03125,3.58269 3.05369,-0.13577 3.10803,-7.51905 8.76558,-2.5468 l 2.6163,3.29077 -2.6163,-3.29077 3.47294,4.35072 c 0,0 5.17582,5.59378 9.8811,0.82871 4.70529,-4.76507 8.29027,1.24307 8.29027,1.24307 0,0 4.25716,6.00814 10.41884,1.86459 6.16169,-4.14355 10.75495,2.27896 10.75495,2.27896"
       id="path3781-36"
       inkscape:connector-curvature="0"
       sodipodi:nodetypes="ccsssssssssccccscsc" />
    <rect
       style="fill:none;stroke:#000000;stroke-width:0.18203;stroke-linecap:square"
       id="rect1134-7"
       width="72.773605"
       height="40.990891"
       x="122.21492"
       y="39.625633" />
    <text
       xml:space="preserve"
       style="font-size:4.23333px;line-height:1.25;font-family:sans-serif;word-spacing:0px;stroke-width:0.264583"
       x="164.00583"
       y="45.266853"
       id="text1680-5"><tspan
         sodipodi:role="line"
         id="tspan1678-3"
         style="font-size:4.23333px;stroke-width:0.264583"
         x="164.00583"
         y="45.266853">ADC atomic</tspan></text>
    <path
       style="fill:none;stroke:#000000;stroke-width:0.426577;stroke-linecap:butt;stroke-linejoin:miter;stroke-miterlimit:4;stroke-dasharray:none;stroke-opacity:1"
       d="m 122.2121,125.8436 h 6.32973 c 0,0 2.01656,0.10352 1.96054,-2.27893 -0.056,-2.38253 0.7282,-48.16875 1.56843,-28.07255 0.84023,20.09621 1.96054,22.99671 2.85678,18.64599 0.89625,-4.35074 1.51242,-15.43474 1.68046,-8.2871 0.16805,7.14762 0.44813,11.91269 0.84023,6.21532 0.39211,-5.69738 0.61617,-10.87683 0.89625,-5.17944 0.28008,5.69738 0.11203,8.07991 0.56016,3.00407 0.44811,-5.07585 0.44811,-6.31891 0.84022,-4.14354 0.39211,2.17536 0.46444,3.69683 3.03125,3.58268 3.05369,-0.13576 3.10803,-7.51906 8.76558,-2.5468 l 2.6163,3.29078 -2.6163,-3.29078 3.47294,4.35072 c 0,0 5.17582,5.59379 9.8811,0.82871 4.70529,-4.76507 8.29027,1.24307 8.29027,1.24307 0,0 4.25716,6.00815 10.41884,1.86459 6.16169,-4.14354 10.75495,2.27897 10.75495,2.27897"
       id="path3781-3-5"
       inkscape:connector-curvature="0"
       sodipodi:nodetypes="ccsssssssssccccscsc" />
    <rect
       style="fill:none;stroke:#000000;stroke-width:0.18203;stroke-linecap:square"
       id="rect1134-6-6"
       width="72.773605"
       height="40.990891"
       x="122.21492"
       y="84.849854" />
    <text
       xml:space="preserve"
       style="font-size:4.23333px;line-height:1.25;font-family:sans-serif;word-spacing:0px;stroke-width:0.264583"
       x="164.00583"
       y="90.491074"
       id="text1680-7-2"><tspan
         sodipodi:role="line"
         id="tspan1678-5-9"
         style="font-size:4.23333px;stroke-width:0.264583"
         x="164.00583"
         y="90.491074">DFT atomic</tspan></text>
  </g>
</svg>
