<svg xmlns="http://www.w3.org/2000/svg" xmlns:rdkit="http://www.rdkit.org/xml" xmlns:xlink="http://www.w3.org/1999/xlink" version="1.1" baseProfile="full" xml:space="preserve" width="300px" height="300px" viewBox="0 0 300 300">
<!-- END OF HEADER -->
<rect style="opacity:1.0;fill:#FFFFFF;stroke:none" width="300.0" height="300.0" x="0.0" y="0.0"> </rect>
<path class="bond-0 atom-0 atom-1" d="M 167.1,286.4 L 151.5,277.3" style="fill:none;fill-rule:evenodd;stroke:#000000;stroke-width:2.0px;stroke-linecap:butt;stroke-linejoin:miter;stroke-opacity:1"/>
<path class="bond-1 atom-1 atom-2" d="M 151.5,277.3 L 151.6,259.1" style="fill:none;fill-rule:evenodd;stroke:#000000;stroke-width:2.0px;stroke-linecap:butt;stroke-linejoin:miter;stroke-opacity:1"/>
<path class="bond-1 atom-1 atom-2" d="M 154.2,275.7 L 154.3,259.2" style="fill:none;fill-rule:evenodd;stroke:#000000;stroke-width:2.0px;stroke-linecap:butt;stroke-linejoin:miter;stroke-opacity:1"/>
<path class="bond-2 atom-2 atom-3" d="M 151.6,259.1 L 135.9,250.0" style="fill:none;fill-rule:evenodd;stroke:#000000;stroke-width:2.0px;stroke-linecap:butt;stroke-linejoin:miter;stroke-opacity:1"/>
<path class="bond-3 atom-3 atom-4" d="M 135.9,250.0 L 136.0,231.9" style="fill:none;fill-rule:evenodd;stroke:#000000;stroke-width:2.0px;stroke-linecap:butt;stroke-linejoin:miter;stroke-opacity:1"/>
<path class="bond-4 atom-4 atom-5" d="M 136.0,231.9 L 151.7,222.9" style="fill:none;fill-rule:evenodd;stroke:#000000;stroke-width:2.0px;stroke-linecap:butt;stroke-linejoin:miter;stroke-opacity:1"/>
<path class="bond-5 atom-4 atom-6" d="M 136.0,231.9 L 120.3,222.8" style="fill:none;fill-rule:evenodd;stroke:#000000;stroke-width:2.0px;stroke-linecap:butt;stroke-linejoin:miter;stroke-opacity:1"/>
<path class="bond-6 atom-6 atom-7" d="M 120.3,222.8 L 114.5,226.1" style="fill:none;fill-rule:evenodd;stroke:#000000;stroke-width:2.0px;stroke-linecap:butt;stroke-linejoin:miter;stroke-opacity:1"/>
<path class="bond-6 atom-6 atom-7" d="M 114.5,226.1 L 108.8,229.4" style="fill:none;fill-rule:evenodd;stroke:#FF0000;stroke-width:2.0px;stroke-linecap:butt;stroke-linejoin:miter;stroke-opacity:1"/>
<path class="bond-7 atom-6 atom-8" d="M 120.3,222.8 L 120.4,204.7" style="fill:none;fill-rule:evenodd;stroke:#000000;stroke-width:2.0px;stroke-linecap:butt;stroke-linejoin:miter;stroke-opacity:1"/>
<path class="bond-8 atom-8 atom-9" d="M 120.4,204.7 L 136.1,195.7" style="fill:none;fill-rule:evenodd;stroke:#000000;stroke-width:2.0px;stroke-linecap:butt;stroke-linejoin:miter;stroke-opacity:1"/>
<path class="bond-9 atom-9 atom-10" d="M 134.7,196.5 L 140.8,200.0" style="fill:none;fill-rule:evenodd;stroke:#000000;stroke-width:2.0px;stroke-linecap:butt;stroke-linejoin:miter;stroke-opacity:1"/>
<path class="bond-9 atom-9 atom-10" d="M 140.8,200.0 L 146.9,203.6" style="fill:none;fill-rule:evenodd;stroke:#FF0000;stroke-width:2.0px;stroke-linecap:butt;stroke-linejoin:miter;stroke-opacity:1"/>
<path class="bond-9 atom-9 atom-10" d="M 136.1,194.1 L 142.2,197.7" style="fill:none;fill-rule:evenodd;stroke:#000000;stroke-width:2.0px;stroke-linecap:butt;stroke-linejoin:miter;stroke-opacity:1"/>
<path class="bond-9 atom-9 atom-10" d="M 142.2,197.7 L 148.3,201.2" style="fill:none;fill-rule:evenodd;stroke:#FF0000;stroke-width:2.0px;stroke-linecap:butt;stroke-linejoin:miter;stroke-opacity:1"/>
<path class="bond-10 atom-9 atom-11" d="M 136.1,195.7 L 136.1,188.9" style="fill:none;fill-rule:evenodd;stroke:#000000;stroke-width:2.0px;stroke-linecap:butt;stroke-linejoin:miter;stroke-opacity:1"/>
<path class="bond-10 atom-9 atom-11" d="M 136.1,188.9 L 136.1,182.1" style="fill:none;fill-rule:evenodd;stroke:#0000FF;stroke-width:2.0px;stroke-linecap:butt;stroke-linejoin:miter;stroke-opacity:1"/>
<path class="bond-11 atom-11 atom-12" d="M 139.7,175.6 L 145.7,172.1" style="fill:none;fill-rule:evenodd;stroke:#0000FF;stroke-width:2.0px;stroke-linecap:butt;stroke-linejoin:miter;stroke-opacity:1"/>
<path class="bond-11 atom-11 atom-12" d="M 145.7,172.1 L 151.8,168.6" style="fill:none;fill-rule:evenodd;stroke:#000000;stroke-width:2.0px;stroke-linecap:butt;stroke-linejoin:miter;stroke-opacity:1"/>
<path class="bond-12 atom-12 atom-13" d="M 151.8,168.6 L 151.8,150.5" style="fill:none;fill-rule:evenodd;stroke:#000000;stroke-width:2.0px;stroke-linecap:butt;stroke-linejoin:miter;stroke-opacity:1"/>
<path class="bond-13 atom-13 atom-14" d="M 151.8,150.5 L 167.5,141.4" style="fill:none;fill-rule:evenodd;stroke:#000000;stroke-width:2.0px;stroke-linecap:butt;stroke-linejoin:miter;stroke-opacity:1"/>
<path class="bond-14 atom-12 atom-15" d="M 151.8,168.6 L 167.6,177.6" style="fill:none;fill-rule:evenodd;stroke:#000000;stroke-width:2.0px;stroke-linecap:butt;stroke-linejoin:miter;stroke-opacity:1"/>
<path class="bond-15 atom-15 atom-16" d="M 166.2,176.8 L 166.2,184.0" style="fill:none;fill-rule:evenodd;stroke:#000000;stroke-width:2.0px;stroke-linecap:butt;stroke-linejoin:miter;stroke-opacity:1"/>
<path class="bond-15 atom-15 atom-16" d="M 166.2,184.0 L 166.3,191.2" style="fill:none;fill-rule:evenodd;stroke:#FF0000;stroke-width:2.0px;stroke-linecap:butt;stroke-linejoin:miter;stroke-opacity:1"/>
<path class="bond-15 atom-15 atom-16" d="M 168.9,176.8 L 169.0,184.0" style="fill:none;fill-rule:evenodd;stroke:#000000;stroke-width:2.0px;stroke-linecap:butt;stroke-linejoin:miter;stroke-opacity:1"/>
<path class="bond-15 atom-15 atom-16" d="M 169.0,184.0 L 169.0,191.2" style="fill:none;fill-rule:evenodd;stroke:#FF0000;stroke-width:2.0px;stroke-linecap:butt;stroke-linejoin:miter;stroke-opacity:1"/>
<path class="bond-16 atom-15 atom-17" d="M 167.6,177.6 L 173.6,174.0" style="fill:none;fill-rule:evenodd;stroke:#000000;stroke-width:2.0px;stroke-linecap:butt;stroke-linejoin:miter;stroke-opacity:1"/>
<path class="bond-16 atom-15 atom-17" d="M 173.6,174.0 L 179.7,170.4" style="fill:none;fill-rule:evenodd;stroke:#0000FF;stroke-width:2.0px;stroke-linecap:butt;stroke-linejoin:miter;stroke-opacity:1"/>
<path class="bond-17 atom-17 atom-18" d="M 186.7,170.3 L 192.9,173.8" style="fill:none;fill-rule:evenodd;stroke:#0000FF;stroke-width:2.0px;stroke-linecap:butt;stroke-linejoin:miter;stroke-opacity:1"/>
<path class="bond-17 atom-17 atom-18" d="M 192.9,173.8 L 199.0,177.2" style="fill:none;fill-rule:evenodd;stroke:#000000;stroke-width:2.0px;stroke-linecap:butt;stroke-linejoin:miter;stroke-opacity:1"/>
<path class="bond-18 atom-17 atom-19" d="M 183.1,163.9 L 183.0,157.0" style="fill:none;fill-rule:evenodd;stroke:#0000FF;stroke-width:2.0px;stroke-linecap:butt;stroke-linejoin:miter;stroke-opacity:1"/>
<path class="bond-18 atom-17 atom-19" d="M 183.0,157.0 L 182.9,150.1" style="fill:none;fill-rule:evenodd;stroke:#000000;stroke-width:2.0px;stroke-linecap:butt;stroke-linejoin:miter;stroke-opacity:1"/>
<path class="bond-19 atom-19 atom-20" d="M 182.9,150.1 L 198.4,140.5" style="fill:none;fill-rule:evenodd;stroke:#000000;stroke-width:2.0px;stroke-linecap:butt;stroke-linejoin:miter;stroke-opacity:1"/>
<path class="bond-20 atom-20 atom-21" d="M 199.8,141.2 L 199.6,134.1" style="fill:none;fill-rule:evenodd;stroke:#000000;stroke-width:2.0px;stroke-linecap:butt;stroke-linejoin:miter;stroke-opacity:1"/>
<path class="bond-20 atom-20 atom-21" d="M 199.6,134.1 L 199.3,127.0" style="fill:none;fill-rule:evenodd;stroke:#FF0000;stroke-width:2.0px;stroke-linecap:butt;stroke-linejoin:miter;stroke-opacity:1"/>
<path class="bond-20 atom-20 atom-21" d="M 197.1,141.3 L 196.8,134.2" style="fill:none;fill-rule:evenodd;stroke:#000000;stroke-width:2.0px;stroke-linecap:butt;stroke-linejoin:miter;stroke-opacity:1"/>
<path class="bond-20 atom-20 atom-21" d="M 196.8,134.2 L 196.6,127.1" style="fill:none;fill-rule:evenodd;stroke:#FF0000;stroke-width:2.0px;stroke-linecap:butt;stroke-linejoin:miter;stroke-opacity:1"/>
<path class="bond-21 atom-20 atom-22" d="M 198.4,140.5 L 204.6,143.7" style="fill:none;fill-rule:evenodd;stroke:#000000;stroke-width:2.0px;stroke-linecap:butt;stroke-linejoin:miter;stroke-opacity:1"/>
<path class="bond-21 atom-20 atom-22" d="M 204.6,143.7 L 210.7,147.0" style="fill:none;fill-rule:evenodd;stroke:#0000FF;stroke-width:2.0px;stroke-linecap:butt;stroke-linejoin:miter;stroke-opacity:1"/>
<path class="bond-22 atom-22 atom-23" d="M 214.4,153.3 L 214.6,160.1" style="fill:none;fill-rule:evenodd;stroke:#0000FF;stroke-width:2.0px;stroke-linecap:butt;stroke-linejoin:miter;stroke-opacity:1"/>
<path class="bond-22 atom-22 atom-23" d="M 214.6,160.1 L 214.8,167.0" style="fill:none;fill-rule:evenodd;stroke:#000000;stroke-width:2.0px;stroke-linecap:butt;stroke-linejoin:miter;stroke-opacity:1"/>
<path class="bond-23 atom-22 atom-24" d="M 217.8,146.7 L 223.8,142.9" style="fill:none;fill-rule:evenodd;stroke:#0000FF;stroke-width:2.0px;stroke-linecap:butt;stroke-linejoin:miter;stroke-opacity:1"/>
<path class="bond-23 atom-22 atom-24" d="M 223.8,142.9 L 229.8,139.2" style="fill:none;fill-rule:evenodd;stroke:#000000;stroke-width:2.0px;stroke-linecap:butt;stroke-linejoin:miter;stroke-opacity:1"/>
<path class="bond-24 atom-24 atom-25" d="M 229.8,139.2 L 245.6,148.6" style="fill:none;fill-rule:evenodd;stroke:#000000;stroke-width:2.0px;stroke-linecap:butt;stroke-linejoin:miter;stroke-opacity:1"/>
<path class="bond-25 atom-25 atom-26" d="M 245.6,148.6 L 261.6,140.3" style="fill:none;fill-rule:evenodd;stroke:#000000;stroke-width:2.0px;stroke-linecap:butt;stroke-linejoin:miter;stroke-opacity:1"/>
<path class="bond-26 atom-26 atom-27" d="M 261.6,140.3 L 276.8,150.2" style="fill:none;fill-rule:evenodd;stroke:#000000;stroke-width:2.0px;stroke-linecap:butt;stroke-linejoin:miter;stroke-opacity:1"/>
<path class="bond-27 atom-26 atom-28" d="M 261.6,140.3 L 262.4,122.3" style="fill:none;fill-rule:evenodd;stroke:#000000;stroke-width:2.0px;stroke-linecap:butt;stroke-linejoin:miter;stroke-opacity:1"/>
<path class="bond-28 atom-24 atom-29" d="M 229.8,139.2 L 229.6,120.0" style="fill:none;fill-rule:evenodd;stroke:#000000;stroke-width:2.0px;stroke-linecap:butt;stroke-linejoin:miter;stroke-opacity:1"/>
<path class="bond-29 atom-29 atom-30" d="M 229.6,121.6 L 235.7,118.0" style="fill:none;fill-rule:evenodd;stroke:#000000;stroke-width:2.0px;stroke-linecap:butt;stroke-linejoin:miter;stroke-opacity:1"/>
<path class="bond-29 atom-29 atom-30" d="M 235.7,118.0 L 241.8,114.5" style="fill:none;fill-rule:evenodd;stroke:#FF0000;stroke-width:2.0px;stroke-linecap:butt;stroke-linejoin:miter;stroke-opacity:1"/>
<path class="bond-29 atom-29 atom-30" d="M 228.2,119.2 L 234.3,115.7" style="fill:none;fill-rule:evenodd;stroke:#000000;stroke-width:2.0px;stroke-linecap:butt;stroke-linejoin:miter;stroke-opacity:1"/>
<path class="bond-29 atom-29 atom-30" d="M 234.3,115.7 L 240.4,112.1" style="fill:none;fill-rule:evenodd;stroke:#FF0000;stroke-width:2.0px;stroke-linecap:butt;stroke-linejoin:miter;stroke-opacity:1"/>
<path class="bond-30 atom-29 atom-31" d="M 229.6,120.0 L 223.1,116.4" style="fill:none;fill-rule:evenodd;stroke:#000000;stroke-width:2.0px;stroke-linecap:butt;stroke-linejoin:miter;stroke-opacity:1"/>
<path class="bond-30 atom-29 atom-31" d="M 223.1,116.4 L 216.6,112.7" style="fill:none;fill-rule:evenodd;stroke:#0000FF;stroke-width:2.0px;stroke-linecap:butt;stroke-linejoin:miter;stroke-opacity:1"/>
<path class="bond-31 atom-31 atom-32" d="M 212.5,106.3 L 211.5,98.9" style="fill:none;fill-rule:evenodd;stroke:#0000FF;stroke-width:2.0px;stroke-linecap:butt;stroke-linejoin:miter;stroke-opacity:1"/>
<path class="bond-31 atom-31 atom-32" d="M 211.5,98.9 L 210.5,91.4" style="fill:none;fill-rule:evenodd;stroke:#000000;stroke-width:2.0px;stroke-linecap:butt;stroke-linejoin:miter;stroke-opacity:1"/>
<path class="bond-32 atom-32 atom-33" d="M 210.5,91.4 L 225.1,80.3" style="fill:none;fill-rule:evenodd;stroke:#000000;stroke-width:2.0px;stroke-linecap:butt;stroke-linejoin:miter;stroke-opacity:1"/>
<path class="bond-33 atom-33 atom-34" d="M 225.1,80.3 L 241.8,87.8" style="fill:none;fill-rule:evenodd;stroke:#000000;stroke-width:2.0px;stroke-linecap:butt;stroke-linejoin:miter;stroke-opacity:1"/>
<path class="bond-34 atom-33 atom-35" d="M 225.1,80.3 L 223.3,62.5" style="fill:none;fill-rule:evenodd;stroke:#000000;stroke-width:2.0px;stroke-linecap:butt;stroke-linejoin:miter;stroke-opacity:1"/>
<path class="bond-35 atom-32 atom-36" d="M 210.5,91.4 L 191.6,86.0" style="fill:none;fill-rule:evenodd;stroke:#000000;stroke-width:2.0px;stroke-linecap:butt;stroke-linejoin:miter;stroke-opacity:1"/>
<path class="bond-36 atom-36 atom-37" d="M 190.9,84.8 L 186.9,89.8" style="fill:none;fill-rule:evenodd;stroke:#000000;stroke-width:2.0px;stroke-linecap:butt;stroke-linejoin:miter;stroke-opacity:1"/>
<path class="bond-36 atom-36 atom-37" d="M 186.9,89.8 L 183.0,94.9" style="fill:none;fill-rule:evenodd;stroke:#FF0000;stroke-width:2.0px;stroke-linecap:butt;stroke-linejoin:miter;stroke-opacity:1"/>
<path class="bond-36 atom-36 atom-37" d="M 193.1,86.4 L 189.1,91.5" style="fill:none;fill-rule:evenodd;stroke:#000000;stroke-width:2.0px;stroke-linecap:butt;stroke-linejoin:miter;stroke-opacity:1"/>
<path class="bond-36 atom-36 atom-37" d="M 189.1,91.5 L 185.1,96.6" style="fill:none;fill-rule:evenodd;stroke:#FF0000;stroke-width:2.0px;stroke-linecap:butt;stroke-linejoin:miter;stroke-opacity:1"/>
<path class="bond-37 atom-36 atom-38" d="M 191.6,86.0 L 187.8,79.4" style="fill:none;fill-rule:evenodd;stroke:#000000;stroke-width:2.0px;stroke-linecap:butt;stroke-linejoin:miter;stroke-opacity:1"/>
<path class="bond-37 atom-36 atom-38" d="M 187.8,79.4 L 184.0,72.8" style="fill:none;fill-rule:evenodd;stroke:#0000FF;stroke-width:2.0px;stroke-linecap:butt;stroke-linejoin:miter;stroke-opacity:1"/>
<path class="bond-38 atom-38 atom-39" d="M 178.0,68.8 L 170.8,69.7" style="fill:none;fill-rule:evenodd;stroke:#0000FF;stroke-width:2.0px;stroke-linecap:butt;stroke-linejoin:miter;stroke-opacity:1"/>
<path class="bond-38 atom-38 atom-39" d="M 170.8,69.7 L 163.6,70.7" style="fill:none;fill-rule:evenodd;stroke:#000000;stroke-width:2.0px;stroke-linecap:butt;stroke-linejoin:miter;stroke-opacity:1"/>
<path class="bond-39 atom-38 atom-40" d="M 182.7,63.9 L 184.5,56.6" style="fill:none;fill-rule:evenodd;stroke:#0000FF;stroke-width:2.0px;stroke-linecap:butt;stroke-linejoin:miter;stroke-opacity:1"/>
<path class="bond-39 atom-38 atom-40" d="M 184.5,56.6 L 186.4,49.4" style="fill:none;fill-rule:evenodd;stroke:#000000;stroke-width:2.0px;stroke-linecap:butt;stroke-linejoin:miter;stroke-opacity:1"/>
<path class="bond-40 atom-40 atom-41" d="M 186.4,49.4 L 202.9,42.0" style="fill:none;fill-rule:evenodd;stroke:#000000;stroke-width:2.0px;stroke-linecap:butt;stroke-linejoin:miter;stroke-opacity:1"/>
<path class="bond-41 atom-41 atom-42" d="M 202.9,42.0 L 203.3,23.0" style="fill:none;fill-rule:evenodd;stroke:#000000;stroke-width:2.0px;stroke-linecap:butt;stroke-linejoin:miter;stroke-opacity:1"/>
<path class="bond-42 atom-42 atom-43" d="M 203.3,23.0 L 218.9,13.8" style="fill:none;fill-rule:evenodd;stroke:#000000;stroke-width:2.0px;stroke-linecap:butt;stroke-linejoin:miter;stroke-opacity:1"/>
<path class="bond-43 atom-42 atom-44" d="M 203.3,23.0 L 187.4,13.6" style="fill:none;fill-rule:evenodd;stroke:#000000;stroke-width:2.0px;stroke-linecap:butt;stroke-linejoin:miter;stroke-opacity:1"/>
<path class="bond-44 atom-40 atom-45" d="M 186.4,49.4 L 171.7,37.4" style="fill:none;fill-rule:evenodd;stroke:#000000;stroke-width:2.0px;stroke-linecap:butt;stroke-linejoin:miter;stroke-opacity:1"/>
<path class="bond-45 atom-45 atom-46" d="M 172.9,38.4 L 173.9,31.3" style="fill:none;fill-rule:evenodd;stroke:#000000;stroke-width:2.0px;stroke-linecap:butt;stroke-linejoin:miter;stroke-opacity:1"/>
<path class="bond-45 atom-45 atom-46" d="M 173.9,31.3 L 174.9,24.2" style="fill:none;fill-rule:evenodd;stroke:#FF0000;stroke-width:2.0px;stroke-linecap:butt;stroke-linejoin:miter;stroke-opacity:1"/>
<path class="bond-45 atom-45 atom-46" d="M 170.2,38.0 L 171.2,30.9" style="fill:none;fill-rule:evenodd;stroke:#000000;stroke-width:2.0px;stroke-linecap:butt;stroke-linejoin:miter;stroke-opacity:1"/>
<path class="bond-45 atom-45 atom-46" d="M 171.2,30.9 L 172.2,23.8" style="fill:none;fill-rule:evenodd;stroke:#FF0000;stroke-width:2.0px;stroke-linecap:butt;stroke-linejoin:miter;stroke-opacity:1"/>
<path class="bond-46 atom-45 atom-47" d="M 171.7,37.4 L 164.9,40.2" style="fill:none;fill-rule:evenodd;stroke:#000000;stroke-width:2.0px;stroke-linecap:butt;stroke-linejoin:miter;stroke-opacity:1"/>
<path class="bond-46 atom-45 atom-47" d="M 164.9,40.2 L 158.1,43.0" style="fill:none;fill-rule:evenodd;stroke:#0000FF;stroke-width:2.0px;stroke-linecap:butt;stroke-linejoin:miter;stroke-opacity:1"/>
<path class="bond-47 atom-47 atom-48" d="M 151.0,42.0 L 145.1,38.0" style="fill:none;fill-rule:evenodd;stroke:#0000FF;stroke-width:2.0px;stroke-linecap:butt;stroke-linejoin:miter;stroke-opacity:1"/>
<path class="bond-47 atom-47 atom-48" d="M 145.1,38.0 L 139.2,34.0" style="fill:none;fill-rule:evenodd;stroke:#000000;stroke-width:2.0px;stroke-linecap:butt;stroke-linejoin:miter;stroke-opacity:1"/>
<path class="bond-48 atom-48 atom-49" d="M 139.2,34.0 L 140.1,15.8" style="fill:none;fill-rule:evenodd;stroke:#000000;stroke-width:2.0px;stroke-linecap:butt;stroke-linejoin:miter;stroke-opacity:1"/>
<path class="bond-49 atom-48 atom-50" d="M 139.2,34.0 L 123.0,42.4" style="fill:none;fill-rule:evenodd;stroke:#000000;stroke-width:2.0px;stroke-linecap:butt;stroke-linejoin:miter;stroke-opacity:1"/>
<path class="bond-50 atom-50 atom-51" d="M 124.4,41.7 L 118.4,38.0" style="fill:none;fill-rule:evenodd;stroke:#000000;stroke-width:2.0px;stroke-linecap:butt;stroke-linejoin:miter;stroke-opacity:1"/>
<path class="bond-50 atom-50 atom-51" d="M 118.4,38.0 L 112.3,34.4" style="fill:none;fill-rule:evenodd;stroke:#FF0000;stroke-width:2.0px;stroke-linecap:butt;stroke-linejoin:miter;stroke-opacity:1"/>
<path class="bond-50 atom-50 atom-51" d="M 123.0,44.0 L 116.9,40.4" style="fill:none;fill-rule:evenodd;stroke:#000000;stroke-width:2.0px;stroke-linecap:butt;stroke-linejoin:miter;stroke-opacity:1"/>
<path class="bond-50 atom-50 atom-51" d="M 116.9,40.4 L 110.9,36.7" style="fill:none;fill-rule:evenodd;stroke:#FF0000;stroke-width:2.0px;stroke-linecap:butt;stroke-linejoin:miter;stroke-opacity:1"/>
<path class="bond-51 atom-50 atom-52" d="M 123.0,42.4 L 123.0,49.2" style="fill:none;fill-rule:evenodd;stroke:#000000;stroke-width:2.0px;stroke-linecap:butt;stroke-linejoin:miter;stroke-opacity:1"/>
<path class="bond-51 atom-50 atom-52" d="M 123.0,49.2 L 123.0,56.0" style="fill:none;fill-rule:evenodd;stroke:#0000FF;stroke-width:2.0px;stroke-linecap:butt;stroke-linejoin:miter;stroke-opacity:1"/>
<path class="bond-52 atom-52 atom-53" d="M 119.4,62.7 L 113.6,66.5" style="fill:none;fill-rule:evenodd;stroke:#0000FF;stroke-width:2.0px;stroke-linecap:butt;stroke-linejoin:miter;stroke-opacity:1"/>
<path class="bond-52 atom-52 atom-53" d="M 113.6,66.5 L 107.7,70.2" style="fill:none;fill-rule:evenodd;stroke:#000000;stroke-width:2.0px;stroke-linecap:butt;stroke-linejoin:miter;stroke-opacity:1"/>
<path class="bond-53 atom-53 atom-54" d="M 107.7,70.2 L 109.5,88.2" style="fill:none;fill-rule:evenodd;stroke:#000000;stroke-width:2.0px;stroke-linecap:butt;stroke-linejoin:miter;stroke-opacity:1"/>
<path class="bond-54 atom-53 atom-55" d="M 107.7,70.2 L 90.0,61.2" style="fill:none;fill-rule:evenodd;stroke:#000000;stroke-width:2.0px;stroke-linecap:butt;stroke-linejoin:miter;stroke-opacity:1"/>
<path class="bond-55 atom-55 atom-56" d="M 91.4,61.9 L 91.4,54.8" style="fill:none;fill-rule:evenodd;stroke:#000000;stroke-width:2.0px;stroke-linecap:butt;stroke-linejoin:miter;stroke-opacity:1"/>
<path class="bond-55 atom-55 atom-56" d="M 91.4,54.8 L 91.3,47.7" style="fill:none;fill-rule:evenodd;stroke:#FF0000;stroke-width:2.0px;stroke-linecap:butt;stroke-linejoin:miter;stroke-opacity:1"/>
<path class="bond-55 atom-55 atom-56" d="M 88.6,61.9 L 88.6,54.8" style="fill:none;fill-rule:evenodd;stroke:#000000;stroke-width:2.0px;stroke-linecap:butt;stroke-linejoin:miter;stroke-opacity:1"/>
<path class="bond-55 atom-55 atom-56" d="M 88.6,54.8 L 88.6,47.7" style="fill:none;fill-rule:evenodd;stroke:#FF0000;stroke-width:2.0px;stroke-linecap:butt;stroke-linejoin:miter;stroke-opacity:1"/>
<path class="bond-56 atom-55 atom-57" d="M 90.0,61.2 L 82.9,64.8" style="fill:none;fill-rule:evenodd;stroke:#000000;stroke-width:2.0px;stroke-linecap:butt;stroke-linejoin:miter;stroke-opacity:1"/>
<path class="bond-56 atom-55 atom-57" d="M 82.9,64.8 L 75.8,68.5" style="fill:none;fill-rule:evenodd;stroke:#0000FF;stroke-width:2.0px;stroke-linecap:butt;stroke-linejoin:miter;stroke-opacity:1"/>
<path class="bond-57 atom-57 atom-58" d="M 68.7,67.9 L 63.0,64.0" style="fill:none;fill-rule:evenodd;stroke:#0000FF;stroke-width:2.0px;stroke-linecap:butt;stroke-linejoin:miter;stroke-opacity:1"/>
<path class="bond-57 atom-57 atom-58" d="M 63.0,64.0 L 57.3,60.1" style="fill:none;fill-rule:evenodd;stroke:#000000;stroke-width:2.0px;stroke-linecap:butt;stroke-linejoin:miter;stroke-opacity:1"/>
<path class="bond-58 atom-57 atom-59" d="M 71.8,74.7 L 71.1,81.6" style="fill:none;fill-rule:evenodd;stroke:#0000FF;stroke-width:2.0px;stroke-linecap:butt;stroke-linejoin:miter;stroke-opacity:1"/>
<path class="bond-58 atom-57 atom-59" d="M 71.1,81.6 L 70.4,88.5" style="fill:none;fill-rule:evenodd;stroke:#000000;stroke-width:2.0px;stroke-linecap:butt;stroke-linejoin:miter;stroke-opacity:1"/>
<path class="bond-59 atom-59 atom-60" d="M 70.4,88.5 L 54.3,96.6" style="fill:none;fill-rule:evenodd;stroke:#000000;stroke-width:2.0px;stroke-linecap:butt;stroke-linejoin:miter;stroke-opacity:1"/>
<path class="bond-60 atom-60 atom-61" d="M 54.3,96.6 L 39.4,86.6" style="fill:none;fill-rule:evenodd;stroke:#000000;stroke-width:2.0px;stroke-linecap:butt;stroke-linejoin:miter;stroke-opacity:1"/>
<path class="bond-61 atom-61 atom-62" d="M 39.4,86.6 L 23.2,94.7" style="fill:none;fill-rule:evenodd;stroke:#000000;stroke-width:2.0px;stroke-linecap:butt;stroke-linejoin:miter;stroke-opacity:1"/>
<path class="bond-62 atom-61 atom-63" d="M 39.4,86.6 L 40.6,68.6" style="fill:none;fill-rule:evenodd;stroke:#000000;stroke-width:2.0px;stroke-linecap:butt;stroke-linejoin:miter;stroke-opacity:1"/>
<path class="bond-63 atom-59 atom-64" d="M 70.4,88.5 L 84.2,97.0" style="fill:none;fill-rule:evenodd;stroke:#000000;stroke-width:2.0px;stroke-linecap:butt;stroke-linejoin:miter;stroke-opacity:1"/>
<path class="bond-64 atom-64 atom-65" d="M 84.3,98.6 L 88.9,95.4" style="fill:none;fill-rule:evenodd;stroke:#000000;stroke-width:2.0px;stroke-linecap:butt;stroke-linejoin:miter;stroke-opacity:1"/>
<path class="bond-64 atom-64 atom-65" d="M 88.9,95.4 L 93.5,92.1" style="fill:none;fill-rule:evenodd;stroke:#FF0000;stroke-width:2.0px;stroke-linecap:butt;stroke-linejoin:miter;stroke-opacity:1"/>
<path class="bond-64 atom-64 atom-65" d="M 82.9,96.2 L 87.3,93.1" style="fill:none;fill-rule:evenodd;stroke:#000000;stroke-width:2.0px;stroke-linecap:butt;stroke-linejoin:miter;stroke-opacity:1"/>
<path class="bond-64 atom-64 atom-65" d="M 87.3,93.1 L 91.9,89.9" style="fill:none;fill-rule:evenodd;stroke:#FF0000;stroke-width:2.0px;stroke-linecap:butt;stroke-linejoin:miter;stroke-opacity:1"/>
<path class="bond-65 atom-64 atom-66" d="M 84.2,97.0 L 84.6,103.7" style="fill:none;fill-rule:evenodd;stroke:#000000;stroke-width:2.0px;stroke-linecap:butt;stroke-linejoin:miter;stroke-opacity:1"/>
<path class="bond-65 atom-64 atom-66" d="M 84.6,103.7 L 85.0,110.3" style="fill:none;fill-rule:evenodd;stroke:#0000FF;stroke-width:2.0px;stroke-linecap:butt;stroke-linejoin:miter;stroke-opacity:1"/>
<path class="bond-66 atom-66 atom-67" d="M 88.8,116.5 L 95.1,119.7" style="fill:none;fill-rule:evenodd;stroke:#0000FF;stroke-width:2.0px;stroke-linecap:butt;stroke-linejoin:miter;stroke-opacity:1"/>
<path class="bond-66 atom-66 atom-67" d="M 95.1,119.7 L 101.5,122.9" style="fill:none;fill-rule:evenodd;stroke:#000000;stroke-width:2.0px;stroke-linecap:butt;stroke-linejoin:miter;stroke-opacity:1"/>
<path class="bond-67 atom-66 atom-68" d="M 81.8,117.0 L 76.2,120.6" style="fill:none;fill-rule:evenodd;stroke:#0000FF;stroke-width:2.0px;stroke-linecap:butt;stroke-linejoin:miter;stroke-opacity:1"/>
<path class="bond-67 atom-66 atom-68" d="M 76.2,120.6 L 70.7,124.2" style="fill:none;fill-rule:evenodd;stroke:#000000;stroke-width:2.0px;stroke-linecap:butt;stroke-linejoin:miter;stroke-opacity:1"/>
<path class="bond-68 atom-68 atom-69" d="M 70.7,124.2 L 54.9,115.7" style="fill:none;fill-rule:evenodd;stroke:#000000;stroke-width:2.0px;stroke-linecap:butt;stroke-linejoin:miter;stroke-opacity:1"/>
<path class="bond-69 atom-69 atom-70" d="M 54.9,115.7 L 39.6,124.9" style="fill:none;fill-rule:evenodd;stroke:#000000;stroke-width:2.0px;stroke-linecap:butt;stroke-linejoin:miter;stroke-opacity:1"/>
<path class="bond-70 atom-70 atom-71" d="M 39.6,124.9 L 40.0,142.9" style="fill:none;fill-rule:evenodd;stroke:#000000;stroke-width:2.0px;stroke-linecap:butt;stroke-linejoin:miter;stroke-opacity:1"/>
<path class="bond-71 atom-70 atom-72" d="M 39.6,124.9 L 23.9,116.1" style="fill:none;fill-rule:evenodd;stroke:#000000;stroke-width:2.0px;stroke-linecap:butt;stroke-linejoin:miter;stroke-opacity:1"/>
<path class="bond-72 atom-68 atom-73" d="M 70.7,124.2 L 71.7,142.2" style="fill:none;fill-rule:evenodd;stroke:#000000;stroke-width:2.0px;stroke-linecap:butt;stroke-linejoin:miter;stroke-opacity:1"/>
<path class="bond-73 atom-73 atom-74" d="M 71.6,140.6 L 65.8,144.4" style="fill:none;fill-rule:evenodd;stroke:#000000;stroke-width:2.0px;stroke-linecap:butt;stroke-linejoin:miter;stroke-opacity:1"/>
<path class="bond-73 atom-73 atom-74" d="M 65.8,144.4 L 59.9,148.2" style="fill:none;fill-rule:evenodd;stroke:#FF0000;stroke-width:2.0px;stroke-linecap:butt;stroke-linejoin:miter;stroke-opacity:1"/>
<path class="bond-73 atom-73 atom-74" d="M 73.1,142.9 L 67.2,146.7" style="fill:none;fill-rule:evenodd;stroke:#000000;stroke-width:2.0px;stroke-linecap:butt;stroke-linejoin:miter;stroke-opacity:1"/>
<path class="bond-73 atom-73 atom-74" d="M 67.2,146.7 L 61.4,150.5" style="fill:none;fill-rule:evenodd;stroke:#FF0000;stroke-width:2.0px;stroke-linecap:butt;stroke-linejoin:miter;stroke-opacity:1"/>
<path class="bond-74 atom-73 atom-75" d="M 71.7,142.2 L 78.1,145.5" style="fill:none;fill-rule:evenodd;stroke:#000000;stroke-width:2.0px;stroke-linecap:butt;stroke-linejoin:miter;stroke-opacity:1"/>
<path class="bond-74 atom-73 atom-75" d="M 78.1,145.5 L 84.4,148.8" style="fill:none;fill-rule:evenodd;stroke:#0000FF;stroke-width:2.0px;stroke-linecap:butt;stroke-linejoin:miter;stroke-opacity:1"/>
<path class="bond-75 atom-75 atom-76" d="M 91.5,148.4 L 97.4,144.6" style="fill:none;fill-rule:evenodd;stroke:#0000FF;stroke-width:2.0px;stroke-linecap:butt;stroke-linejoin:miter;stroke-opacity:1"/>
<path class="bond-75 atom-75 atom-76" d="M 97.4,144.6 L 103.3,140.9" style="fill:none;fill-rule:evenodd;stroke:#000000;stroke-width:2.0px;stroke-linecap:butt;stroke-linejoin:miter;stroke-opacity:1"/>
<path class="bond-76 atom-75 atom-77" d="M 88.1,155.0 L 88.3,161.9" style="fill:none;fill-rule:evenodd;stroke:#0000FF;stroke-width:2.0px;stroke-linecap:butt;stroke-linejoin:miter;stroke-opacity:1"/>
<path class="bond-76 atom-75 atom-77" d="M 88.3,161.9 L 88.6,168.7" style="fill:none;fill-rule:evenodd;stroke:#000000;stroke-width:2.0px;stroke-linecap:butt;stroke-linejoin:miter;stroke-opacity:1"/>
<path class="bond-77 atom-77 atom-78" d="M 88.6,168.7 L 73.1,178.0" style="fill:none;fill-rule:evenodd;stroke:#000000;stroke-width:2.0px;stroke-linecap:butt;stroke-linejoin:miter;stroke-opacity:1"/>
<path class="bond-78 atom-78 atom-79" d="M 73.1,178.0 L 73.5,196.1" style="fill:none;fill-rule:evenodd;stroke:#000000;stroke-width:2.0px;stroke-linecap:butt;stroke-linejoin:miter;stroke-opacity:1"/>
<path class="bond-79 atom-78 atom-80" d="M 73.1,178.0 L 57.3,169.2" style="fill:none;fill-rule:evenodd;stroke:#000000;stroke-width:2.0px;stroke-linecap:butt;stroke-linejoin:miter;stroke-opacity:1"/>
<path class="bond-80 atom-77 atom-81" d="M 88.6,168.7 L 104.5,177.5" style="fill:none;fill-rule:evenodd;stroke:#000000;stroke-width:2.0px;stroke-linecap:butt;stroke-linejoin:miter;stroke-opacity:1"/>
<path class="bond-81 atom-81 atom-82" d="M 104.5,179.0 L 110.6,175.4" style="fill:none;fill-rule:evenodd;stroke:#000000;stroke-width:2.0px;stroke-linecap:butt;stroke-linejoin:miter;stroke-opacity:1"/>
<path class="bond-81 atom-81 atom-82" d="M 110.6,175.4 L 116.6,171.8" style="fill:none;fill-rule:evenodd;stroke:#FF0000;stroke-width:2.0px;stroke-linecap:butt;stroke-linejoin:miter;stroke-opacity:1"/>
<path class="bond-81 atom-81 atom-82" d="M 103.1,176.7 L 109.2,173.1" style="fill:none;fill-rule:evenodd;stroke:#000000;stroke-width:2.0px;stroke-linecap:butt;stroke-linejoin:miter;stroke-opacity:1"/>
<path class="bond-81 atom-81 atom-82" d="M 109.2,173.1 L 115.2,169.5" style="fill:none;fill-rule:evenodd;stroke:#FF0000;stroke-width:2.0px;stroke-linecap:butt;stroke-linejoin:miter;stroke-opacity:1"/>
<path class="bond-82 atom-81 atom-83" d="M 104.5,177.5 L 104.5,184.3" style="fill:none;fill-rule:evenodd;stroke:#000000;stroke-width:2.0px;stroke-linecap:butt;stroke-linejoin:miter;stroke-opacity:1"/>
<path class="bond-82 atom-81 atom-83" d="M 104.5,184.3 L 104.6,191.2" style="fill:none;fill-rule:evenodd;stroke:#0000FF;stroke-width:2.0px;stroke-linecap:butt;stroke-linejoin:miter;stroke-opacity:1"/>
<path class="bond-83 atom-83 atom-84" d="M 101.1,197.7 L 95.1,201.2" style="fill:none;fill-rule:evenodd;stroke:#0000FF;stroke-width:2.0px;stroke-linecap:butt;stroke-linejoin:miter;stroke-opacity:1"/>
<path class="bond-83 atom-83 atom-84" d="M 95.1,201.2 L 89.0,204.8" style="fill:none;fill-rule:evenodd;stroke:#000000;stroke-width:2.0px;stroke-linecap:butt;stroke-linejoin:miter;stroke-opacity:1"/>
<path class="bond-84 atom-83 atom-8" d="M 108.2,197.7 L 114.3,201.2" style="fill:none;fill-rule:evenodd;stroke:#0000FF;stroke-width:2.0px;stroke-linecap:butt;stroke-linejoin:miter;stroke-opacity:1"/>
<path class="bond-84 atom-83 atom-8" d="M 114.3,201.2 L 120.4,204.7" style="fill:none;fill-rule:evenodd;stroke:#000000;stroke-width:2.0px;stroke-linecap:butt;stroke-linejoin:miter;stroke-opacity:1"/>
<path d="M 152.3,277.7 L 151.5,277.3 L 151.5,276.3" style="fill:none;stroke:#000000;stroke-width:2.0px;stroke-linecap:butt;stroke-linejoin:miter;stroke-opacity:1;"/>
<path d="M 151.5,260.1 L 151.6,259.1 L 150.8,258.7" style="fill:none;stroke:#000000;stroke-width:2.0px;stroke-linecap:butt;stroke-linejoin:miter;stroke-opacity:1;"/>
<path d="M 136.7,250.5 L 135.9,250.0 L 135.9,249.1" style="fill:none;stroke:#000000;stroke-width:2.0px;stroke-linecap:butt;stroke-linejoin:miter;stroke-opacity:1;"/>
<path d="M 135.3,196.1 L 136.1,195.7 L 136.1,195.3" style="fill:none;stroke:#000000;stroke-width:2.0px;stroke-linecap:butt;stroke-linejoin:miter;stroke-opacity:1;"/>
<path d="M 151.8,151.4 L 151.8,150.5 L 152.6,150.0" style="fill:none;stroke:#000000;stroke-width:2.0px;stroke-linecap:butt;stroke-linejoin:miter;stroke-opacity:1;"/>
<path d="M 166.8,177.1 L 167.6,177.6 L 167.9,177.4" style="fill:none;stroke:#000000;stroke-width:2.0px;stroke-linecap:butt;stroke-linejoin:miter;stroke-opacity:1;"/>
<path d="M 182.9,150.4 L 182.9,150.1 L 183.7,149.6" style="fill:none;stroke:#000000;stroke-width:2.0px;stroke-linecap:butt;stroke-linejoin:miter;stroke-opacity:1;"/>
<path d="M 197.6,141.0 L 198.4,140.5 L 198.7,140.6" style="fill:none;stroke:#000000;stroke-width:2.0px;stroke-linecap:butt;stroke-linejoin:miter;stroke-opacity:1;"/>
<path d="M 244.8,148.1 L 245.6,148.6 L 246.4,148.2" style="fill:none;stroke:#000000;stroke-width:2.0px;stroke-linecap:butt;stroke-linejoin:miter;stroke-opacity:1;"/>
<path d="M 229.6,121.0 L 229.6,120.0 L 229.3,119.8" style="fill:none;stroke:#000000;stroke-width:2.0px;stroke-linecap:butt;stroke-linejoin:miter;stroke-opacity:1;"/>
<path d="M 192.6,86.3 L 191.6,86.0 L 191.5,85.7" style="fill:none;stroke:#000000;stroke-width:2.0px;stroke-linecap:butt;stroke-linejoin:miter;stroke-opacity:1;"/>
<path d="M 202.1,42.3 L 202.9,42.0 L 202.9,41.0" style="fill:none;stroke:#000000;stroke-width:2.0px;stroke-linecap:butt;stroke-linejoin:miter;stroke-opacity:1;"/>
<path d="M 172.4,38.0 L 171.7,37.4 L 171.3,37.6" style="fill:none;stroke:#000000;stroke-width:2.0px;stroke-linecap:butt;stroke-linejoin:miter;stroke-opacity:1;"/>
<path d="M 123.8,42.0 L 123.0,42.4 L 123.0,42.8" style="fill:none;stroke:#000000;stroke-width:2.0px;stroke-linecap:butt;stroke-linejoin:miter;stroke-opacity:1;"/>
<path d="M 90.9,61.6 L 90.0,61.2 L 89.7,61.3" style="fill:none;stroke:#000000;stroke-width:2.0px;stroke-linecap:butt;stroke-linejoin:miter;stroke-opacity:1;"/>
<path d="M 55.1,96.2 L 54.3,96.6 L 53.6,96.1" style="fill:none;stroke:#000000;stroke-width:2.0px;stroke-linecap:butt;stroke-linejoin:miter;stroke-opacity:1;"/>
<path d="M 83.5,96.6 L 84.2,97.0 L 84.2,97.3" style="fill:none;stroke:#000000;stroke-width:2.0px;stroke-linecap:butt;stroke-linejoin:miter;stroke-opacity:1;"/>
<path d="M 55.7,116.1 L 54.9,115.7 L 54.1,116.2" style="fill:none;stroke:#000000;stroke-width:2.0px;stroke-linecap:butt;stroke-linejoin:miter;stroke-opacity:1;"/>
<path d="M 71.6,141.3 L 71.7,142.2 L 72.0,142.4" style="fill:none;stroke:#000000;stroke-width:2.0px;stroke-linecap:butt;stroke-linejoin:miter;stroke-opacity:1;"/>
<path d="M 103.7,177.0 L 104.5,177.5 L 104.5,177.8" style="fill:none;stroke:#000000;stroke-width:2.0px;stroke-linecap:butt;stroke-linejoin:miter;stroke-opacity:1;"/>
<path class="atom-7" d="M 93.5 228.0 L 94.5 228.0 L 94.5 231.3 L 98.5 231.3 L 98.5 228.0 L 99.5 228.0 L 99.5 235.7 L 98.5 235.7 L 98.5 232.2 L 94.5 232.2 L 94.5 235.7 L 93.5 235.7 L 93.5 228.0 " fill="#FF0000"/>
<path class="atom-7" d="M 101.1 231.8 Q 101.1 230.0, 102.0 229.0 Q 102.9 227.9, 104.6 227.9 Q 106.3 227.9, 107.2 229.0 Q 108.1 230.0, 108.1 231.8 Q 108.1 233.7, 107.2 234.8 Q 106.3 235.8, 104.6 235.8 Q 102.9 235.8, 102.0 234.8 Q 101.1 233.7, 101.1 231.8 M 104.6 235.0 Q 105.8 235.0, 106.4 234.2 Q 107.1 233.4, 107.1 231.8 Q 107.1 230.3, 106.4 229.6 Q 105.8 228.8, 104.6 228.8 Q 103.4 228.8, 102.8 229.6 Q 102.2 230.3, 102.2 231.8 Q 102.2 233.4, 102.8 234.2 Q 103.4 235.0, 104.6 235.0 " fill="#FF0000"/>
<path class="atom-10" d="M 148.2 204.8 Q 148.2 203.0, 149.1 201.9 Q 150.0 200.9, 151.7 200.9 Q 153.4 200.9, 154.3 201.9 Q 155.3 203.0, 155.3 204.8 Q 155.3 206.7, 154.3 207.7 Q 153.4 208.8, 151.7 208.8 Q 150.0 208.8, 149.1 207.7 Q 148.2 206.7, 148.2 204.8 M 151.7 207.9 Q 152.9 207.9, 153.5 207.1 Q 154.2 206.4, 154.2 204.8 Q 154.2 203.3, 153.5 202.5 Q 152.9 201.8, 151.7 201.8 Q 150.6 201.8, 149.9 202.5 Q 149.3 203.3, 149.3 204.8 Q 149.3 206.4, 149.9 207.1 Q 150.6 207.9, 151.7 207.9 " fill="#FF0000"/>
<path class="atom-11" d="M 125.7 173.8 L 126.7 173.8 L 126.7 177.0 L 130.7 177.0 L 130.7 173.8 L 131.7 173.8 L 131.7 181.5 L 130.7 181.5 L 130.7 177.9 L 126.7 177.9 L 126.7 181.5 L 125.7 181.5 L 125.7 173.8 " fill="#0000FF"/>
<path class="atom-11" d="M 134.4 173.8 L 137.0 177.8 Q 137.2 178.2, 137.6 179.0 Q 138.0 179.7, 138.0 179.7 L 138.0 173.8 L 139.1 173.8 L 139.1 181.5 L 138.0 181.5 L 135.3 177.0 Q 135.0 176.5, 134.6 175.9 Q 134.3 175.3, 134.2 175.1 L 134.2 181.5 L 133.2 181.5 L 133.2 173.8 L 134.4 173.8 " fill="#0000FF"/>
<path class="atom-16" d="M 164.1 195.7 Q 164.1 193.9, 165.0 192.8 Q 165.9 191.8, 167.7 191.8 Q 169.4 191.8, 170.3 192.8 Q 171.2 193.9, 171.2 195.7 Q 171.2 197.6, 170.3 198.6 Q 169.3 199.7, 167.7 199.7 Q 166.0 199.7, 165.0 198.6 Q 164.1 197.6, 164.1 195.7 M 167.7 198.8 Q 168.8 198.8, 169.5 198.0 Q 170.1 197.2, 170.1 195.7 Q 170.1 194.2, 169.5 193.4 Q 168.8 192.7, 167.7 192.7 Q 166.5 192.7, 165.8 193.4 Q 165.2 194.2, 165.2 195.7 Q 165.2 197.3, 165.8 198.0 Q 166.5 198.8, 167.7 198.8 " fill="#FF0000"/>
<path class="atom-17" d="M 181.5 164.5 L 184.0 168.6 Q 184.3 169.0, 184.7 169.7 Q 185.1 170.4, 185.1 170.5 L 185.1 164.5 L 186.1 164.5 L 186.1 172.2 L 185.1 172.2 L 182.4 167.7 Q 182.1 167.2, 181.7 166.6 Q 181.4 166.0, 181.3 165.8 L 181.3 172.2 L 180.3 172.2 L 180.3 164.5 L 181.5 164.5 " fill="#0000FF"/>
<path class="atom-21" d="M 194.3 122.5 Q 194.3 120.6, 195.2 119.6 Q 196.1 118.6, 197.8 118.6 Q 199.5 118.6, 200.4 119.6 Q 201.4 120.6, 201.4 122.5 Q 201.4 124.3, 200.4 125.4 Q 199.5 126.5, 197.8 126.5 Q 196.1 126.5, 195.2 125.4 Q 194.3 124.4, 194.3 122.5 M 197.8 125.6 Q 199.0 125.6, 199.6 124.8 Q 200.3 124.0, 200.3 122.5 Q 200.3 121.0, 199.6 120.2 Q 199.0 119.4, 197.8 119.4 Q 196.7 119.4, 196.0 120.2 Q 195.4 121.0, 195.4 122.5 Q 195.4 124.0, 196.0 124.8 Q 196.7 125.6, 197.8 125.6 " fill="#FF0000"/>
<path class="atom-22" d="M 212.5 145.0 L 215.1 149.1 Q 215.3 149.5, 215.7 150.2 Q 216.1 150.9, 216.1 151.0 L 216.1 145.0 L 217.2 145.0 L 217.2 152.7 L 216.1 152.7 L 213.4 148.2 Q 213.1 147.7, 212.7 147.1 Q 212.4 146.5, 212.3 146.3 L 212.3 152.7 L 211.3 152.7 L 211.3 145.0 L 212.5 145.0 " fill="#0000FF"/>
<path class="atom-30" d="M 241.7 110.9 Q 241.7 109.1, 242.6 108.0 Q 243.5 107.0, 245.2 107.0 Q 246.9 107.0, 247.9 108.0 Q 248.8 109.1, 248.8 110.9 Q 248.8 112.8, 247.8 113.9 Q 246.9 114.9, 245.2 114.9 Q 243.5 114.9, 242.6 113.9 Q 241.7 112.8, 241.7 110.9 M 245.2 114.0 Q 246.4 114.0, 247.0 113.3 Q 247.7 112.5, 247.7 110.9 Q 247.7 109.4, 247.0 108.7 Q 246.4 107.9, 245.2 107.9 Q 244.1 107.9, 243.4 108.6 Q 242.8 109.4, 242.8 110.9 Q 242.8 112.5, 243.4 113.3 Q 244.1 114.0, 245.2 114.0 " fill="#FF0000"/>
<path class="atom-31" d="M 202.6 106.9 L 203.7 106.9 L 203.7 110.2 L 207.6 110.2 L 207.6 106.9 L 208.7 106.9 L 208.7 114.6 L 207.6 114.6 L 207.6 111.1 L 203.7 111.1 L 203.7 114.6 L 202.6 114.6 L 202.6 106.9 " fill="#0000FF"/>
<path class="atom-31" d="M 211.4 106.9 L 213.9 111.0 Q 214.2 111.4, 214.6 112.1 Q 215.0 112.9, 215.0 112.9 L 215.0 106.9 L 216.0 106.9 L 216.0 114.6 L 215.0 114.6 L 212.2 110.2 Q 211.9 109.6, 211.6 109.0 Q 211.3 108.5, 211.2 108.3 L 211.2 114.6 L 210.2 114.6 L 210.2 106.9 L 211.4 106.9 " fill="#0000FF"/>
<path class="atom-37" d="M 177.0 100.3 Q 177.0 98.4, 177.9 97.4 Q 178.8 96.4, 180.6 96.4 Q 182.3 96.4, 183.2 97.4 Q 184.1 98.4, 184.1 100.3 Q 184.1 102.1, 183.2 103.2 Q 182.2 104.3, 180.6 104.3 Q 178.9 104.3, 177.9 103.2 Q 177.0 102.2, 177.0 100.3 M 180.6 103.4 Q 181.7 103.4, 182.4 102.6 Q 183.0 101.8, 183.0 100.3 Q 183.0 98.8, 182.4 98.0 Q 181.7 97.2, 180.6 97.2 Q 179.4 97.2, 178.7 98.0 Q 178.1 98.8, 178.1 100.3 Q 178.1 101.8, 178.7 102.6 Q 179.4 103.4, 180.6 103.4 " fill="#FF0000"/>
<path class="atom-38" d="M 179.8 64.5 L 182.3 68.6 Q 182.6 69.0, 183.0 69.7 Q 183.4 70.4, 183.4 70.5 L 183.4 64.5 L 184.4 64.5 L 184.4 72.2 L 183.4 72.2 L 180.7 67.7 Q 180.3 67.2, 180.0 66.6 Q 179.7 66.0, 179.6 65.8 L 179.6 72.2 L 178.6 72.2 L 178.6 64.5 L 179.8 64.5 " fill="#0000FF"/>
<path class="atom-46" d="M 170.7 19.4 Q 170.7 17.6, 171.6 16.5 Q 172.5 15.5, 174.2 15.5 Q 175.9 15.5, 176.8 16.5 Q 177.7 17.6, 177.7 19.4 Q 177.7 21.3, 176.8 22.3 Q 175.9 23.4, 174.2 23.4 Q 172.5 23.4, 171.6 22.3 Q 170.7 21.3, 170.7 19.4 M 174.2 22.5 Q 175.4 22.5, 176.0 21.7 Q 176.6 20.9, 176.6 19.4 Q 176.6 17.9, 176.0 17.1 Q 175.4 16.4, 174.2 16.4 Q 173.0 16.4, 172.4 17.1 Q 171.8 17.9, 171.8 19.4 Q 171.8 21.0, 172.4 21.7 Q 173.0 22.5, 174.2 22.5 " fill="#FF0000"/>
<path class="atom-47" d="M 152.9 40.5 L 155.4 44.6 Q 155.6 45.0, 156.0 45.7 Q 156.4 46.5, 156.4 46.5 L 156.4 40.5 L 157.5 40.5 L 157.5 48.2 L 156.4 48.2 L 153.7 43.8 Q 153.4 43.3, 153.1 42.7 Q 152.7 42.1, 152.6 41.9 L 152.6 48.2 L 151.6 48.2 L 151.6 40.5 L 152.9 40.5 " fill="#0000FF"/>
<path class="atom-47" d="M 151.5 49.0 L 152.6 49.0 L 152.6 52.3 L 156.5 52.3 L 156.5 49.0 L 157.6 49.0 L 157.6 56.7 L 156.5 56.7 L 156.5 53.1 L 152.6 53.1 L 152.6 56.7 L 151.5 56.7 L 151.5 49.0 " fill="#0000FF"/>
<path class="atom-51" d="M 103.9 33.1 Q 103.9 31.2, 104.8 30.2 Q 105.7 29.2, 107.4 29.2 Q 109.2 29.2, 110.1 30.2 Q 111.0 31.2, 111.0 33.1 Q 111.0 34.9, 110.1 36.0 Q 109.1 37.1, 107.4 37.1 Q 105.8 37.1, 104.8 36.0 Q 103.9 35.0, 103.9 33.1 M 107.4 36.2 Q 108.6 36.2, 109.2 35.4 Q 109.9 34.6, 109.9 33.1 Q 109.9 31.6, 109.2 30.8 Q 108.6 30.0, 107.4 30.0 Q 106.3 30.0, 105.6 30.8 Q 105.0 31.6, 105.0 33.1 Q 105.0 34.6, 105.6 35.4 Q 106.3 36.2, 107.4 36.2 " fill="#FF0000"/>
<path class="atom-52" d="M 121.2 56.6 L 123.7 60.7 Q 124.0 61.1, 124.4 61.8 Q 124.8 62.5, 124.8 62.6 L 124.8 56.6 L 125.8 56.6 L 125.8 64.3 L 124.8 64.3 L 122.1 59.8 Q 121.8 59.3, 121.4 58.7 Q 121.1 58.1, 121.0 57.9 L 121.0 64.3 L 120.0 64.3 L 120.0 56.6 L 121.2 56.6 " fill="#0000FF"/>
<path class="atom-52" d="M 127.3 56.6 L 128.4 56.6 L 128.4 59.9 L 132.3 59.9 L 132.3 56.6 L 133.4 56.6 L 133.4 64.3 L 132.3 64.3 L 132.3 60.8 L 128.4 60.8 L 128.4 64.3 L 127.3 64.3 L 127.3 56.6 " fill="#0000FF"/>
<path class="atom-56" d="M 86.4 43.1 Q 86.4 41.2, 87.4 40.2 Q 88.3 39.2, 90.0 39.2 Q 91.7 39.2, 92.6 40.2 Q 93.5 41.2, 93.5 43.1 Q 93.5 45.0, 92.6 46.0 Q 91.7 47.1, 90.0 47.1 Q 88.3 47.1, 87.4 46.0 Q 86.4 45.0, 86.4 43.1 M 90.0 46.2 Q 91.1 46.2, 91.8 45.4 Q 92.4 44.6, 92.4 43.1 Q 92.4 41.6, 91.8 40.8 Q 91.1 40.0, 90.0 40.0 Q 88.8 40.0, 88.2 40.8 Q 87.5 41.6, 87.5 43.1 Q 87.5 44.6, 88.2 45.4 Q 88.8 46.2, 90.0 46.2 " fill="#FF0000"/>
<path class="atom-57" d="M 70.5 66.4 L 73.1 70.5 Q 73.3 70.9, 73.7 71.6 Q 74.1 72.3, 74.1 72.4 L 74.1 66.4 L 75.2 66.4 L 75.2 74.1 L 74.1 74.1 L 71.4 69.7 Q 71.1 69.1, 70.7 68.5 Q 70.4 67.9, 70.3 67.7 L 70.3 74.1 L 69.3 74.1 L 69.3 66.4 L 70.5 66.4 " fill="#0000FF"/>
<path class="atom-65" d="M 93.3 88.1 Q 93.3 86.3, 94.2 85.2 Q 95.2 84.2, 96.9 84.2 Q 98.6 84.2, 99.5 85.2 Q 100.4 86.3, 100.4 88.1 Q 100.4 90.0, 99.5 91.1 Q 98.5 92.1, 96.9 92.1 Q 95.2 92.1, 94.2 91.1 Q 93.3 90.0, 93.3 88.1 M 96.9 91.2 Q 98.0 91.2, 98.7 90.5 Q 99.3 89.7, 99.3 88.1 Q 99.3 86.6, 98.7 85.9 Q 98.0 85.1, 96.9 85.1 Q 95.7 85.1, 95.0 85.8 Q 94.4 86.6, 94.4 88.1 Q 94.4 89.7, 95.0 90.5 Q 95.7 91.2, 96.9 91.2 " fill="#FF0000"/>
<path class="atom-66" d="M 83.6 110.9 L 86.1 115.0 Q 86.3 115.4, 86.7 116.1 Q 87.1 116.8, 87.2 116.9 L 87.2 110.9 L 88.2 110.9 L 88.2 118.6 L 87.1 118.6 L 84.4 114.1 Q 84.1 113.6, 83.8 113.0 Q 83.5 112.4, 83.4 112.2 L 83.4 118.6 L 82.4 118.6 L 82.4 110.9 L 83.6 110.9 " fill="#0000FF"/>
<path class="atom-74" d="M 53.0 152.0 Q 53.0 150.2, 53.9 149.2 Q 54.8 148.1, 56.5 148.1 Q 58.2 148.1, 59.1 149.2 Q 60.1 150.2, 60.1 152.0 Q 60.1 153.9, 59.1 155.0 Q 58.2 156.0, 56.5 156.0 Q 54.8 156.0, 53.9 155.0 Q 53.0 153.9, 53.0 152.0 M 56.5 155.2 Q 57.7 155.2, 58.3 154.4 Q 59.0 153.6, 59.0 152.0 Q 59.0 150.5, 58.3 149.8 Q 57.7 149.0, 56.5 149.0 Q 55.4 149.0, 54.7 149.8 Q 54.1 150.5, 54.1 152.0 Q 54.1 153.6, 54.7 154.4 Q 55.4 155.2, 56.5 155.2 " fill="#FF0000"/>
<path class="atom-75" d="M 86.2 146.8 L 88.8 150.8 Q 89.0 151.2, 89.4 152.0 Q 89.8 152.7, 89.8 152.7 L 89.8 146.8 L 90.9 146.8 L 90.9 154.4 L 89.8 154.4 L 87.1 150.0 Q 86.8 149.5, 86.4 148.9 Q 86.1 148.3, 86.0 148.1 L 86.0 154.4 L 85.0 154.4 L 85.0 146.8 L 86.2 146.8 " fill="#0000FF"/>
<path class="atom-82" d="M 116.5 168.2 Q 116.5 166.4, 117.4 165.3 Q 118.3 164.3, 120.1 164.3 Q 121.8 164.3, 122.7 165.3 Q 123.6 166.4, 123.6 168.2 Q 123.6 170.1, 122.7 171.2 Q 121.7 172.2, 120.1 172.2 Q 118.4 172.2, 117.4 171.2 Q 116.5 170.1, 116.5 168.2 M 120.1 171.3 Q 121.2 171.3, 121.9 170.6 Q 122.5 169.8, 122.5 168.2 Q 122.5 166.7, 121.9 166.0 Q 121.2 165.2, 120.1 165.2 Q 118.9 165.2, 118.2 165.9 Q 117.6 166.7, 117.6 168.2 Q 117.6 169.8, 118.2 170.6 Q 118.9 171.3, 120.1 171.3 " fill="#FF0000"/>
<path class="atom-83" d="M 103.0 191.8 L 105.5 195.9 Q 105.7 196.3, 106.1 197.0 Q 106.5 197.7, 106.6 197.8 L 106.6 191.8 L 107.6 191.8 L 107.6 199.5 L 106.5 199.5 L 103.8 195.0 Q 103.5 194.5, 103.2 193.9 Q 102.8 193.3, 102.7 193.1 L 102.7 199.5 L 101.7 199.5 L 101.7 191.8 L 103.0 191.8 " fill="#0000FF"/>
</svg>