<svg xmlns="http://www.w3.org/2000/svg" xmlns:rdkit="http://www.rdkit.org/xml" xmlns:xlink="http://www.w3.org/1999/xlink" version="1.1" baseProfile="full" xml:space="preserve" width="300px" height="200px" viewBox="0 0 300 200">
<!-- END OF HEADER -->
<rect style="opacity:1.0;fill:#FFFFFF;stroke:none" width="300.0" height="200.0" x="0.0" y="0.0"> </rect>
<path class="bond-0 atom-0 atom-1" d="M 272.2,87.5 L 254.0,99.9" style="fill:none;fill-rule:evenodd;stroke:#000000;stroke-width:2.0px;stroke-linecap:butt;stroke-linejoin:miter;stroke-opacity:1"/>
<path class="bond-0 atom-0 atom-1" d="M 254.0,99.9 L 235.8,112.3" style="fill:none;fill-rule:evenodd;stroke:#0000FF;stroke-width:2.0px;stroke-linecap:butt;stroke-linejoin:miter;stroke-opacity:1"/>
<path class="bond-1 atom-1 atom-2" d="M 227.9,126.9 L 227.1,146.2" style="fill:none;fill-rule:evenodd;stroke:#0000FF;stroke-width:2.0px;stroke-linecap:butt;stroke-linejoin:miter;stroke-opacity:1"/>
<path class="bond-1 atom-1 atom-2" d="M 227.1,146.2 L 226.3,165.5" style="fill:none;fill-rule:evenodd;stroke:#000000;stroke-width:2.0px;stroke-linecap:butt;stroke-linejoin:miter;stroke-opacity:1"/>
<path class="bond-2 atom-2 atom-3" d="M 226.3,165.5 L 206.9,172.9" style="fill:none;fill-rule:evenodd;stroke:#000000;stroke-width:2.0px;stroke-linecap:butt;stroke-linejoin:miter;stroke-opacity:1"/>
<path class="bond-2 atom-2 atom-3" d="M 206.9,172.9 L 187.4,180.3" style="fill:none;fill-rule:evenodd;stroke:#0000FF;stroke-width:2.0px;stroke-linecap:butt;stroke-linejoin:miter;stroke-opacity:1"/>
<path class="bond-2 atom-2 atom-3" d="M 219.0,160.2 L 201.8,166.7" style="fill:none;fill-rule:evenodd;stroke:#000000;stroke-width:2.0px;stroke-linecap:butt;stroke-linejoin:miter;stroke-opacity:1"/>
<path class="bond-2 atom-2 atom-3" d="M 201.8,166.7 L 184.7,173.2" style="fill:none;fill-rule:evenodd;stroke:#0000FF;stroke-width:2.0px;stroke-linecap:butt;stroke-linejoin:miter;stroke-opacity:1"/>
<path class="bond-3 atom-3 atom-4" d="M 173.2,173.7 L 162.7,158.6" style="fill:none;fill-rule:evenodd;stroke:#0000FF;stroke-width:2.0px;stroke-linecap:butt;stroke-linejoin:miter;stroke-opacity:1"/>
<path class="bond-3 atom-3 atom-4" d="M 162.7,158.6 L 152.3,143.5" style="fill:none;fill-rule:evenodd;stroke:#000000;stroke-width:2.0px;stroke-linecap:butt;stroke-linejoin:miter;stroke-opacity:1"/>
<path class="bond-4 atom-4 atom-5" d="M 152.3,143.5 L 181.0,104.2" style="fill:none;fill-rule:evenodd;stroke:#000000;stroke-width:2.0px;stroke-linecap:butt;stroke-linejoin:miter;stroke-opacity:1"/>
<path class="bond-4 atom-4 atom-5" d="M 161.6,143.6 L 184.0,112.9" style="fill:none;fill-rule:evenodd;stroke:#000000;stroke-width:2.0px;stroke-linecap:butt;stroke-linejoin:miter;stroke-opacity:1"/>
<path class="bond-5 atom-5 atom-6" d="M 181.0,104.2 L 160.2,59.3" style="fill:none;fill-rule:evenodd;stroke:#000000;stroke-width:2.0px;stroke-linecap:butt;stroke-linejoin:miter;stroke-opacity:1"/>
<path class="bond-6 atom-6 atom-7" d="M 162.0,63.2 L 172.5,49.0" style="fill:none;fill-rule:evenodd;stroke:#000000;stroke-width:2.0px;stroke-linecap:butt;stroke-linejoin:miter;stroke-opacity:1"/>
<path class="bond-6 atom-6 atom-7" d="M 172.5,49.0 L 182.9,34.8" style="fill:none;fill-rule:evenodd;stroke:#FF0000;stroke-width:2.0px;stroke-linecap:butt;stroke-linejoin:miter;stroke-opacity:1"/>
<path class="bond-6 atom-6 atom-7" d="M 155.7,59.0 L 166.4,44.5" style="fill:none;fill-rule:evenodd;stroke:#000000;stroke-width:2.0px;stroke-linecap:butt;stroke-linejoin:miter;stroke-opacity:1"/>
<path class="bond-6 atom-6 atom-7" d="M 166.4,44.5 L 176.8,30.3" style="fill:none;fill-rule:evenodd;stroke:#FF0000;stroke-width:2.0px;stroke-linecap:butt;stroke-linejoin:miter;stroke-opacity:1"/>
<path class="bond-7 atom-6 atom-8" d="M 160.2,59.3 L 138.8,57.8" style="fill:none;fill-rule:evenodd;stroke:#000000;stroke-width:2.0px;stroke-linecap:butt;stroke-linejoin:miter;stroke-opacity:1"/>
<path class="bond-7 atom-6 atom-8" d="M 138.8,57.8 L 117.4,56.4" style="fill:none;fill-rule:evenodd;stroke:#0000FF;stroke-width:2.0px;stroke-linecap:butt;stroke-linejoin:miter;stroke-opacity:1"/>
<path class="bond-8 atom-8 atom-9" d="M 103.2,65.3 L 92.2,81.1" style="fill:none;fill-rule:evenodd;stroke:#0000FF;stroke-width:2.0px;stroke-linecap:butt;stroke-linejoin:miter;stroke-opacity:1"/>
<path class="bond-8 atom-8 atom-9" d="M 92.2,81.1 L 81.2,96.9" style="fill:none;fill-rule:evenodd;stroke:#000000;stroke-width:2.0px;stroke-linecap:butt;stroke-linejoin:miter;stroke-opacity:1"/>
<path class="bond-9 atom-9 atom-10" d="M 83.7,93.3 L 63.9,91.9" style="fill:none;fill-rule:evenodd;stroke:#000000;stroke-width:2.0px;stroke-linecap:butt;stroke-linejoin:miter;stroke-opacity:1"/>
<path class="bond-9 atom-9 atom-10" d="M 63.9,91.9 L 44.0,90.5" style="fill:none;fill-rule:evenodd;stroke:#FF0000;stroke-width:2.0px;stroke-linecap:butt;stroke-linejoin:miter;stroke-opacity:1"/>
<path class="bond-9 atom-9 atom-10" d="M 83.0,100.8 L 63.3,99.4" style="fill:none;fill-rule:evenodd;stroke:#000000;stroke-width:2.0px;stroke-linecap:butt;stroke-linejoin:miter;stroke-opacity:1"/>
<path class="bond-9 atom-9 atom-10" d="M 63.3,99.4 L 43.5,98.0" style="fill:none;fill-rule:evenodd;stroke:#FF0000;stroke-width:2.0px;stroke-linecap:butt;stroke-linejoin:miter;stroke-opacity:1"/>
<path class="bond-10 atom-9 atom-11" d="M 81.2,96.9 L 89.5,114.4" style="fill:none;fill-rule:evenodd;stroke:#000000;stroke-width:2.0px;stroke-linecap:butt;stroke-linejoin:miter;stroke-opacity:1"/>
<path class="bond-10 atom-9 atom-11" d="M 89.5,114.4 L 97.9,132.0" style="fill:none;fill-rule:evenodd;stroke:#0000FF;stroke-width:2.0px;stroke-linecap:butt;stroke-linejoin:miter;stroke-opacity:1"/>
<path class="bond-11 atom-11 atom-12" d="M 95.9,150.9 L 84.1,167.8" style="fill:none;fill-rule:evenodd;stroke:#0000FF;stroke-width:2.0px;stroke-linecap:butt;stroke-linejoin:miter;stroke-opacity:1"/>
<path class="bond-11 atom-11 atom-12" d="M 84.1,167.8 L 72.3,184.7" style="fill:none;fill-rule:evenodd;stroke:#000000;stroke-width:2.0px;stroke-linecap:butt;stroke-linejoin:miter;stroke-opacity:1"/>
<path class="bond-12 atom-8 atom-13" d="M 105.1,46.4 L 95.7,27.8" style="fill:none;fill-rule:evenodd;stroke:#0000FF;stroke-width:2.0px;stroke-linecap:butt;stroke-linejoin:miter;stroke-opacity:1"/>
<path class="bond-12 atom-8 atom-13" d="M 95.7,27.8 L 86.3,9.1" style="fill:none;fill-rule:evenodd;stroke:#000000;stroke-width:2.0px;stroke-linecap:butt;stroke-linejoin:miter;stroke-opacity:1"/>
<path class="bond-13 atom-5 atom-1" d="M 181.0,104.2 L 200.9,109.8" style="fill:none;fill-rule:evenodd;stroke:#000000;stroke-width:2.0px;stroke-linecap:butt;stroke-linejoin:miter;stroke-opacity:1"/>
<path class="bond-13 atom-5 atom-1" d="M 200.9,109.8 L 220.7,115.3" style="fill:none;fill-rule:evenodd;stroke:#0000FF;stroke-width:2.0px;stroke-linecap:butt;stroke-linejoin:miter;stroke-opacity:1"/>
<path class="bond-14 atom-11 atom-4" d="M 110.0,141.7 L 131.2,142.6" style="fill:none;fill-rule:evenodd;stroke:#0000FF;stroke-width:2.0px;stroke-linecap:butt;stroke-linejoin:miter;stroke-opacity:1"/>
<path class="bond-14 atom-11 atom-4" d="M 131.2,142.6 L 152.3,143.5" style="fill:none;fill-rule:evenodd;stroke:#000000;stroke-width:2.0px;stroke-linecap:butt;stroke-linejoin:miter;stroke-opacity:1"/>
<path d="M 226.4,164.6 L 226.3,165.5 L 225.4,165.9" style="fill:none;stroke:#000000;stroke-width:2.0px;stroke-linecap:butt;stroke-linejoin:miter;stroke-opacity:1;"/>
<path d="M 161.2,61.5 L 160.2,59.3 L 159.1,59.2" style="fill:none;stroke:#000000;stroke-width:2.0px;stroke-linecap:butt;stroke-linejoin:miter;stroke-opacity:1;"/>
<path d="M 81.7,96.1 L 81.2,96.9 L 81.6,97.8" style="fill:none;stroke:#000000;stroke-width:2.0px;stroke-linecap:butt;stroke-linejoin:miter;stroke-opacity:1;"/>
<path class="atom-1" d="M 224.8 109.6 L 229.9 117.9 Q 230.4 118.7, 231.2 120.2 Q 232.1 121.7, 232.1 121.8 L 232.1 109.6 L 234.2 109.6 L 234.2 125.2 L 232.0 125.2 L 226.6 116.2 Q 225.9 115.1, 225.2 113.9 Q 224.6 112.7, 224.4 112.3 L 224.4 125.2 L 222.4 125.2 L 222.4 109.6 L 224.8 109.6 " fill="#0000FF"/>
<path class="atom-3" d="M 176.3 175.3 L 181.5 183.6 Q 182.0 184.4, 182.8 185.9 Q 183.6 187.3, 183.6 187.4 L 183.6 175.3 L 185.7 175.3 L 185.7 190.9 L 183.6 190.9 L 178.1 181.9 Q 177.4 180.8, 176.8 179.6 Q 176.1 178.4, 175.9 178.0 L 175.9 190.9 L 173.9 190.9 L 173.9 175.3 L 176.3 175.3 " fill="#0000FF"/>
<path class="atom-7" d="M 179.9 22.8 Q 179.9 19.1, 181.7 17.0 Q 183.6 14.9, 187.0 14.9 Q 190.5 14.9, 192.3 17.0 Q 194.2 19.1, 194.2 22.8 Q 194.2 26.6, 192.3 28.8 Q 190.4 30.9, 187.0 30.9 Q 183.6 30.9, 181.7 28.8 Q 179.9 26.6, 179.9 22.8 M 187.0 29.1 Q 189.4 29.1, 190.7 27.6 Q 192.0 26.0, 192.0 22.8 Q 192.0 19.8, 190.7 18.2 Q 189.4 16.7, 187.0 16.7 Q 184.6 16.7, 183.4 18.2 Q 182.1 19.7, 182.1 22.8 Q 182.1 26.0, 183.4 27.6 Q 184.6 29.1, 187.0 29.1 " fill="#FF0000"/>
<path class="atom-8" d="M 106.4 48.1 L 111.5 56.3 Q 112.0 57.1, 112.8 58.6 Q 113.6 60.1, 113.7 60.2 L 113.7 48.1 L 115.7 48.1 L 115.7 63.7 L 113.6 63.7 L 108.1 54.6 Q 107.5 53.6, 106.8 52.4 Q 106.1 51.2, 105.9 50.8 L 105.9 63.7 L 103.9 63.7 L 103.9 48.1 L 106.4 48.1 " fill="#0000FF"/>
<path class="atom-10" d="M 27.8 93.7 Q 27.8 89.9, 29.6 87.8 Q 31.5 85.8, 34.9 85.8 Q 38.4 85.8, 40.2 87.8 Q 42.1 89.9, 42.1 93.7 Q 42.1 97.5, 40.2 99.6 Q 38.4 101.8, 34.9 101.8 Q 31.5 101.8, 29.6 99.6 Q 27.8 97.5, 27.8 93.7 M 34.9 100.0 Q 37.3 100.0, 38.6 98.4 Q 39.9 96.8, 39.9 93.7 Q 39.9 90.6, 38.6 89.1 Q 37.3 87.5, 34.9 87.5 Q 32.6 87.5, 31.3 89.1 Q 30.0 90.6, 30.0 93.7 Q 30.0 96.8, 31.3 98.4 Q 32.6 100.0, 34.9 100.0 " fill="#FF0000"/>
<path class="atom-11" d="M 99.0 133.6 L 104.1 141.9 Q 104.6 142.7, 105.4 144.2 Q 106.2 145.6, 106.3 145.7 L 106.3 133.6 L 108.4 133.6 L 108.4 149.2 L 106.2 149.2 L 100.7 140.2 Q 100.1 139.1, 99.4 137.9 Q 98.8 136.7, 98.6 136.3 L 98.6 149.2 L 96.5 149.2 L 96.5 133.6 L 99.0 133.6 " fill="#0000FF"/>
</svg>