<svg xmlns="http://www.w3.org/2000/svg" xmlns:rdkit="http://www.rdkit.org/xml" xmlns:xlink="http://www.w3.org/1999/xlink" version="1.1" baseProfile="full" xml:space="preserve" width="300px" height="300px" viewBox="0 0 300 300">
<!-- END OF HEADER -->
<rect style="opacity:1.0;fill:#FFFFFF;stroke:none" width="300.0" height="300.0" x="0.0" y="0.0"> </rect>
<path class="bond-0 atom-0 atom-1" d="M 286.4,187.6 L 269.1,171.3" style="fill:none;fill-rule:evenodd;stroke:#000000;stroke-width:2.0px;stroke-linecap:butt;stroke-linejoin:miter;stroke-opacity:1"/>
<path class="bond-0 atom-0 atom-1" d="M 269.1,171.3 L 251.8,155.0" style="fill:none;fill-rule:evenodd;stroke:#0000FF;stroke-width:2.0px;stroke-linecap:butt;stroke-linejoin:miter;stroke-opacity:1"/>
<path class="bond-1 atom-1 atom-2" d="M 244.7,136.2 L 247.7,114.3" style="fill:none;fill-rule:evenodd;stroke:#0000FF;stroke-width:2.0px;stroke-linecap:butt;stroke-linejoin:miter;stroke-opacity:1"/>
<path class="bond-1 atom-1 atom-2" d="M 247.7,114.3 L 250.7,92.5" style="fill:none;fill-rule:evenodd;stroke:#000000;stroke-width:2.0px;stroke-linecap:butt;stroke-linejoin:miter;stroke-opacity:1"/>
<path class="bond-2 atom-2 atom-3" d="M 250.7,92.5 L 230.7,81.1" style="fill:none;fill-rule:evenodd;stroke:#000000;stroke-width:2.0px;stroke-linecap:butt;stroke-linejoin:miter;stroke-opacity:1"/>
<path class="bond-2 atom-2 atom-3" d="M 230.7,81.1 L 210.7,69.8" style="fill:none;fill-rule:evenodd;stroke:#0000FF;stroke-width:2.0px;stroke-linecap:butt;stroke-linejoin:miter;stroke-opacity:1"/>
<path class="bond-2 atom-2 atom-3" d="M 241.4,97.1 L 223.9,87.2" style="fill:none;fill-rule:evenodd;stroke:#000000;stroke-width:2.0px;stroke-linecap:butt;stroke-linejoin:miter;stroke-opacity:1"/>
<path class="bond-2 atom-2 atom-3" d="M 223.9,87.2 L 206.5,77.3" style="fill:none;fill-rule:evenodd;stroke:#0000FF;stroke-width:2.0px;stroke-linecap:butt;stroke-linejoin:miter;stroke-opacity:1"/>
<path class="bond-3 atom-3 atom-4" d="M 193.5,73.8 L 178.4,89.4" style="fill:none;fill-rule:evenodd;stroke:#0000FF;stroke-width:2.0px;stroke-linecap:butt;stroke-linejoin:miter;stroke-opacity:1"/>
<path class="bond-3 atom-3 atom-4" d="M 178.4,89.4 L 163.3,104.9" style="fill:none;fill-rule:evenodd;stroke:#000000;stroke-width:2.0px;stroke-linecap:butt;stroke-linejoin:miter;stroke-opacity:1"/>
<path class="bond-4 atom-4 atom-5" d="M 163.3,104.9 L 187.6,153.9" style="fill:none;fill-rule:evenodd;stroke:#000000;stroke-width:2.0px;stroke-linecap:butt;stroke-linejoin:miter;stroke-opacity:1"/>
<path class="bond-4 atom-4 atom-5" d="M 173.7,106.6 L 192.6,144.7" style="fill:none;fill-rule:evenodd;stroke:#000000;stroke-width:2.0px;stroke-linecap:butt;stroke-linejoin:miter;stroke-opacity:1"/>
<path class="bond-5 atom-5 atom-6" d="M 187.6,153.9 L 155.3,200.7" style="fill:none;fill-rule:evenodd;stroke:#000000;stroke-width:2.0px;stroke-linecap:butt;stroke-linejoin:miter;stroke-opacity:1"/>
<path class="bond-6 atom-6 atom-7" d="M 150.2,200.2 L 159.4,218.7" style="fill:none;fill-rule:evenodd;stroke:#000000;stroke-width:2.0px;stroke-linecap:butt;stroke-linejoin:miter;stroke-opacity:1"/>
<path class="bond-6 atom-6 atom-7" d="M 159.4,218.7 L 168.6,237.2" style="fill:none;fill-rule:evenodd;stroke:#FF0000;stroke-width:2.0px;stroke-linecap:butt;stroke-linejoin:miter;stroke-opacity:1"/>
<path class="bond-6 atom-6 atom-7" d="M 158.0,196.7 L 167.1,214.9" style="fill:none;fill-rule:evenodd;stroke:#000000;stroke-width:2.0px;stroke-linecap:butt;stroke-linejoin:miter;stroke-opacity:1"/>
<path class="bond-6 atom-6 atom-7" d="M 167.1,214.9 L 176.3,233.4" style="fill:none;fill-rule:evenodd;stroke:#FF0000;stroke-width:2.0px;stroke-linecap:butt;stroke-linejoin:miter;stroke-opacity:1"/>
<path class="bond-7 atom-6 atom-8" d="M 155.3,200.7 L 131.0,198.6" style="fill:none;fill-rule:evenodd;stroke:#000000;stroke-width:2.0px;stroke-linecap:butt;stroke-linejoin:miter;stroke-opacity:1"/>
<path class="bond-7 atom-6 atom-8" d="M 131.0,198.6 L 106.8,196.5" style="fill:none;fill-rule:evenodd;stroke:#0000FF;stroke-width:2.0px;stroke-linecap:butt;stroke-linejoin:miter;stroke-opacity:1"/>
<path class="bond-8 atom-8 atom-9" d="M 93.1,185.0 L 83.7,164.9" style="fill:none;fill-rule:evenodd;stroke:#0000FF;stroke-width:2.0px;stroke-linecap:butt;stroke-linejoin:miter;stroke-opacity:1"/>
<path class="bond-8 atom-8 atom-9" d="M 83.7,164.9 L 74.2,144.8" style="fill:none;fill-rule:evenodd;stroke:#000000;stroke-width:2.0px;stroke-linecap:butt;stroke-linejoin:miter;stroke-opacity:1"/>
<path class="bond-9 atom-9 atom-10" d="M 77.1,140.8 L 54.7,138.7" style="fill:none;fill-rule:evenodd;stroke:#000000;stroke-width:2.0px;stroke-linecap:butt;stroke-linejoin:miter;stroke-opacity:1"/>
<path class="bond-9 atom-9 atom-10" d="M 54.7,138.7 L 32.2,136.7" style="fill:none;fill-rule:evenodd;stroke:#FF0000;stroke-width:2.0px;stroke-linecap:butt;stroke-linejoin:miter;stroke-opacity:1"/>
<path class="bond-9 atom-9 atom-10" d="M 76.4,149.3 L 53.9,147.3" style="fill:none;fill-rule:evenodd;stroke:#000000;stroke-width:2.0px;stroke-linecap:butt;stroke-linejoin:miter;stroke-opacity:1"/>
<path class="bond-9 atom-9 atom-10" d="M 53.9,147.3 L 31.4,145.2" style="fill:none;fill-rule:evenodd;stroke:#FF0000;stroke-width:2.0px;stroke-linecap:butt;stroke-linejoin:miter;stroke-opacity:1"/>
<path class="bond-10 atom-9 atom-11" d="M 74.2,144.8 L 86.8,127.3" style="fill:none;fill-rule:evenodd;stroke:#000000;stroke-width:2.0px;stroke-linecap:butt;stroke-linejoin:miter;stroke-opacity:1"/>
<path class="bond-10 atom-9 atom-11" d="M 86.8,127.3 L 99.3,109.8" style="fill:none;fill-rule:evenodd;stroke:#0000FF;stroke-width:2.0px;stroke-linecap:butt;stroke-linejoin:miter;stroke-opacity:1"/>
<path class="bond-11 atom-11 atom-12" d="M 102.1,88.3 L 92.1,66.4" style="fill:none;fill-rule:evenodd;stroke:#0000FF;stroke-width:2.0px;stroke-linecap:butt;stroke-linejoin:miter;stroke-opacity:1"/>
<path class="bond-11 atom-11 atom-12" d="M 92.1,66.4 L 82.0,44.6" style="fill:none;fill-rule:evenodd;stroke:#000000;stroke-width:2.0px;stroke-linecap:butt;stroke-linejoin:miter;stroke-opacity:1"/>
<path class="bond-12 atom-8 atom-13" d="M 90.2,206.5 L 76.3,225.2" style="fill:none;fill-rule:evenodd;stroke:#0000FF;stroke-width:2.0px;stroke-linecap:butt;stroke-linejoin:miter;stroke-opacity:1"/>
<path class="bond-12 atom-8 atom-13" d="M 76.3,225.2 L 62.4,243.9" style="fill:none;fill-rule:evenodd;stroke:#000000;stroke-width:2.0px;stroke-linecap:butt;stroke-linejoin:miter;stroke-opacity:1"/>
<path class="bond-13 atom-5 atom-1" d="M 187.6,153.9 L 211.1,151.0" style="fill:none;fill-rule:evenodd;stroke:#000000;stroke-width:2.0px;stroke-linecap:butt;stroke-linejoin:miter;stroke-opacity:1"/>
<path class="bond-13 atom-5 atom-1" d="M 211.1,151.0 L 234.6,148.0" style="fill:none;fill-rule:evenodd;stroke:#0000FF;stroke-width:2.0px;stroke-linecap:butt;stroke-linejoin:miter;stroke-opacity:1"/>
<path class="bond-14 atom-11 atom-4" d="M 115.6,99.9 L 139.5,102.4" style="fill:none;fill-rule:evenodd;stroke:#0000FF;stroke-width:2.0px;stroke-linecap:butt;stroke-linejoin:miter;stroke-opacity:1"/>
<path class="bond-14 atom-11 atom-4" d="M 139.5,102.4 L 163.3,104.9" style="fill:none;fill-rule:evenodd;stroke:#000000;stroke-width:2.0px;stroke-linecap:butt;stroke-linejoin:miter;stroke-opacity:1"/>
<path d="M 250.5,93.6 L 250.7,92.5 L 249.7,91.9" style="fill:none;stroke:#000000;stroke-width:2.0px;stroke-linecap:butt;stroke-linejoin:miter;stroke-opacity:1;"/>
<path d="M 156.9,198.3 L 155.3,200.7 L 154.0,200.6" style="fill:none;stroke:#000000;stroke-width:2.0px;stroke-linecap:butt;stroke-linejoin:miter;stroke-opacity:1;"/>
<path d="M 74.7,145.8 L 74.2,144.8 L 74.9,143.9" style="fill:none;stroke:#000000;stroke-width:2.0px;stroke-linecap:butt;stroke-linejoin:miter;stroke-opacity:1;"/>
<path class="atom-1" d="M 239.3 138.0 L 245.1 147.4 Q 245.6 148.3, 246.6 150.0 Q 247.5 151.7, 247.5 151.8 L 247.5 138.0 L 249.9 138.0 L 249.9 155.8 L 247.5 155.8 L 241.2 145.5 Q 240.5 144.3, 239.7 142.9 Q 239.0 141.5, 238.8 141.1 L 238.8 155.8 L 236.5 155.8 L 236.5 138.0 L 239.3 138.0 " fill="#0000FF"/>
<path class="atom-3" d="M 198.2 56.1 L 204.0 65.5 Q 204.5 66.4, 205.5 68.1 Q 206.4 69.8, 206.4 69.9 L 206.4 56.1 L 208.8 56.1 L 208.8 73.8 L 206.4 73.8 L 200.1 63.6 Q 199.4 62.4, 198.6 61.0 Q 197.9 59.6, 197.7 59.2 L 197.7 73.8 L 195.4 73.8 L 195.4 56.1 L 198.2 56.1 " fill="#0000FF"/>
<path class="atom-7" d="M 169.7 246.2 Q 169.7 242.0, 171.8 239.6 Q 173.9 237.2, 177.8 237.2 Q 181.8 237.2, 183.9 239.6 Q 186.0 242.0, 186.0 246.2 Q 186.0 250.5, 183.9 253.0 Q 181.7 255.4, 177.8 255.4 Q 173.9 255.4, 171.8 253.0 Q 169.7 250.5, 169.7 246.2 M 177.8 253.4 Q 180.6 253.4, 182.0 251.6 Q 183.5 249.8, 183.5 246.2 Q 183.5 242.7, 182.0 241.0 Q 180.6 239.2, 177.8 239.2 Q 175.1 239.2, 173.7 241.0 Q 172.2 242.7, 172.2 246.2 Q 172.2 249.8, 173.7 251.6 Q 175.1 253.4, 177.8 253.4 " fill="#FF0000"/>
<path class="atom-8" d="M 94.3 186.9 L 100.1 196.3 Q 100.7 197.2, 101.6 198.9 Q 102.5 200.6, 102.6 200.7 L 102.6 186.9 L 104.9 186.9 L 104.9 204.6 L 102.5 204.6 L 96.3 194.4 Q 95.5 193.2, 94.8 191.8 Q 94.0 190.4, 93.8 190.0 L 93.8 204.6 L 91.5 204.6 L 91.5 186.9 L 94.3 186.9 " fill="#0000FF"/>
<path class="atom-10" d="M 13.6 140.1 Q 13.6 135.8, 15.7 133.4 Q 17.8 131.1, 21.8 131.1 Q 25.7 131.1, 27.8 133.4 Q 29.9 135.8, 29.9 140.1 Q 29.9 144.4, 27.8 146.8 Q 25.6 149.2, 21.8 149.2 Q 17.9 149.2, 15.7 146.8 Q 13.6 144.4, 13.6 140.1 M 21.8 147.2 Q 24.5 147.2, 25.9 145.4 Q 27.4 143.6, 27.4 140.1 Q 27.4 136.6, 25.9 134.8 Q 24.5 133.1, 21.8 133.1 Q 19.1 133.1, 17.6 134.8 Q 16.1 136.6, 16.1 140.1 Q 16.1 143.6, 17.6 145.4 Q 19.1 147.2, 21.8 147.2 " fill="#FF0000"/>
<path class="atom-11" d="M 103.1 90.2 L 108.9 99.6 Q 109.5 100.5, 110.4 102.2 Q 111.3 103.8, 111.4 103.9 L 111.4 90.2 L 113.7 90.2 L 113.7 107.9 L 111.3 107.9 L 105.1 97.6 Q 104.4 96.4, 103.6 95.1 Q 102.8 93.7, 102.6 93.3 L 102.6 107.9 L 100.3 107.9 L 100.3 90.2 L 103.1 90.2 " fill="#0000FF"/>
</svg>