<?xml version="1.0" encoding="UTF-8" standalone="no"?>
<!-- Created with Inkscape (http://www.inkscape.org/) -->

<svg
   width="167.09364mm"
   height="72.675949mm"
   viewBox="0 0 167.09364 72.675949"
   version="1.1"
   id="svg2991"
   inkscape:version="1.1.1 (c3084ef, 2021-09-22)"
   sodipodi:docname="loprop_T2.svg"
   xmlns:inkscape="http://www.inkscape.org/namespaces/inkscape"
   xmlns:sodipodi="http://sodipodi.sourceforge.net/DTD/sodipodi-0.dtd"
   xmlns="http://www.w3.org/2000/svg"
   xmlns:svg="http://www.w3.org/2000/svg">
  <sodipodi:namedview
     id="namedview2993"
     pagecolor="#ffffff"
     bordercolor="#666666"
     borderopacity="1.0"
     inkscape:pageshadow="2"
     inkscape:pageopacity="0.0"
     inkscape:pagecheckerboard="0"
     inkscape:document-units="mm"
     showgrid="false"
     fit-margin-top="0"
     fit-margin-left="0"
     fit-margin-right="0"
     fit-margin-bottom="0"
     inkscape:zoom="0.77771465"
     inkscape:cx="474.46708"
     inkscape:cy="292.52374"
     inkscape:window-width="1627"
     inkscape:window-height="879"
     inkscape:window-x="877"
     inkscape:window-y="338"
     inkscape:window-maximized="0"
     inkscape:current-layer="layer1" />
  <defs
     id="defs2988" />
  <g
     inkscape:label="Layer 1"
     inkscape:groupmode="layer"
     id="layer1"
     transform="translate(49.58463,-35.309031)">
    <g
       id="g966"
       transform="matrix(0.01763889,0,0,0.01763889,-247.43891,33.784036)">
      <path
         d="m 15361.04,2460 c 0,0 0,-60 0,-60 0,0 1160,0 1160,0 0,0 0,-60 0,-60 0,0 120,120 120,120 0,0 -120,120 -120,120 0,0 0,-60 0,-60 0,0 -1160,0 -1160,0 0,0 0,-60 0,-60 z"
         style="fill:none;stroke:#000000;stroke-width:20;stroke-linecap:round;stroke-linejoin:miter;stroke-miterlimit:10;stroke-dasharray:none;stroke-opacity:1"
         id="path968" />
    </g>
    <g
       id="g970"
       transform="matrix(0.35277777,0,0,0.35277777,30.86204,68.714362)">
      <text
         transform="translate(0,13.5)"
         style="font-variant:normal;font-weight:normal;font-size:18px;font-family:Times;-inkscape-font-specification:Times-Roman;writing-mode:lr-tb;fill:#000000;fill-opacity:1;fill-rule:nonzero;stroke:none"
         id="text974"><tspan
           x="0"
           y="0"
           id="tspan972">T</tspan></text>
    </g>
    <g
       id="g976"
       transform="matrix(0.35277777,0,0,0.35277777,30.86204,68.714362)">
      <text
         transform="translate(10.99512,18)"
         style="font-variant:normal;font-weight:normal;font-size:13.5px;font-family:Times;-inkscape-font-specification:Times-Roman;writing-mode:lr-tb;fill:#000000;fill-opacity:1;fill-rule:nonzero;stroke:none"
         id="text980"><tspan
           x="0"
           y="0"
           id="tspan978">2</tspan></text>
    </g>
    <g
       id="g4434"
       transform="translate(-0.52916667,1.5875)">
      <path
         d="m 92.740637,58.833904 c 0,0 14.769003,-0.33461 14.769003,-0.33461 0,0 -0.097,-9.43483 -0.097,-9.43483 0,0 -14.769042,0.334575 -14.769042,0.334575 0,0 0.09705,9.434865 0.09705,9.434865 z"
         style="fill:#d5d5d5;fill-opacity:1;fill-rule:nonzero;stroke:none;stroke-width:0.352778"
         id="path844" />
      <path
         d="m 72.891701,59.271913 c 0,0 -9.97017,0.0067 -9.97017,0.0067 0,0 0.0028,4.03165 0.0028,4.03165 0,0 9.970171,-0.0067 9.970171,-0.0067 0,0 -0.0028,-4.03165 -0.0028,-4.03165 z"
         style="fill:#d5d5d5;fill-opacity:1;fill-rule:nonzero;stroke:none;stroke-width:0.352778"
         id="path846" />
      <path
         d="m 93.085936,63.507292 c 0,0 -0.471594,15.024311 -0.471594,15.024311 0,0 14.288418,-0.07782 14.288418,-0.07782 0,0 0.47163,-15.024312 0.47163,-15.024312 0,0 -14.288454,0.07782 -14.288454,0.07782 z"
         style="fill:#d5d5d5;fill-opacity:1;fill-rule:nonzero;stroke:none;stroke-width:0.352778"
         id="path848" />
      <path
         d="m 77.837046,94.476171 c 0,0 14.608951,-0.18602 14.608951,-0.18602 0,0 -0.129999,-15.11688 -0.129999,-15.11688 0,0 -14.608951,0.18602 -14.608951,0.18602 0,0 0.129999,15.11688 0.129999,15.11688 z"
         style="fill:#d5d5d5;fill-opacity:1;fill-rule:nonzero;stroke:none;stroke-width:0.352778"
         id="path850" />
      <path
         d="m 112.55556,49.318464 c 0,0 -0.14418,9.53262 -0.14418,9.53262 0,0 4.4739,0.0011 4.4739,0.0011 0,0 0.14414,-9.532655 0.14414,-9.532655 0,0 -4.47386,-0.0011 -4.47386,-0.0011 z"
         style="fill:#d5d5d5;fill-opacity:1;fill-rule:nonzero;stroke:none;stroke-width:0.352778"
         id="path852" />
      <path
         d="m 62.990076,103.7502 c 0,0 10.174181,0.27849 10.174181,0.27849 0,0 0.0035,-4.496226 0.0035,-4.496226 0,0 -10.174217,-0.278483 -10.174217,-0.278483 0,0 -0.0035,4.496219 -0.0035,4.496219 z"
         style="fill:#d5d5d5;fill-opacity:1;fill-rule:nonzero;stroke:none;stroke-width:0.352778"
         id="path854" />
      <path
         d="m 77.782895,63.268179 c 0,0 14.769041,-0.139453 14.769041,-0.139453 0,0 -0.09701,-3.931637 -0.09701,-3.931637 0,0 -14.769041,0.139453 -14.769041,0.139453 0,0 0.09701,3.931637 0.09701,3.931637 z"
         style="fill:#d5d5d5;fill-opacity:1;fill-rule:nonzero;stroke:none;stroke-width:0.352778"
         id="path856" />
      <path
         d="m 77.234149,78.722103 c 0,0 0,-15.251147 0,-15.251147 0,0 -4.031686,0 -4.031686,0 0,0 0,15.251147 0,15.251147 0,0 4.031686,0 4.031686,0 z"
         style="fill:#d5d5d5;fill-opacity:1;fill-rule:nonzero;stroke:none;stroke-width:0.352778"
         id="path858" />
      <g
         id="g898"
         transform="matrix(0.01763889,0,0,0.01763889,-247.43891,33.784036)">
        <path
           d="m 20666.5,3993.792 c 0,0 0,-3136.4727 0,-3136.4727 0,0 -3088.01,0 -3088.01,0 0,0 0,3136.4727 0,3136.4727 0,0 3088.01,0 3088.01,0 z"
           style="fill:none;stroke:#000000;stroke-width:20;stroke-linecap:butt;stroke-linejoin:miter;stroke-miterlimit:10;stroke-dasharray:none;stroke-opacity:1"
           id="path900" />
      </g>
      <g
         id="g902"
         transform="matrix(0.01763889,0,0,0.01763889,-247.43891,33.784036)">
        <path
           d="M 20639.74,3458.32 H 17590.27"
           style="fill:none;stroke:#000000;stroke-width:20;stroke-linecap:round;stroke-linejoin:miter;stroke-miterlimit:10;stroke-dasharray:none;stroke-opacity:1"
           id="path904" />
      </g>
      <g
         id="g906"
         transform="matrix(0.01763889,0,0,0.01763889,-247.43891,33.784036)">
        <path
           d="m 20120.89,3983.153 -4.11,-3122.7374"
           style="fill:none;stroke:#000000;stroke-width:20;stroke-linecap:round;stroke-linejoin:miter;stroke-miterlimit:10;stroke-dasharray:none;stroke-opacity:1"
           id="path908" />
      </g>
      <g
         id="g910"
         transform="matrix(0.35277777,0,0,0.35277777,51.960902,97.607179)">
        <text
           transform="translate(0,13.5)"
           style="font-variant:normal;font-weight:normal;font-size:18px;font-family:Times;-inkscape-font-specification:Times-Roman;writing-mode:lr-tb;fill:#000000;fill-opacity:1;fill-rule:nonzero;stroke:none"
           id="text914"><tspan
             x="0 12.9996 18.993601"
             y="0"
             sodipodi:role="line"
             id="tspan912">H-s</tspan></text>
      </g>
      <g
         id="g916"
         transform="matrix(0.01763889,0,0,0.01763889,-247.43891,33.784036)">
        <path
           d="m 17569.96,1669.24 h 3120"
           style="fill:none;stroke:#000000;stroke-width:20;stroke-linecap:butt;stroke-linejoin:miter;stroke-miterlimit:10;stroke-dasharray:60, 60;stroke-dashoffset:0;stroke-opacity:1"
           id="path918" />
      </g>
      <g
         id="g920"
         transform="matrix(0.01763889,0,0,0.01763889,-247.43891,33.784036)">
        <path
           d="m 18424.2,878.3231 -6.64,3119.9929"
           style="fill:none;stroke:#000000;stroke-width:20;stroke-linecap:butt;stroke-linejoin:miter;stroke-miterlimit:10;stroke-dasharray:60, 60;stroke-dashoffset:0;stroke-opacity:1"
           id="path922" />
      </g>
      <g
         id="g924"
         transform="matrix(0.35277777,0,0,0.35277777,52.437752,75.38218)">
        <text
           transform="translate(0,13.5)"
           style="font-variant:normal;font-weight:normal;font-size:18px;font-family:Times;-inkscape-font-specification:Times-Roman;writing-mode:lr-tb;fill:#000000;fill-opacity:1;fill-rule:nonzero;stroke:none"
           id="text928"><tspan
             x="0 10.0116 16.0056"
             y="0"
             sodipodi:role="line"
             id="tspan926">F-p</tspan></text>
      </g>
      <g
         id="g930"
         transform="matrix(0.35277777,0,0,0.35277777,52.437752,54.568291)">
        <text
           transform="translate(0,13.5)"
           style="font-variant:normal;font-weight:normal;font-size:18px;font-family:Times;-inkscape-font-specification:Times-Roman;writing-mode:lr-tb;fill:#000000;fill-opacity:1;fill-rule:nonzero;stroke:none"
           id="text934"><tspan
             x="0 10.0116 16.0056"
             y="0"
             sodipodi:role="line"
             id="tspan932">F-s</tspan></text>
      </g>
      <g
         id="g936"
         transform="matrix(0.01763889,0,0,0.01763889,-247.43891,33.784036)">
        <path
           d="m 18184.11,918.3231 -6.55,3076.3129"
           style="fill:none;stroke:#000000;stroke-width:20;stroke-linecap:butt;stroke-linejoin:miter;stroke-miterlimit:10;stroke-dasharray:60, 60;stroke-dashoffset:0;stroke-opacity:1"
           id="path938" />
      </g>
      <g
         id="g940"
         transform="matrix(0.01763889,0,0,0.01763889,-247.43891,33.784036)">
        <path
           d="m 20652.75,1425.56 -3091.82,25.289"
           style="fill:none;stroke:#000000;stroke-width:20;stroke-linecap:butt;stroke-linejoin:miter;stroke-miterlimit:10;stroke-dasharray:60, 60;stroke-dashoffset:0;stroke-opacity:1"
           id="path942" />
      </g>
      <g
         id="g944"
         transform="matrix(0.01763889,0,0,0.01763889,-247.43891,33.784036)">
        <path
           d="m 17600.88,2558.319 h 3048.24"
           style="fill:none;stroke:#000000;stroke-width:20;stroke-linecap:butt;stroke-linejoin:miter;stroke-miterlimit:10;stroke-dasharray:60, 60;stroke-dashoffset:0;stroke-opacity:1"
           id="path946" />
      </g>
      <g
         id="g948"
         transform="matrix(0.01763889,0,0,0.01763889,-247.43891,33.784036)">
        <path
           d="m 17560.88,3718.32 h 3120"
           style="fill:none;stroke:#000000;stroke-width:20;stroke-linecap:butt;stroke-linejoin:miter;stroke-miterlimit:10;stroke-dasharray:60, 60;stroke-dashoffset:0;stroke-opacity:1"
           id="path950" />
      </g>
      <g
         id="g952"
         transform="matrix(0.01763889,0,0,0.01763889,-247.43891,33.784036)">
        <path
           d="m 20382.54,909.2679 18.53,3119.9451"
           style="fill:none;stroke:#000000;stroke-width:20;stroke-linecap:butt;stroke-linejoin:miter;stroke-miterlimit:10;stroke-dasharray:60, 60;stroke-dashoffset:0;stroke-opacity:1"
           id="path954" />
      </g>
      <g
         id="g982"
         transform="matrix(0.35277777,0,0,0.35277777,64.152196,44.229222)">
        <text
           transform="translate(0,9)"
           style="font-variant:normal;font-weight:normal;font-size:12px;font-family:Times;-inkscape-font-specification:Times-Roman;writing-mode:lr-tb;fill:#000000;fill-opacity:1;fill-rule:nonzero;stroke:none"
           id="text986"><tspan
             x="0 6 10.6704 16.670401"
             y="0"
             sodipodi:role="line"
             id="tspan984">1s2s</tspan></text>
      </g>
      <g
         id="g988"
         transform="matrix(0.35277777,0,0,0.35277777,73.390353,44.198847)">
        <text
           transform="translate(0,9)"
           style="font-variant:normal;font-weight:normal;font-size:12px;font-family:Times;-inkscape-font-specification:Times-Roman;writing-mode:lr-tb;fill:#000000;fill-opacity:1;fill-rule:nonzero;stroke:none"
           id="text992"><tspan
             x="0 6"
             y="0"
             sodipodi:role="line"
             id="tspan990">3s</tspan></text>
      </g>
      <g
         id="g994"
         transform="matrix(0.35277777,0,0,0.35277777,83.575364,44.13817)">
        <text
           transform="translate(0,9)"
           style="font-variant:normal;font-weight:normal;font-size:12px;font-family:Times;-inkscape-font-specification:Times-Roman;writing-mode:lr-tb;fill:#000000;fill-opacity:1;fill-rule:nonzero;stroke:none"
           id="text998"><tspan
             x="0 6"
             y="0"
             sodipodi:role="line"
             id="tspan996">2p</tspan></text>
      </g>
      <g
         id="g1000"
         transform="matrix(0.01763889,0,0,0.01763889,-247.43891,33.784036)">
        <path
           d="m 19290.86,878.3231 -6.67,3132.4729"
           style="fill:none;stroke:#000000;stroke-width:20;stroke-linecap:butt;stroke-linejoin:miter;stroke-miterlimit:10;stroke-dasharray:60, 60;stroke-dashoffset:0;stroke-opacity:1"
           id="path1002" />
      </g>
      <g
         id="g1004"
         transform="matrix(0.35277777,0,0,0.35277777,96.646275,44.13817)">
        <text
           transform="translate(0,9)"
           style="font-variant:normal;font-weight:normal;font-size:12px;font-family:Times;-inkscape-font-specification:Times-Roman;writing-mode:lr-tb;fill:#000000;fill-opacity:1;fill-rule:nonzero;stroke:none"
           id="text1008"><tspan
             x="0 6"
             y="0"
             sodipodi:role="line"
             id="tspan1006">3p</tspan></text>
      </g>
      <g
         id="g1010"
         transform="matrix(0.35277777,0,0,0.35277777,77.816585,34.747825)">
        <text
           transform="translate(0,13.5)"
           style="font-variant:normal;font-weight:normal;font-size:18px;font-family:Times;-inkscape-font-specification:Times-Roman;writing-mode:lr-tb;fill:#000000;fill-opacity:1;fill-rule:nonzero;stroke:none"
           id="text1014"><tspan
             x="0"
             y="0"
             id="tspan1012">F</tspan></text>
      </g>
      <g
         id="g1016"
         transform="matrix(0.01763889,0,0,0.01763889,-247.43891,33.784036)">
        <path
           d="m 19860.1,627.7016 c 0,-78.2846 -63.54,-141.8276 -141.83,-141.8276 0,0 -850.96,0 -850.96,0 -78.29,0 -141.83,-63.543 -141.83,-141.8276 0,78.2846 -63.54,141.8276 -141.83,141.8276 0,0 -850.96,0 -850.96,0 -78.29,0 -141.83,63.543 -141.83,141.8276"
           style="fill:none;stroke:#000000;stroke-width:20;stroke-linecap:butt;stroke-linejoin:miter;stroke-miterlimit:10;stroke-dasharray:none;stroke-opacity:1"
           id="path1018" />
      </g>
      <g
         id="g1020"
         transform="matrix(0.35277777,0,0,0.35277777,107.49331,44.185336)">
        <text
           transform="translate(0,9)"
           style="font-variant:normal;font-weight:normal;font-size:12px;font-family:Times;-inkscape-font-specification:Times-Roman;writing-mode:lr-tb;fill:#000000;fill-opacity:1;fill-rule:nonzero;stroke:none"
           id="text1024"><tspan
             x="0 6"
             y="0"
             sodipodi:role="line"
             id="tspan1022">1s</tspan></text>
      </g>
      <g
         id="g1026"
         transform="matrix(0.35277777,0,0,0.35277777,113.33347,44.185336)">
        <text
           transform="translate(0,9)"
           style="font-variant:normal;font-weight:normal;font-size:12px;font-family:Times;-inkscape-font-specification:Times-Roman;writing-mode:lr-tb;fill:#000000;fill-opacity:1;fill-rule:nonzero;stroke:none"
           id="text1030"><tspan
             x="0 6"
             y="0"
             sodipodi:role="line"
             id="tspan1028">2s</tspan></text>
      </g>
      <g
         id="g1032"
         transform="matrix(0.01763889,0,0,0.01763889,-247.43891,33.784036)">
        <path
           d="m 20666.85,537.3648 c 0,-19.5283 -15.85,-35.3793 -35.38,-35.3793 0,0 -212.28,0 -212.28,0 -19.52,0 -35.38,-15.851 -35.38,-35.3793 0,19.5283 -15.85,35.3793 -35.37,35.3793 0,0 -212.28,0 -212.28,0 -19.53,0 -35.38,15.851 -35.38,35.3793"
           style="fill:none;stroke:#000000;stroke-width:20;stroke-linecap:butt;stroke-linejoin:miter;stroke-miterlimit:10;stroke-dasharray:none;stroke-opacity:1"
           id="path1034" />
      </g>
      <g
         id="g1036"
         transform="matrix(0.35277777,0,0,0.35277777,109.50467,35.31301)">
        <text
           transform="translate(0,13.5)"
           style="font-variant:normal;font-weight:normal;font-size:18px;font-family:Times;-inkscape-font-specification:Times-Roman;writing-mode:lr-tb;fill:#000000;fill-opacity:1;fill-rule:nonzero;stroke:none"
           id="text1040"><tspan
             x="0"
             y="0"
             id="tspan1038">H</tspan></text>
      </g>
      <path
         d="m 77.475413,58.749378 c 0,0 0,-9.63302 0,-9.63302 0,0 -4.031685,0 -4.031685,0 0,0 0,9.63302 0,9.63302 0,0 4.031685,0 4.031685,0 z"
         style="fill:#d5d5d5;fill-opacity:1;fill-rule:nonzero;stroke:none;stroke-width:0.352778"
         id="path1110" />
      <path
         d="m 63.03689,94.653971 c 0,0 9.744145,-0.18602 9.744145,-0.18602 0,0 -0.08671,-15.11688 -0.08671,-15.11688 0,0 -9.74418,0.18602 -9.74418,0.18602 0,0 0.08675,15.11688 0.08675,15.11688 z"
         style="fill:#d5d5d5;fill-opacity:1;fill-rule:nonzero;stroke:none;stroke-width:0.352778"
         id="path1112" />
      <path
         d="m 77.960695,104.04668 c 0,0 14.769041,-0.15378 14.769041,-0.15378 0,0 -0.09701,-4.336588 -0.09701,-4.336588 0,0 -14.769041,0.153776 -14.769041,0.153776 0,0 0.09701,4.336592 0.09701,4.336592 z"
         style="fill:#d5d5d5;fill-opacity:1;fill-rule:nonzero;stroke:none;stroke-width:0.352778"
         id="path1114" />
      <path
         d="m 92.892084,99.068455 c 0,0 14.266866,-0.139488 14.266866,-0.139488 0,0 -0.0937,-3.933296 -0.0937,-3.933296 0,0 -14.266899,0.139489 -14.266899,0.139489 0,0 0.09373,3.933295 0.09373,3.933295 z"
         style="fill:#d5d5d5;fill-opacity:1;fill-rule:nonzero;stroke:none;stroke-width:0.352778"
         id="path1116" />
      <path
         d="m 73.205038,99.068455 c 0,0 4.175267,-0.139488 4.175267,-0.139488 0,0 -0.02741,-3.933296 -0.02741,-3.933296 0,0 -4.175302,0.139489 -4.175302,0.139489 0,0 0.02745,3.933295 0.02745,3.933295 z"
         style="fill:#d5d5d5;fill-opacity:1;fill-rule:nonzero;stroke:none;stroke-width:0.352778"
         id="path1118" />
      <path
         d="m 112.37776,63.36417 c 0,0 -0.14418,15.709794 -0.14418,15.709794 0,0 4.4739,0.0018 4.4739,0.0018 0,0 0.14418,-15.709759 0.14418,-15.709759 0,0 -4.4739,-0.0018 -4.4739,-0.0018 z"
         style="fill:#d5d5d5;fill-opacity:1;fill-rule:nonzero;stroke:none;stroke-width:0.352778"
         id="path1120" />
      <path
         d="m 112.67526,99.068455 c 0,0 4.17527,-0.139488 4.17527,-0.139488 0,0 -0.0274,-3.933296 -0.0274,-3.933296 0,0 -4.17527,0.139489 -4.17527,0.139489 0,0 0.0274,3.933295 0.0274,3.933295 z"
         style="fill:#d5d5d5;fill-opacity:1;fill-rule:nonzero;stroke:none;stroke-width:0.352778"
         id="path1122" />
      <path
         d="m 108.05264,103.69111 c 0,0 4.17526,-0.13952 4.17526,-0.13952 0,0 -0.0274,-3.933295 -0.0274,-3.933295 0,0 -4.1753,0.139523 -4.1753,0.139523 0,0 0.0275,3.933292 0.0275,3.933292 z"
         style="fill:#d5d5d5;fill-opacity:1;fill-rule:nonzero;stroke:none;stroke-width:0.352778"
         id="path1124" />
      <path
         d="m 107.69704,63.331891 c 0,0 4.17526,-0.139488 4.17526,-0.139488 0,0 -0.0274,-3.933296 -0.0274,-3.933296 0,0 -4.17526,0.139488 -4.17526,0.139488 0,0 0.0274,3.933296 0.0274,3.933296 z"
         style="fill:#d5d5d5;fill-opacity:1;fill-rule:nonzero;stroke:none;stroke-width:0.352778"
         id="path1126" />
      <path
         d="m 107.57731,79.010005 c 0,0 -0.14415,15.709794 -0.14415,15.709794 0,0 4.47389,0.0018 4.47389,0.0018 0,0 0.14415,-15.709794 0.14415,-15.709794 0,0 -4.47389,-0.0018 -4.47389,-0.0018 z"
         style="fill:#d5d5d5;fill-opacity:1;fill-rule:nonzero;stroke:none;stroke-width:0.352778"
         id="path1128" />
    </g>
    <g
       id="g3975"
       transform="matrix(0.35277777,0,0,-0.35277777,-74.950152,171.30544)">
      <path
         d="m 235.4214,212.6862 c 0,0 -125.52,-1.1088 -125.52,-1.1088 0,0 0.2688,-27.013 0.2688,-27.013 0,0 125.52,1.1087 125.52,1.1087 0,0 -0.2688,27.0131 -0.2688,27.0131 z"
         style="fill:#d5d5d5;fill-opacity:1;fill-rule:nonzero;stroke:none"
         id="path860" />
      <path
         d="m 263.2043,211.9726 c 0,0 0,130.8574 0,130.8574 0,0 -27.0147,0 -27.0147,0 0,0 0,-130.8574 0,-130.8574 0,0 27.0147,0 27.0147,0 z"
         style="fill:#d5d5d5;fill-opacity:1;fill-rule:nonzero;stroke:none"
         id="path862" />
      <g
         id="g880"
         transform="matrix(0.05,0,0,-0.05,-487,384)">
        <path
           d="m 14999.79,3978.539 c 0,0 0,-3139.5394 0,-3139.5394 0,0 -3082.19,0 -3082.19,0 0,0 0,3139.5394 0,3139.5394 0,0 3082.19,0 3082.19,0 z"
           style="fill:none;stroke:#000000;stroke-width:20;stroke-linecap:butt;stroke-linejoin:miter;stroke-miterlimit:10;stroke-dasharray:none;stroke-opacity:1"
           id="path882" />
      </g>
      <g
         id="g884"
         transform="matrix(0.05,0,0,-0.05,-487,384)">
        <path
           d="M 15015.81,3440 H 11960"
           style="fill:none;stroke:#000000;stroke-width:20;stroke-linecap:round;stroke-linejoin:miter;stroke-miterlimit:10;stroke-dasharray:none;stroke-opacity:1"
           id="path886" />
      </g>
      <g
         id="g888"
         transform="matrix(0.05,0,0,-0.05,-487,384)">
        <path
           d="m 14460.04,3990.178 -4.15,-3148.0824"
           style="fill:none;stroke:#000000;stroke-width:20;stroke-linecap:round;stroke-linejoin:miter;stroke-miterlimit:10;stroke-dasharray:none;stroke-opacity:1"
           id="path890" />
      </g>
      <g
         id="g892"
         transform="matrix(1,0,0,-1,81,204)">
        <text
           transform="translate(0,13.5)"
           style="font-variant:normal;font-weight:normal;font-size:18px;font-family:Times;-inkscape-font-specification:Times-Roman;writing-mode:lr-tb;fill:#000000;fill-opacity:1;fill-rule:nonzero;stroke:none"
           id="text896"><tspan
             x="0 12.9996 18.993601"
             y="0"
             sodipodi:role="line"
             id="tspan894">H-s</tspan></text>
      </g>
      <g
         id="g956"
         transform="matrix(0.05,0,0,-0.05,-487,384)">
        <path
           d="m 11810.29,858.4291 c -87.31,0.7138 -157.59,72.158 -156.88,159.4629 0,0 7.76,949.018 7.76,949.018 0.71,87.305 -69.57,158.749 -156.88,159.463 87.31,-0.714 158.75,69.572 159.46,156.877 0,0 7.76,949.018 7.76,949.018 0.72,87.305 72.16,157.59 159.47,156.876"
           style="fill:none;stroke:#000000;stroke-width:20;stroke-linecap:butt;stroke-linejoin:miter;stroke-miterlimit:10;stroke-dasharray:none;stroke-opacity:1"
           id="path958" />
      </g>
      <g
         id="g960"
         transform="matrix(1,0,0,-1,71.70012,290.244)">
        <text
           transform="translate(0,13.5)"
           style="font-variant:normal;font-weight:normal;font-size:18px;font-family:Times;-inkscape-font-specification:Times-Roman;writing-mode:lr-tb;fill:#000000;fill-opacity:1;fill-rule:nonzero;stroke:none"
           id="text964"><tspan
             x="0"
             y="0"
             id="tspan962">F</tspan></text>
      </g>
      <g
         id="g1046"
         transform="matrix(1,0,0,-1,113.5489,356.2274)">
        <text
           transform="translate(0,9)"
           style="font-variant:normal;font-weight:normal;font-size:12px;font-family:Times;-inkscape-font-specification:Times-Roman;writing-mode:lr-tb;fill:#000000;fill-opacity:1;fill-rule:nonzero;stroke:none"
           id="text1050"><tspan
             x="0 6 10.6704 16.670401"
             y="0"
             sodipodi:role="line"
             id="tspan1048">1s2s</tspan></text>
      </g>
      <g
         id="g1052"
         transform="matrix(1,0,0,-1,139.7358,356.3134)">
        <text
           transform="translate(0,9)"
           style="font-variant:normal;font-weight:normal;font-size:12px;font-family:Times;-inkscape-font-specification:Times-Roman;writing-mode:lr-tb;fill:#000000;fill-opacity:1;fill-rule:nonzero;stroke:none"
           id="text1056"><tspan
             x="0 6"
             y="0"
             sodipodi:role="line"
             id="tspan1054">3s</tspan></text>
      </g>
      <g
         id="g1058"
         transform="matrix(1,0,0,-1,168.6067,356.4854)">
        <text
           transform="translate(0,9)"
           style="font-variant:normal;font-weight:normal;font-size:12px;font-family:Times;-inkscape-font-specification:Times-Roman;writing-mode:lr-tb;fill:#000000;fill-opacity:1;fill-rule:nonzero;stroke:none"
           id="text1062"><tspan
             x="0 6"
             y="0"
             sodipodi:role="line"
             id="tspan1060">2p</tspan></text>
      </g>
      <g
         id="g1064"
         transform="matrix(1,0,0,-1,205.6582,356.4854)">
        <text
           transform="translate(0,9)"
           style="font-variant:normal;font-weight:normal;font-size:12px;font-family:Times;-inkscape-font-specification:Times-Roman;writing-mode:lr-tb;fill:#000000;fill-opacity:1;fill-rule:nonzero;stroke:none"
           id="text1068"><tspan
             x="0 6"
             y="0"
             sodipodi:role="line"
             id="tspan1066">3p</tspan></text>
      </g>
      <g
         id="g1070"
         transform="matrix(1,0,0,-1,152.2826,383.1037)">
        <text
           transform="translate(0,13.5)"
           style="font-variant:normal;font-weight:normal;font-size:18px;font-family:Times;-inkscape-font-specification:Times-Roman;writing-mode:lr-tb;fill:#000000;fill-opacity:1;fill-rule:nonzero;stroke:none"
           id="text1074"><tspan
             x="0"
             y="0"
             id="tspan1072">F</tspan></text>
      </g>
      <g
         id="g1076"
         transform="matrix(0.05,0,0,-0.05,-487,384)">
        <path
           d="m 14206.07,590.9871 c 0,-78.2845 -63.54,-141.8276 -141.83,-141.8276 0,0 -850.96,0 -850.96,0 -78.29,0 -141.83,-63.543 -141.83,-141.8276 0,78.2846 -63.54,141.8276 -141.83,141.8276 0,0 -850.96,0 -850.96,0 -78.29,0 -141.83,63.5431 -141.83,141.8276"
           style="fill:none;stroke:#000000;stroke-width:20;stroke-linecap:butt;stroke-linejoin:miter;stroke-miterlimit:10;stroke-dasharray:none;stroke-opacity:1"
           id="path1078" />
      </g>
      <g
         id="g1080"
         transform="matrix(1,0,0,-1,236.4056,356.3517)">
        <text
           transform="translate(0,9)"
           style="font-variant:normal;font-weight:normal;font-size:12px;font-family:Times;-inkscape-font-specification:Times-Roman;writing-mode:lr-tb;fill:#000000;fill-opacity:1;fill-rule:nonzero;stroke:none"
           id="text1084"><tspan
             x="0 6"
             y="0"
             sodipodi:role="line"
             id="tspan1082">1s</tspan></text>
      </g>
      <g
         id="g1086"
         transform="matrix(1,0,0,-1,252.9604,356.3517)">
        <text
           transform="translate(0,9)"
           style="font-variant:normal;font-weight:normal;font-size:12px;font-family:Times;-inkscape-font-specification:Times-Roman;writing-mode:lr-tb;fill:#000000;fill-opacity:1;fill-rule:nonzero;stroke:none"
           id="text1090"><tspan
             x="0 6"
             y="0"
             sodipodi:role="line"
             id="tspan1088">2s</tspan></text>
      </g>
      <g
         id="g1092"
         transform="matrix(0.05,0,0,-0.05,-487,384)">
        <path
           d="m 15012.82,500.6503 c 0,-19.5283 -15.85,-35.3793 -35.38,-35.3793 0,0 -212.28,0 -212.28,0 -19.52,0 -35.38,-15.851 -35.38,-35.3793 0,19.5283 -15.85,35.3793 -35.37,35.3793 0,0 -212.28,0 -212.28,0 -19.53,0 -35.38,15.851 -35.38,35.3793"
           style="fill:none;stroke:#000000;stroke-width:20;stroke-linecap:butt;stroke-linejoin:miter;stroke-miterlimit:10;stroke-dasharray:none;stroke-opacity:1"
           id="path1094" />
      </g>
      <g
         id="g1096"
         transform="matrix(1,0,0,-1,242.1071,381.5017)">
        <text
           transform="translate(0,13.5)"
           style="font-variant:normal;font-weight:normal;font-size:18px;font-family:Times;-inkscape-font-specification:Times-Roman;writing-mode:lr-tb;fill:#000000;fill-opacity:1;fill-rule:nonzero;stroke:none"
           id="text1100"><tspan
             x="0"
             y="0"
             id="tspan1098">H</tspan></text>
      </g>
      <g
         id="g1102"
         transform="matrix(0.05,0,0,-0.05,-487,384)">
        <path
           d="m 12770.38,874.0079 -6.64,3119.9931"
           style="fill:none;stroke:#000000;stroke-width:20;stroke-linecap:butt;stroke-linejoin:miter;stroke-miterlimit:10;stroke-dasharray:60, 60;stroke-dashoffset:0;stroke-opacity:1"
           id="path1104" />
      </g>
      <g
         id="g1106"
         transform="matrix(0.05,0,0,-0.05,-487,384)">
        <path
           d="m 11901.5,1751.991 h 3120"
           style="fill:none;stroke:#000000;stroke-width:20;stroke-linecap:butt;stroke-linejoin:miter;stroke-miterlimit:10;stroke-dasharray:60, 60;stroke-dashoffset:0;stroke-opacity:1"
           id="path1108" />
      </g>
    </g>
  </g>
</svg>
