<?xml version="1.0" encoding="UTF-8" standalone="no"?>
<!-- Created with Inkscape (http://www.inkscape.org/) -->

<svg
   version="1.1"
   id="svg2"
   xml:space="preserve"
   width="169.33333"
   height="132"
   viewBox="0 0 169.33333 132"
   sodipodi:docname="MM_methanestretch_odd.svg"
   inkscape:version="1.1 (ce6663b3b7, 2021-05-25)"
   xmlns:inkscape="http://www.inkscape.org/namespaces/inkscape"
   xmlns:sodipodi="http://sodipodi.sourceforge.net/DTD/sodipodi-0.dtd"
   xmlns="http://www.w3.org/2000/svg"
   xmlns:svg="http://www.w3.org/2000/svg"><defs
     id="defs6"><clipPath
       clipPathUnits="userSpaceOnUse"
       id="clipPath22"><path
         d="M 7.086,96.164 H 120.473 V 15.379 H 7.086 Z"
         id="path20" /></clipPath><clipPath
       clipPathUnits="userSpaceOnUse"
       id="clipPath30"><path
         d="M 0,0 H 127 V 99 H 0 Z"
         id="path28" /></clipPath><clipPath
       clipPathUnits="userSpaceOnUse"
       id="clipPath46"><path
         d="M 0,0 H 127 V 99 H 0 Z"
         id="path44" /></clipPath><clipPath
       clipPathUnits="userSpaceOnUse"
       id="clipPath62"><path
         d="M 0,0 H 127 V 99 H 0 Z"
         id="path60" /></clipPath></defs><sodipodi:namedview
     id="namedview4"
     pagecolor="#ffffff"
     bordercolor="#666666"
     borderopacity="1.0"
     inkscape:pageshadow="2"
     inkscape:pageopacity="0.0"
     inkscape:pagecheckerboard="0"
     showgrid="false"
     inkscape:zoom="6.2272727"
     inkscape:cx="54.759124"
     inkscape:cy="66"
     inkscape:window-width="2493"
     inkscape:window-height="1385"
     inkscape:window-x="1987"
     inkscape:window-y="27"
     inkscape:window-maximized="1"
     inkscape:current-layer="g8" /><g
     id="g8"
     inkscape:groupmode="layer"
     inkscape:label="MM_methanestretch_odd"
     transform="matrix(1.3333333,0,0,-1.3333333,0,132)"><g
       id="g10"><path
         d="M 0,0 H 127 V 99 H 0 Z"
         style="fill:#ffffff;fill-opacity:1;fill-rule:nonzero;stroke:none"
         id="path12" /><path
         d="M 7.086,96.164 H 120.473 V 15.379 H 7.086 Z"
         style="fill:#ffffff;fill-opacity:1;fill-rule:nonzero;stroke:none"
         id="path14" /></g><g
       id="g16"><g
         id="g18"
         clip-path="url(#clipPath22)"><g
           id="g24"><g
             id="g26" /><g
             id="g38"><g
               clip-path="url(#clipPath30)"
               id="g36"><g
                 id="g34"><path
                   d="m 6.695,90.191 0.871,-5.609 0.872,-5.262 1.746,-9.554 1.742,-8.383 1.746,-7.348 1.746,-6.414 1.742,-5.582 1.746,-4.84 1.742,-4.172 1.747,-3.582 1.742,-3.05 1.746,-2.571 1.742,-2.148 1.746,-1.762 1.746,-1.422 1.742,-1.109 1.746,-0.84 1.743,-0.598 1.746,-0.367 1.742,-0.176 h 1.746 l 1.746,0.157 2.613,0.492 2.618,0.762 2.617,0.984 3.488,1.594 3.488,1.855 4.364,2.582 5.23,3.379 7.852,5.391 21.804,15.09 7.852,5.097 7.848,4.82 6.976,4.036 0.875,0.488"
                   style="fill:none;stroke:#000000;stroke-width:0.5;stroke-linecap:square;stroke-linejoin:round;stroke-miterlimit:4;stroke-dasharray:none;stroke-opacity:1"
                   id="path32" /></g></g></g></g><g
           id="g40"><g
             id="g42" /><g
             id="g54"><g
               clip-path="url(#clipPath46)"
               id="g52"><g
                 id="g50"><path
                   d="m 6.695,50 2.618,-5.121 2.613,-4.711 2.617,-4.305 2.617,-3.89 2.617,-3.485 2.618,-3.07 2.617,-2.664 2.613,-2.254 2.617,-1.844 1.746,-1.004 1.742,-0.816 1.747,-0.637 1.746,-0.457 1.742,-0.273 1.746,-0.09 1.742,0.09 1.746,0.273 1.742,0.457 1.747,0.637 1.746,0.816 1.742,1.004 1.746,1.184 2.617,2.117 2.613,2.527 2.618,2.934 2.617,3.348 2.617,3.754 2.617,4.168 2.617,4.574 2.614,4.984 2.617,5.395 2.617,5.804 3.488,8.379 3.489,9.106 3.492,9.832 3.488,10.562 0.848,2.676"
                   style="fill:none;stroke:#000000;stroke-width:0.5;stroke-linecap:butt;stroke-linejoin:round;stroke-miterlimit:4;stroke-dasharray:2, 2;stroke-dashoffset:0;stroke-opacity:1"
                   id="path48" /></g></g></g></g><g
           id="g56"><g
             id="g58" /><g
             id="g70"><g
               clip-path="url(#clipPath62)"
               id="g68"><g
                 id="g66"><path
                   d="m 7.305,100 1.133,-7.879 1.746,-11.016 1.742,-9.839 1.746,-8.746 1.746,-7.735 1.742,-6.801 1.746,-5.937 1.742,-5.149 1.747,-4.425 1.742,-3.77 1.746,-3.176 1.742,-2.632 1.746,-2.149 1.746,-1.715 1.742,-1.328 1.746,-0.988 1.743,-0.692 1.746,-0.425 1.742,-0.196 1.746,-0.004 1.746,0.168 2.613,0.516 2.618,0.773 2.617,0.977 3.488,1.563 3.488,1.828 3.493,2.105 2.613,1.809 2.617,2.051 2.617,2.359 2.617,2.754 1.743,2.097 1.746,2.356 1.746,2.641 1.742,2.968 1.746,3.34 1.742,3.762 1.746,4.226 1.743,4.75 1.746,5.329 1.746,5.968 1.742,6.668 1.746,7.438 1.742,8.277 1.504,7.879"
                   style="fill:none;stroke:#000000;stroke-width:0.5;stroke-linecap:butt;stroke-linejoin:round;stroke-miterlimit:4;stroke-dasharray:3, 1, 1, 1;stroke-dashoffset:0;stroke-opacity:1"
                   id="path64" /></g></g></g></g></g></g><g
       id="g72"><path
         d="m 15.809,15.379 v 0.75"
         style="fill:#000000;fill-opacity:1;fill-rule:nonzero;stroke:#000000;stroke-width:0.5;stroke-linecap:square;stroke-linejoin:round;stroke-miterlimit:4;stroke-dasharray:none;stroke-opacity:1"
         id="path74" /><path
         d="m 15.809,96.164 v -0.75"
         style="fill:#000000;fill-opacity:1;fill-rule:nonzero;stroke:#000000;stroke-width:0.5;stroke-linecap:square;stroke-linejoin:round;stroke-miterlimit:4;stroke-dasharray:none;stroke-opacity:1"
         id="path76" /><path
         d="m 12.441,10.207 c 0,0.348 0.02,0.664 0.055,0.941 0.035,0.278 0.113,0.524 0.231,0.743 0.121,0.218 0.273,0.382 0.453,0.488 0.179,0.109 0.386,0.164 0.617,0.164 0.262,0 0.492,-0.066 0.687,-0.203 0.2,-0.133 0.344,-0.34 0.43,-0.621 0.086,-0.278 0.129,-0.656 0.129,-1.137 0,-0.781 -0.117,-1.359 -0.359,-1.727 -0.239,-0.371 -0.571,-0.554 -0.993,-0.554 -0.214,0 -0.402,0.047 -0.566,0.137 -0.16,0.093 -0.297,0.226 -0.398,0.398 -0.106,0.176 -0.18,0.379 -0.223,0.617 -0.039,0.235 -0.063,0.488 -0.063,0.754 m 0.504,0.172 c 0,-0.371 0.028,-0.711 0.086,-1.016 0.055,-0.304 0.149,-0.523 0.278,-0.656 0.129,-0.133 0.285,-0.199 0.464,-0.199 0.172,0 0.317,0.058 0.434,0.176 0.117,0.121 0.203,0.324 0.254,0.613 0.055,0.289 0.082,0.648 0.082,1.074 0,0.668 -0.063,1.16 -0.191,1.481 -0.125,0.32 -0.336,0.48 -0.629,0.48 -0.258,0 -0.45,-0.125 -0.582,-0.371 -0.129,-0.25 -0.196,-0.777 -0.196,-1.582"
         style="fill:#000000;fill-opacity:1;fill-rule:nonzero;stroke:none"
         id="path78" /><path
         d="m 16.012,9.066 c 0.093,0 0.176,-0.035 0.242,-0.101 0.07,-0.067 0.105,-0.149 0.105,-0.25 0,-0.098 -0.035,-0.18 -0.101,-0.246 -0.07,-0.071 -0.153,-0.102 -0.246,-0.102 -0.098,0 -0.184,0.031 -0.25,0.098 -0.071,0.07 -0.102,0.152 -0.102,0.25 0,0.098 0.031,0.18 0.102,0.25 0.066,0.066 0.152,0.101 0.25,0.101"
         style="fill:#000000;fill-opacity:1;fill-rule:nonzero;stroke:none"
         id="path80" /><path
         d="m 17.746,10.496 c -0.219,0.113 -0.383,0.246 -0.496,0.395 -0.109,0.152 -0.168,0.332 -0.168,0.547 0,0.296 0.113,0.554 0.332,0.765 0.219,0.215 0.52,0.324 0.902,0.324 0.192,0 0.372,-0.035 0.539,-0.101 0.165,-0.071 0.29,-0.168 0.379,-0.301 0.09,-0.137 0.137,-0.285 0.137,-0.449 0,-0.172 -0.055,-0.336 -0.16,-0.492 -0.106,-0.161 -0.289,-0.317 -0.559,-0.481 v -0.027 c 0.231,-0.11 0.399,-0.203 0.508,-0.278 0.113,-0.074 0.203,-0.179 0.274,-0.308 0.07,-0.129 0.105,-0.281 0.105,-0.449 0,-0.235 -0.066,-0.457 -0.203,-0.672 C 19.203,8.758 19.027,8.594 18.809,8.484 18.59,8.371 18.363,8.316 18.129,8.316 c -0.34,0 -0.625,0.094 -0.848,0.286 -0.222,0.191 -0.332,0.449 -0.332,0.765 0,0.258 0.074,0.481 0.231,0.668 0.152,0.184 0.34,0.332 0.566,0.434 z m 0.68,0.281 c 0.211,0.129 0.351,0.262 0.426,0.395 0.074,0.129 0.113,0.273 0.113,0.426 0,0.222 -0.067,0.402 -0.195,0.531 -0.129,0.133 -0.301,0.199 -0.516,0.199 -0.211,0 -0.383,-0.058 -0.52,-0.176 -0.136,-0.117 -0.203,-0.277 -0.203,-0.488 0,-0.156 0.043,-0.297 0.133,-0.41 0.09,-0.117 0.344,-0.277 0.762,-0.477 M 17.98,10.391 C 17.75,10.254 17.59,10.105 17.5,9.949 17.41,9.793 17.367,9.613 17.367,9.414 c 0,-0.277 0.078,-0.496 0.235,-0.656 0.156,-0.16 0.359,-0.238 0.605,-0.238 0.164,0 0.316,0.039 0.453,0.117 0.137,0.078 0.242,0.183 0.309,0.32 0.066,0.133 0.101,0.281 0.101,0.441 0,0.231 -0.082,0.411 -0.242,0.54 -0.16,0.128 -0.445,0.281 -0.848,0.453"
         style="fill:#000000;fill-opacity:1;fill-rule:nonzero;stroke:none"
         id="path82" /><path
         d="m 33.254,15.379 v 0.75"
         style="fill:#000000;fill-opacity:1;fill-rule:nonzero;stroke:#000000;stroke-width:0.5;stroke-linecap:square;stroke-linejoin:round;stroke-miterlimit:4;stroke-dasharray:none;stroke-opacity:1"
         id="path84" /><path
         d="m 33.254,96.164 v -0.75"
         style="fill:#000000;fill-opacity:1;fill-rule:nonzero;stroke:#000000;stroke-width:0.5;stroke-linecap:square;stroke-linejoin:round;stroke-miterlimit:4;stroke-dasharray:none;stroke-opacity:1"
         id="path86" /><path
         d="m 30.242,11.695 -0.051,0.02 -0.031,0.238 0.031,0.031 c 0.192,0.055 0.442,0.149 0.739,0.274 0.3,0.125 0.515,0.219 0.644,0.285 l 0.074,-0.027 C 31.617,11.66 31.602,11.145 31.602,10.973 V 9.887 c 0,-0.27 0.003,-0.52 0.007,-0.754 C 31.617,8.898 31.625,8.758 31.637,8.715 31.648,8.672 31.668,8.641 31.695,8.617 31.727,8.594 31.766,8.578 31.816,8.57 31.867,8.566 32.02,8.555 32.27,8.543 L 32.289,8.52 V 8.387 L 32.27,8.363 c -0.426,0.016 -0.731,0.024 -0.907,0.024 -0.133,0 -0.457,-0.008 -0.976,-0.024 l -0.02,0.024 V 8.52 l 0.024,0.023 c 0.293,0.02 0.461,0.035 0.504,0.047 0.043,0.008 0.074,0.023 0.097,0.051 0.024,0.023 0.039,0.07 0.051,0.136 0.016,0.071 0.027,0.274 0.035,0.61 0.008,0.336 0.012,0.508 0.012,0.515 v 1.153 c 0,0.566 0,0.875 -0.004,0.922 0,0.05 -0.02,0.074 -0.051,0.074 -0.008,0 -0.015,0 -0.031,-0.004 -0.012,-0.004 -0.055,-0.024 -0.129,-0.055 l -0.289,-0.129 c -0.121,-0.05 -0.234,-0.109 -0.344,-0.168"
         style="fill:#000000;fill-opacity:1;fill-rule:nonzero;stroke:none"
         id="path88" /><path
         d="m 33.543,9.035 c 0.094,0 0.176,-0.035 0.246,-0.101 0.07,-0.067 0.106,-0.149 0.106,-0.25 0,-0.098 -0.036,-0.18 -0.106,-0.246 -0.066,-0.071 -0.148,-0.106 -0.246,-0.106 -0.098,0 -0.18,0.035 -0.25,0.102 -0.066,0.066 -0.102,0.152 -0.102,0.25 0,0.097 0.036,0.179 0.102,0.246 0.07,0.07 0.152,0.105 0.25,0.105"
         style="fill:#000000;fill-opacity:1;fill-rule:nonzero;stroke:none"
         id="path90" /><path
         d="m 34.477,10.176 c 0,0.347 0.015,0.66 0.05,0.941 0.036,0.278 0.114,0.524 0.235,0.742 0.121,0.219 0.269,0.379 0.449,0.489 0.184,0.109 0.387,0.164 0.617,0.164 0.262,0 0.492,-0.067 0.692,-0.203 0.199,-0.133 0.339,-0.34 0.425,-0.621 0.09,-0.278 0.133,-0.661 0.133,-1.141 0,-0.781 -0.121,-1.356 -0.359,-1.723 C 36.48,8.453 36.148,8.27 35.723,8.27 35.512,8.27 35.324,8.316 35.16,8.406 34.996,8.5 34.863,8.633 34.758,8.805 34.652,8.98 34.582,9.184 34.539,9.422 34.496,9.656 34.477,9.91 34.477,10.176 m 0.503,0.172 c 0,-0.371 0.028,-0.711 0.083,-1.016 0.054,-0.305 0.148,-0.523 0.277,-0.656 0.133,-0.133 0.285,-0.203 0.465,-0.203 0.175,0 0.32,0.062 0.437,0.179 0.117,0.121 0.199,0.325 0.254,0.614 0.055,0.289 0.078,0.644 0.078,1.07 0,0.668 -0.062,1.164 -0.187,1.484 -0.129,0.321 -0.34,0.481 -0.633,0.481 -0.254,0 -0.449,-0.125 -0.578,-0.371 -0.133,-0.25 -0.196,-0.778 -0.196,-1.582"
         style="fill:#000000;fill-opacity:1;fill-rule:nonzero;stroke:none"
         id="path92" /><path
         d="m 50.695,15.379 v 0.75"
         style="fill:#000000;fill-opacity:1;fill-rule:nonzero;stroke:#000000;stroke-width:0.5;stroke-linecap:square;stroke-linejoin:round;stroke-miterlimit:4;stroke-dasharray:none;stroke-opacity:1"
         id="path94" /><path
         d="m 50.695,96.164 v -0.75"
         style="fill:#000000;fill-opacity:1;fill-rule:nonzero;stroke:#000000;stroke-width:0.5;stroke-linecap:square;stroke-linejoin:round;stroke-miterlimit:4;stroke-dasharray:none;stroke-opacity:1"
         id="path96" /><path
         d="m 47.68,11.695 -0.055,0.02 -0.027,0.238 0.027,0.031 c 0.195,0.055 0.445,0.149 0.742,0.274 0.301,0.125 0.512,0.219 0.641,0.285 l 0.078,-0.027 C 49.055,11.66 49.039,11.145 49.039,10.973 V 9.887 c 0,-0.27 0.004,-0.52 0.008,-0.754 0.008,-0.235 0.016,-0.375 0.027,-0.418 0.012,-0.043 0.031,-0.074 0.059,-0.098 0.027,-0.023 0.07,-0.039 0.121,-0.047 0.051,-0.004 0.203,-0.015 0.453,-0.027 L 49.727,8.52 V 8.387 l -0.02,-0.024 c -0.43,0.016 -0.73,0.024 -0.906,0.024 -0.133,0 -0.457,-0.008 -0.977,-0.024 L 47.805,8.387 V 8.52 l 0.023,0.023 c 0.293,0.02 0.461,0.035 0.504,0.047 0.043,0.008 0.074,0.023 0.098,0.051 0.019,0.023 0.039,0.07 0.05,0.136 0.016,0.071 0.028,0.274 0.036,0.61 0.007,0.336 0.011,0.508 0.011,0.515 v 1.153 c 0,0.566 0,0.875 -0.004,0.922 -0.003,0.05 -0.019,0.074 -0.05,0.074 -0.008,0 -0.016,0 -0.032,-0.004 -0.015,-0.004 -0.058,-0.024 -0.128,-0.055 l -0.29,-0.129 c -0.121,-0.05 -0.238,-0.109 -0.343,-0.168"
         style="fill:#000000;fill-opacity:1;fill-rule:nonzero;stroke:none"
         id="path98" /><path
         d="m 50.98,9.035 c 0.094,0 0.176,-0.035 0.247,-0.101 0.07,-0.067 0.101,-0.149 0.101,-0.25 0,-0.098 -0.031,-0.18 -0.101,-0.246 C 51.16,8.367 51.078,8.332 50.98,8.332 c -0.097,0 -0.179,0.035 -0.25,0.102 -0.066,0.066 -0.101,0.152 -0.101,0.25 0,0.097 0.035,0.179 0.101,0.246 0.071,0.07 0.153,0.105 0.25,0.105"
         style="fill:#000000;fill-opacity:1;fill-rule:nonzero;stroke:none"
         id="path100" /><path
         d="M 51.867,8.355 51.832,8.387 V 8.52 l 0.981,1.043 c 0.402,0.425 0.664,0.757 0.785,0.992 0.117,0.234 0.179,0.453 0.179,0.656 0,0.238 -0.074,0.437 -0.218,0.594 -0.145,0.16 -0.34,0.238 -0.586,0.238 -0.157,0 -0.297,-0.023 -0.414,-0.074 -0.118,-0.047 -0.196,-0.102 -0.235,-0.164 -0.039,-0.059 -0.097,-0.231 -0.176,-0.508 l -0.023,-0.024 h -0.121 l -0.031,0.024 c 0.047,0.266 0.078,0.527 0.093,0.785 0.184,0.18 0.356,0.293 0.516,0.344 0.16,0.051 0.328,0.074 0.5,0.074 0.207,0 0.406,-0.039 0.594,-0.117 0.191,-0.078 0.344,-0.203 0.457,-0.379 0.117,-0.176 0.172,-0.379 0.172,-0.609 0,-0.172 -0.032,-0.344 -0.098,-0.516 -0.07,-0.176 -0.168,-0.34 -0.297,-0.504 -0.129,-0.16 -0.308,-0.352 -0.531,-0.578 l -0.914,-0.93 h 1.156 c 0.356,0 0.652,0.012 0.887,0.039 L 54.527,8.883 C 54.516,8.816 54.512,8.727 54.512,8.621 c 0,-0.098 0.004,-0.176 0.015,-0.23 L 54.508,8.355 C 54.367,8.363 54.152,8.371 53.859,8.379 53.57,8.383 53.379,8.387 53.285,8.387 53.094,8.387 52.84,8.383 52.52,8.379 52.199,8.375 51.98,8.367 51.867,8.355"
         style="fill:#000000;fill-opacity:1;fill-rule:nonzero;stroke:none"
         id="path102" /><path
         d="m 68.141,15.379 v 0.75"
         style="fill:#000000;fill-opacity:1;fill-rule:nonzero;stroke:#000000;stroke-width:0.5;stroke-linecap:square;stroke-linejoin:round;stroke-miterlimit:4;stroke-dasharray:none;stroke-opacity:1"
         id="path104" /><path
         d="m 68.141,96.164 v -0.75"
         style="fill:#000000;fill-opacity:1;fill-rule:nonzero;stroke:#000000;stroke-width:0.5;stroke-linecap:square;stroke-linejoin:round;stroke-miterlimit:4;stroke-dasharray:none;stroke-opacity:1"
         id="path106" /><path
         d="m 65.105,11.695 -0.054,0.02 -0.028,0.238 0.028,0.031 c 0.195,0.055 0.441,0.149 0.742,0.274 0.297,0.125 0.512,0.219 0.641,0.285 l 0.078,-0.027 C 66.48,11.66 66.465,11.145 66.465,10.973 V 9.887 c 0,-0.27 0,-0.52 0.008,-0.754 0.004,-0.235 0.015,-0.375 0.023,-0.418 0.016,-0.043 0.035,-0.074 0.063,-0.098 0.027,-0.023 0.066,-0.039 0.117,-0.047 0.051,-0.004 0.203,-0.015 0.457,-0.027 L 67.152,8.52 V 8.387 L 67.133,8.363 c -0.43,0.016 -0.731,0.024 -0.906,0.024 -0.133,0 -0.457,-0.008 -0.977,-0.024 L 65.23,8.387 V 8.52 l 0.024,0.023 c 0.293,0.02 0.461,0.035 0.5,0.047 0.043,0.008 0.078,0.023 0.098,0.051 0.023,0.023 0.043,0.07 0.054,0.136 0.016,0.071 0.024,0.274 0.035,0.61 0.008,0.336 0.012,0.508 0.012,0.515 v 1.153 c 0,0.566 0,0.875 -0.004,0.922 -0.004,0.05 -0.019,0.074 -0.051,0.074 -0.007,0 -0.019,0 -0.031,-0.004 -0.015,-0.004 -0.058,-0.024 -0.129,-0.055 l -0.293,-0.129 c -0.121,-0.05 -0.234,-0.109 -0.34,-0.168"
         style="fill:#000000;fill-opacity:1;fill-rule:nonzero;stroke:none"
         id="path108" /><path
         d="m 68.406,9.035 c 0.094,0 0.176,-0.035 0.246,-0.101 0.067,-0.067 0.102,-0.149 0.102,-0.25 0,-0.098 -0.035,-0.18 -0.102,-0.246 -0.07,-0.071 -0.152,-0.106 -0.246,-0.106 -0.097,0 -0.179,0.035 -0.25,0.102 -0.066,0.066 -0.101,0.152 -0.101,0.25 0,0.097 0.035,0.179 0.101,0.246 0.071,0.07 0.153,0.105 0.25,0.105"
         style="fill:#000000;fill-opacity:1;fill-rule:nonzero;stroke:none"
         id="path110" /><path
         d="m 70.121,8.363 -0.023,0.024 v 0.125 l 0.023,0.023 c 0.289,0.008 0.461,0.016 0.512,0.028 0.055,0.007 0.094,0.031 0.121,0.062 0.023,0.031 0.043,0.105 0.055,0.227 0.011,0.121 0.019,0.25 0.019,0.386 v 0.219 h -0.64 c -0.375,0 -0.688,-0.008 -0.946,-0.019 l -0.051,0.16 c 0.34,0.636 0.907,1.558 1.704,2.765 l 0.41,0.164 0.074,-0.035 C 71.359,12.16 71.348,11.75 71.348,11.262 L 71.34,10.434 V 9.828 c 0.269,0.004 0.476,0.008 0.621,0.016 l 0.027,-0.028 c -0.004,-0.074 -0.004,-0.128 -0.004,-0.16 0,-0.066 0.004,-0.129 0.008,-0.191 L 71.961,9.438 C 71.773,9.449 71.613,9.457 71.488,9.457 H 71.34 V 9.258 c 0,-0.219 0.004,-0.371 0.015,-0.465 0.012,-0.09 0.032,-0.148 0.055,-0.176 0.028,-0.027 0.078,-0.047 0.156,-0.058 0.079,-0.012 0.211,-0.02 0.399,-0.024 L 71.992,8.512 V 8.387 L 71.969,8.363 c -0.344,0.016 -0.633,0.024 -0.864,0.024 -0.378,0 -0.707,-0.008 -0.984,-0.024 m -0.543,1.465 h 1.25 l 0.027,2.082 C 70.668,11.645 70.43,11.277 70.145,10.809 69.859,10.344 69.672,10.016 69.578,9.828"
         style="fill:#000000;fill-opacity:1;fill-rule:nonzero;stroke:none"
         id="path112" /><path
         d="m 85.586,15.379 v 0.75"
         style="fill:#000000;fill-opacity:1;fill-rule:nonzero;stroke:#000000;stroke-width:0.5;stroke-linecap:square;stroke-linejoin:round;stroke-miterlimit:4;stroke-dasharray:none;stroke-opacity:1"
         id="path114" /><path
         d="m 85.586,96.164 v -0.75"
         style="fill:#000000;fill-opacity:1;fill-rule:nonzero;stroke:#000000;stroke-width:0.5;stroke-linecap:square;stroke-linejoin:round;stroke-miterlimit:4;stroke-dasharray:none;stroke-opacity:1"
         id="path116" /><path
         d="m 82.566,11.695 -0.05,0.02 -0.032,0.238 0.032,0.031 c 0.195,0.055 0.441,0.149 0.738,0.274 0.301,0.125 0.516,0.219 0.644,0.285 l 0.075,-0.027 C 83.941,11.66 83.926,11.145 83.926,10.973 V 9.887 c 0,-0.27 0.004,-0.52 0.008,-0.754 0.007,-0.235 0.015,-0.375 0.027,-0.418 0.012,-0.043 0.031,-0.074 0.059,-0.098 0.031,-0.023 0.07,-0.039 0.121,-0.047 0.05,-0.004 0.203,-0.015 0.453,-0.027 L 84.617,8.52 V 8.387 L 84.594,8.363 c -0.426,0.016 -0.731,0.024 -0.906,0.024 -0.129,0 -0.458,-0.008 -0.973,-0.024 l -0.02,0.024 V 8.52 l 0.024,0.023 c 0.289,0.02 0.457,0.035 0.5,0.047 0.043,0.008 0.074,0.023 0.097,0.051 0.024,0.023 0.039,0.07 0.055,0.136 0.012,0.071 0.024,0.274 0.031,0.61 0.012,0.336 0.016,0.508 0.016,0.515 v 1.153 c 0,0.566 -0.004,0.875 -0.008,0.922 0,0.05 -0.019,0.074 -0.051,0.074 -0.004,0 -0.015,0 -0.031,-0.004 -0.012,-0.004 -0.055,-0.024 -0.129,-0.055 L 82.91,11.863 c -0.121,-0.05 -0.234,-0.109 -0.344,-0.168"
         style="fill:#000000;fill-opacity:1;fill-rule:nonzero;stroke:none"
         id="path118" /><path
         d="m 85.867,9.035 c 0.094,0 0.176,-0.035 0.246,-0.101 0.071,-0.067 0.106,-0.149 0.106,-0.25 0,-0.098 -0.035,-0.18 -0.106,-0.246 -0.066,-0.071 -0.148,-0.106 -0.246,-0.106 -0.094,0 -0.179,0.035 -0.246,0.102 -0.07,0.066 -0.105,0.152 -0.105,0.25 0,0.097 0.035,0.179 0.105,0.246 0.067,0.07 0.152,0.105 0.246,0.105"
         style="fill:#000000;fill-opacity:1;fill-rule:nonzero;stroke:none"
         id="path120" /><path
         d="m 89.148,12.438 v -0.036 c -0.21,-0.043 -0.453,-0.148 -0.726,-0.32 -0.274,-0.168 -0.5,-0.391 -0.688,-0.676 -0.183,-0.281 -0.293,-0.625 -0.32,-1.023 0.066,0.047 0.141,0.101 0.227,0.168 0.113,0.086 0.195,0.14 0.246,0.172 0.051,0.031 0.121,0.058 0.207,0.082 0.086,0.023 0.187,0.035 0.301,0.035 0.203,0 0.382,-0.043 0.543,-0.133 0.16,-0.09 0.277,-0.219 0.359,-0.391 0.078,-0.175 0.121,-0.375 0.121,-0.605 0,-0.324 -0.082,-0.598 -0.238,-0.82 C 89.02,8.672 88.852,8.516 88.676,8.422 88.496,8.324 88.293,8.277 88.063,8.277 c -0.391,0 -0.696,0.149 -0.915,0.442 -0.214,0.293 -0.324,0.676 -0.324,1.148 0,0.313 0.047,0.613 0.137,0.899 0.09,0.289 0.227,0.55 0.414,0.781 0.184,0.234 0.422,0.441 0.711,0.625 0.289,0.18 0.57,0.305 0.852,0.367 z M 87.359,9.645 c 0,-0.196 0.028,-0.387 0.082,-0.575 0.055,-0.191 0.145,-0.336 0.266,-0.441 0.125,-0.102 0.27,-0.156 0.434,-0.156 0.144,0 0.277,0.043 0.398,0.121 0.121,0.082 0.211,0.207 0.277,0.375 0.063,0.172 0.094,0.351 0.094,0.543 0,0.187 -0.031,0.359 -0.094,0.508 -0.062,0.148 -0.152,0.265 -0.273,0.347 -0.117,0.086 -0.258,0.125 -0.414,0.125 -0.117,0 -0.234,-0.027 -0.352,-0.086 C 87.66,10.352 87.57,10.285 87.504,10.215 87.441,10.141 87.402,10.066 87.383,9.984 87.367,9.902 87.359,9.789 87.359,9.645"
         style="fill:#000000;fill-opacity:1;fill-rule:nonzero;stroke:none"
         id="path122" /><path
         d="m 103.027,15.379 v 0.75"
         style="fill:#000000;fill-opacity:1;fill-rule:nonzero;stroke:#000000;stroke-width:0.5;stroke-linecap:square;stroke-linejoin:round;stroke-miterlimit:4;stroke-dasharray:none;stroke-opacity:1"
         id="path124" /><path
         d="m 103.027,96.164 v -0.75"
         style="fill:#000000;fill-opacity:1;fill-rule:nonzero;stroke:#000000;stroke-width:0.5;stroke-linecap:square;stroke-linejoin:round;stroke-miterlimit:4;stroke-dasharray:none;stroke-opacity:1"
         id="path126" /><path
         d="m 100.02,11.695 -0.051,0.02 -0.031,0.238 0.031,0.031 c 0.195,0.055 0.441,0.149 0.742,0.274 0.297,0.125 0.512,0.219 0.641,0.285 l 0.074,-0.027 c -0.031,-0.856 -0.047,-1.371 -0.047,-1.543 V 9.887 c 0,-0.27 0.004,-0.52 0.012,-0.754 0.004,-0.235 0.011,-0.375 0.023,-0.418 0.012,-0.043 0.031,-0.074 0.063,-0.098 0.027,-0.023 0.066,-0.039 0.117,-0.047 0.051,-0.004 0.203,-0.015 0.453,-0.027 L 102.07,8.52 V 8.387 l -0.023,-0.024 c -0.426,0.016 -0.727,0.024 -0.902,0.024 -0.133,0 -0.461,-0.008 -0.977,-0.024 l -0.02,0.024 V 8.52 l 0.024,0.023 c 0.293,0.02 0.457,0.035 0.5,0.047 0.043,0.008 0.074,0.023 0.098,0.051 0.023,0.023 0.039,0.07 0.054,0.136 0.012,0.071 0.024,0.274 0.031,0.61 0.012,0.336 0.016,0.508 0.016,0.515 v 1.153 c 0,0.566 -0.004,0.875 -0.004,0.922 -0.004,0.05 -0.019,0.074 -0.051,0.074 -0.007,0 -0.019,0 -0.035,-0.004 -0.011,-0.004 -0.054,-0.024 -0.129,-0.055 l -0.289,-0.129 c -0.121,-0.05 -0.234,-0.109 -0.343,-0.168"
         style="fill:#000000;fill-opacity:1;fill-rule:nonzero;stroke:none"
         id="path128" /><path
         d="m 103.324,9.035 c 0.094,0 0.176,-0.035 0.242,-0.101 0.071,-0.067 0.106,-0.149 0.106,-0.25 0,-0.098 -0.035,-0.18 -0.102,-0.246 -0.07,-0.071 -0.152,-0.106 -0.246,-0.106 -0.097,0 -0.183,0.035 -0.25,0.102 -0.07,0.066 -0.101,0.152 -0.101,0.25 0,0.097 0.031,0.179 0.101,0.246 0.067,0.07 0.153,0.105 0.25,0.105"
         style="fill:#000000;fill-opacity:1;fill-rule:nonzero;stroke:none"
         id="path130" /><path
         d="m 105.059,10.465 c -0.219,0.113 -0.383,0.246 -0.496,0.394 -0.11,0.153 -0.168,0.332 -0.168,0.543 0,0.301 0.109,0.559 0.332,0.77 0.218,0.215 0.519,0.32 0.902,0.32 0.191,0 0.371,-0.031 0.539,-0.101 0.164,-0.067 0.289,-0.164 0.379,-0.301 0.09,-0.133 0.137,-0.281 0.137,-0.445 0,-0.172 -0.055,-0.336 -0.161,-0.497 -0.105,-0.156 -0.289,-0.316 -0.558,-0.476 v -0.027 c 0.23,-0.11 0.398,-0.204 0.508,-0.278 0.113,-0.078 0.203,-0.179 0.273,-0.308 0.07,-0.129 0.106,-0.282 0.106,-0.45 0,-0.234 -0.067,-0.457 -0.204,-0.671 -0.132,-0.211 -0.308,-0.375 -0.527,-0.489 -0.219,-0.109 -0.445,-0.164 -0.68,-0.164 -0.343,0 -0.625,0.094 -0.847,0.285 -0.223,0.192 -0.332,0.446 -0.332,0.766 0,0.258 0.074,0.48 0.226,0.664 0.157,0.188 0.344,0.332 0.571,0.438 z m 0.679,0.281 c 0.211,0.129 0.352,0.262 0.426,0.395 0.074,0.129 0.113,0.273 0.113,0.425 0,0.223 -0.066,0.403 -0.195,0.532 -0.129,0.132 -0.301,0.195 -0.519,0.195 -0.208,0 -0.379,-0.055 -0.516,-0.172 -0.137,-0.117 -0.203,-0.281 -0.203,-0.488 0,-0.16 0.043,-0.297 0.133,-0.414 0.089,-0.114 0.343,-0.274 0.761,-0.473 m -0.445,-0.387 c -0.23,-0.136 -0.391,-0.285 -0.48,-0.441 -0.09,-0.16 -0.133,-0.336 -0.133,-0.535 0,-0.278 0.078,-0.5 0.234,-0.656 0.156,-0.161 0.356,-0.243 0.602,-0.243 0.168,0 0.32,0.039 0.457,0.118 0.136,0.078 0.242,0.187 0.308,0.32 0.067,0.137 0.102,0.285 0.102,0.445 0,0.231 -0.082,0.41 -0.242,0.539 -0.161,0.129 -0.446,0.282 -0.848,0.453"
         style="fill:#000000;fill-opacity:1;fill-rule:nonzero;stroke:none"
         id="path132" /><path
         d="m 120.473,15.379 v 0.75"
         style="fill:#000000;fill-opacity:1;fill-rule:nonzero;stroke:#000000;stroke-width:0.5;stroke-linecap:square;stroke-linejoin:round;stroke-miterlimit:4;stroke-dasharray:none;stroke-opacity:1"
         id="path134" /><path
         d="m 120.473,96.164 v -0.75"
         style="fill:#000000;fill-opacity:1;fill-rule:nonzero;stroke:#000000;stroke-width:0.5;stroke-linecap:square;stroke-linejoin:round;stroke-miterlimit:4;stroke-dasharray:none;stroke-opacity:1"
         id="path136" /><path
         d="m 117.016,8.391 -0.036,0.027 v 0.137 l 0.981,1.039 c 0.406,0.426 0.668,0.758 0.785,0.992 0.121,0.234 0.18,0.453 0.18,0.656 0,0.238 -0.074,0.438 -0.219,0.594 -0.144,0.16 -0.34,0.238 -0.586,0.238 -0.156,0 -0.293,-0.023 -0.41,-0.074 -0.117,-0.047 -0.195,-0.102 -0.238,-0.164 -0.039,-0.059 -0.098,-0.231 -0.172,-0.508 l -0.028,-0.023 h -0.121 l -0.027,0.027 c 0.043,0.262 0.074,0.523 0.094,0.781 0.183,0.18 0.355,0.293 0.511,0.344 0.161,0.051 0.329,0.074 0.5,0.074 0.208,0 0.407,-0.039 0.594,-0.117 0.192,-0.078 0.344,-0.203 0.457,-0.379 0.117,-0.176 0.176,-0.379 0.176,-0.609 0,-0.172 -0.035,-0.344 -0.102,-0.516 -0.07,-0.172 -0.167,-0.34 -0.296,-0.5 -0.129,-0.164 -0.309,-0.355 -0.532,-0.578 l -0.914,-0.934 h 1.157 c 0.355,0 0.652,0.012 0.89,0.04 l 0.02,-0.024 c -0.012,-0.066 -0.02,-0.152 -0.02,-0.262 0,-0.097 0.008,-0.175 0.02,-0.23 l -0.02,-0.031 c -0.14,0.007 -0.359,0.011 -0.648,0.019 -0.293,0.004 -0.485,0.008 -0.578,0.008 -0.192,0 -0.446,-0.004 -0.766,-0.008 -0.32,-0.004 -0.539,-0.012 -0.652,-0.019"
         style="fill:#000000;fill-opacity:1;fill-rule:nonzero;stroke:none"
         id="path138" /><path
         d="m 120.629,9.066 c 0.094,0 0.176,-0.035 0.246,-0.101 0.07,-0.067 0.105,-0.149 0.105,-0.25 0,-0.098 -0.035,-0.18 -0.105,-0.246 -0.066,-0.071 -0.148,-0.102 -0.246,-0.102 -0.098,0 -0.18,0.031 -0.246,0.098 -0.07,0.07 -0.106,0.152 -0.106,0.25 0,0.098 0.036,0.18 0.106,0.25 0.066,0.066 0.148,0.101 0.246,0.101"
         style="fill:#000000;fill-opacity:1;fill-rule:nonzero;stroke:none"
         id="path140" /><path
         d="m 121.563,10.207 c 0,0.348 0.015,0.664 0.05,0.941 0.035,0.278 0.114,0.524 0.235,0.743 0.121,0.218 0.269,0.382 0.453,0.488 0.179,0.109 0.383,0.164 0.617,0.164 0.258,0 0.488,-0.066 0.687,-0.203 0.2,-0.133 0.34,-0.34 0.43,-0.621 0.086,-0.278 0.129,-0.656 0.129,-1.137 0,-0.781 -0.121,-1.359 -0.359,-1.727 -0.239,-0.371 -0.571,-0.554 -0.996,-0.554 -0.211,0 -0.399,0.047 -0.563,0.137 -0.164,0.093 -0.297,0.226 -0.402,0.398 -0.106,0.176 -0.176,0.379 -0.219,0.617 -0.043,0.235 -0.062,0.488 -0.062,0.754 m 0.503,0.172 c 0,-0.371 0.028,-0.711 0.082,-1.016 0.055,-0.304 0.149,-0.523 0.278,-0.656 0.133,-0.133 0.285,-0.199 0.469,-0.199 0.171,0 0.316,0.058 0.433,0.176 0.117,0.121 0.199,0.324 0.254,0.613 0.055,0.289 0.082,0.648 0.082,1.074 0,0.668 -0.066,1.16 -0.191,1.481 -0.129,0.32 -0.336,0.48 -0.629,0.48 -0.258,0 -0.449,-0.125 -0.582,-0.371 -0.129,-0.25 -0.196,-0.777 -0.196,-1.582"
         style="fill:#000000;fill-opacity:1;fill-rule:nonzero;stroke:none"
         id="path142" /><text
         transform="matrix(1,0,0,-1,31.472656,1.385742)"
         style="font-variant:normal;font-weight:normal;font-size:6px;font-family:'Palatino Linotype';-inkscape-font-specification:PalatinoLinotype-Roman;writing-mode:lr-tb;fill:#000000;fill-opacity:1;fill-rule:nonzero;stroke:none"
         id="text146"><tspan
           x="0 2.016 5.5079999 7.4640002 10.338 12.708 15.708 17.664 20.934 26.226 27.972 30.629999 32.130001 35.790001 37.535999 40.074001 42.029999 45.029999 48.521999 51.18 54.054001 55.554001 57.551998 62.214001"
           y="0"
           sodipodi:role="line"
           id="tspan144">Interatomic distance (Å)</tspan></text><path
         d="m 7.086,15.379 h 0.75"
         style="fill:#000000;fill-opacity:1;fill-rule:nonzero;stroke:#000000;stroke-width:0.5;stroke-linecap:square;stroke-linejoin:round;stroke-miterlimit:4;stroke-dasharray:none;stroke-opacity:1"
         id="path148" /><path
         d="m 120.473,15.379 h -0.75"
         style="fill:#000000;fill-opacity:1;fill-rule:nonzero;stroke:#000000;stroke-width:0.5;stroke-linecap:square;stroke-linejoin:round;stroke-miterlimit:4;stroke-dasharray:none;stroke-opacity:1"
         id="path150" /><path
         d="m 7.086,25.742 h 0.75"
         style="fill:#000000;fill-opacity:1;fill-rule:nonzero;stroke:#000000;stroke-width:0.5;stroke-linecap:square;stroke-linejoin:round;stroke-miterlimit:4;stroke-dasharray:none;stroke-opacity:1"
         id="path152" /><path
         d="m 120.473,25.742 h -0.75"
         style="fill:#000000;fill-opacity:1;fill-rule:nonzero;stroke:#000000;stroke-width:0.5;stroke-linecap:square;stroke-linejoin:round;stroke-miterlimit:4;stroke-dasharray:none;stroke-opacity:1"
         id="path154" /><path
         d="m 7.086,36.105 h 0.75"
         style="fill:#000000;fill-opacity:1;fill-rule:nonzero;stroke:#000000;stroke-width:0.5;stroke-linecap:square;stroke-linejoin:round;stroke-miterlimit:4;stroke-dasharray:none;stroke-opacity:1"
         id="path156" /><path
         d="m 120.473,36.105 h -0.75"
         style="fill:#000000;fill-opacity:1;fill-rule:nonzero;stroke:#000000;stroke-width:0.5;stroke-linecap:square;stroke-linejoin:round;stroke-miterlimit:4;stroke-dasharray:none;stroke-opacity:1"
         id="path158" /><path
         d="m 7.086,46.469 h 0.75"
         style="fill:#000000;fill-opacity:1;fill-rule:nonzero;stroke:#000000;stroke-width:0.5;stroke-linecap:square;stroke-linejoin:round;stroke-miterlimit:4;stroke-dasharray:none;stroke-opacity:1"
         id="path160" /><path
         d="m 120.473,46.469 h -0.75"
         style="fill:#000000;fill-opacity:1;fill-rule:nonzero;stroke:#000000;stroke-width:0.5;stroke-linecap:square;stroke-linejoin:round;stroke-miterlimit:4;stroke-dasharray:none;stroke-opacity:1"
         id="path162" /><path
         d="m 7.086,56.836 h 0.75"
         style="fill:#000000;fill-opacity:1;fill-rule:nonzero;stroke:#000000;stroke-width:0.5;stroke-linecap:square;stroke-linejoin:round;stroke-miterlimit:4;stroke-dasharray:none;stroke-opacity:1"
         id="path164" /><path
         d="m 120.473,56.836 h -0.75"
         style="fill:#000000;fill-opacity:1;fill-rule:nonzero;stroke:#000000;stroke-width:0.5;stroke-linecap:square;stroke-linejoin:round;stroke-miterlimit:4;stroke-dasharray:none;stroke-opacity:1"
         id="path166" /><path
         d="m 7.086,67.199 h 0.75"
         style="fill:#000000;fill-opacity:1;fill-rule:nonzero;stroke:#000000;stroke-width:0.5;stroke-linecap:square;stroke-linejoin:round;stroke-miterlimit:4;stroke-dasharray:none;stroke-opacity:1"
         id="path168" /><path
         d="m 120.473,67.199 h -0.75"
         style="fill:#000000;fill-opacity:1;fill-rule:nonzero;stroke:#000000;stroke-width:0.5;stroke-linecap:square;stroke-linejoin:round;stroke-miterlimit:4;stroke-dasharray:none;stroke-opacity:1"
         id="path170" /><path
         d="m 7.086,77.563 h 0.75"
         style="fill:#000000;fill-opacity:1;fill-rule:nonzero;stroke:#000000;stroke-width:0.5;stroke-linecap:square;stroke-linejoin:round;stroke-miterlimit:4;stroke-dasharray:none;stroke-opacity:1"
         id="path172" /><path
         d="m 120.473,77.563 h -0.75"
         style="fill:#000000;fill-opacity:1;fill-rule:nonzero;stroke:#000000;stroke-width:0.5;stroke-linecap:square;stroke-linejoin:round;stroke-miterlimit:4;stroke-dasharray:none;stroke-opacity:1"
         id="path174" /><path
         d="m 7.086,87.926 h 0.75"
         style="fill:#000000;fill-opacity:1;fill-rule:nonzero;stroke:#000000;stroke-width:0.5;stroke-linecap:square;stroke-linejoin:round;stroke-miterlimit:4;stroke-dasharray:none;stroke-opacity:1"
         id="path176" /><path
         d="m 120.473,87.926 h -0.75"
         style="fill:#000000;fill-opacity:1;fill-rule:nonzero;stroke:#000000;stroke-width:0.5;stroke-linecap:square;stroke-linejoin:round;stroke-miterlimit:4;stroke-dasharray:none;stroke-opacity:1"
         id="path178" /><path
         d="m 121.191,48.301 -0.019,0.023 c 0.012,0.672 0.019,1.102 0.019,1.289 0,0.641 -0.007,1.211 -0.019,1.711 l 0.019,0.016 c 0.188,-0.051 0.485,-0.086 0.883,-0.11 l 0.024,-0.019 v -0.145 l -0.024,-0.023 c -0.015,0 -0.031,0 -0.047,0 -0.164,0 -0.324,-0.012 -0.472,-0.035 -0.055,-0.125 -0.09,-0.293 -0.11,-0.512 -0.015,-0.219 -0.023,-0.383 -0.023,-0.492 0,-0.152 0.012,-0.352 0.031,-0.59 l 0.469,-0.012 0.535,-0.007 0.598,-0.012 c 0.011,0.211 0.015,0.406 0.015,0.582 0,0.183 -0.004,0.332 -0.015,0.453 -0.012,0.121 -0.024,0.191 -0.039,0.211 -0.012,0.023 -0.036,0.039 -0.071,0.047 -0.039,0.012 -0.101,0.023 -0.191,0.031 l -0.184,0.008 -0.023,0.023 v 0.137 l 0.023,0.023 c 0.215,-0.003 0.426,-0.007 0.641,-0.015 l 0.66,0.015 0.024,-0.023 v -0.137 l -0.024,-0.023 -0.176,-0.02 c -0.136,-0.015 -0.218,-0.031 -0.246,-0.039 -0.023,-0.008 -0.047,-0.023 -0.066,-0.051 -0.02,-0.031 -0.035,-0.101 -0.047,-0.218 -0.012,-0.117 -0.02,-0.278 -0.02,-0.485 0,-0.113 0.004,-0.285 0.016,-0.519 0.164,-0.008 0.438,-0.012 0.82,-0.012 0.411,0 0.711,0.004 0.907,0.012 v 0.539 c 0,0.476 -0.008,0.773 -0.02,0.891 -0.012,0.121 -0.039,0.234 -0.082,0.339 -0.047,0.02 -0.152,0.047 -0.312,0.086 -0.165,0.043 -0.266,0.063 -0.309,0.071 l -0.02,0.031 v 0.14 l 0.02,0.024 c 0.086,-0.02 0.23,-0.035 0.441,-0.055 0.207,-0.015 0.387,-0.023 0.536,-0.023 l 0.023,-0.02 c -0.012,-0.375 -0.02,-0.863 -0.02,-1.465 l -0.003,-0.796 c 0,-0.188 0.007,-0.379 0.023,-0.582 l -0.023,-0.024 h -0.098 l -0.027,0.024 c -0.059,0.117 -0.098,0.183 -0.11,0.199 -0.015,0.015 -0.187,0.031 -0.515,0.039 -0.325,0.012 -0.575,0.015 -0.747,0.015 h -1.742 c -0.144,0 -0.261,-0.003 -0.351,-0.007 -0.09,-0.004 -0.157,-0.008 -0.196,-0.02 -0.039,-0.012 -0.066,-0.019 -0.082,-0.035 -0.015,-0.012 -0.027,-0.031 -0.039,-0.059 -0.011,-0.031 -0.019,-0.078 -0.027,-0.144 l -0.02,-0.227 -0.019,-0.023 z"
         style="fill:#000000;fill-opacity:1;fill-rule:nonzero;stroke:none"
         id="path180" /><path
         d="m 122.52,52.758 0.039,0.055 c 0.129,-0.012 0.3,-0.02 0.515,-0.024 -0.129,0.156 -0.261,0.305 -0.39,0.445 -0.039,0.039 -0.067,0.079 -0.086,0.114 -0.016,0.039 -0.035,0.097 -0.055,0.179 -0.02,0.086 -0.027,0.172 -0.027,0.262 0,0.145 0.031,0.289 0.089,0.43 0.059,0.14 0.133,0.246 0.215,0.316 0.082,0.07 0.18,0.121 0.293,0.149 0.114,0.027 0.254,0.043 0.422,0.043 h 0.516 c 0.031,0 0.273,0.003 0.726,0.011 0.188,0.004 0.297,0.028 0.332,0.063 0.036,0.035 0.055,0.156 0.055,0.363 l 0.024,0.024 h 0.125 l 0.023,-0.024 c -0.016,-0.246 -0.023,-0.414 -0.023,-0.504 0,-0.051 0.007,-0.191 0.023,-0.426 l -0.031,-0.039 c -0.254,0.028 -0.586,0.039 -0.996,0.039 h -0.383 c -0.231,0 -0.395,-0.004 -0.496,-0.015 -0.102,-0.012 -0.196,-0.043 -0.278,-0.098 -0.082,-0.055 -0.148,-0.129 -0.195,-0.219 -0.043,-0.093 -0.066,-0.203 -0.066,-0.328 0,-0.101 0.007,-0.191 0.031,-0.261 0.019,-0.075 0.062,-0.153 0.125,-0.243 0.062,-0.09 0.121,-0.156 0.18,-0.199 0.054,-0.043 0.105,-0.07 0.152,-0.078 0.051,-0.008 0.152,-0.012 0.309,-0.012 h 0.507 c 0.043,0 0.184,0.004 0.414,0.008 0.235,0.012 0.371,0.02 0.411,0.027 0.039,0.008 0.066,0.024 0.085,0.039 0.016,0.016 0.028,0.04 0.032,0.063 0.008,0.027 0.015,0.133 0.027,0.316 l 0.024,0.028 h 0.121 l 0.027,-0.024 c -0.016,-0.242 -0.023,-0.476 -0.023,-0.707 0,-0.222 0.007,-0.457 0.023,-0.703 l -0.027,-0.023 h -0.121 l -0.024,0.023 c -0.012,0.192 -0.019,0.297 -0.027,0.324 -0.004,0.024 -0.02,0.043 -0.035,0.063 -0.02,0.019 -0.047,0.031 -0.086,0.039 -0.039,0.008 -0.164,0.016 -0.379,0.023 -0.215,0.008 -0.375,0.012 -0.485,0.012 h -0.578 c -0.078,0 -0.183,-0.004 -0.316,-0.012 -0.137,-0.007 -0.219,-0.011 -0.25,-0.019 -0.031,-0.004 -0.055,-0.02 -0.07,-0.043 -0.016,-0.027 -0.02,-0.078 -0.02,-0.152 l -0.004,-0.247 -0.023,-0.027 h -0.129 l -0.024,0.024 c -0.043,0.371 -0.117,0.687 -0.218,0.945"
         style="fill:#000000;fill-opacity:1;fill-rule:nonzero;stroke:none"
         id="path182" /><path
         d="m 124.883,57.836 0.211,-0.094 c 0.129,-0.203 0.215,-0.383 0.254,-0.543 0.039,-0.16 0.058,-0.301 0.058,-0.426 0,-0.234 -0.047,-0.457 -0.136,-0.668 -0.094,-0.21 -0.25,-0.378 -0.469,-0.511 -0.219,-0.133 -0.481,-0.199 -0.789,-0.199 -0.207,0 -0.391,0.027 -0.555,0.078 -0.164,0.05 -0.289,0.101 -0.367,0.16 -0.082,0.055 -0.168,0.148 -0.266,0.281 -0.101,0.133 -0.179,0.274 -0.234,0.422 -0.059,0.148 -0.09,0.309 -0.09,0.48 0,0.235 0.055,0.442 0.164,0.622 0.113,0.175 0.254,0.3 0.426,0.375 0.172,0.07 0.351,0.109 0.547,0.109 0.058,0 0.117,-0.004 0.176,-0.008 l 0.031,-0.035 c 0.031,-0.133 0.051,-0.313 0.058,-0.535 0.012,-0.227 0.016,-0.371 0.016,-0.446 v -0.941 c 0.402,0.004 0.703,0.106 0.895,0.305 0.191,0.199 0.285,0.445 0.285,0.734 0,0.137 -0.024,0.266 -0.071,0.395 -0.047,0.125 -0.113,0.257 -0.195,0.398 z m -1.199,-1.879 c 0.004,0.035 0.011,0.172 0.019,0.406 0.008,0.235 0.012,0.41 0.012,0.524 0,0.269 -0.004,0.437 -0.016,0.496 -0.047,0 -0.082,0 -0.105,0 -0.305,0 -0.528,-0.059 -0.676,-0.184 -0.148,-0.121 -0.223,-0.289 -0.223,-0.504 0,-0.23 0.082,-0.414 0.25,-0.543 0.168,-0.129 0.414,-0.195 0.739,-0.195"
         style="fill:#000000;fill-opacity:1;fill-rule:nonzero;stroke:none"
         id="path184" /><path
         d="m 122.52,59.246 0.039,0.055 c 0.113,-0.012 0.316,-0.02 0.601,-0.028 l -0.277,0.223 c -0.09,0.07 -0.16,0.133 -0.211,0.192 -0.051,0.054 -0.09,0.117 -0.117,0.191 -0.028,0.078 -0.039,0.152 -0.039,0.23 0,0.086 0.015,0.168 0.05,0.243 l 0.043,0.019 c 0.258,-0.031 0.489,-0.047 0.684,-0.051 v -0.132 c -0.18,-0.079 -0.27,-0.204 -0.27,-0.379 0,-0.121 0.04,-0.227 0.118,-0.317 0.078,-0.09 0.172,-0.148 0.289,-0.179 0.117,-0.028 0.261,-0.043 0.441,-0.043 h 0.324 c 0.059,0 0.203,0.003 0.434,0.011 0.226,0.008 0.359,0.016 0.394,0.024 0.036,0.008 0.059,0.023 0.079,0.043 0.015,0.015 0.027,0.043 0.031,0.07 0.008,0.031 0.015,0.172 0.031,0.418 l 0.024,0.027 h 0.121 l 0.027,-0.027 c -0.016,-0.258 -0.023,-0.531 -0.023,-0.813 0,-0.226 0.007,-0.46 0.023,-0.703 l -0.027,-0.027 h -0.121 l -0.024,0.027 c -0.012,0.188 -0.019,0.297 -0.027,0.321 -0.004,0.023 -0.02,0.047 -0.035,0.062 -0.02,0.02 -0.047,0.031 -0.086,0.039 -0.039,0.008 -0.164,0.016 -0.379,0.024 -0.215,0.007 -0.375,0.011 -0.485,0.011 h -0.578 c -0.078,0 -0.183,-0.004 -0.316,-0.011 -0.137,-0.008 -0.219,-0.012 -0.25,-0.016 -0.031,-0.008 -0.055,-0.02 -0.07,-0.047 -0.016,-0.027 -0.02,-0.078 -0.02,-0.152 l -0.004,-0.246 -0.023,-0.028 h -0.129 l -0.024,0.024 c -0.043,0.375 -0.117,0.687 -0.218,0.945"
         style="fill:#000000;fill-opacity:1;fill-rule:nonzero;stroke:none"
         id="path186" /><path
         d="m 122.723,63.723 0.054,0.023 c 0.121,-0.082 0.203,-0.129 0.239,-0.148 v -0.547 c 0.109,0.054 0.218,0.082 0.336,0.082 0.14,0 0.273,-0.031 0.406,-0.094 0.129,-0.066 0.242,-0.152 0.332,-0.266 0.094,-0.113 0.168,-0.242 0.223,-0.386 0.054,-0.145 0.082,-0.305 0.082,-0.492 v -0.133 c 0.089,-0.117 0.16,-0.188 0.203,-0.223 0.043,-0.031 0.09,-0.051 0.136,-0.051 0.086,0 0.149,0.039 0.184,0.121 0.035,0.079 0.051,0.243 0.051,0.489 l -0.008,0.656 c 0,0.207 0.023,0.367 0.074,0.476 0.047,0.11 0.137,0.2 0.262,0.27 0.125,0.066 0.258,0.102 0.398,0.102 0.215,0 0.43,-0.071 0.645,-0.211 0.215,-0.137 0.375,-0.34 0.488,-0.606 0.11,-0.262 0.168,-0.543 0.168,-0.844 0,-0.168 -0.019,-0.328 -0.058,-0.476 -0.036,-0.149 -0.094,-0.281 -0.168,-0.395 -0.075,-0.109 -0.172,-0.199 -0.293,-0.269 -0.122,-0.071 -0.247,-0.102 -0.379,-0.102 -0.071,0 -0.149,0.008 -0.227,0.031 -0.078,0.024 -0.164,0.063 -0.258,0.125 l -0.297,0.528 c -0.05,-0.168 -0.101,-0.278 -0.156,-0.32 -0.051,-0.043 -0.113,-0.067 -0.183,-0.067 -0.075,0 -0.164,0.027 -0.266,0.074 l -0.34,0.473 c -0.07,-0.277 -0.18,-0.465 -0.324,-0.563 -0.145,-0.097 -0.301,-0.144 -0.473,-0.144 -0.16,0 -0.312,0.035 -0.453,0.102 -0.144,0.07 -0.262,0.171 -0.344,0.308 -0.089,0.141 -0.156,0.293 -0.207,0.465 -0.047,0.172 -0.074,0.324 -0.074,0.465 0,0.246 0.082,0.48 0.238,0.699 0,0.352 -0.004,0.637 -0.011,0.848 m 0.679,-2.383 c 0.118,0 0.246,0.023 0.383,0.07 0.137,0.047 0.242,0.121 0.313,0.227 0.07,0.105 0.105,0.222 0.105,0.351 0,0.176 -0.058,0.325 -0.172,0.45 -0.113,0.128 -0.289,0.191 -0.527,0.191 -0.203,0 -0.387,-0.059 -0.551,-0.172 -0.16,-0.117 -0.242,-0.277 -0.242,-0.492 0,-0.176 0.059,-0.324 0.176,-0.445 0.113,-0.122 0.285,-0.18 0.515,-0.18 m 1.965,0.859 c 0,-0.316 0.004,-0.496 0.012,-0.543 0.008,-0.051 0.043,-0.117 0.101,-0.207 0.059,-0.086 0.137,-0.156 0.239,-0.215 0.101,-0.054 0.215,-0.082 0.34,-0.082 0.218,0 0.398,0.082 0.539,0.246 0.136,0.165 0.207,0.383 0.207,0.657 0,0.207 -0.043,0.394 -0.129,0.566 -0.086,0.176 -0.203,0.305 -0.348,0.387 -0.144,0.082 -0.281,0.125 -0.414,0.125 -0.133,0 -0.246,-0.035 -0.344,-0.106 -0.093,-0.066 -0.152,-0.156 -0.172,-0.269 -0.019,-0.11 -0.031,-0.297 -0.031,-0.559"
         style="fill:#000000;fill-opacity:1;fill-rule:nonzero;stroke:none"
         id="path188" /><path
         d="m 126.902,63.961 c -0.164,0.066 -0.312,0.113 -0.449,0.148 v 0.071 c 0.102,0.093 0.152,0.199 0.152,0.308 0,0.141 -0.066,0.262 -0.203,0.364 -0.14,0.101 -0.441,0.246 -0.914,0.433 -0.207,-0.074 -0.406,-0.148 -0.593,-0.222 l -1.153,-0.469 c -0.121,-0.047 -0.289,-0.121 -0.512,-0.215 -0.222,-0.098 -0.343,-0.152 -0.367,-0.172 -0.019,-0.019 -0.043,-0.043 -0.062,-0.074 -0.02,-0.028 -0.035,-0.106 -0.055,-0.235 l -0.023,-0.023 h -0.118 l -0.023,0.023 c 0.012,0.227 0.02,0.457 0.02,0.696 0,0.273 -0.008,0.488 -0.02,0.64 l 0.023,0.024 h 0.118 l 0.023,-0.024 c 0.004,-0.019 0.008,-0.078 0.012,-0.179 0.008,-0.098 0.023,-0.16 0.047,-0.184 0.027,-0.023 0.054,-0.035 0.086,-0.035 0.031,0 0.14,0.031 0.324,0.09 0.18,0.062 0.344,0.121 0.484,0.176 l 0.457,0.183 c 0.301,0.121 0.524,0.215 0.664,0.281 l -0.343,0.157 c -0.125,0.054 -0.313,0.132 -0.567,0.234 l -0.621,0.242 c -0.16,0.063 -0.262,0.098 -0.301,0.11 -0.039,0.007 -0.066,0.011 -0.086,0.011 -0.043,0 -0.07,-0.015 -0.086,-0.047 -0.015,-0.031 -0.031,-0.101 -0.039,-0.207 l -0.019,-0.125 -0.024,-0.019 h -0.129 l -0.023,0.023 c 0.012,0.164 0.02,0.36 0.02,0.582 0,0.207 -0.008,0.371 -0.02,0.493 l 0.023,0.023 h 0.129 l 0.024,-0.023 c 0,-0.071 0.012,-0.129 0.027,-0.172 0.02,-0.043 0.051,-0.086 0.094,-0.125 0.047,-0.039 0.172,-0.11 0.383,-0.211 0.207,-0.102 0.422,-0.199 0.644,-0.301 l 0.629,-0.289 1.582,-0.676 c 0.137,-0.058 0.285,-0.133 0.442,-0.219 0.156,-0.086 0.269,-0.195 0.336,-0.32 0.07,-0.125 0.105,-0.258 0.105,-0.398 0,-0.125 -0.031,-0.239 -0.098,-0.348"
         style="fill:#000000;fill-opacity:1;fill-rule:nonzero;stroke:none"
         id="path190" /><path
         d="M 7.086,96.164 H 120.473"
         style="fill:none;stroke:#000000;stroke-width:0.5;stroke-linecap:square;stroke-linejoin:round;stroke-miterlimit:4;stroke-dasharray:none;stroke-opacity:1"
         id="path192" /><path
         d="M 120.473,15.379 V 96.164"
         style="fill:none;stroke:#000000;stroke-width:0.5;stroke-linecap:square;stroke-linejoin:round;stroke-miterlimit:4;stroke-dasharray:none;stroke-opacity:1"
         id="path194" /><path
         d="M 7.086,15.379 H 120.473"
         style="fill:none;stroke:#000000;stroke-width:0.5;stroke-linecap:square;stroke-linejoin:round;stroke-miterlimit:4;stroke-dasharray:none;stroke-opacity:1"
         id="path196" /><path
         d="M 7.086,15.379 V 96.164"
         style="fill:none;stroke:#000000;stroke-width:0.5;stroke-linecap:square;stroke-linejoin:round;stroke-miterlimit:4;stroke-dasharray:none;stroke-opacity:1"
         id="path198" /><path
         d="m 18.582,88.035 0.023,-0.078 -0.015,-0.035 c -0.406,-0.352 -0.688,-0.531 -0.836,-0.531 -0.098,0 -0.149,0.062 -0.149,0.187 0,0.063 0.008,0.137 0.02,0.231 0.016,0.093 0.035,0.195 0.059,0.308 l 0.074,0.313 0.043,0.172 -0.016,0.007 c -0.293,-0.414 -0.566,-0.722 -0.816,-0.929 -0.254,-0.207 -0.43,-0.313 -0.535,-0.313 -0.133,0 -0.204,0.168 -0.204,0.504 0,0.207 0.032,0.445 0.094,0.711 0.067,0.266 0.145,0.512 0.235,0.738 0.093,0.227 0.168,0.375 0.222,0.446 0.055,0.074 0.149,0.152 0.278,0.246 0.129,0.09 0.25,0.16 0.363,0.211 0.113,0.047 0.242,0.074 0.379,0.074 0.172,0 0.351,-0.035 0.543,-0.106 l 0.187,0.11 0.063,-0.051 C 18.59,90.219 18.547,90.074 18.473,89.809 L 18.336,89.313 18.262,89.02 c -0.051,-0.207 -0.098,-0.422 -0.145,-0.649 -0.043,-0.226 -0.066,-0.379 -0.066,-0.461 0,-0.078 0.027,-0.117 0.078,-0.117 0.035,0 0.078,0.016 0.133,0.043 0.054,0.031 0.152,0.102 0.297,0.211 z m -0.492,1.867 c -0.149,0.071 -0.313,0.102 -0.485,0.102 -0.14,0 -0.265,-0.024 -0.378,-0.078 -0.039,-0.031 -0.082,-0.086 -0.125,-0.164 -0.043,-0.082 -0.106,-0.227 -0.184,-0.446 -0.078,-0.214 -0.141,-0.445 -0.188,-0.691 -0.05,-0.242 -0.074,-0.437 -0.074,-0.582 0,-0.109 0.008,-0.176 0.028,-0.207 0.019,-0.031 0.046,-0.047 0.082,-0.047 0.07,0 0.211,0.094 0.414,0.281 0.207,0.192 0.379,0.41 0.519,0.66 0.141,0.25 0.258,0.586 0.352,1.004 z"
         style="fill:#000000;fill-opacity:1;fill-rule:nonzero;stroke:none"
         id="path200" /><path
         d="m 20.055,91.773 0.074,-0.058 -0.203,-0.934 -0.301,-1.406 c 0.258,0.344 0.504,0.582 0.738,0.723 0.235,0.14 0.438,0.211 0.61,0.211 0.086,0 0.152,-0.024 0.199,-0.067 0.051,-0.043 0.086,-0.113 0.109,-0.211 0.024,-0.101 0.035,-0.218 0.035,-0.359 0,-0.281 -0.046,-0.555 -0.14,-0.824 C 21.082,88.582 20.98,88.367 20.871,88.207 20.766,88.047 20.645,87.91 20.512,87.793 20.379,87.68 20.23,87.578 20.059,87.496 19.891,87.41 19.727,87.367 19.57,87.367 c -0.164,0 -0.308,0.047 -0.422,0.141 -0.117,0.094 -0.175,0.211 -0.175,0.359 0,0.09 0.035,0.313 0.101,0.668 l 0.207,1.055 c 0.039,0.211 0.078,0.441 0.121,0.683 l 0.118,0.633 c 0.031,0.184 0.05,0.289 0.05,0.317 0.004,0.027 0.008,0.05 0.008,0.07 0,0.047 -0.015,0.078 -0.047,0.094 -0.031,0.019 -0.086,0.027 -0.164,0.027 l -0.246,0.004 -0.019,0.023 0.007,0.075 0.024,0.023 c 0.363,0.059 0.672,0.137 0.922,0.234 M 19.402,88.07 c 0,-0.125 0.032,-0.23 0.102,-0.32 0.066,-0.086 0.184,-0.133 0.344,-0.133 0.218,0 0.398,0.098 0.543,0.297 0.144,0.195 0.261,0.449 0.355,0.762 0.094,0.308 0.145,0.57 0.145,0.781 0,0.215 -0.02,0.348 -0.059,0.406 -0.039,0.055 -0.098,0.082 -0.184,0.082 -0.128,0 -0.265,-0.043 -0.41,-0.129 -0.14,-0.089 -0.285,-0.23 -0.425,-0.425 C 19.672,89.195 19.566,88.953 19.5,88.668 19.434,88.383 19.402,88.184 19.402,88.07"
         style="fill:#000000;fill-opacity:1;fill-rule:nonzero;stroke:none"
         id="path202" /><path
         d="m 24.078,91.281 c 0,0.102 0.035,0.196 0.098,0.274 0.066,0.078 0.148,0.117 0.242,0.117 0.066,0 0.117,-0.02 0.16,-0.063 0.039,-0.039 0.063,-0.097 0.063,-0.175 0,-0.106 -0.032,-0.2 -0.094,-0.282 -0.059,-0.082 -0.137,-0.125 -0.227,-0.125 -0.07,0 -0.125,0.024 -0.172,0.071 -0.046,0.047 -0.07,0.109 -0.07,0.183 m -0.762,-1.636 -0.031,0.066 0.008,0.039 c 0.266,0.191 0.473,0.324 0.613,0.402 0.145,0.078 0.258,0.118 0.34,0.118 0.082,0 0.121,-0.059 0.121,-0.172 0,-0.055 -0.012,-0.129 -0.031,-0.227 -0.02,-0.094 -0.07,-0.289 -0.148,-0.582 -0.211,-0.789 -0.321,-1.258 -0.321,-1.402 0,-0.078 0.028,-0.117 0.082,-0.117 0.086,0 0.239,0.082 0.457,0.25 l 0.032,-0.008 0.031,-0.078 -0.004,-0.036 c -0.137,-0.105 -0.277,-0.207 -0.422,-0.304 -0.145,-0.098 -0.25,-0.16 -0.313,-0.188 -0.058,-0.023 -0.109,-0.039 -0.152,-0.039 -0.058,0 -0.105,0.028 -0.137,0.078 -0.035,0.051 -0.05,0.11 -0.05,0.18 0,0.086 0.011,0.18 0.035,0.281 0.027,0.102 0.054,0.211 0.09,0.336 0.129,0.453 0.218,0.805 0.273,1.059 0.051,0.254 0.078,0.41 0.078,0.469 0,0.066 -0.019,0.097 -0.066,0.097 -0.028,0 -0.059,-0.008 -0.086,-0.023 -0.027,-0.012 -0.149,-0.082 -0.367,-0.211 z"
         style="fill:#000000;fill-opacity:1;fill-rule:nonzero;stroke:none"
         id="path204" /><path
         d="m 25.074,87.391 -0.035,0.047 c 0.125,0.39 0.238,0.839 0.336,1.347 0.098,0.508 0.148,0.828 0.148,0.965 0,0.078 -0.027,0.113 -0.078,0.113 -0.074,0 -0.222,-0.074 -0.453,-0.23 l -0.035,0.008 -0.023,0.066 0.007,0.043 c 0.079,0.059 0.172,0.125 0.278,0.199 0.109,0.074 0.219,0.141 0.32,0.199 0.106,0.055 0.18,0.09 0.219,0.106 0.043,0.012 0.078,0.019 0.109,0.019 0.055,0 0.09,-0.019 0.113,-0.058 0.02,-0.039 0.032,-0.078 0.032,-0.117 0,-0.09 -0.035,-0.262 -0.098,-0.524 -0.019,-0.07 -0.074,-0.285 -0.16,-0.64 l 0.023,-0.008 c 0.145,0.238 0.321,0.465 0.532,0.679 0.211,0.219 0.429,0.383 0.652,0.497 0.227,0.113 0.391,0.171 0.496,0.171 0.059,0 0.102,-0.019 0.133,-0.054 0.027,-0.039 0.043,-0.082 0.043,-0.141 0,-0.133 -0.067,-0.461 -0.203,-0.984 -0.18,-0.696 -0.27,-1.106 -0.27,-1.227 0,-0.074 0.024,-0.109 0.078,-0.109 0.063,0 0.227,0.094 0.492,0.281 l 0.032,-0.008 0.031,-0.078 -0.008,-0.035 c -0.121,-0.098 -0.258,-0.195 -0.414,-0.301 -0.156,-0.101 -0.269,-0.168 -0.34,-0.199 -0.07,-0.031 -0.129,-0.047 -0.176,-0.047 -0.062,0 -0.105,0.024 -0.136,0.063 -0.028,0.043 -0.039,0.093 -0.039,0.156 0,0.07 0.015,0.176 0.047,0.324 0.031,0.145 0.093,0.41 0.195,0.801 0.141,0.547 0.215,0.883 0.215,1.008 0,0.105 -0.039,0.156 -0.114,0.156 -0.05,0 -0.113,-0.016 -0.183,-0.051 -0.125,-0.058 -0.262,-0.152 -0.406,-0.285 -0.145,-0.133 -0.278,-0.285 -0.395,-0.461 -0.121,-0.18 -0.215,-0.352 -0.281,-0.527 -0.07,-0.176 -0.129,-0.375 -0.18,-0.594 -0.008,-0.027 -0.035,-0.188 -0.09,-0.477 -0.133,-0.023 -0.273,-0.054 -0.414,-0.093"
         style="fill:#000000;fill-opacity:1;fill-rule:nonzero;stroke:none"
         id="path206" /><path
         d="m 29.082,91.281 c 0,0.102 0.035,0.196 0.098,0.274 0.066,0.078 0.148,0.117 0.242,0.117 0.066,0 0.117,-0.02 0.16,-0.063 0.039,-0.039 0.063,-0.097 0.063,-0.175 0,-0.106 -0.032,-0.2 -0.094,-0.282 -0.059,-0.082 -0.137,-0.125 -0.227,-0.125 -0.07,0 -0.125,0.024 -0.172,0.071 -0.047,0.047 -0.07,0.109 -0.07,0.183 m -0.762,-1.636 -0.031,0.066 0.008,0.039 c 0.266,0.191 0.473,0.324 0.613,0.402 0.145,0.078 0.258,0.118 0.34,0.118 0.082,0 0.121,-0.059 0.121,-0.172 0,-0.055 -0.012,-0.129 -0.031,-0.227 -0.02,-0.094 -0.07,-0.289 -0.149,-0.582 -0.211,-0.789 -0.32,-1.258 -0.32,-1.402 0,-0.078 0.027,-0.117 0.082,-0.117 0.086,0 0.238,0.082 0.457,0.25 l 0.031,-0.008 0.032,-0.078 -0.004,-0.036 c -0.137,-0.105 -0.278,-0.207 -0.422,-0.304 -0.145,-0.098 -0.25,-0.16 -0.313,-0.188 -0.058,-0.023 -0.109,-0.039 -0.152,-0.039 -0.059,0 -0.105,0.028 -0.137,0.078 -0.035,0.051 -0.05,0.11 -0.05,0.18 0,0.086 0.011,0.18 0.035,0.281 0.027,0.102 0.054,0.211 0.09,0.336 0.128,0.453 0.218,0.805 0.273,1.059 0.051,0.254 0.078,0.41 0.078,0.469 0,0.066 -0.019,0.097 -0.066,0.097 -0.028,0 -0.059,-0.008 -0.086,-0.023 -0.028,-0.012 -0.149,-0.082 -0.367,-0.211 z"
         style="fill:#000000;fill-opacity:1;fill-rule:nonzero;stroke:none"
         id="path208" /><path
         d="m 31.34,88.113 0.031,-0.066 -0.008,-0.035 c -0.078,-0.067 -0.211,-0.168 -0.398,-0.305 -0.188,-0.137 -0.324,-0.227 -0.406,-0.273 -0.082,-0.043 -0.157,-0.067 -0.215,-0.067 -0.059,0 -0.102,0.024 -0.137,0.078 -0.035,0.051 -0.051,0.129 -0.051,0.227 0,0.113 0.032,0.32 0.098,0.617 0.078,0.344 0.176,0.832 0.293,1.469 l -0.477,-0.012 -0.019,0.024 0.008,0.046 0.023,0.024 c 0.211,0.074 0.375,0.148 0.504,0.215 0.039,0.172 0.09,0.508 0.152,1.011 0.211,0.086 0.364,0.157 0.461,0.211 L 31.27,91.223 31.156,90.777 C 31.141,90.719 31.09,90.469 31,90.02 c 0.086,-0.004 0.16,-0.008 0.215,-0.008 0.191,0 0.328,0.011 0.41,0.039 l 0.027,-0.024 -0.066,-0.285 c -0.074,0 -0.285,0.004 -0.641,0.016 -0.215,-1.043 -0.324,-1.656 -0.324,-1.84 0,-0.09 0.039,-0.137 0.113,-0.137 0.036,0 0.086,0.016 0.145,0.047 0.062,0.035 0.172,0.106 0.324,0.219 l 0.102,0.078 z"
         style="fill:#000000;fill-opacity:1;fill-rule:nonzero;stroke:none"
         id="path210" /><path
         d="m 32.746,91.281 c 0,0.102 0.035,0.196 0.102,0.274 0.062,0.078 0.144,0.117 0.238,0.117 0.066,0 0.121,-0.02 0.16,-0.063 0.039,-0.039 0.063,-0.097 0.063,-0.175 0,-0.106 -0.032,-0.2 -0.094,-0.282 -0.059,-0.082 -0.133,-0.125 -0.227,-0.125 -0.066,0 -0.125,0.024 -0.172,0.071 -0.046,0.047 -0.07,0.109 -0.07,0.183 m -0.762,-1.636 -0.031,0.066 0.012,0.039 c 0.265,0.191 0.469,0.324 0.613,0.402 0.141,0.078 0.254,0.118 0.336,0.118 0.082,0 0.121,-0.059 0.121,-0.172 0,-0.055 -0.008,-0.129 -0.031,-0.227 -0.02,-0.094 -0.07,-0.289 -0.149,-0.582 -0.21,-0.789 -0.32,-1.258 -0.32,-1.402 0,-0.078 0.031,-0.117 0.086,-0.117 0.082,0 0.234,0.082 0.453,0.25 l 0.031,-0.008 0.032,-0.078 -0.004,-0.036 c -0.137,-0.105 -0.278,-0.207 -0.422,-0.304 -0.145,-0.098 -0.246,-0.16 -0.309,-0.188 -0.062,-0.023 -0.113,-0.039 -0.156,-0.039 -0.058,0 -0.101,0.028 -0.137,0.078 -0.031,0.051 -0.05,0.11 -0.05,0.18 0,0.086 0.011,0.18 0.039,0.281 0.023,0.102 0.054,0.211 0.086,0.336 0.129,0.453 0.218,0.805 0.273,1.059 0.055,0.254 0.078,0.41 0.078,0.469 0,0.066 -0.019,0.097 -0.066,0.097 -0.028,0 -0.055,-0.008 -0.082,-0.023 -0.028,-0.012 -0.153,-0.082 -0.371,-0.211 z"
         style="fill:#000000;fill-opacity:1;fill-rule:nonzero;stroke:none"
         id="path212" /><path
         d="m 33.512,88.281 c 0,0.371 0.066,0.711 0.191,1.02 0.129,0.304 0.32,0.547 0.582,0.73 0.262,0.18 0.516,0.27 0.762,0.27 0.226,0 0.418,-0.071 0.574,-0.207 0.152,-0.137 0.231,-0.371 0.231,-0.707 0,-0.328 -0.075,-0.66 -0.219,-0.996 -0.145,-0.336 -0.344,-0.59 -0.598,-0.762 -0.254,-0.172 -0.504,-0.258 -0.75,-0.258 -0.16,0 -0.301,0.039 -0.422,0.113 -0.121,0.075 -0.211,0.176 -0.265,0.309 -0.059,0.129 -0.086,0.293 -0.086,0.488 m 0.468,0.039 c 0,-0.168 0.02,-0.3 0.051,-0.398 0.035,-0.102 0.094,-0.18 0.176,-0.238 0.086,-0.059 0.188,-0.09 0.313,-0.09 0.128,0 0.242,0.035 0.339,0.101 0.098,0.071 0.188,0.196 0.278,0.383 0.086,0.184 0.152,0.391 0.191,0.621 0.039,0.231 0.059,0.442 0.059,0.637 0,0.176 -0.02,0.32 -0.059,0.426 -0.043,0.109 -0.101,0.187 -0.183,0.242 -0.082,0.055 -0.176,0.082 -0.29,0.082 -0.3,0 -0.523,-0.18 -0.664,-0.539 -0.14,-0.359 -0.211,-0.77 -0.211,-1.227"
         style="fill:#000000;fill-opacity:1;fill-rule:nonzero;stroke:none"
         id="path214" /><path
         d="m 17.199,83.074 0.055,-0.035 c -0.02,-0.223 -0.031,-0.676 -0.031,-1.351 v -0.723 c 0.164,0.137 0.316,0.269 0.457,0.402 0.039,0.035 0.078,0.063 0.117,0.082 0.035,0.016 0.098,0.035 0.18,0.055 0.082,0.019 0.168,0.031 0.257,0.031 0.145,0 0.289,-0.031 0.43,-0.094 0.141,-0.058 0.246,-0.128 0.316,-0.214 0.071,-0.082 0.122,-0.18 0.149,-0.293 0.027,-0.114 0.043,-0.254 0.043,-0.418 V 80 c 0,-0.035 0.004,-0.277 0.012,-0.73 0.007,-0.188 0.027,-0.297 0.062,-0.332 0.039,-0.036 0.156,-0.051 0.363,-0.051 l 0.024,-0.024 v -0.129 l -0.024,-0.023 c -0.246,0.016 -0.414,0.023 -0.504,0.023 -0.046,0 -0.187,-0.007 -0.425,-0.023 l -0.039,0.035 c 0.027,0.254 0.039,0.582 0.039,0.992 v 0.383 c 0,0.231 -0.004,0.399 -0.016,0.5 -0.012,0.102 -0.043,0.192 -0.098,0.277 -0.054,0.082 -0.128,0.145 -0.218,0.192 -0.09,0.047 -0.2,0.07 -0.328,0.07 -0.133,0 -0.247,-0.019 -0.332,-0.055 -0.09,-0.035 -0.18,-0.097 -0.274,-0.183 -0.09,-0.086 -0.144,-0.156 -0.164,-0.215 -0.02,-0.059 -0.027,-0.168 -0.027,-0.332 v -0.523 c 0,-0.043 0.004,-0.18 0.011,-0.414 0.008,-0.235 0.016,-0.372 0.024,-0.411 0.008,-0.039 0.023,-0.066 0.039,-0.082 0.019,-0.019 0.039,-0.031 0.066,-0.035 0.024,-0.004 0.129,-0.012 0.317,-0.023 l 0.023,-0.024 V 78.738 L 17.68,78.711 c -0.242,0.016 -0.477,0.023 -0.703,0.023 -0.227,0 -0.461,-0.007 -0.704,-0.023 l -0.027,0.027 v 0.125 l 0.027,0.024 c 0.188,0.011 0.297,0.019 0.321,0.023 0.023,0.008 0.047,0.02 0.062,0.039 0.02,0.016 0.032,0.047 0.039,0.082 0.008,0.039 0.016,0.164 0.024,0.379 0.008,0.215 0.015,0.379 0.015,0.488 v 1.516 l -0.015,0.621 c -0.004,0.215 -0.012,0.367 -0.016,0.449 -0.008,0.086 -0.019,0.137 -0.031,0.153 -0.012,0.015 -0.031,0.027 -0.059,0.031 -0.031,0.012 -0.148,0.016 -0.355,0.016 l -0.028,0.027 v 0.121 l 0.024,0.027 c 0.375,0.043 0.687,0.114 0.945,0.215"
         style="fill:#000000;fill-opacity:1;fill-rule:nonzero;stroke:none"
         id="path216" /><path
         d="m 20.316,80.723 -0.113,0.027 -0.023,0.031 v 0.364 c 0.347,0.257 0.683,0.386 1.011,0.386 0.223,0 0.411,-0.043 0.559,-0.125 0.148,-0.086 0.258,-0.191 0.324,-0.316 0.067,-0.125 0.098,-0.274 0.098,-0.442 l -0.016,-0.585 v -0.875 c 0,-0.122 0.012,-0.192 0.028,-0.219 0.015,-0.024 0.035,-0.043 0.054,-0.051 0.024,-0.008 0.063,-0.016 0.121,-0.02 l 0.168,-0.015 0.024,-0.028 v -0.117 l -0.024,-0.023 c -0.14,0.012 -0.273,0.019 -0.398,0.019 -0.117,0 -0.258,-0.007 -0.422,-0.019 l -0.043,0.043 0.012,0.469 -0.641,-0.497 c -0.105,-0.046 -0.222,-0.066 -0.351,-0.066 -0.157,0 -0.289,0.027 -0.403,0.082 -0.113,0.059 -0.199,0.137 -0.258,0.238 -0.058,0.102 -0.089,0.227 -0.089,0.371 0,0.286 0.089,0.512 0.269,0.672 0.18,0.161 0.672,0.297 1.473,0.411 0,0.289 -0.067,0.492 -0.196,0.609 -0.128,0.121 -0.3,0.18 -0.519,0.18 -0.113,0 -0.215,-0.016 -0.309,-0.051 -0.089,-0.031 -0.144,-0.059 -0.16,-0.082 -0.012,-0.02 -0.066,-0.137 -0.156,-0.356 z m 1.36,-0.465 c -0.547,-0.09 -0.887,-0.188 -1.024,-0.293 -0.136,-0.106 -0.203,-0.27 -0.203,-0.488 0,-0.309 0.153,-0.461 0.457,-0.461 0.258,0 0.516,0.152 0.77,0.453 z"
         style="fill:#000000;fill-opacity:1;fill-rule:nonzero;stroke:none"
         id="path218" /><path
         d="m 23.82,81.527 0.055,-0.035 c -0.012,-0.117 -0.02,-0.316 -0.027,-0.605 l 0.222,0.277 c 0.071,0.094 0.133,0.164 0.192,0.211 0.054,0.051 0.117,0.09 0.191,0.117 0.074,0.028 0.152,0.043 0.231,0.043 0.086,0 0.168,-0.019 0.242,-0.055 l 0.019,-0.039 c -0.031,-0.261 -0.047,-0.488 -0.05,-0.687 h -0.133 c -0.078,0.18 -0.203,0.269 -0.379,0.269 -0.121,0 -0.227,-0.039 -0.317,-0.117 -0.089,-0.074 -0.148,-0.172 -0.179,-0.289 -0.028,-0.113 -0.043,-0.262 -0.043,-0.437 v -0.328 c 0,-0.059 0.004,-0.204 0.011,-0.43 0.008,-0.231 0.016,-0.359 0.024,-0.395 0.008,-0.035 0.023,-0.062 0.043,-0.078 0.016,-0.019 0.043,-0.027 0.07,-0.035 0.031,-0.004 0.172,-0.016 0.418,-0.027 l 0.028,-0.024 V 78.738 L 24.41,78.711 c -0.258,0.016 -0.531,0.023 -0.812,0.023 -0.227,0 -0.461,-0.007 -0.703,-0.023 l -0.028,0.027 v 0.125 l 0.028,0.024 c 0.187,0.011 0.296,0.019 0.32,0.023 0.023,0.008 0.047,0.02 0.062,0.039 0.02,0.016 0.032,0.047 0.039,0.082 0.008,0.039 0.016,0.164 0.024,0.379 0.008,0.215 0.012,0.379 0.012,0.488 v 0.575 c 0,0.078 -0.004,0.183 -0.012,0.32 -0.008,0.133 -0.012,0.219 -0.016,0.25 -0.008,0.031 -0.019,0.051 -0.047,0.066 -0.027,0.016 -0.078,0.024 -0.152,0.024 l -0.246,0.004 -0.027,0.023 v 0.125 l 0.023,0.024 c 0.375,0.043 0.688,0.117 0.945,0.218"
         style="fill:#000000;fill-opacity:1;fill-rule:nonzero;stroke:none"
         id="path220" /><path
         d="m 26.141,81.527 0.058,-0.035 C 26.188,81.359 26.18,81.207 26.176,81.027 l 0.277,0.254 c 0.078,0.074 0.129,0.117 0.156,0.141 0.024,0.019 0.086,0.043 0.18,0.07 0.094,0.028 0.191,0.043 0.293,0.043 0.195,0 0.367,-0.051 0.512,-0.148 0.148,-0.094 0.258,-0.227 0.328,-0.399 0.262,0.25 0.418,0.391 0.461,0.418 0.043,0.028 0.113,0.055 0.207,0.082 0.098,0.028 0.195,0.043 0.289,0.043 0.156,0 0.297,-0.035 0.426,-0.101 0.129,-0.067 0.23,-0.153 0.304,-0.258 0.079,-0.109 0.121,-0.227 0.137,-0.352 0.012,-0.125 0.02,-0.297 0.02,-0.515 V 80 c 0,-0.035 0.004,-0.277 0.015,-0.73 0.004,-0.188 0.024,-0.297 0.063,-0.332 0.035,-0.036 0.156,-0.051 0.359,-0.051 l 0.024,-0.024 v -0.129 l -0.024,-0.023 c -0.25,0.016 -0.418,0.023 -0.504,0.023 -0.047,0 -0.191,-0.007 -0.426,-0.023 l -0.039,0.035 c 0.028,0.254 0.039,0.582 0.039,0.992 v 0.352 c 0,0.308 -0.011,0.527 -0.043,0.652 -0.027,0.125 -0.097,0.227 -0.207,0.305 -0.105,0.078 -0.234,0.117 -0.382,0.117 -0.106,0 -0.203,-0.019 -0.297,-0.062 -0.09,-0.043 -0.172,-0.106 -0.246,-0.188 -0.075,-0.082 -0.114,-0.16 -0.121,-0.23 -0.008,-0.071 -0.012,-0.204 -0.012,-0.395 v -0.367 c 0,-0.086 0.004,-0.246 0.012,-0.484 0.007,-0.235 0.015,-0.372 0.023,-0.411 0.012,-0.039 0.023,-0.066 0.043,-0.086 0.02,-0.015 0.039,-0.027 0.062,-0.031 0.028,-0.004 0.129,-0.012 0.317,-0.023 l 0.027,-0.024 v -0.125 l -0.023,-0.027 c -0.246,0.016 -0.481,0.023 -0.707,0.023 -0.211,0 -0.446,-0.007 -0.703,-0.023 l -0.028,0.027 v 0.125 l 0.028,0.024 c 0.187,0.011 0.297,0.019 0.32,0.023 0.023,0.008 0.047,0.02 0.066,0.039 0.016,0.016 0.032,0.047 0.036,0.082 0.007,0.039 0.015,0.164 0.023,0.379 0.012,0.215 0.016,0.379 0.016,0.488 v 0.332 c 0,0.219 -0.016,0.391 -0.047,0.508 -0.032,0.121 -0.094,0.223 -0.196,0.305 -0.097,0.082 -0.222,0.121 -0.375,0.121 -0.117,0 -0.222,-0.023 -0.32,-0.07 -0.098,-0.043 -0.176,-0.102 -0.238,-0.168 -0.059,-0.067 -0.098,-0.129 -0.113,-0.188 -0.016,-0.058 -0.024,-0.187 -0.024,-0.383 v -0.433 c 0,-0.086 0.004,-0.246 0.012,-0.484 0.008,-0.235 0.019,-0.372 0.027,-0.411 0.008,-0.039 0.024,-0.066 0.039,-0.086 0.02,-0.015 0.043,-0.027 0.067,-0.031 0.023,-0.004 0.129,-0.012 0.316,-0.023 l 0.023,-0.024 v -0.125 l -0.023,-0.027 c -0.242,0.016 -0.477,0.023 -0.703,0.023 -0.227,0 -0.461,-0.007 -0.703,-0.023 l -0.028,0.027 v 0.125 l 0.028,0.024 c 0.187,0.011 0.293,0.019 0.32,0.023 0.024,0.008 0.043,0.02 0.063,0.039 0.019,0.016 0.031,0.047 0.039,0.082 0.007,0.039 0.015,0.164 0.023,0.379 0.008,0.215 0.012,0.379 0.012,0.488 v 0.575 c 0,0.078 -0.004,0.183 -0.012,0.32 -0.008,0.133 -0.012,0.219 -0.019,0.25 -0.004,0.031 -0.02,0.051 -0.043,0.066 -0.028,0.016 -0.079,0.024 -0.153,0.024 l -0.246,0.004 -0.027,0.023 v 0.125 l 0.023,0.024 c 0.375,0.043 0.688,0.117 0.942,0.218"
         style="fill:#000000;fill-opacity:1;fill-rule:nonzero;stroke:none"
         id="path222" /><path
         d="m 30.563,80.078 c 0,0.231 0.046,0.457 0.14,0.672 0.098,0.215 0.262,0.402 0.5,0.559 0.238,0.16 0.52,0.238 0.844,0.238 0.41,0 0.746,-0.129 1.004,-0.391 0.258,-0.258 0.387,-0.59 0.387,-0.996 0,-0.449 -0.149,-0.816 -0.446,-1.105 -0.297,-0.289 -0.652,-0.434 -1.07,-0.434 -0.274,0 -0.516,0.074 -0.731,0.223 -0.214,0.148 -0.375,0.328 -0.476,0.539 -0.102,0.215 -0.152,0.445 -0.152,0.695 m 0.55,0.203 c 0,-0.273 0.035,-0.519 0.106,-0.734 0.07,-0.215 0.183,-0.391 0.336,-0.52 0.152,-0.132 0.324,-0.199 0.519,-0.199 0.231,0 0.422,0.094 0.571,0.274 0.152,0.183 0.226,0.461 0.226,0.828 0,0.414 -0.082,0.758 -0.242,1.023 -0.164,0.266 -0.399,0.399 -0.707,0.399 -0.254,0 -0.453,-0.094 -0.594,-0.278 -0.144,-0.183 -0.215,-0.449 -0.215,-0.793"
         style="fill:#000000;fill-opacity:1;fill-rule:nonzero;stroke:none"
         id="path224" /><path
         d="m 34.641,81.527 0.054,-0.035 c -0.011,-0.133 -0.019,-0.304 -0.023,-0.515 0.156,0.125 0.305,0.257 0.445,0.39 0.039,0.035 0.078,0.063 0.113,0.082 0.036,0.016 0.098,0.035 0.18,0.055 0.086,0.019 0.172,0.031 0.262,0.031 0.144,0 0.289,-0.031 0.43,-0.094 0.14,-0.058 0.246,-0.128 0.316,-0.214 0.07,-0.082 0.121,-0.18 0.148,-0.293 0.028,-0.114 0.043,-0.254 0.043,-0.418 V 80 c 0,-0.035 0.004,-0.277 0.012,-0.73 0.004,-0.188 0.027,-0.297 0.063,-0.332 0.035,-0.036 0.156,-0.051 0.363,-0.051 l 0.023,-0.024 v -0.129 l -0.023,-0.023 c -0.246,0.016 -0.414,0.023 -0.504,0.023 -0.051,0 -0.191,-0.007 -0.426,-0.023 l -0.039,0.035 c 0.027,0.254 0.039,0.582 0.039,0.992 v 0.383 c 0,0.231 -0.004,0.399 -0.015,0.5 -0.012,0.102 -0.043,0.192 -0.098,0.277 -0.055,0.082 -0.129,0.145 -0.219,0.192 -0.094,0.047 -0.203,0.07 -0.328,0.07 -0.102,0 -0.191,-0.012 -0.262,-0.031 C 35.121,81.109 35.043,81.066 34.953,81 34.863,80.938 34.797,80.879 34.754,80.824 34.711,80.77 34.684,80.715 34.676,80.668 34.668,80.621 34.664,80.52 34.664,80.363 v -0.511 c 0,-0.043 0,-0.18 0.008,-0.414 0.008,-0.235 0.019,-0.372 0.027,-0.411 0.008,-0.039 0.02,-0.066 0.039,-0.082 0.016,-0.019 0.039,-0.031 0.063,-0.035 0.027,-0.004 0.133,-0.012 0.316,-0.023 l 0.028,-0.024 v -0.125 l -0.024,-0.027 c -0.242,0.016 -0.48,0.023 -0.707,0.023 -0.223,0 -0.457,-0.007 -0.703,-0.023 l -0.023,0.027 v 0.125 l 0.023,0.024 c 0.191,0.011 0.297,0.019 0.32,0.023 0.028,0.008 0.047,0.02 0.067,0.039 0.019,0.016 0.031,0.047 0.039,0.082 0.008,0.039 0.015,0.164 0.023,0.379 0.008,0.215 0.012,0.379 0.012,0.488 v 0.575 c 0,0.078 -0.004,0.183 -0.012,0.32 -0.008,0.133 -0.012,0.219 -0.019,0.25 -0.004,0.031 -0.02,0.051 -0.043,0.066 -0.028,0.016 -0.078,0.024 -0.153,0.024 l -0.246,0.004 -0.027,0.023 v 0.125 l 0.023,0.024 c 0.371,0.043 0.688,0.117 0.946,0.218"
         style="fill:#000000;fill-opacity:1;fill-rule:nonzero;stroke:none"
         id="path226" /><path
         d="m 37.973,82.836 c 0.09,0 0.168,-0.031 0.234,-0.094 0.063,-0.066 0.098,-0.144 0.098,-0.234 0,-0.09 -0.035,-0.168 -0.098,-0.235 -0.066,-0.062 -0.144,-0.093 -0.234,-0.093 -0.09,0 -0.168,0.031 -0.235,0.093 -0.062,0.063 -0.097,0.141 -0.097,0.235 0,0.09 0.035,0.168 0.097,0.234 0.067,0.063 0.145,0.094 0.235,0.094 m 0.25,-1.309 0.054,-0.035 C 38.258,81.234 38.246,80.91 38.246,80.516 v -0.664 c 0,-0.043 0.004,-0.18 0.012,-0.414 0.008,-0.235 0.015,-0.372 0.023,-0.411 0.008,-0.039 0.024,-0.066 0.039,-0.082 0.02,-0.019 0.039,-0.031 0.067,-0.035 0.023,-0.004 0.129,-0.012 0.316,-0.023 l 0.024,-0.024 v -0.125 l -0.024,-0.027 c -0.242,0.016 -0.476,0.023 -0.703,0.023 -0.227,0 -0.461,-0.007 -0.703,-0.023 l -0.027,0.027 v 0.125 l 0.027,0.024 c 0.187,0.011 0.297,0.019 0.32,0.023 0.024,0.008 0.047,0.02 0.063,0.039 0.019,0.016 0.031,0.047 0.039,0.082 0.008,0.039 0.015,0.164 0.023,0.379 0.008,0.215 0.016,0.379 0.016,0.488 v 0.575 c 0,0.078 -0.008,0.183 -0.016,0.32 -0.008,0.133 -0.012,0.219 -0.015,0.25 -0.008,0.031 -0.024,0.051 -0.047,0.066 -0.028,0.016 -0.078,0.024 -0.153,0.024 l -0.246,0.004 -0.027,0.023 v 0.125 l 0.023,0.024 c 0.375,0.043 0.688,0.117 0.946,0.218"
         style="fill:#000000;fill-opacity:1;fill-rule:nonzero;stroke:none"
         id="path228" /><path
         d="m 41.418,79.051 -0.117,-0.199 c -0.254,-0.137 -0.535,-0.207 -0.844,-0.207 -0.43,0 -0.762,0.128 -0.996,0.382 -0.234,0.258 -0.352,0.586 -0.352,0.993 0,0.183 0.02,0.347 0.059,0.488 0.043,0.144 0.094,0.265 0.152,0.359 0.063,0.094 0.129,0.168 0.207,0.223 0.075,0.055 0.2,0.129 0.375,0.226 0.176,0.098 0.309,0.161 0.399,0.192 0.09,0.031 0.215,0.047 0.375,0.047 0.301,0 0.547,-0.059 0.742,-0.172 -0.039,-0.223 -0.066,-0.469 -0.086,-0.738 l -0.023,-0.024 h -0.121 l -0.028,0.027 c -0.008,0.161 -0.019,0.274 -0.031,0.329 -0.016,0.058 -0.094,0.117 -0.234,0.183 -0.141,0.063 -0.293,0.098 -0.454,0.098 -0.16,0 -0.3,-0.035 -0.425,-0.102 -0.125,-0.07 -0.219,-0.179 -0.286,-0.332 -0.062,-0.156 -0.093,-0.336 -0.093,-0.551 0,-0.179 0.027,-0.355 0.078,-0.527 0.047,-0.168 0.117,-0.312 0.199,-0.422 0.082,-0.113 0.191,-0.203 0.328,-0.273 0.137,-0.067 0.289,-0.102 0.457,-0.102 0.106,0 0.211,0.016 0.309,0.043 0.101,0.028 0.219,0.071 0.347,0.133 z"
         style="fill:#000000;fill-opacity:1;fill-rule:nonzero;stroke:none"
         id="path230" /><path
         d="m 16.613,71.824 -0.113,0.031 -0.023,0.028 v 0.363 c 0.347,0.258 0.683,0.387 1.011,0.387 0.223,0 0.41,-0.039 0.559,-0.125 0.148,-0.082 0.258,-0.188 0.324,-0.317 0.067,-0.125 0.098,-0.269 0.098,-0.437 l -0.016,-0.59 v -0.875 c 0,-0.117 0.012,-0.191 0.027,-0.215 0.016,-0.027 0.036,-0.043 0.055,-0.051 0.024,-0.011 0.063,-0.015 0.121,-0.023 l 0.168,-0.016 0.024,-0.023 V 69.844 L 18.824,69.82 c -0.14,0.012 -0.273,0.016 -0.398,0.016 -0.117,0 -0.258,-0.004 -0.422,-0.016 l -0.043,0.039 0.012,0.473 -0.641,-0.5 c -0.105,-0.043 -0.223,-0.066 -0.352,-0.066 -0.156,0 -0.289,0.027 -0.402,0.086 -0.113,0.054 -0.199,0.132 -0.258,0.234 -0.058,0.102 -0.09,0.227 -0.09,0.371 0,0.289 0.09,0.512 0.27,0.672 0.18,0.16 0.672,0.301 1.473,0.414 0,0.289 -0.067,0.492 -0.196,0.609 -0.129,0.118 -0.3,0.176 -0.519,0.176 -0.113,0 -0.215,-0.015 -0.309,-0.047 -0.09,-0.035 -0.144,-0.062 -0.16,-0.082 -0.012,-0.019 -0.066,-0.14 -0.156,-0.359 z m 1.36,-0.461 c -0.547,-0.093 -0.887,-0.191 -1.024,-0.297 -0.136,-0.105 -0.203,-0.269 -0.203,-0.488 0,-0.305 0.152,-0.457 0.457,-0.457 0.258,0 0.516,0.149 0.77,0.449 z"
         style="fill:#000000;fill-opacity:1;fill-rule:nonzero;stroke:none"
         id="path232" /><path
         d="m 19.992,72.633 0.055,-0.039 c -0.012,-0.133 -0.02,-0.305 -0.024,-0.516 0.157,0.129 0.305,0.258 0.446,0.391 0.043,0.039 0.082,0.066 0.117,0.082 0.035,0.019 0.098,0.039 0.18,0.058 0.086,0.016 0.172,0.028 0.257,0.028 0.149,0 0.293,-0.032 0.434,-0.09 0.141,-0.063 0.246,-0.133 0.316,-0.215 0.071,-0.086 0.122,-0.184 0.149,-0.297 0.027,-0.113 0.039,-0.25 0.039,-0.418 v -0.515 c 0,-0.032 0.004,-0.278 0.016,-0.731 0.003,-0.183 0.023,-0.293 0.062,-0.332 0.035,-0.035 0.156,-0.051 0.363,-0.051 l 0.024,-0.023 V 69.84 l -0.024,-0.024 c -0.25,0.016 -0.418,0.024 -0.504,0.024 -0.05,0 -0.195,-0.008 -0.429,-0.024 l -0.035,0.032 c 0.027,0.254 0.039,0.586 0.039,0.992 v 0.387 c 0,0.23 -0.004,0.394 -0.016,0.496 -0.012,0.101 -0.043,0.195 -0.098,0.277 -0.054,0.082 -0.129,0.148 -0.218,0.191 -0.094,0.047 -0.203,0.071 -0.328,0.071 -0.106,0 -0.192,-0.012 -0.262,-0.032 -0.074,-0.019 -0.156,-0.062 -0.246,-0.125 -0.09,-0.062 -0.157,-0.121 -0.2,-0.179 C 20.063,71.871 20.039,71.82 20.031,71.77 20.02,71.723 20.016,71.621 20.016,71.465 v -0.508 c 0,-0.043 0.004,-0.184 0.011,-0.418 0.008,-0.23 0.016,-0.367 0.028,-0.406 0.008,-0.039 0.019,-0.067 0.039,-0.086 0.015,-0.016 0.039,-0.027 0.062,-0.035 0.028,-0.004 0.133,-0.012 0.317,-0.024 L 20.5,69.965 v -0.121 l -0.023,-0.028 c -0.247,0.016 -0.481,0.024 -0.707,0.024 -0.223,0 -0.457,-0.008 -0.704,-0.024 l -0.027,0.028 v 0.121 l 0.027,0.023 c 0.192,0.012 0.297,0.02 0.321,0.028 0.027,0.004 0.047,0.015 0.066,0.035 0.02,0.019 0.031,0.047 0.039,0.086 0.004,0.039 0.012,0.164 0.024,0.379 0.007,0.211 0.011,0.375 0.011,0.484 v 0.578 c 0,0.078 -0.004,0.184 -0.011,0.317 -0.008,0.136 -0.016,0.218 -0.02,0.25 -0.004,0.031 -0.019,0.054 -0.047,0.066 -0.023,0.016 -0.074,0.023 -0.152,0.023 l -0.242,0.004 -0.028,0.024 v 0.125 l 0.024,0.023 c 0.371,0.047 0.687,0.121 0.941,0.223"
         style="fill:#000000;fill-opacity:1;fill-rule:nonzero;stroke:none"
         id="path234" /><path
         d="m 23.48,74.18 0.055,-0.035 C 23.516,73.918 23.504,73.469 23.504,72.793 V 72.07 c 0.164,0.133 0.316,0.266 0.457,0.399 0.039,0.039 0.078,0.066 0.117,0.082 0.035,0.019 0.098,0.039 0.18,0.058 0.082,0.016 0.168,0.028 0.258,0.028 0.144,0 0.289,-0.032 0.429,-0.09 0.141,-0.063 0.246,-0.133 0.317,-0.215 0.07,-0.086 0.121,-0.184 0.148,-0.297 0.028,-0.113 0.043,-0.25 0.043,-0.418 v -0.515 c 0,-0.032 0.004,-0.278 0.012,-0.731 0.008,-0.183 0.027,-0.293 0.062,-0.332 0.039,-0.035 0.157,-0.051 0.364,-0.051 l 0.023,-0.023 V 69.84 l -0.023,-0.024 c -0.246,0.016 -0.414,0.024 -0.504,0.024 -0.047,0 -0.188,-0.008 -0.426,-0.024 l -0.039,0.032 c 0.027,0.254 0.039,0.586 0.039,0.992 v 0.387 c 0,0.23 -0.004,0.394 -0.016,0.496 -0.011,0.101 -0.043,0.195 -0.097,0.277 -0.055,0.082 -0.129,0.148 -0.219,0.191 -0.09,0.047 -0.199,0.071 -0.328,0.071 -0.133,0 -0.246,-0.02 -0.332,-0.055 -0.09,-0.035 -0.18,-0.098 -0.274,-0.184 -0.09,-0.085 -0.144,-0.156 -0.164,-0.214 -0.019,-0.059 -0.027,-0.168 -0.027,-0.332 v -0.52 c 0,-0.043 0.004,-0.184 0.012,-0.418 0.007,-0.23 0.015,-0.367 0.023,-0.406 0.008,-0.039 0.024,-0.067 0.039,-0.086 0.02,-0.016 0.039,-0.027 0.067,-0.035 0.023,-0.004 0.128,-0.012 0.316,-0.024 l 0.023,-0.023 v -0.121 l -0.023,-0.028 c -0.242,0.016 -0.477,0.024 -0.703,0.024 -0.227,0 -0.461,-0.008 -0.703,-0.024 l -0.028,0.028 v 0.121 l 0.028,0.023 c 0.187,0.012 0.297,0.02 0.32,0.028 0.023,0.004 0.047,0.015 0.063,0.035 0.019,0.019 0.031,0.047 0.039,0.086 0.007,0.039 0.015,0.164 0.023,0.379 0.008,0.211 0.016,0.375 0.016,0.484 v 1.516 L 23,73.137 c -0.004,0.218 -0.012,0.367 -0.016,0.453 -0.007,0.082 -0.019,0.133 -0.031,0.148 -0.012,0.016 -0.031,0.028 -0.058,0.035 -0.032,0.008 -0.149,0.012 -0.356,0.012 l -0.027,0.028 v 0.121 l 0.023,0.027 c 0.375,0.043 0.688,0.117 0.945,0.219"
         style="fill:#000000;fill-opacity:1;fill-rule:nonzero;stroke:none"
         id="path236" /><path
         d="m 26.598,71.824 -0.114,0.031 -0.023,0.028 v 0.363 c 0.348,0.258 0.684,0.387 1.012,0.387 0.222,0 0.41,-0.039 0.558,-0.125 0.149,-0.082 0.258,-0.188 0.324,-0.317 0.067,-0.125 0.098,-0.269 0.098,-0.437 l -0.015,-0.59 v -0.875 c 0,-0.117 0.011,-0.191 0.027,-0.215 0.015,-0.027 0.035,-0.043 0.055,-0.051 0.023,-0.011 0.062,-0.015 0.121,-0.023 l 0.168,-0.016 0.023,-0.023 V 69.844 L 28.809,69.82 c -0.141,0.012 -0.274,0.016 -0.399,0.016 -0.117,0 -0.258,-0.004 -0.422,-0.016 l -0.043,0.039 0.012,0.473 -0.641,-0.5 c -0.105,-0.043 -0.222,-0.066 -0.351,-0.066 -0.156,0 -0.289,0.027 -0.402,0.086 -0.114,0.054 -0.2,0.132 -0.258,0.234 -0.059,0.102 -0.09,0.227 -0.09,0.371 0,0.289 0.09,0.512 0.269,0.672 0.18,0.16 0.672,0.301 1.473,0.414 0,0.289 -0.066,0.492 -0.195,0.609 -0.129,0.118 -0.301,0.176 -0.52,0.176 -0.113,0 -0.215,-0.015 -0.308,-0.047 -0.09,-0.035 -0.145,-0.062 -0.161,-0.082 -0.011,-0.019 -0.066,-0.14 -0.156,-0.359 z m 1.359,-0.461 C 27.41,71.27 27.07,71.172 26.934,71.066 26.797,70.961 26.73,70.797 26.73,70.578 c 0,-0.305 0.153,-0.457 0.458,-0.457 0.257,0 0.515,0.149 0.769,0.449 z"
         style="fill:#000000;fill-opacity:1;fill-rule:nonzero;stroke:none"
         id="path238" /><path
         d="m 30.102,72.633 0.054,-0.039 C 30.145,72.48 30.137,72.277 30.129,71.988 l 0.223,0.282 c 0.07,0.089 0.132,0.16 0.191,0.21 0.055,0.051 0.117,0.09 0.191,0.114 0.075,0.027 0.153,0.043 0.231,0.043 0.086,0 0.168,-0.02 0.242,-0.051 l 0.02,-0.043 C 31.195,72.285 31.18,72.055 31.176,71.859 h -0.133 c -0.078,0.18 -0.203,0.27 -0.379,0.27 -0.121,0 -0.226,-0.039 -0.316,-0.117 -0.09,-0.078 -0.149,-0.176 -0.18,-0.289 -0.027,-0.118 -0.043,-0.266 -0.043,-0.442 v -0.324 c 0,-0.059 0.004,-0.203 0.012,-0.434 0.008,-0.226 0.015,-0.359 0.023,-0.394 0.008,-0.035 0.024,-0.063 0.043,-0.078 0.016,-0.016 0.043,-0.028 0.07,-0.035 0.032,-0.004 0.172,-0.016 0.418,-0.028 l 0.028,-0.023 v -0.121 l -0.028,-0.028 c -0.257,0.016 -0.531,0.024 -0.812,0.024 -0.227,0 -0.461,-0.008 -0.703,-0.024 l -0.028,0.028 v 0.121 l 0.028,0.023 c 0.187,0.012 0.297,0.02 0.32,0.028 0.024,0.004 0.047,0.015 0.063,0.035 0.019,0.019 0.031,0.047 0.039,0.086 0.007,0.039 0.015,0.164 0.023,0.379 0.008,0.211 0.012,0.375 0.012,0.484 v 0.578 c 0,0.078 -0.004,0.184 -0.012,0.317 -0.008,0.136 -0.012,0.218 -0.016,0.25 -0.007,0.031 -0.019,0.054 -0.046,0.066 -0.028,0.016 -0.079,0.023 -0.153,0.023 l -0.246,0.004 -0.027,0.024 v 0.125 l 0.023,0.023 c 0.375,0.047 0.688,0.121 0.946,0.223"
         style="fill:#000000;fill-opacity:1;fill-rule:nonzero;stroke:none"
         id="path240" /><path
         d="m 32.422,72.633 0.058,-0.039 c -0.011,-0.129 -0.019,-0.285 -0.023,-0.465 l 0.277,0.258 c 0.079,0.07 0.129,0.117 0.157,0.136 0.023,0.02 0.086,0.047 0.179,0.071 0.094,0.027 0.192,0.043 0.293,0.043 0.196,0 0.367,-0.047 0.512,-0.145 0.148,-0.097 0.258,-0.23 0.328,-0.398 0.262,0.25 0.418,0.386 0.461,0.414 0.043,0.027 0.113,0.055 0.207,0.082 0.098,0.031 0.195,0.043 0.289,0.043 0.156,0 0.297,-0.031 0.426,-0.098 0.129,-0.066 0.23,-0.152 0.305,-0.262 0.078,-0.105 0.121,-0.222 0.136,-0.347 0.012,-0.125 0.02,-0.297 0.02,-0.516 v -0.308 c 0,-0.032 0.004,-0.278 0.016,-0.731 0.003,-0.183 0.023,-0.293 0.062,-0.332 0.035,-0.035 0.156,-0.051 0.359,-0.051 l 0.024,-0.023 V 69.84 l -0.024,-0.024 c -0.25,0.016 -0.418,0.024 -0.504,0.024 -0.046,0 -0.191,-0.008 -0.425,-0.024 l -0.039,0.032 c 0.027,0.254 0.039,0.586 0.039,0.992 v 0.351 c 0,0.313 -0.012,0.528 -0.043,0.653 -0.028,0.125 -0.098,0.226 -0.207,0.304 -0.106,0.079 -0.235,0.122 -0.383,0.122 -0.106,0 -0.203,-0.024 -0.297,-0.067 -0.09,-0.039 -0.172,-0.101 -0.246,-0.187 -0.074,-0.082 -0.113,-0.157 -0.121,-0.231 -0.008,-0.07 -0.012,-0.203 -0.012,-0.394 v -0.364 c 0,-0.086 0.004,-0.25 0.012,-0.484 0.008,-0.238 0.015,-0.375 0.023,-0.414 0.012,-0.039 0.024,-0.066 0.043,-0.082 0.02,-0.02 0.039,-0.027 0.063,-0.035 0.027,-0.004 0.129,-0.012 0.316,-0.024 l 0.027,-0.023 v -0.121 l -0.023,-0.028 c -0.246,0.016 -0.48,0.024 -0.707,0.024 -0.211,0 -0.445,-0.008 -0.703,-0.024 l -0.027,0.028 v 0.121 l 0.027,0.023 c 0.187,0.012 0.297,0.02 0.32,0.028 0.024,0.004 0.047,0.015 0.067,0.035 0.015,0.019 0.031,0.047 0.035,0.086 0.008,0.039 0.015,0.164 0.023,0.379 0.012,0.211 0.016,0.375 0.016,0.484 v 0.332 c 0,0.223 -0.016,0.391 -0.047,0.512 -0.031,0.117 -0.094,0.219 -0.195,0.301 -0.098,0.082 -0.223,0.125 -0.375,0.125 -0.118,0 -0.223,-0.024 -0.321,-0.071 -0.097,-0.047 -0.175,-0.101 -0.238,-0.172 -0.059,-0.066 -0.098,-0.129 -0.113,-0.187 -0.016,-0.059 -0.024,-0.184 -0.024,-0.379 v -0.434 c 0,-0.086 0.004,-0.25 0.012,-0.484 0.008,-0.238 0.02,-0.375 0.027,-0.414 0.008,-0.039 0.024,-0.066 0.039,-0.082 0.02,-0.02 0.043,-0.027 0.067,-0.035 0.023,-0.004 0.129,-0.012 0.316,-0.024 l 0.024,-0.023 v -0.121 l -0.024,-0.028 c -0.242,0.016 -0.476,0.024 -0.703,0.024 -0.226,0 -0.461,-0.008 -0.703,-0.024 l -0.027,0.028 v 0.121 l 0.027,0.023 c 0.188,0.012 0.293,0.02 0.32,0.028 0.024,0.004 0.043,0.015 0.063,0.035 0.019,0.019 0.031,0.047 0.039,0.086 0.008,0.039 0.016,0.164 0.023,0.379 0.008,0.211 0.012,0.375 0.012,0.484 v 0.578 c 0,0.078 -0.004,0.184 -0.012,0.317 -0.007,0.136 -0.011,0.218 -0.019,0.25 -0.004,0.031 -0.02,0.054 -0.043,0.066 -0.028,0.016 -0.078,0.023 -0.153,0.023 l -0.246,0.004 -0.027,0.024 v 0.125 l 0.023,0.023 c 0.375,0.047 0.688,0.121 0.942,0.223"
         style="fill:#000000;fill-opacity:1;fill-rule:nonzero;stroke:none"
         id="path242" /><path
         d="m 36.844,71.18 c 0,0.234 0.047,0.457 0.14,0.672 0.098,0.218 0.262,0.402 0.5,0.562 0.239,0.156 0.52,0.234 0.844,0.234 0.41,0 0.746,-0.128 1.004,-0.386 0.258,-0.262 0.387,-0.594 0.387,-1 0,-0.446 -0.149,-0.817 -0.446,-1.106 -0.296,-0.289 -0.652,-0.429 -1.07,-0.429 -0.273,0 -0.515,0.07 -0.73,0.218 -0.215,0.149 -0.375,0.328 -0.477,0.539 -0.101,0.215 -0.152,0.446 -0.152,0.696 m 0.551,0.203 c 0,-0.274 0.035,-0.52 0.105,-0.735 0.07,-0.214 0.184,-0.386 0.336,-0.519 0.152,-0.129 0.324,-0.195 0.519,-0.195 0.231,0 0.422,0.089 0.571,0.273 0.152,0.184 0.226,0.457 0.226,0.824 0,0.418 -0.082,0.758 -0.242,1.024 -0.164,0.265 -0.398,0.398 -0.707,0.398 -0.254,0 -0.453,-0.094 -0.594,-0.277 -0.144,-0.184 -0.214,-0.446 -0.214,-0.793"
         style="fill:#000000;fill-opacity:1;fill-rule:nonzero;stroke:none"
         id="path244" /><path
         d="m 40.922,72.633 0.055,-0.039 c -0.012,-0.133 -0.02,-0.305 -0.024,-0.516 0.156,0.129 0.305,0.258 0.445,0.391 0.04,0.039 0.079,0.066 0.114,0.082 0.035,0.019 0.097,0.039 0.179,0.058 0.086,0.016 0.172,0.028 0.262,0.028 0.145,0 0.289,-0.032 0.43,-0.09 0.14,-0.063 0.246,-0.133 0.316,-0.215 0.071,-0.086 0.121,-0.184 0.149,-0.297 0.027,-0.113 0.043,-0.25 0.043,-0.418 v -0.515 c 0,-0.032 0.004,-0.278 0.011,-0.731 0.004,-0.183 0.028,-0.293 0.063,-0.332 0.035,-0.035 0.156,-0.051 0.363,-0.051 l 0.024,-0.023 V 69.84 l -0.024,-0.024 c -0.246,0.016 -0.414,0.024 -0.504,0.024 -0.051,0 -0.191,-0.008 -0.426,-0.024 l -0.039,0.032 c 0.028,0.254 0.039,0.586 0.039,0.992 v 0.387 c 0,0.23 -0.003,0.394 -0.015,0.496 -0.012,0.101 -0.043,0.195 -0.098,0.277 -0.055,0.082 -0.129,0.148 -0.219,0.191 -0.093,0.047 -0.203,0.071 -0.328,0.071 -0.101,0 -0.191,-0.012 -0.261,-0.032 -0.075,-0.019 -0.153,-0.062 -0.243,-0.125 -0.089,-0.062 -0.156,-0.121 -0.199,-0.179 -0.043,-0.055 -0.07,-0.106 -0.078,-0.156 -0.008,-0.047 -0.012,-0.149 -0.012,-0.305 v -0.508 c 0,-0.043 0,-0.184 0.008,-0.418 0.008,-0.23 0.02,-0.367 0.027,-0.406 0.008,-0.039 0.02,-0.067 0.04,-0.086 0.015,-0.016 0.039,-0.027 0.062,-0.035 0.027,-0.004 0.133,-0.012 0.316,-0.024 l 0.028,-0.023 v -0.121 l -0.024,-0.028 c -0.242,0.016 -0.48,0.024 -0.707,0.024 -0.222,0 -0.457,-0.008 -0.703,-0.024 l -0.023,0.028 v 0.121 l 0.023,0.023 c 0.192,0.012 0.297,0.02 0.321,0.028 0.027,0.004 0.046,0.015 0.066,0.035 0.019,0.019 0.031,0.047 0.039,0.086 0.008,0.039 0.016,0.164 0.023,0.379 0.008,0.211 0.012,0.375 0.012,0.484 v 0.578 c 0,0.078 -0.004,0.184 -0.012,0.317 -0.007,0.136 -0.011,0.218 -0.019,0.25 -0.004,0.031 -0.02,0.054 -0.043,0.066 -0.027,0.016 -0.078,0.023 -0.152,0.023 l -0.247,0.004 -0.027,0.024 v 0.125 l 0.024,0.023 c 0.371,0.047 0.687,0.121 0.945,0.223"
         style="fill:#000000;fill-opacity:1;fill-rule:nonzero;stroke:none"
         id="path246" /><path
         d="m 44.254,73.941 c 0.09,0 0.168,-0.031 0.234,-0.097 0.063,-0.063 0.098,-0.141 0.098,-0.235 0,-0.089 -0.035,-0.168 -0.098,-0.23 -0.066,-0.066 -0.144,-0.098 -0.234,-0.098 -0.09,0 -0.168,0.032 -0.234,0.094 -0.063,0.066 -0.098,0.145 -0.098,0.234 0,0.094 0.035,0.172 0.098,0.235 0.066,0.066 0.144,0.097 0.234,0.097 m 0.25,-1.308 0.055,-0.039 c -0.02,-0.258 -0.032,-0.582 -0.032,-0.977 v -0.66 c 0,-0.043 0.004,-0.184 0.012,-0.418 0.008,-0.23 0.016,-0.367 0.024,-0.406 0.007,-0.039 0.023,-0.067 0.039,-0.086 0.019,-0.016 0.039,-0.027 0.066,-0.035 0.023,-0.004 0.129,-0.012 0.316,-0.024 l 0.024,-0.023 v -0.121 l -0.024,-0.028 c -0.242,0.016 -0.476,0.024 -0.703,0.024 -0.226,0 -0.461,-0.008 -0.703,-0.024 l -0.027,0.028 v 0.121 l 0.027,0.023 c 0.188,0.012 0.297,0.02 0.32,0.028 0.024,0.004 0.047,0.015 0.063,0.035 0.019,0.019 0.031,0.047 0.039,0.086 0.008,0.039 0.016,0.164 0.023,0.379 0.008,0.211 0.016,0.375 0.016,0.484 v 0.578 c 0,0.078 -0.008,0.184 -0.016,0.317 -0.007,0.136 -0.011,0.218 -0.015,0.25 -0.008,0.031 -0.024,0.054 -0.047,0.066 -0.027,0.016 -0.078,0.023 -0.152,0.023 l -0.246,0.004 -0.028,0.024 v 0.125 l 0.024,0.023 c 0.375,0.047 0.687,0.121 0.945,0.223"
         style="fill:#000000;fill-opacity:1;fill-rule:nonzero;stroke:none"
         id="path248" /><path
         d="m 47.699,70.152 -0.117,-0.195 c -0.254,-0.141 -0.535,-0.207 -0.844,-0.207 -0.429,0 -0.761,0.125 -0.996,0.383 -0.234,0.254 -0.351,0.586 -0.351,0.988 0,0.184 0.019,0.348 0.058,0.492 0.043,0.145 0.094,0.262 0.153,0.356 0.062,0.094 0.128,0.168 0.207,0.222 0.074,0.055 0.199,0.133 0.375,0.231 0.175,0.094 0.308,0.16 0.398,0.187 0.09,0.032 0.215,0.047 0.375,0.047 0.301,0 0.547,-0.054 0.742,-0.172 C 47.66,72.266 47.633,72.02 47.613,71.746 L 47.59,71.723 h -0.121 l -0.028,0.027 c -0.007,0.164 -0.019,0.273 -0.031,0.328 -0.015,0.059 -0.094,0.117 -0.234,0.184 -0.141,0.066 -0.293,0.097 -0.453,0.097 -0.16,0 -0.301,-0.035 -0.426,-0.101 -0.125,-0.067 -0.219,-0.18 -0.285,-0.332 -0.063,-0.153 -0.094,-0.336 -0.094,-0.547 0,-0.18 0.027,-0.356 0.078,-0.527 0.047,-0.172 0.117,-0.313 0.199,-0.426 0.082,-0.113 0.192,-0.203 0.328,-0.27 0.137,-0.07 0.29,-0.101 0.457,-0.101 0.106,0 0.211,0.011 0.309,0.039 0.102,0.027 0.219,0.074 0.348,0.136 z"
         style="fill:#000000;fill-opacity:1;fill-rule:nonzero;stroke:none"
         id="path250" /><path
         d="M 50.543,89.457 H 61.238"
         style="fill:none;stroke:#000000;stroke-width:0.5;stroke-linecap:square;stroke-linejoin:round;stroke-miterlimit:4;stroke-dasharray:none;stroke-opacity:1"
         id="path252" /><path
         d="M 50.543,80.816 H 61.238"
         style="fill:none;stroke:#000000;stroke-width:0.5;stroke-linecap:butt;stroke-linejoin:round;stroke-miterlimit:4;stroke-dasharray:2, 2;stroke-dashoffset:0;stroke-opacity:1"
         id="path254" /><path
         d="M 50.543,71.922 H 61.238"
         style="fill:none;stroke:#000000;stroke-width:0.5;stroke-linecap:butt;stroke-linejoin:round;stroke-miterlimit:4;stroke-dasharray:3, 1, 1, 1;stroke-dashoffset:0;stroke-opacity:1"
         id="path256" /></g></g></svg>
