<?xml version="1.0" encoding="UTF-8" standalone="no"?>
<!-- Created with Inkscape (http://www.inkscape.org/) -->

<svg
   version="1.1"
   id="svg2"
   xml:space="preserve"
   width="170.07875"
   height="51.212597"
   viewBox="0 0 170.07875 51.212597"
   sodipodi:docname="MM_stretch.svg"
   inkscape:version="1.1 (ce6663b3b7, 2021-05-25)"
   xmlns:inkscape="http://www.inkscape.org/namespaces/inkscape"
   xmlns:sodipodi="http://sodipodi.sourceforge.net/DTD/sodipodi-0.dtd"
   xmlns="http://www.w3.org/2000/svg"
   xmlns:svg="http://www.w3.org/2000/svg"><defs
     id="defs6" /><sodipodi:namedview
     id="namedview4"
     pagecolor="#ffffff"
     bordercolor="#666666"
     borderopacity="1.0"
     inkscape:pageshadow="2"
     inkscape:pageopacity="0.0"
     inkscape:pagecheckerboard="0"
     showgrid="false"
     inkscape:zoom="8.0198143"
     inkscape:cx="61.722127"
     inkscape:cy="25.561689"
     inkscape:window-width="2493"
     inkscape:window-height="1385"
     inkscape:window-x="1987"
     inkscape:window-y="27"
     inkscape:window-maximized="1"
     inkscape:current-layer="g8" /><g
     id="g8"
     inkscape:groupmode="layer"
     inkscape:label="MM_stretch"
     transform="matrix(1.3333333,0,0,-1.3333333,0,51.212596)"><g
       id="g10"><g
         id="g12"
         transform="matrix(1,0,0,-1,0,38.409447)"><path
           d="m 119.965,13.965 c 0.004,7.488 -6.067,13.558 -13.559,13.558 -7.488,0 -13.558,-6.07 -13.554,-13.558 -0.004,-7.488 6.066,-13.563 13.554,-13.563 7.492,0 13.563,6.075 13.559,13.563 z"
           style="fill:none;stroke:#000000;stroke-width:0.8;stroke-linecap:butt;stroke-linejoin:miter;stroke-miterlimit:10;stroke-dasharray:none;stroke-opacity:1"
           id="path14" /></g><g
         id="g16"
         transform="matrix(1,0,0,-1,0,38.409447)"><path
           d="m 34.855,14.422 h 5.344 l 3.266,-5.656 6.625,11.472 6.621,-11.472 6.625,11.472 6.625,-11.472 6.621,11.472 6.625,-11.472 3.266,5.656 h 6.136"
           style="fill:none;stroke:#000000;stroke-width:0.5;stroke-linecap:butt;stroke-linejoin:miter;stroke-miterlimit:4;stroke-dasharray:none;stroke-opacity:1"
           id="path18" /></g><g
         id="g20"
         transform="matrix(1,0,0,-1,0,38.409447)"><path
           d="m 34.617,13.965 c 0,7.488 -6.07,13.558 -13.558,13.558 C 13.57,27.523 7.5,21.453 7.5,13.965 7.5,6.477 13.57,0.402 21.059,0.402 c 7.488,0 13.558,6.075 13.558,13.563 z"
           style="fill:none;stroke:#000000;stroke-width:0.8;stroke-linecap:butt;stroke-linejoin:miter;stroke-miterlimit:10;stroke-dasharray:none;stroke-opacity:1"
           id="path22" /></g><g
         id="g24"
         transform="matrix(0.981159,0,0,-1,0,38.409447)"><path
           d="M 35.62,34.473 H 94.388"
           style="fill:none;stroke:#000000;stroke-width:0.403822;stroke-linecap:butt;stroke-linejoin:miter;stroke-miterlimit:10;stroke-dasharray:none;stroke-opacity:1"
           id="path26" /></g><path
         d="m 33.727,3.241 -1.207,0.7 1.21,0.695 1.208,0.695 V 3.937 L 34.934,2.538 33.727,3.241"
         style="fill:#000000;fill-opacity:1;fill-rule:nonzero;stroke:none"
         id="path28" /><g
         id="g30"
         transform="matrix(0.0330133,-0.999999,-1,-0.0330133,0,38.409447)"><path
           d="m 36.242,-32.53 -0.738,1.183 -0.655,-1.233 -0.655,-1.229 1.393,0.046 1.397,0.05 z"
           style="fill:none;stroke:#000000;stroke-width:0.0300336;stroke-linecap:butt;stroke-linejoin:miter;stroke-miterlimit:10;stroke-dasharray:none;stroke-opacity:1"
           id="path32" /></g><path
         d="M 93.832,4.632 95.039,3.929 93.828,3.234 92.621,2.538 v 1.399 l 0.004,1.394 1.207,-0.699"
         style="fill:#000000;fill-opacity:1;fill-rule:nonzero;stroke:none"
         id="path34" /><g
         id="g36"
         transform="matrix(-0.0330133,0.999999,1,0.0330133,0,38.409447)"><path
           d="m -36.835,92.616 -0.742,1.183 -0.655,-1.233 -0.654,-1.229 1.396,0.046 1.393,0.05 z"
           style="fill:none;stroke:#000000;stroke-width:0.0300336;stroke-linecap:butt;stroke-linejoin:miter;stroke-miterlimit:10;stroke-dasharray:none;stroke-opacity:1"
           id="path38" /></g><g
         id="g40"
         transform="matrix(0.828668,0,0,-1,0,38.409447)"><path
           d="m 74.494,30.742 h 4.148 v 7.367 h -4.148 z"
           style="fill:#ffffff;fill-opacity:1;fill-rule:nonzero;stroke:#ffffff;stroke-width:0.656338;stroke-linecap:square;stroke-linejoin:round;stroke-miterlimit:4;stroke-dasharray:none;stroke-opacity:1"
           id="path42" /></g><path
         d="m 64.422,6.796 c 0.031,0.125 0.031,0.141 0.031,0.172 0,0.078 -0.047,0.125 -0.125,0.125 -0.156,0 -0.906,-0.062 -1.094,-0.078 -0.078,-0.016 -0.187,-0.031 -0.187,-0.172 0,-0.125 0.109,-0.125 0.234,-0.125 0.422,0 0.422,-0.062 0.422,-0.141 0,-0.031 0,-0.046 -0.047,-0.218 L 62.563,1.952 C 62.516,1.765 62.516,1.64 62.516,1.609 c 0,-0.563 0.453,-0.828 0.843,-0.828 0.407,0 0.594,0.312 0.704,0.515 0.156,0.328 0.265,0.828 0.265,0.86 0,0.046 -0.031,0.109 -0.125,0.109 -0.109,0 -0.109,-0.047 -0.14,-0.219 -0.157,-0.609 -0.344,-1.047 -0.672,-1.047 -0.172,0 -0.282,0.125 -0.282,0.407 0,0.187 0.016,0.265 0.063,0.406 z"
         style="fill:#000000;fill-opacity:1;fill-rule:nonzero;stroke:none"
         id="path44" /></g></g></svg>
