<?xml version="1.0" encoding="UTF-8" standalone="no"?>
<!-- Created with Inkscape (http://www.inkscape.org/) -->

<svg
   version="1.1"
   id="svg2"
   xml:space="preserve"
   width="170.07875"
   height="94.412598"
   viewBox="0 0 170.07875 94.412598"
   sodipodi:docname="MM_torsion.svg"
   inkscape:version="1.1 (ce6663b3b7, 2021-05-25)"
   xmlns:inkscape="http://www.inkscape.org/namespaces/inkscape"
   xmlns:sodipodi="http://sodipodi.sourceforge.net/DTD/sodipodi-0.dtd"
   xmlns="http://www.w3.org/2000/svg"
   xmlns:svg="http://www.w3.org/2000/svg"><defs
     id="defs6" /><sodipodi:namedview
     id="namedview4"
     pagecolor="#ffffff"
     bordercolor="#666666"
     borderopacity="1.0"
     inkscape:pageshadow="2"
     inkscape:pageopacity="0.0"
     inkscape:pagecheckerboard="0"
     showgrid="false"
     inkscape:zoom="8.0139347"
     inkscape:cx="61.767411"
     inkscape:cy="47.167841"
     inkscape:window-width="2493"
     inkscape:window-height="1385"
     inkscape:window-x="1987"
     inkscape:window-y="27"
     inkscape:window-maximized="1"
     inkscape:current-layer="g8" /><g
     id="g8"
     inkscape:groupmode="layer"
     inkscape:label="MM_torsion"
     transform="matrix(1.3333333,0,0,-1.3333333,0,94.412597)"><g
       id="g10"><g
         id="g12"
         transform="matrix(-1,1,-1,-1,0,70.809448)"><path
           d="m -55.348,-39.859 -0.002,2.107 2.231,1.285 -4.522,2.612 4.522,2.611 -4.522,2.611 4.522,2.612 -4.522,2.611 4.522,2.611 -2.229,1.287 -0.002,2.42"
           style="fill:none;stroke:#000000;stroke-width:0.353553;stroke-linecap:butt;stroke-linejoin:miter;stroke-miterlimit:4;stroke-dasharray:none;stroke-opacity:1"
           id="path14" /></g><g
         id="g16"
         transform="matrix(-1,-1,1,-1,0,70.809448)"><path
           d="m -39.953,55.168 c 0,2.953 -2.393,5.346 -5.346,5.346 -2.953,0 -5.346,-2.393 -5.346,-5.346 0.002,-2.951 2.393,-5.346 5.346,-5.346 2.953,0 5.344,2.395 5.346,5.346 z"
           style="fill:none;stroke:#000000;stroke-width:0.565685;stroke-linecap:butt;stroke-linejoin:miter;stroke-miterlimit:10;stroke-dasharray:none;stroke-opacity:1"
           id="path18" /></g><g
         id="g20"
         transform="matrix(-1,-1,1,-1,0,70.809448)"><path
           d="m -6.309,55.168 c 0,2.953 -2.392,5.346 -5.345,5.346 -2.951,0.002 -5.346,-2.393 -5.344,-5.344 0,-2.953 2.393,-5.346 5.344,-5.348 2.953,0 5.345,2.393 5.345,5.346 z"
           style="fill:none;stroke:#000000;stroke-width:0.565685;stroke-linecap:butt;stroke-linejoin:miter;stroke-miterlimit:10;stroke-dasharray:none;stroke-opacity:1"
           id="path22" /></g><g
         id="g24"
         transform="matrix(-1,1,-1,-1,0,70.809448)"><path
           d="m -55.133,-11.563 -1.062,1.063 -1.739,-0.441 0.893,3.525 -3.525,-0.893 0.892,3.526 -3.527,-0.891 0.892,3.526 -3.525,-0.893 0.441,1.738 -1.22,1.221"
           style="fill:none;stroke:#000000;stroke-width:0.353553;stroke-linecap:butt;stroke-linejoin:miter;stroke-miterlimit:4;stroke-dasharray:none;stroke-opacity:1"
           id="path26" /></g><g
         id="g28"
         transform="matrix(-1,1,-1,-1,0,70.809448)"><path
           d="m -55.313,-3.309 h 3.024 l 1.848,-3.203 3.748,6.494 3.75,-6.492 3.75,6.492 3.748,-6.494 3.748,6.494 3.75,-6.492 1.849,3.201 h 3.473"
           style="fill:none;stroke:#000000;stroke-width:0.353553;stroke-linecap:butt;stroke-linejoin:miter;stroke-miterlimit:4;stroke-dasharray:none;stroke-opacity:1"
           id="path30" /></g><g
         id="g32"
         transform="matrix(-1,1,-1,-1,0,70.809448)"><path
           d="m -55.451,-3.568 c 0.002,4.24 -3.434,7.675 -7.672,7.675 -4.238,0 -7.676,-3.437 -7.676,-7.675 0,-4.239 3.438,-7.676 7.676,-7.676 4.238,0 7.676,3.437 7.672,7.676 z"
           style="fill:#ffffff;fill-opacity:1;fill-rule:nonzero;stroke:#000000;stroke-width:0.565685;stroke-linecap:butt;stroke-linejoin:miter;stroke-miterlimit:10;stroke-dasharray:none;stroke-opacity:1"
           id="path34" /></g><g
         id="g36"
         transform="matrix(-1,1,-1,-1,0,70.809448)"><path
           d="m -7.16,-3.559 c 0.002,4.241 -3.436,7.678 -7.674,7.678 -4.238,0 -7.676,-3.437 -7.674,-7.678 -0.002,-4.236 3.436,-7.673 7.674,-7.673 4.238,0 7.676,3.437 7.674,7.673 z"
           style="fill:none;stroke:#000000;stroke-width:0.565685;stroke-linecap:butt;stroke-linejoin:miter;stroke-miterlimit:10;stroke-dasharray:none;stroke-opacity:1"
           id="path38" /></g><g
         id="g40"
         transform="matrix(1,0,0,-1,0,70.809448)"><path
           d="M 36.754,18.25 C 51.508,7.68 70.789,5.813 87.301,13.355"
           style="fill:#ffffff;fill-opacity:1;fill-rule:nonzero;stroke:#000000;stroke-width:0.4;stroke-linecap:square;stroke-linejoin:round;stroke-miterlimit:4;stroke-dasharray:none;stroke-opacity:1"
           id="path42" /></g><path
         d="m 36.609,52.431 0.903,-1.254 -1.539,-0.157 -1.539,-0.152 1.273,2.82 0.902,-1.257"
         style="fill:#000000;fill-opacity:1;fill-rule:nonzero;stroke:none"
         id="path44" /><g
         id="g46"
         transform="matrix(0.409566,0.999999,1,-0.409567,0,70.809448)"><path
           d="M -2.899,37.797 -3.656,39.009 -4.33,37.746 -5,36.481 l 2.862,0.102 z"
           style="fill:none;stroke:#000000;stroke-width:0.027808;stroke-linecap:butt;stroke-linejoin:miter;stroke-miterlimit:10;stroke-dasharray:none;stroke-opacity:1"
           id="path48" /></g><path
         d="m 89.004,57.481 0.91,-1.25 -3.078,-0.328 0.629,1.414 0.625,1.414 0.914,-1.25"
         style="fill:#000000;fill-opacity:1;fill-rule:nonzero;stroke:none"
         id="path50" /><g
         id="g52"
         transform="matrix(0.402161,0.999999,1,-0.402162,0,70.809448)"><path
           d="m 19.338,81.227 -0.761,1.216 -1.348,-2.536 1.435,0.052 1.434,0.048 z"
           style="fill:none;stroke:#000000;stroke-width:0.0278799;stroke-linecap:butt;stroke-linejoin:miter;stroke-miterlimit:10;stroke-dasharray:none;stroke-opacity:1"
           id="path54" /></g><g
         id="g56"
         transform="matrix(1,0.0328583,0.0328583,-1,0,70.809448)"><path
           d="m 56.227,6.773 h 8.922 l -0.001,8.926 h -8.922 z"
           style="fill:#ffffff;fill-opacity:1;fill-rule:nonzero;stroke:#ffffff;stroke-width:0.46814;stroke-linecap:square;stroke-linejoin:round;stroke-miterlimit:4;stroke-dasharray:none;stroke-opacity:1"
           id="path58" /></g><path
         d="m 64.137,62.942 c 0,0.266 -0.094,0.657 -0.407,0.657 -0.234,0 -0.468,-0.235 -0.468,-0.454 0,-0.14 0.047,-0.156 0.125,-0.234 0.109,-0.109 0.328,-0.344 0.328,-0.781 0,-0.547 -0.578,-1.938 -1.485,-1.938 -0.5,0 -0.796,0.36 -0.875,0.735 0,0.125 0.313,0.765 0.313,1.093 0,0.125 -0.063,0.235 -0.203,0.235 -0.078,0 -0.156,-0.047 -0.203,-0.11 -0.172,-0.203 -0.25,-0.937 -0.25,-1.156 -0.297,-0.422 -0.672,-0.781 -1.219,-0.781 -0.578,0 -0.781,0.484 -0.781,1 0,0.687 0.265,1.281 0.843,2.031 0.047,0.078 0.047,0.11 0.047,0.156 0,0.079 -0.078,0.157 -0.156,0.157 -0.094,0 -0.172,-0.078 -0.203,-0.141 -0.5,-0.703 -0.859,-1.687 -0.859,-2.547 0,-0.703 0.25,-1.328 1.031,-1.328 0.562,0 1.078,0.484 1.344,0.891 0.125,-0.36 0.328,-0.891 1.046,-0.891 0.704,0 1.157,0.563 1.5,1.266 0.157,0.359 0.266,0.734 0.36,1.109 0.094,0.391 0.172,0.766 0.172,1.031 z"
         style="fill:#000000;fill-opacity:1;fill-rule:nonzero;stroke:none"
         id="path60" /></g></g></svg>
