<?xml version="1.0" encoding="UTF-8" standalone="no"?>
<!-- Created with Inkscape (http://www.inkscape.org/) -->

<svg
   version="1.1"
   id="svg824"
   xml:space="preserve"
   width="700"
   height="295.38608"
   viewBox="0 0 700 295.38608"
   sodipodi:docname="loprop_T0.svg"
   inkscape:version="1.1.1 (c3084ef, 2021-09-22)"
   xmlns:inkscape="http://www.inkscape.org/namespaces/inkscape"
   xmlns:sodipodi="http://sodipodi.sourceforge.net/DTD/sodipodi-0.dtd"
   xmlns="http://www.w3.org/2000/svg"
   xmlns:svg="http://www.w3.org/2000/svg"><defs
     id="defs828"><clipPath
       clipPathUnits="userSpaceOnUse"
       id="clipPath840"><path
         d="M 36,36 H 559 V 384 H 36 Z"
         id="path838" /></clipPath></defs><sodipodi:namedview
     id="namedview826"
     pagecolor="#ffffff"
     bordercolor="#666666"
     borderopacity="1.0"
     inkscape:pageshadow="2"
     inkscape:pageopacity="0.0"
     inkscape:pagecheckerboard="0"
     showgrid="false"
     inkscape:zoom="0.68697481"
     inkscape:cx="370.46482"
     inkscape:cy="240.91131"
     inkscape:window-width="1312"
     inkscape:window-height="847"
     inkscape:window-x="0"
     inkscape:window-y="25"
     inkscape:window-maximized="0"
     inkscape:current-layer="g830"
     fit-margin-top="0"
     fit-margin-left="0"
     fit-margin-right="0"
     fit-margin-bottom="0" /><g
     id="g830"
     inkscape:groupmode="layer"
     inkscape:label="loprop_T0"
     transform="matrix(1.3333333,0,0,-1.3333333,-26.666666,519.99999)"><g
       id="g832" /><path
       d="M 20,168.46043 H 545 V 390 H 20 Z"
       style="fill:#ffffff;fill-opacity:1;fill-rule:nonzero;stroke:none;stroke-width:0.796733"
       id="path842" /><path
       d="m 219,181 c 0,0 0,159.05 0,159.05 0,0 -154.05002,0 -154.05002,0 0,0 0,-159.05 0,-159.05 0,0 154.05002,0 154.05002,0 z"
       style="fill:#d5d5d5;fill-opacity:1;fill-rule:nonzero;stroke:none"
       id="path844" /><path
       d="m 516,181 c 0,0 0,159.05 0,159.05 0,0 -154.05,0 -154.05,0 0,0 0,-159.05 0,-159.05 0,0 154.05,0 154.05,0 z"
       style="fill:#d5d5d5;fill-opacity:1;fill-rule:nonzero;stroke:none"
       id="path846" /><g
       id="g848"
       transform="matrix(0.05,0,0,-0.05,36,384)"><path
         d="M 3677.92,1740 H 600"
         style="fill:none;stroke:#000000;stroke-width:20;stroke-linecap:round;stroke-linejoin:miter;stroke-miterlimit:10;stroke-dasharray:none;stroke-opacity:1"
         id="path850" /></g><g
       id="g852"
       transform="matrix(0.05,0,0,-0.05,36,384)"><path
         d="M 3655.811,2260 H 600"
         style="fill:none;stroke:#000000;stroke-width:20;stroke-linecap:round;stroke-linejoin:miter;stroke-miterlimit:10;stroke-dasharray:none;stroke-opacity:1"
         id="path854" /></g><g
       id="g856"
       transform="matrix(0.05,0,0,-0.05,36,384)"><path
         d="m 1446.667,4023.659 -34.6,-3152.5271"
         style="fill:none;stroke:#000000;stroke-width:20;stroke-linecap:round;stroke-linejoin:miter;stroke-miterlimit:10;stroke-dasharray:none;stroke-opacity:1"
         id="path858" /></g><g
       id="g860"
       transform="matrix(0.05,0,0,-0.05,36,384)"><path
         d="M 2006.257,4026.041 1972.067,911.1316"
         style="fill:none;stroke:#000000;stroke-width:20;stroke-linecap:round;stroke-linejoin:miter;stroke-miterlimit:10;stroke-dasharray:none;stroke-opacity:1"
         id="path862" /></g><g
       id="g864"
       transform="matrix(1,0,0,-1,73.74814,361.7481)"><text
         transform="translate(0,13.5)"
         style="font-variant:normal;font-weight:normal;font-size:18px;font-family:Times;-inkscape-font-specification:Times-Roman;writing-mode:lr-tb;fill:#000000;fill-opacity:1;fill-rule:nonzero;stroke:none"
         id="text868"><tspan
           x="0 10.0116 16.0056"
           y="0"
           sodipodi:role="line"
           id="tspan866">F-s</tspan></text></g><g
       id="g870"
       transform="matrix(1,0,0,-1,31,326)"><text
         transform="translate(0,13.5)"
         style="font-variant:normal;font-weight:normal;font-size:18px;font-family:Times;-inkscape-font-specification:Times-Roman;writing-mode:lr-tb;fill:#000000;fill-opacity:1;fill-rule:nonzero;stroke:none"
         id="text874"><tspan
           x="0 10.0116 16.0056"
           y="0"
           sodipodi:role="line"
           id="tspan872">F-s</tspan></text></g><g
       id="g876"
       transform="matrix(1,0,0,-1,109.6642,362.8321)"><text
         transform="translate(0,13.5)"
         style="font-variant:normal;font-weight:normal;font-size:18px;font-family:Times;-inkscape-font-specification:Times-Roman;writing-mode:lr-tb;fill:#000000;fill-opacity:1;fill-rule:nonzero;stroke:none"
         id="text880"><tspan
           x="0 12.9996 18.993601"
           y="0"
           sodipodi:role="line"
           id="tspan878">H-s</tspan></text></g><g
       id="g882"
       transform="matrix(1,0,0,-1,30,293)"><text
         transform="translate(0,13.5)"
         style="font-variant:normal;font-weight:normal;font-size:18px;font-family:Times;-inkscape-font-specification:Times-Roman;writing-mode:lr-tb;fill:#000000;fill-opacity:1;fill-rule:nonzero;stroke:none"
         id="text886"><tspan
           x="0 12.9996 18.993601"
           y="0"
           sodipodi:role="line"
           id="tspan884">H-s</tspan></text></g><g
       id="g888"
       transform="matrix(1,0,0,-1,32,242)"><text
         transform="translate(0,13.5)"
         style="font-variant:normal;font-weight:normal;font-size:18px;font-family:Times;-inkscape-font-specification:Times-Roman;writing-mode:lr-tb;fill:#000000;fill-opacity:1;fill-rule:nonzero;stroke:none"
         id="text892"><tspan
           x="0 10.0116 16.0056"
           y="0"
           sodipodi:role="line"
           id="tspan890">F-p</tspan></text></g><g
       id="g894"
       transform="matrix(1,0,0,-1,157.0606,365.4979)"><text
         transform="translate(0,14.08003)"
         style="font-variant:normal;font-weight:normal;font-size:16px;font-family:Times;-inkscape-font-specification:Times-Roman;writing-mode:lr-tb;fill:#000000;fill-opacity:1;fill-rule:nonzero;stroke:none"
         id="text898"><tspan
           x="0 8.8992004 14.2272"
           y="0"
           sodipodi:role="line"
           id="tspan896">F-p</tspan></text></g><g
       id="g900"
       transform="matrix(1,0,0,-1,146.5606,362.4979)" /><g
       id="g902"
       transform="matrix(1,0,0,-1,146.5606,362.4979)" /><g
       id="g904"
       transform="matrix(1,0,0,-1,146.5606,362.4979)" /><g
       id="g906"
       transform="matrix(1,0,0,-1,146.5606,362.4979)" /><g
       id="g908"
       transform="matrix(1,0,0,-1,146.5606,362.4979)" /><g
       id="g910"
       transform="matrix(0.05,0,0,-0.05,36,384)"><path
         d="m 3659.793,4018.539 c 0,0 0,-3139.5394 0,-3139.5394 0,0 -3082.1883,0 -3082.1883,0 0,0 0,3139.5394 0,3139.5394 0,0 3082.1883,0 3082.1883,0 z"
         style="fill:none;stroke:#000000;stroke-width:20;stroke-linecap:butt;stroke-linejoin:miter;stroke-miterlimit:10;stroke-dasharray:none;stroke-opacity:1"
         id="path912" /></g><g
       id="g914"
       transform="matrix(0.05,0,0,-0.05,36,384)"><path
         d="m 3840,2480 c 0,0 0,-60 0,-60 0,0 1046.162,0 1046.162,0 0,0 0,-60 0,-60 0,0 120,120 120,120 0,0 -120,120 -120,120 0,0 0,-60 0,-60 0,0 -1046.162,0 -1046.162,0 0,0 0,-60 0,-60 z"
         style="fill:none;stroke:#000000;stroke-width:20;stroke-linecap:round;stroke-linejoin:miter;stroke-miterlimit:10;stroke-dasharray:none;stroke-opacity:1"
         id="path916" /></g><g
       id="g918"
       transform="matrix(1,0,0,-1,246.8325,284.9849)"><text
         transform="translate(0,13.5)"
         style="font-variant:normal;font-weight:normal;font-size:18px;font-family:Times;-inkscape-font-specification:Times-Roman;writing-mode:lr-tb;fill:#000000;fill-opacity:1;fill-rule:nonzero;stroke:none"
         id="text922"><tspan
           x="0"
           y="0"
           id="tspan920">T</tspan></text></g><g
       id="g924"
       transform="matrix(1,0,0,-1,246.8325,284.9849)"><text
         transform="translate(10.99512,18)"
         style="font-variant:normal;font-weight:normal;font-size:13.5px;font-family:Times;-inkscape-font-specification:Times-Roman;writing-mode:lr-tb;fill:#000000;fill-opacity:1;fill-rule:nonzero;stroke:none"
         id="text928"><tspan
           x="0"
           y="0"
           id="tspan926">0</tspan></text></g><g
       id="g930"
       transform="matrix(0.05,0,0,-0.05,36,384)"><path
         d="m 9599.793,4018.539 c 0,0 0,-3139.5394 0,-3139.5394 0,0 -3082.188,0 -3082.188,0 0,0 0,3139.5394 0,3139.5394 0,0 3082.188,0 3082.188,0 z"
         style="fill:none;stroke:#000000;stroke-width:20;stroke-linecap:butt;stroke-linejoin:miter;stroke-miterlimit:10;stroke-dasharray:none;stroke-opacity:1"
         id="path932" /></g><g
       id="g934"
       transform="matrix(0.05,0,0,-0.05,36,384)"><path
         d="M 9615.811,3480 H 6560"
         style="fill:none;stroke:#000000;stroke-width:20;stroke-linecap:round;stroke-linejoin:miter;stroke-miterlimit:10;stroke-dasharray:none;stroke-opacity:1"
         id="path936" /></g><g
       id="g938"
       transform="matrix(0.05,0,0,-0.05,36,384)"><path
         d="M 9060.037,4030.178 9055.894,882.0956"
         style="fill:none;stroke:#000000;stroke-width:20;stroke-linecap:round;stroke-linejoin:miter;stroke-miterlimit:10;stroke-dasharray:none;stroke-opacity:1"
         id="path940" /></g><g
       id="g958"
       transform="matrix(1,0,0,-1,331,202)"><text
         transform="translate(0,13.5)"
         style="font-variant:normal;font-weight:normal;font-size:18px;font-family:Times;-inkscape-font-specification:Times-Roman;writing-mode:lr-tb;fill:#000000;fill-opacity:1;fill-rule:nonzero;stroke:none"
         id="text962"><tspan
           x="0 12.9996 18.993601"
           y="0"
           sodipodi:role="line"
           id="tspan960">H-s</tspan></text></g><g
       id="g964"
       transform="matrix(0.05,0,0,-0.05,36,384)"><path
         d="M 6500,1700 H 9620"
         style="fill:none;stroke:#000000;stroke-width:20;stroke-linecap:butt;stroke-linejoin:miter;stroke-miterlimit:10;stroke-dasharray:60, 60;stroke-dashoffset:0;stroke-opacity:1"
         id="path966" /></g><g
       id="g968"
       transform="matrix(0.05,0,0,-0.05,36,384)"><path
         d="m 7363.322,900.0034 -6.645,3119.9926"
         style="fill:none;stroke:#000000;stroke-width:20;stroke-linecap:butt;stroke-linejoin:miter;stroke-miterlimit:10;stroke-dasharray:60, 60;stroke-dashoffset:0;stroke-opacity:1"
         id="path970" /></g><g
       id="g972"
       transform="matrix(1,0,0,-1,330,265)"><text
         transform="translate(0,13.5)"
         style="font-variant:normal;font-weight:normal;font-size:18px;font-family:Times;-inkscape-font-specification:Times-Roman;writing-mode:lr-tb;fill:#000000;fill-opacity:1;fill-rule:nonzero;stroke:none"
         id="text976"><tspan
           x="0 10.0116 16.0056"
           y="0"
           sodipodi:role="line"
           id="tspan974">F-p</tspan></text></g><g
       id="g978"
       transform="matrix(1,0,0,-1,330,324)"><text
         transform="translate(0,13.5)"
         style="font-variant:normal;font-weight:normal;font-size:18px;font-family:Times;-inkscape-font-specification:Times-Roman;writing-mode:lr-tb;fill:#000000;fill-opacity:1;fill-rule:nonzero;stroke:none"
         id="text982"><tspan
           x="0 10.0116 16.0056"
           y="0"
           sodipodi:role="line"
           id="tspan980">F-s</tspan></text></g><g
       id="g984"
       transform="matrix(0.05,0,0,-0.05,36,384)"><path
         d="m 5856.952,950.0972 c -87.305,0.6677 -157.628,72.0748 -156.96,159.3798 0,0 7.257,949.022 7.257,949.022 0.667,87.306 -69.656,158.713 -156.961,159.38 87.305,-0.667 158.712,69.656 159.38,156.961 0,0 7.257,949.022 7.257,949.022 0.668,87.306 72.075,157.629 159.38,156.961"
         style="fill:none;stroke:#000000;stroke-width:20;stroke-linecap:butt;stroke-linejoin:miter;stroke-miterlimit:10;stroke-dasharray:none;stroke-opacity:1"
         id="path986" /></g><g
       id="g988"
       transform="matrix(1,0,0,-1,297,282)"><text
         transform="translate(0,13.5)"
         style="font-variant:normal;font-weight:normal;font-size:18px;font-family:Times;-inkscape-font-specification:Times-Roman;writing-mode:lr-tb;fill:#000000;fill-opacity:1;fill-rule:nonzero;stroke:none"
         id="text992"><tspan
           x="0"
           y="0"
           id="tspan990">F</tspan></text></g><g
       id="g994"
       transform="matrix(1,0,0,-1,367.6153,354.3916)"><text
         transform="translate(0,9)"
         style="font-variant:normal;font-weight:normal;font-size:12px;font-family:Times;-inkscape-font-specification:Times-Roman;writing-mode:lr-tb;fill:#000000;fill-opacity:1;fill-rule:nonzero;stroke:none"
         id="text998"><tspan
           x="0 6 10.6704 16.670401"
           y="0"
           sodipodi:role="line"
           id="tspan996">1s2s</tspan></text></g><g
       id="g1000"
       transform="matrix(1,0,0,-1,393.8023,354.4777)"><text
         transform="translate(0,9)"
         style="font-variant:normal;font-weight:normal;font-size:12px;font-family:Times;-inkscape-font-specification:Times-Roman;writing-mode:lr-tb;fill:#000000;fill-opacity:1;fill-rule:nonzero;stroke:none"
         id="text1004"><tspan
           x="0 6"
           y="0"
           sodipodi:role="line"
           id="tspan1002">3s</tspan></text></g><g
       id="g1006"
       transform="matrix(1,0,0,-1,422.6732,354.6497)"><text
         transform="translate(0,9)"
         style="font-variant:normal;font-weight:normal;font-size:12px;font-family:Times;-inkscape-font-specification:Times-Roman;writing-mode:lr-tb;fill:#000000;fill-opacity:1;fill-rule:nonzero;stroke:none"
         id="text1010"><tspan
           x="0 6"
           y="0"
           sodipodi:role="line"
           id="tspan1008">2p</tspan></text></g><g
       id="g1012"
       transform="matrix(1,0,0,-1,459.7246,354.6497)"><text
         transform="translate(0,9)"
         style="font-variant:normal;font-weight:normal;font-size:12px;font-family:Times;-inkscape-font-specification:Times-Roman;writing-mode:lr-tb;fill:#000000;fill-opacity:1;fill-rule:nonzero;stroke:none"
         id="text1016"><tspan
           x="0 6"
           y="0"
           sodipodi:role="line"
           id="tspan1014">3p</tspan></text></g><g
       id="g1018"
       transform="matrix(1,0,0,-1,406.3491,381.268)"><text
         transform="translate(0,13.5)"
         style="font-variant:normal;font-weight:normal;font-size:18px;font-family:Times;-inkscape-font-specification:Times-Roman;writing-mode:lr-tb;fill:#000000;fill-opacity:1;fill-rule:nonzero;stroke:none"
         id="text1022"><tspan
           x="0"
           y="0"
           id="tspan1020">F</tspan></text></g><g
       id="g1024"
       transform="matrix(0.05,0,0,-0.05,36,384)"><path
         d="m 8827.4,627.7016 c 0,-78.2846 -63.543,-141.8276 -141.827,-141.8276 0,0 -850.966,0 -850.966,0 -78.285,0 -141.828,-63.543 -141.828,-141.8276 0,78.2846 -63.543,141.8276 -141.827,141.8276 0,0 -850.966,0 -850.966,0 -78.284,0 -141.827,63.543 -141.827,141.8276"
         style="fill:none;stroke:#000000;stroke-width:20;stroke-linecap:butt;stroke-linejoin:miter;stroke-miterlimit:10;stroke-dasharray:none;stroke-opacity:1"
         id="path1026" /></g><g
       id="g1028"
       transform="matrix(1,0,0,-1,490.472,354.516)"><text
         transform="translate(0,9)"
         style="font-variant:normal;font-weight:normal;font-size:12px;font-family:Times;-inkscape-font-specification:Times-Roman;writing-mode:lr-tb;fill:#000000;fill-opacity:1;fill-rule:nonzero;stroke:none"
         id="text1032"><tspan
           x="0 6"
           y="0"
           sodipodi:role="line"
           id="tspan1030">1s</tspan></text></g><g
       id="g1034"
       transform="matrix(1,0,0,-1,507.0269,354.516)"><text
         transform="translate(0,9)"
         style="font-variant:normal;font-weight:normal;font-size:12px;font-family:Times;-inkscape-font-specification:Times-Roman;writing-mode:lr-tb;fill:#000000;fill-opacity:1;fill-rule:nonzero;stroke:none"
         id="text1038"><tspan
           x="0 6"
           y="0"
           sodipodi:role="line"
           id="tspan1036">2s</tspan></text></g><g
       id="g1040"
       transform="matrix(0.05,0,0,-0.05,36,384)"><path
         d="m 9634.148,537.3648 c 0,-19.5283 -15.851,-35.3793 -35.379,-35.3793 0,0 -212.276,0 -212.276,0 -19.528,0 -35.379,-15.851 -35.379,-35.3793 0,19.5283 -15.851,35.3793 -35.379,35.3793 0,0 -212.276,0 -212.276,0 -19.528,0 -35.379,15.851 -35.379,35.3793"
         style="fill:none;stroke:#000000;stroke-width:20;stroke-linecap:butt;stroke-linejoin:miter;stroke-miterlimit:10;stroke-dasharray:none;stroke-opacity:1"
         id="path1042" /></g><g
       id="g1044"
       transform="matrix(1,0,0,-1,496.1736,379.6659)"><text
         transform="translate(0,13.5)"
         style="font-variant:normal;font-weight:normal;font-size:18px;font-family:Times;-inkscape-font-specification:Times-Roman;writing-mode:lr-tb;fill:#000000;fill-opacity:1;fill-rule:nonzero;stroke:none"
         id="text1048"><tspan
           x="0"
           y="0"
           id="tspan1046">H</tspan></text></g></g></svg>
