<?xml version="1.0" encoding="UTF-8" standalone="no"?>
<!-- Created with Inkscape (http://www.inkscape.org/) -->

<svg
   width="163.92018mm"
   height="71.247925mm"
   viewBox="0 0 163.92018 71.247925"
   version="1.1"
   id="svg3525"
   inkscape:version="1.1.1 (c3084ef, 2021-09-22)"
   sodipodi:docname="loprop_T4.svg"
   xmlns:inkscape="http://www.inkscape.org/namespaces/inkscape"
   xmlns:sodipodi="http://sodipodi.sourceforge.net/DTD/sodipodi-0.dtd"
   xmlns="http://www.w3.org/2000/svg"
   xmlns:svg="http://www.w3.org/2000/svg">
  <sodipodi:namedview
     id="namedview3527"
     pagecolor="#ffffff"
     bordercolor="#666666"
     borderopacity="1.0"
     inkscape:pageshadow="2"
     inkscape:pageopacity="0.0"
     inkscape:pagecheckerboard="0"
     inkscape:document-units="mm"
     showgrid="false"
     fit-margin-top="0"
     fit-margin-left="0"
     fit-margin-right="0"
     fit-margin-bottom="0"
     inkscape:zoom="0.77771465"
     inkscape:cx="410.17615"
     inkscape:cy="248.80591"
     inkscape:window-width="1705"
     inkscape:window-height="751"
     inkscape:window-x="406"
     inkscape:window-y="476"
     inkscape:window-maximized="0"
     inkscape:current-layer="layer1" />
  <defs
     id="defs3522" />
  <g
     inkscape:label="Layer 1"
     inkscape:groupmode="layer"
     id="layer1"
     transform="translate(7.6397107,-75.113151)">
    <g
       id="g1682"
       transform="matrix(0.01763889,0,0,0.01763889,-397.74104,73.588156)">
      <path
         d="m 26248.71,2433.126 c 0,0 0,-60 0,-60 0,0 1160,0 1160,0 0,0 0,-60 0,-60 0,0 120,120 120,120 0,0 -120,120 -120,120 0,0 0,-60 0,-60 0,0 -1160,0 -1160,0 0,0 0,-60 0,-60 z"
         style="fill:none;stroke:#000000;stroke-width:20;stroke-linecap:round;stroke-linejoin:miter;stroke-miterlimit:10;stroke-dasharray:none;stroke-opacity:1"
         id="path1684" />
    </g>
    <g
       id="g1686"
       transform="matrix(0.35277777,0,0,0.35277777,74.193759,108.04446)">
      <text
         transform="translate(0,13.5)"
         style="font-variant:normal;font-weight:normal;font-size:18px;font-family:Times;-inkscape-font-specification:Times-Roman;writing-mode:lr-tb;fill:#000000;fill-opacity:1;fill-rule:nonzero;stroke:none"
         id="text1690"><tspan
           x="0"
           y="0"
           id="tspan1688">T</tspan></text>
    </g>
    <g
       id="g1692"
       transform="matrix(0.35277777,0,0,0.35277777,74.193759,108.04446)">
      <text
         transform="translate(10.99512,18)"
         style="font-variant:normal;font-weight:normal;font-size:13.5px;font-family:Times;-inkscape-font-specification:Times-Roman;writing-mode:lr-tb;fill:#000000;fill-opacity:1;fill-rule:nonzero;stroke:none"
         id="text1696"><tspan
           x="0"
           y="0"
           id="tspan1694">4</tspan></text>
    </g>
    <g
       id="g4284"
       transform="translate(-0.52916667,1.0583333)">
      <g
         id="g1698"
         transform="matrix(0.01763889,0,0,0.01763889,-394.56602,73.588156)">
        <path
           d="m 31199.8,3996.859 c 0,0 0,-3139.5394 0,-3139.5394 0,0 -3082.18,0 -3082.18,0 0,0 0,3139.5394 0,3139.5394 0,0 3082.18,0 3082.18,0 z"
           style="fill:none;stroke:#000000;stroke-width:20;stroke-linecap:butt;stroke-linejoin:miter;stroke-miterlimit:10;stroke-dasharray:none;stroke-opacity:1"
           id="path1700" />
      </g>
      <g
         id="g1702"
         transform="matrix(0.01763889,0,0,0.01763889,-394.56602,73.588156)">
        <path
           d="M 31178.87,3458.32 H 28129.4"
           style="fill:none;stroke:#000000;stroke-width:20;stroke-linecap:round;stroke-linejoin:miter;stroke-miterlimit:10;stroke-dasharray:none;stroke-opacity:1"
           id="path1704" />
      </g>
      <g
         id="g1706"
         transform="matrix(0.01763889,0,0,0.01763889,-394.56602,73.588156)">
        <path
           d="m 30660.02,3983.153 -4.11,-3122.7374"
           style="fill:none;stroke:#000000;stroke-width:20;stroke-linecap:round;stroke-linejoin:miter;stroke-miterlimit:10;stroke-dasharray:none;stroke-opacity:1"
           id="path1708" />
      </g>
      <g
         id="g1710"
         transform="matrix(0.35277777,0,0,0.35277777,90.732335,137.4113)">
        <text
           transform="translate(0,13.5)"
           style="font-variant:normal;font-weight:normal;font-size:18px;font-family:Times;-inkscape-font-specification:Times-Roman;writing-mode:lr-tb;fill:#000000;fill-opacity:1;fill-rule:nonzero;stroke:none"
           id="text1714"><tspan
             x="0 12.9996 18.993601"
             y="0"
             sodipodi:role="line"
             id="tspan1712">H-s</tspan></text>
      </g>
      <g
         id="g1716"
         transform="matrix(0.01763889,0,0,0.01763889,-394.56602,73.588156)">
        <path
           d="m 28109.09,1669.24 h 3120"
           style="fill:none;stroke:#000000;stroke-width:20;stroke-linecap:butt;stroke-linejoin:miter;stroke-miterlimit:10;stroke-dasharray:60, 60;stroke-dashoffset:0;stroke-opacity:1"
           id="path1718" />
      </g>
      <g
         id="g1720"
         transform="matrix(0.01763889,0,0,0.01763889,-394.56602,73.588156)">
        <path
           d="m 28963.33,878.3231 -6.64,3119.9919"
           style="fill:none;stroke:#000000;stroke-width:20;stroke-linecap:butt;stroke-linejoin:miter;stroke-miterlimit:10;stroke-dasharray:60, 60;stroke-dashoffset:0;stroke-opacity:1"
           id="path1722" />
      </g>
      <g
         id="g1724"
         transform="matrix(0.35277777,0,0,0.35277777,91.209184,115.1863)">
        <text
           transform="translate(0,13.5)"
           style="font-variant:normal;font-weight:normal;font-size:18px;font-family:Times;-inkscape-font-specification:Times-Roman;writing-mode:lr-tb;fill:#000000;fill-opacity:1;fill-rule:nonzero;stroke:none"
           id="text1728"><tspan
             x="0 10.0116 16.0056"
             y="0"
             sodipodi:role="line"
             id="tspan1726">F-p</tspan></text>
      </g>
      <g
         id="g1730"
         transform="matrix(0.35277777,0,0,0.35277777,91.209184,94.372411)">
        <text
           transform="translate(0,13.5)"
           style="font-variant:normal;font-weight:normal;font-size:18px;font-family:Times;-inkscape-font-specification:Times-Roman;writing-mode:lr-tb;fill:#000000;fill-opacity:1;fill-rule:nonzero;stroke:none"
           id="text1734"><tspan
             x="0 10.0116 16.0056"
             y="0"
             sodipodi:role="line"
             id="tspan1732">F-s</tspan></text>
      </g>
      <g
         id="g1736"
         transform="matrix(0.01763889,0,0,0.01763889,-394.56602,73.588156)">
        <path
           d="m 28723.24,918.3234 -6.55,3076.3126"
           style="fill:none;stroke:#000000;stroke-width:20;stroke-linecap:butt;stroke-linejoin:miter;stroke-miterlimit:10;stroke-dasharray:60, 60;stroke-dashoffset:0;stroke-opacity:1"
           id="path1738" />
      </g>
      <g
         id="g1740"
         transform="matrix(0.01763889,0,0,0.01763889,-394.56602,73.588156)">
        <path
           d="m 31191.88,1425.56 -3091.82,25.289"
           style="fill:none;stroke:#000000;stroke-width:20;stroke-linecap:butt;stroke-linejoin:miter;stroke-miterlimit:10;stroke-dasharray:60, 60;stroke-dashoffset:0;stroke-opacity:1"
           id="path1742" />
      </g>
      <g
         id="g1744"
         transform="matrix(0.01763889,0,0,0.01763889,-394.56602,73.588156)">
        <path
           d="m 28140.01,2558.319 h 3048.24"
           style="fill:none;stroke:#000000;stroke-width:20;stroke-linecap:butt;stroke-linejoin:miter;stroke-miterlimit:10;stroke-dasharray:60, 60;stroke-dashoffset:0;stroke-opacity:1"
           id="path1746" />
      </g>
      <g
         id="g1748"
         transform="matrix(0.01763889,0,0,0.01763889,-394.56602,73.588156)">
        <path
           d="m 28100.01,3718.32 h 3120"
           style="fill:none;stroke:#000000;stroke-width:20;stroke-linecap:butt;stroke-linejoin:miter;stroke-miterlimit:10;stroke-dasharray:60, 60;stroke-dashoffset:0;stroke-opacity:1"
           id="path1750" />
      </g>
      <g
         id="g1752"
         transform="matrix(0.01763889,0,0,0.01763889,-394.56602,73.588156)">
        <path
           d="m 30921.67,909.2679 18.53,3119.9451"
           style="fill:none;stroke:#000000;stroke-width:20;stroke-linecap:butt;stroke-linejoin:miter;stroke-miterlimit:10;stroke-dasharray:60, 60;stroke-dashoffset:0;stroke-opacity:1"
           id="path1754" />
      </g>
      <g
         id="g1756"
         transform="matrix(0.35277777,0,0,0.35277777,102.92359,84.033342)">
        <text
           transform="translate(0,9)"
           style="font-variant:normal;font-weight:normal;font-size:12px;font-family:Times;-inkscape-font-specification:Times-Roman;writing-mode:lr-tb;fill:#000000;fill-opacity:1;fill-rule:nonzero;stroke:none"
           id="text1760"><tspan
             x="0 6 10.6704 16.670401"
             y="0"
             sodipodi:role="line"
             id="tspan1758">1s2s</tspan></text>
      </g>
      <g
         id="g1762"
         transform="matrix(0.35277777,0,0,0.35277777,112.16178,84.002967)">
        <text
           transform="translate(0,9)"
           style="font-variant:normal;font-weight:normal;font-size:12px;font-family:Times;-inkscape-font-specification:Times-Roman;writing-mode:lr-tb;fill:#000000;fill-opacity:1;fill-rule:nonzero;stroke:none"
           id="text1766"><tspan
             x="0 6"
             y="0"
             sodipodi:role="line"
             id="tspan1764">3s</tspan></text>
      </g>
      <g
         id="g1768"
         transform="matrix(0.35277777,0,0,0.35277777,122.3468,83.94229)">
        <text
           transform="translate(0,9)"
           style="font-variant:normal;font-weight:normal;font-size:12px;font-family:Times;-inkscape-font-specification:Times-Roman;writing-mode:lr-tb;fill:#000000;fill-opacity:1;fill-rule:nonzero;stroke:none"
           id="text1772"><tspan
             x="0 6"
             y="0"
             sodipodi:role="line"
             id="tspan1770">2p</tspan></text>
      </g>
      <g
         id="g1774"
         transform="matrix(0.01763889,0,0,0.01763889,-394.56602,73.588156)">
        <path
           d="m 29829.99,878.3231 -6.67,3132.4729"
           style="fill:none;stroke:#000000;stroke-width:20;stroke-linecap:butt;stroke-linejoin:miter;stroke-miterlimit:10;stroke-dasharray:60, 60;stroke-dashoffset:0;stroke-opacity:1"
           id="path1776" />
      </g>
      <g
         id="g1778"
         transform="matrix(0.35277777,0,0,0.35277777,135.41771,83.94229)">
        <text
           transform="translate(0,9)"
           style="font-variant:normal;font-weight:normal;font-size:12px;font-family:Times;-inkscape-font-specification:Times-Roman;writing-mode:lr-tb;fill:#000000;fill-opacity:1;fill-rule:nonzero;stroke:none"
           id="text1782"><tspan
             x="0 6"
             y="0"
             sodipodi:role="line"
             id="tspan1780">3p</tspan></text>
      </g>
      <g
         id="g1784"
         transform="matrix(0.35277777,0,0,0.35277777,116.58802,74.551945)">
        <text
           transform="translate(0,13.5)"
           style="font-variant:normal;font-weight:normal;font-size:18px;font-family:Times;-inkscape-font-specification:Times-Roman;writing-mode:lr-tb;fill:#000000;fill-opacity:1;fill-rule:nonzero;stroke:none"
           id="text1788"><tspan
             x="0"
             y="0"
             id="tspan1786">F</tspan></text>
      </g>
      <g
         id="g1790"
         transform="matrix(0.01763889,0,0,0.01763889,-394.56602,73.588156)">
        <path
           d="m 30399.23,627.7016 c 0,-78.2846 -63.54,-141.8276 -141.83,-141.8276 0,0 -850.96,0 -850.96,0 -78.29,0 -141.83,-63.543 -141.83,-141.8276 0,78.2846 -63.54,141.8276 -141.83,141.8276 0,0 -850.96,0 -850.96,0 -78.29,0 -141.83,63.543 -141.83,141.8276"
           style="fill:none;stroke:#000000;stroke-width:20;stroke-linecap:butt;stroke-linejoin:miter;stroke-miterlimit:10;stroke-dasharray:none;stroke-opacity:1"
           id="path1792" />
      </g>
      <g
         id="g1794"
         transform="matrix(0.35277777,0,0,0.35277777,146.26471,83.989456)">
        <text
           transform="translate(0,9)"
           style="font-variant:normal;font-weight:normal;font-size:12px;font-family:Times;-inkscape-font-specification:Times-Roman;writing-mode:lr-tb;fill:#000000;fill-opacity:1;fill-rule:nonzero;stroke:none"
           id="text1798"><tspan
             x="0 6"
             y="0"
             sodipodi:role="line"
             id="tspan1796">1s</tspan></text>
      </g>
      <g
         id="g1800"
         transform="matrix(0.35277777,0,0,0.35277777,152.10491,83.989456)">
        <text
           transform="translate(0,9)"
           style="font-variant:normal;font-weight:normal;font-size:12px;font-family:Times;-inkscape-font-specification:Times-Roman;writing-mode:lr-tb;fill:#000000;fill-opacity:1;fill-rule:nonzero;stroke:none"
           id="text1804"><tspan
             x="0 6"
             y="0"
             sodipodi:role="line"
             id="tspan1802">2s</tspan></text>
      </g>
      <g
         id="g1806"
         transform="matrix(0.01763889,0,0,0.01763889,-394.56602,73.588156)">
        <path
           d="m 31205.98,537.3648 c 0,-19.5283 -15.85,-35.3793 -35.38,-35.3793 0,0 -212.28,0 -212.28,0 -19.52,0 -35.38,-15.851 -35.38,-35.3793 0,19.5283 -15.85,35.3793 -35.38,35.3793 0,0 -212.27,0 -212.27,0 -19.53,0 -35.38,15.851 -35.38,35.3793"
           style="fill:none;stroke:#000000;stroke-width:20;stroke-linecap:butt;stroke-linejoin:miter;stroke-miterlimit:10;stroke-dasharray:none;stroke-opacity:1"
           id="path1808" />
      </g>
      <g
         id="g1810"
         transform="matrix(0.35277777,0,0,0.35277777,148.2761,75.11713)">
        <text
           transform="translate(0,13.5)"
           style="font-variant:normal;font-weight:normal;font-size:18px;font-family:Times;-inkscape-font-specification:Times-Roman;writing-mode:lr-tb;fill:#000000;fill-opacity:1;fill-rule:nonzero;stroke:none"
           id="text1814"><tspan
             x="0"
             y="0"
             id="tspan1812">H</tspan></text>
      </g>
    </g>
    <g
       id="g3286"
       transform="translate(-111.48163,16.140942)">
      <path
         d="m 145.48778,87.898608 c 0,0 14.76904,-0.139418 14.76904,-0.139418 0,0 -0.097,-3.931637 -0.097,-3.931637 0,0 -14.76904,0.139417 -14.76904,0.139417 0,0 0.097,3.931638 0.097,3.931638 z"
         style="fill:#d5d5d5;fill-opacity:1;fill-rule:nonzero;stroke:none;stroke-width:0.352778"
         id="path1534" />
      <path
         d="m 125.7015,119.42329 c 0,0 4.37878,-0.18736 4.37878,-0.18736 0,0 -0.0389,-15.22762 -0.0389,-15.22762 0,0 -4.37881,0.1874 -4.37881,0.1874 0,0 0.039,15.22758 0.039,15.22758 z"
         style="fill:#d5d5d5;fill-opacity:1;fill-rule:nonzero;stroke:none;stroke-width:0.352778"
         id="path1536" />
      <path
         d="m 145.51826,124.5131 c 0,0 0.23756,4.37451 0.23756,4.37451 0,0 13.42774,-0.32406 13.42774,-0.32406 0,0 -0.23756,-4.37455 -0.23756,-4.37455 0,0 -13.42774,0.3241 -13.42774,0.3241 z"
         style="fill:#d5d5d5;fill-opacity:1;fill-rule:nonzero;stroke:none;stroke-width:0.352778"
         id="path1538" />
      <path
         d="m 144.907,119.42329 c 0,0 15.20419,-0.18736 15.20419,-0.18736 0,0 -0.13532,-15.22762 -0.13532,-15.22762 0,0 -15.20419,0.1874 -15.20419,0.1874 0,0 0.13532,15.22758 0.13532,15.22758 z"
         style="fill:#d5d5d5;fill-opacity:1;fill-rule:nonzero;stroke:none;stroke-width:0.352778"
         id="path1540" />
      <path
         d="m 164.92742,124.72282 c 0,0 -0.13261,4.63144 -0.13261,4.63144 0,0 4.11568,7.1e-4 4.11568,7.1e-4 0,0 0.13261,-4.63148 0.13261,-4.63148 0,0 -4.11568,-7e-4 -4.11568,-7e-4 z"
         style="fill:#d5d5d5;fill-opacity:1;fill-rule:nonzero;stroke:none;stroke-width:0.352778"
         id="path1558" />
      <path
         d="m 129.57623,87.654521 c 0,0 0,-3.429917 0,-3.429917 0,0 -4.0659,0 -4.0659,0 0,0 0,3.429917 0,3.429917 0,0 4.0659,0 4.0659,0 z"
         style="fill:#d5d5d5;fill-opacity:1;fill-rule:nonzero;stroke:none;stroke-width:0.352778"
         id="path1560" />
      <g
         id="g1562"
         transform="matrix(0.01763889,0,0,0.01763889,-289.80161,58.619076)">
        <path
           d="m 26027.82,3996.859 c 0,0 0,-3139.5394 0,-3139.5394 0,0 -3082.18,0 -3082.18,0 0,0 0,3139.5394 0,3139.5394 0,0 3082.18,0 3082.18,0 z"
           style="fill:none;stroke:#000000;stroke-width:20;stroke-linecap:butt;stroke-linejoin:miter;stroke-miterlimit:10;stroke-dasharray:none;stroke-opacity:1"
           id="path1564" />
      </g>
      <g
         id="g1566"
         transform="matrix(0.01763889,0,0,0.01763889,-289.80161,58.619076)">
        <path
           d="M 26006.89,3458.32 H 22957.42"
           style="fill:none;stroke:#000000;stroke-width:20;stroke-linecap:round;stroke-linejoin:miter;stroke-miterlimit:10;stroke-dasharray:none;stroke-opacity:1"
           id="path1568" />
      </g>
      <g
         id="g1570"
         transform="matrix(0.01763889,0,0,0.01763889,-289.80161,58.619076)">
        <path
           d="m 25488.04,3983.153 -4.11,-3122.7374"
           style="fill:none;stroke:#000000;stroke-width:20;stroke-linecap:round;stroke-linejoin:miter;stroke-miterlimit:10;stroke-dasharray:none;stroke-opacity:1"
           id="path1572" />
      </g>
      <g
         id="g1574"
         transform="matrix(0.35277777,0,0,0.35277777,104.26877,122.44222)">
        <text
           transform="translate(0,13.5)"
           style="font-variant:normal;font-weight:normal;font-size:18px;font-family:Times;-inkscape-font-specification:Times-Roman;writing-mode:lr-tb;fill:#000000;fill-opacity:1;fill-rule:nonzero;stroke:none"
           id="text1578"><tspan
             x="0 12.9996 18.993601"
             y="0"
             sodipodi:role="line"
             id="tspan1576">H-s</tspan></text>
      </g>
      <g
         id="g1580"
         transform="matrix(0.01763889,0,0,0.01763889,-289.80161,58.619076)">
        <path
           d="m 22937.11,1669.24 h 3120"
           style="fill:none;stroke:#000000;stroke-width:20;stroke-linecap:butt;stroke-linejoin:miter;stroke-miterlimit:10;stroke-dasharray:60, 60;stroke-dashoffset:0;stroke-opacity:1"
           id="path1582" />
      </g>
      <g
         id="g1584"
         transform="matrix(0.01763889,0,0,0.01763889,-289.80161,58.619076)">
        <path
           d="m 23791.35,878.3228 -6.64,3119.9932"
           style="fill:none;stroke:#000000;stroke-width:20;stroke-linecap:butt;stroke-linejoin:miter;stroke-miterlimit:10;stroke-dasharray:60, 60;stroke-dashoffset:0;stroke-opacity:1"
           id="path1586" />
      </g>
      <g
         id="g1588"
         transform="matrix(0.35277777,0,0,0.35277777,104.74562,100.21722)">
        <text
           transform="translate(0,13.5)"
           style="font-variant:normal;font-weight:normal;font-size:18px;font-family:Times;-inkscape-font-specification:Times-Roman;writing-mode:lr-tb;fill:#000000;fill-opacity:1;fill-rule:nonzero;stroke:none"
           id="text1592"><tspan
             x="0 10.0116 16.0056"
             y="0"
             sodipodi:role="line"
             id="tspan1590">F-p</tspan></text>
      </g>
      <g
         id="g1594"
         transform="matrix(0.35277777,0,0,0.35277777,104.74562,79.403331)">
        <text
           transform="translate(0,13.5)"
           style="font-variant:normal;font-weight:normal;font-size:18px;font-family:Times;-inkscape-font-specification:Times-Roman;writing-mode:lr-tb;fill:#000000;fill-opacity:1;fill-rule:nonzero;stroke:none"
           id="text1598"><tspan
             x="0 10.0116 16.0056"
             y="0"
             sodipodi:role="line"
             id="tspan1596">F-s</tspan></text>
      </g>
      <g
         id="g1600"
         transform="matrix(0.01763889,0,0,0.01763889,-289.80161,58.619076)">
        <path
           d="m 23551.26,918.3231 -6.55,3076.3129"
           style="fill:none;stroke:#000000;stroke-width:20;stroke-linecap:butt;stroke-linejoin:miter;stroke-miterlimit:10;stroke-dasharray:60, 60;stroke-dashoffset:0;stroke-opacity:1"
           id="path1602" />
      </g>
      <g
         id="g1604"
         transform="matrix(0.01763889,0,0,0.01763889,-289.80161,58.619076)">
        <path
           d="m 26019.9,1425.56 -3091.82,25.289"
           style="fill:none;stroke:#000000;stroke-width:20;stroke-linecap:butt;stroke-linejoin:miter;stroke-miterlimit:10;stroke-dasharray:60, 60;stroke-dashoffset:0;stroke-opacity:1"
           id="path1606" />
      </g>
      <g
         id="g1608"
         transform="matrix(0.01763889,0,0,0.01763889,-289.80161,58.619076)">
        <path
           d="m 22968.03,2558.319 h 3048.24"
           style="fill:none;stroke:#000000;stroke-width:20;stroke-linecap:butt;stroke-linejoin:miter;stroke-miterlimit:10;stroke-dasharray:60, 60;stroke-dashoffset:0;stroke-opacity:1"
           id="path1610" />
      </g>
      <g
         id="g1612"
         transform="matrix(0.01763889,0,0,0.01763889,-289.80161,58.619076)">
        <path
           d="m 22947.55,3737.837 h 3120"
           style="fill:none;stroke:#000000;stroke-width:20;stroke-linecap:butt;stroke-linejoin:miter;stroke-miterlimit:10;stroke-dasharray:60, 60;stroke-dashoffset:0;stroke-opacity:1"
           id="path1614" />
      </g>
      <g
         id="g1616"
         transform="matrix(0.01763889,0,0,0.01763889,-289.80161,58.619076)">
        <path
           d="m 25749.68,909.2679 18.54,3119.9451"
           style="fill:none;stroke:#000000;stroke-width:20;stroke-linecap:butt;stroke-linejoin:miter;stroke-miterlimit:10;stroke-dasharray:60, 60;stroke-dashoffset:0;stroke-opacity:1"
           id="path1618" />
      </g>
      <g
         id="g1620"
         transform="matrix(0.35277777,0,0,0.35277777,116.46002,69.064262)">
        <text
           transform="translate(0,9)"
           style="font-variant:normal;font-weight:normal;font-size:12px;font-family:Times;-inkscape-font-specification:Times-Roman;writing-mode:lr-tb;fill:#000000;fill-opacity:1;fill-rule:nonzero;stroke:none"
           id="text1624"><tspan
             x="0 6 10.6704 16.670401"
             y="0"
             sodipodi:role="line"
             id="tspan1622">1s2s</tspan></text>
      </g>
      <g
         id="g1626"
         transform="matrix(0.35277777,0,0,0.35277777,125.69822,69.033887)">
        <text
           transform="translate(0,9)"
           style="font-variant:normal;font-weight:normal;font-size:12px;font-family:Times;-inkscape-font-specification:Times-Roman;writing-mode:lr-tb;fill:#000000;fill-opacity:1;fill-rule:nonzero;stroke:none"
           id="text1630"><tspan
             x="0 6"
             y="0"
             sodipodi:role="line"
             id="tspan1628">3s</tspan></text>
      </g>
      <g
         id="g1632"
         transform="matrix(0.35277777,0,0,0.35277777,135.88323,68.97321)">
        <text
           transform="translate(0,9)"
           style="font-variant:normal;font-weight:normal;font-size:12px;font-family:Times;-inkscape-font-specification:Times-Roman;writing-mode:lr-tb;fill:#000000;fill-opacity:1;fill-rule:nonzero;stroke:none"
           id="text1636"><tspan
             x="0 6"
             y="0"
             sodipodi:role="line"
             id="tspan1634">2p</tspan></text>
      </g>
      <g
         id="g1638"
         transform="matrix(0.01763889,0,0,0.01763889,-289.80161,58.619076)">
        <path
           d="m 24658.01,878.3231 -6.67,3132.4729"
           style="fill:none;stroke:#000000;stroke-width:20;stroke-linecap:butt;stroke-linejoin:miter;stroke-miterlimit:10;stroke-dasharray:60, 60;stroke-dashoffset:0;stroke-opacity:1"
           id="path1640" />
      </g>
      <g
         id="g1642"
         transform="matrix(0.35277777,0,0,0.35277777,148.95414,68.97321)">
        <text
           transform="translate(0,9)"
           style="font-variant:normal;font-weight:normal;font-size:12px;font-family:Times;-inkscape-font-specification:Times-Roman;writing-mode:lr-tb;fill:#000000;fill-opacity:1;fill-rule:nonzero;stroke:none"
           id="text1646"><tspan
             x="0 6"
             y="0"
             sodipodi:role="line"
             id="tspan1644">3p</tspan></text>
      </g>
      <g
         id="g1648"
         transform="matrix(0.35277777,0,0,0.35277777,130.12445,59.582865)">
        <text
           transform="translate(0,13.5)"
           style="font-variant:normal;font-weight:normal;font-size:18px;font-family:Times;-inkscape-font-specification:Times-Roman;writing-mode:lr-tb;fill:#000000;fill-opacity:1;fill-rule:nonzero;stroke:none"
           id="text1652"><tspan
             x="0"
             y="0"
             id="tspan1650">F</tspan></text>
      </g>
      <g
         id="g1654"
         transform="matrix(0.01763889,0,0,0.01763889,-289.80161,58.619076)">
        <path
           d="m 25227.25,627.7016 c 0,-78.2846 -63.54,-141.8276 -141.83,-141.8276 0,0 -850.96,0 -850.96,0 -78.29,0 -141.83,-63.543 -141.83,-141.8276 0,78.2846 -63.54,141.8276 -141.83,141.8276 0,0 -850.96,0 -850.96,0 -78.29,0 -141.83,63.543 -141.83,141.8276"
           style="fill:none;stroke:#000000;stroke-width:20;stroke-linecap:butt;stroke-linejoin:miter;stroke-miterlimit:10;stroke-dasharray:none;stroke-opacity:1"
           id="path1656" />
      </g>
      <g
         id="g1658"
         transform="matrix(0.35277777,0,0,0.35277777,159.80114,69.020376)">
        <text
           transform="translate(0,9)"
           style="font-variant:normal;font-weight:normal;font-size:12px;font-family:Times;-inkscape-font-specification:Times-Roman;writing-mode:lr-tb;fill:#000000;fill-opacity:1;fill-rule:nonzero;stroke:none"
           id="text1662"><tspan
             x="0 6"
             y="0"
             sodipodi:role="line"
             id="tspan1660">1s</tspan></text>
      </g>
      <g
         id="g1664"
         transform="matrix(0.35277777,0,0,0.35277777,165.64134,69.020376)">
        <text
           transform="translate(0,9)"
           style="font-variant:normal;font-weight:normal;font-size:12px;font-family:Times;-inkscape-font-specification:Times-Roman;writing-mode:lr-tb;fill:#000000;fill-opacity:1;fill-rule:nonzero;stroke:none"
           id="text1668"><tspan
             x="0 6"
             y="0"
             sodipodi:role="line"
             id="tspan1666">2s</tspan></text>
      </g>
      <g
         id="g1670"
         transform="matrix(0.01763889,0,0,0.01763889,-289.80161,58.619076)">
        <path
           d="m 26034,537.3648 c 0,-19.5283 -15.85,-35.3793 -35.38,-35.3793 0,0 -212.28,0 -212.28,0 -19.53,0 -35.38,-15.851 -35.38,-35.3793 0,19.5283 -15.85,35.3793 -35.38,35.3793 0,0 -212.27,0 -212.27,0 -19.53,0 -35.38,15.851 -35.38,35.3793"
           style="fill:none;stroke:#000000;stroke-width:20;stroke-linecap:butt;stroke-linejoin:miter;stroke-miterlimit:10;stroke-dasharray:none;stroke-opacity:1"
           id="path1672" />
      </g>
      <g
         id="g1674"
         transform="matrix(0.35277777,0,0,0.35277777,161.81254,60.14805)">
        <text
           transform="translate(0,13.5)"
           style="font-variant:normal;font-weight:normal;font-size:18px;font-family:Times;-inkscape-font-specification:Times-Roman;writing-mode:lr-tb;fill:#000000;fill-opacity:1;fill-rule:nonzero;stroke:none"
           id="text1678"><tspan
             x="0"
             y="0"
             id="tspan1676">H</tspan></text>
      </g>
      <path
         d="m 164.77753,119.42329 c 0,0 4.37882,-0.18736 4.37882,-0.18736 0,0 -0.039,-15.22762 -0.039,-15.22762 0,0 -4.37882,0.1874 -4.37882,0.1874 0,0 0.039,15.22758 0.039,15.22758 z"
         style="fill:#d5d5d5;fill-opacity:1;fill-rule:nonzero;stroke:none;stroke-width:0.352778"
         id="path1680" />
      <path
         d="m 129.78081,128.61541 c 0,0 0,-3.88268 0,-3.88268 0,0 -4.06591,0 -4.06591,0 0,0 0,3.88268 0,3.88268 0,0 4.06591,0 4.06591,0 z"
         style="fill:#d5d5d5;fill-opacity:1;fill-rule:nonzero;stroke:none;stroke-width:0.352778"
         id="path1816" />
      <path
         d="m 169.06141,87.800995 c 0,0 0,-3.985578 0,-3.985578 0,0 -4.06587,0 -4.06587,0 0,0 0,3.985578 0,3.985578 0,0 4.06587,0 4.06587,0 z"
         style="fill:#d5d5d5;fill-opacity:1;fill-rule:nonzero;stroke:none;stroke-width:0.352778"
         id="path1818" />
    </g>
  </g>
</svg>
