<?xml version="1.0" encoding="UTF-8" standalone="no"?>
<!-- Created with Inkscape (http://www.inkscape.org/) -->

<svg
   width="115mm"
   height="80mm"
   viewBox="0 0 115 80"
   version="1.1"
   id="svg5"
   inkscape:version="1.1.2 (0a00cf5339, 2022-02-04)"
   sodipodi:docname="impes_01.svg"
   xmlns:inkscape="http://www.inkscape.org/namespaces/inkscape"
   xmlns:sodipodi="http://sodipodi.sourceforge.net/DTD/sodipodi-0.dtd"
   xmlns="http://www.w3.org/2000/svg"
   xmlns:svg="http://www.w3.org/2000/svg">
  <sodipodi:namedview
     id="namedview7"
     pagecolor="#ffffff"
     bordercolor="#666666"
     borderopacity="1.0"
     inkscape:pageshadow="2"
     inkscape:pageopacity="0.0"
     inkscape:pagecheckerboard="0"
     inkscape:document-units="mm"
     showgrid="false"
     showguides="true"
     inkscape:guide-bbox="true"
     inkscape:zoom="0.81134749"
     inkscape:cx="-48.684442"
     inkscape:cy="240.34092"
     inkscape:window-width="1920"
     inkscape:window-height="1007"
     inkscape:window-x="0"
     inkscape:window-y="0"
     inkscape:window-maximized="1"
     inkscape:current-layer="layer1"
     height="80mm">
    <sodipodi:guide
       position="12.913043,121.29038"
       orientation="1,0"
       id="guide522" />
    <sodipodi:guide
       position="12.913043,59.148862"
       orientation="0,-1"
       id="guide528" />
  </sodipodi:namedview>
  <defs
     id="defs2">
    <marker
       style="overflow:visible"
       id="Arrow1Mend"
       refX="0"
       refY="0"
       orient="auto"
       inkscape:stockid="Arrow1Mend"
       inkscape:isstock="true">
      <path
         transform="matrix(-0.4,0,0,-0.4,-4,0)"
         style="fill:context-stroke;fill-rule:evenodd;stroke:context-stroke;stroke-width:1pt"
         d="M 0,0 5,-5 -12.5,0 5,5 Z"
         id="path1430" />
    </marker>
    <marker
       style="overflow:visible"
       id="Arrow1Mstart"
       refX="0"
       refY="0"
       orient="auto"
       inkscape:stockid="Arrow1Mstart"
       inkscape:isstock="true">
      <path
         transform="matrix(0.4,0,0,0.4,4,0)"
         style="fill:context-stroke;fill-rule:evenodd;stroke:context-stroke;stroke-width:1pt"
         d="M 0,0 5,-5 -12.5,0 5,5 Z"
         id="path1427" />
    </marker>
    <inkscape:path-effect
       effect="bspline"
       id="path-effect526"
       is_visible="true"
       lpeversion="1"
       weight="33.333333"
       steps="2"
       helper_size="0"
       apply_no_weight="true"
       apply_with_weight="true"
       only_selected="false" />
    <inkscape:path-effect
       effect="skeletal"
       id="path-effect118"
       is_visible="true"
       lpeversion="1"
       pattern="m 12.000959,35.911039 c 0,-2.755661 2.236478,-4.992138 4.992139,-4.992138 2.75566,0 4.992138,2.236477 4.992138,4.992138 0,2.75566 -2.236478,4.992138 -4.992138,4.992138 -2.755661,0 -4.992139,-2.236478 -4.992139,-4.992138 z"
       copytype="single_stretched"
       prop_scale="0.26032215"
       scale_y_rel="false"
       spacing="0"
       normal_offset="0"
       tang_offset="0"
       prop_units="false"
       vertical_pattern="false"
       hide_knot="false"
       fuse_tolerance="0" />
    <inkscape:path-effect
       effect="bspline"
       id="path-effect116"
       is_visible="true"
       lpeversion="1"
       weight="33.333333"
       steps="2"
       helper_size="0"
       apply_no_weight="true"
       apply_with_weight="true"
       only_selected="false" />
  </defs>
  <g
     inkscape:label="Layer 1"
     inkscape:groupmode="layer"
     id="layer1">
    <g
       id="g19573"
       transform="matrix(0.54282985,0,0,0.54282985,0.34120106,-59.014423)">
      <path
         style="fill:#0044aa;stroke:none;stroke-width:0.264583px;stroke-linecap:butt;stroke-linejoin:miter;stroke-opacity:1"
         d="m 27.310456,140.69599 c 0.334855,-0.14097 6.532991,12.25573 14.194031,33.24651 0,0 3e-6,0 3e-6,0 1.959588,5.36989 3.915245,11.3127 6.289823,17.55625 1.653287,4.31629 3.437088,9.17456 6.307653,13.0513 1.633096,2.10787 3.895068,4.11632 6.302715,3.94789 2.655535,0.0359 5.151978,-1.86511 7.537786,-3.96692 3.393548,-3.1165 6.05316,-6.6255 9.435704,-10.33843 3.0916,-3.43573 6.635885,-7.10383 11.257846,-9.24212 1.312309,-0.58099 2.667597,-0.98849 4.046296,-1.26446 2.887761,-0.57804 5.84288,-0.57129 8.619247,-0.40587 4.25293,0.20933 8.18866,0.67799 11.93108,-0.0828 3.9615,-0.75959 7.60102,-2.87002 10.72099,-5.37329 3.65627,-2.94809 6.69916,-6.5481 9.26802,-10.23738 0,0 0,0 0,-1e-5 5.71152,-8.19845 9.24018,-17.16124 13.92841,-24.40683 4.47331,-6.96544 10.3689,-11.42501 16.57532,-12.89622 6.84524,-1.56481 14.13767,-0.66648 17.57905,-0.22349 4.08056,0.52526 6.25157,0.92831 6.23674,1.0727 -0.0148,0.14439 -2.23064,0.0222 -6.31703,-0.23994 -3.38725,-0.21728 -10.75908,-0.79669 -17.12771,0.8954 -5.72338,1.47075 -11.04603,5.79756 -15.24135,12.47492 -4.43845,7.11796 -7.82184,16.07826 -13.66576,24.67709 0,0 0,1e-5 0,1e-5 -2.61897,3.85189 -5.78532,7.64485 -9.65942,10.82171 -3.30396,2.72175 -7.29285,5.02657 -11.79867,5.9475 -4.2582,0.82709 -8.41811,0.38644 -12.56396,0.16019 -2.69351,-0.11826 -5.441377,-0.14229 -7.98595,0.3497 -1.215696,0.23505 -2.379296,0.58651 -3.471966,1.09672 -4.042831,1.79317 -7.324621,5.25414 -10.433406,8.60926 -3.292974,3.59829 -6.033419,7.15866 -9.642092,10.45306 -2.454049,2.32929 -5.534978,4.42466 -9.191923,4.55693 -3.621036,-0.0765 -6.492547,-2.44657 -8.246904,-4.9992 -3.069205,-4.29513 -4.873832,-9.33411 -6.443327,-13.6772 -2.310253,-6.34422 -4.162322,-12.31954 -5.997138,-17.69873 0,0 -2e-6,0 -2e-6,0 -7.171086,-21.02679 -12.778961,-33.72326 -12.444106,-33.86423 z"
         id="path114"
         inkscape:path-effect="#path-effect116;#path-effect118"
         inkscape:original-d="m 27.310456,140.69599 c 4.563153,10.83845 9.126042,21.67663 13.688667,32.51454 3.823729,12.91947 7.647043,25.83815 11.470166,38.75682 5.18174,-0.52959 10.363007,-1.05942 15.544112,-1.58953 6.730963,-10.37582 13.461391,-20.75149 20.19169,-31.12763 8.665739,3.39039 17.330869,6.78038 25.995919,10.17017 7.22709,-6.5437 14.45363,-13.08739 21.68005,-19.6315 3.87584,-9.59449 7.75126,-19.18886 11.6265,-28.78368 4.86581,-4.16178 9.73105,-8.32356 14.59633,-12.48587 8.47953,0.87145 16.95845,1.74259 25.43727,2.61349"
         sodipodi:nodetypes="cccccccccc" />
      <path
         style="fill:none;stroke:#000000;stroke-width:0.79375;stroke-linecap:butt;stroke-linejoin:miter;stroke-miterlimit:4;stroke-dasharray:none;stroke-opacity:1;marker-start:url(#Arrow1Mstart);marker-end:url(#Arrow1Mend)"
         d="m 12.913043,117.10428 c 0,40.24921 0,80.4979 0,120.74685 0,0 194.772717,0 194.772717,0"
         id="path524"
         inkscape:path-effect="#path-effect526"
         inkscape:original-d="m 12.913043,117.10428 c 2.65e-4,40.24921 0,120.74685 0,120.74685 H 207.68576"
         sodipodi:nodetypes="ccc" />
      <text
         xml:space="preserve"
         style="font-style:normal;font-weight:normal;font-size:10.5833px;line-height:1.25;font-family:sans-serif;fill:#000000;fill-opacity:1;stroke:none;stroke-width:0.264583"
         x="3.2190084"
         y="123.62567"
         id="text3221"><tspan
           sodipodi:role="line"
           id="tspan3219"
           style="stroke-width:0.264583"
           x="3.2190084"
           y="123.62567">E</tspan></text>
      <text
         xml:space="preserve"
         style="font-style:normal;font-weight:normal;font-size:10.5833px;line-height:1.25;font-family:sans-serif;fill:#000000;fill-opacity:1;stroke:none;stroke-width:0.264583"
         x="107.05227"
         y="251.1649"
         id="text3466"><tspan
           sodipodi:role="line"
           id="tspan3464"
           style="stroke-width:0.264583"
           x="107.05227"
           y="251.1649">q</tspan></text>
      <g
         id="g4647">
        <circle
           style="fill:#ffffff;stroke:#0044aa;stroke-width:0.745287;stroke-miterlimit:4;stroke-dasharray:none;stroke-opacity:1"
           id="path4429"
           cx="30.407354"
           cy="147.4624"
           r="1.8076069" />
        <circle
           style="fill:#ffffff;stroke:#0044aa;stroke-width:0.745287;stroke-miterlimit:4;stroke-dasharray:none;stroke-opacity:1"
           id="circle4511"
           cx="38.988556"
           cy="169.17378"
           r="1.8076069" />
        <circle
           style="fill:#ffffff;stroke:#0044aa;stroke-width:0.745287;stroke-miterlimit:4;stroke-dasharray:none;stroke-opacity:1"
           id="circle4513"
           cx="45.872005"
           cy="189.54819"
           r="1.8076069" />
        <circle
           style="fill:#ffffff;stroke:#0044aa;stroke-width:0.745287;stroke-miterlimit:4;stroke-dasharray:none;stroke-opacity:1"
           id="circle4515"
           cx="60.838005"
           cy="209.70824"
           r="1.8076069" />
        <circle
           style="fill:#ffffff;stroke:#0044aa;stroke-width:0.745287;stroke-miterlimit:4;stroke-dasharray:none;stroke-opacity:1"
           id="circle4517"
           cx="88.404739"
           cy="186.74924"
           r="1.8076069" />
        <circle
           style="fill:#ffcc00;stroke:#0044aa;stroke-width:0.745287;stroke-miterlimit:4;stroke-dasharray:none;stroke-opacity:1"
           id="circle4519"
           cx="103.75688"
           cy="184.78337"
           r="1.8076069" />
        <circle
           style="fill:#ffffff;stroke:#0044aa;stroke-width:0.745287;stroke-miterlimit:4;stroke-dasharray:none;stroke-opacity:1"
           id="circle4521"
           cx="115.96722"
           cy="183.90222"
           r="1.8076069" />
        <circle
           style="fill:#ffffff;stroke:#0044aa;stroke-width:0.745287;stroke-miterlimit:4;stroke-dasharray:none;stroke-opacity:1"
           id="circle4523"
           cx="140.56567"
           cy="157.29541"
           r="1.8076069" />
        <circle
           style="fill:#ffffff;stroke:#0044aa;stroke-width:0.745287;stroke-miterlimit:4;stroke-dasharray:none;stroke-opacity:1"
           id="circle4525"
           cx="152.37219"
           cy="138.26633"
           r="1.8076069" />
        <circle
           style="fill:#ffffff;stroke:#0044aa;stroke-width:0.745287;stroke-miterlimit:4;stroke-dasharray:none;stroke-opacity:1"
           id="circle4527"
           cx="174.69011"
           cy="129.82529"
           r="1.8076069" />
        <ellipse
           style="opacity:0.75;fill:none;stroke:#0044a8;stroke-width:0.904258;stroke-linecap:round;stroke-miterlimit:4;stroke-dasharray:0.904258, 1.80852;stroke-dashoffset:0;stroke-opacity:1"
           id="path13090"
           cx="88.404739"
           cy="186.74924"
           rx="19.547873"
           ry="19.547871" />
        <ellipse
           style="opacity:0.75;fill:none;stroke:#0044a8;stroke-width:0.904258;stroke-linecap:round;stroke-miterlimit:4;stroke-dasharray:0.904258, 1.80852;stroke-dashoffset:0;stroke-opacity:1"
           id="ellipse13334"
           cx="115.95832"
           cy="183.90198"
           rx="19.547873"
           ry="19.547871" />
      </g>
      <text
         xml:space="preserve"
         style="font-style:normal;font-weight:normal;font-size:8.46667px;line-height:1.25;font-family:sans-serif;fill:#000000;fill-opacity:1;stroke:none;stroke-width:0.264583"
         x="86.813522"
         y="195.16817"
         id="text13388"><tspan
           sodipodi:role="line"
           id="tspan13386"
           style="font-size:8.46667px;stroke-width:0.264583"
           x="86.813522"
           y="195.16817">q<tspan
   style="font-size:65%;baseline-shift:sub"
   id="tspan17338">1</tspan></tspan></text>
      <text
         xml:space="preserve"
         style="font-style:normal;font-weight:normal;font-size:8.46667px;line-height:1.25;font-family:sans-serif;fill:#000000;fill-opacity:1;stroke:none;stroke-width:0.264583"
         x="113.3894"
         y="192.23668"
         id="text17820"><tspan
           sodipodi:role="line"
           id="tspan17818"
           style="font-size:8.46667px;stroke-width:0.264583"
           x="113.3894"
           y="192.23668">q<tspan
   style="font-size:65%;baseline-shift:sub"
   id="tspan17816">2</tspan></tspan></text>
      <text
         xml:space="preserve"
         style="font-style:normal;font-weight:normal;font-size:8.46667px;line-height:1.25;font-family:sans-serif;fill:#aa8800;fill-opacity:1;stroke:none;stroke-width:0.264583"
         x="95.300041"
         y="165.78485"
         id="text18392"><tspan
           sodipodi:role="line"
           id="tspan18390"
           style="font-size:8.46667px;fill:#aa8800;stroke-width:0.264583"
           x="95.300041"
           y="165.78485">q<tspan
   style="font-size:65%;baseline-shift:sub;fill:#aa8800"
   id="tspan18388">x</tspan></tspan></text>
    </g>
  </g>
</svg>
